<svg xmlns="http://www.w3.org/2000/svg" xmlns:xlink="http://www.w3.org/1999/xlink" width="1080" zoomAndPan="magnify" viewBox="0 0 810 809.999993" height="1080" preserveAspectRatio="xMidYMid meet" version="1.2"><defs><filter x="0%" y="0%" width="100%" filterUnits="objectBoundingBox" id="5db11e8368" height="100%"><feColorMatrix values="0 0 0 0 1 0 0 0 0 1 0 0 0 0 1 0 0 0 1 0" type="matrix" in="SourceGraphic"/></filter><radialGradient gradientTransform="matrix(1,0,0,1,0.0000035,0.00002)" id="f264cf7ce7" gradientUnits="userSpaceOnUse" r="572.755403" cx="404.999981" fx="404.999981" cy="404.999981" fy="404.999981"><stop style="stop-color:#COLOR_GRADIENT_START;stop-opacity:1;" offset="0"/><stop style="stop-color:#6246a7;stop-opacity:1;" offset="0.0078125"/><stop style="stop-color:#6245a6;stop-opacity:1;" offset="0.0117188"/><stop style="stop-color:#6245a6;stop-opacity:1;" offset="0.015625"/><stop style="stop-color:#6145a5;stop-opacity:1;" offset="0.0195312"/><stop style="stop-color:#6145a5;stop-opacity:1;" offset="0.0234375"/><stop style="stop-color:#6144a5;stop-opacity:1;" offset="0.0273438"/><stop style="stop-color:#6044a4;stop-opacity:1;" offset="0.03125"/><stop style="stop-color:#6044a4;stop-opacity:1;" offset="0.0351562"/><stop style="stop-color:#6044a3;stop-opacity:1;" offset="0.0390625"/><stop style="stop-color:#6044a3;stop-opacity:1;" offset="0.0429688"/><stop style="stop-color:#5f43a2;stop-opacity:1;" offset="0.046875"/><stop style="stop-color:#5f43a2;stop-opacity:1;" offset="0.0507812"/><stop style="stop-color:#5f43a1;stop-opacity:1;" offset="0.0546875"/><stop style="stop-color:#5e43a1;stop-opacity:1;" offset="0.0585938"/><stop style="stop-color:#5e43a0;stop-opacity:1;" offset="0.0625"/><stop style="stop-color:#5e42a0;stop-opacity:1;" offset="0.0664062"/><stop style="stop-color:#5e429f;stop-opacity:1;" offset="0.0703125"/><stop style="stop-color:#5d429f;stop-opacity:1;" offset="0.0742188"/><stop style="stop-color:#5d429e;stop-opacity:1;" offset="0.078125"/><stop style="stop-color:#5d419e;stop-opacity:1;" offset="0.0820312"/><stop style="stop-color:#5c419d;stop-opacity:1;" offset="0.0859375"/><stop style="stop-color:#5c419d;stop-opacity:1;" offset="0.0898438"/><stop style="stop-color:#5c419d;stop-opacity:1;" offset="0.09375"/><stop style="stop-color:#5b419c;stop-opacity:1;" offset="0.0976562"/><stop style="stop-color:#5b409c;stop-opacity:1;" offset="0.101562"/><stop style="stop-color:#5b409b;stop-opacity:1;" offset="0.105469"/><stop style="stop-color:#5b409b;stop-opacity:1;" offset="0.109375"/><stop style="stop-color:#5a409a;stop-opacity:1;" offset="0.113281"/><stop style="stop-color:#5a3f9a;stop-opacity:1;" offset="0.117188"/><stop style="stop-color:#5a3f99;stop-opacity:1;" offset="0.121094"/><stop style="stop-color:#593f99;stop-opacity:1;" offset="0.125"/><stop style="stop-color:#593f98;stop-opacity:1;" offset="0.128906"/><stop style="stop-color:#593f98;stop-opacity:1;" offset="0.132812"/><stop style="stop-color:#593e97;stop-opacity:1;" offset="0.136719"/><stop style="stop-color:#583e97;stop-opacity:1;" offset="0.140625"/><stop style="stop-color:#583e96;stop-opacity:1;" offset="0.144531"/><stop style="stop-color:#583e96;stop-opacity:1;" offset="0.148438"/><stop style="stop-color:#573d96;stop-opacity:1;" offset="0.152344"/><stop style="stop-color:#573d95;stop-opacity:1;" offset="0.15625"/><stop style="stop-color:#573d95;stop-opacity:1;" offset="0.160156"/><stop style="stop-color:#563d94;stop-opacity:1;" offset="0.164062"/><stop style="stop-color:#563d94;stop-opacity:1;" offset="0.167969"/><stop style="stop-color:#563c93;stop-opacity:1;" offset="0.171875"/><stop style="stop-color:#563c93;stop-opacity:1;" offset="0.175781"/><stop style="stop-color:#553c92;stop-opacity:1;" offset="0.179688"/><stop style="stop-color:#553c92;stop-opacity:1;" offset="0.183594"/><stop style="stop-color:#553b91;stop-opacity:1;" offset="0.1875"/><stop style="stop-color:#543b91;stop-opacity:1;" offset="0.191406"/><stop style="stop-color:#543b90;stop-opacity:1;" offset="0.195312"/><stop style="stop-color:#543b90;stop-opacity:1;" offset="0.199219"/><stop style="stop-color:#543b8f;stop-opacity:1;" offset="0.203125"/><stop style="stop-color:#533a8f;stop-opacity:1;" offset="0.207031"/><stop style="stop-color:#533a8e;stop-opacity:1;" offset="0.210938"/><stop style="stop-color:#533a8e;stop-opacity:1;" offset="0.214844"/><stop style="stop-color:#523a8e;stop-opacity:1;" offset="0.21875"/><stop style="stop-color:#523a8d;stop-opacity:1;" offset="0.222656"/><stop style="stop-color:#52398d;stop-opacity:1;" offset="0.226562"/><stop style="stop-color:#52398c;stop-opacity:1;" offset="0.230469"/><stop style="stop-color:#51398c;stop-opacity:1;" offset="0.234375"/><stop style="stop-color:#51398b;stop-opacity:1;" offset="0.238281"/><stop style="stop-color:#51388b;stop-opacity:1;" offset="0.242188"/><stop style="stop-color:#50388a;stop-opacity:1;" offset="0.246094"/><stop style="stop-color:#50388a;stop-opacity:1;" offset="0.25"/><stop style="stop-color:#503889;stop-opacity:1;" offset="0.253906"/><stop style="stop-color:#4f3788;stop-opacity:1;" offset="0.261719"/><stop style="stop-color:#4e3787;stop-opacity:1;" offset="0.269531"/><stop style="stop-color:#4e3686;stop-opacity:1;" offset="0.277344"/><stop style="stop-color:#4d3685;stop-opacity:1;" offset="0.285156"/><stop style="stop-color:#4d3584;stop-opacity:1;" offset="0.292969"/><stop style="stop-color:#4c3583;stop-opacity:1;" offset="0.300781"/><stop style="stop-color:#4c3583;stop-opacity:1;" offset="0.308594"/><stop style="stop-color:#4b3482;stop-opacity:1;" offset="0.316406"/><stop style="stop-color:#4a3481;stop-opacity:1;" offset="0.324219"/><stop style="stop-color:#4a3380;stop-opacity:1;" offset="0.332031"/><stop style="stop-color:#49337f;stop-opacity:1;" offset="0.339844"/><stop style="stop-color:#49327e;stop-opacity:1;" offset="0.347656"/><stop style="stop-color:#48327d;stop-opacity:1;" offset="0.355469"/><stop style="stop-color:#47327c;stop-opacity:1;" offset="0.363281"/><stop style="stop-color:#47317b;stop-opacity:1;" offset="0.371094"/><stop style="stop-color:#46317a;stop-opacity:1;" offset="0.378906"/><stop style="stop-color:#463079;stop-opacity:1;" offset="0.386719"/><stop style="stop-color:#453078;stop-opacity:1;" offset="0.394531"/><stop style="stop-color:#442f77;stop-opacity:1;" offset="0.402344"/><stop style="stop-color:#442f76;stop-opacity:1;" offset="0.410156"/><stop style="stop-color:#432e75;stop-opacity:1;" offset="0.417969"/><stop style="stop-color:#432e74;stop-opacity:1;" offset="0.425781"/><stop style="stop-color:#422e73;stop-opacity:1;" offset="0.433594"/><stop style="stop-color:#422d73;stop-opacity:1;" offset="0.441406"/><stop style="stop-color:#412d72;stop-opacity:1;" offset="0.449219"/><stop style="stop-color:#402c71;stop-opacity:1;" offset="0.457031"/><stop style="stop-color:#402c70;stop-opacity:1;" offset="0.464844"/><stop style="stop-color:#3f2b6f;stop-opacity:1;" offset="0.472656"/><stop style="stop-color:#3f2b6e;stop-opacity:1;" offset="0.480469"/><stop style="stop-color:#3e2b6d;stop-opacity:1;" offset="0.488281"/><stop style="stop-color:#3d2a6c;stop-opacity:1;" offset="0.496094"/><stop style="stop-color:#3d2a6b;stop-opacity:1;" offset="0.503906"/><stop style="stop-color:#3d2a6b;stop-opacity:1;" offset="0.507812"/><stop style="stop-color:#3c296a;stop-opacity:1;" offset="0.511719"/><stop style="stop-color:#3c296a;stop-opacity:1;" offset="0.515625"/><stop style="stop-color:#3c2969;stop-opacity:1;" offset="0.519531"/><stop style="stop-color:#3c2969;stop-opacity:1;" offset="0.523438"/><stop style="stop-color:#3b2868;stop-opacity:1;" offset="0.527344"/><stop style="stop-color:#3b2868;stop-opacity:1;" offset="0.53125"/><stop style="stop-color:#3b2868;stop-opacity:1;" offset="0.535156"/><stop style="stop-color:#3a2867;stop-opacity:1;" offset="0.539062"/><stop style="stop-color:#3a2867;stop-opacity:1;" offset="0.542969"/><stop style="stop-color:#3a2766;stop-opacity:1;" offset="0.546875"/><stop style="stop-color:#392766;stop-opacity:1;" offset="0.550781"/><stop style="stop-color:#392765;stop-opacity:1;" offset="0.554688"/><stop style="stop-color:#392765;stop-opacity:1;" offset="0.558594"/><stop style="stop-color:#392664;stop-opacity:1;" offset="0.5625"/><stop style="stop-color:#382664;stop-opacity:1;" offset="0.566406"/><stop style="stop-color:#382663;stop-opacity:1;" offset="0.570312"/><stop style="stop-color:#382663;stop-opacity:1;" offset="0.574219"/><stop style="stop-color:#372662;stop-opacity:1;" offset="0.578125"/><stop style="stop-color:#372562;stop-opacity:1;" offset="0.582031"/><stop style="stop-color:#372561;stop-opacity:1;" offset="0.585938"/><stop style="stop-color:#372561;stop-opacity:1;" offset="0.589844"/><stop style="stop-color:#362560;stop-opacity:1;" offset="0.59375"/><stop style="stop-color:#362460;stop-opacity:1;" offset="0.597656"/><stop style="stop-color:#362460;stop-opacity:1;" offset="0.601562"/><stop style="stop-color:#35245f;stop-opacity:1;" offset="0.605469"/><stop style="stop-color:#35245f;stop-opacity:1;" offset="0.609375"/><stop style="stop-color:#35245e;stop-opacity:1;" offset="0.613281"/><stop style="stop-color:#35235e;stop-opacity:1;" offset="0.617188"/><stop style="stop-color:#34235d;stop-opacity:1;" offset="0.621094"/><stop style="stop-color:#34235d;stop-opacity:1;" offset="0.625"/><stop style="stop-color:#33235c;stop-opacity:1;" offset="0.628906"/><stop style="stop-color:#33225b;stop-opacity:1;" offset="0.636719"/><stop style="stop-color:#32225a;stop-opacity:1;" offset="0.644531"/><stop style="stop-color:#322159;stop-opacity:1;" offset="0.652344"/><stop style="stop-color:#312158;stop-opacity:1;" offset="0.660156"/><stop style="stop-color:#312057;stop-opacity:1;" offset="0.667969"/><stop style="stop-color:#302056;stop-opacity:1;" offset="0.675781"/><stop style="stop-color:#2f2055;stop-opacity:1;" offset="0.683594"/><stop style="stop-color:#2f1f55;stop-opacity:1;" offset="0.691406"/><stop style="stop-color:#2e1f54;stop-opacity:1;" offset="0.699219"/><stop style="stop-color:#2e1e53;stop-opacity:1;" offset="0.707031"/><stop style="stop-color:#2d1e52;stop-opacity:1;" offset="0.714844"/><stop style="stop-color:#2c1d51;stop-opacity:1;" offset="0.722656"/><stop style="stop-color:#2c1d50;stop-opacity:1;" offset="0.730469"/><stop style="stop-color:#2b1c4f;stop-opacity:1;" offset="0.738281"/><stop style="stop-color:#2b1c4e;stop-opacity:1;" offset="0.746094"/><stop style="stop-color:#2a1c4d;stop-opacity:1;" offset="0.753906"/><stop style="stop-color:#2a1c4d;stop-opacity:1;" offset="0.757812"/><stop style="stop-color:#2a1b4c;stop-opacity:1;" offset="0.761719"/><stop style="stop-color:#291b4c;stop-opacity:1;" offset="0.765625"/><stop style="stop-color:#291b4b;stop-opacity:1;" offset="0.769531"/><stop style="stop-color:#291b4b;stop-opacity:1;" offset="0.773438"/><stop style="stop-color:#291a4a;stop-opacity:1;" offset="0.777344"/><stop style="stop-color:#281a4a;stop-opacity:1;" offset="0.78125"/><stop style="stop-color:#281a4a;stop-opacity:1;" offset="0.785156"/><stop style="stop-color:#281a49;stop-opacity:1;" offset="0.789062"/><stop style="stop-color:#271a49;stop-opacity:1;" offset="0.792969"/><stop style="stop-color:#271948;stop-opacity:1;" offset="0.796875"/><stop style="stop-color:#271948;stop-opacity:1;" offset="0.800781"/><stop style="stop-color:#261947;stop-opacity:1;" offset="0.804688"/><stop style="stop-color:#261947;stop-opacity:1;" offset="0.808594"/><stop style="stop-color:#261846;stop-opacity:1;" offset="0.8125"/><stop style="stop-color:#251846;stop-opacity:1;" offset="0.816406"/><stop style="stop-color:#251845;stop-opacity:1;" offset="0.824219"/><stop style="stop-color:#241744;stop-opacity:1;" offset="0.832031"/><stop style="stop-color:#241743;stop-opacity:1;" offset="0.839844"/><stop style="stop-color:#231642;stop-opacity:1;" offset="0.847656"/><stop style="stop-color:#231641;stop-opacity:1;" offset="0.855469"/><stop style="stop-color:#221540;stop-opacity:1;" offset="0.863281"/><stop style="stop-color:#21153f;stop-opacity:1;" offset="0.871094"/><stop style="stop-color:#21153e;stop-opacity:1;" offset="0.878906"/><stop style="stop-color:#21143e;stop-opacity:1;" offset="0.882812"/><stop style="stop-color:#20143d;stop-opacity:1;" offset="0.886719"/><stop style="stop-color:#20143d;stop-opacity:1;" offset="0.890625"/><stop style="stop-color:#20143c;stop-opacity:1;" offset="0.894531"/><stop style="stop-color:#1f143c;stop-opacity:1;" offset="0.898438"/><stop style="stop-color:#1f133b;stop-opacity:1;" offset="0.902344"/><stop style="stop-color:#1f133b;stop-opacity:1;" offset="0.90625"/><stop style="stop-color:#1e133a;stop-opacity:1;" offset="0.910156"/><stop style="stop-color:#1e1239;stop-opacity:1;" offset="0.917969"/><stop style="stop-color:#1d1238;stop-opacity:1;" offset="0.925781"/><stop style="stop-color:#1d1237;stop-opacity:1;" offset="0.933594"/><stop style="stop-color:#1c1137;stop-opacity:1;" offset="0.941406"/><stop style="stop-color:#1c1136;stop-opacity:1;" offset="0.945312"/><stop style="stop-color:#1c1136;stop-opacity:1;" offset="0.949219"/><stop style="stop-color:#1b1135;stop-opacity:1;" offset="0.953125"/><stop style="stop-color:#1b1035;stop-opacity:1;" offset="0.957031"/><stop style="stop-color:#1a1034;stop-opacity:1;" offset="0.964844"/><stop style="stop-color:#1a0f33;stop-opacity:1;" offset="0.972656"/><stop style="stop-color:#1a0f33;stop-opacity:1;" offset="0.976562"/><stop style="stop-color:#190f32;stop-opacity:1;" offset="0.980469"/><stop style="stop-color:#190f31;stop-opacity:1;" offset="0.988281"/><stop style="stop-color:#180e30;stop-opacity:1;" offset="0.992188"/><stop style="stop-color:#COLOR_GRADIENT_STOP;stop-opacity:1;" offset="1"/></radialGradient><clipPath id="62b34c2205"><rect x="0" width="810" y="0" height="810"/></clipPath><clipPath id="a929ab137a"><path d="M 0 510 L 810 510 L 810 810 L 0 810 Z M 0 510 "/></clipPath><clipPath id="e439a7e3a7"><path d="M -46.980469 510.695312 L 920.507812 643.871094 L 864.125 1053.480469 L -103.363281 920.304688 Z M -46.980469 510.695312 "/></clipPath><clipPath id="06471f3eab"><path d="M 0 479 L 810 479 L 810 627 L 0 627 Z M 0 479 "/></clipPath><clipPath id="75c9b3e261"><path d="M -46.980469 479.789062 L 920.511719 612.964844 L 918.640625 626.53125 L -48.847656 493.355469 Z M -46.980469 479.789062 "/></clipPath><clipPath id="a84337c52d"><path d="M 57.917969 147.351562 L 370.265625 147.351562 L 370.265625 459.695312 L 57.917969 459.695312 Z M 57.917969 147.351562 "/></clipPath><clipPath id="56ae039c66"><path d="M 214.089844 147.351562 C 127.839844 147.351562 57.917969 217.273438 57.917969 303.523438 C 57.917969 389.773438 127.839844 459.695312 214.089844 459.695312 C 300.34375 459.695312 370.265625 389.773438 370.265625 303.523438 C 370.265625 217.273438 300.34375 147.351562 214.089844 147.351562 Z M 214.089844 147.351562 "/></clipPath><clipPath id="a2900d93a3"><path d="M 70.128906 160 L 358.054688 160 L 358.054688 447 L 70.128906 447 Z M 70.128906 160 "/></clipPath><clipPath id="cf2557c45d"><path d="M 214.089844 159.558594 C 134.582031 159.558594 70.128906 224.015625 70.128906 303.523438 C 70.128906 383.03125 134.582031 447.488281 214.089844 447.488281 C 293.601562 447.488281 358.054688 383.03125 358.054688 303.523438 C 358.054688 224.015625 293.601562 159.558594 214.089844 159.558594 Z M 214.089844 159.558594 "/></clipPath><clipPath id="ae9021df9f"><path d="M 132.476562 389.332031 L 444.824219 389.332031 L 444.824219 701.675781 L 132.476562 701.675781 Z M 132.476562 389.332031 "/></clipPath><clipPath id="ee4de33a7c"><path d="M 288.648438 389.332031 C 202.398438 389.332031 132.476562 459.253906 132.476562 545.503906 C 132.476562 631.757812 202.398438 701.675781 288.648438 701.675781 C 374.902344 701.675781 444.824219 631.757812 444.824219 545.503906 C 444.824219 459.253906 374.902344 389.332031 288.648438 389.332031 Z M 288.648438 389.332031 "/></clipPath><clipPath id="840e5b00c7"><path d="M 144.6875 402 L 432.613281 402 L 432.613281 689 L 144.6875 689 Z M 144.6875 402 "/></clipPath><clipPath id="6e896e458b"><path d="M 288.648438 401.539062 C 209.140625 401.539062 144.6875 465.996094 144.6875 545.503906 C 144.6875 625.011719 209.140625 689.46875 288.648438 689.46875 C 368.160156 689.46875 432.613281 625.011719 432.613281 545.503906 C 432.613281 465.996094 368.160156 401.539062 288.648438 401.539062 Z M 288.648438 401.539062 "/></clipPath><clipPath id="683a6bddf6"><path d="M 0 0 L 251.722656 0 L 251.722656 252.695312 L 0 252.695312 Z M 0 0 "/></clipPath><clipPath id="45a98e799d"><path d="M 435.832031 402.351562 L 590.222656 402.351562 L 590.222656 435.734375 L 435.832031 435.734375 Z M 435.832031 402.351562 "/></clipPath><clipPath id="2416cb7a36"><path d="M 452.523438 402.351562 L 573.503906 402.351562 C 582.722656 402.351562 590.195312 409.824219 590.195312 419.042969 C 590.195312 428.261719 582.722656 435.734375 573.503906 435.734375 L 452.523438 435.734375 C 443.304688 435.734375 435.832031 428.261719 435.832031 419.042969 C 435.832031 409.824219 443.304688 402.351562 452.523438 402.351562 Z M 452.523438 402.351562 "/></clipPath><clipPath id="875efd1e42"><path d="M 572.660156 765.542969 L 586.910156 765.542969 L 586.910156 785.792969 L 572.660156 785.792969 Z M 572.660156 765.542969 "/></clipPath><clipPath id="5ab47e7afe"><path d="M 48.417969 767.304688 L 69.417969 767.304688 L 69.417969 783.804688 L 48.417969 783.804688 Z M 48.417969 767.304688 "/></clipPath><clipPath id="366dd13e4f"><path d="M 48.417969 769 L 69.417969 769 L 69.417969 777 L 48.417969 777 Z M 48.417969 769 "/></clipPath><clipPath id="2df2c7bd69"><path d="M 325.21875 772 L 330 772 L 330 778 L 325.21875 778 Z M 325.21875 772 "/></clipPath><clipPath id="85b53a964c"><path d="M 331 766.441406 L 337 766.441406 L 337 771 L 331 771 Z M 331 766.441406 "/></clipPath><clipPath id="d54f52fd8f"><path d="M 331 779 L 337 779 L 337 783.691406 L 331 783.691406 Z M 331 779 "/></clipPath><clipPath id="5516db257a"><path d="M 338 772 L 342.46875 772 L 342.46875 778 L 338 778 Z M 338 772 "/></clipPath><clipPath id="a25b00d374"><path d="M 325.21875 778 L 331 778 L 331 783.691406 L 325.21875 783.691406 Z M 325.21875 778 "/></clipPath><clipPath id="1637c28dc5"><path d="M 336 778 L 342 778 L 342 783.691406 L 336 783.691406 Z M 336 778 "/></clipPath><clipPath id="e11e17fc43"><path d="M 325.21875 767 L 331 767 L 331 772 L 325.21875 772 Z M 325.21875 767 "/></clipPath></defs><g id="a58bf4d24a"><rect x="0" width="810" y="0" height="809.999993" style="fill:#ffffff;fill-opacity:1;stroke:none;"/><rect x="0" width="810" y="0" height="809.999993" style="fill:#ffffff;fill-opacity:1;stroke:none;"/><g transform="matrix(0.346714,0,0,0.346747,-201.741562,0.00002)"><image width="3500" xlink:href="file:///Users/erikbelt/Desktop/Mood Tracking App/AdCreator/image-generation-service/assets/2Circles_Info-img1-92c6496d.jpg" height="2336" preserveAspectRatio="xMidYMid meet"/></g><g mask="url(#4261202de9)" transform="matrix(1,0,0,1,0,0.000000000000039746)"><g clip-path="url(#62b34c2205)"><rect x="0" width="810" height="810" y="0" style="fill:url(#f264cf7ce7);stroke:none;"/></g><mask id="4261202de9"><g filter="url(#5db11e8368)"><rect x="0" width="810" y="0" height="809.999993" style="fill:#000000;fill-opacity:0.96;stroke:none;"/></g></mask></g><g clip-rule="nonzero" clip-path="url(#a929ab137a)"><g clip-rule="nonzero" clip-path="url(#e439a7e3a7)"><path style=" stroke:none;fill-rule:nonzero;fill:#ffffff;fill-opacity:1;" d="M -46.980469 510.695312 L 921.039062 643.945312 L 864.65625 1053.554688 L -103.363281 920.304688 Z M -46.980469 510.695312 "/></g></g><g clip-rule="nonzero" clip-path="url(#06471f3eab)"><g clip-rule="nonzero" clip-path="url(#75c9b3e261)"><path style=" stroke:none;fill-rule:nonzero;fill:#ffffff;fill-opacity:1;" d="M -46.980469 479.789062 L 920.484375 612.960938 L 918.617188 626.527344 L -48.847656 493.355469 Z M -46.980469 479.789062 "/></g></g><g clip-rule="nonzero" clip-path="url(#a84337c52d)"><g clip-rule="nonzero" clip-path="url(#56ae039c66)"><path style=" stroke:none;fill-rule:nonzero;fill:COLOR_CONTRAST;fill-opacity:1;" d="M 57.917969 147.351562 L 370.265625 147.351562 L 370.265625 459.695312 L 57.917969 459.695312 Z M 57.917969 147.351562 "/></g></g><g clip-rule="nonzero" clip-path="url(#a2900d93a3)"><g clip-rule="nonzero" clip-path="url(#cf2557c45d)"><g transform="matrix(0.513866,0,0,0.514157,-155.587445,159.559282)"><image width="1438" xlink:href="PLACE_PRODUCT_IMAGE_1_HERE" height="560" preserveAspectRatio="xMidYMid meet"/></g></g></g><g clip-rule="nonzero" clip-path="url(#ae9021df9f)"><g clip-rule="nonzero" clip-path="url(#ee4de33a7c)"><path style=" stroke:none;fill-rule:nonzero;fill:#ffffff;fill-opacity:1;" d="M 132.476562 389.332031 L 444.824219 389.332031 L 444.824219 701.675781 L 132.476562 701.675781 Z M 132.476562 389.332031 "/></g></g><g clip-rule="nonzero" clip-path="url(#840e5b00c7)"><g clip-rule="nonzero" clip-path="url(#6e896e458b)"><g transform="matrix(0.513866,0,0,0.514157,-81.028821,401.540445)"><image width="1438" xlink:href="PLACE_PRODUCT_IMAGE_2_HERE" height="560" preserveAspectRatio="xMidYMid meet"/></g></g></g><g clip-rule="nonzero" clip-path="url(#683a6bddf6)"><path style=" stroke:none;fill-rule:nonzero;fill:COLOR_CONTRAST;fill-opacity:1;" d="M 74.425781 -112.738281 L 55.816406 -111.167969 L 59.015625 -110.941406 L 74.425781 -112.738281 M 96.027344 -92.699219 L 94.9375 -92.625 L 95.164062 -92.578125 L 96.027344 -92.699219 M 90.910156 -92.351562 L 78.847656 -91.523438 L 83.40625 -90.929688 L 91.804688 -92.105469 L 90.910156 -92.351562 M 61.898438 -88.003906 L 62.25 -87.960938 L 62.25 -87.957031 L 60.980469 -87.78125 L 61.898438 -88.003906 M 47.140625 -90.609375 L 41.546875 -88.890625 L 35.953125 -87.167969 L 39.183594 -89.519531 L 47.140625 -90.609375 M 50.070312 -84.875 L 49.679688 -84.867188 L 48.316406 -84.40625 C 48.902344 -84.5625 49.488281 -84.71875 50.070312 -84.875 M 80.363281 -85.609375 L 92.75 -84 L 93.292969 -83.410156 L 80.375 -85.410156 L 67.421875 -84.199219 L 54.316406 -84.976562 L 80.363281 -85.609375 M 107.421875 -81.929688 L 107.589844 -81.871094 L 107.753906 -81.8125 L 107.683594 -81.8125 C 107.597656 -81.851562 107.507812 -81.890625 107.421875 -81.929688 M 69.214844 -115.304688 L 104.730469 -106.929688 L 123.480469 -104.222656 L 145.238281 -94.238281 L 171.375 -80.8125 L 139.144531 -100.339844 L 129.4375 -104.394531 L 98.097656 -113.867188 L 69.214844 -115.304688 M 109.085938 -81.191406 L 110.390625 -80.878906 L 110.996094 -80.664062 L 109.878906 -80.839844 L 109.085938 -81.191406 M 95.164062 -92.578125 L 91.804688 -92.109375 L 136.632812 -79.9375 L 134.824219 -80.960938 L 109.613281 -89.664062 L 95.164062 -92.578125 M 60.558594 -88.179688 L 61.835938 -88.015625 L 60.910156 -87.769531 L 59.277344 -87.542969 L 39.652344 -82.574219 L 60.589844 -87.683594 L 50.070312 -84.875 L 53.320312 -84.953125 L 42.417969 -81.867188 L 40.503906 -81.6875 L 38.832031 -80.929688 L 37.691406 -80.828125 L 48.316406 -84.40625 L 35.851562 -81.078125 L 35.203125 -80.601562 L 26.269531 -79.796875 L 28.425781 -80.753906 L 60.558594 -88.179688 M 33.640625 -79.464844 L 33.542969 -79.394531 L 33.449219 -79.324219 C 32.980469 -79.191406 32.511719 -79.058594 32.042969 -78.925781 C 32.574219 -79.105469 33.105469 -79.285156 33.640625 -79.464844 M 136.632812 -79.9375 L 138.554688 -78.851562 L 138.917969 -79.316406 L 136.632812 -79.9375 M 71.535156 -106.828125 L 32.535156 -96.285156 L -1.058594 -80.570312 L -3.53125 -78.800781 L -0.101562 -80.179688 L 1.460938 -81.300781 L 36.082031 -96.921875 L 71.132812 -106.042969 L 71.535156 -106.828125 M 16.125 -93.078125 L 6.539062 -91.945312 L -19.867188 -77.859375 L 10.410156 -91.746094 L -14.648438 -79.027344 L 16.125 -93.078125 M 8.1875 -80.554688 L 6.773438 -79.050781 L 5.359375 -77.550781 L -1.414062 -75.363281 C 1.785156 -77.09375 4.988281 -78.824219 8.1875 -80.554688 M 23.085938 -75.910156 L 16.921875 -73.324219 L 18.226562 -74.273438 L 23.085938 -75.910156 M 131.195312 -73.527344 L 131.972656 -73.132812 L 132.75 -72.742188 C 133.210938 -72.65625 133.675781 -72.574219 134.136719 -72.488281 C 133.15625 -72.832031 132.175781 -73.179688 131.195312 -73.527344 M 143.53125 -70.980469 L 149.792969 -69.601562 L 144.105469 -70.648438 L 143.53125 -70.980469 M 9.539062 -67.953125 L 9.070312 -67.609375 L 8.601562 -67.269531 C 9.097656 -67.492188 9.59375 -67.71875 10.089844 -67.941406 C 9.90625 -67.945312 9.722656 -67.949219 9.539062 -67.953125 M 121.890625 -75.75 L 129.890625 -73.988281 L 131.195312 -73.527344 L 130.585938 -73.835938 L 136.058594 -72.628906 L 137.046875 -71.949219 L 134.136719 -72.488281 L 138.527344 -70.933594 L 144.621094 -66.753906 L 140.855469 -68.652344 L 138.289062 -70.425781 L 139.441406 -69.367188 L 132.75 -72.742188 L 123.410156 -74.453125 L 120.769531 -75.742188 L 121.890625 -75.75 M 185.371094 -65.863281 L 185.40625 -65.835938 L 185.441406 -65.804688 L 185.414062 -65.839844 L 185.371094 -65.863281 M 175.042969 -67.265625 L 174.734375 -67.234375 L 174.421875 -67.203125 L 178.546875 -63.960938 C 177.378906 -65.0625 176.210938 -66.164062 175.042969 -67.265625 M 172.15625 -66.96875 L 174.167969 -65.125 L 176.179688 -63.285156 C 174.652344 -64.492188 173.128906 -65.703125 171.601562 -66.910156 L 172.15625 -66.96875 M 31 -77.539062 L 30.472656 -77.152344 L 10.089844 -67.941406 L 15.859375 -67.824219 L 15.214844 -66.234375 L 3.929688 -63.871094 L 8.601562 -67.269531 L 3.144531 -64.804688 L 1.652344 -63.394531 L 1.515625 -63.367188 L 0.765625 -62.960938 L 7.015625 -68.003906 L 9.539062 -67.953125 L 15.976562 -72.636719 L 31 -77.539062 M -10.183594 -72.949219 L -12.238281 -72.027344 L -14.289062 -71.101562 C -18.621094 -68.003906 -22.953125 -64.902344 -27.285156 -61.804688 L -19 -66.628906 L -10.183594 -72.949219 M -27.285156 -61.804688 L -31.632812 -59.273438 L -32.761719 -58.113281 L -32.707031 -57.433594 L -30.871094 -59.238281 L -27.285156 -61.804688 M 158.328125 -81.023438 L 188.773438 -56.527344 L 188.976562 -56.480469 L 175.347656 -72.15625 L 158.328125 -81.023438 M -3.796875 -58.25 L -5.585938 -56.558594 L -7.378906 -54.867188 C -7.78125 -54.679688 -8.179688 -54.488281 -8.582031 -54.296875 L -7.34375 -55.667969 L -3.796875 -58.25 M -32.707031 -57.433594 L -35.246094 -54.9375 L -37.785156 -52.4375 C -36.039062 -53.492188 -34.296875 -54.546875 -32.554688 -55.601562 C -32.605469 -56.210938 -32.65625 -56.824219 -32.707031 -57.433594 M -29.535156 -61.425781 L -37.296875 -55.472656 L -41.691406 -50.074219 L -39.027344 -51.6875 L -32.761719 -58.113281 L -32.800781 -58.59375 L -31.632812 -59.273438 L -29.535156 -61.425781 M -22.386719 -53.558594 L -27.753906 -48.425781 L -24.808594 -51.847656 L -22.386719 -53.558594 M 185.441406 -65.804688 L 196.746094 -53.25 L 208.054688 -40.695312 C 204.546875 -45.890625 201.039062 -51.082031 197.53125 -56.273438 L 185.441406 -65.804688 M 142.484375 -42.296875 L 143.195312 -41.917969 L 143.910156 -41.539062 L 146.335938 -38.9375 L 145.183594 -39.667969 L 142.484375 -42.296875 M -29.742188 -73.394531 L -40.398438 -66.535156 L -64.835938 -38.097656 L -45.285156 -60.222656 L -27.429688 -71.832031 L -29.742188 -73.394531 M 175.289062 -36.695312 L 175.820312 -36.285156 L 176.355469 -35.871094 L 175.359375 -36.566406 L 175.289062 -36.695312 M 203.226562 -40.089844 L 206.484375 -35.664062 L 209.738281 -31.242188 L 208.636719 -33.871094 L 203.226562 -40.089844 M 186.882812 -47.265625 L 187.902344 -43.617188 L 187.871094 -43.464844 L 187.007812 -44.335938 L 191.125 -34.554688 L 194.839844 -31.148438 L 186.882812 -47.265625 M -41.605469 -30.351562 L -41.957031 -29.742188 L -41.992188 -29.71875 L -41.605469 -30.351562 M 149.511719 -48.125 L 169.238281 -31.296875 L 170.355469 -29.472656 L 153.976562 -43.097656 L 149.511719 -48.125 M 183.863281 -52.304688 L 189.730469 -43.75 L 195.59375 -35.195312 L 199.699219 -29.28125 C 197.769531 -33.867188 195.839844 -38.449219 193.910156 -43.03125 L 183.863281 -52.304688 M 198.097656 -38.445312 L 201.460938 -33.457031 L 204.820312 -28.46875 L 202.375 -32.605469 L 198.097656 -38.445312 M 195.109375 -26.125 L 195.125 -26.09375 C 195.175781 -26.046875 195.226562 -25.996094 195.277344 -25.949219 L 195.109375 -26.125 M 171.523438 -25.226562 L 171.695312 -24.9375 L 171.550781 -25.203125 L 171.523438 -25.226562 M -16.71875 -34.824219 L -17.945312 -34.207031 C -21.730469 -30.84375 -25.519531 -27.480469 -29.304688 -24.121094 C -25.894531 -26.679688 -22.484375 -29.234375 -19.074219 -31.792969 L -16.71875 -34.824219 M 82.941406 -16.730469 L 82.359375 -16.632812 L 81.78125 -16.539062 L 81.984375 -16.695312 C 82.304688 -16.707031 82.621094 -16.71875 82.941406 -16.730469 M 95.84375 -17.214844 L 93.300781 -16.125 L 90.738281 -17.023438 L 95.84375 -17.214844 M 60.828125 -14.996094 L 55.785156 -12.238281 L 51.851562 -11.585938 L 53.519531 -13.765625 L 60.828125 -14.996094 M 231.179688 -36.695312 L 236.1875 -22.496094 L 241.195312 -8.292969 C 240.726562 -10.390625 240.253906 -12.484375 239.785156 -14.582031 L 231.179688 -36.695312 M 189.515625 -66.824219 L 207.164062 -46.078125 L 217.449219 -26.398438 L 224.21875 -11.566406 L 226.71875 -8.171875 L 226.839844 -7.820312 L 225.367188 -15.96875 L 210.613281 -42.082031 L 189.515625 -66.824219 M 44.480469 -7.992188 L 42.804688 -5.855469 L 42.714844 -5.785156 L 39.511719 -2.804688 L 44.480469 -7.992188 M -14.191406 -38.074219 L -16.71875 -34.824219 L -11.566406 -37.425781 L -19.074219 -31.792969 L -22.925781 -26.839844 L -25.46875 -21.09375 L -38.707031 -4.542969 L -43.875 4.972656 L -42.292969 0.0976562 L -26.085938 -23.136719 L -44.132812 1.164062 L -31.335938 -21.558594 L -21.832031 -33.695312 L -14.191406 -38.074219 M 219.109375 -8.003906 L 219.65625 -5.445312 L 225.082031 9.824219 L 223.390625 1.226562 L 219.851562 -7.195312 L 219.109375 -8.003906 M 168.144531 -30.785156 L 171.34375 -27.867188 L 184.613281 -6.242188 L 186.722656 -0.214844 L 171.695312 -24.9375 L 189.742188 8.410156 L 190.695312 11.136719 L 182.574219 -0.308594 L 171.289062 -24.417969 L 167.941406 -27.707031 L 171.523438 -25.226562 L 168.144531 -30.785156 M 225.082031 9.824219 L 225.191406 10.378906 L 225.296875 10.933594 L 226.410156 13.558594 C 225.964844 12.3125 225.523438 11.070312 225.082031 9.824219 M 220.949219 0.636719 L 221.765625 4.476562 L 222.585938 8.316406 L 226.089844 14.957031 C 225.824219 13.613281 225.5625 12.273438 225.296875 10.933594 L 220.949219 0.636719 M -44.75 2.261719 L -46.351562 7.371094 L -47.953125 12.476562 C -48.511719 13.511719 -49.074219 14.542969 -49.636719 15.578125 L -47.585938 7.296875 L -44.75 2.261719 M -62.226562 15.214844 L -62.34375 15.671875 L -62.464844 16.125 L -62.808594 16.75 L -62.226562 15.214844 M 226.410156 13.558594 L 227.769531 17.394531 C 227.675781 16.96875 227.582031 16.542969 227.488281 16.117188 L 226.410156 13.558594 M 228.605469 22.898438 L 228.53125 24.597656 L 228.453125 26.296875 L 228.863281 27.332031 C 228.777344 25.855469 228.691406 24.378906 228.605469 22.898438 M 22.40625 28.511719 L 22.324219 28.765625 L 22.238281 29.015625 C 22.230469 28.957031 22.222656 28.898438 22.214844 28.839844 C 22.277344 28.730469 22.34375 28.621094 22.40625 28.511719 M 26.585938 21.503906 L 23.191406 35.210938 L 22.71875 32.136719 L 25.964844 22.542969 L 26.585938 21.503906 M 22.835938 21.359375 L 20.78125 29.375 L 18.722656 37.394531 L 21.191406 23.988281 L 22.835938 21.359375 M 228.863281 27.332031 L 229.027344 30.128906 L 229.191406 32.929688 L 231.914062 39.5 L 230.082031 30.414062 L 228.863281 27.332031 M 193.257812 20.992188 L 194.445312 26.621094 L 195.636719 32.253906 C 195.292969 31.339844 194.949219 30.429688 194.605469 29.519531 L 195.796875 41.921875 C 194.949219 34.945312 194.105469 27.96875 193.257812 20.992188 M 195.644531 14.605469 L 201.933594 34.566406 L 203.242188 43.019531 L 197.5 22.015625 L 195.644531 14.605469 M 228.261719 30.679688 L 228.066406 35.074219 L 228.023438 38.46875 L 229.9375 45.605469 L 229.191406 32.929688 L 228.261719 30.679688 M -99.144531 10.394531 L -99.246094 13.433594 L -99.34375 16.472656 C -99.121094 18.34375 -98.894531 20.21875 -98.671875 22.089844 C -101.902344 31.144531 -105.128906 40.195312 -108.359375 49.246094 L -99.144531 10.394531 M 241.195312 -8.292969 L 248.113281 22.476562 L 251.636719 54.253906 L 249.117188 17.941406 L 246.113281 8.605469 L 245.625 4.257812 L 241.195312 -8.292969 M 68.742188 55.046875 L 68.730469 55.3125 L 68.714844 55.582031 L 68.691406 55.675781 C 68.707031 55.464844 68.726562 55.257812 68.742188 55.046875 M 198.992188 56.632812 L 199.074219 57.386719 L 199.160156 58.136719 L 199.035156 59.1875 L 198.777344 57.820312 L 198.992188 56.632812 M 81.953125 57.925781 L 81.148438 60.140625 L 80.347656 62.359375 L 80.289062 60.78125 C 80.84375 59.828125 81.398438 58.875 81.953125 57.925781 M 198.433594 59.738281 L 198.539062 63.421875 L 198.472656 63.980469 C 198.363281 63.09375 198.257812 62.203125 198.148438 61.316406 L 198.433594 59.738281 M 241.082031 49.78125 L 241.496094 65.164062 L 242.035156 58.625 C 241.71875 55.675781 241.402344 52.730469 241.082031 49.78125 M 204.824219 53.242188 L 206.652344 65.046875 C 206.5625 66.175781 206.476562 67.308594 206.390625 68.4375 L 204.824219 53.242188 M 82.597656 67.714844 L 81.632812 69.371094 L 80.671875 71.027344 L 80.585938 68.695312 C 81.253906 68.367188 81.925781 68.042969 82.597656 67.714844 M 149.128906 70.417969 L 149.148438 70.503906 L 149.171875 70.589844 L 148.867188 71.378906 C 148.953125 71.058594 149.039062 70.738281 149.128906 70.417969 M 197.664062 63.992188 L 198.289062 65.523438 L 197.484375 72.347656 C 197.378906 71.195312 197.269531 70.042969 197.160156 68.890625 C 197.144531 68.273438 197.128906 67.660156 197.117188 67.042969 L 197.664062 63.992188 M 199.941406 69.582031 L 200.402344 70.714844 L 200.460938 71.519531 L 199.828125 75.164062 L 199.621094 73.460938 L 200.023438 71.90625 C 199.996094 71.128906 199.96875 70.355469 199.941406 69.582031 M 77.9375 67.878906 L 79.414062 68.832031 L 79.789062 72.542969 L 76.566406 78.085938 L 77.9375 67.878906 M 238.738281 68.832031 L 238.386719 71.082031 L 238.039062 73.332031 C 237.730469 76.960938 237.425781 80.59375 237.117188 84.222656 C 237.792969 82.101562 238.46875 79.980469 239.144531 77.859375 L 238.738281 68.832031 M 193.324219 86.3125 L 193.320312 86.335938 L 193.316406 86.355469 C 193.308594 86.382812 193.300781 86.410156 193.289062 86.441406 C 193.300781 86.398438 193.3125 86.355469 193.324219 86.3125 M 198.902344 76.242188 L 199.136719 84.351562 L 199.367188 92.460938 C 198.957031 88.054688 198.542969 83.648438 198.128906 79.242188 C 198.386719 78.242188 198.644531 77.242188 198.902344 76.242188 M 11.695312 102.933594 L 12.007812 104.136719 L 12.324219 105.339844 C 12.207031 105.253906 12.089844 105.171875 11.972656 105.089844 C 11.878906 104.371094 11.785156 103.652344 11.695312 102.933594 M 16.136719 107.144531 L 16.730469 107.992188 L 17.324219 108.84375 L 16.328125 108.144531 C 16.265625 107.8125 16.199219 107.476562 16.136719 107.144531 M 246.132812 62.753906 L 243.414062 68.074219 L 241.9375 81.621094 L 242.113281 88.128906 L 240.792969 92.117188 L 240.171875 97.808594 L 238.46875 110.277344 L 242.75 97.527344 L 245.320312 94.617188 L 246.132812 62.753906 M -97.296875 47.742188 L -100.707031 70.605469 L -100.445312 79.335938 L -92.632812 111.417969 L -95.835938 92.769531 L -98.765625 72.738281 L -97.296875 47.742188 M 6.71875 106.191406 L 8.21875 108.070312 L 9.410156 111.730469 L 8.304688 110.96875 L 6.71875 106.191406 M 13.15625 114.242188 L 13.210938 114.308594 L 13.265625 114.378906 L 13.164062 114.308594 L 13.15625 114.242188 M 12.691406 110.667969 L 14.050781 111.902344 L 15.019531 115.582031 L 13.789062 114.738281 L 13.09375 113.761719 L 12.691406 110.667969 M 20.445312 117.722656 L 20.757812 118.007812 L 21.070312 118.289062 L 21.917969 120.324219 L 21.523438 120.050781 L 20.445312 117.722656 M -61.128906 120.3125 L -61.101562 120.375 L -61.089844 120.425781 L -61.128906 120.3125 M -97.921875 103.613281 L -88.859375 123.824219 C -88.820312 123.863281 -88.777344 123.90625 -88.734375 123.949219 L -97.921875 103.613281 M 223.320312 101.332031 L 221.527344 105.777344 L 215.703125 118.089844 L 213.851562 124.273438 L 216.328125 124.976562 L 223.320312 101.332031 M 179.570312 117.203125 L 178.339844 120.015625 L 177.113281 122.828125 L 173.570312 129.117188 C 175.570312 125.144531 177.570312 121.171875 179.570312 117.203125 M 241.496094 65.164062 L 238.859375 97.074219 L 232.988281 112.566406 L 226.496094 131.339844 L 229.117188 127.421875 L 240.792969 92.117188 L 241.9375 81.621094 L 241.496094 65.164062 M -60.207031 117.296875 L -55.957031 125.230469 L -51.710938 133.164062 C -52.601562 132.03125 -53.488281 130.902344 -54.378906 129.773438 L -60.207031 117.296875 M 13.855469 134.199219 L 21.054688 140.902344 L 19.695312 140.78125 L 15.535156 136.96875 L 13.855469 134.199219 M 11.878906 121.738281 L 12.808594 122.1875 L 15.277344 129.785156 L 24.238281 141.1875 L 23.402344 141.113281 L 15.511719 132.675781 L 11.878906 121.738281 M 22.605469 138.324219 L 24.246094 139.9375 L 25.285156 141.28125 L 24.792969 141.238281 L 22.605469 138.324219 M 44.707031 141.238281 L 47.722656 142.828125 L 45.941406 143.113281 L 44.707031 141.238281 M 26.640625 143.121094 L 26.71875 143.136719 L 26.78125 143.214844 L 26.78125 143.21875 L 26.640625 143.121094 M 226.496094 131.339844 L 222.699219 137.019531 C 222.359375 139.777344 222.015625 142.535156 221.675781 145.292969 C 223.28125 140.640625 224.890625 135.988281 226.496094 131.339844 M 50.265625 144.914062 L 51.246094 146.101562 L 50.691406 146.132812 L 47.484375 145.449219 L 47.476562 145.433594 L 50.265625 144.914062 M -51.703125 141.179688 L -50.640625 142.527344 L -48.3125 147.648438 L -51.703125 141.179688 M 205.90625 125.867188 L 192.910156 148.101562 L 191.597656 148.746094 L 194.046875 143.800781 L 205.90625 125.867188 M 32.660156 151.714844 L 35.132812 154.015625 L 37.046875 156.496094 L 36.707031 156.386719 L 34.972656 154.792969 L 32.660156 151.714844 M 203.933594 156.789062 L 203.757812 157.058594 L 203.578125 157.332031 C 203.621094 157.296875 203.660156 157.257812 203.703125 157.222656 L 203.933594 156.789062 M -40.230469 156.417969 L -39.613281 156.847656 L -38.992188 157.277344 L -38.855469 157.445312 C -39.316406 157.105469 -39.773438 156.761719 -40.230469 156.417969 M 190.398438 162.6875 L 189.078125 164.195312 L 188.894531 164.300781 L 188.777344 164.085938 L 190.398438 162.6875 M 220.121094 126.207031 L 203.933594 156.789062 L 214.820312 140.140625 L 210.144531 151.660156 L 203.703125 157.222656 L 200.761719 162.785156 L 198.960938 164.394531 L 203.578125 157.332031 L 201.886719 158.792969 L 220.121094 126.207031 M 177.03125 168.820312 L 175.6875 170.554688 C 175.65625 170.570312 175.621094 170.589844 175.585938 170.609375 L 177.03125 168.820312 M -20.417969 171.234375 L -18.101562 172.390625 L -17.792969 172.730469 L -19.957031 171.578125 L -20.417969 171.234375 M 177.902344 173.464844 L 175.890625 175.445312 L 173.882812 177.429688 C 173.570312 177.53125 173.253906 177.636719 172.941406 177.742188 C 174.59375 176.316406 176.246094 174.890625 177.902344 173.464844 M -16.273438 177.414062 L -9.980469 181.339844 L -9.8125 181.523438 L -16.246094 177.449219 L -16.273438 177.414062 M 135.425781 183.460938 L 121.882812 190.554688 L 126.933594 187.566406 L 135.425781 183.460938 M 196.769531 155.414062 L 192.949219 159.777344 L 194.539062 157.027344 L 188.207031 163.058594 L 187.015625 160.917969 L 186.628906 161.277344 L 186.414062 163.472656 L 180.691406 170.214844 L 172.707031 177.820312 L 168.671875 179.164062 L 167.960938 180.039062 L 168.609375 179.183594 L 165.8125 180.113281 L 159.925781 183.976562 L 150.457031 191.546875 L 163.863281 185.566406 L 171.332031 179.128906 L 169.238281 181.125 L 185.058594 168.785156 L 178.605469 176.15625 L 182.484375 173.5 L 176.667969 180.476562 L 189.828125 165.066406 L 191.933594 163.4375 L 197.21875 156.679688 L 196.769531 155.414062 M 249.121094 116.71875 L 233.339844 151.996094 L 225.429688 164.867188 L 224.878906 171.871094 L 204.808594 192.707031 L 210.320312 190.023438 L 232.121094 165.800781 L 244.359375 146.964844 L 239.046875 152.570312 L 249.121094 116.71875 M 144.839844 188.785156 L 143.921875 189.65625 L 137.671875 192.789062 L 136.269531 192.886719 L 144.839844 188.785156 M -69.488281 175.855469 L -67.722656 181.878906 L -53.347656 194.648438 C -53.703125 193.8125 -54.054688 192.980469 -54.40625 192.144531 C -59.433594 186.714844 -64.460938 181.285156 -69.488281 175.855469 M 109.433594 193.734375 L 114.148438 195.042969 L 111.253906 196.25 L 108.875 195.644531 L 106.011719 195.675781 L 104.902344 195.332031 L 109.433594 193.734375 M 6.613281 199.535156 L 6.785156 199.613281 L 6.785156 199.609375 L 6.613281 199.535156 M 126.265625 198.507812 L 120.191406 201.550781 L 113.421875 201.472656 L 115.753906 200.667969 L 126.265625 198.507812 M 96.808594 199.34375 L 101.757812 199.976562 L 95.015625 201.621094 L 88.328125 201.171875 L 92.613281 199.660156 L 96.808594 199.34375 M 202.441406 181.472656 L 198.105469 183.621094 L 174.046875 205.910156 C 183.511719 197.765625 192.976562 189.621094 202.441406 181.472656 M 248.617188 153.042969 L 240.789062 163.574219 L 232.960938 174.109375 L 201.746094 206.070312 L 226.734375 184.082031 L 248.617188 153.042969 M 97.804688 206.839844 L 97.863281 206.84375 L 97.925781 206.847656 C 97.863281 206.851562 97.796875 206.855469 97.734375 206.863281 L 97.804688 206.839844 M 201.746094 206.070312 L 200.410156 207.25 C 200.550781 207.167969 200.695312 207.085938 200.835938 207.003906 C 201.140625 206.695312 201.445312 206.382812 201.746094 206.070312 M -88.734375 123.949219 L -81.179688 140.679688 L -55.015625 174.957031 L -34.644531 194.046875 L -16.738281 205.738281 L -9.238281 207.996094 L -22.242188 199.148438 L -33.34375 188.929688 L -43.59375 182.660156 L -72.589844 148.839844 L -87.457031 125.222656 L -88.734375 123.949219 M 5.011719 197.5625 L 6.785156 199.609375 L 14.121094 202.816406 L 13.851562 202.738281 L 6.785156 199.613281 L 6.871094 199.707031 L 11.625 202.089844 L 8.027344 201.042969 L 9.171875 202.363281 L 25.582031 208.671875 L 28.007812 209 L 22.964844 206.769531 L 23.125 206.75 L 28.398438 209.054688 L 29.816406 209.246094 L 24.867188 206.535156 L 26.300781 206.359375 L 22.554688 205.269531 L 19.117188 203.382812 L 5.011719 197.5625 M 47.675781 211.644531 L 47.886719 211.707031 L 47.886719 211.710938 L 47.46875 211.652344 C 47.535156 211.648438 47.605469 211.644531 47.675781 211.644531 M 47.980469 211.628906 L 75.480469 212.472656 L 77.261719 212.648438 L 60.144531 213.378906 L 49.480469 211.925781 L 47.902344 211.632812 L 47.980469 211.628906 M -25.277344 182.039062 L 3.527344 199.734375 L 8.027344 201.046875 L 6.871094 199.707031 L -8.714844 191.898438 L 5.011719 197.5625 L 1.867188 193.933594 L 19.117188 203.386719 L 26.300781 206.359375 L 41.894531 210.894531 L 29.816406 209.246094 L 33.65625 211.351562 L 28.398438 209.054688 L 28.007812 209 L 38.34375 213.574219 L 25.582031 208.671875 L 19.015625 207.777344 L -11.609375 192.390625 L -25.277344 182.039062 M 155.664062 205.554688 L 140.644531 212.46875 L 139.890625 213.917969 L 127.457031 215.882812 L 131.511719 213.140625 L 141.046875 210.292969 L 143.023438 209.132812 L 155.664062 205.554688 M 174.582031 211.988281 L 165.125 215.886719 L 155.667969 219.78125 L 161.796875 218.042969 C 166.058594 216.023438 170.320312 214.007812 174.582031 211.988281 M 41.5625 214.8125 L 83.253906 222.878906 L 95.5625 224.660156 L 86.109375 225.976562 L 53.078125 219.234375 L 41.5625 214.8125 M 200.410156 207.25 L 183.425781 216.996094 L 166.445312 226.738281 L 191.644531 214.960938 L 200.410156 207.25 M 56.789062 -101.703125 L 31.550781 -91.808594 C 30.8125 -92.621094 20.261719 -88.746094 -0.101562 -80.179688 L -10.183594 -72.949219 L -1.195312 -76.996094 C -15.882812 -68.863281 -24.933594 -63.171875 -28.355469 -59.921875 L -55.289062 -31.34375 L -37.785156 -52.4375 L -47.226562 -43.273438 L -41.691406 -50.074219 L -46.160156 -48.675781 L -23.042969 -68.082031 L -29.535156 -61.425781 L -20.640625 -68.242188 C -17.875 -68.539062 -12.171875 -72.054688 -3.53125 -78.800781 L -11.300781 -75.671875 L -8.046875 -80.21875 L -24.964844 -69.085938 L -50.859375 -44.824219 L -71.132812 -16.667969 L -88.648438 26.824219 L -76.855469 -9.375 L -78.832031 -9.703125 L -83.839844 0.199219 L -91.402344 27.90625 L -96.457031 63.042969 L -92.617188 100.636719 L -76.839844 134.960938 L -55.210938 166.1875 L -27.703125 191.863281 L 5.09375 211.691406 L 41.511719 223.46875 L 78.570312 226.777344 C 67.34375 227.449219 54.148438 227.273438 38.988281 226.257812 L 79.007812 228.988281 L 112.773438 226.265625 L 118.628906 223.269531 L 165.351562 207.929688 L 198.105469 183.621094 L 223.925781 159.703125 L 237.339844 131.734375 L 206.574219 169.480469 L 179.199219 194.136719 L 171.890625 195.472656 L 192.308594 181.304688 L 206.984375 167.296875 C 208.566406 163.734375 208.796875 161.992188 207.679688 162.070312 L 203.726562 165.40625 L 222.699219 137.019531 L 234.816406 104.546875 L 238.320312 88.78125 L 236.628906 90 L 237.117188 84.222656 L 235.601562 88.980469 L 238.039062 73.332031 L 238.628906 66.359375 L 238.738281 68.832031 L 240.058594 60.355469 C 239.039062 54.402344 238.675781 44.316406 238.960938 30.09375 L 241.082031 49.78125 L 240.601562 31.910156 L 238.4375 25.246094 L 238.5 25.839844 L 226.839844 -7.820312 L 227.4375 -4.519531 L 224.21875 -11.566406 L 209.738281 -31.242188 L 219.851562 -7.195312 L 222.25 -4.570312 L 227.488281 16.117188 L 237.140625 37.347656 L 237.648438 44.429688 L 235.078125 49.632812 L 233.375 71.359375 C 233.722656 59.734375 232.574219 51.148438 229.9375 45.605469 L 230.632812 57.464844 L 225.785156 92.996094 L 223.320312 101.332031 L 229.820312 85.207031 L 218.367188 121.148438 L 221.050781 117.070312 L 233.152344 74.183594 L 232.683594 80.164062 L 222.179688 117.386719 L 203.441406 153.875 L 208.125 142.730469 L 197.21875 156.679688 L 198 158.863281 L 191.933594 163.4375 L 182.601562 175.378906 C 177.34375 180.425781 174.464844 182.453125 173.957031 181.460938 L 178.605469 176.15625 L 153.460938 193.375 L 143.433594 196.339844 L 167.449219 177.964844 C 169.246094 177.378906 170.65625 176.429688 171.683594 175.121094 L 168.671875 179.164062 L 172.699219 174.179688 L 186.628906 161.277344 L 186.714844 160.378906 L 187.015625 160.917969 L 198.359375 150.410156 L 194.539062 157.027344 C 195.367188 157.015625 197.511719 154.878906 200.980469 150.605469 L 213.167969 124.789062 L 209.691406 130.800781 C 212.777344 127.859375 217.707031 113.855469 224.480469 88.789062 L 227.648438 68.695312 L 228.023438 38.46875 L 222.929688 19.460938 C 224.984375 22.761719 226.757812 26.503906 228.261719 30.679688 L 228.453125 26.296875 L 215.433594 -6.609375 L 209.316406 -12.300781 L 194.445312 -32.738281 L 197.261719 -21.929688 L 194.402344 -26.777344 C 194.089844 -27.179688 194.324219 -26.960938 195.109375 -26.125 C 194.503906 -26.539062 193.175781 -29.347656 191.125 -34.554688 C 186.011719 -38.195312 180.230469 -44.5625 173.773438 -53.652344 L 155.175781 -68.183594 L 156.003906 -68.992188 L 138.554688 -78.851562 L 137.28125 -77.210938 L 130.210938 -78.695312 L 96.050781 -88.152344 L 93.433594 -89.621094 L 83.40625 -90.929688 L 61.949219 -88.015625 L 78.847656 -91.523438 L 66.007812 -93.195312 L 80.496094 -95.183594 C 89.570312 -92.257812 94.382812 -91.40625 94.9375 -92.625 L 81.550781 -95.328125 L 86.332031 -95.980469 L 131.382812 -85.527344 L 173.335938 -62.019531 L 183.863281 -52.304688 L 182.921875 -56.167969 L 198.097656 -38.445312 L 189.691406 -50.925781 L 193.734375 -47.222656 C 198.808594 -37.480469 205.257812 -27.734375 213.082031 -17.984375 L 220.949219 0.636719 L 219.65625 -5.445312 L 215.613281 -16.816406 L 195.789062 -48.644531 L 203.226562 -40.089844 L 191.21875 -55.976562 C 188.316406 -57.242188 188.230469 -56.648438 190.960938 -54.199219 L 178.546875 -63.960938 L 191.71875 -51.535156 L 186.785156 -54.890625 L 172.238281 -66.976562 L 174.421875 -67.203125 L 158.867188 -79.433594 L 113.71875 -98.933594 L 56.789062 -101.703125 M 155.667969 219.78125 L 120.683594 229.71875 L 108.242188 233.164062 L 108.164062 234.0625 L 139.023438 229.574219 L 131.460938 229.757812 L 155.667969 219.78125 M 24.234375 222.90625 L 23.789062 223.683594 L 23.347656 224.464844 L 60.722656 235.59375 L 64.535156 234.863281 L 24.234375 222.90625 M 37.214844 -111.957031 L 22.339844 -110.582031 L -8.054688 -97.460938 L -41.097656 -77.007812 L -48.71875 -74.039062 L -75.535156 -43.386719 L -65.34375 -58.085938 C -76.867188 -45.15625 -84.773438 -35.058594 -89.074219 -27.800781 L -101.253906 3.121094 L -112.304688 45.894531 L -114.316406 90.355469 L -108.234375 107.3125 L -107.019531 105.410156 L -108.628906 94.554688 L -98.855469 120.875 L -82.449219 149.96875 L -59.398438 181.628906 C -80.035156 155.769531 -91.6875 140.242188 -94.359375 135.042969 L -72.023438 168.636719 L -47.359375 194.605469 C -37.34375 200.925781 -27.246094 207.882812 -17.058594 215.476562 L 11.847656 227.941406 L 48.070312 237.734375 L 55.460938 238.394531 L 33.203125 232.90625 L -5.707031 219.300781 L -41.882812 195.589844 L -69.816406 166.816406 L -73.320312 161.074219 L -44.058594 192.039062 L -14.050781 212.042969 L -37.328125 195.6875 L -65.457031 168.890625 L -80.511719 147.167969 L -99.464844 111.5625 L -106.21875 66.367188 L -100.835938 35.066406 L -94.25 9.21875 L -74.800781 -32.328125 L -67.390625 -41.246094 L -88.355469 -3.246094 L -97.441406 23.382812 L -85.695312 -1.046875 L -88.167969 0.769531 L -72.347656 -31.882812 L -41.261719 -67.972656 L -12.585938 -84.644531 L 22.410156 -100.664062 L -9.332031 -88.714844 L 19.90625 -101.078125 L 53.917969 -107.90625 L 89.480469 -105.875 L 91.042969 -106.945312 L 109.316406 -102.894531 L 92.429688 -108.578125 L 59.015625 -110.941406 C 32.453125 -108.203125 17.265625 -106.074219 13.453125 -104.550781 L 37.214844 -111.957031 M 144.785156 238.140625 L 140.835938 238.792969 L 97.863281 244.480469 L 59.175781 246.402344 L 105.90625 245.390625 L 132.441406 240.78125 L 143.527344 239.410156 L 144.785156 238.140625 M 126.984375 247.203125 L 82.898438 251.566406 L 104.519531 250.804688 L 113.199219 250.324219 L 126.984375 247.203125 M 82.898438 251.566406 L 81.375 251.621094 L 81.957031 251.660156 C 82.273438 251.628906 82.585938 251.597656 82.898438 251.566406 M 19.507812 246.15625 L 61.664062 252.316406 L 81.375 251.621094 L 40.828125 248.902344 L 19.507812 246.15625 "/></g><path style="fill:none;stroke-width:4;stroke-linecap:butt;stroke-linejoin:miter;stroke:COLOR_CONTRAST;stroke-opacity:1;stroke-miterlimit:4;" d="M 0.000439568 2.000209 L 102.911903 2.000209 " transform="matrix(0.75,0,0,0.75,435.831702,214.577968)"/><g clip-rule="nonzero" clip-path="url(#45a98e799d)"><g clip-rule="nonzero" clip-path="url(#2416cb7a36)"><path style=" stroke:none;fill-rule:nonzero;fill:COLOR_CONTRAST;fill-opacity:1;" d="M 435.832031 402.351562 L 590.222656 402.351562 L 590.222656 435.734375 L 435.832031 435.734375 Z M 435.832031 402.351562 "/></g></g><g clip-rule="nonzero" clip-path="url(#875efd1e42)"><path style=" stroke:none;fill-rule:nonzero;fill:COLOR_CONTRAST;fill-opacity:1;" d="M 579.644531 765.542969 C 579.195312 765.542969 578.746094 765.585938 578.304688 765.675781 C 577.859375 765.765625 577.429688 765.894531 577.011719 766.066406 C 576.597656 766.242188 576.199219 766.453125 575.824219 766.703125 C 575.449219 766.953125 575.101562 767.242188 574.78125 767.558594 C 574.460938 767.878906 574.175781 768.226562 573.925781 768.601562 C 573.675781 768.976562 573.464844 769.375 573.289062 769.792969 C 573.117188 770.207031 572.984375 770.636719 572.898438 771.082031 C 572.808594 771.523438 572.765625 771.972656 572.765625 772.421875 C 572.804688 773.632812 572.976562 774.824219 573.273438 775.996094 C 573.570312 777.167969 573.988281 778.296875 574.527344 779.378906 C 575.066406 780.460938 575.714844 781.476562 576.472656 782.417969 C 577.230469 783.363281 578.078125 784.214844 579.015625 784.976562 L 579.644531 785.5 L 580.273438 784.976562 C 581.214844 784.214844 582.0625 783.363281 582.820312 782.417969 C 583.574219 781.476562 584.222656 780.460938 584.761719 779.378906 C 585.300781 778.296875 585.71875 777.167969 586.019531 775.996094 C 586.316406 774.824219 586.484375 773.632812 586.527344 772.421875 C 586.527344 771.972656 586.480469 771.523438 586.394531 771.082031 C 586.304688 770.636719 586.175781 770.207031 586 769.792969 C 585.828125 769.375 585.617188 768.976562 585.363281 768.601562 C 585.113281 768.226562 584.828125 767.878906 584.507812 767.558594 C 584.191406 767.242188 583.84375 766.953125 583.46875 766.703125 C 583.089844 766.453125 582.695312 766.242188 582.277344 766.066406 C 581.859375 765.894531 581.429688 765.765625 580.988281 765.675781 C 580.542969 765.585938 580.097656 765.542969 579.644531 765.542969 Z M 579.644531 775.371094 C 579.253906 775.371094 578.878906 775.296875 578.515625 775.148438 C 578.15625 775 577.835938 774.785156 577.558594 774.507812 C 577.285156 774.234375 577.070312 773.914062 576.921875 773.550781 C 576.769531 773.191406 576.695312 772.816406 576.695312 772.421875 C 576.695312 772.03125 576.769531 771.65625 576.921875 771.292969 C 577.070312 770.933594 577.285156 770.613281 577.558594 770.339844 C 577.835938 770.0625 578.15625 769.847656 578.515625 769.699219 C 578.878906 769.550781 579.253906 769.472656 579.644531 769.472656 C 580.035156 769.472656 580.414062 769.550781 580.773438 769.699219 C 581.136719 769.847656 581.453125 770.0625 581.730469 770.339844 C 582.007812 770.613281 582.222656 770.933594 582.371094 771.292969 C 582.519531 771.65625 582.59375 772.03125 582.59375 772.421875 C 582.59375 772.8125 582.519531 773.191406 582.367188 773.550781 C 582.21875 773.910156 582.003906 774.230469 581.726562 774.507812 C 581.453125 774.78125 581.132812 774.996094 580.773438 775.144531 C 580.414062 775.296875 580.035156 775.371094 579.644531 775.371094 Z M 579.644531 775.371094 "/></g><g clip-rule="nonzero" clip-path="url(#5ab47e7afe)"><path style=" stroke:none;fill-rule:nonzero;fill:COLOR_CONTRAST;fill-opacity:1;" d="M 49.453125 767.304688 L 68.015625 767.304688 C 68.152344 767.304688 68.285156 767.328125 68.410156 767.382812 C 68.535156 767.433594 68.648438 767.507812 68.746094 767.605469 C 68.84375 767.703125 68.917969 767.8125 68.96875 767.941406 C 69.019531 768.066406 69.046875 768.199219 69.046875 768.335938 L 69.046875 782.773438 C 69.046875 782.910156 69.019531 783.039062 68.96875 783.167969 C 68.917969 783.292969 68.84375 783.40625 68.746094 783.5 C 68.648438 783.597656 68.535156 783.671875 68.410156 783.726562 C 68.285156 783.777344 68.152344 783.804688 68.015625 783.804688 L 49.453125 783.804688 C 49.316406 783.804688 49.183594 783.777344 49.058594 783.726562 C 48.933594 783.671875 48.820312 783.597656 48.722656 783.5 C 48.628906 783.40625 48.554688 783.292969 48.5 783.167969 C 48.449219 783.039062 48.421875 782.910156 48.421875 782.773438 L 48.421875 768.335938 C 48.421875 768.199219 48.449219 768.066406 48.5 767.941406 C 48.554688 767.8125 48.628906 767.703125 48.722656 767.605469 C 48.820312 767.507812 48.933594 767.433594 49.058594 767.382812 C 49.183594 767.328125 49.316406 767.304688 49.453125 767.304688 Z M 49.453125 767.304688 "/></g><g clip-rule="nonzero" clip-path="url(#366dd13e4f)"><path style=" stroke:none;fill-rule:nonzero;fill:#ffffff;fill-opacity:1;" d="M 69.046875 769.839844 L 69.046875 772.097656 L 59.15625 776.492188 C 58.875 776.621094 58.59375 776.621094 58.3125 776.492188 L 48.421875 772.097656 L 48.421875 769.839844 L 58.734375 774.429688 Z M 69.046875 769.839844 "/></g><g clip-rule="nonzero" clip-path="url(#2df2c7bd69)"><path style=" stroke:none;fill-rule:nonzero;fill:COLOR_CONTRAST;fill-opacity:1;" d="M 329.53125 775.066406 C 329.53125 774.300781 329.5625 773.535156 329.617188 772.785156 C 328.09375 772.96875 326.644531 773.410156 325.277344 774.101562 C 325.199219 774.746094 325.199219 775.386719 325.277344 776.027344 C 326.644531 776.722656 328.09375 777.160156 329.617188 777.347656 C 329.5625 776.59375 329.53125 775.828125 329.53125 775.066406 Z M 329.53125 775.066406 "/></g><g clip-rule="nonzero" clip-path="url(#85b53a964c)"><path style=" stroke:none;fill-rule:nonzero;fill:COLOR_CONTRAST;fill-opacity:1;" d="M 336.125 770.839844 C 335.941406 769.3125 335.5 767.867188 334.804688 766.496094 C 334.164062 766.421875 333.523438 766.421875 332.882812 766.496094 C 332.1875 767.867188 331.746094 769.3125 331.5625 770.839844 C 332.316406 770.785156 333.078125 770.753906 333.84375 770.753906 C 334.609375 770.753906 335.371094 770.785156 336.125 770.839844 Z M 336.125 770.839844 "/></g><path style=" stroke:none;fill-rule:nonzero;fill:COLOR_CONTRAST;fill-opacity:1;" d="M 333.84375 772.476562 C 332.953125 772.476562 332.128906 772.515625 331.359375 772.582031 C 331.296875 773.351562 331.257812 774.175781 331.257812 775.066406 C 331.257812 775.953125 331.296875 776.777344 331.359375 777.550781 C 332.128906 777.613281 332.953125 777.652344 333.84375 777.652344 C 334.734375 777.652344 335.558594 777.613281 336.328125 777.550781 C 336.390625 776.777344 336.429688 775.953125 336.429688 775.066406 C 336.429688 774.175781 336.390625 773.351562 336.328125 772.582031 C 335.558594 772.515625 334.734375 772.476562 333.84375 772.476562 Z M 333.84375 772.476562 "/><g clip-rule="nonzero" clip-path="url(#d54f52fd8f)"><path style=" stroke:none;fill-rule:nonzero;fill:COLOR_CONTRAST;fill-opacity:1;" d="M 331.5625 779.292969 C 331.746094 780.816406 332.1875 782.261719 332.882812 783.632812 C 333.523438 783.710938 334.164062 783.710938 334.804688 783.632812 C 335.5 782.261719 335.941406 780.816406 336.125 779.292969 C 335.371094 779.347656 334.609375 779.378906 333.84375 779.378906 C 333.078125 779.378906 332.316406 779.347656 331.5625 779.292969 Z M 331.5625 779.292969 "/></g><g clip-rule="nonzero" clip-path="url(#5516db257a)"><path style=" stroke:none;fill-rule:nonzero;fill:COLOR_CONTRAST;fill-opacity:1;" d="M 342.410156 774.101562 C 341.042969 773.410156 339.59375 772.96875 338.070312 772.785156 C 338.125 773.535156 338.15625 774.300781 338.15625 775.066406 C 338.15625 775.828125 338.125 776.59375 338.070312 777.347656 C 339.59375 777.160156 341.042969 776.722656 342.410156 776.027344 C 342.488281 775.386719 342.488281 774.746094 342.410156 774.105469 Z M 342.410156 774.101562 "/></g><g clip-rule="nonzero" clip-path="url(#a25b00d374)"><path style=" stroke:none;fill-rule:nonzero;fill:COLOR_CONTRAST;fill-opacity:1;" d="M 325.800781 778.148438 C 326.238281 779.289062 326.890625 780.292969 327.753906 781.15625 C 328.617188 782.019531 329.621094 782.671875 330.757812 783.109375 C 330.292969 781.8125 329.972656 780.476562 329.800781 779.109375 C 328.429688 778.9375 327.097656 778.617188 325.800781 778.148438 Z M 325.800781 778.148438 "/></g><g clip-rule="nonzero" clip-path="url(#1637c28dc5)"><path style=" stroke:none;fill-rule:nonzero;fill:COLOR_CONTRAST;fill-opacity:1;" d="M 336.929688 783.109375 C 338.066406 782.671875 339.070312 782.019531 339.933594 781.15625 C 340.796875 780.292969 341.449219 779.289062 341.886719 778.148438 C 340.589844 778.617188 339.257812 778.9375 337.886719 779.109375 C 337.714844 780.476562 337.394531 781.8125 336.929688 783.109375 Z M 336.929688 783.109375 "/></g><g clip-rule="nonzero" clip-path="url(#e11e17fc43)"><path style=" stroke:none;fill-rule:nonzero;fill:COLOR_CONTRAST;fill-opacity:1;" d="M 325.800781 771.980469 C 327.097656 771.511719 328.429688 771.195312 329.800781 771.019531 C 329.972656 769.652344 330.292969 768.320312 330.757812 767.019531 C 329.621094 767.460938 328.617188 768.113281 327.753906 768.976562 C 326.890625 769.839844 326.238281 770.839844 325.800781 771.980469 Z M 325.800781 771.980469 "/></g><path style=" stroke:none;fill-rule:nonzero;fill:COLOR_CONTRAST;fill-opacity:1;" d="M 341.886719 771.980469 C 341.449219 770.839844 340.796875 769.839844 339.933594 768.976562 C 339.070312 768.113281 338.066406 767.460938 336.929688 767.019531 C 337.394531 768.320312 337.714844 769.652344 337.886719 771.019531 C 339.257812 771.195312 340.589844 771.511719 341.886719 771.980469 Z M 341.886719 771.980469 "/></g></svg>