<svg xmlns="http://www.w3.org/2000/svg" xmlns:xlink="http://www.w3.org/1999/xlink" width="1080" zoomAndPan="magnify" viewBox="0 0 810 809.999993" height="1080" preserveAspectRatio="xMidYMid meet" version="1.2"><defs><clipPath id="4ba48d2e7a"><path d="M 377 362 L 810 362 L 810 810 L 377 810 Z M 377 362 "/></clipPath><clipPath id="0f0be286e6"><path d="M 376.980469 695.457031 L 932.796875 362.332031 L 1098.972656 639.59375 L 543.160156 972.722656 Z M 376.980469 695.457031 "/></clipPath><clipPath id="19571882b8"><path d="M 0 656 L 361 656 L 361 810 L 0 810 Z M 0 656 "/></clipPath><clipPath id="8e23ce7490"><path d="M -360.976562 989.199219 L 194.835938 656.074219 L 361.015625 933.339844 L -194.800781 1266.464844 Z M -360.976562 989.199219 "/></clipPath><clipPath id="465ab5c16b"><path d="M 90 480 L 427.671875 480 L 427.671875 810 L 90 810 Z M 90 480 "/></clipPath><clipPath id="61cfccc255"><path d="M 379.832031 480.21875 L 137.65625 480.21875 C 111.414062 480.21875 90.109375 501.519531 90.109375 527.765625 L 90.109375 1121.355469 C 90.109375 1147.597656 111.414062 1168.902344 137.65625 1168.902344 L 379.832031 1168.902344 C 406.078125 1168.902344 427.378906 1147.597656 427.378906 1121.355469 L 427.378906 527.765625 C 427.378906 501.519531 406.078125 480.21875 379.832031 480.21875 Z M 299.21875 502.03125 C 301.605469 502.03125 303.480469 503.90625 303.480469 506.292969 C 303.480469 508.679688 301.605469 510.550781 299.21875 510.550781 C 296.835938 510.550781 294.960938 508.679688 294.960938 506.292969 C 294.960938 503.90625 297.003906 502.03125 299.21875 502.03125 Z M 236.332031 503.394531 L 277.234375 503.394531 C 278.769531 503.394531 280.132812 504.585938 280.132812 506.292969 C 280.132812 507.996094 278.769531 509.1875 277.234375 509.1875 L 236.332031 509.1875 C 234.800781 509.1875 233.4375 507.996094 233.4375 506.292969 C 233.4375 504.585938 234.800781 503.394531 236.332031 503.394531 Z M 409.996094 1124.082031 C 409.996094 1139.589844 397.382812 1152.199219 381.875 1152.199219 L 135.953125 1152.199219 C 120.445312 1152.199219 107.832031 1139.589844 107.832031 1124.082031 L 107.832031 525.890625 C 107.832031 510.382812 120.445312 497.769531 135.953125 497.769531 L 172.59375 497.769531 L 172.59375 505.441406 C 172.59375 514.132812 179.753906 521.289062 188.445312 521.289062 L 329.386719 521.289062 C 338.078125 521.289062 345.234375 514.132812 345.234375 505.441406 L 345.234375 497.769531 L 381.707031 497.769531 C 397.214844 497.769531 409.824219 510.382812 409.824219 525.890625 L 409.824219 1124.082031 Z M 409.996094 1124.082031 "/></clipPath><clipPath id="46c2a810a8"><path d="M 107.671875 498 L 410 498 L 410 810 L 107.671875 810 Z M 107.671875 498 "/></clipPath><clipPath id="a7150dc51a"><path d="M 381.707031 497.769531 L 345.234375 497.769531 L 345.234375 505.441406 C 345.234375 514.132812 338.078125 521.289062 329.386719 521.289062 L 188.613281 521.289062 C 179.921875 521.289062 172.765625 514.132812 172.765625 505.441406 L 172.765625 497.769531 L 135.953125 497.769531 C 120.445312 497.769531 107.832031 510.382812 107.832031 525.890625 L 107.832031 1124.082031 C 107.832031 1139.589844 120.445312 1152.199219 135.953125 1152.199219 L 381.707031 1152.199219 C 397.214844 1152.199219 409.824219 1139.589844 409.824219 1124.082031 L 409.824219 525.890625 C 409.996094 510.382812 397.382812 497.769531 381.707031 497.769531 Z M 381.707031 497.769531 "/></clipPath><clipPath id="f248d9d792"><path d="M 233 503 L 280.71875 503 L 280.71875 509.769531 L 233 509.769531 Z M 233 503 "/></clipPath><clipPath id="8b0a2bc2c9"><path d="M 277.234375 503.394531 L 236.332031 503.394531 C 234.800781 503.394531 233.4375 504.585938 233.4375 506.292969 C 233.4375 507.996094 234.800781 509.1875 236.332031 509.1875 L 277.234375 509.1875 C 278.769531 509.1875 280.132812 507.996094 280.132812 506.292969 C 280.132812 504.585938 278.769531 503.394531 277.234375 503.394531 Z M 277.234375 503.394531 "/></clipPath><clipPath id="e144a56c76"><path d="M 294.453125 502 L 304 502 L 304 511 L 294.453125 511 Z M 294.453125 502 "/></clipPath><clipPath id="e7ef3948d7"><path d="M 299.21875 502.03125 C 296.867188 502.03125 294.960938 503.9375 294.960938 506.292969 C 294.960938 508.644531 296.867188 510.550781 299.21875 510.550781 C 301.574219 510.550781 303.480469 508.644531 303.480469 506.292969 C 303.480469 503.9375 301.574219 502.03125 299.21875 502.03125 Z M 299.21875 502.03125 "/></clipPath><clipPath id="4bb1f6ba1b"><path d="M 82.953125 568.824219 L 87 568.824219 L 87 597.664062 L 82.953125 597.664062 Z M 82.953125 568.824219 "/></clipPath><clipPath id="733bb3b9d6"><path d="M 82.953125 572.417969 L 82.953125 593.71875 C 82.953125 595.765625 84.65625 597.46875 86.699219 597.46875 L 86.699219 568.835938 C 84.65625 568.835938 82.953125 570.371094 82.953125 572.417969 Z M 82.953125 572.417969 "/></clipPath><clipPath id="a296f21f67"><path d="M 82.953125 618.265625 L 87 618.265625 L 87 670.457031 L 82.953125 670.457031 Z M 82.953125 618.265625 "/></clipPath><clipPath id="4ccac90d83"><path d="M 82.953125 622.351562 L 82.953125 666.660156 C 82.953125 668.707031 84.65625 670.410156 86.699219 670.410156 L 86.699219 618.773438 C 84.65625 618.773438 82.953125 620.304688 82.953125 622.351562 Z M 82.953125 622.351562 "/></clipPath><clipPath id="12a9bbbc02"><path d="M 82.953125 681.441406 L 87 681.441406 L 87 733.628906 L 82.953125 733.628906 Z M 82.953125 681.441406 "/></clipPath><clipPath id="e37a3c812d"><path d="M 82.953125 685.40625 L 82.953125 729.71875 C 82.953125 731.761719 84.65625 733.46875 86.699219 733.46875 L 86.699219 681.660156 C 84.65625 681.660156 82.953125 683.363281 82.953125 685.40625 Z M 82.953125 685.40625 "/></clipPath><clipPath id="68881e36bd"><path d="M 430.417969 635 L 434.539062 635 L 434.539062 719 L 430.417969 719 Z M 430.417969 635 "/></clipPath><clipPath id="0e577119af"><path d="M 430.789062 635.8125 L 430.789062 718.8125 C 432.832031 718.8125 434.539062 717.105469 434.539062 715.0625 L 434.539062 639.5625 C 434.539062 637.519531 432.832031 635.8125 430.789062 635.8125 Z M 430.789062 635.8125 "/></clipPath><clipPath id="c39cbe1759"><path d="M 86 476.808594 L 431 476.808594 L 431 810 L 86 810 Z M 86 476.808594 "/></clipPath><clipPath id="aeabe0ad9c"><path d="M 430.789062 635.8125 L 430.789062 527.765625 C 430.789062 524.1875 430.445312 520.777344 429.765625 517.539062 C 429.425781 515.835938 429.082031 514.300781 428.574219 512.597656 C 427.890625 510.210938 426.867188 507.824219 425.84375 505.609375 C 425.164062 504.078125 424.3125 502.714844 423.460938 501.347656 C 422.609375 499.984375 421.753906 498.621094 420.734375 497.257812 C 419.199219 495.214844 417.664062 493.511719 415.960938 491.636719 C 414.769531 490.441406 413.574219 489.417969 412.382812 488.398438 C 403.519531 481.070312 392.273438 476.808594 380 476.808594 L 137.65625 476.808594 C 125.386719 476.808594 113.96875 481.238281 105.277344 488.398438 C 104.085938 489.417969 102.890625 490.613281 101.699219 491.636719 C 99.992188 493.339844 98.289062 495.214844 96.925781 497.257812 C 95.902344 498.621094 95.050781 499.984375 94.199219 501.347656 C 93.347656 502.714844 92.496094 504.246094 91.8125 505.609375 C 90.621094 507.996094 89.769531 510.210938 88.917969 512.597656 C 88.40625 514.300781 88.0625 515.835938 87.722656 517.539062 C 87.042969 520.777344 86.699219 524.355469 86.699219 527.765625 L 86.699219 1121.355469 C 86.699219 1149.472656 109.539062 1172.308594 137.65625 1172.308594 L 379.832031 1172.308594 C 407.949219 1172.308594 430.789062 1149.472656 430.789062 1121.355469 Z M 427.378906 635.8125 L 427.378906 1121.523438 C 427.378906 1147.769531 406.078125 1169.074219 379.832031 1169.074219 L 137.65625 1169.074219 C 111.414062 1169.074219 90.109375 1147.769531 90.109375 1121.523438 L 90.109375 527.9375 C 90.109375 501.519531 111.414062 480.21875 137.65625 480.21875 L 379.832031 480.21875 C 406.078125 480.21875 427.378906 501.519531 427.378906 527.765625 Z M 427.378906 635.8125 "/></clipPath><clipPath id="7eb4e1dc5c"><path d="M 303.453125 502 L 511 502 L 511 810 L 303.453125 810 Z M 303.453125 502 "/></clipPath><clipPath id="354ca377a2"><path d="M 581 405 L 788.570312 405 L 788.570312 810 L 581 810 Z M 581 405 "/></clipPath><clipPath id="c6c520565d"><path d="M 591.078125 405 L 798.828125 405 L 798.828125 810 L 591.078125 810 Z M 591.078125 405 "/></clipPath><clipPath id="44ae5b8af6"><path d="M 684.507812 81 L 722 81 L 722 112.5 L 684.507812 112.5 Z M 684.507812 81 "/></clipPath><clipPath id="c4280e9051"><path d="M 366.066406 346 L 721.769531 346 L 721.769531 810 L 366.066406 810 Z M 366.066406 346 "/></clipPath><clipPath id="4389e4a0fb"><path d="M 671.402344 346.621094 L 416.433594 346.621094 C 388.800781 346.621094 366.371094 369.046875 366.371094 396.679688 L 366.371094 1021.632812 C 366.371094 1049.265625 388.800781 1071.695312 416.433594 1071.695312 L 671.402344 1071.695312 C 699.035156 1071.695312 721.464844 1049.265625 721.464844 1021.632812 L 721.464844 396.679688 C 721.464844 369.046875 699.035156 346.621094 671.402344 346.621094 Z M 586.53125 369.585938 C 589.042969 369.585938 591.019531 371.558594 591.019531 374.070312 C 591.019531 376.585938 589.042969 378.558594 586.53125 378.558594 C 584.019531 378.558594 582.046875 376.585938 582.046875 374.070312 C 582.046875 371.558594 584.199219 369.585938 586.53125 369.585938 Z M 520.324219 371.023438 L 563.386719 371.023438 C 565 371.023438 566.4375 372.277344 566.4375 374.070312 C 566.4375 375.867188 565 377.121094 563.386719 377.121094 L 520.324219 377.121094 C 518.707031 377.121094 517.273438 375.867188 517.273438 374.070312 C 517.273438 372.277344 518.707031 371.023438 520.324219 371.023438 Z M 703.160156 1024.503906 C 703.160156 1040.832031 689.882812 1054.113281 673.554688 1054.113281 L 414.636719 1054.113281 C 398.308594 1054.113281 385.03125 1040.832031 385.03125 1024.503906 L 385.03125 394.707031 C 385.03125 378.378906 398.308594 365.101562 414.636719 365.101562 L 453.214844 365.101562 L 453.214844 373.175781 C 453.214844 382.324219 460.753906 389.863281 469.902344 389.863281 L 618.292969 389.863281 C 627.441406 389.863281 634.980469 382.324219 634.980469 373.175781 L 634.980469 365.101562 L 673.375 365.101562 C 689.703125 365.101562 702.984375 378.378906 702.984375 394.707031 L 702.984375 1024.503906 Z M 703.160156 1024.503906 "/></clipPath><clipPath id="9a4deb3add"><path d="M 385 365 L 703 365 L 703 810 L 385 810 Z M 385 365 "/></clipPath><clipPath id="4cb0465f78"><path d="M 673.375 365.101562 L 634.980469 365.101562 L 634.980469 373.175781 C 634.980469 382.324219 627.441406 389.863281 618.292969 389.863281 L 470.082031 389.863281 C 460.929688 389.863281 453.394531 382.324219 453.394531 373.175781 L 453.394531 365.101562 L 414.636719 365.101562 C 398.308594 365.101562 385.03125 378.378906 385.03125 394.707031 L 385.03125 1024.503906 C 385.03125 1040.832031 398.308594 1054.113281 414.636719 1054.113281 L 673.375 1054.113281 C 689.703125 1054.113281 702.984375 1040.832031 702.984375 1024.503906 L 702.984375 394.707031 C 703.160156 378.378906 689.882812 365.101562 673.375 365.101562 Z M 673.375 365.101562 "/></clipPath><clipPath id="3d77541fb1"><path d="M 517 371 L 567 371 L 567 377.734375 L 517 377.734375 Z M 517 371 "/></clipPath><clipPath id="67bc2ac1a6"><path d="M 563.386719 371.023438 L 520.324219 371.023438 C 518.707031 371.023438 517.273438 372.277344 517.273438 374.070312 C 517.273438 375.867188 518.707031 377.121094 520.324219 377.121094 L 563.386719 377.121094 C 565 377.121094 566.4375 375.867188 566.4375 374.070312 C 566.4375 372.277344 565 371.023438 563.386719 371.023438 Z M 563.386719 371.023438 "/></clipPath><clipPath id="264ecd51ff"><path d="M 582 369.058594 L 591.632812 369.058594 L 591.632812 379 L 582 379 Z M 582 369.058594 "/></clipPath><clipPath id="d97231edc2"><path d="M 586.53125 369.585938 C 584.054688 369.585938 582.046875 371.59375 582.046875 374.070312 C 582.046875 376.550781 584.054688 378.558594 586.53125 378.558594 C 589.011719 378.558594 591.019531 376.550781 591.019531 374.070312 C 591.019531 371.59375 589.011719 369.585938 586.53125 369.585938 Z M 586.53125 369.585938 "/></clipPath><clipPath id="fd01c60bf8"><path d="M 358.835938 439.910156 L 363 439.910156 L 363 470.273438 L 358.835938 470.273438 Z M 358.835938 439.910156 "/></clipPath><clipPath id="838ac6c865"><path d="M 358.835938 443.691406 L 358.835938 466.121094 C 358.835938 468.273438 360.628906 470.066406 362.785156 470.066406 L 362.785156 439.921875 C 360.628906 439.921875 358.835938 441.539062 358.835938 443.691406 Z M 358.835938 443.691406 "/></clipPath><clipPath id="ba03209423"><path d="M 358.835938 492 L 363 492 L 363 546.910156 L 358.835938 546.910156 Z M 358.835938 492 "/></clipPath><clipPath id="fcb59e61cb"><path d="M 358.835938 496.265625 L 358.835938 542.914062 C 358.835938 545.070312 360.628906 546.863281 362.785156 546.863281 L 362.785156 492.496094 C 360.628906 492.496094 358.835938 494.109375 358.835938 496.265625 Z M 358.835938 496.265625 "/></clipPath><clipPath id="9becf169e8"><path d="M 358.835938 558.476562 L 363 558.476562 L 363 613.421875 L 358.835938 613.421875 Z M 358.835938 558.476562 "/></clipPath><clipPath id="257958338b"><path d="M 358.835938 562.652344 L 358.835938 609.304688 C 358.835938 611.457031 360.628906 613.253906 362.785156 613.253906 L 362.785156 558.707031 C 360.628906 558.707031 358.835938 560.5 358.835938 562.652344 Z M 358.835938 562.652344 "/></clipPath><clipPath id="e1ed29a578"><path d="M 725 510 L 729 510 L 729 598 L 725 598 Z M 725 510 "/></clipPath><clipPath id="568b210378"><path d="M 725.050781 510.4375 L 725.050781 597.820312 C 727.207031 597.820312 729 596.027344 729 593.875 L 729 514.386719 C 729 512.234375 727.207031 510.4375 725.050781 510.4375 Z M 725.050781 510.4375 "/></clipPath><clipPath id="414591d198"><path d="M 362 343.03125 L 726 343.03125 L 726 810 L 362 810 Z M 362 343.03125 "/></clipPath><clipPath id="2544b3b4aa"><path d="M 725.050781 510.4375 L 725.050781 396.679688 C 725.050781 392.914062 724.695312 389.324219 723.976562 385.914062 C 723.617188 384.121094 723.257812 382.503906 722.71875 380.710938 C 722.003906 378.199219 720.925781 375.6875 719.847656 373.355469 C 719.132812 371.738281 718.234375 370.304688 717.335938 368.867188 C 716.441406 367.433594 715.542969 365.996094 714.464844 364.5625 C 712.851562 362.410156 711.238281 360.613281 709.441406 358.640625 C 708.1875 357.386719 706.929688 356.308594 705.675781 355.230469 C 696.34375 347.515625 684.5 343.03125 671.582031 343.03125 L 416.433594 343.03125 C 403.515625 343.03125 391.492188 347.695312 382.339844 355.230469 C 381.085938 356.308594 379.828125 357.5625 378.574219 358.640625 C 376.777344 360.433594 374.984375 362.410156 373.550781 364.5625 C 372.472656 365.996094 371.574219 367.433594 370.679688 368.867188 C 369.78125 370.304688 368.882812 371.917969 368.167969 373.355469 C 366.910156 375.867188 366.011719 378.199219 365.117188 380.710938 C 364.578125 382.503906 364.21875 384.121094 363.859375 385.914062 C 363.140625 389.324219 362.785156 393.089844 362.785156 396.679688 L 362.785156 1021.632812 C 362.785156 1051.242188 386.828125 1075.285156 416.433594 1075.285156 L 671.402344 1075.285156 C 701.007812 1075.285156 725.050781 1051.242188 725.050781 1021.632812 Z M 721.464844 510.4375 L 721.464844 1021.8125 C 721.464844 1049.445312 699.035156 1071.875 671.402344 1071.875 L 416.433594 1071.875 C 388.800781 1071.875 366.371094 1049.445312 366.371094 1021.8125 L 366.371094 396.859375 C 366.371094 369.046875 388.800781 346.621094 416.433594 346.621094 L 671.402344 346.621094 C 699.035156 346.621094 721.464844 369.046875 721.464844 396.679688 Z M 721.464844 510.4375 "/></clipPath></defs><g id="deac54c458"><rect x="0" width="810" y="0" height="809.999993" style="fill:#ffffff;fill-opacity:1;stroke:none;"/><rect x="0" width="810" y="0" height="809.999993" style="fill:COLOR_BRANDCOLOR;fill-opacity:1;stroke:none;"/><g mask="url(#1e3bae4014)" transform="matrix(-0.190073,0,0,0.189805,223.371731,503.530483)"><image width="1093" xlink:href="file:///Users/erikbelt/Desktop/Mood Tracking App/AdCreator/image-generation-service/assets/2MockUp_BigHeadline-img1-cd29ea0c.png" height="2766" preserveAspectRatio="xMidYMid meet"/><mask id="1e3bae4014"><g><image width="1093" xlink:href="file:///Users/erikbelt/Desktop/Mood Tracking App/AdCreator/image-generation-service/assets/2MockUp_BigHeadline-img2-207163c0.png" height="2766" preserveAspectRatio="xMidYMid meet"/></g></mask></g><g clip-rule="nonzero" clip-path="url(#4ba48d2e7a)"><g clip-rule="nonzero" clip-path="url(#0f0be286e6)"><g mask="url(#5f1e519c7e)" transform="matrix(0.370544,-0.222084,0.221866,0.370179,376.980477,695.456872)"><image width="1500" xlink:href="file:///Users/erikbelt/Desktop/Mood Tracking App/AdCreator/image-generation-service/assets/2MockUp_BigHeadline-img3-8856df82.png" height="749" preserveAspectRatio="xMidYMid meet"/><mask id="5f1e519c7e"><g transform="matrix(1,0,0,1,0.000000000000042633,0)"><image width="1500" xlink:href="file:///Users/erikbelt/Desktop/Mood Tracking App/AdCreator/image-generation-service/assets/2MockUp_BigHeadline-img4-7a319d4a.png" height="749" preserveAspectRatio="xMidYMid meet"/></g></mask></g></g></g><g clip-rule="nonzero" clip-path="url(#19571882b8)"><g clip-rule="nonzero" clip-path="url(#8e23ce7490)"><g mask="url(#7a3847e8ce)" transform="matrix(0.370544,-0.222084,0.221866,0.370179,-360.978437,989.200393)"><image width="1500" xlink:href="file:///Users/erikbelt/Desktop/Mood Tracking App/AdCreator/image-generation-service/assets/2MockUp_BigHeadline-img5-8856df82.png" height="749" preserveAspectRatio="xMidYMid meet"/><mask id="7a3847e8ce"><g transform="matrix(1,0,0,1,0.000000000000227374,0)"><image width="1500" xlink:href="file:///Users/erikbelt/Desktop/Mood Tracking App/AdCreator/image-generation-service/assets/2MockUp_BigHeadline-img6-7a319d4a.png" height="749" preserveAspectRatio="xMidYMid meet"/></g></mask></g></g></g><g clip-rule="nonzero" clip-path="url(#465ab5c16b)"><g clip-rule="nonzero" clip-path="url(#61cfccc255)"><path style=" stroke:none;fill-rule:nonzero;fill:#000000;fill-opacity:1;" d="M 82.953125 476.808594 L 434.539062 476.808594 L 434.539062 1173.113281 L 82.953125 1173.113281 Z M 82.953125 476.808594 "/></g></g><g clip-rule="nonzero" clip-path="url(#46c2a810a8)"><g clip-rule="nonzero" clip-path="url(#a7150dc51a)"><g transform="matrix(1.168998,0,0,1.169826,-581.410575,497.770651)"><image width="1438" xlink:href="PLACE_SCREENSHOT_1_HERE" height="560" preserveAspectRatio="xMidYMid meet"/></g></g></g><g clip-rule="nonzero" clip-path="url(#f248d9d792)"><g clip-rule="nonzero" clip-path="url(#8b0a2bc2c9)"><path style=" stroke:none;fill-rule:nonzero;fill:#555555;fill-opacity:1;" d="M 82.953125 476.808594 L 434.539062 476.808594 L 434.539062 1173.113281 L 82.953125 1173.113281 Z M 82.953125 476.808594 "/></g></g><g clip-rule="nonzero" clip-path="url(#e144a56c76)"><g clip-rule="nonzero" clip-path="url(#e7ef3948d7)"><path style=" stroke:none;fill-rule:nonzero;fill:#555555;fill-opacity:1;" d="M 82.953125 476.808594 L 434.539062 476.808594 L 434.539062 1173.113281 L 82.953125 1173.113281 Z M 82.953125 476.808594 "/></g></g><g clip-rule="nonzero" clip-path="url(#4bb1f6ba1b)"><g clip-rule="nonzero" clip-path="url(#733bb3b9d6)"><path style=" stroke:none;fill-rule:nonzero;fill:#2e2e2e;fill-opacity:1;" d="M 82.953125 476.808594 L 434.539062 476.808594 L 434.539062 1173.113281 L 82.953125 1173.113281 Z M 82.953125 476.808594 "/></g></g><g clip-rule="nonzero" clip-path="url(#a296f21f67)"><g clip-rule="nonzero" clip-path="url(#4ccac90d83)"><path style=" stroke:none;fill-rule:nonzero;fill:#2e2e2e;fill-opacity:1;" d="M 82.953125 476.808594 L 434.539062 476.808594 L 434.539062 1173.113281 L 82.953125 1173.113281 Z M 82.953125 476.808594 "/></g></g><g clip-rule="nonzero" clip-path="url(#12a9bbbc02)"><g clip-rule="nonzero" clip-path="url(#e37a3c812d)"><path style=" stroke:none;fill-rule:nonzero;fill:#2e2e2e;fill-opacity:1;" d="M 82.953125 476.808594 L 434.539062 476.808594 L 434.539062 1173.113281 L 82.953125 1173.113281 Z M 82.953125 476.808594 "/></g></g><g clip-rule="nonzero" clip-path="url(#68881e36bd)"><g clip-rule="nonzero" clip-path="url(#0e577119af)"><path style=" stroke:none;fill-rule:nonzero;fill:#2e2e2e;fill-opacity:1;" d="M 82.953125 476.808594 L 434.539062 476.808594 L 434.539062 1173.113281 L 82.953125 1173.113281 Z M 82.953125 476.808594 "/></g></g><g clip-rule="nonzero" clip-path="url(#c39cbe1759)"><g clip-rule="nonzero" clip-path="url(#aeabe0ad9c)"><path style=" stroke:none;fill-rule:nonzero;fill:#555555;fill-opacity:1;" d="M 82.953125 476.808594 L 434.539062 476.808594 L 434.539062 1173.113281 L 82.953125 1173.113281 Z M 82.953125 476.808594 "/></g></g><g clip-rule="nonzero" clip-path="url(#7eb4e1dc5c)"><g mask="url(#c10e17a297)" transform="matrix(-0.190073,0,0,0.189805,510.828482,501.575107)"><image width="1093" xlink:href="file:///Users/erikbelt/Desktop/Mood Tracking App/AdCreator/image-generation-service/assets/2MockUp_BigHeadline-img8-cd29ea0c.png" height="2766" preserveAspectRatio="xMidYMid meet"/><mask id="c10e17a297"><g><image width="1093" xlink:href="file:///Users/erikbelt/Desktop/Mood Tracking App/AdCreator/image-generation-service/assets/2MockUp_BigHeadline-img9-207163c0.png" height="2766" preserveAspectRatio="xMidYMid meet"/></g></mask></g></g><g clip-rule="nonzero" clip-path="url(#354ca377a2)"><g mask="url(#98cbe6d949)" transform="matrix(0.190073,0,0,0.189805,580.82083,405)"><image width="1093" xlink:href="file:///Users/erikbelt/Desktop/Mood Tracking App/AdCreator/image-generation-service/assets/2MockUp_BigHeadline-img10-cd29ea0c.png" height="2766" preserveAspectRatio="xMidYMid meet"/><mask id="98cbe6d949"><g><image width="1093" xlink:href="file:///Users/erikbelt/Desktop/Mood Tracking App/AdCreator/image-generation-service/assets/2MockUp_BigHeadline-img11-207163c0.png" height="2766" preserveAspectRatio="xMidYMid meet"/></g></mask></g></g><g clip-rule="nonzero" clip-path="url(#c6c520565d)"><g mask="url(#98e432b220)" transform="matrix(0.190073,0,0,0.189805,591.079126,405)"><image width="1093" xlink:href="file:///Users/erikbelt/Desktop/Mood Tracking App/AdCreator/image-generation-service/assets/2MockUp_BigHeadline-img12-cd29ea0c.png" height="2766" preserveAspectRatio="xMidYMid meet"/><mask id="98e432b220"><g><image width="1093" xlink:href="file:///Users/erikbelt/Desktop/Mood Tracking App/AdCreator/image-generation-service/assets/2MockUp_BigHeadline-img13-207163c0.png" height="2766" preserveAspectRatio="xMidYMid meet"/></g></mask></g></g><g clip-rule="nonzero" clip-path="url(#44ae5b8af6)"><path style=" stroke:none;fill-rule:nonzero;fill:#3b3b3a;fill-opacity:1;" d="M 721.386719 89.082031 C 721.335938 88.207031 721.65625 87.230469 721.074219 86.46875 C 720.058594 86.191406 719.042969 85.90625 718.023438 85.65625 C 717.96875 84.390625 718.070312 83.125 717.976562 81.863281 C 717.832031 81.003906 716.785156 81.304688 716.175781 81.296875 C 710.914062 81.558594 706.0625 84.539062 702.96875 88.722656 C 699.636719 84.1875 694.179688 81.0625 688.46875 81.296875 C 688.355469 81.394531 688.125 81.585938 688.007812 81.683594 C 687.832031 82.992188 687.996094 84.332031 687.925781 85.652344 C 686.769531 86.121094 685.058594 86.046875 684.507812 87.378906 C 684.726562 87.90625 684.777344 88.476562 684.753906 89.046875 C 684.703125 95.734375 684.796875 102.421875 684.707031 109.113281 C 684.617188 109.613281 684.710938 110.507812 685.4375 110.347656 C 687.773438 109.5 690.292969 109.191406 692.773438 109.335938 C 696.144531 109.597656 699.648438 110.390625 702.417969 112.410156 C 702.691406 112.410156 703.226562 112.410156 703.492188 112.414062 C 705.027344 111.234375 706.890625 110.597656 708.726562 110.066406 C 712.667969 108.960938 716.917969 109.066406 720.792969 110.390625 C 721.617188 110.25 721.394531 109.34375 721.402344 108.742188 C 721.367188 102.191406 721.398438 95.636719 721.386719 89.082031 Z M 686.160156 108.539062 C 686.179688 101.628906 686.15625 94.71875 686.167969 87.808594 C 686.761719 87.601562 687.355469 87.390625 687.949219 87.183594 C 687.933594 92.699219 687.9375 98.21875 687.945312 103.734375 C 687.867188 104.738281 689.121094 104.5625 689.777344 104.625 C 693.679688 104.789062 697.230469 106.773438 700.066406 109.351562 C 695.6875 107.582031 690.707031 107.183594 686.160156 108.539062 Z M 705.210938 109.707031 C 707.375 107.585938 709.871094 105.6875 712.835938 104.867188 C 714.363281 104.351562 715.980469 104.300781 717.570312 104.152344 C 718.082031 104.085938 717.976562 103.449219 718.015625 103.085938 C 718.011719 97.808594 718.007812 92.535156 718.011719 87.257812 C 718.648438 87.449219 719.285156 87.644531 719.925781 87.832031 C 720.015625 94.738281 719.929688 101.648438 719.96875 108.558594 C 715.117188 107.214844 709.816406 107.695312 705.210938 109.707031 Z M 705.210938 109.707031 "/></g><g clip-rule="nonzero" clip-path="url(#c4280e9051)"><g clip-rule="nonzero" clip-path="url(#4389e4a0fb)"><path style=" stroke:none;fill-rule:nonzero;fill:#000000;fill-opacity:1;" d="M 358.835938 343.03125 L 729 343.03125 L 729 1076.128906 L 358.835938 1076.128906 Z M 358.835938 343.03125 "/></g></g><g clip-rule="nonzero" clip-path="url(#9a4deb3add)"><g clip-rule="nonzero" clip-path="url(#4cb0465f78)"><g transform="matrix(1.23077,0,0,1.231642,-340.632577,365.100482)"><image width="1438" xlink:href="PLACE_SCREENSHOT_2_HERE" height="560" preserveAspectRatio="xMidYMid meet"/></g></g></g><g clip-rule="nonzero" clip-path="url(#3d77541fb1)"><g clip-rule="nonzero" clip-path="url(#67bc2ac1a6)"><path style=" stroke:none;fill-rule:nonzero;fill:#555555;fill-opacity:1;" d="M 358.835938 343.03125 L 729 343.03125 L 729 1076.128906 L 358.835938 1076.128906 Z M 358.835938 343.03125 "/></g></g><g clip-rule="nonzero" clip-path="url(#264ecd51ff)"><g clip-rule="nonzero" clip-path="url(#d97231edc2)"><path style=" stroke:none;fill-rule:nonzero;fill:#555555;fill-opacity:1;" d="M 358.835938 343.03125 L 729 343.03125 L 729 1076.128906 L 358.835938 1076.128906 Z M 358.835938 343.03125 "/></g></g><g clip-rule="nonzero" clip-path="url(#fd01c60bf8)"><g clip-rule="nonzero" clip-path="url(#838ac6c865)"><path style=" stroke:none;fill-rule:nonzero;fill:#2e2e2e;fill-opacity:1;" d="M 358.835938 343.03125 L 729 343.03125 L 729 1076.128906 L 358.835938 1076.128906 Z M 358.835938 343.03125 "/></g></g><g clip-rule="nonzero" clip-path="url(#ba03209423)"><g clip-rule="nonzero" clip-path="url(#fcb59e61cb)"><path style=" stroke:none;fill-rule:nonzero;fill:#2e2e2e;fill-opacity:1;" d="M 358.835938 343.03125 L 729 343.03125 L 729 1076.128906 L 358.835938 1076.128906 Z M 358.835938 343.03125 "/></g></g><g clip-rule="nonzero" clip-path="url(#9becf169e8)"><g clip-rule="nonzero" clip-path="url(#257958338b)"><path style=" stroke:none;fill-rule:nonzero;fill:#2e2e2e;fill-opacity:1;" d="M 358.835938 343.03125 L 729 343.03125 L 729 1076.128906 L 358.835938 1076.128906 Z M 358.835938 343.03125 "/></g></g><g clip-rule="nonzero" clip-path="url(#e1ed29a578)"><g clip-rule="nonzero" clip-path="url(#568b210378)"><path style=" stroke:none;fill-rule:nonzero;fill:#2e2e2e;fill-opacity:1;" d="M 358.835938 343.03125 L 729 343.03125 L 729 1076.128906 L 358.835938 1076.128906 Z M 358.835938 343.03125 "/></g></g><g clip-rule="nonzero" clip-path="url(#414591d198)"><g clip-rule="nonzero" clip-path="url(#2544b3b4aa)"><path style=" stroke:none;fill-rule:nonzero;fill:#555555;fill-opacity:1;" d="M 358.835938 343.03125 L 729 343.03125 L 729 1076.128906 L 358.835938 1076.128906 Z M 358.835938 343.03125 "/></g></g></g></svg>