<svg xmlns="http://www.w3.org/2000/svg" xmlns:xlink="http://www.w3.org/1999/xlink" width="1080" zoomAndPan="magnify" viewBox="0 0 810 1012.49997" height="1350" preserveAspectRatio="xMidYMid meet" version="1.2"><defs><clipPath id="7a43f85248"><path d="M 0.199219 0 L 809.800781 0 L 809.800781 1012 L 0.199219 1012 Z M 0.199219 0 "/></clipPath><clipPath id="61a6f6ab75"><path d="M 0.199219 340.097656 L 809.800781 340.097656 L 809.800781 1012 L 0.199219 1012 Z M 0.199219 340.097656 "/></clipPath><clipPath id="861e0340cb"><path d="M 877.242188 827.339844 C 877.242188 776.492188 902.570312 722.527344 886.984375 676.746094 C 871.007812 629.210938 816.851562 599.988281 787.042969 560.4375 C 756.84375 520.5 744.375 462.25 702.878906 433.21875 C 661.773438 404.582031 600.40625 411.011719 551.113281 395.425781 C 503.382812 380.617188 457.992188 340.097656 405.195312 340.097656 C 352.398438 340.097656 306.8125 380.425781 259.273438 395.425781 C 209.984375 410.816406 148.421875 404.386719 107.316406 433.21875 C 65.816406 462.25 53.351562 520.5 23.152344 560.4375 C -6.851562 599.988281 -60.816406 629.210938 -76.984375 676.746094 C -92.375 722.527344 -67.242188 776.492188 -67.242188 827.339844 C -67.242188 878.191406 -92.570312 932.15625 -76.984375 977.9375 C -61.007812 1025.472656 -6.851562 1054.695312 22.957031 1094.246094 C 53.15625 1134.183594 65.625 1192.433594 107.121094 1221.460938 C 148.226562 1250.296875 209.59375 1243.867188 259.078125 1259.257812 C 306.8125 1274.0625 352.203125 1314.585938 405 1314.585938 C 457.796875 1314.585938 503.382812 1274.257812 550.921875 1259.257812 C 600.210938 1243.867188 661.773438 1250.296875 702.878906 1221.460938 C 744.375 1192.433594 756.84375 1134.183594 787.042969 1094.246094 C 817.042969 1054.695312 871.007812 1025.472656 886.984375 977.9375 C 902.570312 931.960938 877.242188 877.996094 877.242188 827.339844 Z M 877.242188 827.339844 "/></clipPath><clipPath id="c9e326acfb"><path d="M 127 97 L 426 97 L 426 580 L 127 580 Z M 127 97 "/></clipPath><clipPath id="d39338b6a5"><path d="M 122.0625 135.148438 L 342.691406 91.878906 L 430.988281 542.109375 L 210.359375 585.375 Z M 122.0625 135.148438 "/></clipPath><clipPath id="a55e6aa08b"><path d="M 311.535156 98.4375 L 153.386719 129.453125 C 136.246094 132.8125 125.0625 149.453125 128.425781 166.59375 L 204.445312 554.230469 C 207.808594 571.367188 224.449219 582.550781 241.585938 579.191406 L 399.734375 548.175781 C 416.875 544.8125 428.058594 528.175781 424.699219 511.035156 L 348.675781 123.398438 C 345.3125 106.257812 328.675781 95.078125 311.535156 98.4375 Z M 261.6875 123.007812 C 263.246094 122.703125 264.710938 123.6875 265.015625 125.242188 C 265.320312 126.800781 264.335938 128.265625 262.777344 128.570312 C 261.21875 128.878906 259.753906 127.894531 259.449219 126.335938 C 259.144531 124.777344 260.238281 123.289062 261.6875 123.007812 Z M 220.792969 131.953125 L 247.503906 126.714844 C 248.507812 126.515625 249.550781 127.121094 249.769531 128.234375 C 249.984375 129.347656 249.25 130.300781 248.246094 130.496094 L 221.535156 135.734375 C 220.535156 135.933594 219.492188 135.328125 219.273438 134.214844 C 219.054688 133.101562 219.792969 132.148438 220.792969 131.953125 Z M 413.695312 515.042969 C 415.679688 525.167969 409.058594 535.019531 398.933594 537.007812 L 238.335938 568.503906 C 228.207031 570.488281 218.355469 563.867188 216.371094 553.742188 L 139.757812 163.097656 C 137.773438 152.972656 144.394531 143.121094 154.523438 141.132812 L 178.449219 136.441406 L 179.433594 141.449219 C 180.546875 147.125 186.136719 150.882812 191.8125 149.769531 L 283.851562 131.71875 C 289.527344 130.605469 293.285156 125.015625 292.171875 119.339844 L 291.191406 114.332031 L 315.007812 109.660156 C 325.136719 107.675781 334.984375 114.296875 336.972656 124.421875 L 413.582031 515.0625 Z M 413.695312 515.042969 "/></clipPath><clipPath id="da3286f3cf"><path d="M 139 109 L 414 109 L 414 569 L 139 569 Z M 139 109 "/></clipPath><clipPath id="53465d4a98"><path d="M 136.007812 144.519531 L 334.214844 105.648438 L 418.117188 533.457031 L 219.90625 572.328125 Z M 136.007812 144.519531 "/></clipPath><clipPath id="1f6b4caf0b"><path d="M 315.007812 109.660156 L 291.191406 114.332031 L 292.171875 119.339844 C 293.285156 125.015625 289.527344 130.605469 283.851562 131.71875 L 191.921875 149.75 C 186.246094 150.863281 180.65625 147.105469 179.542969 141.429688 L 178.5625 136.421875 L 154.523438 141.132812 C 144.394531 143.121094 137.773438 152.972656 139.757812 163.097656 L 216.371094 553.742188 C 218.355469 563.867188 228.207031 570.488281 238.335938 568.503906 L 398.820312 537.027344 C 408.949219 535.042969 415.570312 525.191406 413.582031 515.0625 L 336.972656 124.421875 C 335.097656 114.273438 325.246094 107.652344 315.007812 109.660156 Z M 315.007812 109.660156 "/></clipPath><clipPath id="fdcec08150"><path d="M 117.226562 134.234375 L 346.824219 89.207031 L 436 543.917969 L 206.402344 588.945312 Z M 117.226562 134.234375 "/></clipPath><clipPath id="82f794ef1e"><path d="M 219 126 L 250 126 L 250 136 L 219 136 Z M 219 126 "/></clipPath><clipPath id="963eabd20f"><path d="M 218.324219 132.101562 L 249.714844 125.945312 L 250.59375 130.429688 L 219.207031 136.585938 Z M 218.324219 132.101562 "/></clipPath><clipPath id="9f5f74e817"><path d="M 247.503906 126.714844 L 220.792969 131.953125 C 219.792969 132.148438 219.054688 133.101562 219.273438 134.214844 C 219.492188 135.328125 220.535156 135.933594 221.535156 135.734375 L 248.246094 130.496094 C 249.25 130.300781 249.984375 129.347656 249.769531 128.234375 C 249.550781 127.121094 248.507812 126.515625 247.503906 126.714844 Z M 247.503906 126.714844 "/></clipPath><clipPath id="50278662e8"><path d="M 259 122 L 266 122 L 266 129 L 259 129 Z M 259 122 "/></clipPath><clipPath id="6e53c20637"><path d="M 258.507812 123.289062 L 264.785156 122.058594 L 266.019531 128.335938 L 259.738281 129.566406 Z M 258.507812 123.289062 "/></clipPath><clipPath id="4d828bd823"><path d="M 261.6875 123.007812 C 260.148438 123.308594 259.148438 124.796875 259.449219 126.335938 C 259.75 127.871094 261.242188 128.875 262.777344 128.570312 C 264.316406 128.269531 265.316406 126.78125 265.015625 125.242188 C 264.714844 123.707031 263.222656 122.707031 261.6875 123.007812 Z M 261.6875 123.007812 "/></clipPath><clipPath id="63eed65757"><path d="M 129 193 L 136 193 L 136 213 L 129 213 Z M 129 193 "/></clipPath><clipPath id="1b5d2a922b"><path d="M 129.007812 194.324219 L 131.699219 193.796875 L 135.394531 212.628906 L 132.703125 213.15625 Z M 129.007812 194.324219 "/></clipPath><clipPath id="a5ec97afb3"><path d="M 129.46875 196.667969 L 132.199219 210.582031 C 132.460938 211.917969 133.789062 212.8125 135.125 212.550781 L 131.460938 193.851562 C 130.125 194.113281 129.207031 195.332031 129.46875 196.667969 Z M 129.46875 196.667969 "/></clipPath><clipPath id="574bf840d8"><path d="M 135 226 L 145 226 L 145 261 L 135 261 Z M 135 226 "/></clipPath><clipPath id="bc70f3a410"><path d="M 135.339844 226.609375 L 138.03125 226.082031 L 144.714844 260.164062 L 142.027344 260.691406 Z M 135.339844 226.609375 "/></clipPath><clipPath id="d0a78c0212"><path d="M 135.863281 229.277344 L 141.539062 258.214844 C 141.800781 259.550781 143.132812 260.445312 144.46875 260.183594 L 137.855469 226.460938 C 136.519531 226.722656 135.601562 227.941406 135.863281 229.277344 Z M 135.863281 229.277344 "/></clipPath><clipPath id="7ba043543b"><path d="M 143 267 L 153 267 L 153 302 L 143 302 Z M 143 267 "/></clipPath><clipPath id="f5b80828d1"><path d="M 143.433594 267.867188 L 146.125 267.339844 L 152.808594 301.421875 L 150.117188 301.949219 Z M 143.433594 267.867188 "/></clipPath><clipPath id="94b6abc1f5"><path d="M 143.941406 270.457031 L 149.617188 299.394531 C 149.878906 300.730469 151.207031 301.625 152.542969 301.363281 L 145.910156 267.527344 C 144.574219 267.789062 143.679688 269.121094 143.941406 270.457031 Z M 143.941406 270.457031 "/></clipPath><clipPath id="9303ff3c7e"><path d="M 364 193 L 378 193 L 378 248 L 364 248 Z M 364 193 "/></clipPath><clipPath id="131e296b05"><path d="M 364.359375 192.875 L 367.050781 192.34375 L 377.957031 247.953125 L 375.265625 248.480469 Z M 364.359375 192.875 "/></clipPath><clipPath id="7532aa2285"><path d="M 364.738281 193.523438 L 375.367188 247.722656 C 376.703125 247.460938 377.597656 246.128906 377.335938 244.792969 L 367.667969 195.492188 C 367.40625 194.15625 366.074219 193.261719 364.738281 193.523438 Z M 364.738281 193.523438 "/></clipPath><clipPath id="c64e784e1a"><path d="M 125 95 L 428 95 L 428 583 L 125 583 Z M 125 95 "/></clipPath><clipPath id="0225679a59"><path d="M 119.019531 133.882812 L 345.03125 89.558594 L 434.207031 544.269531 L 208.195312 588.59375 Z M 119.019531 133.882812 "/></clipPath><clipPath id="8b98f3aede"><path d="M 364.738281 193.523438 L 350.902344 122.960938 C 350.441406 120.625 349.785156 118.441406 348.925781 116.414062 C 348.484375 115.347656 348.0625 114.386719 347.511719 113.339844 C 346.761719 111.871094 345.789062 110.441406 344.835938 109.128906 C 344.195312 108.210938 343.464844 107.429688 342.734375 106.648438 C 342 105.871094 341.269531 105.089844 340.429688 104.328125 C 339.164062 103.191406 337.945312 102.273438 336.589844 101.265625 C 335.660156 100.640625 334.75 100.125 333.839844 99.609375 C 327.113281 95.960938 319.222656 94.617188 311.210938 96.191406 L 152.949219 127.226562 C 144.9375 128.796875 138.046875 133.15625 133.289062 138.941406 C 132.640625 139.761719 132.015625 140.695312 131.367188 141.515625 C 130.472656 142.847656 129.597656 144.289062 128.96875 145.800781 C 128.476562 146.820312 128.09375 147.820312 127.714844 148.820312 C 127.332031 149.820312 126.972656 150.929688 126.699219 151.90625 C 126.226562 153.617188 125.953125 155.175781 125.703125 156.839844 C 125.589844 158.019531 125.5625 159.066406 125.558594 160.222656 C 125.527344 162.421875 125.761719 164.804688 126.199219 167.03125 L 202.222656 554.667969 C 205.824219 573.03125 223.660156 585.019531 242.023438 581.417969 L 400.171875 550.402344 C 418.535156 546.800781 430.523438 528.960938 426.921875 510.597656 Z M 362.511719 193.960938 L 424.71875 511.144531 C 428.082031 528.285156 416.898438 544.925781 399.757812 548.285156 L 241.609375 579.300781 C 224.46875 582.664062 207.832031 571.480469 204.46875 554.339844 L 128.445312 166.703125 C 125.0625 149.453125 136.246094 132.8125 153.386719 129.453125 L 311.535156 98.4375 C 328.675781 95.078125 345.3125 106.257812 348.675781 123.398438 Z M 362.511719 193.960938 "/></clipPath><clipPath id="faed5385aa"><path d="M 385 124 L 678 124 L 678 605 L 385 605 Z M 385 124 "/></clipPath><clipPath id="c602e9d3fa"><path d="M 461.289062 118.699219 L 682.621094 158.226562 L 601.960938 609.886719 L 380.628906 570.359375 Z M 461.289062 118.699219 "/></clipPath><clipPath id="dd7752b65b"><path d="M 651.203125 153.0625 L 492.550781 124.730469 C 475.359375 121.660156 458.910156 133.121094 455.839844 150.316406 L 386.394531 539.183594 C 383.324219 556.378906 394.785156 572.828125 411.980469 575.898438 L 570.632812 604.230469 C 587.824219 607.300781 604.273438 595.835938 607.34375 578.644531 L 676.789062 189.773438 C 679.859375 172.582031 668.398438 156.132812 651.203125 153.0625 Z M 595.839844 157.921875 C 597.40625 158.203125 598.414062 159.648438 598.132812 161.210938 C 597.855469 162.773438 596.40625 163.785156 594.84375 163.503906 C 593.28125 163.226562 592.273438 161.777344 592.550781 160.214844 C 592.832031 158.652344 594.390625 157.664062 595.839844 157.921875 Z M 554.484375 151.457031 L 581.28125 156.242188 C 582.285156 156.421875 583.039062 157.363281 582.839844 158.480469 C 582.640625 159.597656 581.605469 160.21875 580.601562 160.039062 L 553.804688 155.253906 C 552.800781 155.074219 552.046875 154.132812 552.246094 153.015625 C 552.445312 151.902344 553.480469 151.277344 554.484375 151.457031 Z M 595.636719 578.394531 C 593.820312 588.554688 584.085938 595.34375 573.925781 593.527344 L 412.816406 564.757812 C 402.65625 562.941406 395.871094 553.203125 397.6875 543.042969 L 467.671875 151.160156 C 469.484375 141.003906 479.222656 134.214844 489.382812 136.03125 L 513.386719 140.316406 L 512.488281 145.339844 C 511.472656 151.035156 515.324219 156.5625 521.019531 157.578125 L 613.351562 174.066406 C 619.042969 175.085938 624.570312 171.234375 625.585938 165.539062 L 626.484375 160.515625 L 650.378906 164.78125 C 660.539062 166.597656 667.324219 176.332031 665.507812 186.492188 L 595.523438 578.375 Z M 595.636719 578.394531 "/></clipPath><clipPath id="5187c6bee0"><path d="M 397 135 L 666 135 L 666 594 L 397 594 Z M 397 135 "/></clipPath><clipPath id="cbc657facd"><path d="M 470.898438 132.484375 L 669.734375 167.996094 L 593.09375 597.160156 L 394.253906 561.652344 Z M 470.898438 132.484375 "/></clipPath><clipPath id="881ca0970f"><path d="M 650.378906 164.78125 L 626.484375 160.515625 L 625.585938 165.539062 C 624.570312 171.234375 619.042969 175.085938 613.351562 174.066406 L 521.128906 157.597656 C 515.4375 156.582031 511.582031 151.054688 512.601562 145.359375 L 513.496094 140.335938 L 489.382812 136.03125 C 479.222656 134.214844 469.484375 141.003906 467.671875 151.160156 L 397.6875 543.042969 C 395.871094 553.203125 402.65625 562.941406 412.816406 564.757812 L 573.8125 593.507812 C 583.972656 595.320312 593.710938 588.535156 595.523438 578.375 L 665.507812 186.492188 C 667.4375 176.351562 660.648438 166.617188 650.378906 164.78125 Z M 650.378906 164.78125 "/></clipPath><clipPath id="805b331f39"><path d="M 457.113281 116.097656 L 687.441406 157.230469 L 605.976562 613.386719 L 375.648438 572.253906 Z M 457.113281 116.097656 "/></clipPath><clipPath id="516c055ebd"><path d="M 552 151 L 583 151 L 583 161 L 552 161 Z M 552 151 "/></clipPath><clipPath id="12a62f48bd"><path d="M 552.128906 150.703125 L 583.617188 156.328125 L 582.816406 160.828125 L 551.324219 155.203125 Z M 552.128906 150.703125 "/></clipPath><clipPath id="e2284f89c5"><path d="M 581.28125 156.242188 L 554.484375 151.457031 C 553.480469 151.277344 552.445312 151.902344 552.246094 153.015625 C 552.046875 154.132812 552.800781 155.074219 553.804688 155.253906 L 580.601562 160.039062 C 581.605469 160.21875 582.640625 159.597656 582.839844 158.480469 C 583.039062 157.363281 582.285156 156.421875 581.28125 156.242188 Z M 581.28125 156.242188 "/></clipPath><clipPath id="de0907657b"><path d="M 592 157 L 599 157 L 599 164 L 592 164 Z M 592 157 "/></clipPath><clipPath id="f0bad07786"><path d="M 592.777344 157.035156 L 599.074219 158.160156 L 597.949219 164.457031 L 591.652344 163.332031 Z M 592.777344 157.035156 "/></clipPath><clipPath id="04a88f772b"><path d="M 595.839844 157.921875 C 594.300781 157.648438 592.828125 158.671875 592.550781 160.214844 C 592.277344 161.757812 593.304688 163.230469 594.84375 163.503906 C 596.386719 163.78125 597.859375 162.753906 598.132812 161.210938 C 598.410156 159.671875 597.382812 158.199219 595.839844 157.921875 Z M 595.839844 157.921875 "/></clipPath><clipPath id="483b2b95ca"><path d="M 443 176 L 449 176 L 449 196 L 443 196 Z M 443 176 "/></clipPath><clipPath id="f89f7cc141"><path d="M 446.347656 176.378906 L 449.046875 176.859375 L 445.671875 195.753906 L 442.972656 195.273438 Z M 446.347656 176.378906 "/></clipPath><clipPath id="740f6037df"><path d="M 445.925781 178.730469 L 443.433594 192.6875 C 443.195312 194.027344 444.113281 195.34375 445.453125 195.582031 L 448.800781 176.824219 C 447.460938 176.585938 446.164062 177.390625 445.925781 178.730469 Z M 445.925781 178.730469 "/></clipPath><clipPath id="abedda2103"><path d="M 434 209 L 443 209 L 443 244 L 434 244 Z M 434 209 "/></clipPath><clipPath id="8deb9a0654"><path d="M 440.5625 208.769531 L 443.261719 209.25 L 437.15625 243.4375 L 434.457031 242.957031 Z M 440.5625 208.769531 "/></clipPath><clipPath id="b5967c3856"><path d="M 440.085938 211.441406 L 434.902344 240.472656 C 434.660156 241.8125 435.578125 243.128906 436.917969 243.367188 L 442.960938 209.539062 C 441.621094 209.296875 440.324219 210.105469 440.085938 211.441406 Z M 440.085938 211.441406 "/></clipPath><clipPath id="38785160c8"><path d="M 427 250 L 436 250 L 436 285 L 427 285 Z M 427 250 "/></clipPath><clipPath id="33517831c0"><path d="M 433.171875 250.15625 L 435.871094 250.636719 L 429.765625 284.828125 L 427.066406 284.34375 Z M 433.171875 250.15625 "/></clipPath><clipPath id="9975accf35"><path d="M 432.707031 252.753906 L 427.523438 281.78125 C 427.285156 283.121094 428.199219 284.4375 429.539062 284.675781 L 435.601562 250.734375 C 434.261719 250.496094 432.945312 251.414062 432.707031 252.753906 Z M 432.707031 252.753906 "/></clipPath><clipPath id="b602d2242c"><path d="M 656 260 L 669 260 L 669 316 L 656 316 Z M 656 260 "/></clipPath><clipPath id="d651e18b6b"><path d="M 666.261719 260.214844 L 668.960938 260.699219 L 659 316.480469 L 656.300781 316 Z M 666.261719 260.214844 "/></clipPath><clipPath id="0885bc01eb"><path d="M 666.382812 260.957031 L 656.671875 315.332031 C 658.011719 315.570312 659.328125 314.652344 659.566406 313.3125 L 668.398438 263.851562 C 668.636719 262.511719 667.722656 261.199219 666.382812 260.957031 Z M 666.382812 260.957031 "/></clipPath><clipPath id="8118e743a6"><path d="M 383 121 L 680 121 L 680 607 L 383 607 Z M 383 121 "/></clipPath><clipPath id="2e071d2357"><path d="M 458.910156 116.417969 L 685.640625 156.910156 L 604.175781 613.066406 L 377.449219 572.578125 Z M 458.910156 116.417969 "/></clipPath><clipPath id="b8fc7f5941"><path d="M 666.382812 260.957031 L 679.023438 190.175781 C 679.441406 187.828125 679.617188 185.554688 679.550781 183.355469 C 679.523438 182.199219 679.480469 181.15625 679.347656 179.976562 C 679.179688 178.335938 678.789062 176.652344 678.378906 175.082031 C 678.109375 173.996094 677.710938 173.003906 677.3125 172.011719 C 676.914062 171.019531 676.515625 170.027344 676.003906 169.011719 C 675.238281 167.492188 674.433594 166.199219 673.535156 164.769531 C 672.894531 163.847656 672.234375 163.039062 671.570312 162.230469 C 666.621094 156.390625 659.753906 152.285156 651.714844 150.847656 L 492.949219 122.496094 C 484.914062 121.0625 476.914062 122.628906 470.382812 126.300781 C 469.480469 126.832031 468.558594 127.472656 467.660156 128.003906 C 466.34375 128.921875 465.007812 129.949219 463.875 131.128906 C 463.046875 131.902344 462.328125 132.695312 461.609375 133.488281 C 460.890625 134.28125 460.15625 135.1875 459.546875 136 C 458.488281 137.425781 457.671875 138.777344 456.832031 140.242188 C 456.296875 141.296875 455.894531 142.261719 455.472656 143.339844 C 454.648438 145.378906 454.003906 147.683594 453.605469 149.917969 L 384.160156 538.785156 C 380.871094 557.207031 393.160156 574.839844 411.582031 578.128906 L 570.230469 606.460938 C 588.652344 609.753906 606.285156 597.464844 609.578125 579.042969 Z M 664.148438 260.558594 L 607.324219 578.753906 C 604.253906 595.949219 587.804688 607.410156 570.609375 604.339844 L 411.960938 576.007812 C 394.765625 572.9375 383.304688 556.488281 386.375 539.296875 L 455.820312 150.429688 C 458.910156 133.121094 475.359375 121.660156 492.550781 124.730469 L 651.203125 153.0625 C 668.398438 156.132812 679.859375 172.582031 676.789062 189.773438 Z M 664.148438 260.558594 "/></clipPath></defs><g id="02475f2eaa"><g clip-rule="nonzero" clip-path="url(#7a43f85248)"><path style=" stroke:none;fill-rule:nonzero;fill:#ffffff;fill-opacity:1;" d="M 0.199219 0 L 809.800781 0 L 809.800781 1012 L 0.199219 1012 Z M 0.199219 0 "/><path style=" stroke:none;fill-rule:nonzero;fill:#COLOR_SECONDARY;fill-opacity:1;" d="M 0.199219 0 L 809.800781 0 L 809.800781 1012 L 0.199219 1012 Z M 0.199219 0 "/></g><g clip-rule="nonzero" clip-path="url(#61a6f6ab75)"><g clip-rule="nonzero" clip-path="url(#861e0340cb)"><path style=" stroke:none;fill-rule:nonzero;fill:#COLOR_PRIMARY;fill-opacity:1;" d="M -92.570312 340.097656 L 903.316406 340.097656 L 903.316406 1314.585938 L -92.570312 1314.585938 Z M -92.570312 340.097656 "/></g></g><g clip-rule="nonzero" clip-path="url(#c9e326acfb)"><g clip-rule="nonzero" clip-path="url(#d39338b6a5)"><g clip-rule="nonzero" clip-path="url(#a55e6aa08b)"><path style=" stroke:none;fill-rule:nonzero;fill:#000000;fill-opacity:1;" d="M 117.226562 134.234375 L 346.824219 89.207031 L 436 543.917969 L 206.402344 588.945312 Z M 117.226562 134.234375 "/></g></g></g><g clip-rule="nonzero" clip-path="url(#da3286f3cf)"><g clip-rule="nonzero" clip-path="url(#53465d4a98)"><g clip-rule="nonzero" clip-path="url(#1f6b4caf0b)"><g clip-rule="nonzero" clip-path="url(#fdcec08150)"><g transform="matrix(0.7634,-0.149716,0.149822,0.763942,-313.94459,233.008677)"><image width="1438" xlink:href="PLACE_SCREENSHOT_HERE" height="560" preserveAspectRatio="xMidYMid meet"/></g></g></g></g></g><g clip-rule="nonzero" clip-path="url(#82f794ef1e)"><g clip-rule="nonzero" clip-path="url(#963eabd20f)"><g clip-rule="nonzero" clip-path="url(#9f5f74e817)"><path style=" stroke:none;fill-rule:nonzero;fill:#555555;fill-opacity:1;" d="M 117.226562 134.234375 L 346.824219 89.207031 L 436 543.917969 L 206.402344 588.945312 Z M 117.226562 134.234375 "/></g></g></g><g clip-rule="nonzero" clip-path="url(#50278662e8)"><g clip-rule="nonzero" clip-path="url(#6e53c20637)"><g clip-rule="nonzero" clip-path="url(#4d828bd823)"><path style=" stroke:none;fill-rule:nonzero;fill:#555555;fill-opacity:1;" d="M 117.226562 134.234375 L 346.824219 89.207031 L 436 543.917969 L 206.402344 588.945312 Z M 117.226562 134.234375 "/></g></g></g><g clip-rule="nonzero" clip-path="url(#63eed65757)"><g clip-rule="nonzero" clip-path="url(#1b5d2a922b)"><g clip-rule="nonzero" clip-path="url(#a5ec97afb3)"><path style=" stroke:none;fill-rule:nonzero;fill:#2e2e2e;fill-opacity:1;" d="M 117.226562 134.234375 L 346.824219 89.207031 L 436 543.917969 L 206.402344 588.945312 Z M 117.226562 134.234375 "/></g></g></g><g clip-rule="nonzero" clip-path="url(#574bf840d8)"><g clip-rule="nonzero" clip-path="url(#bc70f3a410)"><g clip-rule="nonzero" clip-path="url(#d0a78c0212)"><path style=" stroke:none;fill-rule:nonzero;fill:#2e2e2e;fill-opacity:1;" d="M 117.226562 134.234375 L 346.824219 89.207031 L 436 543.917969 L 206.402344 588.945312 Z M 117.226562 134.234375 "/></g></g></g><g clip-rule="nonzero" clip-path="url(#7ba043543b)"><g clip-rule="nonzero" clip-path="url(#f5b80828d1)"><g clip-rule="nonzero" clip-path="url(#94b6abc1f5)"><path style=" stroke:none;fill-rule:nonzero;fill:#2e2e2e;fill-opacity:1;" d="M 117.226562 134.234375 L 346.824219 89.207031 L 436 543.917969 L 206.402344 588.945312 Z M 117.226562 134.234375 "/></g></g></g><g clip-rule="nonzero" clip-path="url(#9303ff3c7e)"><g clip-rule="nonzero" clip-path="url(#131e296b05)"><g clip-rule="nonzero" clip-path="url(#7532aa2285)"><path style=" stroke:none;fill-rule:nonzero;fill:#2e2e2e;fill-opacity:1;" d="M 117.226562 134.234375 L 346.824219 89.207031 L 436 543.917969 L 206.402344 588.945312 Z M 117.226562 134.234375 "/></g></g></g><g clip-rule="nonzero" clip-path="url(#c64e784e1a)"><g clip-rule="nonzero" clip-path="url(#0225679a59)"><g clip-rule="nonzero" clip-path="url(#8b98f3aede)"><path style=" stroke:none;fill-rule:nonzero;fill:#555555;fill-opacity:1;" d="M 117.226562 134.234375 L 346.824219 89.207031 L 436 543.917969 L 206.402344 588.945312 Z M 117.226562 134.234375 "/></g></g></g><g clip-rule="nonzero" clip-path="url(#faed5385aa)"><g clip-rule="nonzero" clip-path="url(#c602e9d3fa)"><g clip-rule="nonzero" clip-path="url(#dd7752b65b)"><path style=" stroke:none;fill-rule:nonzero;fill:#000000;fill-opacity:1;" d="M 457.113281 116.097656 L 687.441406 157.230469 L 605.976562 613.386719 L 375.648438 572.253906 Z M 457.113281 116.097656 "/></g></g></g><g clip-rule="nonzero" clip-path="url(#5187c6bee0)"><g clip-rule="nonzero" clip-path="url(#cbc657facd)"><g clip-rule="nonzero" clip-path="url(#881ca0970f)"><g clip-rule="nonzero" clip-path="url(#805b331f39)"><g transform="matrix(0.765826,0.136766,-0.136863,0.766369,19.426981,52.102579)"><image width="1438" xlink:href="PLACE_SCREENSHOT_2_HERE" height="560" preserveAspectRatio="xMidYMid meet"/></g></g></g></g></g><g clip-rule="nonzero" clip-path="url(#516c055ebd)"><g clip-rule="nonzero" clip-path="url(#12a62f48bd)"><g clip-rule="nonzero" clip-path="url(#e2284f89c5)"><path style=" stroke:none;fill-rule:nonzero;fill:#555555;fill-opacity:1;" d="M 457.113281 116.097656 L 687.441406 157.230469 L 605.976562 613.386719 L 375.648438 572.253906 Z M 457.113281 116.097656 "/></g></g></g><g clip-rule="nonzero" clip-path="url(#de0907657b)"><g clip-rule="nonzero" clip-path="url(#f0bad07786)"><g clip-rule="nonzero" clip-path="url(#04a88f772b)"><path style=" stroke:none;fill-rule:nonzero;fill:#555555;fill-opacity:1;" d="M 457.113281 116.097656 L 687.441406 157.230469 L 605.976562 613.386719 L 375.648438 572.253906 Z M 457.113281 116.097656 "/></g></g></g><g clip-rule="nonzero" clip-path="url(#483b2b95ca)"><g clip-rule="nonzero" clip-path="url(#f89f7cc141)"><g clip-rule="nonzero" clip-path="url(#740f6037df)"><path style=" stroke:none;fill-rule:nonzero;fill:#2e2e2e;fill-opacity:1;" d="M 457.113281 116.097656 L 687.441406 157.230469 L 605.976562 613.386719 L 375.648438 572.253906 Z M 457.113281 116.097656 "/></g></g></g><g clip-rule="nonzero" clip-path="url(#abedda2103)"><g clip-rule="nonzero" clip-path="url(#8deb9a0654)"><g clip-rule="nonzero" clip-path="url(#b5967c3856)"><path style=" stroke:none;fill-rule:nonzero;fill:#2e2e2e;fill-opacity:1;" d="M 457.113281 116.097656 L 687.441406 157.230469 L 605.976562 613.386719 L 375.648438 572.253906 Z M 457.113281 116.097656 "/></g></g></g><g clip-rule="nonzero" clip-path="url(#38785160c8)"><g clip-rule="nonzero" clip-path="url(#33517831c0)"><g clip-rule="nonzero" clip-path="url(#9975accf35)"><path style=" stroke:none;fill-rule:nonzero;fill:#2e2e2e;fill-opacity:1;" d="M 457.113281 116.097656 L 687.441406 157.230469 L 605.976562 613.386719 L 375.648438 572.253906 Z M 457.113281 116.097656 "/></g></g></g><g clip-rule="nonzero" clip-path="url(#b602d2242c)"><g clip-rule="nonzero" clip-path="url(#d651e18b6b)"><g clip-rule="nonzero" clip-path="url(#0885bc01eb)"><path style=" stroke:none;fill-rule:nonzero;fill:#2e2e2e;fill-opacity:1;" d="M 457.113281 116.097656 L 687.441406 157.230469 L 605.976562 613.386719 L 375.648438 572.253906 Z M 457.113281 116.097656 "/></g></g></g><g clip-rule="nonzero" clip-path="url(#8118e743a6)"><g clip-rule="nonzero" clip-path="url(#2e071d2357)"><g clip-rule="nonzero" clip-path="url(#b8fc7f5941)"><path style=" stroke:none;fill-rule:nonzero;fill:#555555;fill-opacity:1;" d="M 457.113281 116.097656 L 687.441406 157.230469 L 605.976562 613.386719 L 375.648438 572.253906 Z M 457.113281 116.097656 "/></g></g></g></g></svg>