<svg xmlns="http://www.w3.org/2000/svg" xmlns:xlink="http://www.w3.org/1999/xlink" width="1080" zoomAndPan="magnify" viewBox="0 0 810 1012.49997" height="1350" preserveAspectRatio="xMidYMid meet" version="1.2"><defs><clipPath id="f51b674a9a"><path d="M 0.199219 0 L 809.800781 0 L 809.800781 1012 L 0.199219 1012 Z M 0.199219 0 "/></clipPath><filter x="0%" y="0%" width="100%" filterUnits="objectBoundingBox" id="bee06d06fd" height="100%"><feColorMatrix values="0 0 0 0 1 0 0 0 0 1 0 0 0 0 1 0 0 0 1 0" type="matrix" in="SourceGraphic"/></filter><clipPath id="0b8a0f4b82"><path d="M 0.199219 0 L 809.800781 0 L 809.800781 1012 L 0.199219 1012 Z M 0.199219 0 "/></clipPath><clipPath id="5f61ab8533"><rect x="0" width="810" y="0" height="1012"/></clipPath><clipPath id="19b9748211"><path d="M 336 531 L 809.800781 531 L 809.800781 1012 L 336 1012 Z M 336 531 "/></clipPath><clipPath id="f1d6cedc74"><path d="M 1.15625 0.738281 L 473.800781 0.738281 L 473.800781 481 L 1.15625 481 Z M 1.15625 0.738281 "/></clipPath><clipPath id="58f276700a"><path d="M 946.4375 473.378906 C 946.4375 481.113281 946.246094 488.84375 945.867188 496.570312 C 945.488281 504.296875 944.921875 512.007812 944.160156 519.703125 C 943.402344 527.402344 942.457031 535.078125 941.320312 542.730469 C 940.1875 550.378906 938.863281 558 937.355469 565.585938 C 935.847656 573.171875 934.152344 580.71875 932.273438 588.21875 C 930.394531 595.722656 928.332031 603.175781 926.085938 610.578125 C 923.839844 617.980469 921.414062 625.324219 918.808594 632.605469 C 916.203125 639.890625 913.417969 647.105469 910.460938 654.25 C 907.5 661.394531 904.367188 668.464844 901.058594 675.457031 C 897.75 682.449219 894.273438 689.359375 890.628906 696.179688 C 886.980469 703 883.171875 709.730469 879.195312 716.363281 C 875.21875 723 871.082031 729.53125 866.78125 735.964844 C 862.484375 742.394531 858.03125 748.71875 853.425781 754.929688 C 848.816406 761.144531 844.058594 767.238281 839.152344 773.21875 C 834.246094 779.199219 829.195312 785.054688 824 790.785156 C 818.804688 796.515625 813.472656 802.117188 808.003906 807.585938 C 802.535156 813.054688 796.933594 818.386719 791.203125 823.582031 C 785.472656 828.777344 779.617188 833.828125 773.636719 838.734375 C 767.65625 843.640625 761.5625 848.398438 755.347656 853.007812 C 749.136719 857.613281 742.8125 862.066406 736.382812 866.363281 C 729.949219 870.664062 723.417969 874.800781 716.78125 878.777344 C 710.148438 882.753906 703.417969 886.5625 696.597656 890.210938 C 689.777344 893.855469 682.867188 897.332031 675.875 900.640625 C 668.882812 903.949219 661.8125 907.082031 654.667969 910.042969 C 647.523438 913 640.308594 915.785156 633.023438 918.390625 C 625.742188 920.996094 618.398438 923.421875 610.996094 925.667969 C 603.59375 927.914062 596.140625 929.976562 588.636719 931.855469 C 581.136719 933.734375 573.589844 935.429688 566.003906 936.9375 C 558.417969 938.445312 550.796875 939.769531 543.148438 940.902344 C 535.496094 942.039062 527.820312 942.984375 520.125 943.742188 C 512.425781 944.5 504.714844 945.070312 496.988281 945.449219 C 489.261719 945.828125 481.53125 946.019531 473.796875 946.019531 C 466.0625 946.019531 458.332031 945.828125 450.605469 945.449219 C 442.878906 945.070312 435.167969 944.5 427.46875 943.742188 C 419.769531 942.984375 412.097656 942.039062 404.445312 940.902344 C 396.792969 939.769531 389.175781 938.445312 381.589844 936.9375 C 374 935.429688 366.457031 933.734375 358.953125 931.855469 C 351.449219 929.976562 343.996094 927.914062 336.59375 925.667969 C 329.195312 923.421875 321.851562 920.996094 314.566406 918.390625 C 307.285156 915.785156 300.070312 913 292.925781 910.042969 C 285.777344 907.082031 278.707031 903.949219 271.714844 900.640625 C 264.722656 897.332031 257.816406 893.855469 250.996094 890.210938 C 244.171875 886.5625 237.445312 882.753906 230.808594 878.777344 C 224.175781 874.800781 217.640625 870.664062 211.210938 866.363281 C 204.777344 862.066406 198.457031 857.613281 192.242188 853.007812 C 186.03125 848.398438 179.933594 843.640625 173.957031 838.734375 C 167.976562 833.828125 162.121094 828.777344 156.390625 823.582031 C 150.65625 818.386719 145.058594 813.054688 139.589844 807.585938 C 134.117188 802.117188 128.785156 796.515625 123.589844 790.785156 C 118.398438 785.054688 113.347656 779.199219 108.4375 773.21875 C 103.53125 767.238281 98.773438 761.144531 94.167969 754.929688 C 89.558594 748.71875 85.105469 742.394531 80.808594 735.964844 C 76.511719 729.53125 72.375 723 68.398438 716.363281 C 64.421875 709.730469 60.609375 703 56.964844 696.179688 C 53.316406 689.359375 49.839844 682.449219 46.53125 675.457031 C 43.226562 668.464844 40.09375 661.394531 37.132812 654.25 C 34.171875 647.105469 31.390625 639.890625 28.78125 632.605469 C 26.175781 625.324219 23.75 617.980469 21.507812 610.578125 C 19.261719 603.175781 17.199219 595.722656 15.320312 588.21875 C 13.441406 580.71875 11.746094 573.171875 10.234375 565.585938 C 8.726562 558 7.40625 550.378906 6.269531 542.730469 C 5.136719 535.078125 4.1875 527.402344 3.429688 519.703125 C 2.671875 512.007812 2.101562 504.296875 1.722656 496.570312 C 1.34375 488.84375 1.15625 481.113281 1.15625 473.378906 C 1.15625 465.644531 1.34375 457.914062 1.722656 450.1875 C 2.101562 442.460938 2.671875 434.75 3.429688 427.050781 C 4.1875 419.351562 5.136719 411.679688 6.269531 404.027344 C 7.40625 396.375 8.726562 388.757812 10.234375 381.171875 C 11.746094 373.582031 13.441406 366.039062 15.320312 358.535156 C 17.199219 351.03125 19.261719 343.578125 21.507812 336.175781 C 23.75 328.773438 26.175781 321.433594 28.78125 314.148438 C 31.390625 306.867188 34.171875 299.652344 37.132812 292.503906 C 40.09375 285.359375 43.226562 278.289062 46.53125 271.296875 C 49.839844 264.304688 53.316406 257.398438 56.964844 250.578125 C 60.609375 243.753906 64.421875 237.027344 68.398438 230.390625 C 72.375 223.757812 76.511719 217.222656 80.808594 210.792969 C 85.105469 204.359375 89.558594 198.039062 94.167969 191.824219 C 98.773438 185.613281 103.53125 179.515625 108.4375 173.539062 C 113.347656 167.558594 118.398438 161.703125 123.589844 155.972656 C 128.785156 150.238281 134.117188 144.640625 139.589844 139.167969 C 145.058594 133.699219 150.65625 128.367188 156.390625 123.171875 C 162.121094 117.980469 167.976562 112.929688 173.957031 108.019531 C 179.933594 103.113281 186.03125 98.355469 192.242188 93.75 C 198.457031 89.140625 204.777344 84.6875 211.210938 80.390625 C 217.640625 76.09375 224.175781 71.957031 230.808594 67.980469 C 237.445312 64.003906 244.171875 60.191406 250.996094 56.546875 C 257.816406 52.898438 264.722656 49.421875 271.714844 46.113281 C 278.707031 42.808594 285.777344 39.675781 292.925781 36.714844 C 300.070312 33.753906 307.285156 30.972656 314.566406 28.363281 C 321.851562 25.757812 329.191406 23.332031 336.59375 21.089844 C 343.996094 18.84375 351.449219 16.78125 358.953125 14.902344 C 366.457031 13.019531 374 11.328125 381.589844 9.816406 C 389.175781 8.308594 396.792969 6.988281 404.445312 5.851562 C 412.097656 4.71875 419.769531 3.769531 427.46875 3.011719 C 435.167969 2.253906 442.878906 1.683594 450.605469 1.304688 C 458.332031 0.925781 466.0625 0.738281 473.796875 0.738281 C 481.53125 0.738281 489.261719 0.925781 496.988281 1.304688 C 504.714844 1.683594 512.425781 2.253906 520.125 3.011719 C 527.820312 3.769531 535.496094 4.71875 543.148438 5.851562 C 550.796875 6.988281 558.417969 8.308594 566.003906 9.816406 C 573.589844 11.328125 581.136719 13.019531 588.636719 14.902344 C 596.140625 16.78125 603.59375 18.84375 610.996094 21.089844 C 618.398438 23.332031 625.742188 25.757812 633.023438 28.363281 C 640.308594 30.972656 647.523438 33.753906 654.667969 36.714844 C 661.8125 39.675781 668.882812 42.808594 675.875 46.113281 C 682.867188 49.421875 689.777344 52.898438 696.597656 56.546875 C 703.417969 60.191406 710.148438 64.003906 716.78125 67.980469 C 723.417969 71.957031 729.949219 76.09375 736.382812 80.390625 C 742.8125 84.6875 749.136719 89.140625 755.347656 93.75 C 761.5625 98.355469 767.65625 103.113281 773.636719 108.019531 C 779.617188 112.929688 785.472656 117.980469 791.203125 123.171875 C 796.933594 128.367188 802.535156 133.699219 808.003906 139.167969 C 813.472656 144.640625 818.804688 150.238281 824 155.972656 C 829.195312 161.703125 834.246094 167.558594 839.152344 173.539062 C 844.058594 179.515625 848.816406 185.613281 853.425781 191.824219 C 858.03125 198.039062 862.484375 204.359375 866.78125 210.792969 C 871.082031 217.222656 875.21875 223.757812 879.195312 230.390625 C 883.171875 237.027344 886.980469 243.753906 890.628906 250.578125 C 894.273438 257.398438 897.75 264.304688 901.058594 271.296875 C 904.367188 278.289062 907.5 285.359375 910.460938 292.503906 C 913.417969 299.652344 916.203125 306.867188 918.808594 314.148438 C 921.414062 321.433594 923.839844 328.773438 926.085938 336.175781 C 928.332031 343.578125 930.394531 351.03125 932.273438 358.535156 C 934.152344 366.039062 935.847656 373.582031 937.355469 381.171875 C 938.863281 388.757812 940.1875 396.375 941.320312 404.027344 C 942.457031 411.679688 943.402344 419.351562 944.160156 427.050781 C 944.921875 434.75 945.488281 442.460938 945.867188 450.1875 C 946.246094 457.914062 946.4375 465.644531 946.4375 473.378906 Z M 946.4375 473.378906 "/></clipPath><mask id="f4ac303751"><g filter="url(#bee06d06fd)"><g transform="matrix(1.000334,0,0,0.999667,-0.161026,-0.159004)"><image width="473" xlink:href="file:///Users/erikbelt/Desktop/Mood Tracking App/AdCreator/image-generation-service/assets/3_Product_Feature_Images_HS-img1-7d2af26d.png" height="481" preserveAspectRatio="xMidYMid meet"/></g></g></mask><radialGradient gradientTransform="matrix(0.999667,0,0,1.000333,0.160973,0.159057)" id="13e80298c8" gradientUnits="userSpaceOnUse" r="472.992734" cx="472.992734" fx="472.992734" cy="472.992734" fy="472.992734"><stop style="stop-color:#COLOR_PRIMARY;stop-opacity:1;" offset="0"/><stop style="stop-color:#COLOR_PRIMARY;stop-opacity:1;" offset="1"/></radialGradient><clipPath id="1a7ad5a63e"><rect x="0" width="473" y="0" height="481"/></clipPath><pattern width="473" patternUnits="userSpaceOnUse" patternTransform="matrix(0.999591,0,0,0.998925,0.993571,0.577455)" id="4e872b4fd6" height="481" preserveAspectRatio="xMidYMid meet"><g><g clip-path="url(#1a7ad5a63e)"><rect x="0" width="473" y="0" height="481" style="fill:url(#13e80298c8);stroke:none;" mask="url(#f4ac303751)"/></g></g></pattern><clipPath id="08db867ccc"><rect x="0" width="474" y="0" height="481"/></clipPath><clipPath id="a854184004"><path d="M 70 270.382812 L 392.28125 270.382812 L 392.28125 708.164062 L 70 708.164062 Z M 70 270.382812 "/></clipPath><clipPath id="61d51f24e3"><path d="M 83.332031 332.066406 L 385.433594 332.066406 L 385.433594 634 L 83.332031 634 Z M 83.332031 332.066406 "/></clipPath><clipPath id="34951f0329"><path d="M 176.570312 533 L 510 533 L 510 982.628906 L 176.570312 982.628906 Z M 176.570312 533 "/></clipPath><clipPath id="6894961a4e"><path d="M 200.726562 592.390625 L 502.828125 592.390625 L 502.828125 894 L 200.726562 894 Z M 200.726562 592.390625 "/></clipPath><clipPath id="b658e7fbb6"><path d="M 367.214844 397.722656 L 742 397.722656 L 742 887.980469 L 367.214844 887.980469 Z M 367.214844 397.722656 "/></clipPath><clipPath id="f393ad1763"><path d="M 425.914062 458 L 728.015625 458 L 728.015625 759.621094 L 425.914062 759.621094 Z M 425.914062 458 "/></clipPath><clipPath id="c71c760292"><path d="M 102.070312 284.878906 L 138.808594 284.878906 L 138.808594 321.617188 L 102.070312 321.617188 Z M 102.070312 284.878906 "/></clipPath><clipPath id="785e3f8a65"><path d="M 120.4375 284.878906 C 110.292969 284.878906 102.070312 293.101562 102.070312 303.25 C 102.070312 313.394531 110.292969 321.617188 120.4375 321.617188 C 130.582031 321.617188 138.808594 313.394531 138.808594 303.25 C 138.808594 293.101562 130.582031 284.878906 120.4375 284.878906 Z M 120.4375 284.878906 "/></clipPath><clipPath id="1a3b36d655"><path d="M 444.148438 409.941406 L 480.890625 409.941406 L 480.890625 446.679688 L 444.148438 446.679688 Z M 444.148438 409.941406 "/></clipPath><clipPath id="2a3124ce70"><path d="M 462.519531 409.941406 C 452.375 409.941406 444.148438 418.164062 444.148438 428.3125 C 444.148438 438.457031 452.375 446.679688 462.519531 446.679688 C 472.664062 446.679688 480.890625 438.457031 480.890625 428.3125 C 480.890625 418.164062 472.664062 409.941406 462.519531 409.941406 Z M 462.519531 409.941406 "/></clipPath><clipPath id="54e27c5af1"><path d="M 220.628906 544.554688 L 257.367188 544.554688 L 257.367188 581.296875 L 220.628906 581.296875 Z M 220.628906 544.554688 "/></clipPath><clipPath id="33138cbc6c"><path d="M 238.996094 544.554688 C 228.851562 544.554688 220.628906 552.78125 220.628906 562.925781 C 220.628906 573.070312 228.851562 581.296875 238.996094 581.296875 C 249.140625 581.296875 257.367188 573.070312 257.367188 562.925781 C 257.367188 552.78125 249.140625 544.554688 238.996094 544.554688 Z M 238.996094 544.554688 "/></clipPath><clipPath id="5f97a76b8d"><path d="M 223.265625 913.230469 L 246 913.230469 L 246 935.71875 L 223.265625 935.71875 Z M 223.265625 913.230469 "/></clipPath><clipPath id="042626039e"><path d="M 223.265625 913.230469 L 246.355469 913.230469 L 246.355469 935.71875 L 223.265625 935.71875 Z M 223.265625 913.230469 "/></clipPath><clipPath id="ad4431f4c3"><path d="M 106 653.5625 L 128.914062 653.5625 L 128.914062 676 L 106 676 Z M 106 653.5625 "/></clipPath><clipPath id="b1219c5f44"><path d="M 105.828125 653.5625 L 128.914062 653.5625 L 128.914062 676.050781 L 105.828125 676.050781 Z M 105.828125 653.5625 "/></clipPath><clipPath id="88340d7356"><path d="M 448.40625 779 L 471.496094 779 L 471.496094 801 L 448.40625 801 Z M 448.40625 779 "/></clipPath><clipPath id="a38c4c2d82"><path d="M 448.40625 778.707031 L 471.496094 778.707031 L 471.496094 801.195312 L 448.40625 801.195312 Z M 448.40625 778.707031 "/></clipPath></defs><g id="48b626caeb"><g clip-rule="nonzero" clip-path="url(#f51b674a9a)"><path style=" stroke:none;fill-rule:nonzero;fill:#ffffff;fill-opacity:1;" d="M 0.199219 0 L 809.800781 0 L 809.800781 1012 L 0.199219 1012 Z M 0.199219 0 "/><path style=" stroke:none;fill-rule:nonzero;fill:#COLOR_PRIMARY;fill-opacity:1;" d="M 0.199219 0 L 809.800781 0 L 809.800781 1012 L 0.199219 1012 Z M 0.199219 0 "/><g mask="url(#4f0752cc07)" transform="matrix(1,0,0,1,0.000000000000000028,0)"><g clip-path="url(#5f61ab8533)"><g clip-rule="nonzero" clip-path="url(#0b8a0f4b82)"><g transform="matrix(0.3375,0,0,0.337333,-354.474816,0)"><image width="4500" xlink:href="file:///Users/erikbelt/Desktop/Mood Tracking App/AdCreator/image-generation-service/assets/3_Product_Feature_Images_HS-img2-5f5e3246.jpg" id="30b4187e29" height="3000" preserveAspectRatio="xMidYMid meet"/></g></g></g><mask id="4f0752cc07"><g filter="url(#bee06d06fd)"><rect x="0" width="810" y="0" height="1012.49997" style="fill:#000000;fill-opacity:0.55;stroke:none;"/></g></mask></g></g><g clip-rule="nonzero" clip-path="url(#19b9748211)"><g mask="url(#9bc15bd014)" transform="matrix(1,0,0,1,336,531)"><g clip-path="url(#08db867ccc)"><g clip-rule="nonzero" clip-path="url(#f1d6cedc74)"><g clip-rule="nonzero" clip-path="url(#58f276700a)"><path style=" stroke:none;fill-rule:nonzero;fill:url(#4e872b4fd6);" d="M 1.15625 0.738281 L 473.800781 0.738281 L 473.800781 481.003906 L 1.15625 481.003906 Z M 1.15625 0.738281 "/></g></g></g><mask id="9bc15bd014"><g filter="url(#bee06d06fd)"><rect x="0" width="810" y="0" height="1012.49997" style="fill:#000000;fill-opacity:0.3;stroke:none;"/></g></mask></g></g><g clip-rule="nonzero" clip-path="url(#a854184004)"><g mask="url(#7252622b87)" transform="matrix(0.239882,0,0,0.239882,69.525673,270.106595)"><image width="1347" xlink:href="file:///Users/erikbelt/Desktop/Mood Tracking App/AdCreator/image-generation-service/assets/3_Product_Feature_Images_HS-img3-513db3bf.png" height="1828" preserveAspectRatio="xMidYMid meet"/><mask id="7252622b87"><g transform="matrix(1,0,0,1,0.000000000000056843,0)"><image width="1347" xlink:href="file:///Users/erikbelt/Desktop/Mood Tracking App/AdCreator/image-generation-service/assets/3_Product_Feature_Images_HS-img4-dea9c779.png" height="1828" preserveAspectRatio="xMidYMid meet"/></g></mask></g></g><path style=" stroke:none;fill-rule:nonzero;fill:#e8e3de;fill-opacity:1;" d="M 109.339844 273.742188 L 359.464844 273.742188 C 366.347656 273.742188 372.949219 276.484375 377.816406 281.363281 C 382.679688 286.242188 385.414062 292.859375 385.414062 299.757812 L 385.414062 665.355469 C 385.414062 672.253906 382.679688 678.871094 377.816406 683.75 C 372.949219 688.628906 366.347656 691.367188 359.464844 691.367188 L 109.339844 691.367188 C 102.457031 691.367188 95.855469 688.628906 90.988281 683.75 C 86.121094 678.871094 83.386719 672.253906 83.386719 665.355469 L 83.386719 299.757812 C 83.386719 292.859375 86.121094 286.242188 90.988281 281.363281 C 95.855469 276.484375 102.457031 273.742188 109.339844 273.742188 Z M 109.339844 273.742188 "/><g clip-rule="nonzero" clip-path="url(#61d51f24e3)"><g transform="matrix(0.539258,0,0,0.539466,-153.490029,332.065526)"><image width="1438" xlink:href="PLACE_PRODUCT_IMAGE_1_HERE" height="560" preserveAspectRatio="xMidYMid meet"/></g></g><g clip-rule="nonzero" clip-path="url(#34951f0329)"><g mask="url(#f0b9f21c2a)" transform="matrix(0.239882,0,0,0.239882,176.272951,532.536981)"><image width="1393" xlink:href="file:///Users/erikbelt/Desktop/Mood Tracking App/AdCreator/image-generation-service/assets/3_Product_Feature_Images_HS-img5-1c08fa42.png" height="1878" preserveAspectRatio="xMidYMid meet"/><mask id="f0b9f21c2a"><g><image width="1393" xlink:href="file:///Users/erikbelt/Desktop/Mood Tracking App/AdCreator/image-generation-service/assets/3_Product_Feature_Images_HS-img6-a00acf3d.png" height="1878" preserveAspectRatio="xMidYMid meet"/></g></mask></g></g><path style=" stroke:none;fill-rule:nonzero;fill:#e8e3de;fill-opacity:1;" d="M 226.226562 535.386719 L 477.222656 535.386719 C 484.132812 535.386719 490.757812 538.140625 495.640625 543.039062 C 500.523438 547.9375 503.265625 554.585938 503.265625 561.511719 L 503.265625 928.671875 C 503.265625 935.601562 500.523438 942.246094 495.640625 947.144531 C 490.757812 952.042969 484.132812 954.796875 477.222656 954.796875 L 226.226562 954.796875 C 219.320312 954.796875 212.695312 952.042969 207.8125 947.144531 C 202.929688 942.246094 200.183594 935.601562 200.183594 928.671875 L 200.183594 561.511719 C 200.183594 554.585938 202.929688 547.9375 207.8125 543.039062 C 212.695312 538.140625 219.320312 535.386719 226.226562 535.386719 Z M 226.226562 535.386719 "/><path style="fill:none;stroke-width:2;stroke-linecap:butt;stroke-linejoin:miter;stroke:#5e4937;stroke-opacity:1;stroke-miterlimit:4;" d="M -0.000231881 1.001735 L 404.887143 1.001735 " transform="matrix(0.74963,0,0,0.74963,82.070486,634.073288)"/><g clip-rule="nonzero" clip-path="url(#6894961a4e)"><g transform="matrix(0.539258,0,0,0.539466,-36.098009,592.391072)"><image width="1438" xlink:href="PLACE_PRODUCT_IMAGE_3_HERE" height="560" preserveAspectRatio="xMidYMid meet"/></g></g><g clip-rule="nonzero" clip-path="url(#b658e7fbb6)"><g mask="url(#5556336f27)" transform="matrix(0.239882,0,0,0.239882,366.73888,397.483683)"><image width="1566" xlink:href="file:///Users/erikbelt/Desktop/Mood Tracking App/AdCreator/image-generation-service/assets/3_Product_Feature_Images_HS-img7-59f15dd0.png" height="2046" preserveAspectRatio="xMidYMid meet"/><mask id="5556336f27"><g transform="matrix(1,0,0,1,0.000000000000227374,0.000000000000227374)"><image width="1566" xlink:href="file:///Users/erikbelt/Desktop/Mood Tracking App/AdCreator/image-generation-service/assets/3_Product_Feature_Images_HS-img8-49629d57.png" height="2046" preserveAspectRatio="xMidYMid meet"/></g></mask></g></g><path style=" stroke:none;fill-rule:nonzero;fill:#e8e3de;fill-opacity:1;" d="M 451.804688 400.246094 L 702.171875 400.246094 C 709.0625 400.246094 715.671875 402.988281 720.542969 407.871094 C 725.410156 412.753906 728.148438 419.378906 728.148438 426.28125 L 728.148438 792.183594 C 728.148438 799.089844 725.410156 805.710938 720.542969 810.59375 C 715.671875 815.476562 709.0625 818.21875 702.171875 818.21875 L 451.804688 818.21875 C 444.914062 818.21875 438.308594 815.476562 433.4375 810.59375 C 428.566406 805.710938 425.828125 799.089844 425.828125 792.183594 L 425.828125 426.28125 C 425.828125 419.378906 428.566406 412.753906 433.4375 407.871094 C 438.308594 402.988281 444.914062 400.246094 451.804688 400.246094 Z M 451.804688 400.246094 "/><path style="fill:none;stroke-width:2;stroke-linecap:butt;stroke-linejoin:miter;stroke:#5e4937;stroke-opacity:1;stroke-miterlimit:4;" d="M 0.000271577 0.998949 L 404.887646 0.998949 " transform="matrix(0.74963,0,0,0.74963,200.226359,590.891783)"/><g clip-rule="nonzero" clip-path="url(#f393ad1763)"><g transform="matrix(0.539258,0,0,0.539466,189.0908,457.522963)"><image width="1438" xlink:href="PLACE_PRODUCT_IMAGE_2_HERE" height="560" preserveAspectRatio="xMidYMid meet"/></g></g><path style="fill:none;stroke-width:2;stroke-linecap:butt;stroke-linejoin:miter;stroke:#5e4937;stroke-opacity:1;stroke-miterlimit:4;" d="M -0.000769248 1.000145 L 404.891816 1.000145 " transform="matrix(0.74963,0,0,0.74963,82.981045,330.879168)"/><path style="fill:none;stroke-width:2;stroke-linecap:butt;stroke-linejoin:miter;stroke:#5e4937;stroke-opacity:1;stroke-miterlimit:4;" d="M 0.00190097 1.000082 L 404.889276 1.000082 " transform="matrix(0.74963,0,0,0.74963,425.322794,456.023747)"/><path style="fill:none;stroke-width:2;stroke-linecap:butt;stroke-linejoin:miter;stroke:#5e4937;stroke-opacity:1;stroke-miterlimit:4;" d="M 0.00190097 1.00157 L 404.889276 1.00157 " transform="matrix(0.74963,0,0,0.74963,425.322794,759.217943)"/><path style="fill:none;stroke-width:2;stroke-linecap:butt;stroke-linejoin:miter;stroke:#5e4937;stroke-opacity:1;stroke-miterlimit:4;" d="M 0.000271577 0.999513 L 404.887646 0.999513 " transform="matrix(0.74963,0,0,0.74963,200.226359,892.586673)"/><g clip-rule="nonzero" clip-path="url(#c71c760292)"><g clip-rule="nonzero" clip-path="url(#785e3f8a65)"><path style=" stroke:none;fill-rule:nonzero;fill:#e0cdbd;fill-opacity:1;" d="M 102.070312 284.878906 L 138.808594 284.878906 L 138.808594 321.617188 L 102.070312 321.617188 Z M 102.070312 284.878906 "/></g></g><g clip-rule="nonzero" clip-path="url(#1a3b36d655)"><g clip-rule="nonzero" clip-path="url(#2a3124ce70)"><path style=" stroke:none;fill-rule:nonzero;fill:#e0cdbd;fill-opacity:1;" d="M 444.148438 409.941406 L 480.890625 409.941406 L 480.890625 446.679688 L 444.148438 446.679688 Z M 444.148438 409.941406 "/></g></g><g clip-rule="nonzero" clip-path="url(#54e27c5af1)"><g clip-rule="nonzero" clip-path="url(#33138cbc6c)"><path style=" stroke:none;fill-rule:nonzero;fill:#e0cdbd;fill-opacity:1;" d="M 220.628906 544.554688 L 257.367188 544.554688 L 257.367188 581.296875 L 220.628906 581.296875 Z M 220.628906 544.554688 "/></g></g><g clip-rule="nonzero" clip-path="url(#5f97a76b8d)"><path style=" stroke:none;fill-rule:nonzero;fill:#b87a7a;fill-opacity:1;" d="M 234.761719 935.320312 C 234.503906 935.289062 234.257812 935.191406 234.050781 935.035156 C 229.742188 932.039062 226.714844 928.886719 225.054688 925.667969 C 224.332031 924.269531 223.882812 922.875 223.722656 921.53125 C 223.578125 920.289062 223.675781 919.113281 224.011719 918.03125 C 224.839844 915.394531 227.0625 913.621094 229.546875 913.621094 C 231.632812 913.621094 233.535156 914.875 234.8125 917.074219 C 236.085938 914.875 237.988281 913.621094 240.078125 913.621094 C 242.558594 913.621094 244.785156 915.394531 245.609375 918.03125 C 245.949219 919.113281 246.046875 920.289062 245.898438 921.53125 C 245.738281 922.875 245.292969 924.269531 244.570312 925.667969 C 242.910156 928.886719 239.882812 932.039062 235.574219 935.035156 C 235.363281 935.1875 235.117188 935.289062 234.859375 935.320312 L 234.8125 935.328125 Z M 234.761719 935.320312 "/></g><g clip-rule="nonzero" clip-path="url(#042626039e)"><path style=" stroke:none;fill-rule:nonzero;fill:#b87a7a;fill-opacity:1;" d="M 240.074219 914.011719 C 245.730469 914.011719 250.660156 924.078125 235.34375 934.714844 C 235.183594 934.835938 235 934.910156 234.8125 934.933594 C 234.621094 934.910156 234.4375 934.835938 234.277344 934.714844 C 218.960938 924.078125 223.894531 914.011719 229.546875 914.011719 C 231.398438 914.011719 233.328125 915.09375 234.648438 917.585938 C 234.679688 917.652344 234.746094 917.683594 234.8125 917.683594 C 234.875 917.683594 234.941406 917.648438 234.976562 917.585938 C 236.296875 915.09375 238.222656 914.011719 240.074219 914.011719 M 240.074219 913.230469 C 238.964844 913.230469 237.863281 913.570312 236.894531 914.210938 C 236.101562 914.738281 235.40625 915.449219 234.8125 916.335938 C 234.21875 915.449219 233.519531 914.738281 232.726562 914.210938 C 231.757812 913.570312 230.65625 913.230469 229.546875 913.230469 C 228.253906 913.230469 227.007812 913.671875 225.945312 914.503906 C 224.871094 915.347656 224.074219 916.527344 223.640625 917.914062 C 223.285156 919.050781 223.183594 920.28125 223.335938 921.574219 C 223.5 922.96875 223.960938 924.40625 224.707031 925.847656 C 225.507812 927.40625 226.644531 928.972656 228.085938 930.5 C 229.640625 932.15625 231.570312 933.785156 233.820312 935.351562 C 234.082031 935.542969 234.390625 935.667969 234.714844 935.710938 L 234.8125 935.722656 L 234.910156 935.710938 C 235.230469 935.667969 235.539062 935.542969 235.800781 935.351562 C 238.050781 933.785156 239.980469 932.15625 241.539062 930.5 C 242.976562 928.972656 244.113281 927.40625 244.917969 925.847656 C 245.660156 924.40625 246.121094 922.96875 246.285156 921.578125 C 246.4375 920.28125 246.335938 919.050781 245.980469 917.914062 C 245.546875 916.527344 244.75 915.347656 243.675781 914.503906 C 242.613281 913.671875 241.367188 913.230469 240.074219 913.230469 Z M 240.074219 913.230469 "/></g><g clip-rule="nonzero" clip-path="url(#ad4431f4c3)"><path style=" stroke:none;fill-rule:nonzero;fill:#b87a7a;fill-opacity:1;" d="M 117.324219 675.652344 C 117.066406 675.621094 116.816406 675.523438 116.609375 675.367188 C 112.300781 672.371094 109.273438 669.21875 107.613281 666 C 106.890625 664.601562 106.445312 663.207031 106.285156 661.863281 C 106.136719 660.621094 106.234375 659.445312 106.574219 658.363281 C 107.398438 655.726562 109.621094 653.953125 112.105469 653.953125 C 114.195312 653.953125 116.097656 655.207031 117.371094 657.40625 C 118.648438 655.207031 120.550781 653.953125 122.636719 653.953125 C 125.121094 653.953125 127.34375 655.726562 128.167969 658.363281 C 128.507812 659.445312 128.605469 660.621094 128.457031 661.863281 C 128.300781 663.207031 127.851562 664.601562 127.128906 666 C 125.46875 669.21875 122.441406 672.371094 118.132812 675.367188 C 117.925781 675.519531 117.679688 675.621094 117.421875 675.652344 L 117.371094 675.660156 Z M 117.324219 675.652344 "/></g><g clip-rule="nonzero" clip-path="url(#b1219c5f44)"><path style=" stroke:none;fill-rule:nonzero;fill:#b87a7a;fill-opacity:1;" d="M 122.636719 654.34375 C 128.289062 654.34375 133.21875 664.410156 117.90625 675.046875 C 117.746094 675.167969 117.5625 675.242188 117.371094 675.265625 C 117.183594 675.242188 117 675.167969 116.839844 675.046875 C 101.523438 664.410156 106.453125 654.34375 112.105469 654.34375 C 113.957031 654.34375 115.886719 655.425781 117.207031 657.917969 C 117.242188 657.984375 117.304688 658.015625 117.371094 658.015625 C 117.4375 658.015625 117.5 657.980469 117.535156 657.917969 C 118.855469 655.425781 120.785156 654.34375 122.636719 654.34375 M 122.636719 653.5625 C 121.523438 653.5625 120.425781 653.902344 119.457031 654.542969 C 118.664062 655.070312 117.964844 655.78125 117.371094 656.667969 C 116.777344 655.78125 116.078125 655.070312 115.285156 654.542969 C 114.316406 653.902344 113.21875 653.5625 112.105469 653.5625 C 110.8125 653.5625 109.570312 654.003906 108.507812 654.835938 C 107.433594 655.679688 106.632812 656.859375 106.199219 658.246094 C 105.84375 659.382812 105.742188 660.613281 105.894531 661.90625 C 106.0625 663.300781 106.523438 664.738281 107.265625 666.179688 C 108.070312 667.738281 109.207031 669.304688 110.644531 670.832031 C 112.203125 672.488281 114.132812 674.117188 116.382812 675.683594 C 116.644531 675.875 116.949219 676 117.273438 676.042969 L 117.371094 676.054688 L 117.46875 676.042969 C 117.792969 676 118.101562 675.875 118.363281 675.683594 C 120.609375 674.117188 122.539062 672.488281 124.097656 670.832031 C 125.535156 669.304688 126.671875 667.738281 127.476562 666.179688 C 128.21875 664.738281 128.679688 663.300781 128.847656 661.910156 C 129 660.613281 128.898438 659.382812 128.542969 658.246094 C 128.105469 656.859375 127.308594 655.679688 126.234375 654.835938 C 125.171875 654.003906 123.929688 653.5625 122.636719 653.5625 Z M 122.636719 653.5625 "/></g><g clip-rule="nonzero" clip-path="url(#88340d7356)"><path style=" stroke:none;fill-rule:nonzero;fill:#b87a7a;fill-opacity:1;" d="M 459.902344 800.796875 C 459.644531 800.765625 459.398438 800.667969 459.191406 800.511719 C 454.882812 797.515625 451.855469 794.363281 450.195312 791.144531 C 449.472656 789.746094 449.023438 788.351562 448.863281 787.007812 C 448.71875 785.769531 448.816406 784.589844 449.152344 783.507812 C 449.980469 780.871094 452.203125 779.097656 454.6875 779.097656 C 456.773438 779.097656 458.675781 780.351562 459.953125 782.550781 C 461.226562 780.351562 463.128906 779.097656 465.21875 779.097656 C 467.699219 779.097656 469.925781 780.871094 470.75 783.507812 C 471.089844 784.589844 471.1875 785.765625 471.039062 787.007812 C 470.878906 788.351562 470.433594 789.746094 469.710938 791.144531 C 468.050781 794.363281 465.023438 797.515625 460.714844 800.511719 C 460.507812 800.667969 460.261719 800.765625 460 800.796875 L 459.953125 800.804688 L 459.90625 800.796875 Z M 459.902344 800.796875 "/></g><g clip-rule="nonzero" clip-path="url(#a38c4c2d82)"><path style=" stroke:none;fill-rule:nonzero;fill:#b87a7a;fill-opacity:1;" d="M 465.21875 779.488281 C 470.871094 779.488281 475.800781 789.554688 460.484375 800.195312 C 460.324219 800.3125 460.140625 800.386719 459.953125 800.410156 C 459.761719 800.386719 459.578125 800.3125 459.417969 800.195312 C 444.101562 789.554688 449.035156 779.488281 454.6875 779.488281 C 456.539062 779.488281 458.46875 780.570312 459.789062 783.0625 C 459.824219 783.128906 459.886719 783.160156 459.953125 783.160156 C 460.015625 783.160156 460.082031 783.128906 460.117188 783.0625 C 461.4375 780.570312 463.367188 779.488281 465.214844 779.488281 M 465.214844 778.707031 C 464.105469 778.707031 463.003906 779.046875 462.035156 779.6875 C 461.242188 780.214844 460.546875 780.925781 459.953125 781.8125 C 459.359375 780.925781 458.660156 780.214844 457.867188 779.691406 C 456.898438 779.046875 455.800781 778.707031 454.6875 778.707031 C 453.394531 778.707031 452.148438 779.148438 451.085938 779.980469 C 450.011719 780.824219 449.214844 782.003906 448.78125 783.390625 C 448.425781 784.527344 448.324219 785.757812 448.476562 787.054688 C 448.640625 788.445312 449.101562 789.882812 449.847656 791.324219 C 450.652344 792.882812 451.785156 794.449219 453.226562 795.976562 C 454.78125 797.632812 456.710938 799.265625 458.960938 800.828125 C 459.222656 801.023438 459.53125 801.144531 459.855469 801.1875 L 459.953125 801.199219 L 460.050781 801.1875 C 460.371094 801.144531 460.679688 801.023438 460.941406 800.828125 C 463.191406 799.265625 465.121094 797.632812 466.679688 795.976562 C 468.117188 794.449219 469.253906 792.882812 470.058594 791.324219 C 470.800781 789.882812 471.261719 788.445312 471.425781 787.054688 C 471.582031 785.757812 471.476562 784.527344 471.121094 783.390625 C 470.6875 782.003906 469.890625 780.824219 468.816406 779.980469 C 467.753906 779.148438 466.507812 778.707031 465.21875 778.707031 Z M 465.214844 778.707031 "/></g></g></svg>