<svg xmlns="http://www.w3.org/2000/svg" xmlns:xlink="http://www.w3.org/1999/xlink" width="1080" zoomAndPan="magnify" viewBox="0 0 810 809.999993" height="1080" preserveAspectRatio="xMidYMid meet" version="1.2"><defs><filter x="0%" y="0%" width="100%" filterUnits="objectBoundingBox" id="fb5bccd034" height="100%"><feColorMatrix values="0 0 0 0 1 0 0 0 0 1 0 0 0 0 1 0 0 0 1 0" type="matrix" in="SourceGraphic"/></filter><clipPath id="7b0e85cedc"><rect x="0" width="810" y="0" height="810"/></clipPath><clipPath id="6fa57c1a13"><path d="M 265 74 L 810 74 L 810 810 L 265 810 Z M 265 74 "/></clipPath><clipPath id="97ab467e85"><path d="M 325.066406 74.5625 L 876.027344 118.980469 L 815.996094 863.5625 L 265.035156 819.144531 Z M 325.066406 74.5625 "/></clipPath><clipPath id="c423f96620"><path d="M 351 150 L 770 150 L 770 810 L 351 810 Z M 351 150 "/></clipPath><clipPath id="bb62095076"><path d="M 379.472656 147.203125 L 772.285156 161.84375 L 742.410156 963.433594 L 349.597656 948.792969 Z M 379.472656 147.203125 "/></clipPath><clipPath id="f965f53c99"><path d="M 716.636719 160.539062 L 435.066406 150.042969 C 404.550781 148.90625 378.859375 172.753906 377.722656 203.265625 L 352 893.417969 C 350.863281 923.933594 374.707031 949.625 405.222656 950.761719 L 686.792969 961.257812 C 717.304688 962.394531 742.996094 938.546875 744.136719 908.035156 L 769.859375 217.882812 C 770.996094 187.367188 747.148438 161.675781 716.636719 160.539062 Z M 621.964844 182.410156 C 624.738281 182.511719 626.839844 184.773438 626.734375 187.546875 C 626.632812 190.320312 624.371094 192.417969 621.597656 192.316406 C 618.824219 192.210938 616.722656 189.953125 616.828125 187.175781 C 616.929688 184.402344 619.390625 182.3125 621.964844 182.410156 Z M 548.789062 181.269531 L 596.347656 183.042969 C 598.128906 183.109375 599.664062 184.554688 599.589844 186.535156 C 599.515625 188.515625 597.878906 189.84375 596.09375 189.777344 L 548.539062 188.003906 C 546.753906 187.9375 545.222656 186.492188 545.296875 184.511719 C 545.371094 182.53125 547.007812 181.203125 548.789062 181.269531 Z M 723.804688 910.449219 C 723.132812 928.480469 707.925781 942.597656 689.894531 941.925781 L 403.964844 931.269531 C 385.933594 930.597656 371.816406 915.386719 372.488281 897.355469 L 398.410156 201.855469 C 399.082031 183.824219 414.292969 169.707031 432.324219 170.378906 L 474.925781 171.96875 L 474.59375 180.882812 C 474.21875 190.988281 482.230469 199.621094 492.335938 200 L 656.203125 206.105469 C 666.308594 206.484375 674.941406 198.472656 675.316406 188.367188 L 675.652344 179.449219 L 718.054688 181.03125 C 736.085938 181.703125 750.203125 196.910156 749.53125 214.941406 L 723.609375 910.441406 Z M 723.804688 910.449219 "/></clipPath><clipPath id="0e2a4dd381"><path d="M 372 170 L 750 170 L 750 810 L 372 810 Z M 372 170 "/></clipPath><clipPath id="5a6f75515d"><path d="M 399.457031 168.734375 L 752.351562 181.886719 L 723.960938 943.558594 L 371.070312 930.40625 Z M 399.457031 168.734375 "/></clipPath><clipPath id="f5fa67873c"><path d="M 718.054688 181.03125 L 675.652344 179.449219 L 675.316406 188.367188 C 674.941406 198.472656 666.308594 206.484375 656.203125 206.105469 L 492.53125 200.007812 C 482.425781 199.628906 474.414062 190.996094 474.792969 180.890625 L 475.125 171.976562 L 432.324219 170.378906 C 414.292969 169.707031 399.082031 183.824219 398.410156 201.855469 L 372.488281 897.355469 C 371.816406 915.386719 385.933594 930.597656 403.964844 931.269531 L 689.695312 941.917969 C 707.726562 942.589844 722.9375 928.476562 723.609375 910.441406 L 749.53125 214.941406 C 750.402344 196.917969 736.285156 181.707031 718.054688 181.03125 Z M 718.054688 181.03125 "/></clipPath><clipPath id="34b81d40e6"><path d="M 371.609375 143.710938 L 780.390625 158.945312 L 750.214844 968.523438 L 341.433594 953.285156 Z M 371.609375 143.710938 "/></clipPath><clipPath id="ecda40c0ce"><path d="M 545 181 L 600 181 L 600 190 L 545 190 Z M 545 181 "/></clipPath><clipPath id="5fb63500b2"><path d="M 544.527344 180.535156 L 600.417969 182.621094 L 600.121094 190.605469 L 544.230469 188.519531 Z M 544.527344 180.535156 "/></clipPath><clipPath id="673b11a04e"><path d="M 596.347656 183.042969 L 548.789062 181.269531 C 547.007812 181.203125 545.371094 182.53125 545.296875 184.511719 C 545.222656 186.492188 546.753906 187.9375 548.539062 188.003906 L 596.09375 189.777344 C 597.878906 189.84375 599.515625 188.515625 599.589844 186.535156 C 599.664062 184.554688 598.128906 183.109375 596.347656 183.042969 Z M 596.347656 183.042969 "/></clipPath><clipPath id="38c8e1ee89"><path d="M 616 182 L 627 182 L 627 193 L 616 193 Z M 616 182 "/></clipPath><clipPath id="b52d73b901"><path d="M 616.445312 181.617188 L 627.621094 182.035156 L 627.207031 193.210938 L 616.027344 192.796875 Z M 616.445312 181.617188 "/></clipPath><clipPath id="244d4cf7a7"><path d="M 621.964844 182.410156 C 619.230469 182.304688 616.929688 184.441406 616.828125 187.175781 C 616.726562 189.914062 618.859375 192.214844 621.597656 192.316406 C 624.332031 192.417969 626.632812 190.28125 626.734375 187.546875 C 626.835938 184.8125 624.703125 182.511719 621.964844 182.410156 Z M 621.964844 182.410156 "/></clipPath><clipPath id="d179b1c7d8"><path d="M 366 250 L 372 250 L 372 285 L 366 285 Z M 366 250 "/></clipPath><clipPath id="e3326b1e96"><path d="M 367.621094 250.695312 L 372.410156 250.875 L 371.160156 284.40625 L 366.371094 284.230469 Z M 367.621094 250.695312 "/></clipPath><clipPath id="aadae1b296"><path d="M 367.464844 254.871094 L 366.542969 279.640625 C 366.453125 282.019531 368.359375 284.074219 370.738281 284.164062 L 371.980469 250.875 C 369.601562 250.785156 367.554688 252.492188 367.464844 254.871094 Z M 367.464844 254.871094 "/></clipPath><clipPath id="83b70c24fd"><path d="M 363 308 L 370 308 L 370 369 L 363 369 Z M 363 308 "/></clipPath><clipPath id="990d2d451a"><path d="M 365.480469 308.179688 L 370.269531 308.359375 L 368.007812 369.039062 L 363.21875 368.859375 Z M 365.480469 308.179688 "/></clipPath><clipPath id="cf527cef64"><path d="M 365.300781 312.929688 L 363.382812 364.449219 C 363.292969 366.824219 365.199219 368.882812 367.578125 368.96875 L 369.816406 308.929688 C 367.4375 308.84375 365.390625 310.550781 365.300781 312.929688 Z M 365.300781 312.929688 "/></clipPath><clipPath id="2147ad88b0"><path d="M 360 382 L 368 382 L 368 443 L 360 443 Z M 360 382 "/></clipPath><clipPath id="7b1240b1d8"><path d="M 362.742188 381.632812 L 367.53125 381.8125 L 365.269531 442.492188 L 360.480469 442.3125 Z M 362.742188 381.632812 "/></clipPath><clipPath id="6470785fe1"><path d="M 362.570312 386.246094 L 360.648438 437.761719 C 360.558594 440.140625 362.46875 442.195312 364.84375 442.285156 L 367.089844 382.046875 C 364.714844 381.957031 362.65625 383.867188 362.570312 386.246094 Z M 362.570312 386.246094 "/></clipPath><clipPath id="dcfa65b0d2"><path d="M 765 343 L 774 343 L 774 441 L 765 441 Z M 765 343 "/></clipPath><clipPath id="fef0592f1e"><path d="M 768.753906 342.398438 L 773.542969 342.578125 L 769.855469 441.578125 L 765.0625 441.402344 Z M 768.753906 342.398438 "/></clipPath><clipPath id="99c7088563"><path d="M 769.140625 343.65625 L 765.542969 440.15625 C 767.921875 440.242188 769.976562 438.335938 770.0625 435.957031 L 773.335938 348.179688 C 773.425781 345.800781 771.515625 343.746094 769.140625 343.65625 Z M 769.140625 343.65625 "/></clipPath><clipPath id="503015cbcb"><path d="M 347 146 L 774 146 L 774 810 L 347 810 Z M 347 146 "/></clipPath><clipPath id="2a31c25669"><path d="M 374.800781 143.828125 L 777.195312 158.828125 L 747.019531 968.402344 L 344.628906 953.40625 Z M 374.800781 143.828125 "/></clipPath><clipPath id="f97b6236e7"><path d="M 769.140625 343.65625 L 773.820312 218.03125 C 773.976562 213.871094 773.726562 209.890625 773.074219 206.097656 C 772.753906 204.101562 772.421875 202.304688 771.902344 200.300781 C 771.214844 197.496094 770.128906 194.675781 769.035156 192.058594 C 768.308594 190.246094 767.378906 188.621094 766.445312 187 C 765.515625 185.378906 764.582031 183.753906 763.453125 182.125 C 761.757812 179.683594 760.046875 177.632812 758.148438 175.378906 C 756.8125 173.941406 755.46875 172.703125 754.128906 171.460938 C 744.140625 162.554688 731.246094 157.113281 716.980469 156.582031 L 435.214844 146.082031 C 420.949219 145.550781 407.480469 150.207031 397.0625 158.152344 C 395.632812 159.289062 394.195312 160.625 392.761719 161.761719 C 390.707031 163.667969 388.644531 165.773438 386.96875 168.09375 C 385.722656 169.636719 384.671875 171.183594 383.621094 172.730469 C 382.574219 174.28125 381.515625 176.027344 380.664062 177.582031 C 379.171875 180.304688 378.085938 182.84375 376.992188 185.582031 C 376.324219 187.539062 375.863281 189.308594 375.390625 191.273438 C 374.457031 195.011719 373.90625 199.15625 373.757812 203.121094 L 348.035156 893.269531 C 346.816406 925.964844 372.378906 953.507812 405.074219 954.726562 L 686.644531 965.21875 C 719.339844 966.4375 746.878906 940.875 748.097656 908.179688 Z M 765.175781 343.507812 L 744.128906 908.230469 C 742.992188 938.746094 717.296875 962.59375 686.785156 961.453125 L 405.214844 950.960938 C 374.699219 949.824219 350.855469 924.132812 351.992188 893.617188 L 377.714844 203.464844 C 378.859375 172.753906 404.550781 148.90625 435.066406 150.042969 L 716.636719 160.539062 C 747.148438 161.675781 770.996094 187.367188 769.859375 217.882812 Z M 765.175781 343.507812 "/></clipPath><clipPath id="f44de41395"><path d="M 162.378906 581.71875 L 213.007812 581.71875 L 213.007812 632.351562 L 162.378906 632.351562 Z M 162.378906 581.71875 "/></clipPath><clipPath id="aa53bda756"><path d="M 187.695312 581.71875 C 173.710938 581.71875 162.378906 593.054688 162.378906 607.035156 C 162.378906 621.015625 173.710938 632.351562 187.695312 632.351562 C 201.675781 632.351562 213.007812 621.015625 213.007812 607.035156 C 213.007812 593.054688 201.675781 581.71875 187.695312 581.71875 Z M 187.695312 581.71875 "/></clipPath><clipPath id="a3a0bb8169"><path d="M 162.378906 383.316406 L 213.007812 383.316406 L 213.007812 433.949219 L 162.378906 433.949219 Z M 162.378906 383.316406 "/></clipPath><clipPath id="39ce1d9192"><path d="M 187.695312 383.316406 C 173.710938 383.316406 162.378906 394.652344 162.378906 408.632812 C 162.378906 422.613281 173.710938 433.949219 187.695312 433.949219 C 201.675781 433.949219 213.007812 422.613281 213.007812 408.632812 C 213.007812 394.652344 201.675781 383.316406 187.695312 383.316406 Z M 187.695312 383.316406 "/></clipPath><clipPath id="a4fff47ce6"><path d="M 162.378906 168.257812 L 213.007812 168.257812 L 213.007812 218.886719 L 162.378906 218.886719 Z M 162.378906 168.257812 "/></clipPath><clipPath id="b54f7c1361"><path d="M 187.695312 168.257812 C 173.710938 168.257812 162.378906 179.589844 162.378906 193.570312 C 162.378906 207.554688 173.710938 218.886719 187.695312 218.886719 C 201.675781 218.886719 213.007812 207.554688 213.007812 193.570312 C 213.007812 179.589844 201.675781 168.257812 187.695312 168.257812 Z M 187.695312 168.257812 "/></clipPath><clipPath id="b0a018dcee"><path d="M 244 341 L 275 341 L 275 420 L 244 420 Z M 244 341 "/></clipPath><clipPath id="e501c72ad1"><path d="M 244.292969 419.003906 L 250.449219 339.742188 L 275.875 341.71875 L 269.714844 420.980469 Z M 244.292969 419.003906 "/></clipPath><clipPath id="2fd64cbb57"><path d="M 250.433594 339.976562 L 244.273438 419.238281 L 269.699219 421.214844 L 275.855469 341.953125 Z M 250.433594 339.976562 "/></clipPath><clipPath id="021948c2c0"><path d="M 250.433594 339.976562 L 244.273438 419.238281 L 269.699219 421.214844 L 275.855469 341.953125 Z M 250.433594 339.976562 "/></clipPath><clipPath id="d437facfba"><path d="M 110 542 L 141 542 L 141 622 L 110 622 Z M 110 542 "/></clipPath><clipPath id="f6a418e2fe"><path d="M 134.992188 540.757812 L 140.738281 620.800781 L 114.554688 622.683594 L 108.808594 542.636719 Z M 134.992188 540.757812 "/></clipPath><clipPath id="d75381f500"><path d="M 134.992188 540.757812 L 140.738281 620.800781 L 114.554688 622.683594 L 108.808594 542.636719 Z M 134.992188 540.757812 "/></clipPath><clipPath id="ac1a0f3615"><path d="M 134.992188 540.757812 L 140.738281 620.800781 L 114.554688 622.683594 L 108.808594 542.636719 Z M 134.992188 540.757812 "/></clipPath></defs><g id="0ce8386ed1"><rect x="0" width="810" y="0" height="809.999993" style="fill:#ffffff;fill-opacity:1;stroke:none;"/><rect x="0" width="810" y="0" height="809.999993" style="fill:COLOR_BRANDCOLOR;fill-opacity:1;stroke:none;"/><g mask="url(#86b1c955c4)" transform="matrix(1,0,0,1,0,0.000000000000039746)"><g clip-path="url(#7b0e85cedc)"><g transform="matrix(0.234058,0,0,0.233937,-292.669405,-14.564499)"><image width="4877" xlink:href="file:///Users/erikbelt/Desktop/Mood Tracking App/AdCreator/image-generation-service/assets/3Steps_iPhone-img1-67376574.jpg" id="fb5a67d842" height="3642" preserveAspectRatio="xMidYMid meet"/></g></g><mask id="86b1c955c4"><g filter="url(#fb5bccd034)"><rect x="0" width="810" y="0" height="809.999993" style="fill:#000000;fill-opacity:0.75;stroke:none;"/></g></mask></g><g clip-rule="nonzero" clip-path="url(#6fa57c1a13)"><g clip-rule="nonzero" clip-path="url(#97ab467e85)"><g mask="url(#ef32ca03b9)" transform="matrix(0.497844,0.0401366,-0.0401127,0.497547,271.501807,45.020874)"><image width="1386" xlink:href="file:///Users/erikbelt/Desktop/Mood Tracking App/AdCreator/image-generation-service/assets/3Steps_iPhone-img2-81a30d42.png" height="2087" preserveAspectRatio="xMidYMid meet"/><mask id="ef32ca03b9"><g transform="matrix(1,-0.000000000000000014,0,1,0,-0.000000000000007105)"><image width="1386" xlink:href="file:///Users/erikbelt/Desktop/Mood Tracking App/AdCreator/image-generation-service/assets/3Steps_iPhone-img3-ee6a7e81.png" height="2087" preserveAspectRatio="xMidYMid meet"/></g></mask></g></g></g><g clip-rule="nonzero" clip-path="url(#c423f96620)"><g clip-rule="nonzero" clip-path="url(#bb62095076)"><g clip-rule="nonzero" clip-path="url(#f965f53c99)"><path style=" stroke:none;fill-rule:nonzero;fill:#000000;fill-opacity:1;" d="M 371.609375 143.710938 L 780.390625 158.945312 L 750.214844 968.523438 L 341.433594 953.285156 Z M 371.609375 143.710938 "/></g></g></g><g clip-rule="nonzero" clip-path="url(#0e2a4dd381)"><g clip-rule="nonzero" clip-path="url(#5a6f75515d)"><g clip-rule="nonzero" clip-path="url(#f5fa67873c)"><g clip-rule="nonzero" clip-path="url(#34b81d40e6)"><g transform="matrix(1.359166,0.0506586,-0.0506945,1.360129,-401.737813,139.292701)"><image width="1438" xlink:href="PLACE_SCREENSHOT_HERE" height="560" preserveAspectRatio="xMidYMid meet"/></g></g></g></g></g><g clip-rule="nonzero" clip-path="url(#ecda40c0ce)"><g clip-rule="nonzero" clip-path="url(#5fb63500b2)"><g clip-rule="nonzero" clip-path="url(#673b11a04e)"><path style=" stroke:none;fill-rule:nonzero;fill:#555555;fill-opacity:1;" d="M 371.609375 143.710938 L 780.390625 158.945312 L 750.214844 968.523438 L 341.433594 953.285156 Z M 371.609375 143.710938 "/></g></g></g><g clip-rule="nonzero" clip-path="url(#38c8e1ee89)"><g clip-rule="nonzero" clip-path="url(#b52d73b901)"><g clip-rule="nonzero" clip-path="url(#244d4cf7a7)"><path style=" stroke:none;fill-rule:nonzero;fill:#555555;fill-opacity:1;" d="M 371.609375 143.710938 L 780.390625 158.945312 L 750.214844 968.523438 L 341.433594 953.285156 Z M 371.609375 143.710938 "/></g></g></g><g clip-rule="nonzero" clip-path="url(#d179b1c7d8)"><g clip-rule="nonzero" clip-path="url(#e3326b1e96)"><g clip-rule="nonzero" clip-path="url(#aadae1b296)"><path style=" stroke:none;fill-rule:nonzero;fill:#2e2e2e;fill-opacity:1;" d="M 371.609375 143.710938 L 780.390625 158.945312 L 750.214844 968.523438 L 341.433594 953.285156 Z M 371.609375 143.710938 "/></g></g></g><g clip-rule="nonzero" clip-path="url(#83b70c24fd)"><g clip-rule="nonzero" clip-path="url(#990d2d451a)"><g clip-rule="nonzero" clip-path="url(#cf527cef64)"><path style=" stroke:none;fill-rule:nonzero;fill:#2e2e2e;fill-opacity:1;" d="M 371.609375 143.710938 L 780.390625 158.945312 L 750.214844 968.523438 L 341.433594 953.285156 Z M 371.609375 143.710938 "/></g></g></g><g clip-rule="nonzero" clip-path="url(#2147ad88b0)"><g clip-rule="nonzero" clip-path="url(#7b1240b1d8)"><g clip-rule="nonzero" clip-path="url(#6470785fe1)"><path style=" stroke:none;fill-rule:nonzero;fill:#2e2e2e;fill-opacity:1;" d="M 371.609375 143.710938 L 780.390625 158.945312 L 750.214844 968.523438 L 341.433594 953.285156 Z M 371.609375 143.710938 "/></g></g></g><g clip-rule="nonzero" clip-path="url(#dcfa65b0d2)"><g clip-rule="nonzero" clip-path="url(#fef0592f1e)"><g clip-rule="nonzero" clip-path="url(#99c7088563)"><path style=" stroke:none;fill-rule:nonzero;fill:#2e2e2e;fill-opacity:1;" d="M 371.609375 143.710938 L 780.390625 158.945312 L 750.214844 968.523438 L 341.433594 953.285156 Z M 371.609375 143.710938 "/></g></g></g><g clip-rule="nonzero" clip-path="url(#503015cbcb)"><g clip-rule="nonzero" clip-path="url(#2a31c25669)"><g clip-rule="nonzero" clip-path="url(#f97b6236e7)"><path style=" stroke:none;fill-rule:nonzero;fill:#555555;fill-opacity:1;" d="M 371.609375 143.710938 L 780.390625 158.945312 L 750.214844 968.523438 L 341.433594 953.285156 Z M 371.609375 143.710938 "/></g></g></g><g clip-rule="nonzero" clip-path="url(#f44de41395)"><g clip-rule="nonzero" clip-path="url(#aa53bda756)"><path style=" stroke:none;fill-rule:nonzero;fill:#000000;fill-opacity:1;" d="M 162.378906 581.71875 L 213.007812 581.71875 L 213.007812 632.351562 L 162.378906 632.351562 Z M 162.378906 581.71875 "/></g></g><g clip-rule="nonzero" clip-path="url(#a3a0bb8169)"><g clip-rule="nonzero" clip-path="url(#39ce1d9192)"><path style=" stroke:none;fill-rule:nonzero;fill:#000000;fill-opacity:1;" d="M 162.378906 383.316406 L 213.007812 383.316406 L 213.007812 433.949219 L 162.378906 433.949219 Z M 162.378906 383.316406 "/></g></g><g clip-rule="nonzero" clip-path="url(#a4fff47ce6)"><g clip-rule="nonzero" clip-path="url(#b54f7c1361)"><path style=" stroke:none;fill-rule:nonzero;fill:#000000;fill-opacity:1;" d="M 162.378906 168.257812 L 213.007812 168.257812 L 213.007812 218.886719 L 162.378906 218.886719 Z M 162.378906 168.257812 "/></g></g><g clip-rule="nonzero" clip-path="url(#b0a018dcee)"><g clip-rule="nonzero" clip-path="url(#e501c72ad1)"><g clip-rule="nonzero" clip-path="url(#2fd64cbb57)"><g clip-rule="nonzero" clip-path="url(#021948c2c0)"><path style=" stroke:none;fill-rule:nonzero;fill:#000000;fill-opacity:1;" d="M 270.53125 341.800781 C 270.570312 342.09375 270.554688 342.410156 270.652344 342.671875 C 272.472656 347.511719 273.046875 352.636719 272.722656 357.820312 C 271.503906 377.394531 265.148438 394.691406 253.15625 409.363281 C 251.726562 411.113281 249.992188 412.558594 248.398438 414.144531 C 248.265625 414.042969 248.132812 413.941406 248 413.839844 C 248.199219 413.273438 248.390625 412.699219 248.601562 412.136719 C 249.230469 410.484375 249.875 408.835938 250.496094 407.179688 C 250.652344 406.753906 250.839844 406.292969 250.828125 405.855469 C 250.820312 405.527344 250.585938 405.050781 250.339844 404.929688 C 250.089844 404.8125 249.601562 404.949219 249.394531 405.175781 C 249.066406 405.539062 248.851562 406.046875 248.65625 406.527344 C 247.417969 409.554688 246.195312 412.589844 244.972656 415.625 C 244.851562 415.929688 244.734375 416.238281 244.664062 416.5625 C 244.394531 417.78125 244.617188 418.464844 245.664062 418.660156 C 248.464844 419.175781 251.285156 419.566406 254.105469 419.953125 C 254.761719 420.046875 255.289062 419.667969 255.347656 418.851562 C 255.410156 418.058594 254.972656 417.613281 254.316406 417.503906 C 252.566406 417.214844 250.804688 416.96875 248.972656 416.691406 C 249.070312 416.429688 249.085938 416.207031 249.191406 416.117188 C 255.925781 410.546875 260.753906 403.222656 264.71875 395.132812 C 269.589844 385.203125 272.800781 374.675781 274.027344 363.480469 C 274.625 357.988281 274.664062 352.492188 273.292969 347.144531 C 272.875 345.511719 272.15625 343.980469 271.542969 342.421875 C 271.417969 342.101562 271.132812 341.863281 270.921875 341.582031 C 270.792969 341.660156 270.660156 341.730469 270.53125 341.800781 Z M 270.53125 341.800781 "/></g></g></g></g><g style="fill:#ffffff;fill-opacity:1;"><g transform="translate(178.079292, 613.577101)"><path style="stroke:none" d="M 1.109375 -11.34375 C 1.160156 -12.882812 1.660156 -14.070312 2.609375 -14.90625 C 3.566406 -15.75 4.859375 -16.171875 6.484375 -16.171875 C 7.566406 -16.171875 8.492188 -15.984375 9.265625 -15.609375 C 10.046875 -15.234375 10.632812 -14.71875 11.03125 -14.0625 C 11.425781 -13.414062 11.625 -12.6875 11.625 -11.875 C 11.625 -10.925781 11.382812 -10.148438 10.90625 -9.546875 C 10.425781 -8.953125 9.867188 -8.546875 9.234375 -8.328125 L 9.234375 -8.25 C 10.054688 -7.96875 10.707031 -7.507812 11.1875 -6.875 C 11.664062 -6.238281 11.90625 -5.425781 11.90625 -4.4375 C 11.90625 -3.539062 11.695312 -2.75 11.28125 -2.0625 C 10.875 -1.375 10.273438 -0.835938 9.484375 -0.453125 C 8.703125 -0.0664062 7.769531 0.125 6.6875 0.125 C 4.957031 0.125 3.578125 -0.296875 2.546875 -1.140625 C 1.515625 -1.992188 0.96875 -3.28125 0.90625 -5 L 4.5 -5 C 4.507812 -4.363281 4.6875 -3.859375 5.03125 -3.484375 C 5.382812 -3.117188 5.894531 -2.9375 6.5625 -2.9375 C 7.125 -2.9375 7.554688 -3.097656 7.859375 -3.421875 C 8.171875 -3.753906 8.328125 -4.1875 8.328125 -4.71875 C 8.328125 -5.40625 8.109375 -5.90625 7.671875 -6.21875 C 7.234375 -6.53125 6.53125 -6.6875 5.5625 -6.6875 L 4.875 -6.6875 L 4.875 -9.6875 L 5.5625 -9.6875 C 6.300781 -9.6875 6.894531 -9.8125 7.34375 -10.0625 C 7.800781 -10.320312 8.03125 -10.773438 8.03125 -11.421875 C 8.03125 -11.941406 7.882812 -12.347656 7.59375 -12.640625 C 7.300781 -12.929688 6.90625 -13.078125 6.40625 -13.078125 C 5.851562 -13.078125 5.441406 -12.910156 5.171875 -12.578125 C 4.910156 -12.242188 4.757812 -11.832031 4.71875 -11.34375 Z M 1.109375 -11.34375 "/></g></g><g style="fill:#ffffff;fill-opacity:1;"><g transform="translate(191.174239, 613.577101)"><path style="stroke:none" d="M 3.078125 0.171875 C 2.421875 0.171875 1.882812 -0.015625 1.46875 -0.390625 C 1.0625 -0.773438 0.859375 -1.25 0.859375 -1.8125 C 0.859375 -2.394531 1.0625 -2.878906 1.46875 -3.265625 C 1.882812 -3.660156 2.421875 -3.859375 3.078125 -3.859375 C 3.710938 -3.859375 4.234375 -3.660156 4.640625 -3.265625 C 5.054688 -2.878906 5.265625 -2.394531 5.265625 -1.8125 C 5.265625 -1.25 5.054688 -0.773438 4.640625 -0.390625 C 4.234375 -0.015625 3.710938 0.171875 3.078125 0.171875 Z M 3.078125 0.171875 "/></g></g><g style="fill:#ffffff;fill-opacity:1;"><g transform="translate(181.952398, 200.759391)"><path style="stroke:none" d="M 0.828125 -13.859375 L 0.828125 -15.65625 L 4.890625 -15.65625 L 4.890625 0 L 2.90625 0 L 2.90625 -13.859375 Z M 0.828125 -13.859375 "/></g></g><g style="fill:#ffffff;fill-opacity:1;"><g transform="translate(188.878347, 200.759391)"><path style="stroke:none" d="M 2.296875 0.125 C 1.921875 0.125 1.601562 -0.00390625 1.34375 -0.265625 C 1.082031 -0.523438 0.953125 -0.84375 0.953125 -1.21875 C 0.953125 -1.59375 1.082031 -1.910156 1.34375 -2.171875 C 1.601562 -2.429688 1.921875 -2.5625 2.296875 -2.5625 C 2.660156 -2.5625 2.96875 -2.429688 3.21875 -2.171875 C 3.46875 -1.910156 3.59375 -1.59375 3.59375 -1.21875 C 3.59375 -0.84375 3.46875 -0.523438 3.21875 -0.265625 C 2.96875 -0.00390625 2.660156 0.125 2.296875 0.125 Z M 2.296875 0.125 "/></g></g><g style="fill:#ffffff;fill-opacity:1;"><g transform="translate(179.187554, 415.817162)"><path style="stroke:none" d="M 1.109375 -1.578125 C 2.941406 -3.054688 4.375 -4.265625 5.40625 -5.203125 C 6.445312 -6.148438 7.328125 -7.140625 8.046875 -8.171875 C 8.765625 -9.203125 9.125 -10.21875 9.125 -11.21875 C 9.125 -12.15625 8.894531 -12.894531 8.4375 -13.4375 C 7.976562 -13.976562 7.242188 -14.25 6.234375 -14.25 C 5.253906 -14.25 4.492188 -13.941406 3.953125 -13.328125 C 3.410156 -12.710938 3.117188 -11.894531 3.078125 -10.875 L 1.171875 -10.875 C 1.222656 -12.488281 1.710938 -13.734375 2.640625 -14.609375 C 3.566406 -15.492188 4.757812 -15.9375 6.21875 -15.9375 C 7.707031 -15.9375 8.882812 -15.523438 9.75 -14.703125 C 10.625 -13.878906 11.0625 -12.742188 11.0625 -11.296875 C 11.0625 -10.097656 10.703125 -8.929688 9.984375 -7.796875 C 9.273438 -6.671875 8.460938 -5.675781 7.546875 -4.8125 C 6.640625 -3.957031 5.484375 -2.957031 4.078125 -1.8125 L 11.515625 -1.8125 L 11.515625 -0.171875 L 1.109375 -0.171875 Z M 1.109375 -1.578125 "/></g></g><g style="fill:#ffffff;fill-opacity:1;"><g transform="translate(191.632619, 415.817162)"><path style="stroke:none" d="M 2.296875 0.125 C 1.921875 0.125 1.601562 -0.00390625 1.34375 -0.265625 C 1.082031 -0.523438 0.953125 -0.84375 0.953125 -1.21875 C 0.953125 -1.59375 1.082031 -1.910156 1.34375 -2.171875 C 1.601562 -2.429688 1.921875 -2.5625 2.296875 -2.5625 C 2.660156 -2.5625 2.96875 -2.429688 3.21875 -2.171875 C 3.46875 -1.910156 3.59375 -1.59375 3.59375 -1.21875 C 3.59375 -0.84375 3.46875 -0.523438 3.21875 -0.265625 C 2.96875 -0.00390625 2.660156 0.125 2.296875 0.125 Z M 2.296875 0.125 "/></g></g><g clip-rule="nonzero" clip-path="url(#d437facfba)"><g clip-rule="nonzero" clip-path="url(#f6a418e2fe)"><g clip-rule="nonzero" clip-path="url(#d75381f500)"><g clip-rule="nonzero" clip-path="url(#ac1a0f3615)"><path style=" stroke:none;fill-rule:nonzero;fill:#000000;fill-opacity:1;" d="M 114.289062 542.5 C 114.25 542.792969 114.261719 543.117188 114.160156 543.378906 C 112.25 548.253906 111.621094 553.429688 111.914062 558.664062 C 113.019531 578.4375 119.4375 595.933594 131.667969 610.800781 C 133.128906 612.574219 134.902344 614.039062 136.53125 615.648438 C 136.667969 615.546875 136.808594 615.449219 136.945312 615.34375 C 136.742188 614.769531 136.550781 614.191406 136.335938 613.621094 C 135.703125 611.949219 135.050781 610.28125 134.425781 608.605469 C 134.265625 608.175781 134.078125 607.710938 134.089844 607.269531 C 134.101562 606.9375 134.347656 606.457031 134.601562 606.335938 C 134.859375 606.21875 135.363281 606.359375 135.574219 606.589844 C 135.90625 606.957031 136.125 607.46875 136.324219 607.957031 C 137.574219 611.019531 138.808594 614.089844 140.042969 617.160156 C 140.167969 617.46875 140.285156 617.78125 140.355469 618.105469 C 140.625 619.339844 140.390625 620.027344 139.308594 620.21875 C 136.425781 620.730469 133.519531 621.109375 130.613281 621.492188 C 129.9375 621.578125 129.398438 621.195312 129.339844 620.371094 C 129.285156 619.570312 129.738281 619.121094 130.414062 619.015625 C 132.21875 618.730469 134.03125 618.488281 135.921875 618.21875 C 135.824219 617.953125 135.808594 617.726562 135.699219 617.636719 C 128.808594 611.980469 123.898438 604.5625 119.871094 596.375 C 114.9375 586.332031 111.707031 575.683594 110.53125 564.375 C 109.953125 558.828125 109.957031 553.277344 111.410156 547.882812 C 111.851562 546.238281 112.597656 544.695312 113.242188 543.125 C 113.375 542.800781 113.667969 542.558594 113.886719 542.277344 C 114.023438 542.355469 114.15625 542.429688 114.289062 542.5 Z M 114.289062 542.5 "/></g></g></g></g></g></svg>