<svg xmlns="http://www.w3.org/2000/svg" xmlns:xlink="http://www.w3.org/1999/xlink" width="1080" zoomAndPan="magnify" viewBox="0 0 810 1012.49997" height="1350" preserveAspectRatio="xMidYMid meet" version="1.2"><defs><clipPath id="a56b43dfe4"><path d="M 0.199219 0 L 809.800781 0 L 809.800781 1012 L 0.199219 1012 Z M 0.199219 0 "/></clipPath><clipPath id="e4a0aba331"><path d="M 268 802 L 541.605469 802 L 541.605469 855.578125 L 268 855.578125 Z M 268 802 "/></clipPath><clipPath id="89de18fa22"><path d="M 271.054688 279.222656 L 538.945312 279.222656 L 538.945312 825.894531 L 271.054688 825.894531 Z M 271.054688 279.222656 "/></clipPath><clipPath id="a2a8385210"><path d="M 501.011719 279.746094 L 308.988281 279.746094 C 288.175781 279.746094 271.285156 296.636719 271.285156 317.449219 L 271.285156 788.121094 C 271.285156 808.929688 288.175781 825.824219 308.988281 825.824219 L 501.011719 825.824219 C 521.824219 825.824219 538.714844 808.929688 538.714844 788.121094 L 538.714844 317.449219 C 538.714844 296.636719 521.824219 279.746094 501.011719 279.746094 Z M 437.09375 297.042969 C 438.984375 297.042969 440.472656 298.53125 440.472656 300.421875 C 440.472656 302.3125 438.984375 303.800781 437.09375 303.800781 C 435.203125 303.800781 433.714844 302.3125 433.714844 300.421875 C 433.714844 298.53125 435.335938 297.042969 437.09375 297.042969 Z M 387.230469 298.125 L 419.660156 298.125 C 420.878906 298.125 421.960938 299.070312 421.960938 300.421875 C 421.960938 301.773438 420.878906 302.71875 419.660156 302.71875 L 387.230469 302.71875 C 386.011719 302.71875 384.933594 301.773438 384.933594 300.421875 C 384.933594 299.070312 386.011719 298.125 387.230469 298.125 Z M 524.929688 790.28125 C 524.929688 802.578125 514.929688 812.578125 502.632812 812.578125 L 307.636719 812.578125 C 295.339844 812.578125 285.339844 802.578125 285.339844 790.28125 L 285.339844 315.960938 C 285.339844 303.664062 295.339844 293.664062 307.636719 293.664062 L 336.691406 293.664062 L 336.691406 299.746094 C 336.691406 306.636719 342.367188 312.3125 349.257812 312.3125 L 461.011719 312.3125 C 467.90625 312.3125 473.582031 306.636719 473.582031 299.746094 L 473.582031 293.664062 L 502.5 293.664062 C 514.796875 293.664062 524.796875 303.664062 524.796875 315.960938 L 524.796875 790.28125 Z M 524.929688 790.28125 "/></clipPath><clipPath id="4dd8841acc"><path d="M 285.210938 294 L 525 294 L 525 812.828125 L 285.210938 812.828125 Z M 285.210938 294 "/></clipPath><clipPath id="ae8230435a"><path d="M 502.5 293.664062 L 473.582031 293.664062 L 473.582031 299.746094 C 473.582031 306.636719 467.90625 312.3125 461.011719 312.3125 L 349.390625 312.3125 C 342.5 312.3125 336.824219 306.636719 336.824219 299.746094 L 336.824219 293.664062 L 307.636719 293.664062 C 295.339844 293.664062 285.339844 303.664062 285.339844 315.960938 L 285.339844 790.28125 C 285.339844 802.578125 295.339844 812.578125 307.636719 812.578125 L 502.5 812.578125 C 514.796875 812.578125 524.796875 802.578125 524.796875 790.28125 L 524.796875 315.960938 C 524.929688 303.664062 514.929688 293.664062 502.5 293.664062 Z M 502.5 293.664062 "/></clipPath><clipPath id="ab23b479ea"><path d="M 384.308594 298 L 422 298 L 422 303 L 384.308594 303 Z M 384.308594 298 "/></clipPath><clipPath id="188de8ccd4"><path d="M 419.660156 298.125 L 387.230469 298.125 C 386.011719 298.125 384.933594 299.070312 384.933594 300.421875 C 384.933594 301.773438 386.011719 302.71875 387.230469 302.71875 L 419.660156 302.71875 C 420.878906 302.71875 421.960938 301.773438 421.960938 300.421875 C 421.960938 299.070312 420.878906 298.125 419.660156 298.125 Z M 419.660156 298.125 "/></clipPath><clipPath id="0e2d4012f7"><path d="M 433.3125 297 L 440.9375 297 L 440.9375 304 L 433.3125 304 Z M 433.3125 297 "/></clipPath><clipPath id="3d08287644"><path d="M 437.09375 297.042969 C 435.226562 297.042969 433.714844 298.554688 433.714844 300.421875 C 433.714844 302.289062 435.226562 303.800781 437.09375 303.800781 C 438.960938 303.800781 440.472656 302.289062 440.472656 300.421875 C 440.472656 298.554688 438.960938 297.042969 437.09375 297.042969 Z M 437.09375 297.042969 "/></clipPath><clipPath id="434af161db"><path d="M 265.609375 350.007812 L 268.875 350.007812 L 268.875 372.875 L 265.609375 372.875 Z M 265.609375 350.007812 "/></clipPath><clipPath id="ea4c1139ac"><path d="M 265.609375 352.855469 L 265.609375 369.746094 C 265.609375 371.367188 266.960938 372.71875 268.582031 372.71875 L 268.582031 350.015625 C 266.960938 350.015625 265.609375 351.234375 265.609375 352.855469 Z M 265.609375 352.855469 "/></clipPath><clipPath id="087c6a7373"><path d="M 265.609375 389.210938 L 268.875 389.210938 L 268.875 430.589844 L 265.609375 430.589844 Z M 265.609375 389.210938 "/></clipPath><clipPath id="8403ad0b0f"><path d="M 265.609375 392.449219 L 265.609375 427.582031 C 265.609375 429.203125 266.960938 430.554688 268.582031 430.554688 L 268.582031 389.609375 C 266.960938 389.609375 265.609375 390.828125 265.609375 392.449219 Z M 265.609375 392.449219 "/></clipPath><clipPath id="c3357b8910"><path d="M 265.609375 439.304688 L 268.875 439.304688 L 268.875 480.683594 L 265.609375 480.683594 Z M 265.609375 439.304688 "/></clipPath><clipPath id="d18617c0ec"><path d="M 265.609375 442.449219 L 265.609375 477.582031 C 265.609375 479.203125 266.960938 480.554688 268.582031 480.554688 L 268.582031 439.476562 C 266.960938 439.476562 265.609375 440.828125 265.609375 442.449219 Z M 265.609375 442.449219 "/></clipPath><clipPath id="db55e8433b"><path d="M 541.125 403 L 544.390625 403 L 544.390625 469 L 541.125 469 Z M 541.125 403 "/></clipPath><clipPath id="720e591e7a"><path d="M 541.417969 403.125 L 541.417969 468.933594 C 543.039062 468.933594 544.390625 467.582031 544.390625 465.960938 L 544.390625 406.097656 C 544.390625 404.476562 543.039062 403.125 541.417969 403.125 Z M 541.417969 403.125 "/></clipPath><clipPath id="5ef6fd0560"><path d="M 268 277.042969 L 542 277.042969 L 542 829 L 268 829 Z M 268 277.042969 "/></clipPath><clipPath id="f1e2b704c6"><path d="M 541.417969 403.125 L 541.417969 317.449219 C 541.417969 314.609375 541.148438 311.910156 540.605469 309.339844 C 540.335938 307.988281 540.066406 306.773438 539.660156 305.421875 C 539.121094 303.53125 538.308594 301.636719 537.5 299.882812 C 536.957031 298.664062 536.28125 297.585938 535.605469 296.503906 C 534.929688 295.421875 534.253906 294.339844 533.445312 293.261719 C 532.230469 291.636719 531.011719 290.285156 529.660156 288.800781 C 528.714844 287.855469 527.769531 287.042969 526.824219 286.234375 C 519.796875 280.421875 510.878906 277.042969 501.148438 277.042969 L 308.988281 277.042969 C 299.257812 277.042969 290.203125 280.558594 283.3125 286.234375 C 282.367188 287.042969 281.421875 287.988281 280.472656 288.800781 C 279.121094 290.152344 277.769531 291.636719 276.691406 293.261719 C 275.878906 294.339844 275.203125 295.421875 274.527344 296.503906 C 273.851562 297.585938 273.175781 298.800781 272.636719 299.882812 C 271.691406 301.773438 271.015625 303.53125 270.339844 305.421875 C 269.933594 306.773438 269.664062 307.988281 269.394531 309.339844 C 268.851562 311.910156 268.582031 314.746094 268.582031 317.449219 L 268.582031 788.121094 C 268.582031 810.417969 286.691406 828.527344 308.988281 828.527344 L 501.011719 828.527344 C 523.308594 828.527344 541.417969 810.417969 541.417969 788.121094 Z M 538.714844 403.125 L 538.714844 788.253906 C 538.714844 809.066406 521.824219 825.957031 501.011719 825.957031 L 308.988281 825.957031 C 288.175781 825.957031 271.285156 809.066406 271.285156 788.253906 L 271.285156 317.585938 C 271.285156 296.636719 288.175781 279.746094 308.988281 279.746094 L 501.011719 279.746094 C 521.824219 279.746094 538.714844 296.636719 538.714844 317.449219 Z M 538.714844 403.125 "/></clipPath><clipPath id="8af8b06375"><path d="M 577 802 L 809.800781 802 L 809.800781 855.578125 L 577 855.578125 Z M 577 802 "/></clipPath><clipPath id="2026903417"><path d="M 582.070312 279.222656 L 809.800781 279.222656 L 809.800781 825.894531 L 582.070312 825.894531 Z M 582.070312 279.222656 "/></clipPath><clipPath id="9b98bcadda"><path d="M 812.027344 279.746094 L 620.003906 279.746094 C 599.191406 279.746094 582.300781 296.636719 582.300781 317.449219 L 582.300781 788.121094 C 582.300781 808.929688 599.191406 825.824219 620.003906 825.824219 L 812.027344 825.824219 C 832.839844 825.824219 849.730469 808.929688 849.730469 788.121094 L 849.730469 317.449219 C 849.730469 296.636719 832.839844 279.746094 812.027344 279.746094 Z M 748.109375 297.042969 C 750 297.042969 751.488281 298.53125 751.488281 300.421875 C 751.488281 302.3125 750 303.800781 748.109375 303.800781 C 746.21875 303.800781 744.730469 302.3125 744.730469 300.421875 C 744.730469 298.53125 746.351562 297.042969 748.109375 297.042969 Z M 698.246094 298.125 L 730.675781 298.125 C 731.894531 298.125 732.976562 299.070312 732.976562 300.421875 C 732.976562 301.773438 731.894531 302.71875 730.675781 302.71875 L 698.246094 302.71875 C 697.027344 302.71875 695.949219 301.773438 695.949219 300.421875 C 695.949219 299.070312 697.027344 298.125 698.246094 298.125 Z M 835.945312 790.28125 C 835.945312 802.578125 825.945312 812.578125 813.648438 812.578125 L 618.652344 812.578125 C 606.355469 812.578125 596.355469 802.578125 596.355469 790.28125 L 596.355469 315.960938 C 596.355469 303.664062 606.355469 293.664062 618.652344 293.664062 L 647.707031 293.664062 L 647.707031 299.746094 C 647.707031 306.636719 653.378906 312.3125 660.273438 312.3125 L 772.027344 312.3125 C 778.921875 312.3125 784.597656 306.636719 784.597656 299.746094 L 784.597656 293.664062 L 813.515625 293.664062 C 825.8125 293.664062 835.8125 303.664062 835.8125 315.960938 L 835.8125 790.28125 Z M 835.945312 790.28125 "/></clipPath><clipPath id="a5aa3272ab"><path d="M 596.226562 294 L 809.800781 294 L 809.800781 812.828125 L 596.226562 812.828125 Z M 596.226562 294 "/></clipPath><clipPath id="2e05970680"><path d="M 813.515625 293.664062 L 784.597656 293.664062 L 784.597656 299.746094 C 784.597656 306.636719 778.921875 312.3125 772.027344 312.3125 L 660.40625 312.3125 C 653.515625 312.3125 647.839844 306.636719 647.839844 299.746094 L 647.839844 293.664062 L 618.652344 293.664062 C 606.355469 293.664062 596.355469 303.664062 596.355469 315.960938 L 596.355469 790.28125 C 596.355469 802.578125 606.355469 812.578125 618.652344 812.578125 L 813.515625 812.578125 C 825.8125 812.578125 835.8125 802.578125 835.8125 790.28125 L 835.8125 315.960938 C 835.945312 303.664062 825.945312 293.664062 813.515625 293.664062 Z M 813.515625 293.664062 "/></clipPath><clipPath id="41f23bfce0"><path d="M 695.324219 298 L 733 298 L 733 303 L 695.324219 303 Z M 695.324219 298 "/></clipPath><clipPath id="4778b7717f"><path d="M 730.675781 298.125 L 698.246094 298.125 C 697.027344 298.125 695.949219 299.070312 695.949219 300.421875 C 695.949219 301.773438 697.027344 302.71875 698.246094 302.71875 L 730.675781 302.71875 C 731.894531 302.71875 732.976562 301.773438 732.976562 300.421875 C 732.976562 299.070312 731.894531 298.125 730.675781 298.125 Z M 730.675781 298.125 "/></clipPath><clipPath id="100b1252d9"><path d="M 744.328125 297 L 751.953125 297 L 751.953125 304 L 744.328125 304 Z M 744.328125 297 "/></clipPath><clipPath id="855026a8ed"><path d="M 748.109375 297.042969 C 746.242188 297.042969 744.730469 298.554688 744.730469 300.421875 C 744.730469 302.289062 746.242188 303.800781 748.109375 303.800781 C 749.976562 303.800781 751.488281 302.289062 751.488281 300.421875 C 751.488281 298.554688 749.976562 297.042969 748.109375 297.042969 Z M 748.109375 297.042969 "/></clipPath><clipPath id="dcef33cd98"><path d="M 576.625 350.007812 L 579.890625 350.007812 L 579.890625 372.875 L 576.625 372.875 Z M 576.625 350.007812 "/></clipPath><clipPath id="223ade6329"><path d="M 576.625 352.855469 L 576.625 369.746094 C 576.625 371.367188 577.976562 372.71875 579.597656 372.71875 L 579.597656 350.015625 C 577.976562 350.015625 576.625 351.234375 576.625 352.855469 Z M 576.625 352.855469 "/></clipPath><clipPath id="1bc1d8329a"><path d="M 576.625 389.210938 L 579.890625 389.210938 L 579.890625 430.589844 L 576.625 430.589844 Z M 576.625 389.210938 "/></clipPath><clipPath id="e54e020e20"><path d="M 576.625 392.449219 L 576.625 427.582031 C 576.625 429.203125 577.976562 430.554688 579.597656 430.554688 L 579.597656 389.609375 C 577.976562 389.609375 576.625 390.828125 576.625 392.449219 Z M 576.625 392.449219 "/></clipPath><clipPath id="d984c6c966"><path d="M 576.625 439.304688 L 579.890625 439.304688 L 579.890625 480.683594 L 576.625 480.683594 Z M 576.625 439.304688 "/></clipPath><clipPath id="8086871f9f"><path d="M 576.625 442.449219 L 576.625 477.582031 C 576.625 479.203125 577.976562 480.554688 579.597656 480.554688 L 579.597656 439.476562 C 577.976562 439.476562 576.625 440.828125 576.625 442.449219 Z M 576.625 442.449219 "/></clipPath><clipPath id="f2ed9e2cae"><path d="M 579 277.042969 L 809.800781 277.042969 L 809.800781 829 L 579 829 Z M 579 277.042969 "/></clipPath><clipPath id="4bd690f128"><path d="M 852.433594 403.125 L 852.433594 317.449219 C 852.433594 314.609375 852.164062 311.910156 851.621094 309.339844 C 851.351562 307.988281 851.082031 306.773438 850.675781 305.421875 C 850.136719 303.53125 849.324219 301.636719 848.515625 299.882812 C 847.972656 298.664062 847.296875 297.585938 846.621094 296.503906 C 845.945312 295.421875 845.269531 294.339844 844.460938 293.261719 C 843.242188 291.636719 842.027344 290.285156 840.675781 288.800781 C 839.730469 287.855469 838.785156 287.042969 837.839844 286.234375 C 830.8125 280.421875 821.894531 277.042969 812.164062 277.042969 L 620.003906 277.042969 C 610.273438 277.042969 601.21875 280.558594 594.328125 286.234375 C 593.382812 287.042969 592.433594 287.988281 591.488281 288.800781 C 590.136719 290.152344 588.785156 291.636719 587.707031 293.261719 C 586.894531 294.339844 586.21875 295.421875 585.542969 296.503906 C 584.867188 297.585938 584.191406 298.800781 583.652344 299.882812 C 582.707031 301.773438 582.03125 303.53125 581.355469 305.421875 C 580.949219 306.773438 580.679688 307.988281 580.410156 309.339844 C 579.867188 311.910156 579.597656 314.746094 579.597656 317.449219 L 579.597656 788.121094 C 579.597656 810.417969 597.707031 828.527344 620.003906 828.527344 L 812.027344 828.527344 C 834.324219 828.527344 852.433594 810.417969 852.433594 788.121094 Z M 849.730469 403.125 L 849.730469 788.253906 C 849.730469 809.066406 832.839844 825.957031 812.027344 825.957031 L 620.003906 825.957031 C 599.191406 825.957031 582.300781 809.066406 582.300781 788.253906 L 582.300781 317.585938 C 582.300781 296.636719 599.191406 279.746094 620.003906 279.746094 L 812.027344 279.746094 C 832.839844 279.746094 849.730469 296.636719 849.730469 317.449219 Z M 849.730469 403.125 "/></clipPath><clipPath id="b820c4de21"><path d="M 0.199219 802 L 232.917969 802 L 232.917969 855.578125 L 0.199219 855.578125 Z M 0.199219 802 "/></clipPath><clipPath id="fddbd3ec6b"><path d="M 283.449219 0 L 526.328125 0 L 526.328125 110.898438 L 283.449219 110.898438 Z M 283.449219 0 "/></clipPath><clipPath id="e55dcc8805"><path d="M 0.199219 279.222656 L 225.679688 279.222656 L 225.679688 825.894531 L 0.199219 825.894531 Z M 0.199219 279.222656 "/></clipPath><clipPath id="0caa6a03cf"><path d="M 187.75 279.746094 L -4.277344 279.746094 C -25.085938 279.746094 -41.980469 296.636719 -41.980469 317.449219 L -41.980469 788.121094 C -41.980469 808.929688 -25.085938 825.824219 -4.277344 825.824219 L 187.75 825.824219 C 208.558594 825.824219 225.449219 808.929688 225.449219 788.121094 L 225.449219 317.449219 C 225.449219 296.636719 208.558594 279.746094 187.75 279.746094 Z M 123.828125 297.042969 C 125.722656 297.042969 127.207031 298.53125 127.207031 300.421875 C 127.207031 302.3125 125.722656 303.800781 123.828125 303.800781 C 121.9375 303.800781 120.453125 302.3125 120.453125 300.421875 C 120.453125 298.53125 122.074219 297.042969 123.828125 297.042969 Z M 73.964844 298.125 L 106.398438 298.125 C 107.613281 298.125 108.695312 299.070312 108.695312 300.421875 C 108.695312 301.773438 107.613281 302.71875 106.398438 302.71875 L 73.964844 302.71875 C 72.75 302.71875 71.667969 301.773438 71.667969 300.421875 C 71.667969 299.070312 72.75 298.125 73.964844 298.125 Z M 211.667969 790.28125 C 211.667969 802.578125 201.667969 812.578125 189.371094 812.578125 L -5.628906 812.578125 C -17.925781 812.578125 -27.925781 802.578125 -27.925781 790.28125 L -27.925781 315.960938 C -27.925781 303.664062 -17.925781 293.664062 -5.628906 293.664062 L 23.425781 293.664062 L 23.425781 299.746094 C 23.425781 306.636719 29.101562 312.3125 35.992188 312.3125 L 147.75 312.3125 C 154.640625 312.3125 160.316406 306.636719 160.316406 299.746094 L 160.316406 293.664062 L 189.234375 293.664062 C 201.53125 293.664062 211.53125 303.664062 211.53125 315.960938 L 211.53125 790.28125 Z M 211.667969 790.28125 "/></clipPath><clipPath id="9d9773aed8"><path d="M 0.199219 294 L 212 294 L 212 812.828125 L 0.199219 812.828125 Z M 0.199219 294 "/></clipPath><clipPath id="b9e4c98793"><path d="M 189.234375 293.664062 L 160.316406 293.664062 L 160.316406 299.746094 C 160.316406 306.636719 154.640625 312.3125 147.75 312.3125 L 36.128906 312.3125 C 29.234375 312.3125 23.5625 306.636719 23.5625 299.746094 L 23.5625 293.664062 L -5.628906 293.664062 C -17.925781 293.664062 -27.925781 303.664062 -27.925781 315.960938 L -27.925781 790.28125 C -27.925781 802.578125 -17.925781 812.578125 -5.628906 812.578125 L 189.234375 812.578125 C 201.53125 812.578125 211.53125 802.578125 211.53125 790.28125 L 211.53125 315.960938 C 211.667969 303.664062 201.667969 293.664062 189.234375 293.664062 Z M 189.234375 293.664062 "/></clipPath><clipPath id="3e7c177d5d"><path d="M 71.042969 298 L 109 298 L 109 303 L 71.042969 303 Z M 71.042969 298 "/></clipPath><clipPath id="a7cd387abb"><path d="M 106.398438 298.125 L 73.964844 298.125 C 72.75 298.125 71.667969 299.070312 71.667969 300.421875 C 71.667969 301.773438 72.75 302.71875 73.964844 302.71875 L 106.398438 302.71875 C 107.613281 302.71875 108.695312 301.773438 108.695312 300.421875 C 108.695312 299.070312 107.613281 298.125 106.398438 298.125 Z M 106.398438 298.125 "/></clipPath><clipPath id="a9f27b7cbf"><path d="M 120.050781 297 L 127.671875 297 L 127.671875 304 L 120.050781 304 Z M 120.050781 297 "/></clipPath><clipPath id="8be7929491"><path d="M 123.828125 297.042969 C 121.964844 297.042969 120.453125 298.554688 120.453125 300.421875 C 120.453125 302.289062 121.964844 303.800781 123.828125 303.800781 C 125.695312 303.800781 127.207031 302.289062 127.207031 300.421875 C 127.207031 298.554688 125.695312 297.042969 123.828125 297.042969 Z M 123.828125 297.042969 "/></clipPath><clipPath id="b660085d4a"><path d="M 228 403 L 231.125 403 L 231.125 469 L 228 469 Z M 228 403 "/></clipPath><clipPath id="589cbbebb6"><path d="M 228.152344 403.125 L 228.152344 468.933594 C 229.773438 468.933594 231.125 467.582031 231.125 465.960938 L 231.125 406.097656 C 231.125 404.476562 229.773438 403.125 228.152344 403.125 Z M 228.152344 403.125 "/></clipPath><clipPath id="4c227dda57"><path d="M 0.199219 277.042969 L 228.949219 277.042969 L 228.949219 829 L 0.199219 829 Z M 0.199219 277.042969 "/></clipPath><clipPath id="677e6e41aa"><path d="M 228.152344 403.125 L 228.152344 317.449219 C 228.152344 314.609375 227.882812 311.910156 227.34375 309.339844 C 227.074219 307.988281 226.800781 306.773438 226.398438 305.421875 C 225.855469 303.53125 225.046875 301.636719 224.234375 299.882812 C 223.695312 298.664062 223.019531 297.585938 222.34375 296.503906 C 221.667969 295.421875 220.992188 294.339844 220.179688 293.261719 C 218.964844 291.636719 217.75 290.285156 216.398438 288.800781 C 215.449219 287.855469 214.503906 287.042969 213.558594 286.234375 C 206.53125 280.421875 197.613281 277.042969 187.882812 277.042969 L -4.277344 277.042969 C -14.007812 277.042969 -23.0625 280.558594 -29.953125 286.234375 C -30.898438 287.042969 -31.84375 287.988281 -32.789062 288.800781 C -34.140625 290.152344 -35.492188 291.636719 -36.574219 293.261719 C -37.386719 294.339844 -38.058594 295.421875 -38.734375 296.503906 C -39.410156 297.585938 -40.085938 298.800781 -40.628906 299.882812 C -41.574219 301.773438 -42.25 303.53125 -42.925781 305.421875 C -43.332031 306.773438 -43.601562 307.988281 -43.871094 309.339844 C -44.410156 311.910156 -44.683594 314.746094 -44.683594 317.449219 L -44.683594 788.121094 C -44.683594 810.417969 -26.574219 828.527344 -4.277344 828.527344 L 187.75 828.527344 C 210.046875 828.527344 228.152344 810.417969 228.152344 788.121094 Z M 225.449219 403.125 L 225.449219 788.253906 C 225.449219 809.066406 208.558594 825.957031 187.75 825.957031 L -4.277344 825.957031 C -25.085938 825.957031 -41.980469 809.066406 -41.980469 788.253906 L -41.980469 317.585938 C -41.980469 296.636719 -25.085938 279.746094 -4.277344 279.746094 L 187.75 279.746094 C 208.558594 279.746094 225.449219 296.636719 225.449219 317.449219 Z M 225.449219 403.125 "/></clipPath></defs><g id="78376a45f6"><g clip-rule="nonzero" clip-path="url(#a56b43dfe4)"><path style=" stroke:none;fill-rule:nonzero;fill:#ffffff;fill-opacity:1;" d="M 0.199219 0 L 809.800781 0 L 809.800781 1012 L 0.199219 1012 Z M 0.199219 0 "/><path style=" stroke:none;fill-rule:nonzero;fill:#COLOR_BRANDCOLOR;fill-opacity:1;" d="M 0.199219 0 L 809.800781 0 L 809.800781 1012 L 0.199219 1012 Z M 0.199219 0 "/></g><g clip-rule="nonzero" clip-path="url(#e4a0aba331)"><g mask="url(#b9715ba836)" transform="matrix(0.168794,0,0,0.168141,267.991383,801.606213)"><image width="1621" xlink:href="file:///Users/erikbelt/Desktop/Mood Tracking App/AdCreator/image-generation-service/assets/3xiPhone_H-img1-d797531f.png" height="321" preserveAspectRatio="xMidYMid meet"/><mask id="b9715ba836"><g><image width="1621" xlink:href="file:///Users/erikbelt/Desktop/Mood Tracking App/AdCreator/image-generation-service/assets/3xiPhone_H-img2-563a2eec.png" height="321" preserveAspectRatio="xMidYMid meet"/></g></mask></g></g><g clip-rule="nonzero" clip-path="url(#89de18fa22)"><g clip-rule="nonzero" clip-path="url(#a2a8385210)"><path style=" stroke:none;fill-rule:nonzero;fill:#000000;fill-opacity:1;" d="M 265.609375 277.042969 L 544.390625 277.042969 L 544.390625 829.160156 L 265.609375 829.160156 Z M 265.609375 277.042969 "/></g></g><g clip-rule="nonzero" clip-path="url(#4dd8841acc)"><g clip-rule="nonzero" clip-path="url(#ae8230435a)"><g transform="matrix(0.926929,0,0,0.927586,-261.180845,293.665407)"><image width="1438" xlink:href="PLACE_SCREENSHOT_1_HERE" height="560" preserveAspectRatio="xMidYMid meet"/></g></g></g><g clip-rule="nonzero" clip-path="url(#ab23b479ea)"><g clip-rule="nonzero" clip-path="url(#188de8ccd4)"><path style=" stroke:none;fill-rule:nonzero;fill:#606060;fill-opacity:1;" d="M 265.609375 277.042969 L 544.390625 277.042969 L 544.390625 829.160156 L 265.609375 829.160156 Z M 265.609375 277.042969 "/></g></g><g clip-rule="nonzero" clip-path="url(#0e2d4012f7)"><g clip-rule="nonzero" clip-path="url(#3d08287644)"><path style=" stroke:none;fill-rule:nonzero;fill:#606060;fill-opacity:1;" d="M 265.609375 277.042969 L 544.390625 277.042969 L 544.390625 829.160156 L 265.609375 829.160156 Z M 265.609375 277.042969 "/></g></g><g clip-rule="nonzero" clip-path="url(#434af161db)"><g clip-rule="nonzero" clip-path="url(#ea4c1139ac)"><path style=" stroke:none;fill-rule:nonzero;fill:#b8b8b8;fill-opacity:1;" d="M 265.609375 277.042969 L 544.390625 277.042969 L 544.390625 829.160156 L 265.609375 829.160156 Z M 265.609375 277.042969 "/></g></g><g clip-rule="nonzero" clip-path="url(#087c6a7373)"><g clip-rule="nonzero" clip-path="url(#8403ad0b0f)"><path style=" stroke:none;fill-rule:nonzero;fill:#b8b8b8;fill-opacity:1;" d="M 265.609375 277.042969 L 544.390625 277.042969 L 544.390625 829.160156 L 265.609375 829.160156 Z M 265.609375 277.042969 "/></g></g><g clip-rule="nonzero" clip-path="url(#c3357b8910)"><g clip-rule="nonzero" clip-path="url(#d18617c0ec)"><path style=" stroke:none;fill-rule:nonzero;fill:#b8b8b8;fill-opacity:1;" d="M 265.609375 277.042969 L 544.390625 277.042969 L 544.390625 829.160156 L 265.609375 829.160156 Z M 265.609375 277.042969 "/></g></g><g clip-rule="nonzero" clip-path="url(#db55e8433b)"><g clip-rule="nonzero" clip-path="url(#720e591e7a)"><path style=" stroke:none;fill-rule:nonzero;fill:#b8b8b8;fill-opacity:1;" d="M 265.609375 277.042969 L 544.390625 277.042969 L 544.390625 829.160156 L 265.609375 829.160156 Z M 265.609375 277.042969 "/></g></g><g clip-rule="nonzero" clip-path="url(#5ef6fd0560)"><g clip-rule="nonzero" clip-path="url(#f1e2b704c6)"><path style=" stroke:none;fill-rule:nonzero;fill:#e9e9e9;fill-opacity:1;" d="M 265.609375 277.042969 L 544.390625 277.042969 L 544.390625 829.160156 L 265.609375 829.160156 Z M 265.609375 277.042969 "/></g></g><g clip-rule="nonzero" clip-path="url(#8af8b06375)"><g mask="url(#6cc280aeaf)" transform="matrix(0.168794,0,0,0.168141,576.727447,801.606213)"><image width="1621" xlink:href="file:///Users/erikbelt/Desktop/Mood Tracking App/AdCreator/image-generation-service/assets/3xiPhone_H-img3-d797531f.png" height="321" preserveAspectRatio="xMidYMid meet"/><mask id="6cc280aeaf"><g transform="matrix(1,0,0,1,-0.000000000000454747,0)"><image width="1621" xlink:href="file:///Users/erikbelt/Desktop/Mood Tracking App/AdCreator/image-generation-service/assets/3xiPhone_H-img4-563a2eec.png" height="321" preserveAspectRatio="xMidYMid meet"/></g></mask></g></g><g clip-rule="nonzero" clip-path="url(#2026903417)"><g clip-rule="nonzero" clip-path="url(#9b98bcadda)"><path style=" stroke:none;fill-rule:nonzero;fill:#000000;fill-opacity:1;" d="M 576.625 277.042969 L 855.40625 277.042969 L 855.40625 829.160156 L 576.625 829.160156 Z M 576.625 277.042969 "/></g></g><g clip-rule="nonzero" clip-path="url(#a5aa3272ab)"><g clip-rule="nonzero" clip-path="url(#2e05970680)"><g transform="matrix(0.926929,0,0,0.927586,49.834598,293.665407)"><image width="1438" xlink:href="PLACE_SCREENSHOT_3_HERE" height="560" preserveAspectRatio="xMidYMid meet"/></g></g></g><g clip-rule="nonzero" clip-path="url(#41f23bfce0)"><g clip-rule="nonzero" clip-path="url(#4778b7717f)"><path style=" stroke:none;fill-rule:nonzero;fill:#606060;fill-opacity:1;" d="M 576.625 277.042969 L 855.40625 277.042969 L 855.40625 829.160156 L 576.625 829.160156 Z M 576.625 277.042969 "/></g></g><g clip-rule="nonzero" clip-path="url(#100b1252d9)"><g clip-rule="nonzero" clip-path="url(#855026a8ed)"><path style=" stroke:none;fill-rule:nonzero;fill:#606060;fill-opacity:1;" d="M 576.625 277.042969 L 855.40625 277.042969 L 855.40625 829.160156 L 576.625 829.160156 Z M 576.625 277.042969 "/></g></g><g clip-rule="nonzero" clip-path="url(#dcef33cd98)"><g clip-rule="nonzero" clip-path="url(#223ade6329)"><path style=" stroke:none;fill-rule:nonzero;fill:#b8b8b8;fill-opacity:1;" d="M 576.625 277.042969 L 855.40625 277.042969 L 855.40625 829.160156 L 576.625 829.160156 Z M 576.625 277.042969 "/></g></g><g clip-rule="nonzero" clip-path="url(#1bc1d8329a)"><g clip-rule="nonzero" clip-path="url(#e54e020e20)"><path style=" stroke:none;fill-rule:nonzero;fill:#b8b8b8;fill-opacity:1;" d="M 576.625 277.042969 L 855.40625 277.042969 L 855.40625 829.160156 L 576.625 829.160156 Z M 576.625 277.042969 "/></g></g><g clip-rule="nonzero" clip-path="url(#d984c6c966)"><g clip-rule="nonzero" clip-path="url(#8086871f9f)"><path style=" stroke:none;fill-rule:nonzero;fill:#b8b8b8;fill-opacity:1;" d="M 576.625 277.042969 L 855.40625 277.042969 L 855.40625 829.160156 L 576.625 829.160156 Z M 576.625 277.042969 "/></g></g><g clip-rule="nonzero" clip-path="url(#f2ed9e2cae)"><g clip-rule="nonzero" clip-path="url(#4bd690f128)"><path style=" stroke:none;fill-rule:nonzero;fill:#e9e9e9;fill-opacity:1;" d="M 576.625 277.042969 L 855.40625 277.042969 L 855.40625 829.160156 L 576.625 829.160156 Z M 576.625 277.042969 "/></g></g><g clip-rule="nonzero" clip-path="url(#b820c4de21)"><g mask="url(#4e6425043a)" transform="matrix(0.168794,0,0,0.168141,-40.697178,801.606213)"><image width="1621" xlink:href="file:///Users/erikbelt/Desktop/Mood Tracking App/AdCreator/image-generation-service/assets/3xiPhone_H-img5-d797531f.png" height="321" preserveAspectRatio="xMidYMid meet"/><mask id="4e6425043a"><g><image width="1621" xlink:href="file:///Users/erikbelt/Desktop/Mood Tracking App/AdCreator/image-generation-service/assets/3xiPhone_H-img6-563a2eec.png" height="321" preserveAspectRatio="xMidYMid meet"/></g></mask></g></g><g clip-rule="nonzero" clip-path="url(#fddbd3ec6b)"><path style=" stroke:none;fill-rule:nonzero;fill:#6c5346;fill-opacity:1;" d="M 452.46875 110.554688 C 452.714844 109.777344 452.292969 109.203125 452.046875 108.617188 C 449.441406 102.398438 446.207031 96.484375 443.246094 90.441406 C 438.265625 80.277344 433.113281 70.207031 428.890625 59.679688 C 426.386719 53.4375 423.589844 47.304688 421.027344 41.078125 C 420.828125 40.589844 420.652344 39.621094 420.054688 39.894531 C 419.324219 40.226562 420.015625 40.976562 420.226562 41.492188 C 423.414062 49.246094 426.5625 57.015625 429.84375 64.730469 C 433.179688 72.566406 437.191406 80.082031 440.921875 87.726562 C 444.492188 95.042969 448.121094 102.328125 451.730469 109.625 C 451.886719 109.945312 451.953125 110.339844 452.46875 110.554688 Z M 360.605469 109.863281 C 361.210938 107.804688 361.804688 105.746094 362.632812 103.761719 C 365.5625 96.75 368.8125 89.851562 371.171875 82.640625 C 375.917969 68.152344 382.054688 54.191406 387.136719 39.835938 C 387.289062 39.398438 387.324219 38.515625 388.042969 38.785156 C 388.671875 39.019531 388.101562 39.65625 387.976562 40.074219 C 386.804688 43.992188 385.269531 47.789062 383.769531 51.585938 C 376.128906 70.929688 369.007812 90.476562 361.445312 109.855469 C 361.292969 110.25 361.234375 110.757812 360.601562 110.898438 C 360.402344 110.496094 360.511719 110.183594 360.605469 109.863281 Z M 447.464844 17.285156 C 453.433594 20.015625 459.390625 22.777344 465.34375 25.539062 C 474.480469 29.773438 483.527344 34.222656 492.714844 38.355469 C 499.796875 41.535156 507.003906 44.441406 513.800781 48.222656 C 514.296875 48.5 514.949219 48.617188 515.332031 49.566406 C 491.546875 38.980469 468.414062 27.683594 445.070312 16.828125 C 445.992188 16.554688 446.738281 16.953125 447.464844 17.285156 Z M 452.472656 0.445312 C 460.65625 0.695312 468.84375 0.179688 477.03125 0.476562 C 482.898438 0.6875 488.765625 0.300781 494.636719 0.195312 C 501.957031 0.0625 509.265625 0.488281 516.574219 0.765625 C 519.550781 0.878906 522.527344 0.964844 525.503906 1.070312 C 525.824219 1.082031 526.292969 1.082031 526.28125 1.484375 C 526.265625 1.96875 525.769531 1.773438 525.484375 1.765625 C 523.789062 1.710938 522.097656 1.621094 520.402344 1.554688 C 506.0625 1 491.714844 1.480469 477.371094 1.019531 C 468.488281 0.734375 459.601562 1.589844 450.707031 1.175781 C 450.199219 1.152344 449.644531 1.308594 449.140625 0.742188 C 450.285156 0.390625 451.386719 0.410156 452.472656 0.445312 Z M 359.058594 1.464844 C 357.363281 1.519531 355.667969 1.535156 353.976562 1.574219 C 346.945312 1.75 339.9375 0.941406 332.914062 1.039062 C 326.425781 1.128906 319.941406 1.390625 313.457031 1.480469 C 303.828125 1.613281 294.199219 1.417969 284.570312 1.277344 C 284.183594 1.273438 283.570312 1.421875 283.546875 0.878906 C 283.523438 0.238281 284.164062 0.503906 284.511719 0.503906 C 289.140625 0.472656 293.773438 0.417969 298.398438 0.460938 C 315.054688 0.621094 331.710938 0.371094 348.359375 0.753906 C 351.789062 0.832031 355.222656 0.757812 358.652344 0.78125 C 359.160156 0.785156 359.738281 0.621094 360.167969 1.105469 C 359.890625 1.546875 359.441406 1.453125 359.058594 1.464844 Z M 297.074219 48.925781 C 305.3125 45.078125 313.550781 41.253906 321.457031 36.734375 C 332.265625 30.5625 343.769531 25.746094 354.71875 19.832031 C 357.585938 18.285156 360.617188 17.042969 363.582031 15.679688 C 363.828125 15.566406 364.199219 15.167969 364.402344 15.671875 C 364.539062 16.011719 364.125 16.121094 363.882812 16.25 C 363.078125 16.679688 362.28125 17.113281 361.464844 17.515625 C 354.570312 20.914062 347.632812 24.222656 340.785156 27.714844 C 326.0625 35.230469 311.328125 42.71875 296.511719 50.042969 C 296.160156 50.214844 295.828125 50.554688 295.230469 50.234375 C 295.703125 49.488281 296.421875 49.230469 297.074219 48.925781 Z M 405.210938 95.21875 C 405.136719 89.804688 405.039062 84.390625 404.992188 78.976562 C 404.890625 66.984375 404.726562 54.996094 404.933594 43.007812 C 404.941406 42.480469 404.742188 41.601562 405.519531 41.625 C 406.214844 41.648438 405.910156 42.5 405.925781 42.984375 C 406.242188 51.785156 405.5625 60.582031 405.847656 69.394531 C 406.113281 77.699219 405.914062 86.015625 405.910156 94.328125 C 405.910156 94.839844 406.0625 95.40625 405.554688 95.902344 C 405.226562 95.714844 405.214844 95.472656 405.210938 95.21875 Z M 473.917969 68.5 C 473.632812 68.355469 473.371094 68.144531 473.136719 67.921875 C 469.871094 64.820312 466.644531 61.675781 463.351562 58.605469 C 459.515625 55.027344 455.566406 51.566406 451.761719 47.957031 C 446.363281 42.84375 441.136719 37.554688 436.003906 32.171875 C 435.664062 31.8125 435.339844 31.4375 435.027344 31.050781 C 434.871094 30.859375 434.753906 30.59375 434.957031 30.382812 C 435.226562 30.105469 435.488281 30.28125 435.703125 30.496094 C 436.289062 31.078125 436.859375 31.675781 437.445312 32.257812 C 440.554688 35.339844 443.816406 38.285156 446.742188 41.535156 C 450.925781 46.1875 455.382812 50.53125 460.140625 54.582031 C 464.769531 58.523438 469.035156 62.851562 473.402344 67.070312 C 473.757812 67.410156 474.058594 67.804688 474.339844 68.121094 C 474.316406 68.496094 474.113281 68.597656 473.917969 68.5 Z M 337.304688 69.648438 C 337.523438 68.992188 338.054688 68.574219 338.519531 68.113281 C 348.554688 58.21875 358.050781 47.792969 368.078125 37.882812 C 370.316406 35.675781 372.433594 33.359375 374.546875 31.03125 C 374.777344 30.773438 375.082031 30.367188 375.46875 30.71875 C 375.859375 31.070312 375.484375 31.386719 375.242188 31.65625 C 374.351562 32.632812 373.46875 33.621094 372.554688 34.574219 C 366.609375 40.789062 360.382812 46.722656 354.371094 52.867188 C 349.632812 57.714844 345.175781 62.828125 340.214844 67.460938 C 339.332031 68.285156 338.4375 69.097656 337.550781 69.917969 C 337.46875 69.828125 337.386719 69.738281 337.304688 69.648438 Z M 381.742188 35.753906 C 381.636719 36.714844 381.039062 37.464844 380.539062 38.238281 C 376.445312 44.546875 372.410156 50.898438 368.101562 57.066406 C 367.203125 58.351562 366.320312 59.652344 365.414062 60.933594 C 365.257812 61.152344 365.03125 61.457031 364.710938 61.210938 C 364.449219 61.015625 364.675781 60.761719 364.78125 60.550781 C 364.875 60.367188 364.992188 60.195312 365.109375 60.023438 C 369.613281 53.394531 374.359375 46.925781 378.351562 39.957031 C 379.238281 38.410156 380.390625 37.015625 381.421875 35.550781 C 381.527344 35.617188 381.632812 35.6875 381.742188 35.753906 Z M 397.488281 41.574219 C 397.484375 42.875 396.980469 44.074219 396.742188 45.328125 C 395.164062 53.636719 393.609375 61.945312 392.027344 70.25 C 391.917969 70.820312 391.933594 71.882812 391.339844 71.757812 C 390.605469 71.601562 391.019531 70.644531 391.140625 70.046875 C 392.714844 62.457031 394.601562 54.925781 395.550781 47.214844 C 395.8125 45.097656 396.425781 43.046875 397.0625 40.953125 C 397.527344 41.15625 397.488281 41.382812 397.488281 41.574219 Z M 368.75 25.75 C 367.503906 26.90625 366.082031 27.832031 364.6875 28.792969 C 360.066406 31.988281 355.4375 35.175781 351.007812 38.640625 C 349.613281 39.734375 348.128906 40.722656 346.667969 41.730469 C 346.382812 41.925781 345.945312 42.195312 345.699219 41.75 C 345.503906 41.394531 345.925781 41.171875 346.179688 40.988281 C 347.015625 40.378906 347.859375 39.785156 348.714844 39.207031 C 350.191406 38.214844 351.703125 37.277344 353.148438 36.25 C 358.199219 32.65625 362.949219 28.660156 368.125 25.238281 C 368.539062 24.964844 368.867188 24.410156 369.550781 24.679688 C 369.46875 25.195312 369.070312 25.449219 368.75 25.75 Z M 361.363281 9.132812 C 361.183594 9.226562 361.011719 9.371094 360.824219 9.402344 C 356.957031 10.058594 353.238281 11.332031 349.394531 12.070312 C 344.777344 12.960938 340.339844 14.570312 335.742188 15.53125 C 334.921875 15.703125 334.058594 16.117188 333.121094 15.679688 C 333.554688 15.066406 334.152344 15.03125 334.695312 14.890625 C 338.367188 13.953125 342.058594 13.113281 345.761719 12.296875 C 349.539062 11.464844 353.246094 10.304688 357 9.363281 C 358.402344 9.011719 359.84375 8.703125 361.304688 8.824219 C 361.324219 8.929688 361.34375 9.03125 361.363281 9.132812 Z M 442.191406 23.835938 C 443.335938 24.648438 444.453125 25.496094 445.59375 26.316406 C 451.058594 30.234375 456.53125 34.140625 461.988281 38.070312 C 462.621094 38.523438 463.1875 39.074219 463.769531 39.601562 C 463.960938 39.777344 464.296875 40 464.003906 40.308594 C 463.792969 40.527344 463.535156 40.300781 463.34375 40.167969 C 462.394531 39.511719 461.460938 38.832031 460.507812 38.175781 C 457.273438 35.957031 454.476562 33.160156 451.132812 31.082031 C 448.007812 29.144531 445.015625 27.015625 442.121094 24.75 C 441.679688 24.402344 441.140625 24.117188 440.996094 23.425781 C 441.59375 23.238281 441.875 23.609375 442.191406 23.835938 Z M 430.511719 38.292969 C 433.589844 43.277344 436.695312 48.246094 440.199219 52.953125 C 441.53125 54.746094 442.714844 56.632812 443.816406 58.570312 C 444.015625 58.921875 444.367188 59.429688 443.96875 59.679688 C 443.519531 59.960938 443.289062 59.367188 443.09375 59.039062 C 438.835938 51.964844 434.003906 45.265625 429.5625 38.3125 C 429.023438 37.46875 428.363281 36.675781 428.1875 35.621094 C 429.289062 36.257812 429.890625 37.289062 430.511719 38.292969 Z M 413.25 41.355469 C 413.363281 41.785156 413.5 42.210938 413.585938 42.644531 C 415.1875 50.898438 416.632812 59.183594 418.5625 67.375 C 418.757812 68.21875 418.882812 69.078125 419.011719 69.933594 C 419.058594 70.253906 419.082031 70.683594 418.65625 70.734375 C 418.230469 70.785156 418.203125 70.335938 418.101562 70.039062 C 418.046875 69.882812 418.050781 69.710938 418.027344 69.546875 C 416.894531 61.957031 415.195312 54.480469 413.695312 46.960938 C 413.332031 45.136719 412.964844 43.28125 412.925781 41.402344 C 413.035156 41.386719 413.144531 41.371094 413.25 41.355469 Z M 475.378906 14.71875 C 466.382812 12.832031 457.375 10.980469 448.503906 8.515625 C 450.351562 8.234375 474.8125 13.910156 475.378906 14.71875 Z M 330.003906 16.265625 C 330.125 16.253906 330.328125 16.386719 330.378906 16.5 C 330.488281 16.746094 330.28125 16.882812 330.082031 16.9375 C 328.652344 17.339844 327.25 17.898438 325.699219 17.722656 C 327.03125 16.921875 328.464844 16.4375 330.003906 16.265625 Z M 360.703125 67.1875 C 360.601562 67.214844 360.394531 67.199219 360.382812 67.15625 C 360.335938 67.015625 360.300781 66.824219 360.363281 66.707031 C 360.925781 65.644531 361.621094 64.671875 362.40625 63.761719 C 362.550781 63.59375 362.75 63.507812 362.957031 63.617188 C 363.039062 63.65625 363.066406 63.808594 363.089844 63.855469 C 363.09375 64.34375 361.101562 67.085938 360.703125 67.1875 Z M 466.683594 42.789062 C 466.484375 42.632812 466.355469 42.367188 466.515625 42.136719 C 466.695312 41.875 466.96875 42.019531 467.171875 42.144531 C 468.21875 42.789062 469.152344 43.5625 469.816406 44.644531 C 468.613281 44.257812 467.632812 43.546875 466.683594 42.789062 Z M 390.425781 75.199219 C 390.480469 74.972656 390.558594 74.6875 390.882812 74.726562 C 391.121094 74.757812 391.222656 74.964844 391.171875 75.183594 C 390.871094 76.507812 390.816406 77.910156 389.886719 79.046875 C 389.773438 77.714844 390.125 76.460938 390.425781 75.199219 Z M 420.238281 77.4375 C 420.253906 77.558594 420.132812 77.773438 420.019531 77.824219 C 419.769531 77.9375 419.640625 77.710938 419.59375 77.523438 C 419.296875 76.316406 418.851562 75.125 419.289062 73.832031 C 420.101562 74.914062 420.058594 76.203125 420.238281 77.4375 Z M 448.234375 66.054688 C 447.292969 64.835938 446.058594 63.816406 445.757812 62.1875 C 446.8125 63.332031 447.898438 64.453125 448.234375 66.054688 Z M 338.566406 46.476562 C 339.414062 45.277344 340.632812 44.585938 342 44.09375 C 341.105469 45.234375 340.042969 46.152344 338.566406 46.476562 Z M 478.480469 15.289062 C 479.832031 15.519531 481.269531 15.441406 482.363281 16.492188 C 481.003906 16.28125 479.546875 16.390625 478.480469 15.289062 Z M 478.480469 15.289062 "/><path style=" stroke:none;fill-rule:nonzero;fill:#6c5346;fill-opacity:1;" d="M 452.46875 110.554688 C 452.714844 109.777344 452.292969 109.203125 452.046875 108.617188 C 449.441406 102.398438 446.207031 96.484375 443.246094 90.441406 C 438.265625 80.277344 433.113281 70.207031 428.890625 59.679688 C 426.386719 53.4375 423.589844 47.304688 421.027344 41.078125 C 420.828125 40.589844 420.652344 39.621094 420.054688 39.894531 C 419.324219 40.226562 420.015625 40.976562 420.226562 41.492188 C 423.414062 49.246094 426.5625 57.015625 429.84375 64.730469 C 433.179688 72.566406 437.191406 80.082031 440.921875 87.726562 C 444.492188 95.042969 448.121094 102.328125 451.730469 109.625 C 451.886719 109.945312 451.953125 110.339844 452.46875 110.554688 Z M 360.605469 109.863281 C 361.210938 107.804688 361.804688 105.746094 362.632812 103.761719 C 365.5625 96.75 368.8125 89.851562 371.171875 82.640625 C 375.917969 68.152344 382.054688 54.191406 387.136719 39.835938 C 387.289062 39.398438 387.324219 38.515625 388.042969 38.785156 C 388.671875 39.019531 388.101562 39.65625 387.976562 40.074219 C 386.804688 43.992188 385.269531 47.789062 383.769531 51.585938 C 376.128906 70.929688 369.007812 90.476562 361.445312 109.855469 C 361.292969 110.25 361.234375 110.757812 360.601562 110.898438 C 360.402344 110.496094 360.511719 110.183594 360.605469 109.863281 Z M 447.464844 17.285156 C 453.433594 20.015625 459.390625 22.777344 465.34375 25.539062 C 474.480469 29.773438 483.527344 34.222656 492.714844 38.355469 C 499.796875 41.535156 507.003906 44.441406 513.800781 48.222656 C 514.296875 48.5 514.949219 48.617188 515.332031 49.566406 C 491.546875 38.980469 468.414062 27.683594 445.070312 16.828125 C 445.992188 16.554688 446.738281 16.953125 447.464844 17.285156 Z M 452.472656 0.445312 C 460.65625 0.695312 468.84375 0.179688 477.03125 0.476562 C 482.898438 0.6875 488.765625 0.300781 494.636719 0.195312 C 501.957031 0.0625 509.265625 0.488281 516.574219 0.765625 C 519.550781 0.878906 522.527344 0.964844 525.503906 1.070312 C 525.824219 1.082031 526.292969 1.082031 526.28125 1.484375 C 526.265625 1.96875 525.769531 1.773438 525.484375 1.765625 C 523.789062 1.710938 522.097656 1.621094 520.402344 1.554688 C 506.0625 1 491.714844 1.480469 477.371094 1.019531 C 468.488281 0.734375 459.601562 1.589844 450.707031 1.175781 C 450.199219 1.152344 449.644531 1.308594 449.140625 0.742188 C 450.285156 0.390625 451.386719 0.410156 452.472656 0.445312 Z M 359.058594 1.464844 C 357.363281 1.519531 355.667969 1.535156 353.976562 1.574219 C 346.945312 1.75 339.9375 0.941406 332.914062 1.039062 C 326.425781 1.128906 319.941406 1.390625 313.457031 1.480469 C 303.828125 1.613281 294.199219 1.417969 284.570312 1.277344 C 284.183594 1.273438 283.570312 1.421875 283.546875 0.878906 C 283.523438 0.238281 284.164062 0.503906 284.511719 0.503906 C 289.140625 0.472656 293.773438 0.417969 298.398438 0.460938 C 315.054688 0.621094 331.710938 0.371094 348.359375 0.753906 C 351.789062 0.832031 355.222656 0.757812 358.652344 0.78125 C 359.160156 0.785156 359.738281 0.621094 360.167969 1.105469 C 359.890625 1.546875 359.441406 1.453125 359.058594 1.464844 Z M 297.074219 48.925781 C 305.3125 45.078125 313.550781 41.253906 321.457031 36.734375 C 332.265625 30.5625 343.769531 25.746094 354.71875 19.832031 C 357.585938 18.285156 360.617188 17.042969 363.582031 15.679688 C 363.828125 15.566406 364.199219 15.167969 364.402344 15.671875 C 364.539062 16.011719 364.125 16.121094 363.882812 16.25 C 363.078125 16.679688 362.28125 17.113281 361.464844 17.515625 C 354.570312 20.914062 347.632812 24.222656 340.785156 27.714844 C 326.0625 35.230469 311.328125 42.71875 296.511719 50.042969 C 296.160156 50.214844 295.828125 50.554688 295.230469 50.234375 C 295.703125 49.488281 296.421875 49.230469 297.074219 48.925781 Z M 405.210938 95.21875 C 405.136719 89.804688 405.039062 84.390625 404.992188 78.976562 C 404.890625 66.984375 404.726562 54.996094 404.933594 43.007812 C 404.941406 42.480469 404.742188 41.601562 405.519531 41.625 C 406.214844 41.648438 405.910156 42.5 405.925781 42.984375 C 406.242188 51.785156 405.5625 60.582031 405.847656 69.394531 C 406.113281 77.699219 405.914062 86.015625 405.910156 94.328125 C 405.910156 94.839844 406.0625 95.40625 405.554688 95.902344 C 405.226562 95.714844 405.214844 95.472656 405.210938 95.21875 Z M 473.917969 68.5 C 473.632812 68.355469 473.371094 68.144531 473.136719 67.921875 C 469.871094 64.820312 466.644531 61.675781 463.351562 58.605469 C 459.515625 55.027344 455.566406 51.566406 451.761719 47.957031 C 446.363281 42.84375 441.136719 37.554688 436.003906 32.171875 C 435.664062 31.8125 435.339844 31.4375 435.027344 31.050781 C 434.871094 30.859375 434.753906 30.59375 434.957031 30.382812 C 435.226562 30.105469 435.488281 30.28125 435.703125 30.496094 C 436.289062 31.078125 436.859375 31.675781 437.445312 32.257812 C 440.554688 35.339844 443.816406 38.285156 446.742188 41.535156 C 450.925781 46.1875 455.382812 50.53125 460.140625 54.582031 C 464.769531 58.523438 469.035156 62.851562 473.402344 67.070312 C 473.757812 67.410156 474.058594 67.804688 474.339844 68.121094 C 474.316406 68.496094 474.113281 68.597656 473.917969 68.5 Z M 337.304688 69.648438 C 337.523438 68.992188 338.054688 68.574219 338.519531 68.113281 C 348.554688 58.21875 358.050781 47.792969 368.078125 37.882812 C 370.316406 35.675781 372.433594 33.359375 374.546875 31.03125 C 374.777344 30.773438 375.082031 30.367188 375.46875 30.71875 C 375.859375 31.070312 375.484375 31.386719 375.242188 31.65625 C 374.351562 32.632812 373.46875 33.621094 372.554688 34.574219 C 366.609375 40.789062 360.382812 46.722656 354.371094 52.867188 C 349.632812 57.714844 345.175781 62.828125 340.214844 67.460938 C 339.332031 68.285156 338.4375 69.097656 337.550781 69.917969 C 337.46875 69.828125 337.386719 69.738281 337.304688 69.648438 Z M 381.742188 35.753906 C 381.636719 36.714844 381.039062 37.464844 380.539062 38.238281 C 376.445312 44.546875 372.410156 50.898438 368.101562 57.066406 C 367.203125 58.351562 366.320312 59.652344 365.414062 60.933594 C 365.257812 61.152344 365.03125 61.457031 364.710938 61.210938 C 364.449219 61.015625 364.675781 60.761719 364.78125 60.550781 C 364.875 60.367188 364.992188 60.195312 365.109375 60.023438 C 369.613281 53.394531 374.359375 46.925781 378.351562 39.957031 C 379.238281 38.410156 380.390625 37.015625 381.421875 35.550781 C 381.527344 35.617188 381.632812 35.6875 381.742188 35.753906 Z M 397.488281 41.574219 C 397.484375 42.875 396.980469 44.074219 396.742188 45.328125 C 395.164062 53.636719 393.609375 61.945312 392.027344 70.25 C 391.917969 70.820312 391.933594 71.882812 391.339844 71.757812 C 390.605469 71.601562 391.019531 70.644531 391.140625 70.046875 C 392.714844 62.457031 394.601562 54.925781 395.550781 47.214844 C 395.8125 45.097656 396.425781 43.046875 397.0625 40.953125 C 397.527344 41.15625 397.488281 41.382812 397.488281 41.574219 Z M 368.75 25.75 C 367.503906 26.90625 366.082031 27.832031 364.6875 28.792969 C 360.066406 31.988281 355.4375 35.175781 351.007812 38.640625 C 349.613281 39.734375 348.128906 40.722656 346.667969 41.730469 C 346.382812 41.925781 345.945312 42.195312 345.699219 41.75 C 345.503906 41.394531 345.925781 41.171875 346.179688 40.988281 C 347.015625 40.378906 347.859375 39.785156 348.714844 39.207031 C 350.191406 38.214844 351.703125 37.277344 353.148438 36.25 C 358.199219 32.65625 362.949219 28.660156 368.125 25.238281 C 368.539062 24.964844 368.867188 24.410156 369.550781 24.679688 C 369.46875 25.195312 369.070312 25.449219 368.75 25.75 Z M 361.363281 9.132812 C 361.183594 9.226562 361.011719 9.371094 360.824219 9.402344 C 356.957031 10.058594 353.238281 11.332031 349.394531 12.070312 C 344.777344 12.960938 340.339844 14.570312 335.742188 15.53125 C 334.921875 15.703125 334.058594 16.117188 333.121094 15.679688 C 333.554688 15.066406 334.152344 15.03125 334.695312 14.890625 C 338.367188 13.953125 342.058594 13.113281 345.761719 12.296875 C 349.539062 11.464844 353.246094 10.304688 357 9.363281 C 358.402344 9.011719 359.84375 8.703125 361.304688 8.824219 C 361.324219 8.929688 361.34375 9.03125 361.363281 9.132812 Z M 442.191406 23.835938 C 443.335938 24.648438 444.453125 25.496094 445.59375 26.316406 C 451.058594 30.234375 456.53125 34.140625 461.988281 38.070312 C 462.621094 38.523438 463.1875 39.074219 463.769531 39.601562 C 463.960938 39.777344 464.296875 40 464.003906 40.308594 C 463.792969 40.527344 463.535156 40.300781 463.34375 40.167969 C 462.394531 39.511719 461.460938 38.832031 460.507812 38.175781 C 457.273438 35.957031 454.476562 33.160156 451.132812 31.082031 C 448.007812 29.144531 445.015625 27.015625 442.121094 24.75 C 441.679688 24.402344 441.140625 24.117188 440.996094 23.425781 C 441.59375 23.238281 441.875 23.609375 442.191406 23.835938 Z M 430.511719 38.292969 C 433.589844 43.277344 436.695312 48.246094 440.199219 52.953125 C 441.53125 54.746094 442.714844 56.632812 443.816406 58.570312 C 444.015625 58.921875 444.367188 59.429688 443.96875 59.679688 C 443.519531 59.960938 443.289062 59.367188 443.09375 59.039062 C 438.835938 51.964844 434.003906 45.265625 429.5625 38.3125 C 429.023438 37.46875 428.363281 36.675781 428.1875 35.621094 C 429.289062 36.257812 429.890625 37.289062 430.511719 38.292969 Z M 413.25 41.355469 C 413.363281 41.785156 413.5 42.210938 413.585938 42.644531 C 415.1875 50.898438 416.632812 59.183594 418.5625 67.375 C 418.757812 68.21875 418.882812 69.078125 419.011719 69.933594 C 419.058594 70.253906 419.082031 70.683594 418.65625 70.734375 C 418.230469 70.785156 418.203125 70.335938 418.101562 70.039062 C 418.046875 69.882812 418.050781 69.710938 418.027344 69.546875 C 416.894531 61.957031 415.195312 54.480469 413.695312 46.960938 C 413.332031 45.136719 412.964844 43.28125 412.925781 41.402344 C 413.035156 41.386719 413.144531 41.371094 413.25 41.355469 Z M 475.378906 14.71875 C 466.382812 12.832031 457.375 10.980469 448.503906 8.515625 C 450.351562 8.234375 474.8125 13.910156 475.378906 14.71875 Z M 330.003906 16.265625 C 330.125 16.253906 330.328125 16.386719 330.378906 16.5 C 330.488281 16.746094 330.28125 16.882812 330.082031 16.9375 C 328.652344 17.339844 327.25 17.898438 325.699219 17.722656 C 327.03125 16.921875 328.464844 16.4375 330.003906 16.265625 Z M 360.703125 67.1875 C 360.601562 67.214844 360.394531 67.199219 360.382812 67.15625 C 360.335938 67.015625 360.300781 66.824219 360.363281 66.707031 C 360.925781 65.644531 361.621094 64.671875 362.40625 63.761719 C 362.550781 63.59375 362.75 63.507812 362.957031 63.617188 C 363.039062 63.65625 363.066406 63.808594 363.089844 63.855469 C 363.09375 64.34375 361.101562 67.085938 360.703125 67.1875 Z M 466.683594 42.789062 C 466.484375 42.632812 466.355469 42.367188 466.515625 42.136719 C 466.695312 41.875 466.96875 42.019531 467.171875 42.144531 C 468.21875 42.789062 469.152344 43.5625 469.816406 44.644531 C 468.613281 44.257812 467.632812 43.546875 466.683594 42.789062 Z M 390.425781 75.199219 C 390.480469 74.972656 390.558594 74.6875 390.882812 74.726562 C 391.121094 74.757812 391.222656 74.964844 391.171875 75.183594 C 390.871094 76.507812 390.816406 77.910156 389.886719 79.046875 C 389.773438 77.714844 390.125 76.460938 390.425781 75.199219 Z M 420.238281 77.4375 C 420.253906 77.558594 420.132812 77.773438 420.019531 77.824219 C 419.769531 77.9375 419.640625 77.710938 419.59375 77.523438 C 419.296875 76.316406 418.851562 75.125 419.289062 73.832031 C 420.101562 74.914062 420.058594 76.203125 420.238281 77.4375 Z M 448.234375 66.054688 C 447.292969 64.835938 446.058594 63.816406 445.757812 62.1875 C 446.8125 63.332031 447.898438 64.453125 448.234375 66.054688 Z M 338.566406 46.476562 C 339.414062 45.277344 340.632812 44.585938 342 44.09375 C 341.105469 45.234375 340.042969 46.152344 338.566406 46.476562 Z M 478.480469 15.289062 C 479.832031 15.519531 481.269531 15.441406 482.363281 16.492188 C 481.003906 16.28125 479.546875 16.390625 478.480469 15.289062 Z M 478.480469 15.289062 "/></g><g clip-rule="nonzero" clip-path="url(#e55dcc8805)"><g clip-rule="nonzero" clip-path="url(#0caa6a03cf)"><path style=" stroke:none;fill-rule:nonzero;fill:#000000;fill-opacity:1;" d="M -47.65625 277.042969 L 231.125 277.042969 L 231.125 829.160156 L -47.65625 829.160156 Z M -47.65625 277.042969 "/></g></g><g clip-rule="nonzero" clip-path="url(#9d9773aed8)"><g clip-rule="nonzero" clip-path="url(#b9e4c98793)"><g transform="matrix(0.926929,0,0,0.927586,-574.445174,293.665407)"><image width="1438" xlink:href="PLACE_SCREENSHOT_2_HERE" height="560" preserveAspectRatio="xMidYMid meet"/></g></g></g><g clip-rule="nonzero" clip-path="url(#3e7c177d5d)"><g clip-rule="nonzero" clip-path="url(#a7cd387abb)"><path style=" stroke:none;fill-rule:nonzero;fill:#606060;fill-opacity:1;" d="M -47.65625 277.042969 L 231.125 277.042969 L 231.125 829.160156 L -47.65625 829.160156 Z M -47.65625 277.042969 "/></g></g><g clip-rule="nonzero" clip-path="url(#a9f27b7cbf)"><g clip-rule="nonzero" clip-path="url(#8be7929491)"><path style=" stroke:none;fill-rule:nonzero;fill:#606060;fill-opacity:1;" d="M -47.65625 277.042969 L 231.125 277.042969 L 231.125 829.160156 L -47.65625 829.160156 Z M -47.65625 277.042969 "/></g></g><g clip-rule="nonzero" clip-path="url(#b660085d4a)"><g clip-rule="nonzero" clip-path="url(#589cbbebb6)"><path style=" stroke:none;fill-rule:nonzero;fill:#b8b8b8;fill-opacity:1;" d="M -47.65625 277.042969 L 231.125 277.042969 L 231.125 829.160156 L -47.65625 829.160156 Z M -47.65625 277.042969 "/></g></g><g clip-rule="nonzero" clip-path="url(#4c227dda57)"><g clip-rule="nonzero" clip-path="url(#677e6e41aa)"><path style=" stroke:none;fill-rule:nonzero;fill:#e9e9e9;fill-opacity:1;" d="M -47.65625 277.042969 L 231.125 277.042969 L 231.125 829.160156 L -47.65625 829.160156 Z M -47.65625 277.042969 "/></g></g></g></svg>