<svg xmlns="http://www.w3.org/2000/svg" xmlns:xlink="http://www.w3.org/1999/xlink" width="1080" zoomAndPan="magnify" viewBox="0 0 810 1012.49997" height="1350" preserveAspectRatio="xMidYMid meet" version="1.2"><defs><clipPath id="aa3149c0af"><path d="M 0.199219 0 L 809.800781 0 L 809.800781 1012 L 0.199219 1012 Z M 0.199219 0 "/></clipPath><filter x="0%" y="0%" width="100%" filterUnits="objectBoundingBox" id="9598f869f7" height="100%"><feColorMatrix values="0 0 0 0 1 0 0 0 0 1 0 0 0 0 1 0 0 0 1 0" type="matrix" in="SourceGraphic"/></filter><clipPath id="906f3d36db"><path d="M 0.199219 0 L 809.800781 0 L 809.800781 1012 L 0.199219 1012 Z M 0.199219 0 "/></clipPath><clipPath id="d84b111c20"><rect x="0" width="810" y="0" height="1012"/></clipPath><clipPath id="89d90ad349"><path d="M 38.378906 741.496094 L 342.730469 741.496094 L 342.730469 823.957031 L 38.378906 823.957031 Z M 38.378906 741.496094 "/></clipPath><clipPath id="ec0724197e"><path d="M 467 741.496094 L 771 741.496094 L 771 823.957031 L 467 823.957031 Z M 467 741.496094 "/></clipPath><clipPath id="d02f4571b3"><path d="M 244.488281 762.210938 L 563.832031 762.210938 L 563.832031 848 L 244.488281 848 Z M 244.488281 762.210938 "/></clipPath><clipPath id="cca9cfad3c"><path d="M 518.109375 358.226562 L 719.949219 358.226562 L 719.949219 790 L 518.109375 790 Z M 518.109375 358.226562 "/></clipPath><clipPath id="0277c35b8b"><path d="M 639.363281 363.089844 C 643.996094 363.089844 647.75 366.8125 647.75 371.398438 C 647.75 375.988281 643.996094 379.707031 639.363281 379.707031 L 598.695312 379.707031 C 594.066406 379.707031 590.308594 375.988281 590.308594 371.398438 C 590.308594 366.8125 594.066406 363.089844 598.695312 363.089844 Z M 544 358.226562 C 529.699219 358.226562 518.109375 369.707031 518.109375 383.871094 L 518.109375 764.847656 C 518.109375 777.902344 532.113281 790.492188 544 790.492188 L 694.0625 790.492188 C 705.957031 790.492188 719.949219 776.386719 719.949219 764.847656 L 719.949219 383.871094 C 719.949219 369.707031 708.359375 358.226562 694.0625 358.226562 Z M 544 358.226562 "/></clipPath><clipPath id="00e0eaeb52"><path d="M 89.800781 358.226562 L 291.640625 358.226562 L 291.640625 790 L 89.800781 790 Z M 89.800781 358.226562 "/></clipPath><clipPath id="2f3b58e725"><path d="M 211.054688 363.089844 C 215.683594 363.089844 219.441406 366.8125 219.441406 371.398438 C 219.441406 375.988281 215.683594 379.707031 211.054688 379.707031 L 170.386719 379.707031 C 165.753906 379.707031 162 375.988281 162 371.398438 C 162 366.8125 165.753906 363.089844 170.386719 363.089844 Z M 115.6875 358.226562 C 101.390625 358.226562 89.800781 369.707031 89.800781 383.871094 L 89.800781 764.847656 C 89.800781 777.902344 103.804688 790.492188 115.6875 790.492188 L 265.75 790.492188 C 277.648438 790.492188 291.640625 776.386719 291.640625 764.847656 L 291.640625 383.871094 C 291.640625 369.707031 280.050781 358.226562 265.75 358.226562 Z M 115.6875 358.226562 "/></clipPath><clipPath id="2d906775da"><path d="M 244 328.289062 L 566 328.289062 L 566 790.8125 L 244 790.8125 Z M 244 328.289062 "/></clipPath><clipPath id="b89915c65c"><path d="M 286.144531 328.289062 L 522.28125 328.289062 L 522.28125 814 L 286.144531 814 Z M 286.144531 328.289062 "/></clipPath><clipPath id="ca1e860244"><path d="M 294.503906 336 L 514.585938 336 L 514.585938 806.84375 L 294.503906 806.84375 Z M 294.503906 336 "/></clipPath><clipPath id="b614108014"><path d="M 426.714844 340.816406 C 431.765625 340.816406 435.859375 344.871094 435.859375 349.875 C 435.859375 354.878906 431.765625 358.933594 426.714844 358.933594 L 382.371094 358.933594 C 377.324219 358.933594 373.226562 354.878906 373.226562 349.875 C 373.226562 344.871094 377.324219 340.816406 382.371094 340.816406 Z M 322.730469 335.511719 C 307.140625 335.511719 294.503906 348.03125 294.503906 363.472656 L 294.503906 778.882812 C 294.503906 793.117188 309.769531 806.84375 322.730469 806.84375 L 486.355469 806.84375 C 499.328125 806.84375 514.585938 791.460938 514.585938 778.882812 L 514.585938 363.472656 C 514.585938 348.03125 501.945312 335.511719 486.355469 335.511719 Z M 322.730469 335.511719 "/></clipPath><clipPath id="161a9ccff9"><path d="M 262.542969 879.46875 L 547.402344 879.46875 L 547.402344 940.9375 L 262.542969 940.9375 Z M 262.542969 879.46875 "/></clipPath><clipPath id="3ae01cee4c"><path d="M 293.121094 879.46875 L 516.828125 879.46875 C 533.714844 879.46875 547.402344 893.15625 547.402344 910.046875 C 547.402344 926.933594 533.714844 940.621094 516.828125 940.621094 L 293.121094 940.621094 C 276.234375 940.621094 262.542969 926.933594 262.542969 910.046875 C 262.542969 893.15625 276.234375 879.46875 293.121094 879.46875 Z M 293.121094 879.46875 "/></clipPath></defs><g id="11b8974e3a"><g clip-rule="nonzero" clip-path="url(#aa3149c0af)"><path style=" stroke:none;fill-rule:nonzero;fill:#ffffff;fill-opacity:1;" d="M 0.199219 0 L 809.800781 0 L 809.800781 1012 L 0.199219 1012 Z M 0.199219 0 "/><path style=" stroke:none;fill-rule:nonzero;fill:#COLOR_PRIMARY;fill-opacity:1;" d="M 0.199219 0 L 809.800781 0 L 809.800781 1012 L 0.199219 1012 Z M 0.199219 0 "/><g mask="url(#232a1b9d5d)" transform="matrix(1,0,0,1,0.000000000000000028,0)"><g clip-path="url(#d84b111c20)"><g clip-rule="nonzero" clip-path="url(#906f3d36db)"><g transform="matrix(0.506,0,0,0.506,-200.791564,0)"><image width="3000" xlink:href="file:///Users/erikbelt/Desktop/Mood Tracking App/AdCreator/image-generation-service/assets/3xiPhone_HS_CTA-img1-8850f3d9.jpg" id="4f515d4f9c" height="2000" preserveAspectRatio="xMidYMid meet"/></g></g></g><mask id="232a1b9d5d"><g filter="url(#9598f869f7)"><rect x="0" width="810" y="0" height="1012.49997" style="fill:#000000;fill-opacity:0.35;stroke:none;"/></g></mask></g></g><g clip-rule="nonzero" clip-path="url(#89d90ad349)"><g mask="url(#cfb832719c)" transform="matrix(0.181161,0,0,0.182029,38.379099,741.497032)"><image width="1680" xlink:href="file:///Users/erikbelt/Desktop/Mood Tracking App/AdCreator/image-generation-service/assets/3xiPhone_HS_CTA-img2-acf0c769.png" height="453" preserveAspectRatio="xMidYMid meet"/><mask id="cfb832719c"><g transform="matrix(1,0,0,1,0.000000000000028422,0)"><image width="1680" xlink:href="file:///Users/erikbelt/Desktop/Mood Tracking App/AdCreator/image-generation-service/assets/3xiPhone_HS_CTA-img3-7b857603.png" height="453" preserveAspectRatio="xMidYMid meet"/></g></mask></g></g><g clip-rule="nonzero" clip-path="url(#ec0724197e)"><g mask="url(#a94444ec42)" transform="matrix(0.181161,0,0,0.182029,466.688827,741.497032)"><image width="1680" xlink:href="file:///Users/erikbelt/Desktop/Mood Tracking App/AdCreator/image-generation-service/assets/3xiPhone_HS_CTA-img4-acf0c769.png" height="453" preserveAspectRatio="xMidYMid meet"/><mask id="a94444ec42"><g><image width="1680" xlink:href="file:///Users/erikbelt/Desktop/Mood Tracking App/AdCreator/image-generation-service/assets/3xiPhone_HS_CTA-img5-7b857603.png" height="453" preserveAspectRatio="xMidYMid meet"/></g></mask></g></g><g clip-rule="nonzero" clip-path="url(#d02f4571b3)"><g mask="url(#5e97848e2a)" transform="matrix(0.179406,0,0,0.179599,244.48816,762.210185)"><image width="1780" xlink:href="file:///Users/erikbelt/Desktop/Mood Tracking App/AdCreator/image-generation-service/assets/3xiPhone_HS_CTA-img6-9b479add.png" height="480" preserveAspectRatio="xMidYMid meet"/><mask id="5e97848e2a"><g><image width="1780" xlink:href="file:///Users/erikbelt/Desktop/Mood Tracking App/AdCreator/image-generation-service/assets/3xiPhone_HS_CTA-img7-3fe7cb58.png" height="480" preserveAspectRatio="xMidYMid meet"/></g></mask></g></g><g clip-rule="nonzero" clip-path="url(#cca9cfad3c)"><g clip-rule="nonzero" clip-path="url(#0277c35b8b)"><g transform="matrix(0.771918,0,0,0.771902,64.030009,358.226472)"><image width="1438" xlink:href="PLACE_SCREENSHOT_3_HERE" height="560" preserveAspectRatio="xMidYMid meet"/></g></g></g><g clip-rule="nonzero" clip-path="url(#00e0eaeb52)"><g clip-rule="nonzero" clip-path="url(#2f3b58e725)"><g transform="matrix(0.771918,0,0,0.771902,-364.279769,358.226472)"><image width="1438" xlink:href="PLACE_SCREENSHOT_2_HERE" height="560" preserveAspectRatio="xMidYMid meet"/></g></g></g><g clip-rule="nonzero" clip-path="url(#2d906775da)"><g mask="url(#28e0b09d88)" transform="matrix(0,0.172235,-0.172375,0,566.253661,328.289841)"><image width="3051" xlink:href="file:///Users/erikbelt/Desktop/Mood Tracking App/AdCreator/image-generation-service/assets/3xiPhone_HS_CTA-img8-4cb883d6.png" height="1870" preserveAspectRatio="xMidYMid meet"/><mask id="28e0b09d88"><g><image width="3051" xlink:href="file:///Users/erikbelt/Desktop/Mood Tracking App/AdCreator/image-generation-service/assets/3xiPhone_HS_CTA-img9-f224de8c.png" height="1870" preserveAspectRatio="xMidYMid meet"/></g></mask></g></g><g clip-rule="nonzero" clip-path="url(#b89915c65c)"><g mask="url(#6fb8e5d8de)" transform="matrix(0.162138,0,0,0.16192,285.944077,328.290818)"><image width="1461" xlink:href="file:///Users/erikbelt/Desktop/Mood Tracking App/AdCreator/image-generation-service/assets/3xiPhone_HS_CTA-img10-cb3a4bf0.png" height="3000" preserveAspectRatio="xMidYMid meet"/><mask id="6fb8e5d8de"><g transform="matrix(1,0,0,1,0,-0.000000000000227374)"><image width="1461" xlink:href="file:///Users/erikbelt/Desktop/Mood Tracking App/AdCreator/image-generation-service/assets/3xiPhone_HS_CTA-img11-be2572f6.png" height="3000" preserveAspectRatio="xMidYMid meet"/></g></mask></g></g><g clip-rule="nonzero" clip-path="url(#ca1e860244)"><g clip-rule="nonzero" clip-path="url(#b614108014)"><g transform="matrix(0.841683,0,0,0.841665,-200.615973,335.510676)"><image width="1438" xlink:href="PLACE_SCREENSHOT_1_HERE" height="560" preserveAspectRatio="xMidYMid meet"/></g></g></g><g clip-rule="nonzero" clip-path="url(#161a9ccff9)"><g clip-rule="nonzero" clip-path="url(#3ae01cee4c)"><path style="fill:none;stroke-width:4;stroke-linecap:butt;stroke-linejoin:miter;stroke:#ffffff;stroke-opacity:1;stroke-miterlimit:4;" d="M 40.795284 0.000637824 L 339.267737 0.000637824 C 361.798188 0.000637824 380.060205 18.262655 380.060205 40.798318 C 380.060205 63.328769 361.798188 81.590787 339.267737 81.590787 L 40.795284 81.590787 C 18.264833 81.590787 -0.00239624 63.328769 -0.00239624 40.798318 C -0.00239624 18.262655 18.264833 0.000637824 40.795284 0.000637824 Z M 40.795284 0.000637824 " transform="matrix(0.749506,0,0,0.749506,262.544765,879.468272)"/></g></g></g></svg>