<svg xmlns="http://www.w3.org/2000/svg" xmlns:xlink="http://www.w3.org/1999/xlink" width="1080" zoomAndPan="magnify" viewBox="0 0 810 809.999993" height="1080" preserveAspectRatio="xMidYMid meet" version="1.2"><defs><clipPath id="f4b1797152"><path d="M 0 1.34375 L 810 1.34375 L 810 810 L 0 810 Z M 0 1.34375 "/></clipPath><filter x="0%" y="0%" width="100%" filterUnits="objectBoundingBox" id="54c8af285e" height="100%"><feColorMatrix values="0 0 0 0 1 0 0 0 0 1 0 0 0 0 1 0 0 0 1 0" type="matrix" in="SourceGraphic"/></filter><clipPath id="04f48e4457"><path d="M 0.613281 0.570312 L 521.386719 0.570312 L 521.386719 555.929688 L 0.613281 555.929688 Z M 0.613281 0.570312 "/></clipPath><clipPath id="77a97e84b0"><path d="M 485.304688 555.429688 L 36.695312 555.429688 C 16.8125 555.429688 0.613281 539.230469 0.613281 519.347656 L 0.613281 36.652344 C 0.613281 16.769531 16.8125 0.570312 36.695312 0.570312 L 485.304688 0.570312 C 505.1875 0.570312 521.386719 16.769531 521.386719 36.652344 L 521.386719 519.347656 C 521.386719 539.230469 505.1875 555.429688 485.304688 555.429688 Z M 485.304688 555.429688 "/></clipPath><clipPath id="9374714d23"><rect x="0" width="522" y="0" height="557"/></clipPath><clipPath id="97fc4b7322"><path d="M 304.097656 92 L 505.847656 92 L 505.847656 163 L 304.097656 163 Z M 304.097656 92 "/></clipPath><clipPath id="b2decc5e2f"><path d="M 247.792969 350 L 268 350 L 268 370.589844 L 247.792969 370.589844 Z M 247.792969 350 "/></clipPath><clipPath id="ce476e9df9"><path d="M 251 349.589844 L 268.042969 349.589844 L 268.042969 367 L 251 367 Z M 251 349.589844 "/></clipPath><clipPath id="1c681c3c49"><path d="M 247.792969 398 L 268 398 L 268 418.269531 L 247.792969 418.269531 Z M 247.792969 398 "/></clipPath><clipPath id="8e9846888c"><path d="M 251 397.269531 L 268.042969 397.269531 L 268.042969 415 L 251 415 Z M 251 397.269531 "/></clipPath><clipPath id="1c26db0eb9"><path d="M 247.792969 446 L 268 446 L 268 466.65625 L 247.792969 466.65625 Z M 247.792969 446 "/></clipPath><clipPath id="f37dbef889"><path d="M 251 445.65625 L 268.042969 445.65625 L 268.042969 463 L 251 463 Z M 251 445.65625 "/></clipPath><clipPath id="89bc371ad7"><path d="M 247.792969 495 L 268 495 L 268 515 L 247.792969 515 Z M 247.792969 495 "/></clipPath><clipPath id="f13eb27bd8"><path d="M 251 494.039062 L 268.042969 494.039062 L 268.042969 511 L 251 511 Z M 251 494.039062 "/></clipPath><clipPath id="cd2418219c"><path d="M 247.792969 542 L 268 542 L 268 562.722656 L 247.792969 562.722656 Z M 247.792969 542 "/></clipPath><clipPath id="861ae816bc"><path d="M 251 541.722656 L 268.042969 541.722656 L 268.042969 559 L 251 559 Z M 251 541.722656 "/></clipPath><clipPath id="68386439d1"><path d="M 375.195312 98 L 434.804688 98 L 434.804688 157 L 375.195312 157 Z M 375.195312 98 "/></clipPath><clipPath id="5ac9111e51"><path d="M 405 97.765625 C 388.539062 97.765625 375.195312 111.109375 375.195312 127.570312 C 375.195312 144.027344 388.539062 157.371094 405 157.371094 C 421.460938 157.371094 434.804688 144.027344 434.804688 127.570312 C 434.804688 111.109375 421.460938 97.765625 405 97.765625 Z M 405 97.765625 "/></clipPath></defs><g id="28f0d58b84"><rect x="0" width="810" y="0" height="809.999993" style="fill:#ffffff;fill-opacity:1;stroke:none;"/><rect x="0" width="810" y="0" height="809.999993" style="fill:#ffffff;fill-opacity:1;stroke:none;"/><g clip-rule="nonzero" clip-path="url(#f4b1797152)"><g transform="matrix(1.445611,0,0,1.446428,-634.982125,1.343996)"><image width="1438" xlink:href="PLACE_PRODUCT_IMAGE_1_HERE" height="560" preserveAspectRatio="xMidYMid meet"/></g></g><g mask="url(#17efb059c4)" transform="matrix(1,0,0,1,144,127)"><g clip-path="url(#9374714d23)"><g clip-rule="nonzero" clip-path="url(#04f48e4457)"><g clip-rule="nonzero" clip-path="url(#77a97e84b0)"><path style=" stroke:none;fill-rule:nonzero;fill:#ffffff;fill-opacity:1;" d="M 0.613281 0.570312 L 521.386719 0.570312 L 521.386719 555.929688 L 0.613281 555.929688 Z M 0.613281 0.570312 "/></g></g></g><mask id="17efb059c4"><g filter="url(#54c8af285e)"><rect x="0" width="810" y="0" height="809.999993" style="fill:#000000;fill-opacity:0.86;stroke:none;"/></g></mask></g><g clip-rule="nonzero" clip-path="url(#97fc4b7322)"><path style=" stroke:none;fill-rule:nonzero;fill:COLOR_BRANDCOLOR;fill-opacity:1;" d="M 505.847656 127.351562 C 505.847656 146.859375 490.046875 162.597656 470.464844 162.597656 L 339.476562 162.597656 C 319.898438 162.730469 304.097656 146.859375 304.097656 127.351562 C 304.097656 107.847656 319.898438 92.109375 339.476562 92.109375 L 470.332031 92.109375 C 490.046875 92.109375 505.847656 107.847656 505.847656 127.351562 Z M 505.847656 127.351562 "/></g><g clip-rule="nonzero" clip-path="url(#b2decc5e2f)"><path style=" stroke:none;fill-rule:evenodd;fill:COLOR_BRANDCOLOR;fill-opacity:1;" d="M 257.683594 350.753906 C 252.238281 350.753906 247.804688 355.1875 247.804688 360.632812 C 247.804688 366.082031 252.238281 370.515625 257.683594 370.515625 C 263.128906 370.515625 267.566406 366.082031 267.566406 360.632812 C 267.566406 358.28125 266.769531 356.175781 265.414062 354.449219 L 264.484375 355.550781 C 265.664062 357.003906 266.125 358.617188 266.125 360.632812 C 266.125 365.300781 262.351562 369.074219 257.683594 369.074219 C 253.015625 369.074219 249.242188 365.300781 249.242188 360.632812 C 249.242188 355.96875 253.015625 352.191406 257.683594 352.191406 C 259.164062 352.191406 260.269531 352.40625 261.476562 353.074219 L 262.359375 351.910156 C 260.945312 351.128906 259.410156 350.753906 257.683594 350.753906 Z M 257.683594 350.753906 "/></g><g clip-rule="nonzero" clip-path="url(#ce476e9df9)"><path style=" stroke:none;fill-rule:nonzero;fill:COLOR_BRANDCOLOR;fill-opacity:1;" d="M 254.027344 359.335938 C 254.425781 359.335938 254.726562 359.664062 254.929688 360.316406 C 255.339844 361.542969 255.628906 362.15625 255.804688 362.15625 C 255.9375 362.15625 256.074219 362.054688 256.21875 361.847656 C 259.089844 357.25 261.746094 353.53125 264.1875 350.691406 C 264.820312 349.957031 265.828125 349.589844 267.207031 349.589844 C 267.53125 349.589844 267.753906 349.621094 267.863281 349.679688 C 267.976562 349.742188 268.035156 349.820312 268.035156 349.910156 C 268.035156 350.054688 267.863281 350.335938 267.527344 350.753906 C 263.585938 355.492188 259.925781 360.5 256.554688 365.773438 C 256.320312 366.140625 255.839844 366.324219 255.113281 366.324219 C 254.378906 366.324219 253.945312 366.292969 253.8125 366.230469 C 253.464844 366.078125 253.054688 365.296875 252.585938 363.886719 C 252.054688 362.324219 251.789062 361.34375 251.789062 360.945312 C 251.789062 360.515625 252.148438 360.101562 252.863281 359.703125 C 253.300781 359.457031 253.691406 359.335938 254.027344 359.335938 "/></g><g clip-rule="nonzero" clip-path="url(#1c681c3c49)"><path style=" stroke:none;fill-rule:evenodd;fill:COLOR_BRANDCOLOR;fill-opacity:1;" d="M 257.683594 398.4375 C 252.238281 398.4375 247.804688 402.871094 247.804688 408.316406 C 247.804688 413.761719 252.238281 418.199219 257.683594 418.199219 C 263.128906 418.199219 267.566406 413.761719 267.566406 408.316406 C 267.566406 405.960938 266.769531 403.855469 265.414062 402.132812 L 264.484375 403.234375 C 265.664062 404.6875 266.125 406.300781 266.125 408.316406 C 266.125 412.984375 262.351562 416.757812 257.683594 416.757812 C 253.015625 416.757812 249.242188 412.984375 249.242188 408.316406 C 249.242188 403.648438 253.015625 399.875 257.683594 399.875 C 259.164062 399.875 260.269531 400.085938 261.476562 400.753906 L 262.359375 399.59375 C 260.945312 398.8125 259.410156 398.4375 257.683594 398.4375 Z M 257.683594 398.4375 "/></g><g clip-rule="nonzero" clip-path="url(#8e9846888c)"><path style=" stroke:none;fill-rule:nonzero;fill:COLOR_BRANDCOLOR;fill-opacity:1;" d="M 254.027344 407.019531 C 254.425781 407.019531 254.726562 407.34375 254.929688 408 C 255.339844 409.222656 255.628906 409.835938 255.804688 409.835938 C 255.9375 409.835938 256.074219 409.734375 256.21875 409.53125 C 259.089844 404.933594 261.746094 401.214844 264.1875 398.375 C 264.820312 397.640625 265.828125 397.269531 267.207031 397.269531 C 267.53125 397.269531 267.753906 397.300781 267.863281 397.363281 C 267.976562 397.425781 268.035156 397.5 268.035156 397.59375 C 268.035156 397.734375 267.863281 398.015625 267.527344 398.4375 C 263.585938 403.175781 259.925781 408.183594 256.554688 413.453125 C 256.320312 413.820312 255.839844 414.003906 255.113281 414.003906 C 254.378906 414.003906 253.945312 413.976562 253.8125 413.914062 C 253.464844 413.761719 253.054688 412.980469 252.585938 411.570312 C 252.054688 410.007812 251.789062 409.023438 251.789062 408.625 C 251.789062 408.199219 252.148438 407.785156 252.863281 407.386719 C 253.300781 407.140625 253.691406 407.019531 254.027344 407.015625 "/></g><g clip-rule="nonzero" clip-path="url(#1c26db0eb9)"><path style=" stroke:none;fill-rule:evenodd;fill:COLOR_BRANDCOLOR;fill-opacity:1;" d="M 257.683594 446.820312 C 252.238281 446.820312 247.804688 451.253906 247.804688 456.699219 C 247.804688 462.148438 252.238281 466.582031 257.683594 466.582031 C 263.128906 466.582031 267.566406 462.148438 267.566406 456.699219 C 267.566406 454.347656 266.769531 452.242188 265.414062 450.515625 L 264.484375 451.617188 C 265.664062 453.070312 266.125 454.683594 266.125 456.699219 C 266.125 461.367188 262.351562 465.140625 257.683594 465.140625 C 253.015625 465.140625 249.242188 461.367188 249.242188 456.699219 C 249.242188 452.035156 253.015625 448.257812 257.683594 448.257812 C 259.164062 448.257812 260.269531 448.472656 261.476562 449.136719 L 262.359375 447.976562 C 260.945312 447.195312 259.410156 446.820312 257.683594 446.820312 Z M 257.683594 446.820312 "/></g><g clip-rule="nonzero" clip-path="url(#f37dbef889)"><path style=" stroke:none;fill-rule:nonzero;fill:COLOR_BRANDCOLOR;fill-opacity:1;" d="M 254.027344 455.402344 C 254.425781 455.402344 254.726562 455.726562 254.929688 456.382812 C 255.339844 457.609375 255.628906 458.222656 255.804688 458.222656 C 255.9375 458.222656 256.074219 458.117188 256.21875 457.914062 C 259.089844 453.316406 261.746094 449.597656 264.1875 446.757812 C 264.820312 446.023438 265.828125 445.65625 267.207031 445.65625 C 267.53125 445.65625 267.753906 445.683594 267.863281 445.746094 C 267.976562 445.808594 268.035156 445.882812 268.035156 445.976562 C 268.035156 446.121094 267.863281 446.402344 267.527344 446.820312 C 263.585938 451.558594 259.925781 456.566406 256.554688 461.835938 C 256.320312 462.207031 255.839844 462.390625 255.113281 462.390625 C 254.378906 462.390625 253.945312 462.359375 253.8125 462.296875 C 253.464844 462.144531 253.054688 461.363281 252.585938 459.953125 C 252.054688 458.390625 251.789062 457.410156 251.789062 457.011719 C 251.789062 456.582031 252.148438 456.167969 252.863281 455.769531 C 253.300781 455.523438 253.691406 455.402344 254.027344 455.402344 "/></g><g clip-rule="nonzero" clip-path="url(#89bc371ad7)"><path style=" stroke:none;fill-rule:evenodd;fill:COLOR_BRANDCOLOR;fill-opacity:1;" d="M 257.683594 495.203125 C 252.238281 495.203125 247.804688 499.636719 247.804688 505.085938 C 247.804688 510.53125 252.238281 514.964844 257.683594 514.964844 C 263.128906 514.964844 267.566406 510.53125 267.566406 505.085938 C 267.566406 502.730469 266.769531 500.625 265.414062 498.898438 L 264.484375 500 C 265.664062 501.453125 266.125 503.066406 266.125 505.085938 C 266.125 509.75 262.351562 513.523438 257.683594 513.523438 C 253.015625 513.523438 249.242188 509.75 249.242188 505.085938 C 249.242188 500.417969 253.015625 496.640625 257.683594 496.640625 C 259.164062 496.640625 260.269531 496.855469 261.476562 497.523438 L 262.359375 496.359375 C 260.945312 495.582031 259.410156 495.203125 257.683594 495.203125 Z M 257.683594 495.203125 "/></g><g clip-rule="nonzero" clip-path="url(#f13eb27bd8)"><path style=" stroke:none;fill-rule:nonzero;fill:COLOR_BRANDCOLOR;fill-opacity:1;" d="M 254.027344 503.785156 C 254.425781 503.785156 254.726562 504.113281 254.929688 504.765625 C 255.339844 505.992188 255.628906 506.605469 255.804688 506.605469 C 255.9375 506.605469 256.074219 506.503906 256.21875 506.296875 C 259.089844 501.699219 261.746094 497.980469 264.1875 495.140625 C 264.820312 494.40625 265.828125 494.039062 267.207031 494.039062 C 267.53125 494.039062 267.753906 494.070312 267.863281 494.128906 C 267.976562 494.191406 268.035156 494.269531 268.035156 494.359375 C 268.035156 494.503906 267.863281 494.785156 267.527344 495.203125 C 263.585938 499.945312 259.925781 504.949219 256.554688 510.222656 C 256.320312 510.589844 255.839844 510.773438 255.113281 510.773438 C 254.378906 510.773438 253.945312 510.742188 253.8125 510.679688 C 253.464844 510.527344 253.054688 509.746094 252.585938 508.335938 C 252.054688 506.773438 251.789062 505.792969 251.789062 505.394531 C 251.789062 504.964844 252.148438 504.550781 252.863281 504.152344 C 253.300781 503.90625 253.691406 503.785156 254.027344 503.785156 "/></g><g clip-rule="nonzero" clip-path="url(#cd2418219c)"><path style=" stroke:none;fill-rule:evenodd;fill:COLOR_BRANDCOLOR;fill-opacity:1;" d="M 257.683594 542.886719 C 252.238281 542.886719 247.804688 547.320312 247.804688 552.765625 C 247.804688 558.214844 252.238281 562.648438 257.683594 562.648438 C 263.128906 562.648438 267.566406 558.214844 267.566406 552.765625 C 267.566406 550.410156 266.769531 548.304688 265.414062 546.582031 L 264.484375 547.683594 C 265.664062 549.136719 266.125 550.75 266.125 552.765625 C 266.125 557.433594 262.351562 561.207031 257.683594 561.207031 C 253.015625 561.207031 249.242188 557.433594 249.242188 552.765625 C 249.242188 548.097656 253.015625 544.324219 257.683594 544.324219 C 259.164062 544.324219 260.269531 544.539062 261.476562 545.203125 L 262.359375 544.042969 C 260.945312 543.261719 259.410156 542.886719 257.683594 542.886719 Z M 257.683594 542.886719 "/></g><g clip-rule="nonzero" clip-path="url(#861ae816bc)"><path style=" stroke:none;fill-rule:nonzero;fill:COLOR_BRANDCOLOR;fill-opacity:1;" d="M 254.027344 551.46875 C 254.425781 551.46875 254.726562 551.792969 254.929688 552.449219 C 255.339844 553.675781 255.628906 554.285156 255.804688 554.285156 C 255.9375 554.285156 256.074219 554.183594 256.21875 553.980469 C 259.089844 549.382812 261.746094 545.664062 264.1875 542.824219 C 264.820312 542.089844 265.828125 541.722656 267.207031 541.722656 C 267.53125 541.722656 267.753906 541.75 267.863281 541.8125 C 267.976562 541.875 268.035156 541.949219 268.035156 542.042969 C 268.035156 542.1875 267.863281 542.464844 267.527344 542.886719 C 263.585938 547.625 259.925781 552.632812 256.554688 557.902344 C 256.320312 558.269531 255.839844 558.457031 255.113281 558.457031 C 254.378906 558.457031 253.945312 558.425781 253.8125 558.363281 C 253.464844 558.210938 253.054688 557.429688 252.585938 556.019531 C 252.054688 554.457031 251.789062 553.476562 251.789062 553.078125 C 251.789062 552.648438 252.148438 552.234375 252.863281 551.835938 C 253.300781 551.589844 253.691406 551.46875 254.027344 551.46875 "/></g><g clip-rule="nonzero" clip-path="url(#68386439d1)"><g clip-rule="nonzero" clip-path="url(#5ac9111e51)"><g transform="matrix(0.106379,0,0,0.106439,328.470016,97.766199)"><image width="1438" xlink:href="PLACE_LOGO_HERE" height="560" preserveAspectRatio="xMidYMid meet"/></g></g></g></g></svg>