<svg xmlns="http://www.w3.org/2000/svg" xmlns:xlink="http://www.w3.org/1999/xlink" width="1080" zoomAndPan="magnify" viewBox="0 0 810 809.999993" height="1080" preserveAspectRatio="xMidYMid meet" version="1.2"><defs><clipPath id="2212633eb7"><path d="M 64.261719 535.300781 L 205 535.300781 L 205 585 L 64.261719 585 Z M 64.261719 535.300781 "/></clipPath><clipPath id="9697f4d400"><path d="M 64.261719 640.910156 L 92 640.910156 L 92 668.660156 L 64.261719 668.660156 Z M 64.261719 640.910156 "/></clipPath><clipPath id="b3a6fffa7e"><path d="M 70.148438 646.796875 L 85.898438 646.796875 L 85.898438 662.546875 L 70.148438 662.546875 Z M 70.148438 646.796875 "/></clipPath><clipPath id="6fabc7fb10"><path d="M 634.351562 0 L 810 0 L 810 470 L 634.351562 470 Z M 634.351562 0 "/></clipPath><clipPath id="dc71e32920"><path d="M 604.007812 114.390625 L 779.65625 114.390625 L 779.65625 472.726562 L 604.007812 472.726562 Z M 604.007812 114.390625 "/></clipPath><clipPath id="eee36db082"><path d="M 422.25 624 L 573 624 L 573 774 L 422.25 774 Z M 422.25 624 "/></clipPath><clipPath id="f461570c84"><path d="M 422.25 623.703125 L 573 623.703125 L 573 774.453125 L 422.25 774.453125 Z M 422.25 623.703125 "/></clipPath><clipPath id="7e2de54bc7"><path d="M 489.71875 135.421875 L 754.847656 135.421875 L 754.847656 723.675781 L 489.71875 723.675781 Z M 489.71875 135.421875 "/></clipPath><clipPath id="5bac725d1e"><path d="M 659.207031 723.863281 L 489.71875 723.863281 L 489.71875 231.0625 C 489.71875 178.175781 532.472656 135.421875 585.359375 135.421875 L 754.847656 135.421875 L 754.847656 628.222656 C 754.847656 681.109375 712.09375 723.863281 659.207031 723.863281 Z M 659.207031 723.863281 "/></clipPath><clipPath id="1840adfaff"><path d="M 0 705.882812 L 128.074219 705.882812 L 128.074219 810 L 0 810 Z M 0 705.882812 "/></clipPath><clipPath id="8ef6ffb17f"><path d="M -135.625 887.292969 C -136.367188 885.3125 -136.984375 883.210938 -137.601562 881.230469 L 31.925781 711.699219 C 33.90625 712.320312 36.011719 712.9375 37.988281 713.679688 Z M 12.128906 707.371094 C 9.777344 707 7.300781 706.75 4.949219 706.503906 L -142.925781 854.378906 C -142.675781 856.730469 -142.429688 859.203125 -142.058594 861.554688 Z M 69.792969 730.136719 C 68.183594 729.023438 66.574219 727.910156 64.964844 726.921875 L -122.507812 914.394531 C -121.515625 916.003906 -120.402344 917.613281 -119.289062 919.21875 Z M 49.375 718.382812 C 47.519531 717.515625 45.664062 716.652344 43.804688 715.90625 L -133.394531 893.109375 C -132.652344 894.964844 -131.789062 896.824219 -130.921875 898.679688 Z M 59.894531 723.953125 C 58.160156 722.960938 56.429688 721.972656 54.695312 721.105469 L -128.445312 904.246094 C -127.578125 905.980469 -126.589844 907.710938 -125.601562 909.445312 Z M -62.242188 717.269531 C -68.058594 719.867188 -73.75 722.835938 -79.195312 726.179688 L -123.25 770.230469 C -126.714844 775.675781 -129.683594 781.367188 -132.160156 787.183594 Z M -10.640625 705.882812 L -143.542969 838.785156 C -143.542969 841.507812 -143.542969 844.105469 -143.417969 846.828125 L -2.722656 706.007812 C -5.320312 705.882812 -8.042969 705.882812 -10.640625 705.882812 Z M 128.074219 841.011719 L -8.414062 977.503906 C -5.691406 977.503906 -2.84375 977.503906 -0.125 977.257812 L 127.828125 849.304688 C 127.953125 846.582031 128.074219 843.734375 128.074219 841.011719 Z M 78.949219 737.191406 C 77.464844 735.953125 75.980469 734.71875 74.496094 733.605469 L -115.824219 923.921875 C -114.710938 925.40625 -113.472656 926.890625 -112.234375 928.378906 Z M -19.179688 706.378906 C -22.273438 706.628906 -25.242188 707 -28.335938 707.492188 L -141.933594 821.089844 C -142.429688 824.183594 -142.800781 827.152344 -143.046875 830.246094 Z M -38.238281 709.347656 C -41.949219 710.214844 -45.660156 711.207031 -49.375 712.441406 L -137.109375 800.054688 C -138.222656 803.765625 -139.335938 807.355469 -140.203125 811.191406 Z M 25.492188 709.96875 C 23.265625 709.472656 21.160156 708.976562 18.933594 708.484375 L -140.945312 868.359375 C -140.449219 870.589844 -139.953125 872.691406 -139.460938 874.917969 Z M 125.601562 867.617188 C 126.21875 864.402344 126.714844 861.308594 127.085938 858.089844 L 8.664062 976.515625 C 11.878906 976.140625 15.097656 975.648438 18.191406 975.027344 Z M 127.828125 833.21875 C 127.703125 830.742188 127.457031 828.269531 127.210938 825.792969 L -23.632812 976.515625 C -21.160156 976.761719 -18.683594 977.007812 -16.210938 977.132812 Z M 126.097656 818.738281 C 125.726562 816.511719 125.230469 814.285156 124.734375 812.058594 L -37.492188 974.164062 C -35.265625 974.65625 -33.039062 975.152344 -30.8125 975.523438 Z M 87.363281 744.742188 C 86.003906 743.378906 84.640625 742.140625 83.28125 740.78125 L -108.523438 932.585938 C -107.285156 933.945312 -105.925781 935.308594 -104.5625 936.667969 Z M 95.285156 930.109375 C 102.089844 922.191406 107.78125 913.773438 112.484375 904.867188 L 55.4375 961.910156 C 64.347656 957.210938 72.761719 951.515625 80.683594 944.710938 Z M 123.125 805.621094 C 122.507812 803.519531 121.890625 801.539062 121.269531 799.433594 L -49.992188 970.699219 C -47.886719 971.316406 -45.910156 971.933594 -43.804688 972.554688 Z M 119.167969 890.265625 C 120.652344 886.304688 122.011719 882.34375 123.125 878.261719 L 28.832031 972.554688 C 32.917969 971.441406 36.875 970.078125 40.835938 968.59375 Z M 102.335938 762.066406 C 101.222656 760.578125 100.109375 758.972656 98.871094 757.484375 L -91.941406 948.175781 C -90.457031 949.414062 -88.847656 950.527344 -87.363281 951.640625 Z M 119.167969 793.496094 C 118.425781 791.515625 117.679688 789.660156 116.816406 787.804688 L -61.746094 966.367188 C -59.890625 967.234375 -57.910156 967.976562 -56.054688 968.71875 Z M 95.160156 753.03125 C 93.921875 751.546875 92.683594 750.183594 91.324219 748.824219 L -100.605469 940.75 C -99.242188 942.113281 -97.757812 943.351562 -96.394531 944.585938 Z M 108.648438 771.714844 C 107.660156 770.109375 106.667969 768.375 105.554688 766.765625 L -82.660156 954.980469 C -81.050781 956.097656 -79.441406 957.085938 -77.710938 958.074219 Z M 114.339844 782.234375 C 113.472656 780.503906 112.609375 778.644531 111.617188 776.914062 L -72.511719 961.046875 C -70.78125 962.035156 -69.046875 962.902344 -67.191406 963.769531 Z M 114.339844 782.234375 "/></clipPath><filter x="0%" y="0%" width="100%" filterUnits="objectBoundingBox" id="fcf84f74c5" height="100%"><feColorMatrix values="0 0 0 0 1 0 0 0 0 1 0 0 0 0 1 0 0 0 1 0" type="matrix" in="SourceGraphic"/></filter><clipPath id="785f7124a1"><path d="M 0.253906 78 L 22 78 L 22 100 L 0.253906 100 Z M 0.253906 78 "/></clipPath><clipPath id="de48868ea1"><path d="M 5 0.117188 L 38 0.117188 L 38 33 L 5 33 Z M 5 0.117188 "/></clipPath><clipPath id="8dcab08f94"><path d="M 53 131 L 69 131 L 69 145.617188 L 53 145.617188 Z M 53 131 "/></clipPath><clipPath id="6fb615edb5"><rect x="0" width="98" y="0" height="146"/></clipPath><clipPath id="44429e3a7b"><path d="M 69.300781 34 L 163.75 34 L 163.75 128 L 69.300781 128 Z M 69.300781 34 "/></clipPath><clipPath id="6d2505def0"><path d="M 116.523438 33.777344 C 90.441406 33.777344 69.300781 54.917969 69.300781 81 C 69.300781 107.082031 90.441406 128.222656 116.523438 128.222656 C 142.605469 128.222656 163.75 107.082031 163.75 81 C 163.75 54.917969 142.605469 33.777344 116.523438 33.777344 Z M 116.523438 33.777344 "/></clipPath></defs><g id="cdcc1113b4"><rect x="0" width="810" y="0" height="809.999993" style="fill:#ffffff;fill-opacity:1;stroke:none;"/><rect x="0" width="810" y="0" height="809.999993" style="fill:#ffffff;fill-opacity:1;stroke:none;"/><g clip-rule="nonzero" clip-path="url(#2212633eb7)"><path style=" stroke:none;fill-rule:nonzero;fill:COLOR_BRANDCOLOR;fill-opacity:1;" d="M 204.886719 560.304688 C 204.886719 573.953125 193.871094 584.964844 180.222656 584.964844 L 88.921875 584.964844 C 75.273438 585.058594 64.261719 573.953125 64.261719 560.304688 C 64.261719 546.65625 75.273438 535.644531 88.921875 535.644531 L 180.128906 535.644531 C 193.871094 535.644531 204.886719 546.65625 204.886719 560.304688 Z M 204.886719 560.304688 "/></g><g clip-rule="nonzero" clip-path="url(#9697f4d400)"><path style=" stroke:none;fill-rule:nonzero;fill:COLOR_BRANDCOLOR;fill-opacity:1;" d="M 91.730469 654.644531 C 91.730469 662.230469 85.578125 668.378906 77.996094 668.378906 C 70.410156 668.378906 64.261719 662.230469 64.261719 654.644531 C 64.261719 647.058594 70.410156 640.910156 77.996094 640.910156 C 85.578125 640.910156 91.730469 647.058594 91.730469 654.644531 Z M 91.730469 654.644531 "/></g><g clip-rule="nonzero" clip-path="url(#b3a6fffa7e)"><path style=" stroke:none;fill-rule:nonzero;fill:#ffffff;fill-opacity:1;" d="M 77.992188 646.796875 C 73.667969 646.796875 70.148438 650.316406 70.148438 654.640625 C 70.148438 658.96875 73.667969 662.488281 77.992188 662.488281 C 82.316406 662.488281 85.835938 658.96875 85.835938 654.640625 C 85.835938 650.316406 82.316406 646.796875 77.992188 646.796875 Z M 78.238281 651.03125 C 79.242188 651.003906 80.367188 650.890625 81.582031 650.640625 C 82.019531 651.707031 82.265625 652.96875 82.304688 654.394531 L 78.238281 654.394531 Z M 78.238281 650.539062 L 78.238281 647.316406 C 78.53125 647.402344 79.34375 647.691406 80.164062 648.492188 C 80.648438 648.960938 81.050781 649.527344 81.375 650.183594 C 80.238281 650.410156 79.183594 650.511719 78.238281 650.539062 Z M 77.746094 650.546875 C 76.882812 650.546875 76.121094 650.480469 75.488281 650.394531 C 75.164062 650.351562 74.859375 650.300781 74.578125 650.246094 C 74.902344 649.574219 75.308594 648.992188 75.796875 648.511719 C 76.621094 647.703125 77.449219 647.402344 77.746094 647.316406 Z M 75.398438 650.878906 C 76.058594 650.96875 76.847656 651.039062 77.746094 651.039062 L 77.746094 654.394531 L 73.679688 654.394531 C 73.71875 652.996094 73.953125 651.753906 74.375 650.707031 C 74.6875 650.769531 75.03125 650.828125 75.398438 650.878906 Z M 73.191406 654.394531 L 70.644531 654.394531 C 70.699219 652.773438 71.28125 651.277344 72.226562 650.085938 C 72.496094 650.195312 73.066406 650.40625 73.890625 650.601562 C 73.390625 651.882812 73.21875 653.25 73.191406 654.394531 Z M 73.1875 654.886719 C 73.195312 656.410156 73.449219 657.621094 73.824219 658.582031 C 73.273438 658.710938 72.703125 658.871094 72.121094 659.0625 C 71.238281 657.894531 70.695312 656.453125 70.644531 654.886719 Z M 73.675781 654.886719 L 77.746094 654.886719 L 77.746094 658.066406 C 76.714844 658.09375 75.558594 658.210938 74.308594 658.472656 C 73.902344 657.449219 73.6875 656.246094 73.675781 654.886719 Z M 77.746094 658.558594 L 77.746094 661.855469 C 77.351562 661.734375 76.597656 661.429688 75.851562 660.753906 C 75.300781 660.257812 74.855469 659.648438 74.507812 658.933594 C 75.6875 658.695312 76.773438 658.585938 77.746094 658.558594 Z M 78.238281 658.550781 C 79.101562 658.550781 79.863281 658.617188 80.496094 658.703125 C 80.859375 658.75 81.195312 658.808594 81.503906 658.871094 C 81.160156 659.601562 80.707031 660.226562 80.15625 660.734375 C 79.402344 661.421875 78.636719 661.730469 78.238281 661.855469 Z M 80.585938 658.21875 C 79.925781 658.128906 79.136719 658.058594 78.238281 658.058594 L 78.238281 654.886719 L 82.308594 654.886719 C 82.296875 656.21875 82.09375 657.402344 81.703125 658.410156 C 81.363281 658.339844 80.992188 658.273438 80.585938 658.21875 Z M 82.796875 654.886719 L 85.339844 654.886719 C 85.289062 656.449219 84.75 657.890625 83.867188 659.058594 C 83.671875 658.972656 83.089844 658.742188 82.183594 658.519531 C 82.648438 657.289062 82.789062 655.988281 82.796875 654.886719 Z M 82.792969 654.394531 C 82.761719 653.230469 82.585938 651.839844 82.070312 650.535156 C 82.613281 650.410156 83.171875 650.257812 83.746094 650.070312 C 84.699219 651.265625 85.285156 652.765625 85.339844 654.394531 Z M 83.398438 649.664062 C 82.875 649.828125 82.367188 649.964844 81.871094 650.078125 C 81.539062 649.375 81.09375 648.710938 80.507812 648.136719 C 80.238281 647.878906 79.96875 647.664062 79.714844 647.492188 C 81.152344 647.839844 82.429688 648.613281 83.398438 649.664062 Z M 76.269531 647.492188 C 76.015625 647.664062 75.746094 647.878906 75.476562 648.136719 C 74.871094 648.726562 74.421875 649.414062 74.085938 650.140625 C 73.386719 649.976562 72.867188 649.800781 72.5625 649.6875 C 73.539062 648.621094 74.820312 647.84375 76.269531 647.492188 Z M 72.453125 659.472656 C 72.988281 659.300781 73.511719 659.160156 74.019531 659.042969 C 74.457031 659.988281 75.011719 660.65625 75.519531 661.117188 C 75.863281 661.425781 76.207031 661.664062 76.519531 661.847656 C 74.914062 661.519531 73.496094 660.664062 72.453125 659.472656 Z M 79.460938 661.847656 C 79.777344 661.664062 80.121094 661.425781 80.460938 661.117188 C 81.148438 660.496094 81.644531 659.761719 81.996094 658.980469 C 82.75 659.160156 83.28125 659.355469 83.542969 659.457031 C 82.5 660.65625 81.078125 661.519531 79.460938 661.847656 Z M 79.460938 661.847656 "/></g><g clip-rule="nonzero" clip-path="url(#6fabc7fb10)"><path style=" stroke:none;fill-rule:nonzero;fill:COLOR_BRANDCOLOR;fill-opacity:1;" d="M 634.351562 0 L 810 0 L 810 470 L 634.351562 470 Z M 634.351562 0 "/></g><g clip-rule="nonzero" clip-path="url(#dc71e32920)"><path style=" stroke:none;fill-rule:nonzero;fill:#ffffff;fill-opacity:1;" d="M 604.007812 114.390625 L 779.65625 114.390625 L 779.65625 472.550781 L 604.007812 472.550781 Z M 604.007812 114.390625 "/></g><g clip-rule="nonzero" clip-path="url(#eee36db082)"><path style=" stroke:none;fill-rule:nonzero;fill:COLOR_BRANDCOLOR;fill-opacity:1;" d="M 572.28125 659.734375 L 572.28125 773.679688 L 458.28125 773.679688 C 438.6875 773.730469 422.757812 757.804688 422.757812 738.160156 L 422.757812 624.210938 L 536.707031 624.210938 C 556.351562 624.210938 572.28125 640.140625 572.28125 659.734375 Z M 572.28125 659.734375 L 572.28125 773.679688 L 458.28125 773.679688 C 438.6875 773.730469 422.757812 757.804688 422.757812 738.160156 L 422.757812 624.210938 L 536.707031 624.210938 C 556.351562 624.210938 572.28125 640.140625 572.28125 659.734375 Z M 572.28125 659.734375 "/></g><g clip-rule="nonzero" clip-path="url(#f461570c84)"><path style=" stroke:none;fill-rule:nonzero;fill:#ffffff;fill-opacity:1;" d="M 572.28125 774.242188 L 458.28125 774.242188 C 438.433594 774.242188 422.25 758.058594 422.25 738.160156 L 422.25 624.210938 C 422.25 623.90625 422.453125 623.703125 422.757812 623.703125 L 536.707031 623.703125 C 556.605469 623.703125 572.738281 639.886719 572.738281 659.734375 L 572.738281 773.679688 C 572.789062 773.988281 572.535156 774.242188 572.28125 774.242188 Z M 423.269531 624.71875 L 423.269531 738.160156 C 423.269531 757.496094 438.992188 773.171875 458.28125 773.171875 L 571.71875 773.171875 L 571.71875 659.734375 C 571.71875 640.394531 555.996094 624.71875 536.707031 624.71875 Z M 423.269531 624.71875 "/></g><g clip-rule="nonzero" clip-path="url(#7e2de54bc7)"><g clip-rule="nonzero" clip-path="url(#5bac725d1e)"><g transform="matrix(1.050781,0,0,1.050452,-133.23245,135.422533)"><image width="1438" xlink:href="PLACE_PRODUCT_IMAGE_1_HERE" height="560" preserveAspectRatio="xMidYMid meet"/></g></g></g><g clip-rule="nonzero" clip-path="url(#1840adfaff)"><g clip-rule="nonzero" clip-path="url(#8ef6ffb17f)"><path style=" stroke:none;fill-rule:nonzero;fill:COLOR_CONTRAST;fill-opacity:1;" d="M -143.542969 705.882812 L 128.074219 705.882812 L 128.074219 977.503906 L -143.542969 977.503906 Z M -143.542969 705.882812 "/></g></g><g mask="url(#ebf073c360)" transform="matrix(1,0,0,1,351,47)"><g clip-path="url(#6fb615edb5)"><g clip-rule="nonzero" clip-path="url(#785f7124a1)"><path style=" stroke:none;fill-rule:nonzero;fill:COLOR_BRANDCOLOR;fill-opacity:1;" d="M 21.789062 83.066406 L 21.789062 94.472656 C 21.789062 97.265625 19.515625 99.539062 16.71875 99.539062 L 5.320312 99.539062 C 2.527344 99.539062 0.253906 97.265625 0.253906 94.472656 L 0.253906 83.066406 C 0.253906 80.273438 2.527344 78 5.320312 78 L 16.722656 78 C 19.515625 78.003906 21.789062 80.273438 21.789062 83.066406 Z M 1.410156 94.472656 C 1.410156 96.625 3.164062 98.375 5.316406 98.375 L 16.71875 98.375 C 18.875 98.375 20.625 96.625 20.625 94.472656 L 20.625 83.066406 C 20.625 80.914062 18.875 79.160156 16.71875 79.160156 L 5.320312 79.160156 C 3.167969 79.160156 1.414062 80.914062 1.414062 83.066406 L 1.414062 94.472656 Z M 1.410156 94.472656 "/></g><path style=" stroke:none;fill-rule:nonzero;fill:COLOR_BRANDCOLOR;fill-opacity:1;" d="M 81.765625 45.507812 L 81.765625 66.570312 C 81.765625 71.460938 77.789062 75.4375 72.898438 75.4375 L 51.835938 75.4375 C 46.945312 75.4375 42.96875 71.460938 42.96875 66.570312 L 42.96875 45.507812 C 42.96875 40.617188 46.945312 36.640625 51.835938 36.640625 L 72.898438 36.640625 C 77.789062 36.640625 81.765625 40.617188 81.765625 45.507812 Z M 44.125 66.570312 C 44.125 70.820312 47.582031 74.28125 51.835938 74.28125 L 72.898438 74.28125 C 77.148438 74.28125 80.609375 70.824219 80.609375 66.570312 L 80.609375 45.507812 C 80.609375 41.257812 77.152344 37.796875 72.898438 37.796875 L 51.835938 37.796875 C 47.585938 37.796875 44.125 41.253906 44.125 45.507812 Z M 44.125 66.570312 "/><g clip-rule="nonzero" clip-path="url(#de48868ea1)"><path style=" stroke:none;fill-rule:nonzero;fill:COLOR_BRANDCOLOR;fill-opacity:1;" d="M 37.273438 7.824219 L 37.273438 25.152344 C 37.273438 29.230469 33.953125 32.550781 29.875 32.550781 L 12.542969 32.550781 C 8.464844 32.550781 5.148438 29.230469 5.148438 25.152344 L 5.148438 7.824219 C 5.148438 3.746094 8.464844 0.425781 12.542969 0.425781 L 29.875 0.425781 C 33.953125 0.425781 37.273438 3.746094 37.273438 7.824219 Z M 6.304688 25.152344 C 6.304688 28.59375 9.101562 31.394531 12.539062 31.394531 L 29.875 31.394531 C 33.316406 31.394531 36.113281 28.59375 36.113281 25.152344 L 36.113281 7.824219 C 36.113281 4.378906 33.316406 1.582031 29.875 1.582031 L 12.542969 1.582031 C 9.105469 1.582031 6.308594 4.382812 6.308594 7.824219 L 6.308594 25.152344 Z M 6.304688 25.152344 "/></g><path style=" stroke:none;fill-rule:nonzero;fill:COLOR_BRANDCOLOR;fill-opacity:1;" d="M 57.265625 89.34375 L 57.265625 96.804688 C 57.265625 98.742188 55.691406 100.320312 53.753906 100.320312 L 46.292969 100.320312 C 44.351562 100.320312 42.777344 98.742188 42.777344 96.804688 L 42.777344 89.34375 C 42.777344 87.40625 44.351562 85.828125 46.292969 85.828125 L 53.753906 85.828125 C 55.691406 85.828125 57.265625 87.40625 57.265625 89.34375 Z M 43.9375 96.804688 C 43.9375 98.101562 44.996094 99.160156 46.296875 99.160156 L 53.757812 99.160156 C 55.054688 99.160156 56.113281 98.101562 56.113281 96.804688 L 56.113281 89.34375 C 56.113281 88.042969 55.054688 86.984375 53.757812 86.984375 L 46.296875 86.984375 C 44.996094 86.984375 43.9375 88.042969 43.9375 89.34375 Z M 43.9375 96.804688 "/><path style=" stroke:none;fill-rule:nonzero;fill:COLOR_BRANDCOLOR;fill-opacity:1;" d="M 96.648438 104.226562 L 96.648438 115.628906 C 96.648438 118.421875 94.375 120.695312 91.582031 120.695312 L 80.179688 120.695312 C 77.382812 120.695312 75.113281 118.421875 75.113281 115.628906 L 75.113281 104.226562 C 75.113281 101.429688 77.382812 99.15625 80.179688 99.15625 L 91.582031 99.15625 C 94.375 99.160156 96.648438 101.429688 96.648438 104.226562 Z M 76.273438 115.628906 C 76.273438 117.78125 78.023438 119.535156 80.179688 119.535156 L 91.582031 119.535156 C 93.738281 119.535156 95.488281 117.78125 95.488281 115.628906 L 95.488281 104.226562 C 95.488281 102.070312 93.738281 100.320312 91.582031 100.320312 L 80.179688 100.320312 C 78.023438 100.320312 76.273438 102.070312 76.273438 104.226562 Z M 76.273438 115.628906 "/><g clip-rule="nonzero" clip-path="url(#8dcab08f94)"><path style=" stroke:none;fill-rule:nonzero;fill:COLOR_BRANDCOLOR;fill-opacity:1;" d="M 68.265625 134.597656 L 68.265625 142.0625 C 68.265625 144 66.691406 145.574219 64.753906 145.574219 L 57.289062 145.574219 C 55.351562 145.574219 53.777344 144 53.777344 142.0625 L 53.777344 134.597656 C 53.777344 132.660156 55.351562 131.085938 57.289062 131.085938 L 64.753906 131.085938 C 66.691406 131.085938 68.265625 132.660156 68.265625 134.597656 Z M 54.933594 142.0625 C 54.933594 143.359375 55.992188 144.417969 57.289062 144.417969 L 64.753906 144.417969 C 66.050781 144.417969 67.109375 143.359375 67.109375 142.0625 L 67.109375 134.597656 C 67.109375 133.300781 66.050781 132.242188 64.753906 132.242188 L 57.289062 132.242188 C 55.992188 132.242188 54.933594 133.300781 54.933594 134.597656 Z M 54.933594 142.0625 "/></g></g><mask id="ebf073c360"><g filter="url(#fcf84f74c5)"><rect x="0" width="810" y="0" height="809.999993" style="fill:#000000;fill-opacity:0.51;stroke:none;"/></g></mask></g><g clip-rule="nonzero" clip-path="url(#44429e3a7b)"><g clip-rule="nonzero" clip-path="url(#6d2505def0)"><g transform="matrix(0.168562,0,0,0.168658,-4.740663,33.775902)"><image width="1438" xlink:href="PLACE_PRODUCT_IMAGE_2_HERE" height="560" preserveAspectRatio="xMidYMid meet"/></g></g></g></g></svg>