<svg xmlns="http://www.w3.org/2000/svg" xmlns:xlink="http://www.w3.org/1999/xlink" width="1080" zoomAndPan="magnify" viewBox="0 0 810 809.999993" height="1080" preserveAspectRatio="xMidYMid meet" version="1.2"><defs><clipPath id="c2be6d4a41"><path d="M 450.03125 0 L 810 0 L 810 313.5 L 450.03125 313.5 Z M 450.03125 0 "/></clipPath><clipPath id="0bfaaf6c1b"><path d="M 579.417969 515.515625 L 810 515.515625 L 810 810 L 579.417969 810 Z M 579.417969 515.515625 "/></clipPath><clipPath id="c6f0ef5af1"><path d="M 867.886719 515.515625 L 923.882812 595.003906 L 1012.121094 554.164062 L 1020.871094 651 L 1117.707031 659.75 L 1076.867188 747.988281 L 1156.355469 803.984375 L 1076.867188 859.980469 L 1117.707031 948.21875 L 1020.871094 956.96875 L 1012.121094 1053.808594 L 923.882812 1012.964844 L 867.886719 1092.453125 L 811.890625 1012.964844 L 723.652344 1053.808594 L 714.902344 956.96875 L 618.0625 948.21875 L 658.90625 859.980469 L 579.417969 803.984375 L 658.90625 747.988281 L 618.0625 659.75 L 714.902344 651 L 723.652344 554.164062 L 811.890625 595.003906 Z M 867.886719 515.515625 "/></clipPath><clipPath id="97cef34d5b"><path d="M 450.03125 326 L 810 326 L 810 639 L 450.03125 639 Z M 450.03125 326 "/></clipPath><clipPath id="9f157a70b8"><path d="M 72.042969 482.472656 L 396.148438 482.472656 L 396.148438 548.902344 L 72.042969 548.902344 Z M 72.042969 482.472656 "/></clipPath><clipPath id="3756c9d8b2"><path d="M 362.832031 482.472656 C 381.175781 482.472656 396.042969 497.34375 396.042969 515.6875 C 396.042969 534.03125 381.175781 548.902344 362.832031 548.902344 L 105.257812 548.902344 C 86.914062 548.902344 72.042969 534.03125 72.042969 515.6875 C 72.042969 497.34375 86.914062 482.472656 105.257812 482.472656 Z M 362.832031 482.472656 "/></clipPath><filter x="0%" y="0%" width="100%" filterUnits="objectBoundingBox" id="4a02472295" height="100%"><feColorMatrix values="0 0 0 0 1 0 0 0 0 1 0 0 0 0 1 0 0 0 1 0" type="matrix" in="SourceGraphic"/></filter><clipPath id="58fbc3e89e"><path d="M 0.359375 0.160156 L 2 0.160156 L 2 91.839844 L 0.359375 91.839844 Z M 0.359375 0.160156 "/></clipPath><clipPath id="93aa2227bb"><rect x="0" width="3" y="0" height="92"/></clipPath><clipPath id="58372bd1c7"><path d="M 0 0 L 360.515625 0 L 360.515625 392.300781 L 0 392.300781 Z M 0 0 "/></clipPath><clipPath id="c5406534dd"><path d="M 72.042969 -184.636719 L 128.042969 -105.148438 L 216.28125 -145.992188 L 225.03125 -49.152344 L 321.867188 -40.402344 L 281.023438 47.835938 L 360.515625 103.832031 L 281.023438 159.828125 L 321.867188 248.066406 L 225.03125 256.816406 L 216.28125 353.652344 L 128.042969 312.8125 L 72.042969 392.300781 L 16.046875 312.8125 L -72.191406 353.652344 L -80.941406 256.816406 L -177.777344 248.066406 L -136.933594 159.828125 L -216.425781 103.832031 L -136.933594 47.835938 L -177.777344 -40.402344 L -80.941406 -49.152344 L -72.191406 -145.992188 L 16.046875 -105.148438 Z M 72.042969 -184.636719 "/></clipPath><clipPath id="672c885349"><path d="M 593.75 580.34375 L 697.445312 580.34375 L 697.445312 684.035156 L 593.75 684.035156 Z M 593.75 580.34375 "/></clipPath><clipPath id="b235d75401"><path d="M 645.597656 580.34375 C 616.964844 580.34375 593.75 603.554688 593.75 632.191406 C 593.75 660.824219 616.964844 684.035156 645.597656 684.035156 C 674.230469 684.035156 697.445312 660.824219 697.445312 632.191406 C 697.445312 603.554688 674.230469 580.34375 645.597656 580.34375 Z M 645.597656 580.34375 "/></clipPath><clipPath id="8229efb921"><path d="M 621.382812 617.402344 L 670.132812 617.402344 L 670.132812 646.652344 L 621.382812 646.652344 Z M 621.382812 617.402344 "/></clipPath></defs><g id="3dbbbbfbff"><rect x="0" width="810" y="0" height="809.999993" style="fill:#ffffff;fill-opacity:1;stroke:none;"/><rect x="0" width="810" y="0" height="809.999993" style="fill:COLOR_BRANDCOLOR;fill-opacity:1;stroke:none;"/><g clip-rule="nonzero" clip-path="url(#c2be6d4a41)"><g transform="matrix(0.559939,0,0,0.559821,449.730293,0.00002)"><image width="644" xlink:href="PLACE_PRODUCT_IMAGE_1_HERE" height="560" preserveAspectRatio="xMidYMid meet"/></g></g><g clip-rule="nonzero" clip-path="url(#0bfaaf6c1b)"><g clip-rule="nonzero" clip-path="url(#c6f0ef5af1)"><path style=" stroke:none;fill-rule:nonzero;fill:COLOR_DARK_CONTRAST;fill-opacity:1;" d="M 579.417969 515.515625 L 1156.355469 515.515625 L 1156.355469 1092.453125 L 579.417969 1092.453125 Z M 579.417969 515.515625 "/></g></g><g clip-rule="nonzero" clip-path="url(#97cef34d5b)"><g transform="matrix(0.559939,0,0,0.559821,449.730293,325.528616)"><image width="644" xlink:href="PLACE_PRODUCT_IMAGE_2_HERE" height="560" preserveAspectRatio="xMidYMid meet"/></g></g><g clip-rule="nonzero" clip-path="url(#9f157a70b8)"><g clip-rule="nonzero" clip-path="url(#3756c9d8b2)"><path style=" stroke:none;fill-rule:nonzero;fill:COLOR_LIGHT_CONTRAST;fill-opacity:1;" d="M 72.042969 482.472656 L 396.148438 482.472656 L 396.148438 548.902344 L 72.042969 548.902344 Z M 72.042969 482.472656 "/></g></g><g mask="url(#a7d91ab035)" transform="matrix(1,0,0,1,297,638)"><g clip-path="url(#93aa2227bb)"><g clip-rule="nonzero" clip-path="url(#58fbc3e89e)"><path style="fill:none;stroke-width:2;stroke-linecap:butt;stroke-linejoin:miter;stroke:#ffffff;stroke-opacity:1;stroke-miterlimit:4;" d="M -0.0003595 0.998218 L 119.900688 0.998218 " transform="matrix(0,-0.75,0.75,0,0.43493,90.995824)"/></g></g><mask id="a7d91ab035"><g filter="url(#4a02472295)"><rect x="0" width="810" y="0" height="809.999993" style="fill:#000000;fill-opacity:0.12;stroke:none;"/></g></mask></g><g clip-rule="nonzero" clip-path="url(#58372bd1c7)"><g clip-rule="nonzero" clip-path="url(#c5406534dd)"><path style=" stroke:none;fill-rule:nonzero;fill:COLOR_DARK_CONTRAST;fill-opacity:1;" d="M -216.425781 -184.636719 L 360.515625 -184.636719 L 360.515625 392.300781 L -216.425781 392.300781 Z M -216.425781 -184.636719 "/></g></g><path style="fill:none;stroke-width:100;stroke-linecap:round;stroke-linejoin:miter;stroke:COLOR_LIGHT_CONTRAST;stroke-opacity:1;stroke-miterlimit:4;" d="M 50.00193 49.99984 L 332.574861 49.99984 " transform="matrix(0.75,0,0,0.75,52.076679,229.039184)"/><g clip-rule="nonzero" clip-path="url(#672c885349)"><g clip-rule="nonzero" clip-path="url(#b235d75401)"><path style=" stroke:none;fill-rule:nonzero;fill:COLOR_LIGHT_CONTRAST;fill-opacity:1;" d="M 593.75 580.34375 L 697.445312 580.34375 L 697.445312 684.035156 L 593.75 684.035156 Z M 593.75 580.34375 "/></g></g><g clip-rule="nonzero" clip-path="url(#8229efb921)"><path style=" stroke:none;fill-rule:nonzero;fill:#ffffff;fill-opacity:1;" d="M 621.4375 641.546875 L 645.675781 617.40625 L 670.082031 641.714844 L 665.121094 646.65625 L 645.675781 627.292969 L 626.402344 646.488281 L 621.4375 641.546875 "/></g></g></svg>