<svg xmlns="http://www.w3.org/2000/svg" xmlns:xlink="http://www.w3.org/1999/xlink" width="1080" zoomAndPan="magnify" viewBox="0 0 810 809.999993" height="1080" preserveAspectRatio="xMidYMid meet" version="1.2"><defs><clipPath id="ee712697af"><path d="M 391.722656 150.007812 L 729 150.007812 L 729 625 L 391.722656 625 Z M 391.722656 150.007812 "/></clipPath><clipPath id="30bfdbfb32"><path d="M 391.722656 192.015625 L 391.722656 446.421875 C 391.722656 469.703125 410.636719 488.519531 433.824219 488.425781 C 457.105469 488.332031 476.019531 507.242188 475.921875 530.527344 L 475.828125 583.078125 C 475.828125 606.363281 494.644531 625.179688 517.832031 625.179688 L 686.898438 625.179688 C 710.089844 625.179688 728.90625 606.363281 728.90625 583.175781 L 728.90625 350.53125 C 728.90625 336.65625 722.0625 323.730469 710.660156 315.9375 L 480.390625 157.421875 C 473.359375 152.574219 465.089844 150.007812 456.535156 150.007812 L 433.730469 150.007812 C 410.539062 150.007812 391.722656 168.824219 391.722656 192.015625 Z M 391.722656 192.015625 "/></clipPath><clipPath id="74f04d4a97"><path d="M 485.367188 0 L 810 0 L 810 283.765625 L 485.367188 283.765625 Z M 485.367188 0 "/></clipPath><clipPath id="dfdb5bfba4"><path d="M 822.644531 241.757812 L 822.644531 -12.648438 C 822.644531 -35.929688 803.734375 -54.746094 780.546875 -54.652344 C 757.261719 -54.558594 738.351562 -73.46875 738.445312 -96.753906 L 738.539062 -149.308594 C 738.539062 -172.589844 719.722656 -191.40625 696.535156 -191.40625 L 527.46875 -191.40625 C 504.28125 -191.40625 485.464844 -172.589844 485.464844 -149.402344 L 485.464844 83.242188 C 485.464844 97.117188 492.304688 110.042969 503.710938 117.835938 L 733.976562 276.351562 C 741.011719 281.199219 749.277344 283.765625 757.832031 283.765625 L 780.640625 283.765625 C 803.828125 283.765625 822.644531 264.945312 822.644531 241.757812 Z M 822.644531 241.757812 "/></clipPath><clipPath id="559a840d01"><path d="M 253 663.535156 L 728.988281 663.535156 L 728.988281 810 L 253 810 Z M 253 663.535156 "/></clipPath><clipPath id="84766445f0"><path d="M 686.984375 663.535156 L 432.578125 663.535156 C 409.292969 663.535156 390.476562 682.449219 390.570312 705.636719 C 390.667969 728.921875 371.753906 747.832031 348.472656 747.738281 L 295.917969 747.640625 C 272.632812 747.640625 253.816406 766.457031 253.816406 789.648438 L 253.816406 958.714844 C 253.816406 981.902344 272.632812 1000.71875 295.824219 1000.71875 L 528.464844 1000.71875 C 542.339844 1000.71875 555.265625 993.875 563.058594 982.472656 L 721.578125 752.203125 C 726.421875 745.171875 728.988281 736.902344 728.988281 728.351562 L 728.988281 705.542969 C 728.988281 682.355469 710.171875 663.535156 686.984375 663.535156 Z M 686.984375 663.535156 "/></clipPath><clipPath id="7044bb51af"><path d="M 81 159.929688 L 91.5 159.929688 L 91.5 170.429688 L 81 170.429688 Z M 81 159.929688 "/></clipPath><clipPath id="4ff9762f94"><path d="M 98.523438 159.929688 L 109.023438 159.929688 L 109.023438 170.429688 L 98.523438 170.429688 Z M 98.523438 159.929688 "/></clipPath><clipPath id="a5312d3331"><path d="M 116.046875 159.929688 L 126.546875 159.929688 L 126.546875 170.429688 L 116.046875 170.429688 Z M 116.046875 159.929688 "/></clipPath><clipPath id="c1a887dc6f"><path d="M 0 489.789062 L 233.425781 489.789062 L 233.425781 544.804688 L 0 544.804688 Z M 0 489.789062 "/></clipPath><clipPath id="5eebac4f76"><path d="M -17.757812 489.789062 L 212.976562 489.789062 C 218.347656 489.789062 223.5 491.921875 227.296875 495.71875 C 231.09375 499.515625 233.226562 504.667969 233.226562 510.039062 L 233.226562 524.554688 C 233.226562 529.925781 231.09375 535.074219 227.296875 538.875 C 223.5 542.671875 218.347656 544.804688 212.976562 544.804688 L -17.757812 544.804688 C -23.128906 544.804688 -28.277344 542.671875 -32.074219 538.875 C -35.871094 535.074219 -38.007812 529.925781 -38.007812 524.554688 L -38.007812 510.039062 C -38.007812 504.667969 -35.871094 499.515625 -32.074219 495.71875 C -28.277344 491.921875 -23.128906 489.789062 -17.757812 489.789062 Z M -17.757812 489.789062 "/></clipPath><clipPath id="4affe3649e"><path d="M 72.40625 20.320312 L 181.347656 20.320312 L 181.347656 129 L 72.40625 129 Z M 72.40625 20.320312 "/></clipPath><clipPath id="a0b5572811"><path d="M 126.878906 20.320312 C 96.792969 20.320312 72.40625 44.707031 72.40625 74.792969 C 72.40625 104.875 96.792969 129.261719 126.878906 129.261719 C 156.960938 129.261719 181.347656 104.875 181.347656 74.792969 C 181.347656 44.707031 156.960938 20.320312 126.878906 20.320312 Z M 126.878906 20.320312 "/></clipPath></defs><g id="1057a76b49"><rect x="0" width="810" y="0" height="809.999993" style="fill:#ffffff;fill-opacity:1;stroke:none;"/><rect x="0" width="810" y="0" height="809.999993" style="fill:#ffffff;fill-opacity:1;stroke:none;"/><g clip-rule="nonzero" clip-path="url(#ee712697af)"><g clip-rule="nonzero" clip-path="url(#30bfdbfb32)"><g transform="matrix(0.848328,0,0,0.848281,-49.77184,150.008604)"><image width="1438" xlink:href="PLACE_PRODUCT_IMAGE_1_HERE" height="560" preserveAspectRatio="xMidYMid meet"/></g></g></g><g clip-rule="nonzero" clip-path="url(#74f04d4a97)"><g clip-rule="nonzero" clip-path="url(#dfdb5bfba4)"><path style=" stroke:none;fill-rule:nonzero;fill:COLOR_BRANDCOLOR;fill-opacity:1;" d="M 822.644531 283.765625 L 485.367188 283.765625 L 485.367188 -191.273438 L 822.644531 -191.273438 Z M 822.644531 283.765625 "/></g></g><g clip-rule="nonzero" clip-path="url(#559a840d01)"><g clip-rule="nonzero" clip-path="url(#84766445f0)"><path style=" stroke:none;fill-rule:nonzero;fill:COLOR_BRANDCOLOR;fill-opacity:1;" d="M 728.988281 663.535156 L 728.988281 1000.8125 L 253.953125 1000.8125 L 253.953125 663.535156 Z M 728.988281 663.535156 "/></g></g><g clip-rule="nonzero" clip-path="url(#7044bb51af)"><path style=" stroke:none;fill-rule:nonzero;fill:#000000;fill-opacity:1;" d="M 91.5 165.179688 C 91.5 165.523438 91.464844 165.867188 91.398438 166.203125 C 91.332031 166.542969 91.230469 166.871094 91.101562 167.1875 C 90.96875 167.507812 90.808594 167.808594 90.613281 168.097656 C 90.421875 168.382812 90.207031 168.648438 89.960938 168.890625 C 89.71875 169.136719 89.453125 169.351562 89.167969 169.542969 C 88.878906 169.738281 88.578125 169.898438 88.257812 170.03125 C 87.941406 170.160156 87.613281 170.261719 87.273438 170.328125 C 86.9375 170.394531 86.59375 170.429688 86.25 170.429688 C 85.90625 170.429688 85.5625 170.394531 85.226562 170.328125 C 84.886719 170.261719 84.558594 170.160156 84.242188 170.03125 C 83.921875 169.898438 83.621094 169.738281 83.332031 169.542969 C 83.046875 169.351562 82.78125 169.136719 82.539062 168.890625 C 82.292969 168.648438 82.078125 168.382812 81.886719 168.097656 C 81.691406 167.808594 81.53125 167.507812 81.398438 167.1875 C 81.269531 166.871094 81.167969 166.542969 81.101562 166.203125 C 81.035156 165.867188 81 165.523438 81 165.179688 C 81 164.835938 81.035156 164.492188 81.101562 164.15625 C 81.167969 163.816406 81.269531 163.488281 81.398438 163.171875 C 81.53125 162.851562 81.691406 162.550781 81.886719 162.261719 C 82.078125 161.976562 82.292969 161.710938 82.539062 161.46875 C 82.78125 161.222656 83.046875 161.007812 83.332031 160.8125 C 83.621094 160.621094 83.921875 160.460938 84.242188 160.328125 C 84.558594 160.199219 84.886719 160.097656 85.226562 160.03125 C 85.5625 159.964844 85.90625 159.929688 86.25 159.929688 C 86.59375 159.929688 86.9375 159.964844 87.273438 160.03125 C 87.613281 160.097656 87.941406 160.199219 88.257812 160.328125 C 88.578125 160.460938 88.878906 160.621094 89.167969 160.8125 C 89.453125 161.007812 89.71875 161.222656 89.960938 161.46875 C 90.207031 161.710938 90.421875 161.976562 90.613281 162.261719 C 90.808594 162.550781 90.96875 162.851562 91.101562 163.171875 C 91.230469 163.488281 91.332031 163.816406 91.398438 164.15625 C 91.464844 164.492188 91.5 164.835938 91.5 165.179688 Z M 91.5 165.179688 "/></g><g clip-rule="nonzero" clip-path="url(#4ff9762f94)"><path style=" stroke:none;fill-rule:nonzero;fill:COLOR_BRANDCOLOR;fill-opacity:1;" d="M 109.023438 165.179688 C 109.023438 165.523438 108.992188 165.867188 108.921875 166.203125 C 108.855469 166.542969 108.757812 166.871094 108.625 167.1875 C 108.492188 167.507812 108.332031 167.808594 108.140625 168.097656 C 107.949219 168.382812 107.730469 168.648438 107.488281 168.890625 C 107.242188 169.136719 106.976562 169.351562 106.691406 169.542969 C 106.40625 169.738281 106.101562 169.898438 105.785156 170.03125 C 105.464844 170.160156 105.136719 170.261719 104.796875 170.328125 C 104.460938 170.394531 104.117188 170.429688 103.773438 170.429688 C 103.429688 170.429688 103.089844 170.394531 102.75 170.328125 C 102.410156 170.261719 102.082031 170.160156 101.765625 170.03125 C 101.445312 169.898438 101.144531 169.738281 100.859375 169.542969 C 100.570312 169.351562 100.304688 169.136719 100.0625 168.890625 C 99.816406 168.648438 99.601562 168.382812 99.410156 168.097656 C 99.21875 167.808594 99.054688 167.507812 98.925781 167.1875 C 98.792969 166.871094 98.691406 166.542969 98.625 166.203125 C 98.558594 165.867188 98.523438 165.523438 98.523438 165.179688 C 98.523438 164.835938 98.558594 164.492188 98.625 164.15625 C 98.691406 163.816406 98.792969 163.488281 98.925781 163.171875 C 99.054688 162.851562 99.21875 162.550781 99.410156 162.261719 C 99.601562 161.976562 99.816406 161.710938 100.0625 161.46875 C 100.304688 161.222656 100.570312 161.007812 100.859375 160.8125 C 101.144531 160.621094 101.445312 160.460938 101.765625 160.328125 C 102.082031 160.199219 102.410156 160.097656 102.75 160.03125 C 103.089844 159.964844 103.429688 159.929688 103.773438 159.929688 C 104.117188 159.929688 104.460938 159.964844 104.796875 160.03125 C 105.136719 160.097656 105.464844 160.199219 105.785156 160.328125 C 106.101562 160.460938 106.40625 160.621094 106.691406 160.8125 C 106.976562 161.007812 107.242188 161.222656 107.488281 161.46875 C 107.730469 161.710938 107.949219 161.976562 108.140625 162.261719 C 108.332031 162.550781 108.492188 162.851562 108.625 163.171875 C 108.757812 163.488281 108.855469 163.816406 108.921875 164.15625 C 108.992188 164.492188 109.023438 164.835938 109.023438 165.179688 Z M 109.023438 165.179688 "/></g><g clip-rule="nonzero" clip-path="url(#a5312d3331)"><path style=" stroke:none;fill-rule:nonzero;fill:#000000;fill-opacity:1;" d="M 126.546875 165.179688 C 126.546875 165.523438 126.515625 165.867188 126.449219 166.203125 C 126.378906 166.542969 126.28125 166.871094 126.148438 167.1875 C 126.015625 167.507812 125.855469 167.808594 125.664062 168.097656 C 125.472656 168.382812 125.253906 168.648438 125.011719 168.890625 C 124.765625 169.136719 124.5 169.351562 124.214844 169.542969 C 123.929688 169.738281 123.625 169.898438 123.308594 170.03125 C 122.988281 170.160156 122.660156 170.261719 122.324219 170.328125 C 121.984375 170.394531 121.644531 170.429688 121.296875 170.429688 C 120.953125 170.429688 120.613281 170.394531 120.273438 170.328125 C 119.9375 170.261719 119.609375 170.160156 119.289062 170.03125 C 118.972656 169.898438 118.667969 169.738281 118.382812 169.542969 C 118.09375 169.351562 117.828125 169.136719 117.585938 168.890625 C 117.34375 168.648438 117.125 168.382812 116.933594 168.097656 C 116.742188 167.808594 116.578125 167.507812 116.449219 167.1875 C 116.316406 166.871094 116.214844 166.542969 116.148438 166.203125 C 116.082031 165.867188 116.046875 165.523438 116.046875 165.179688 C 116.046875 164.835938 116.082031 164.492188 116.148438 164.15625 C 116.214844 163.816406 116.316406 163.488281 116.449219 163.171875 C 116.578125 162.851562 116.742188 162.550781 116.933594 162.261719 C 117.125 161.976562 117.34375 161.710938 117.585938 161.46875 C 117.828125 161.222656 118.09375 161.007812 118.382812 160.8125 C 118.667969 160.621094 118.972656 160.460938 119.289062 160.328125 C 119.609375 160.199219 119.9375 160.097656 120.273438 160.03125 C 120.613281 159.964844 120.953125 159.929688 121.296875 159.929688 C 121.644531 159.929688 121.984375 159.964844 122.324219 160.03125 C 122.660156 160.097656 122.988281 160.199219 123.308594 160.328125 C 123.625 160.460938 123.929688 160.621094 124.214844 160.8125 C 124.5 161.007812 124.765625 161.222656 125.011719 161.46875 C 125.253906 161.710938 125.472656 161.976562 125.664062 162.261719 C 125.855469 162.550781 126.015625 162.851562 126.148438 163.171875 C 126.28125 163.488281 126.378906 163.816406 126.449219 164.15625 C 126.515625 164.492188 126.546875 164.835938 126.546875 165.179688 Z M 126.546875 165.179688 "/></g><g clip-rule="nonzero" clip-path="url(#c1a887dc6f)"><g clip-rule="nonzero" clip-path="url(#5eebac4f76)"><path style=" stroke:none;fill-rule:nonzero;fill:COLOR_BRANDCOLOR;fill-opacity:1;" d="M -38.007812 489.789062 L 233.210938 489.789062 L 233.210938 544.804688 L -38.007812 544.804688 Z M -38.007812 489.789062 "/></g></g><path style="fill:none;stroke-width:5;stroke-linecap:round;stroke-linejoin:miter;stroke:COLOR_BRANDCOLOR;stroke-opacity:1;stroke-miterlimit:4;" d="M 2.498413 2.498064 L 320.975566 2.498064 " transform="matrix(0.748913,0,0,0.748913,80.999999,622.554949)"/><g clip-rule="nonzero" clip-path="url(#4affe3649e)"><g clip-rule="nonzero" clip-path="url(#a0b5572811)"><g transform="matrix(0.194428,0,0,0.194538,-12.995731,20.321011)"><image width="1438" xlink:href="PLACE_PRODUCT_IMAGE_2_HERE" height="560" preserveAspectRatio="xMidYMid meet"/></g></g></g></g></svg>