<svg xmlns="http://www.w3.org/2000/svg" xmlns:xlink="http://www.w3.org/1999/xlink" width="1080" zoomAndPan="magnify" viewBox="0 0 810 809.999993" height="1080" preserveAspectRatio="xMidYMid meet" version="1.2"><defs><clipPath id="24425de4a4"><path d="M 298.984375 559.9375 L 810 559.9375 L 810 810 L 298.984375 810 Z M 298.984375 559.9375 "/></clipPath><clipPath id="a5c8deda49"><path d="M 328.984375 559.9375 L 814.367188 559.9375 C 830.9375 559.9375 844.367188 573.371094 844.367188 589.9375 L 844.367188 808.570312 C 844.367188 825.136719 830.9375 838.570312 814.367188 838.570312 L 328.984375 838.570312 C 312.414062 838.570312 298.984375 825.136719 298.984375 808.570312 L 298.984375 589.9375 C 298.984375 573.371094 312.414062 559.9375 328.984375 559.9375 Z M 328.984375 559.9375 "/></clipPath><clipPath id="995dcfdbdb"><path d="M 553 76 L 810 76 L 810 378.601562 L 553 378.601562 Z M 553 76 "/></clipPath><clipPath id="8d1c515a6f"><path d="M 583.621094 76.5 L 814.367188 76.5 C 830.9375 76.5 844.367188 89.929688 844.367188 106.5 L 844.367188 348.527344 C 844.367188 365.097656 830.9375 378.527344 814.367188 378.527344 L 583.621094 378.527344 C 567.054688 378.527344 553.621094 365.097656 553.621094 348.527344 L 553.621094 106.5 C 553.621094 89.929688 567.054688 76.5 583.621094 76.5 Z M 583.621094 76.5 "/></clipPath><clipPath id="e00e939cfa"><path d="M 367 156 L 780.011719 156 L 780.011719 654 L 367 654 Z M 367 156 "/></clipPath><clipPath id="f4afb67cfe"><path d="M 389.519531 156.28125 L 757.511719 156.28125 C 769.941406 156.28125 780.011719 166.355469 780.011719 178.78125 L 780.011719 631.21875 C 780.011719 643.644531 769.941406 653.71875 757.511719 653.71875 L 389.519531 653.71875 C 377.09375 653.71875 367.019531 643.644531 367.019531 631.21875 L 367.019531 178.78125 C 367.019531 166.355469 377.09375 156.28125 389.519531 156.28125 Z M 389.519531 156.28125 "/></clipPath><clipPath id="310e0eb5e6"><path d="M 374.242188 163.503906 L 772.792969 163.503906 L 772.792969 646 L 374.242188 646 Z M 374.242188 163.503906 "/></clipPath><clipPath id="d791d3b2fa"><path d="M 391.492188 163.503906 L 755.542969 163.503906 C 765.070312 163.503906 772.792969 171.226562 772.792969 180.753906 L 772.792969 629.246094 C 772.792969 638.773438 765.070312 646.496094 755.542969 646.496094 L 391.492188 646.496094 C 381.964844 646.496094 374.242188 638.773438 374.242188 629.246094 L 374.242188 180.753906 C 374.242188 171.226562 381.964844 163.503906 391.492188 163.503906 Z M 391.492188 163.503906 "/></clipPath><clipPath id="8d134bb09e"><path d="M 37.5 546.671875 L 233 546.671875 L 233 591.425781 L 37.5 591.425781 Z M 37.5 546.671875 "/></clipPath><clipPath id="ddb9fdf499"><path d="M 59.875 546.671875 L 210.621094 546.671875 C 222.980469 546.671875 232.996094 556.691406 232.996094 569.050781 C 232.996094 581.410156 222.980469 591.425781 210.621094 591.425781 L 59.875 591.425781 C 47.519531 591.425781 37.5 581.410156 37.5 569.050781 C 37.5 556.691406 47.519531 546.671875 59.875 546.671875 Z M 59.875 546.671875 "/></clipPath><clipPath id="2bd99c5725"><path d="M 409.722656 768.949219 L 428.472656 768.949219 L 428.472656 787.699219 L 409.722656 787.699219 Z M 409.722656 768.949219 "/></clipPath><clipPath id="bb8590be07"><path d="M 37.027344 16 L 81 16 L 81 59.574219 L 37.027344 59.574219 Z M 37.027344 16 "/></clipPath><clipPath id="3503134d47"><path d="M 59.015625 15.601562 C 46.871094 15.601562 37.027344 25.445312 37.027344 37.585938 C 37.027344 49.730469 46.871094 59.574219 59.015625 59.574219 C 71.15625 59.574219 81 49.730469 81 37.585938 C 81 25.445312 71.15625 15.601562 59.015625 15.601562 Z M 59.015625 15.601562 "/></clipPath><clipPath id="937e9a3fda"><path d="M 37.027344 760.535156 L 64 760.535156 L 64 787.535156 L 37.027344 787.535156 Z M 37.027344 760.535156 "/></clipPath></defs><g id="d9fe4767df"><rect x="0" width="810" y="0" height="809.999993" style="fill:#ffffff;fill-opacity:1;stroke:none;"/><rect x="0" width="810" y="0" height="809.999993" style="fill:#fff8fc;fill-opacity:1;stroke:none;"/><g clip-rule="nonzero" clip-path="url(#24425de4a4)"><g clip-rule="nonzero" clip-path="url(#a5c8deda49)"><path style=" stroke:none;fill-rule:nonzero;fill:COLOR_BRANDCOLOR;fill-opacity:1;" d="M 298.984375 559.9375 L 844.273438 559.9375 L 844.273438 838.570312 L 298.984375 838.570312 Z M 298.984375 559.9375 "/></g></g><g clip-rule="nonzero" clip-path="url(#995dcfdbdb)"><g clip-rule="nonzero" clip-path="url(#8d1c515a6f)"><path style=" stroke:none;fill-rule:nonzero;fill:COLOR_BRANDCOLOR;fill-opacity:1;" d="M 553.621094 76.5 L 844.367188 76.5 L 844.367188 378.601562 L 553.621094 378.601562 Z M 553.621094 76.5 "/></g></g><g clip-rule="nonzero" clip-path="url(#e00e939cfa)"><g clip-rule="nonzero" clip-path="url(#f4afb67cfe)"><path style=" stroke:none;fill-rule:nonzero;fill:#fff8fc;fill-opacity:1;" d="M 367.019531 156.28125 L 780.011719 156.28125 L 780.011719 653.164062 L 367.019531 653.164062 Z M 367.019531 156.28125 "/></g></g><g clip-rule="nonzero" clip-path="url(#310e0eb5e6)"><g clip-rule="nonzero" clip-path="url(#d791d3b2fa)"><g transform="matrix(0.862864,0,0,0.86182,-46.615336,163.502004)"><image width="1438" xlink:href="PLACE_PRODUCT_IMAGE_1_HERE" height="560" preserveAspectRatio="xMidYMid meet"/></g></g></g><g clip-rule="nonzero" clip-path="url(#8d134bb09e)"><g clip-rule="nonzero" clip-path="url(#ddb9fdf499)"><path style=" stroke:none;fill-rule:nonzero;fill:COLOR_BRANDCOLOR;fill-opacity:1;" d="M 37.5 546.671875 L 232.945312 546.671875 L 232.945312 591.425781 L 37.5 591.425781 Z M 37.5 546.671875 "/></g></g><g clip-rule="nonzero" clip-path="url(#2bd99c5725)"><path style=" stroke:none;fill-rule:nonzero;fill:#fff8fc;fill-opacity:1;" d="M 425.546875 771.664062 C 423.796875 769.914062 421.46875 768.949219 418.992188 768.949219 C 416.515625 768.949219 414.1875 769.914062 412.4375 771.664062 C 410.6875 773.414062 409.722656 775.742188 409.722656 778.21875 C 409.722656 780.695312 410.6875 783.023438 412.4375 784.773438 C 414.1875 786.523438 416.515625 787.488281 418.992188 787.488281 C 421.46875 787.488281 423.796875 786.523438 425.546875 784.773438 C 427.296875 783.023438 428.261719 780.695312 428.261719 778.21875 C 428.261719 775.742188 427.296875 773.414062 425.546875 771.664062 Z M 410.75 778.21875 C 410.75 777.1875 410.941406 776.199219 411.289062 775.285156 L 414.621094 775.285156 C 414.472656 776.21875 414.394531 777.207031 414.394531 778.21875 C 414.394531 779.199219 414.46875 780.152344 414.605469 781.058594 L 411.253906 781.058594 C 410.925781 780.171875 410.75 779.214844 410.75 778.21875 Z M 415.421875 778.21875 C 415.421875 777.199219 415.503906 776.210938 415.660156 775.285156 L 418.480469 775.285156 L 418.480469 781.058594 L 415.644531 781.058594 C 415.496094 780.160156 415.421875 779.203125 415.421875 778.21875 Z M 421.417969 772.242188 C 421.699219 772.847656 421.929688 773.527344 422.113281 774.261719 L 419.503906 774.261719 L 419.503906 770.070312 C 420.199219 770.324219 420.878906 771.085938 421.417969 772.242188 Z M 418.480469 770.070312 L 418.480469 774.261719 L 415.875 774.261719 C 416.054688 773.527344 416.289062 772.847656 416.570312 772.242188 C 417.109375 771.085938 417.785156 770.324219 418.480469 770.070312 Z M 418.480469 782.082031 L 418.480469 786.367188 C 417.785156 786.113281 417.109375 785.351562 416.570312 784.195312 C 416.277344 783.566406 416.035156 782.855469 415.851562 782.082031 Z M 419.503906 786.367188 L 419.503906 782.082031 L 422.136719 782.082031 C 421.953125 782.855469 421.710938 783.566406 421.417969 784.195312 C 420.878906 785.351562 420.199219 786.113281 419.503906 786.367188 Z M 419.503906 781.058594 L 419.503906 775.285156 L 422.324219 775.285156 C 422.484375 776.210938 422.566406 777.199219 422.566406 778.21875 C 422.566406 779.203125 422.488281 780.160156 422.339844 781.058594 Z M 423.363281 775.285156 L 426.699219 775.285156 C 427.046875 776.199219 427.238281 777.1875 427.238281 778.21875 C 427.238281 779.214844 427.058594 780.171875 426.734375 781.058594 L 423.378906 781.058594 C 423.519531 780.152344 423.589844 779.199219 423.589844 778.21875 C 423.589844 777.207031 423.511719 776.21875 423.363281 775.285156 Z M 426.222656 774.261719 L 423.164062 774.261719 C 422.960938 773.367188 422.6875 772.539062 422.347656 771.8125 C 422.082031 771.246094 421.789062 770.757812 421.46875 770.355469 C 423.507812 771 425.210938 772.417969 426.222656 774.261719 Z M 416.515625 770.355469 C 416.199219 770.757812 415.902344 771.246094 415.640625 771.8125 C 415.300781 772.539062 415.023438 773.367188 414.820312 774.261719 L 411.761719 774.261719 C 412.777344 772.417969 414.476562 771 416.515625 770.355469 Z M 411.710938 782.082031 L 414.800781 782.082031 C 415.003906 783.015625 415.289062 783.875 415.640625 784.628906 C 415.902344 785.191406 416.199219 785.679688 416.515625 786.082031 C 414.441406 785.429688 412.71875 783.972656 411.710938 782.082031 Z M 421.46875 786.082031 C 421.789062 785.679688 422.082031 785.191406 422.347656 784.628906 C 422.699219 783.875 422.980469 783.015625 423.1875 782.082031 L 426.273438 782.082031 C 425.265625 783.972656 423.542969 785.429688 421.46875 786.082031 Z M 421.46875 786.082031 "/></g><g clip-rule="nonzero" clip-path="url(#bb8590be07)"><g clip-rule="nonzero" clip-path="url(#3503134d47)"><g transform="matrix(0.0784775,0,0,0.0785219,2.55665,15.601015)"><image width="1438" xlink:href="PLACE_PRODUCT_IMAGE_2_HERE" height="560" preserveAspectRatio="xMidYMid meet"/></g></g></g><g clip-rule="nonzero" clip-path="url(#937e9a3fda)"><path style=" stroke:none;fill-rule:evenodd;fill:COLOR_BRANDCOLOR;fill-opacity:1;" d="M 50.5 760.53125 C 43.078125 760.53125 37.023438 766.585938 37.023438 774.007812 C 37.023438 781.433594 43.078125 787.484375 50.5 787.484375 C 57.925781 787.484375 63.976562 781.433594 63.976562 774.007812 C 63.976562 766.585938 57.925781 760.53125 50.5 760.53125 Z M 43.621094 768.753906 L 57.382812 768.753906 C 57.496094 768.753906 57.601562 768.769531 57.707031 768.796875 L 50.734375 774.585938 C 50.667969 774.640625 50.585938 774.667969 50.5 774.667969 C 50.417969 774.667969 50.335938 774.640625 50.269531 774.585938 L 43.296875 768.796875 C 43.398438 768.769531 43.507812 768.753906 43.621094 768.753906 Z M 42.351562 777.996094 L 42.351562 770.023438 C 42.351562 769.839844 42.390625 769.664062 42.460938 769.507812 L 47.777344 773.921875 L 42.445312 778.472656 C 42.382812 778.324219 42.351562 778.164062 42.351562 777.996094 Z M 57.382812 779.261719 L 43.621094 779.261719 C 43.492188 779.261719 43.367188 779.242188 43.25 779.207031 L 48.621094 774.625 L 49.578125 775.417969 C 49.847656 775.640625 50.175781 775.753906 50.5 775.753906 C 50.828125 775.753906 51.15625 775.640625 51.425781 775.417969 L 52.378906 774.625 L 57.753906 779.207031 C 57.636719 779.242188 57.511719 779.261719 57.382812 779.261719 Z M 58.652344 777.996094 C 58.652344 778.164062 58.617188 778.324219 58.558594 778.472656 L 53.226562 773.921875 L 58.542969 769.507812 C 58.613281 769.664062 58.652344 769.839844 58.652344 770.023438 Z M 58.652344 777.996094 "/></g></g></svg>