<svg xmlns="http://www.w3.org/2000/svg" xmlns:xlink="http://www.w3.org/1999/xlink" width="1080" zoomAndPan="magnify" viewBox="0 0 810 809.999993" height="1080" preserveAspectRatio="xMidYMid meet" version="1.2"><defs><radialGradient gradientTransform="matrix(1,0,0,1,0.0000035,0.00002)" id="88d2257d44" gradientUnits="userSpaceOnUse" r="1145.513203" cx="0" fx="0" cy="0" fy="0"><stop style="stop-color:#ffffff;stop-opacity:1;" offset="0"/><stop style="stop-color:#fffefe;stop-opacity:1;" offset="0.0078125"/><stop style="stop-color:#fefefd;stop-opacity:1;" offset="0.0117188"/><stop style="stop-color:#fefdfd;stop-opacity:1;" offset="0.015625"/><stop style="stop-color:#fefdfc;stop-opacity:1;" offset="0.0195312"/><stop style="stop-color:#fefdfc;stop-opacity:1;" offset="0.0234375"/><stop style="stop-color:#fefcfb;stop-opacity:1;" offset="0.0273438"/><stop style="stop-color:#fefcfb;stop-opacity:1;" offset="0.03125"/><stop style="stop-color:#fdfbfa;stop-opacity:1;" offset="0.0351562"/><stop style="stop-color:#fdfbfa;stop-opacity:1;" offset="0.0390625"/><stop style="stop-color:#fdfbf9;stop-opacity:1;" offset="0.0429688"/><stop style="stop-color:#fdfaf9;stop-opacity:1;" offset="0.046875"/><stop style="stop-color:#fdfaf8;stop-opacity:1;" offset="0.0507812"/><stop style="stop-color:#fdf9f8;stop-opacity:1;" offset="0.0546875"/><stop style="stop-color:#fdf9f7;stop-opacity:1;" offset="0.0585938"/><stop style="stop-color:#fcf9f7;stop-opacity:1;" offset="0.0625"/><stop style="stop-color:#fcf8f6;stop-opacity:1;" offset="0.0664062"/><stop style="stop-color:#fcf8f6;stop-opacity:1;" offset="0.0703125"/><stop style="stop-color:#fcf8f5;stop-opacity:1;" offset="0.0742188"/><stop style="stop-color:#fcf7f5;stop-opacity:1;" offset="0.078125"/><stop style="stop-color:#fcf7f4;stop-opacity:1;" offset="0.0820312"/><stop style="stop-color:#fbf6f4;stop-opacity:1;" offset="0.0859375"/><stop style="stop-color:#fbf6f3;stop-opacity:1;" offset="0.0898438"/><stop style="stop-color:#fbf6f3;stop-opacity:1;" offset="0.09375"/><stop style="stop-color:#fbf5f2;stop-opacity:1;" offset="0.0976562"/><stop style="stop-color:#fbf5f2;stop-opacity:1;" offset="0.101562"/><stop style="stop-color:#fbf4f1;stop-opacity:1;" offset="0.105469"/><stop style="stop-color:#faf4f1;stop-opacity:1;" offset="0.109375"/><stop style="stop-color:#faf4f0;stop-opacity:1;" offset="0.113281"/><stop style="stop-color:#faf3f0;stop-opacity:1;" offset="0.117188"/><stop style="stop-color:#faf3ef;stop-opacity:1;" offset="0.121094"/><stop style="stop-color:#faf3ef;stop-opacity:1;" offset="0.125"/><stop style="stop-color:#faf2ee;stop-opacity:1;" offset="0.128906"/><stop style="stop-color:#f9f2ee;stop-opacity:1;" offset="0.132812"/><stop style="stop-color:#f9f1ed;stop-opacity:1;" offset="0.136719"/><stop style="stop-color:#f9f1ed;stop-opacity:1;" offset="0.140625"/><stop style="stop-color:#f9f1ec;stop-opacity:1;" offset="0.144531"/><stop style="stop-color:#f9f0ec;stop-opacity:1;" offset="0.148438"/><stop style="stop-color:#f9f0eb;stop-opacity:1;" offset="0.152344"/><stop style="stop-color:#f9f0eb;stop-opacity:1;" offset="0.15625"/><stop style="stop-color:#f8efea;stop-opacity:1;" offset="0.160156"/><stop style="stop-color:#f8efea;stop-opacity:1;" offset="0.164062"/><stop style="stop-color:#f8eee9;stop-opacity:1;" offset="0.167969"/><stop style="stop-color:#f8eee9;stop-opacity:1;" offset="0.171875"/><stop style="stop-color:#f8eee8;stop-opacity:1;" offset="0.175781"/><stop style="stop-color:#f8ede8;stop-opacity:1;" offset="0.179688"/><stop style="stop-color:#f7ede7;stop-opacity:1;" offset="0.183594"/><stop style="stop-color:#f7ece7;stop-opacity:1;" offset="0.1875"/><stop style="stop-color:#f7ece6;stop-opacity:1;" offset="0.191406"/><stop style="stop-color:#f7ece6;stop-opacity:1;" offset="0.195312"/><stop style="stop-color:#f7ebe5;stop-opacity:1;" offset="0.199219"/><stop style="stop-color:#f7ebe5;stop-opacity:1;" offset="0.203125"/><stop style="stop-color:#f6ebe4;stop-opacity:1;" offset="0.207031"/><stop style="stop-color:#f6eae4;stop-opacity:1;" offset="0.210938"/><stop style="stop-color:#f6eae3;stop-opacity:1;" offset="0.214844"/><stop style="stop-color:#f6e9e3;stop-opacity:1;" offset="0.21875"/><stop style="stop-color:#f6e9e2;stop-opacity:1;" offset="0.222656"/><stop style="stop-color:#f6e9e2;stop-opacity:1;" offset="0.226562"/><stop style="stop-color:#f5e8e1;stop-opacity:1;" offset="0.230469"/><stop style="stop-color:#f5e8e1;stop-opacity:1;" offset="0.234375"/><stop style="stop-color:#f5e7e0;stop-opacity:1;" offset="0.238281"/><stop style="stop-color:#f5e7e0;stop-opacity:1;" offset="0.242188"/><stop style="stop-color:#f5e7df;stop-opacity:1;" offset="0.246094"/><stop style="stop-color:#f5e6df;stop-opacity:1;" offset="0.25"/><stop style="stop-color:#f4e6de;stop-opacity:1;" offset="0.253906"/><stop style="stop-color:#f4e5dd;stop-opacity:1;" offset="0.261719"/><stop style="stop-color:#f4e4dc;stop-opacity:1;" offset="0.269531"/><stop style="stop-color:#f3e3db;stop-opacity:1;" offset="0.277344"/><stop style="stop-color:#f3e3da;stop-opacity:1;" offset="0.285156"/><stop style="stop-color:#f3e2d9;stop-opacity:1;" offset="0.292969"/><stop style="stop-color:#f2e1d8;stop-opacity:1;" offset="0.300781"/><stop style="stop-color:#f2e0d7;stop-opacity:1;" offset="0.308594"/><stop style="stop-color:#f2e0d6;stop-opacity:1;" offset="0.316406"/><stop style="stop-color:#f2dfd5;stop-opacity:1;" offset="0.324219"/><stop style="stop-color:#f1ded4;stop-opacity:1;" offset="0.332031"/><stop style="stop-color:#f1ddd3;stop-opacity:1;" offset="0.339844"/><stop style="stop-color:#f1ddd2;stop-opacity:1;" offset="0.347656"/><stop style="stop-color:#f0dcd1;stop-opacity:1;" offset="0.355469"/><stop style="stop-color:#f0dbd0;stop-opacity:1;" offset="0.363281"/><stop style="stop-color:#f0dacf;stop-opacity:1;" offset="0.371094"/><stop style="stop-color:#efdace;stop-opacity:1;" offset="0.378906"/><stop style="stop-color:#efd9cd;stop-opacity:1;" offset="0.386719"/><stop style="stop-color:#efd8cc;stop-opacity:1;" offset="0.394531"/><stop style="stop-color:#eed7cb;stop-opacity:1;" offset="0.402344"/><stop style="stop-color:#eed6ca;stop-opacity:1;" offset="0.410156"/><stop style="stop-color:#eed6c9;stop-opacity:1;" offset="0.417969"/><stop style="stop-color:#edd5c8;stop-opacity:1;" offset="0.425781"/><stop style="stop-color:#edd4c7;stop-opacity:1;" offset="0.433594"/><stop style="stop-color:#edd3c6;stop-opacity:1;" offset="0.441406"/><stop style="stop-color:#ecd3c5;stop-opacity:1;" offset="0.449219"/><stop style="stop-color:#ecd2c4;stop-opacity:1;" offset="0.457031"/><stop style="stop-color:#ecd1c3;stop-opacity:1;" offset="0.464844"/><stop style="stop-color:#ebd0c2;stop-opacity:1;" offset="0.472656"/><stop style="stop-color:#ebd0c1;stop-opacity:1;" offset="0.480469"/><stop style="stop-color:#ebcfc0;stop-opacity:1;" offset="0.488281"/><stop style="stop-color:#eacec0;stop-opacity:1;" offset="0.496094"/><stop style="stop-color:#eacdbf;stop-opacity:1;" offset="0.503906"/><stop style="stop-color:#eacdbe;stop-opacity:1;" offset="0.507812"/><stop style="stop-color:#eacdbe;stop-opacity:1;" offset="0.511719"/><stop style="stop-color:#eaccbd;stop-opacity:1;" offset="0.515625"/><stop style="stop-color:#eaccbd;stop-opacity:1;" offset="0.519531"/><stop style="stop-color:#e9ccbc;stop-opacity:1;" offset="0.523438"/><stop style="stop-color:#e9cbbc;stop-opacity:1;" offset="0.527344"/><stop style="stop-color:#e9cbbb;stop-opacity:1;" offset="0.53125"/><stop style="stop-color:#e9cabb;stop-opacity:1;" offset="0.535156"/><stop style="stop-color:#e9caba;stop-opacity:1;" offset="0.539062"/><stop style="stop-color:#e9caba;stop-opacity:1;" offset="0.542969"/><stop style="stop-color:#e8c9b9;stop-opacity:1;" offset="0.546875"/><stop style="stop-color:#e8c9b9;stop-opacity:1;" offset="0.550781"/><stop style="stop-color:#e8c8b8;stop-opacity:1;" offset="0.554688"/><stop style="stop-color:#e8c8b8;stop-opacity:1;" offset="0.558594"/><stop style="stop-color:#e8c8b7;stop-opacity:1;" offset="0.5625"/><stop style="stop-color:#e8c7b7;stop-opacity:1;" offset="0.566406"/><stop style="stop-color:#e8c7b6;stop-opacity:1;" offset="0.570312"/><stop style="stop-color:#e7c7b6;stop-opacity:1;" offset="0.574219"/><stop style="stop-color:#e7c6b5;stop-opacity:1;" offset="0.578125"/><stop style="stop-color:#e7c6b5;stop-opacity:1;" offset="0.582031"/><stop style="stop-color:#e7c5b4;stop-opacity:1;" offset="0.585938"/><stop style="stop-color:#e7c5b4;stop-opacity:1;" offset="0.589844"/><stop style="stop-color:#e7c5b3;stop-opacity:1;" offset="0.59375"/><stop style="stop-color:#e6c4b3;stop-opacity:1;" offset="0.597656"/><stop style="stop-color:#e6c4b2;stop-opacity:1;" offset="0.601562"/><stop style="stop-color:#e6c4b2;stop-opacity:1;" offset="0.605469"/><stop style="stop-color:#e6c3b1;stop-opacity:1;" offset="0.609375"/><stop style="stop-color:#e6c3b1;stop-opacity:1;" offset="0.613281"/><stop style="stop-color:#e6c2b0;stop-opacity:1;" offset="0.617188"/><stop style="stop-color:#e5c2b0;stop-opacity:1;" offset="0.621094"/><stop style="stop-color:#e5c2af;stop-opacity:1;" offset="0.625"/><stop style="stop-color:#e5c1af;stop-opacity:1;" offset="0.628906"/><stop style="stop-color:#e5c0ae;stop-opacity:1;" offset="0.636719"/><stop style="stop-color:#e4c0ad;stop-opacity:1;" offset="0.644531"/><stop style="stop-color:#e4bfac;stop-opacity:1;" offset="0.652344"/><stop style="stop-color:#e4beab;stop-opacity:1;" offset="0.660156"/><stop style="stop-color:#e3bdaa;stop-opacity:1;" offset="0.667969"/><stop style="stop-color:#e3bca9;stop-opacity:1;" offset="0.675781"/><stop style="stop-color:#e3bca8;stop-opacity:1;" offset="0.683594"/><stop style="stop-color:#e2bba7;stop-opacity:1;" offset="0.691406"/><stop style="stop-color:#e2baa6;stop-opacity:1;" offset="0.699219"/><stop style="stop-color:#e2b9a5;stop-opacity:1;" offset="0.707031"/><stop style="stop-color:#e1b9a4;stop-opacity:1;" offset="0.714844"/><stop style="stop-color:#e1b8a3;stop-opacity:1;" offset="0.722656"/><stop style="stop-color:#e1b7a2;stop-opacity:1;" offset="0.730469"/><stop style="stop-color:#e1b6a1;stop-opacity:1;" offset="0.738281"/><stop style="stop-color:#e0b6a0;stop-opacity:1;" offset="0.746094"/><stop style="stop-color:#e0b59f;stop-opacity:1;" offset="0.753906"/><stop style="stop-color:#e0b59f;stop-opacity:1;" offset="0.757812"/><stop style="stop-color:#e0b49e;stop-opacity:1;" offset="0.761719"/><stop style="stop-color:#dfb49e;stop-opacity:1;" offset="0.765625"/><stop style="stop-color:#dfb39d;stop-opacity:1;" offset="0.769531"/><stop style="stop-color:#dfb39d;stop-opacity:1;" offset="0.773438"/><stop style="stop-color:#dfb39c;stop-opacity:1;" offset="0.777344"/><stop style="stop-color:#dfb29c;stop-opacity:1;" offset="0.78125"/><stop style="stop-color:#dfb29b;stop-opacity:1;" offset="0.785156"/><stop style="stop-color:#dfb29b;stop-opacity:1;" offset="0.789062"/><stop style="stop-color:#deb19a;stop-opacity:1;" offset="0.792969"/><stop style="stop-color:#deb19a;stop-opacity:1;" offset="0.796875"/><stop style="stop-color:#deb099;stop-opacity:1;" offset="0.800781"/><stop style="stop-color:#deb099;stop-opacity:1;" offset="0.804688"/><stop style="stop-color:#deb098;stop-opacity:1;" offset="0.808594"/><stop style="stop-color:#deaf98;stop-opacity:1;" offset="0.8125"/><stop style="stop-color:#ddaf97;stop-opacity:1;" offset="0.816406"/><stop style="stop-color:#ddae96;stop-opacity:1;" offset="0.824219"/><stop style="stop-color:#ddad95;stop-opacity:1;" offset="0.832031"/><stop style="stop-color:#dcac94;stop-opacity:1;" offset="0.839844"/><stop style="stop-color:#dcac93;stop-opacity:1;" offset="0.847656"/><stop style="stop-color:#dcab92;stop-opacity:1;" offset="0.855469"/><stop style="stop-color:#dbaa91;stop-opacity:1;" offset="0.863281"/><stop style="stop-color:#dba990;stop-opacity:1;" offset="0.871094"/><stop style="stop-color:#dba98f;stop-opacity:1;" offset="0.878906"/><stop style="stop-color:#dba88f;stop-opacity:1;" offset="0.882812"/><stop style="stop-color:#dba88e;stop-opacity:1;" offset="0.886719"/><stop style="stop-color:#daa88e;stop-opacity:1;" offset="0.890625"/><stop style="stop-color:#daa78d;stop-opacity:1;" offset="0.894531"/><stop style="stop-color:#daa78d;stop-opacity:1;" offset="0.898438"/><stop style="stop-color:#daa68c;stop-opacity:1;" offset="0.902344"/><stop style="stop-color:#daa68c;stop-opacity:1;" offset="0.90625"/><stop style="stop-color:#d9a58b;stop-opacity:1;" offset="0.910156"/><stop style="stop-color:#d9a58a;stop-opacity:1;" offset="0.917969"/><stop style="stop-color:#d9a489;stop-opacity:1;" offset="0.925781"/><stop style="stop-color:#d9a388;stop-opacity:1;" offset="0.933594"/><stop style="stop-color:#d8a387;stop-opacity:1;" offset="0.941406"/><stop style="stop-color:#d8a287;stop-opacity:1;" offset="0.945312"/><stop style="stop-color:#d8a286;stop-opacity:1;" offset="0.949219"/><stop style="stop-color:#d8a186;stop-opacity:1;" offset="0.953125"/><stop style="stop-color:#d8a185;stop-opacity:1;" offset="0.957031"/><stop style="stop-color:#d7a084;stop-opacity:1;" offset="0.964844"/><stop style="stop-color:#d7a083;stop-opacity:1;" offset="0.972656"/><stop style="stop-color:#d79f83;stop-opacity:1;" offset="0.976562"/><stop style="stop-color:#d79f82;stop-opacity:1;" offset="0.980469"/><stop style="stop-color:#d69e81;stop-opacity:1;" offset="0.988281"/><stop style="stop-color:#d69d81;stop-opacity:1;" offset="0.992188"/><stop style="stop-color:#d69d80;stop-opacity:1;" offset="1"/></radialGradient><filter x="0%" y="0%" width="100%" filterUnits="objectBoundingBox" id="3cbb58bf55" height="100%"><feColorMatrix values="0 0 0 0 1 0 0 0 0 1 0 0 0 0 1 0 0 0 1 0" type="matrix" in="SourceGraphic"/></filter><clipPath id="4d4770b642"><path d="M 0.75 0.433594 L 300.070312 0.433594 L 300.070312 611.9375 L 0.75 611.9375 Z M 0.75 0.433594 "/></clipPath><clipPath id="dca469905a"><path d="M 58.5 0.433594 L 242.320312 0.433594 C 257.636719 0.433594 272.324219 6.519531 283.15625 17.351562 C 293.984375 28.179688 300.070312 42.871094 300.070312 58.183594 L 300.070312 553.703125 C 300.070312 569.015625 293.984375 583.707031 283.15625 594.535156 C 272.324219 605.367188 257.636719 611.453125 242.320312 611.453125 L 58.5 611.453125 C 43.183594 611.453125 28.496094 605.367188 17.664062 594.535156 C 6.835938 583.707031 0.75 569.015625 0.75 553.703125 L 0.75 58.183594 C 0.75 42.871094 6.835938 28.179688 17.664062 17.351562 C 28.496094 6.519531 43.183594 0.433594 58.5 0.433594 Z M 58.5 0.433594 "/></clipPath><clipPath id="14ca53c5be"><rect x="0" width="301" y="0" height="612"/></clipPath><clipPath id="dd37188a76"><path d="M 87.03125 102 L 383.769531 102 L 383.769531 707.445312 L 87.03125 707.445312 Z M 87.03125 102 "/></clipPath><clipPath id="67e877cffc"><path d="M 341.75 102.484375 L 129.050781 102.484375 C 105.996094 102.484375 87.285156 121.195312 87.285156 144.25 L 87.285156 665.601562 C 87.285156 688.652344 105.996094 707.363281 129.050781 707.363281 L 341.75 707.363281 C 364.804688 707.363281 383.515625 688.652344 383.515625 665.601562 L 383.515625 144.25 C 383.515625 121.195312 364.804688 102.484375 341.75 102.484375 Z M 270.949219 121.644531 C 273.046875 121.644531 274.691406 123.292969 274.691406 125.386719 C 274.691406 127.484375 273.046875 129.128906 270.949219 129.128906 C 268.855469 129.128906 267.207031 127.484375 267.207031 125.386719 C 267.207031 123.292969 269.003906 121.644531 270.949219 121.644531 Z M 215.71875 122.84375 L 251.640625 122.84375 C 252.988281 122.84375 254.1875 123.890625 254.1875 125.386719 C 254.1875 126.882812 252.988281 127.933594 251.640625 127.933594 L 215.71875 127.933594 C 214.371094 127.933594 213.171875 126.882812 213.171875 125.386719 C 213.171875 123.890625 214.371094 122.84375 215.71875 122.84375 Z M 368.246094 667.996094 C 368.246094 681.617188 357.167969 692.695312 343.546875 692.695312 L 127.550781 692.695312 C 113.929688 692.695312 102.855469 681.617188 102.855469 667.996094 L 102.855469 142.601562 C 102.855469 128.980469 113.929688 117.902344 127.550781 117.902344 L 159.734375 117.902344 L 159.734375 124.640625 C 159.734375 132.273438 166.019531 138.558594 173.65625 138.558594 L 297.445312 138.558594 C 305.078125 138.558594 311.367188 132.273438 311.367188 124.640625 L 311.367188 117.902344 L 343.398438 117.902344 C 357.019531 117.902344 368.097656 128.980469 368.097656 142.601562 L 368.097656 667.996094 Z M 368.246094 667.996094 "/></clipPath><clipPath id="e9da8625d3"><path d="M 102.710938 118 L 369 118 L 369 692.96875 L 102.710938 692.96875 Z M 102.710938 118 "/></clipPath><clipPath id="48979f3eed"><path d="M 343.398438 117.902344 L 311.367188 117.902344 L 311.367188 124.640625 C 311.367188 132.273438 305.078125 138.558594 297.445312 138.558594 L 173.804688 138.558594 C 166.171875 138.558594 159.882812 132.273438 159.882812 124.640625 L 159.882812 117.902344 L 127.550781 117.902344 C 113.929688 117.902344 102.855469 128.980469 102.855469 142.601562 L 102.855469 667.996094 C 102.855469 681.617188 113.929688 692.695312 127.550781 692.695312 L 343.398438 692.695312 C 357.019531 692.695312 368.097656 681.617188 368.097656 667.996094 L 368.097656 142.601562 C 368.246094 128.980469 357.167969 117.902344 343.398438 117.902344 Z M 343.398438 117.902344 "/></clipPath><clipPath id="859a885883"><path d="M 213 122.410156 L 254.699219 122.410156 L 254.699219 128 L 213 128 Z M 213 122.410156 "/></clipPath><clipPath id="f311332d38"><path d="M 251.640625 122.84375 L 215.71875 122.84375 C 214.371094 122.84375 213.171875 123.890625 213.171875 125.386719 C 213.171875 126.882812 214.371094 127.933594 215.71875 127.933594 L 251.640625 127.933594 C 252.988281 127.933594 254.1875 126.882812 254.1875 125.386719 C 254.1875 123.890625 252.988281 122.84375 251.640625 122.84375 Z M 251.640625 122.84375 "/></clipPath><clipPath id="269576cb0d"><path d="M 267 121.203125 L 275 121.203125 L 275 129.648438 L 267 129.648438 Z M 267 121.203125 "/></clipPath><clipPath id="a5593e19e5"><path d="M 270.949219 121.644531 C 268.882812 121.644531 267.207031 123.320312 267.207031 125.386719 C 267.207031 127.453125 268.882812 129.128906 270.949219 129.128906 C 273.015625 129.128906 274.691406 127.453125 274.691406 125.386719 C 274.691406 123.320312 273.015625 121.644531 270.949219 121.644531 Z M 270.949219 121.644531 "/></clipPath><clipPath id="32c3194cab"><path d="M 81 180.3125 L 84.617188 180.3125 L 84.617188 205.640625 L 81 205.640625 Z M 81 180.3125 "/></clipPath><clipPath id="f02c21becf"><path d="M 81 183.464844 L 81 202.175781 C 81 203.972656 82.496094 205.46875 84.292969 205.46875 L 84.292969 180.324219 C 82.496094 180.324219 81 181.667969 81 183.464844 Z M 81 183.464844 "/></clipPath><clipPath id="8ee0c472bb"><path d="M 81 224 L 84.617188 224 L 84.617188 269.574219 L 81 269.574219 Z M 81 224 "/></clipPath><clipPath id="fa9d99f4b9"><path d="M 81 227.324219 L 81 266.242188 C 81 268.039062 82.496094 269.535156 84.292969 269.535156 L 84.292969 224.179688 C 82.496094 224.179688 81 225.527344 81 227.324219 Z M 81 227.324219 "/></clipPath><clipPath id="07ffbe17a8"><path d="M 81 279.222656 L 84.617188 279.222656 L 84.617188 325 L 81 325 Z M 81 279.222656 "/></clipPath><clipPath id="8823ab280a"><path d="M 81 282.707031 L 81 321.625 C 81 323.421875 82.496094 324.917969 84.292969 324.917969 L 84.292969 279.414062 C 82.496094 279.414062 81 280.910156 81 282.707031 Z M 81 282.707031 "/></clipPath><clipPath id="02e161de85"><path d="M 386.183594 239 L 389.800781 239 L 389.800781 313 L 386.183594 313 Z M 386.183594 239 "/></clipPath><clipPath id="c049b1e364"><path d="M 386.507812 239.148438 L 386.507812 312.046875 C 388.304688 312.046875 389.800781 310.546875 389.800781 308.753906 L 389.800781 242.441406 C 389.800781 240.644531 388.304688 239.148438 386.507812 239.148438 Z M 386.507812 239.148438 "/></clipPath><clipPath id="a6030ec9d0"><path d="M 84 99.492188 L 387 99.492188 L 387 711 L 84 711 Z M 84 99.492188 "/></clipPath><clipPath id="978ec66b72"><path d="M 386.507812 239.148438 L 386.507812 144.25 C 386.507812 141.105469 386.207031 138.109375 385.609375 135.265625 C 385.308594 133.769531 385.011719 132.421875 384.5625 130.925781 C 383.964844 128.832031 383.066406 126.734375 382.167969 124.789062 C 381.566406 123.441406 380.820312 122.246094 380.070312 121.046875 C 379.324219 119.847656 378.574219 118.652344 377.675781 117.453125 C 376.328125 115.65625 374.980469 114.160156 373.484375 112.515625 C 372.4375 111.46875 371.390625 110.570312 370.339844 109.671875 C 362.558594 103.234375 352.679688 99.492188 341.902344 99.492188 L 129.050781 99.492188 C 118.273438 99.492188 108.242188 103.382812 100.609375 109.671875 C 99.5625 110.570312 98.511719 111.617188 97.464844 112.515625 C 95.96875 114.011719 94.472656 115.65625 93.273438 117.453125 C 92.375 118.652344 91.628906 119.847656 90.878906 121.046875 C 90.128906 122.246094 89.382812 123.589844 88.785156 124.789062 C 87.734375 126.882812 86.988281 128.832031 86.238281 130.925781 C 85.789062 132.421875 85.492188 133.769531 85.191406 135.265625 C 84.59375 138.109375 84.292969 141.253906 84.292969 144.25 L 84.292969 665.601562 C 84.292969 690.300781 104.351562 710.359375 129.050781 710.359375 L 341.75 710.359375 C 366.449219 710.359375 386.507812 690.300781 386.507812 665.601562 Z M 383.515625 239.148438 L 383.515625 665.75 C 383.515625 688.804688 364.804688 707.515625 341.75 707.515625 L 129.050781 707.515625 C 105.996094 707.515625 87.285156 688.804688 87.285156 665.75 L 87.285156 144.398438 C 87.285156 121.195312 105.996094 102.484375 129.050781 102.484375 L 341.75 102.484375 C 364.804688 102.484375 383.515625 121.195312 383.515625 144.25 Z M 383.515625 239.148438 "/></clipPath><clipPath id="2a6d43c1a6"><path d="M 433.074219 519.355469 L 643.324219 519.355469 L 643.324219 567.214844 L 433.074219 567.214844 Z M 433.074219 519.355469 "/></clipPath><clipPath id="c66e391ddb"><path d="M 443.011719 519.542969 L 633.566406 519.542969 C 636.152344 519.542969 638.632812 520.566406 640.460938 522.398438 C 642.289062 524.226562 643.316406 526.707031 643.316406 529.292969 L 643.316406 557.464844 C 643.316406 560.050781 642.289062 562.53125 640.460938 564.359375 C 638.632812 566.1875 636.152344 567.214844 633.566406 567.214844 L 443.011719 567.214844 C 440.425781 567.214844 437.945312 566.1875 436.117188 564.359375 C 434.289062 562.53125 433.261719 560.050781 433.261719 557.464844 L 433.261719 529.292969 C 433.261719 526.707031 434.289062 524.226562 436.117188 522.398438 C 437.945312 520.566406 440.425781 519.542969 443.011719 519.542969 Z M 443.011719 519.542969 "/></clipPath><clipPath id="f9f009387c"><path d="M 592 519.355469 L 643.476562 519.355469 L 643.476562 567.214844 L 592 567.214844 Z M 592 519.355469 "/></clipPath><clipPath id="82a65fae83"><path d="M 601.828125 519.542969 L 633.566406 519.542969 C 636.152344 519.542969 638.632812 520.566406 640.460938 522.398438 C 642.289062 524.226562 643.316406 526.707031 643.316406 529.292969 L 643.316406 557.464844 C 643.316406 560.050781 642.289062 562.53125 640.460938 564.359375 C 638.632812 566.1875 636.152344 567.214844 633.566406 567.214844 L 601.828125 567.214844 C 599.242188 567.214844 596.761719 566.1875 594.933594 564.359375 C 593.105469 562.53125 592.078125 560.050781 592.078125 557.464844 L 592.078125 529.292969 C 592.078125 526.707031 593.105469 524.226562 594.933594 522.398438 C 596.761719 520.566406 599.242188 519.542969 601.828125 519.542969 Z M 601.828125 519.542969 "/></clipPath><clipPath id="1199f8e60e"><path d="M 612 534 L 623.972656 534 L 623.972656 552 L 612 552 Z M 612 534 "/></clipPath><clipPath id="f7fe34cc38"><path d="M 433.261719 663.824219 L 464.761719 663.824219 L 464.761719 695.324219 L 433.261719 695.324219 Z M 433.261719 663.824219 "/></clipPath><clipPath id="10cf6bc578"><path d="M 433.261719 624.058594 L 464.761719 624.058594 L 464.761719 655.558594 L 433.261719 655.558594 Z M 433.261719 624.058594 "/></clipPath></defs><g id="b2e52654ac"><rect x="0" width="810" y="0" height="809.999993" style="fill:#ffffff;fill-opacity:1;stroke:none;"/><rect x="0" width="810" y="0" height="809.999993" style="fill:url(#88d2257d44);stroke:none;"/><g mask="url(#bad7ca1882)" transform="matrix(1,0,0,1,66,114)"><g clip-path="url(#14ca53c5be)"><g clip-rule="nonzero" clip-path="url(#4d4770b642)"><g clip-rule="nonzero" clip-path="url(#dca469905a)"><path style=" stroke:none;fill-rule:nonzero;fill:#262121;fill-opacity:1;" d="M 0.75 0.433594 L 300.070312 0.433594 L 300.070312 611.9375 L 0.75 611.9375 Z M 0.75 0.433594 "/></g></g></g><mask id="bad7ca1882"><g filter="url(#3cbb58bf55)"><rect x="0" width="810" y="0" height="809.999993" style="fill:#000000;fill-opacity:0.59;stroke:none;"/></g></mask></g><g clip-rule="nonzero" clip-path="url(#dd37188a76)"><g clip-rule="nonzero" clip-path="url(#67e877cffc)"><path style=" stroke:none;fill-rule:nonzero;fill:#262121;fill-opacity:1;" d="M 81 99.492188 L 389.800781 99.492188 L 389.800781 711.0625 L 81 711.0625 Z M 81 99.492188 "/></g></g><g clip-rule="nonzero" clip-path="url(#e9da8625d3)"><g clip-rule="nonzero" clip-path="url(#48979f3eed)"><g transform="matrix(1.026742,0,0,1.02747,-502.515547,117.90347)"><image width="1438" xlink:href="PLACE_SCREENSHOT_HERE" height="560" preserveAspectRatio="xMidYMid meet"/></g></g></g><g clip-rule="nonzero" clip-path="url(#859a885883)"><g clip-rule="nonzero" clip-path="url(#f311332d38)"><path style=" stroke:none;fill-rule:nonzero;fill:#555555;fill-opacity:1;" d="M 81 99.492188 L 389.800781 99.492188 L 389.800781 711.0625 L 81 711.0625 Z M 81 99.492188 "/></g></g><g clip-rule="nonzero" clip-path="url(#269576cb0d)"><g clip-rule="nonzero" clip-path="url(#a5593e19e5)"><path style=" stroke:none;fill-rule:nonzero;fill:#555555;fill-opacity:1;" d="M 81 99.492188 L 389.800781 99.492188 L 389.800781 711.0625 L 81 711.0625 Z M 81 99.492188 "/></g></g><g clip-rule="nonzero" clip-path="url(#32c3194cab)"><g clip-rule="nonzero" clip-path="url(#f02c21becf)"><path style=" stroke:none;fill-rule:nonzero;fill:#2e2e2e;fill-opacity:1;" d="M 81 99.492188 L 389.800781 99.492188 L 389.800781 711.0625 L 81 711.0625 Z M 81 99.492188 "/></g></g><g clip-rule="nonzero" clip-path="url(#8ee0c472bb)"><g clip-rule="nonzero" clip-path="url(#fa9d99f4b9)"><path style=" stroke:none;fill-rule:nonzero;fill:#2e2e2e;fill-opacity:1;" d="M 81 99.492188 L 389.800781 99.492188 L 389.800781 711.0625 L 81 711.0625 Z M 81 99.492188 "/></g></g><g clip-rule="nonzero" clip-path="url(#07ffbe17a8)"><g clip-rule="nonzero" clip-path="url(#8823ab280a)"><path style=" stroke:none;fill-rule:nonzero;fill:#2e2e2e;fill-opacity:1;" d="M 81 99.492188 L 389.800781 99.492188 L 389.800781 711.0625 L 81 711.0625 Z M 81 99.492188 "/></g></g><g clip-rule="nonzero" clip-path="url(#02e161de85)"><g clip-rule="nonzero" clip-path="url(#c049b1e364)"><path style=" stroke:none;fill-rule:nonzero;fill:#2e2e2e;fill-opacity:1;" d="M 81 99.492188 L 389.800781 99.492188 L 389.800781 711.0625 L 81 711.0625 Z M 81 99.492188 "/></g></g><g clip-rule="nonzero" clip-path="url(#a6030ec9d0)"><g clip-rule="nonzero" clip-path="url(#978ec66b72)"><path style=" stroke:none;fill-rule:nonzero;fill:#d7d3cf;fill-opacity:1;" d="M 81 99.492188 L 389.800781 99.492188 L 389.800781 711.0625 L 81 711.0625 Z M 81 99.492188 "/></g></g><path style="fill:none;stroke-width:11;stroke-linecap:butt;stroke-linejoin:miter;stroke:#262121;stroke-opacity:1;stroke-miterlimit:4;" d="M 0.00129439 5.502291 L 78.147139 5.502291 " transform="matrix(0.74865,0,0,0.74865,433.26075,449.923677)"/><g clip-rule="nonzero" clip-path="url(#2a6d43c1a6)"><g clip-rule="nonzero" clip-path="url(#c66e391ddb)"><path style=" stroke:none;fill-rule:nonzero;fill:#262121;fill-opacity:1;" d="M 433.261719 519.542969 L 643.324219 519.542969 L 643.324219 567.214844 L 433.261719 567.214844 Z M 433.261719 519.542969 "/></g></g><g clip-rule="nonzero" clip-path="url(#f9f009387c)"><g clip-rule="nonzero" clip-path="url(#82a65fae83)"><path style=" stroke:none;fill-rule:nonzero;fill:#ffffff;fill-opacity:1;" d="M 592.078125 519.542969 L 643.292969 519.542969 L 643.292969 567.214844 L 592.078125 567.214844 Z M 592.078125 519.542969 "/></g></g><g clip-rule="nonzero" clip-path="url(#1199f8e60e)"><path style=" stroke:none;fill-rule:nonzero;fill:#133349;fill-opacity:1;" d="M 623.96875 543.363281 L 615.949219 535.261719 C 614.402344 533.695312 611.222656 536.589844 613.085938 538.410156 L 618.160156 543.363281 L 612.921875 548.230469 C 611.328125 549.714844 614.28125 552.757812 615.871094 551.21875 Z M 623.96875 543.363281 "/></g><g clip-rule="nonzero" clip-path="url(#f7fe34cc38)"><path style=" stroke:none;fill-rule:nonzero;fill:#262121;fill-opacity:1;" d="M 449.011719 663.824219 C 447.976562 663.824219 446.953125 663.925781 445.9375 664.125 C 444.921875 664.328125 443.9375 664.628906 442.984375 665.023438 C 442.027344 665.417969 441.121094 665.902344 440.261719 666.476562 C 439.402344 667.054688 438.605469 667.707031 437.875 668.4375 C 437.140625 669.167969 436.488281 669.964844 435.914062 670.824219 C 435.339844 671.683594 434.855469 672.589844 434.460938 673.546875 C 434.0625 674.503906 433.765625 675.488281 433.5625 676.5 C 433.363281 677.515625 433.261719 678.539062 433.261719 679.574219 C 433.261719 680.609375 433.363281 681.632812 433.5625 682.648438 C 433.765625 683.660156 434.0625 684.644531 434.460938 685.601562 C 434.855469 686.558594 435.339844 687.464844 435.914062 688.324219 C 436.488281 689.183594 437.140625 689.980469 437.875 690.710938 C 438.605469 691.441406 439.402344 692.09375 440.261719 692.667969 C 441.121094 693.246094 442.027344 693.730469 442.984375 694.125 C 443.9375 694.519531 444.921875 694.820312 445.9375 695.019531 C 446.953125 695.222656 447.976562 695.324219 449.011719 695.324219 C 450.042969 695.324219 451.070312 695.222656 452.082031 695.019531 C 453.097656 694.820312 454.082031 694.519531 455.039062 694.125 C 455.992188 693.730469 456.902344 693.246094 457.761719 692.667969 C 458.621094 692.09375 459.417969 691.441406 460.148438 690.710938 C 460.878906 689.980469 461.53125 689.183594 462.105469 688.324219 C 462.679688 687.464844 463.167969 686.558594 463.5625 685.601562 C 463.957031 684.644531 464.257812 683.660156 464.457031 682.648438 C 464.660156 681.632812 464.761719 680.609375 464.761719 679.574219 C 464.761719 678.539062 464.660156 677.515625 464.457031 676.5 C 464.257812 675.488281 463.957031 674.503906 463.5625 673.546875 C 463.164062 672.589844 462.679688 671.683594 462.105469 670.824219 C 461.53125 669.964844 460.878906 669.167969 460.148438 668.4375 C 459.414062 667.707031 458.621094 667.054688 457.761719 666.480469 C 456.902344 665.90625 455.992188 665.417969 455.039062 665.023438 C 454.082031 664.628906 453.097656 664.328125 452.082031 664.128906 C 451.070312 663.925781 450.042969 663.824219 449.011719 663.824219 Z M 441.757812 671.800781 L 456.265625 671.800781 C 456.574219 671.800781 456.875 671.855469 457.164062 671.964844 C 457.457031 672.070312 457.71875 672.226562 457.953125 672.429688 C 458.1875 672.628906 458.378906 672.867188 458.53125 673.136719 C 458.679688 673.40625 458.777344 673.695312 458.824219 674.003906 C 458.617188 674.117188 450.644531 678.710938 450.117188 679.011719 C 449.773438 679.207031 449.40625 679.304688 449.011719 679.304688 C 448.617188 679.304688 448.246094 679.207031 447.902344 679.011719 C 447.386719 678.71875 439.394531 674.164062 439.195312 674.042969 C 439.238281 673.730469 439.332031 673.4375 439.480469 673.164062 C 439.628906 672.886719 439.820312 672.648438 440.054688 672.441406 C 440.289062 672.234375 440.554688 672.078125 440.847656 671.96875 C 441.140625 671.859375 441.441406 671.800781 441.757812 671.800781 Z M 458.855469 684.757812 C 458.855469 685.101562 458.789062 685.429688 458.65625 685.746094 C 458.523438 686.0625 458.339844 686.34375 458.09375 686.585938 C 457.851562 686.828125 457.574219 687.015625 457.253906 687.148438 C 456.9375 687.28125 456.609375 687.34375 456.265625 687.347656 L 441.757812 687.347656 C 441.414062 687.34375 441.082031 687.28125 440.765625 687.148438 C 440.449219 687.015625 440.167969 686.828125 439.925781 686.585938 C 439.683594 686.34375 439.496094 686.0625 439.363281 685.746094 C 439.234375 685.429688 439.167969 685.101562 439.167969 684.757812 L 439.167969 675.21875 L 447.394531 679.914062 C 447.898438 680.199219 448.4375 680.34375 449.011719 680.34375 C 449.589844 680.34375 450.128906 680.199219 450.628906 679.914062 L 458.855469 675.179688 Z M 458.855469 684.757812 "/></g><g clip-rule="nonzero" clip-path="url(#10cf6bc578)"><path style=" stroke:none;fill-rule:nonzero;fill:#262121;fill-opacity:1;" d="M 449.011719 624.058594 C 440.308594 624.058594 433.261719 631.109375 433.261719 639.808594 C 433.261719 648.511719 440.308594 655.558594 449.011719 655.558594 C 457.710938 655.558594 464.761719 648.511719 464.761719 639.808594 C 464.761719 631.109375 457.710938 624.058594 449.011719 624.058594 Z M 456.777344 634.132812 L 453.898438 634.132812 C 453.289062 632.8125 452.476562 631.644531 451.492188 630.699219 C 453.621094 631.234375 455.46875 632.464844 456.777344 634.132812 Z M 444.410156 639.476562 C 444.480469 638.039062 444.765625 636.667969 445.238281 635.425781 L 453.054688 635.425781 C 453.527344 636.667969 453.816406 638.039062 453.878906 639.476562 Z M 453.878906 640.761719 C 453.8125 642.199219 453.527344 643.570312 453.054688 644.8125 L 445.238281 644.8125 C 444.765625 643.570312 444.476562 642.199219 444.410156 640.761719 Z M 449.144531 630.511719 C 450.515625 631.332031 451.652344 632.589844 452.46875 634.140625 L 445.816406 634.140625 C 446.636719 632.589844 447.777344 631.324219 449.144531 630.511719 Z M 446.792969 630.699219 C 445.816406 631.644531 444.996094 632.8125 444.386719 634.132812 L 441.507812 634.132812 C 442.816406 632.464844 444.671875 631.234375 446.792969 630.699219 Z M 440.652344 635.425781 L 443.871094 635.425781 C 443.441406 636.683594 443.175781 638.058594 443.121094 639.476562 L 439.460938 639.476562 C 439.5625 638.015625 439.976562 636.640625 440.652344 635.425781 Z M 439.460938 640.761719 L 443.121094 640.761719 C 443.183594 642.179688 443.441406 643.546875 443.871094 644.8125 L 440.652344 644.8125 C 439.976562 643.597656 439.5625 642.222656 439.460938 640.761719 Z M 441.507812 646.105469 L 444.386719 646.105469 C 444.996094 647.425781 445.808594 648.59375 446.792969 649.539062 C 444.671875 649 442.816406 647.773438 441.507812 646.105469 Z M 449.144531 649.726562 C 447.769531 648.90625 446.636719 647.648438 445.816406 646.097656 L 452.46875 646.097656 C 451.652344 647.648438 450.515625 648.914062 449.144531 649.726562 Z M 451.5 649.539062 C 452.476562 648.59375 453.292969 647.425781 453.90625 646.105469 L 456.785156 646.105469 C 455.46875 647.773438 453.621094 649 451.5 649.539062 Z M 457.636719 644.8125 L 454.417969 644.8125 C 454.84375 643.550781 455.109375 642.179688 455.164062 640.761719 L 458.824219 640.761719 C 458.730469 642.222656 458.308594 643.597656 457.636719 644.8125 Z M 455.171875 639.476562 C 455.109375 638.058594 454.851562 636.691406 454.421875 635.425781 L 457.640625 635.425781 C 458.316406 636.640625 458.738281 638.015625 458.832031 639.476562 Z M 455.171875 639.476562 "/></g></g></svg>