<svg xmlns="http://www.w3.org/2000/svg" xmlns:xlink="http://www.w3.org/1999/xlink" width="1080" zoomAndPan="magnify" viewBox="0 0 810 809.999993" height="1080" preserveAspectRatio="xMidYMid meet" version="1.2"><defs><filter x="0%" y="0%" width="100%" filterUnits="objectBoundingBox" id="8c9f48f637" height="100%"><feColorMatrix values="0 0 0 0 1 0 0 0 0 1 0 0 0 0 1 0 0 0 1 0" type="matrix" in="SourceGraphic"/></filter><clipPath id="1511f12840"><path d="M 0 3 L 560 3 L 560 130 L 0 130 Z M 0 3 "/></clipPath><clipPath id="7330ebb1b3"><path d="M -81.53125 96.125 L 542.335938 3.195312 L 559.796875 120.402344 L -64.070312 213.332031 Z M -81.53125 96.125 "/></clipPath><clipPath id="014a41d285"><rect x="0" width="562" y="0" height="130"/></clipPath><clipPath id="b3cac9ef77"><path d="M 0 132 L 428 132 L 428 810 L 0 810 Z M 0 132 "/></clipPath><clipPath id="f0660a5fa5"><path d="M -42.132812 189.625 L 300.449219 123.042969 L 436.316406 822.128906 L 93.738281 888.710938 Z M -42.132812 189.625 "/></clipPath><clipPath id="f581157dca"><path d="M 252.070312 133.144531 L 6.507812 180.867188 C -20.105469 186.042969 -37.507812 211.839844 -32.335938 238.453125 L 84.644531 840.347656 C 89.816406 866.960938 115.617188 884.363281 142.230469 879.191406 L 387.792969 831.464844 C 414.402344 826.292969 431.808594 800.496094 426.632812 773.882812 L 309.652344 171.984375 C 304.480469 145.375 278.683594 127.972656 252.070312 133.144531 Z M 174.628906 171.148438 C 177.050781 170.679688 179.320312 172.210938 179.789062 174.628906 C 180.257812 177.046875 178.726562 179.320312 176.308594 179.789062 C 173.890625 180.257812 171.621094 178.726562 171.148438 176.308594 C 170.679688 173.890625 172.382812 171.585938 174.628906 171.148438 Z M 111.132812 184.925781 L 152.605469 176.863281 C 154.160156 176.5625 155.777344 177.503906 156.113281 179.230469 C 156.449219 180.957031 155.304688 182.4375 153.746094 182.738281 L 112.273438 190.800781 C 110.71875 191.101562 109.101562 190.160156 108.765625 188.433594 C 108.429688 186.707031 109.578125 185.226562 111.132812 184.925781 Z M 409.546875 780.074219 C 412.601562 795.796875 402.300781 811.070312 386.574219 814.128906 L 137.210938 862.59375 C 121.484375 865.648438 106.210938 855.347656 103.152344 839.621094 L -14.734375 233.058594 C -17.789062 217.332031 -7.488281 202.058594 8.238281 199.003906 L 45.390625 191.78125 L 46.902344 199.558594 C 48.617188 208.371094 57.285156 214.21875 66.097656 212.507812 L 209.011719 184.730469 C 217.824219 183.019531 223.671875 174.351562 221.960938 165.535156 L 220.449219 157.761719 L 257.429688 150.574219 C 273.15625 147.515625 288.429688 157.820312 291.484375 173.542969 L 409.371094 780.105469 Z M 409.546875 780.074219 "/></clipPath><clipPath id="efe8cf7e3c"><path d="M 0 150 L 410 150 L 410 810 L 0 810 Z M 0 150 "/></clipPath><clipPath id="dfad90aa1b"><path d="M -20.507812 204.210938 L 287.253906 144.394531 L 416.359375 808.667969 L 108.59375 868.480469 Z M -20.507812 204.210938 "/></clipPath><clipPath id="251ae4af6e"><path d="M 257.429688 150.574219 L 220.449219 157.761719 L 221.960938 165.535156 C 223.671875 174.351562 217.824219 183.019531 209.011719 184.730469 L 66.273438 212.472656 C 57.457031 214.1875 48.789062 208.339844 47.078125 199.527344 L 45.566406 191.75 L 8.238281 199.003906 C -7.488281 202.058594 -17.789062 217.332031 -14.734375 233.058594 L 103.152344 839.621094 C 106.210938 855.347656 121.484375 865.648438 137.210938 862.59375 L 386.402344 814.160156 C 402.125 811.105469 412.429688 795.832031 409.371094 780.105469 L 291.484375 173.542969 C 288.601562 157.785156 273.328125 147.484375 257.429688 150.574219 Z M 257.429688 150.574219 "/></clipPath><clipPath id="65cabc4301"><path d="M -49.636719 188.195312 L 306.871094 118.90625 L 444.09375 824.953125 L 87.585938 894.242188 Z M -49.636719 188.195312 "/></clipPath><clipPath id="c11e330ad9"><path d="M 108 176 L 157 176 L 157 191 L 108 191 Z M 108 176 "/></clipPath><clipPath id="085788a50b"><path d="M 107.300781 185.152344 L 156.039062 175.679688 L 157.394531 182.640625 L 108.652344 192.113281 Z M 107.300781 185.152344 "/></clipPath><clipPath id="5b9abc124d"><path d="M 152.605469 176.863281 L 111.132812 184.925781 C 109.578125 185.226562 108.429688 186.707031 108.765625 188.433594 C 109.101562 190.160156 110.71875 191.101562 112.273438 190.800781 L 153.746094 182.738281 C 155.304688 182.4375 156.449219 180.957031 156.113281 179.230469 C 155.777344 177.503906 154.160156 176.5625 152.605469 176.863281 Z M 152.605469 176.863281 "/></clipPath><clipPath id="5a4b806d06"><path d="M 171 171 L 180 171 L 180 180 L 171 180 Z M 171 171 "/></clipPath><clipPath id="d19643b155"><path d="M 169.695312 171.578125 L 179.445312 169.683594 L 181.339844 179.433594 L 171.589844 181.328125 Z M 169.695312 171.578125 "/></clipPath><clipPath id="79c8042c05"><path d="M 174.628906 171.148438 C 172.242188 171.613281 170.683594 173.921875 171.148438 176.308594 C 171.613281 178.695312 173.921875 180.253906 176.308594 179.789062 C 178.695312 179.324219 180.253906 177.015625 179.789062 174.628906 C 179.324219 172.242188 177.015625 170.683594 174.628906 171.148438 Z M 174.628906 171.148438 "/></clipPath><clipPath id="1a876c4746"><path d="M 0 395 L 5 395 L 5 448 L 0 448 Z M 0 395 "/></clipPath><clipPath id="c31c0dfac2"><path d="M -9.308594 395.691406 L -5.128906 394.878906 L 5.152344 447.796875 L 0.976562 448.609375 Z M -9.308594 395.691406 "/></clipPath><clipPath id="481400c16d"><path d="M -8.527344 399.710938 L 0.207031 444.644531 C 0.609375 446.71875 2.671875 448.109375 4.746094 447.707031 L -5.464844 395.171875 C -7.539062 395.574219 -8.929688 397.640625 -8.527344 399.710938 Z M -8.527344 399.710938 "/></clipPath><clipPath id="72d37d9f74"><path d="M 334 280 L 354 280 L 354 366 L 334 366 Z M 334 280 "/></clipPath><clipPath id="0e6038d8a6"><path d="M 333.816406 279.867188 L 337.996094 279.054688 L 354.777344 365.394531 L 350.597656 366.207031 Z M 333.816406 279.867188 "/></clipPath><clipPath id="4056ca71e3"><path d="M 334.402344 280.875 L 350.761719 365.035156 C 352.832031 364.632812 354.226562 362.566406 353.824219 360.492188 L 338.945312 283.9375 C 338.542969 281.863281 336.476562 280.472656 334.402344 280.875 Z M 334.402344 280.875 "/></clipPath><clipPath id="0ca4e25e46"><path d="M 0 128 L 432 128 L 432 810 L 0 810 Z M 0 128 "/></clipPath><clipPath id="fa875c4cc7"><path d="M -46.851562 187.652344 L 304.085938 119.445312 L 441.308594 825.496094 L 90.371094 893.703125 Z M -46.851562 187.652344 "/></clipPath><clipPath id="696a65e7a3"><path d="M 334.402344 280.875 L 313.109375 171.316406 C 312.40625 167.6875 311.386719 164.296875 310.058594 161.148438 C 309.375 159.488281 308.730469 158 307.875 156.371094 C 306.714844 154.085938 305.207031 151.867188 303.730469 149.824219 C 302.738281 148.402344 301.605469 147.1875 300.472656 145.972656 C 299.339844 144.757812 298.207031 143.542969 296.902344 142.363281 C 294.945312 140.59375 293.054688 139.164062 290.957031 137.601562 C 289.511719 136.625 288.097656 135.824219 286.6875 135.023438 C 276.257812 129.339844 264.011719 127.234375 251.570312 129.652344 L 5.835938 177.414062 C -6.605469 179.832031 -17.3125 186.574219 -24.714844 195.546875 C -25.722656 196.816406 -26.695312 198.261719 -27.707031 199.535156 C -29.097656 201.597656 -30.457031 203.835938 -31.4375 206.175781 C -32.203125 207.761719 -32.800781 209.3125 -33.394531 210.863281 C -33.988281 212.414062 -34.550781 214.136719 -34.972656 215.652344 C -35.714844 218.304688 -36.140625 220.722656 -36.535156 223.308594 C -36.71875 225.136719 -36.761719 226.757812 -36.769531 228.554688 C -36.824219 231.972656 -36.464844 235.667969 -35.792969 239.125 L 81.1875 841.019531 C 86.730469 869.535156 114.386719 888.191406 142.902344 882.648438 L 388.460938 834.921875 C 416.976562 829.378906 435.632812 801.722656 430.089844 773.210938 Z M 330.949219 281.546875 L 426.667969 774.054688 C 431.839844 800.667969 414.4375 826.46875 387.824219 831.640625 L 142.261719 879.363281 C 115.648438 884.539062 89.851562 867.132812 84.679688 840.523438 L -32.300781 238.625 C -37.507812 211.839844 -20.105469 186.042969 6.507812 180.867188 L 252.070312 133.144531 C 278.683594 127.972656 304.480469 145.375 309.652344 171.984375 Z M 330.949219 281.546875 "/></clipPath><clipPath id="7db60a3dc7"><path d="M 416.183594 597.140625 L 810 597.140625 L 810 675 L 416.183594 675 Z M 416.183594 597.140625 "/></clipPath><clipPath id="9fab3f6a89"><path d="M 305 83.097656 L 385 83.097656 L 385 172 L 305 172 Z M 305 83.097656 "/></clipPath><clipPath id="4fecd56530"><path d="M 0 0.558594 L 318.480469 0.558594 L 318.480469 99.441406 L 0 99.441406 Z M 0 0.558594 "/></clipPath><clipPath id="acfb8bd835"><rect x="0" width="319" y="0" height="100"/></clipPath><clipPath id="37cba8810b"><path d="M 579 118.90625 L 593 118.90625 L 593 143 L 579 143 Z M 579 118.90625 "/></clipPath><clipPath id="94beaffe24"><path d="M 620 118.90625 L 634 118.90625 L 634 143 L 620 143 Z M 620 118.90625 "/></clipPath><clipPath id="8317c0767b"><path d="M 620 183 L 649.664062 183 L 649.664062 214 L 620 214 Z M 620 183 "/></clipPath><clipPath id="5eba0b21f1"><path d="M 562 128 L 649.664062 128 L 649.664062 214 L 562 214 Z M 562 128 "/></clipPath><clipPath id="e866e8db19"><path d="M 345 532.058594 L 487 532.058594 L 487 583.058594 L 345 583.058594 Z M 345 532.058594 "/></clipPath></defs><g id="52eeb6ce14"><rect x="0" width="810" y="0" height="809.999993" style="fill:#ffffff;fill-opacity:1;stroke:none;"/><g transform="matrix(0.509766,0,0,0.509766,-495.128228,0.00002)"><image width="2560" xlink:href="file:///Users/erikbelt/Desktop/Mood Tracking App/AdCreator/image-generation-service/assets/Clean_MockUp-img1-a752bcd3.jpg" height="1920" preserveAspectRatio="xMidYMid meet"/></g><g mask="url(#6cc8369e63)" transform="matrix(1,0,0,1,0,680)"><g clip-path="url(#014a41d285)"><g clip-rule="nonzero" clip-path="url(#1511f12840)"><g clip-rule="nonzero" clip-path="url(#7330ebb1b3)"><g mask="url(#dee9c0ee7c)" transform="matrix(0.192433,-0.0286642,0.0286158,0.192108,-81.960173,93.2392)"><image width="3242" xlink:href="file:///Users/erikbelt/Desktop/Mood Tracking App/AdCreator/image-generation-service/assets/Clean_MockUp-img2-f0708fc3.png" id="cce99a8606" height="641" preserveAspectRatio="xMidYMid meet"/><mask id="dee9c0ee7c"><g><image width="3242" xlink:href="file:///Users/erikbelt/Desktop/Mood Tracking App/AdCreator/image-generation-service/assets/Clean_MockUp-img3-5c82c452.png" id="0fc514d023" height="641" preserveAspectRatio="xMidYMid meet"/></g></mask></g></g></g></g><mask id="6cc8369e63"><g filter="url(#8c9f48f637)"><rect x="0" width="810" y="0" height="809.999993" style="fill:#000000;fill-opacity:0.55;stroke:none;"/></g></mask></g><g clip-rule="nonzero" clip-path="url(#b3cac9ef77)"><g clip-rule="nonzero" clip-path="url(#f0660a5fa5)"><g clip-rule="nonzero" clip-path="url(#f581157dca)"><path style=" stroke:none;fill-rule:nonzero;fill:#000000;fill-opacity:1;" d="M -49.636719 188.195312 L 306.871094 118.90625 L 444.09375 824.953125 L 87.585938 894.242188 Z M -49.636719 188.195312 "/></g></g></g><g clip-rule="nonzero" clip-path="url(#efe8cf7e3c)"><g clip-rule="nonzero" clip-path="url(#dfad90aa1b)"><g clip-rule="nonzero" clip-path="url(#251ae4af6e)"><g clip-rule="nonzero" clip-path="url(#65cabc4301)"><g transform="matrix(1.185358,-0.230378,0.230542,1.186198,-719.165382,340.377603)"><image width="1438" xlink:href="PLACE_SCREENSHOT_HERE" height="560" preserveAspectRatio="xMidYMid meet"/></g></g></g></g></g><g clip-rule="nonzero" clip-path="url(#c11e330ad9)"><g clip-rule="nonzero" clip-path="url(#085788a50b)"><g clip-rule="nonzero" clip-path="url(#5b9abc124d)"><path style=" stroke:none;fill-rule:nonzero;fill:#555555;fill-opacity:1;" d="M -49.636719 188.195312 L 306.871094 118.90625 L 444.09375 824.953125 L 87.585938 894.242188 Z M -49.636719 188.195312 "/></g></g></g><g clip-rule="nonzero" clip-path="url(#5a4b806d06)"><g clip-rule="nonzero" clip-path="url(#d19643b155)"><g clip-rule="nonzero" clip-path="url(#79c8042c05)"><path style=" stroke:none;fill-rule:nonzero;fill:#555555;fill-opacity:1;" d="M -49.636719 188.195312 L 306.871094 118.90625 L 444.09375 824.953125 L 87.585938 894.242188 Z M -49.636719 188.195312 "/></g></g></g><g clip-rule="nonzero" clip-path="url(#1a876c4746)"><g clip-rule="nonzero" clip-path="url(#c31c0dfac2)"><g clip-rule="nonzero" clip-path="url(#481400c16d)"><path style=" stroke:none;fill-rule:nonzero;fill:#2e2e2e;fill-opacity:1;" d="M -49.636719 188.195312 L 306.871094 118.90625 L 444.09375 824.953125 L 87.585938 894.242188 Z M -49.636719 188.195312 "/></g></g></g><g clip-rule="nonzero" clip-path="url(#72d37d9f74)"><g clip-rule="nonzero" clip-path="url(#0e6038d8a6)"><g clip-rule="nonzero" clip-path="url(#4056ca71e3)"><path style=" stroke:none;fill-rule:nonzero;fill:#2e2e2e;fill-opacity:1;" d="M -49.636719 188.195312 L 306.871094 118.90625 L 444.09375 824.953125 L 87.585938 894.242188 Z M -49.636719 188.195312 "/></g></g></g><g clip-rule="nonzero" clip-path="url(#0ca4e25e46)"><g clip-rule="nonzero" clip-path="url(#fa875c4cc7)"><g clip-rule="nonzero" clip-path="url(#696a65e7a3)"><path style=" stroke:none;fill-rule:nonzero;fill:#555555;fill-opacity:1;" d="M -49.636719 188.195312 L 306.871094 118.90625 L 444.09375 824.953125 L 87.585938 894.242188 Z M -49.636719 188.195312 "/></g></g></g><g clip-rule="nonzero" clip-path="url(#7db60a3dc7)"><path style=" stroke:none;fill-rule:evenodd;fill:#ffffff;fill-opacity:1;" d="M 818.988281 604.164062 C 816.601562 603.324219 813.421875 603.011719 810.1875 602.738281 C 810.40625 602.570312 810.492188 602.3125 810.464844 601.992188 C 808.652344 601.929688 807.894531 602.550781 805.933594 602.398438 C 806.542969 602.007812 806.050781 601.691406 805.078125 601.847656 C 805.636719 601.367188 807.398438 601.660156 807.347656 602.199219 C 807.707031 602.148438 807.636719 601.828125 807.347656 601.828125 C 811.964844 602.078125 816.722656 601.308594 820.675781 602.101562 C 818.355469 600.496094 810.820312 600.527344 807.332031 599.59375 C 807.550781 599.164062 809.082031 599.402344 808.753906 599.957031 C 809.125 599.769531 809.808594 599.769531 809.882812 599.390625 C 812.957031 600 816.453125 600.230469 819.527344 600.066406 C 823.03125 601.402344 827.757812 601.929688 829.761719 604.273438 C 829.890625 605.785156 829.484375 606.589844 829.789062 607.808594 C 828.886719 609.382812 827.890625 610.902344 826.132812 611.925781 C 827.367188 613.457031 828.089844 614.609375 828.152344 616.195312 C 827.78125 616.5 826.066406 616.878906 827.308594 617.132812 C 826.722656 617.367188 826.117188 617.59375 825.613281 617.890625 C 825.757812 618.375 827.183594 618.503906 826.472656 618.996094 C 825.488281 619.152344 825.382812 618.730469 824.488281 618.824219 C 824.703125 619.917969 826.785156 620.375 827.34375 621.78125 C 828.035156 623.515625 826.746094 625.597656 826.820312 627.742188 C 824.046875 627.761719 825.03125 630.496094 821.167969 630.199219 C 824.085938 631.394531 828.34375 632.617188 831.960938 632.726562 C 832.613281 633.480469 833.546875 635.476562 831.984375 636.074219 C 832.316406 636.414062 832.730469 636.699219 833.128906 637 C 832.535156 637.460938 830.234375 637.023438 831.148438 637.945312 C 828.316406 638.40625 824.65625 637.738281 822.65625 639.308594 C 822.6875 639.785156 823.714844 639.601562 824.078125 639.855469 C 824.167969 640.332031 823.554688 640.945312 823.804688 641.347656 C 825.394531 641.734375 824.605469 642.050781 826.078125 642.074219 C 825.730469 642.589844 825.191406 642.984375 824.101562 643.019531 C 824.96875 643.5 826.558594 643.496094 826.945312 644.300781 C 823.710938 645.1875 822.304688 644.582031 818.726562 644.734375 C 823.855469 645.675781 828.441406 646.980469 832.644531 648.539062 C 832.699219 649.351562 832.753906 650.167969 832.089844 650.035156 C 832.625 650.617188 833.046875 650.183594 833.503906 649.839844 C 833.8125 651.441406 833.972656 652.421875 835.515625 653.359375 C 834.957031 654.683594 832.980469 654.160156 831.273438 654.507812 C 831.523438 655.398438 831.910156 656.203125 833.269531 656.351562 C 832.378906 658.046875 827.558594 657.8125 825.914062 658.453125 C 826.566406 659.5625 828.339844 658.644531 829.882812 658.421875 C 829.496094 659.179688 830.503906 659.003906 830.460938 659.535156 C 825.414062 659.722656 824.960938 661.246094 819.691406 660.730469 C 819.554688 665.578125 815.832031 668.113281 813.820312 671.753906 C 811.359375 671.300781 810.273438 672.121094 809.007812 672.90625 C 808.882812 673.425781 810.550781 672.746094 810.425781 673.265625 C 808.214844 673.917969 805.097656 673.8125 801.925781 674.074219 C 798.96875 674.316406 796.46875 674.324219 794.554688 673.574219 C 779.960938 675.417969 768.519531 673.960938 753.164062 674.808594 C 752.914062 674.210938 754.097656 674.546875 754.007812 674.058594 C 749.289062 674.039062 741.019531 675.429688 736.433594 674.371094 C 735.519531 674.546875 736.03125 673.769531 735.578125 673.632812 C 731.992188 673.746094 728.765625 674.941406 726.503906 673.699219 C 721.40625 673.414062 715.753906 674.941406 712.042969 673.808594 C 697.140625 674.066406 685.136719 674.738281 672.625 673.355469 C 665.5 673.011719 659.683594 673.507812 652.492188 673.132812 C 653.5 672.242188 655.875 672.230469 657.871094 671.976562 C 655.25 671.667969 650.980469 671.609375 647.378906 671.867188 C 635.34375 672.738281 622.804688 672.453125 610.519531 671.957031 C 609.957031 671.527344 610.589844 671.746094 610.800781 671.394531 C 608.386719 670.796875 605.851562 671.628906 603.714844 671.820312 C 603.179688 671.46875 603.679688 671.351562 603.707031 670.886719 C 601.285156 670.648438 601.996094 671.449219 600.59375 671.652344 C 599.273438 671.828125 600.984375 671.171875 600.023438 671.097656 C 599.417969 671.015625 599.484375 671.371094 599.460938 671.664062 C 596.210938 671.40625 593.613281 671.242188 589.820312 671.546875 C 588.652344 671.644531 590.039062 671.082031 589.25 670.808594 C 584.480469 670.742188 577.714844 671.824219 572.523438 671.304688 C 570.058594 671.058594 568.5 671.332031 565.71875 671.359375 C 563.335938 671.375 561.007812 670.398438 558.339844 670.109375 C 556.140625 669.875 552.871094 670.636719 549.550781 670.171875 C 549.609375 669.902344 550.394531 670.101562 550.394531 669.796875 C 540.75 670.128906 528.914062 670.175781 519.78125 671.136719 C 508.761719 670.425781 496.015625 672.230469 486.046875 672.128906 C 486.289062 671.851562 486.757812 671.722656 487.464844 671.746094 C 477.714844 671 462.742188 670.871094 450.316406 671.28125 C 449.140625 671.386719 449.109375 672.226562 447.488281 672.042969 C 446.738281 673.109375 444.457031 673.1875 442.964844 673.566406 C 442.699219 673.632812 441.855469 674.125 441.546875 674.132812 C 437.019531 674.328125 438.371094 670.886719 435.839844 669.152344 C 434.503906 669.699219 433.117188 669.914062 431.871094 669.183594 C 431.964844 668.003906 434.035156 668.113281 434.691406 667.300781 C 434.328125 667.039062 433.097656 666.707031 432.992188 667.316406 C 432.347656 666.941406 432.359375 666.347656 432.984375 666.011719 C 431.980469 665.917969 432.296875 666.675781 431.289062 666.582031 C 431.164062 666.191406 431.480469 666.085938 431.570312 665.832031 C 430.664062 665.730469 430.691406 666.1875 430.148438 665.84375 C 430.070312 664.683594 430.21875 663.667969 431.265625 663.230469 C 425.5625 662.046875 420.945312 659.027344 416.183594 656.648438 C 416.308594 655.496094 417.746094 655.191406 417.867188 654.03125 C 421.339844 653.347656 423.574219 653.007812 427.777344 652.839844 C 428.453125 652.472656 427.253906 651.800781 428.050781 651.351562 C 429.242188 651.523438 430.910156 651.46875 431.734375 650.578125 C 430.691406 650.3125 430.179688 650.523438 428.898438 650.226562 C 429.085938 649.792969 429.835938 649.71875 430.023438 649.285156 C 428.222656 648.222656 431.089844 646.5625 429.992188 645.378906 C 430.476562 644.945312 431.59375 645.671875 432.546875 645.546875 C 431.058594 644.972656 434.070312 645.214844 434.527344 644.785156 C 434.40625 644.402344 432.160156 645.207031 432.824219 644.429688 C 429.988281 644.71875 430.824219 644.308594 428.574219 644.460938 C 428.914062 641.628906 433.277344 640.535156 437.890625 639.179688 C 437.242188 638.617188 436.171875 637.539062 436.738281 636.769531 C 436.351562 636.414062 435.148438 637.089844 434.472656 637.15625 C 434.472656 636.601562 435.203125 636.519531 435.3125 636.035156 C 434.640625 635.585938 434.785156 636.316406 433.898438 636.230469 C 434.730469 635.132812 436.269531 635.488281 437.574219 634.902344 C 436.285156 634.195312 434.941406 634.871094 433.320312 634.933594 C 433.441406 634.640625 434.210938 634.765625 433.886719 634.1875 C 433.078125 634.160156 433.335938 634.820312 432.1875 634.570312 C 432.046875 633.988281 433.054688 634.140625 432.746094 633.449219 C 431.285156 633.667969 429.503906 633.847656 428.210938 633.667969 C 428.203125 632.984375 429.199219 632.949219 429.621094 632.542969 C 428.679688 632.242188 428.019531 632.734375 426.789062 632.746094 C 426.671875 631.929688 426.664062 631.070312 428.757812 630.875 C 428.664062 630.441406 428.800781 630.160156 429.035156 629.9375 C 427.847656 629.417969 427.324219 629.734375 424.78125 629.597656 C 424.328125 628.765625 425.957031 628.140625 425.613281 627.546875 C 424.835938 626.1875 423.253906 626.445312 421.0625 626.460938 C 421.96875 625.710938 421.546875 625.226562 422.464844 624.589844 C 421.050781 624.035156 422.09375 623.34375 422.164062 622.175781 C 422.671875 622.148438 422.761719 622.398438 423.296875 622.351562 C 423.941406 620.359375 428.902344 621.15625 429.511719 619.144531 C 428.203125 618.773438 429.011719 616.988281 427.792969 616.550781 C 429.375 614.117188 427.949219 609.738281 433.125 609.625 C 432.824219 608.824219 431.902344 608.449219 430.285156 608.53125 C 430.542969 607.675781 429.679688 607.5625 428.578125 607.609375 C 429.03125 606.664062 429.203125 606.597656 428 606.128906 C 429.285156 604.488281 428.953125 602.839844 430.226562 600.527344 C 441.941406 601.175781 458.195312 601.144531 468.515625 601.730469 C 468.789062 601.726562 468.734375 601.503906 468.796875 601.359375 C 471.042969 602.386719 474.515625 601.785156 476.730469 601.113281 C 476.585938 601.265625 476.441406 601.417969 476.453125 601.675781 C 477.691406 601.796875 478.046875 601.347656 479.285156 601.46875 C 481.726562 601.863281 490.761719 600.695312 496.574219 600.597656 C 502.953125 600.488281 509.59375 599.621094 512.722656 598.800781 C 513.738281 600.394531 516.984375 599.78125 520.386719 599.675781 C 521.246094 599.597656 520.871094 600.351562 521.523438 600.410156 C 523.261719 599.582031 528.3125 600.855469 530.308594 599.789062 C 530.480469 599.304688 530.191406 599.117188 529.457031 599.234375 C 531.464844 598.574219 533.988281 599.300781 536.257812 598.8125 C 536.070312 598.625 535.605469 598.625 535.6875 598.257812 C 539.566406 598.464844 543.683594 599.078125 546.191406 600.039062 C 547.570312 599.65625 548.421875 600.230469 549.597656 600.386719 C 552.96875 600.828125 558.058594 599.96875 562.070312 599.921875 C 574.433594 599.769531 586.582031 600.789062 598.082031 600.027344 C 598.269531 600.214844 598.734375 600.214844 598.652344 600.582031 C 607.628906 600.4375 614.785156 599.769531 623.597656 599.839844 C 623.679688 599.347656 623.003906 599.363281 622.457031 599.289062 C 624.714844 599.089844 626.835938 599.78125 628.699219 600.171875 C 630.664062 598.867188 632.1875 600.351562 634.9375 600.3125 C 635.101562 600.722656 634.402344 600.582031 634.375 600.878906 C 643.601562 601.519531 651.847656 598.621094 661.304688 600.117188 C 661.667969 599.796875 662.234375 599.609375 663.003906 599.550781 C 662.738281 600.738281 660.113281 600.398438 658.757812 600.882812 C 663.105469 600.910156 668.347656 600.300781 673.503906 601.332031 C 675.296875 599.585938 680.433594 600.644531 684.554688 600.132812 C 684.632812 600.433594 684.289062 600.457031 684.273438 600.695312 C 685.609375 600.675781 686.425781 601.007812 687.679688 601.039062 C 687.699219 600.40625 686.625 600.496094 685.691406 600.496094 C 687.953125 599.574219 691.128906 601.160156 692.203125 599.332031 C 693.738281 599.546875 694.769531 599.546875 695.601562 598.933594 C 695.683594 599.234375 695.339844 599.253906 695.324219 599.496094 C 703.171875 600.527344 712.105469 600.402344 722.265625 600.414062 C 722.132812 599.691406 720.308594 600.097656 719.707031 599.6875 C 729.335938 598.761719 740.195312 601.511719 750.042969 599.460938 C 748.636719 598.882812 745.453125 598.996094 744.367188 598.761719 C 743.777344 598.65625 742.507812 599.007812 742.382812 598.589844 C 745.617188 598.664062 746.734375 598.109375 749.46875 598.164062 C 749.90625 597.953125 750.054688 597.554688 750.882812 597.597656 C 750.269531 597.992188 751.027344 598.128906 750.890625 598.714844 C 752.117188 598.890625 752.460938 598.496094 753.15625 598.324219 C 754.714844 599.144531 756.152344 598.816406 757.980469 598.289062 C 767.820312 600.097656 780.386719 598.503906 791.441406 599.15625 C 788.773438 600.074219 784.804688 599.148438 782.375 600.339844 C 782.867188 600.824219 785.1875 600.085938 784.652344 601.253906 C 785.867188 601.359375 785.800781 600.640625 786.917969 600.683594 C 787.28125 600.921875 787.285156 601.367188 786.921875 601.613281 C 789.226562 601.160156 793.496094 601.246094 796.285156 602.289062 C 795.433594 602.296875 794.585938 602.300781 793.730469 602.308594 C 799.625 602.753906 808.726562 603.832031 815.574219 603.636719 C 816.191406 604.585938 816.777344 603.664062 818.988281 604.164062 Z M 615.101562 601.019531 C 616.507812 600.921875 617.992188 601.140625 616.808594 601.75 C 617.960938 601.816406 618.257812 601.332031 619.070312 601.175781 C 617.871094 601.171875 618.394531 600.757812 618.78125 600.433594 C 617.6875 601.117188 615.269531 599.792969 615.101562 601.019531 Z M 752.890625 599.8125 C 752.535156 599.773438 752.3125 599.527344 752.324219 600 C 753.777344 599.964844 755.160156 599.796875 756.011719 599.972656 C 755.925781 599.183594 753.554688 599.316406 752.890625 599.8125 Z M 674.667969 604.484375 C 674.398438 605.164062 676.253906 604.871094 676.085938 604.476562 C 675.382812 604.460938 675.207031 604.132812 674.667969 604.484375 Z M 676.65625 604.84375 C 677.609375 604.714844 679.292969 605.0625 679.773438 604.632812 C 678.261719 604.542969 677.628906 604.03125 676.65625 604.84375 Z M 634.476562 613.71875 C 635.285156 614.273438 636.886719 613.578125 637.03125 614.257812 C 637.875 614.261719 638.46875 613.699219 639.015625 614.058594 C 639.015625 613.808594 639.015625 613.5625 639.011719 613.3125 C 637.605469 613.515625 635.671875 613.375 634.476562 613.71875 Z M 767.242188 622.785156 C 768.089844 622.59375 769.300781 622.628906 769.503906 622.023438 C 768.390625 622.046875 767.011719 621.898438 767.242188 622.785156 Z M 773.488281 624.039062 C 777.410156 623.671875 771.789062 623.503906 771.21875 624.058594 C 772.160156 624.015625 772.898438 624.09375 773.488281 624.039062 Z M 516.402344 636.179688 C 516.628906 636.328125 518.140625 636.363281 518.101562 635.796875 C 517.351562 635.804688 516.429688 635.703125 516.402344 636.179688 Z M 600.972656 646.347656 C 601.335938 645.65625 599.289062 645.621094 598.984375 645.992188 C 600.097656 645.808594 599.710938 646.628906 600.972656 646.347656 Z M 605.511719 646.3125 C 608.03125 646.632812 610.132812 646.304688 613.164062 646.441406 C 611.613281 646.179688 607.078125 645.597656 605.511719 646.3125 Z M 620.257812 646.390625 C 619.808594 646.378906 619.273438 646.425781 619.402344 646.023438 C 617.6875 646.417969 615.078125 645.996094 613.730469 646.066406 C 616.847656 646.683594 618.332031 646.816406 620.257812 646.390625 Z M 590.488281 647.355469 C 588.5625 647.65625 585.84375 646.875 585.105469 647.582031 C 588.429688 648.078125 595.777344 648.277344 599.5625 647.472656 C 596.566406 647.28125 594.734375 646.839844 591.910156 647.160156 C 594.109375 647.835938 589.9375 646.921875 589.921875 646.988281 C 590.238281 647.027344 590.363281 647.191406 590.488281 647.355469 Z M 622.246094 647.121094 C 622.910156 647.117188 623.566406 647.109375 624.226562 647.105469 C 624.34375 646.355469 622.304688 646.8125 622.246094 647.121094 Z M 600.417969 647.464844 C 600.242188 647.476562 600.082031 647.5 600.132812 647.652344 C 601.378906 647.742188 605.238281 647.5 602.117188 647.453125 C 601.523438 647.050781 601.199219 647.625 600.695312 647.28125 C 600.679688 647.164062 600.652344 647.058594 600.410156 647.09375 C 600.414062 647.21875 600.414062 647.34375 600.417969 647.464844 Z M 584.265625 648.703125 C 583.976562 649.078125 583.210938 649.136719 582.851562 649.457031 C 589.023438 649.746094 599.554688 649.492188 606.667969 649.28125 C 600.371094 648.277344 591.710938 649.339844 584.265625 648.703125 Z M 787.902344 656.125 C 790.8125 657.304688 795.042969 657.742188 798.683594 657.539062 C 794.96875 657.371094 790.882812 655.546875 787.902344 656.125 Z M 775.4375 658.082031 C 776.351562 658.640625 778.757812 658.523438 779.691406 658.050781 C 779.617188 658.476562 779.761719 658.75 780.261719 658.789062 C 780.75 658.40625 780.050781 658.429688 780.539062 658.042969 C 778.972656 657.3125 777.308594 657.6875 775.4375 658.082031 Z M 770.335938 658.304688 C 771.472656 658.234375 771.910156 658.625 773.171875 658.472656 C 773.078125 657.519531 770.355469 657.917969 770.335938 658.304688 Z M 795.015625 659.796875 C 795.941406 659.957031 796.78125 659.921875 798.417969 659.957031 C 798.390625 659.101562 795.964844 659.636719 795.015625 659.796875 Z M 542.445312 668.367188 C 541.742188 668.6875 539.691406 668.03125 538.757812 668.582031 C 539.390625 669.144531 542.027344 669.039062 542.445312 668.367188 Z M 665.792969 669.316406 C 664.753906 669.464844 664.214844 668.871094 663.523438 669.335938 C 664.578125 670.179688 666.941406 669.914062 668.914062 669.851562 C 672.097656 669.753906 675.101562 669.28125 678.265625 669.597656 C 675.253906 668.578125 668.148438 669.144531 665.792969 669.316406 Z M 682.804688 669.375 C 684.050781 669.601562 686.976562 669.394531 688.757812 668.960938 C 686.675781 669.183594 683.09375 668.261719 682.804688 669.375 Z M 700.097656 668.875 C 700.035156 669.703125 697.328125 668.8125 697.269531 669.640625 C 698.6875 669.9375 699.699219 669.679688 700.957031 669.429688 C 701.09375 669.917969 701.179688 670.054688 701.8125 670.539062 C 707.710938 668.902344 713.429688 671.507812 719.105469 669.851562 C 712.855469 669.042969 706.332031 669.945312 700.097656 668.875 Z M 647.933594 670.007812 C 646.488281 670.007812 644.65625 669.214844 643.96875 670.410156 C 649.070312 670.710938 654.140625 670.566406 659.269531 669.554688 C 655.589844 669.535156 651.496094 669.996094 647.933594 670.007812 Z M 647.933594 670.007812 "/></g><g clip-rule="nonzero" clip-path="url(#9fab3f6a89)"><path style=" stroke:none;fill-rule:nonzero;fill:#f08eb7;fill-opacity:1;" d="M 384.976562 158.515625 C 382.207031 161.734375 378.59375 163.210938 374.46875 164.054688 C 364.59375 166.101562 354.78125 168.511719 344.90625 170.585938 C 341.625 171.25 338.3125 171.671875 335 171.851562 C 331.960938 172.03125 329.882812 170.464844 329.402344 168.179688 C 328.917969 165.800781 330.304688 163.332031 333.375 162.546875 C 338.433594 161.253906 343.613281 160.441406 348.730469 159.359375 C 356.496094 157.730469 364.203125 155.894531 371.972656 154.480469 C 376.488281 153.636719 380.972656 154.269531 384.945312 156.890625 Z M 322.054688 83.097656 C 318.714844 85.117188 316.035156 87.796875 314.800781 91.5 C 311.609375 101.070312 308.566406 110.707031 305.648438 120.398438 C 305.074219 122.296875 304.925781 124.3125 305.195312 126.269531 C 305.375 127.566406 306.492188 129.371094 307.542969 129.671875 C 308.777344 130.003906 310.523438 129.132812 311.820312 128.410156 C 312.570312 127.988281 313.054688 126.871094 313.445312 125.96875 C 317.902344 115.191406 322.265625 104.382812 324.164062 92.824219 C 324.675781 89.722656 323.53125 86.351562 323.140625 83.097656 Z M 357.820312 109.472656 C 349.121094 114.980469 340.300781 120.25 333.226562 127.957031 C 331.539062 129.792969 329.339844 131.179688 327.503906 132.894531 C 325.878906 134.429688 324.191406 135.964844 322.929688 137.800781 C 321.785156 139.425781 321.722656 141.445312 323.351562 143.011719 C 324.886719 144.484375 326.753906 144.335938 328.378906 143.339844 C 331.839844 141.234375 335.421875 139.214844 338.523438 136.65625 C 344.695312 131.507812 350.597656 126.058594 356.558594 120.703125 C 358.90625 118.59375 361.253906 116.457031 363.511719 114.257812 C 365.257812 112.542969 366.671875 110.585938 366.402344 107.753906 C 363.179688 106.941406 360.378906 107.847656 357.820312 109.472656 Z M 357.820312 109.472656 "/></g><g mask="url(#9e3712d910)" transform="matrix(1,0,0,1,0,688)"><g clip-path="url(#acfb8bd835)"><g clip-rule="nonzero" clip-path="url(#4fecd56530)"><path style=" stroke:none;fill-rule:nonzero;fill:#f08eb7;fill-opacity:1;" d="M 27.105469 71.859375 C 30.851562 73.203125 34.328125 74.519531 37.871094 75.683594 C 41.414062 76.847656 44.238281 79.105469 46.953125 81.496094 C 48.878906 83.195312 49.507812 85.433594 48.609375 87.914062 C 48.027344 89.546875 47.398438 91.222656 46.570312 92.746094 C 43.519531 98.289062 38.453125 100.101562 32.398438 98.445312 C 24.503906 96.300781 22.082031 93.214844 20.714844 83.554688 C 20.425781 81.519531 20.671875 79.417969 20.671875 77.003906 C 19.304688 77.183594 17.890625 77.203125 16.546875 77.539062 C 11.277344 78.8125 6.273438 80.582031 2.082031 84.292969 C 0.625 85.566406 -1.4375 86.238281 -3.300781 86.953125 C -4.53125 87.421875 -4.890625 86.929688 -4.464844 85.65625 C -3.410156 82.414062 -1.304688 79.574219 1.523438 77.628906 C 7.574219 73.402344 14.078125 70.472656 21.703125 70.832031 C 22.128906 70.855469 22.824219 70.40625 22.980469 70.003906 C 26.972656 60.523438 33.050781 52.585938 40.113281 45.140625 C 48.164062 36.640625 57.847656 29.824219 68.589844 25.105469 C 77.917969 20.96875 87.335938 16.539062 97.359375 14.394531 C 112.742188 11.105469 128.28125 10.882812 143.867188 13.5 C 160.101562 16.203125 176.019531 20.207031 191.988281 24.007812 C 202.570312 26.535156 213.175781 29.152344 224.050781 29.777344 C 232.417969 30.269531 240.847656 30.136719 249.234375 29.867188 C 255.917969 29.664062 262.597656 29.105469 269.234375 28.210938 C 277.195312 27.140625 284.507812 23.828125 291.859375 20.832031 C 301.4375 16.964844 309.21875 10.859375 314.890625 2.183594 C 315.496094 1.269531 316.144531 0.351562 317.378906 0.867188 C 318.613281 1.378906 318.476562 2.585938 318.230469 3.570312 C 317.558594 6.523438 316.101562 9.25 314.015625 11.464844 C 308.140625 17.636719 301.683594 22.980469 293.632812 26.175781 C 285.785156 29.308594 278.070312 32.839844 269.617188 34.070312 C 264.144531 34.851562 258.605469 35.433594 253.070312 35.726562 C 244.90625 36.128906 236.722656 36.484375 228.535156 36.328125 C 216.449219 36.105469 204.699219 33.355469 192.972656 30.714844 C 179.878906 27.808594 166.851562 24.433594 153.710938 21.660156 C 142.925781 19.378906 132.027344 17.523438 120.882812 17.882812 C 113.035156 18.148438 104.984375 17.925781 97.515625 20.296875 C 82.179688 25.171875 66.503906 29.597656 53.363281 39.460938 C 42.960938 47.261719 34.035156 56.5 28.453125 68.484375 C 27.9375 69.558594 27.578125 70.699219 27.105469 71.859375 Z M 25.625 77.964844 C 24.753906 81.542969 25.425781 84.71875 26.433594 87.871094 C 27.78125 91.984375 31.660156 94.511719 36.234375 94.308594 C 40.203125 94.132812 42.535156 91.917969 43.632812 87.265625 C 43.65625 87.222656 43.699219 87.15625 43.679688 87.109375 C 43.429688 86.460938 43.386719 85.566406 42.914062 85.1875 C 37.9375 81.117188 31.949219 79.394531 25.625 77.964844 Z M 25.625 77.964844 "/></g></g><mask id="9e3712d910"><g filter="url(#8c9f48f637)"><rect x="0" width="810" y="0" height="809.999993" style="fill:#000000;fill-opacity:0.56;stroke:none;"/></g></mask></g><path style=" stroke:none;fill-rule:nonzero;fill:#ffffff;fill-opacity:1;" d="M 637.042969 149.574219 L 563.886719 149.574219 C 562.902344 149.574219 562.101562 148.777344 562.101562 147.792969 C 562.101562 146.804688 562.902344 146.007812 563.886719 146.007812 L 637.039062 146.007812 C 638.027344 146.007812 638.824219 146.804688 638.824219 147.792969 C 638.828125 148.777344 638.027344 149.574219 637.042969 149.574219 Z M 637.042969 149.574219 "/><g clip-rule="nonzero" clip-path="url(#37cba8810b)"><path style=" stroke:none;fill-rule:nonzero;fill:#ffffff;fill-opacity:1;" d="M 586.992188 142.261719 L 585.425781 142.261719 C 582.1875 142.261719 579.550781 139.628906 579.550781 136.390625 L 579.550781 124.8125 C 579.550781 121.574219 582.1875 118.941406 585.425781 118.941406 L 586.992188 118.941406 C 590.226562 118.941406 592.863281 121.574219 592.863281 124.8125 L 592.863281 136.390625 C 592.863281 139.628906 590.226562 142.261719 586.992188 142.261719 Z M 585.425781 122.507812 C 584.15625 122.507812 583.121094 123.542969 583.121094 124.8125 L 583.121094 136.390625 C 583.121094 137.660156 584.15625 138.691406 585.425781 138.691406 L 586.992188 138.691406 C 588.261719 138.691406 589.292969 137.660156 589.292969 136.390625 L 589.292969 124.8125 C 589.292969 123.542969 588.257812 122.507812 586.992188 122.507812 Z M 585.425781 122.507812 "/></g><g clip-rule="nonzero" clip-path="url(#94beaffe24)"><path style=" stroke:none;fill-rule:nonzero;fill:#ffffff;fill-opacity:1;" d="M 627.882812 142.261719 L 626.3125 142.261719 C 623.074219 142.261719 620.441406 139.628906 620.441406 136.390625 L 620.441406 124.8125 C 620.441406 121.574219 623.074219 118.941406 626.3125 118.941406 L 627.882812 118.941406 C 631.121094 118.941406 633.753906 121.574219 633.753906 124.8125 L 633.753906 136.390625 C 633.753906 139.628906 631.121094 142.261719 627.882812 142.261719 Z M 626.3125 122.507812 C 625.042969 122.507812 624.011719 123.542969 624.011719 124.8125 L 624.011719 136.390625 C 624.011719 137.660156 625.046875 138.691406 626.3125 138.691406 L 627.886719 138.691406 C 629.15625 138.691406 630.1875 137.660156 630.1875 136.390625 L 630.1875 124.8125 C 630.1875 123.542969 629.152344 122.507812 627.886719 122.507812 Z M 626.3125 122.507812 "/></g><path style=" stroke:none;fill-rule:nonzero;fill:#ffffff;fill-opacity:1;" d="M 615.285156 132.488281 L 598.554688 132.488281 C 597.570312 132.488281 596.769531 131.6875 596.769531 130.703125 C 596.769531 129.71875 597.570312 128.917969 598.554688 128.917969 L 615.285156 128.917969 C 616.269531 128.917969 617.070312 129.71875 617.070312 130.703125 C 617.070312 131.6875 616.269531 132.488281 615.285156 132.488281 Z M 615.285156 132.488281 "/><g clip-rule="nonzero" clip-path="url(#8317c0767b)"><path style=" stroke:none;fill-rule:nonzero;fill:#ffffff;fill-opacity:1;" d="M 622 214 C 621.261719 214 620.589844 213.539062 620.328125 212.839844 C 620.0625 212.113281 620.289062 211.296875 620.894531 210.8125 C 621.230469 210.546875 628.773438 204.367188 624.835938 194.59375 C 624.558594 193.902344 624.742188 193.105469 625.296875 192.605469 C 625.851562 192.101562 626.660156 192 627.324219 192.347656 C 627.347656 192.363281 630.375 193.910156 634.027344 193.910156 C 639.351562 193.910156 643.242188 190.679688 645.589844 184.308594 C 645.886719 183.511719 646.699219 183.03125 647.535156 183.160156 C 648.375 183.289062 649.007812 183.988281 649.046875 184.835938 C 649.074219 185.332031 649.570312 197.082031 641.839844 205.609375 C 637.15625 210.777344 630.507812 213.597656 622.085938 213.996094 C 622.058594 214 622.03125 214 622 214 Z M 629.214844 196.824219 C 630.328125 202.507812 628.355469 207.027344 626.367188 209.941406 C 631.710938 208.976562 636.011719 206.722656 639.195312 203.214844 C 642.058594 200.058594 643.621094 196.332031 644.476562 193.070312 C 641.132812 196.566406 637.210938 197.480469 634.027344 197.480469 C 632.230469 197.480469 630.574219 197.1875 629.214844 196.824219 Z M 629.214844 196.824219 "/></g><g clip-rule="nonzero" clip-path="url(#5eba0b21f1)"><path style=" stroke:none;fill-rule:nonzero;fill:#ffffff;fill-opacity:1;" d="M 643.4375 214 L 567.714844 214 C 564.621094 214 562.101562 211.480469 562.101562 208.386719 L 562.101562 134.53125 C 562.101562 131.4375 564.621094 128.917969 567.714844 128.917969 L 573.5 128.917969 C 574.488281 128.917969 575.285156 129.71875 575.285156 130.703125 C 575.285156 131.6875 574.488281 132.488281 573.5 132.488281 L 567.714844 132.488281 C 566.585938 132.488281 565.671875 133.40625 565.671875 134.53125 L 565.671875 208.386719 C 565.671875 209.511719 566.585938 210.429688 567.714844 210.429688 L 643.4375 210.429688 C 644.566406 210.429688 645.484375 209.511719 645.484375 208.386719 L 645.484375 134.53125 C 645.484375 133.40625 644.566406 132.488281 643.4375 132.488281 L 638.550781 132.488281 C 637.5625 132.488281 636.765625 131.6875 636.765625 130.703125 C 636.765625 129.71875 637.5625 128.917969 638.550781 128.917969 L 643.4375 128.917969 C 646.535156 128.917969 649.054688 131.4375 649.054688 134.53125 L 649.054688 208.386719 C 649.054688 211.480469 646.535156 214 643.4375 214 Z M 643.4375 214 "/></g><path style=" stroke:none;fill-rule:nonzero;fill:#f08eb7;fill-opacity:1;" d="M 605.289062 199.792969 C 604.847656 199.792969 604.417969 199.660156 604.011719 199.398438 C 597.601562 194.816406 592.734375 190.667969 588.621094 186.296875 C 586.320312 183.816406 584.628906 181.566406 583.285156 179.203125 C 580.753906 174.734375 581 169.964844 584.011719 165.015625 C 586.160156 161.507812 589.210938 159.371094 593.09375 158.660156 C 597.75 157.8125 602.4375 159.707031 605.292969 163.414062 C 605.636719 162.964844 606.003906 162.546875 606.398438 162.152344 C 608.710938 159.820312 611.972656 158.476562 615.339844 158.476562 C 618.257812 158.476562 621.078125 159.476562 623.273438 161.296875 C 626.96875 164.347656 628.90625 168.359375 629.035156 173.230469 C 629.085938 175.480469 628.242188 177.394531 627.40625 178.96875 C 625.570312 182.421875 623.082031 185.171875 620.894531 187.40625 C 616.988281 191.375 612.363281 195.25 606.746094 199.253906 C 606.53125 199.417969 606.035156 199.792969 605.289062 199.792969 Z M 595.367188 162.023438 C 594.824219 162.023438 594.273438 162.074219 593.730469 162.171875 C 590.855469 162.699219 588.671875 164.238281 587.058594 166.875 C 584.707031 170.738281 584.496094 174.097656 586.390625 177.441406 C 587.589844 179.558594 589.128906 181.597656 591.226562 183.859375 C 595.011719 187.882812 599.492188 191.730469 605.277344 195.914062 C 610.449219 192.1875 614.730469 188.582031 618.34375 184.90625 C 620.351562 182.859375 622.628906 180.347656 624.25 177.296875 C 624.867188 176.132812 625.496094 174.746094 625.460938 173.320312 C 625.363281 169.480469 623.902344 166.445312 620.996094 164.046875 C 619.4375 162.757812 617.429688 162.046875 615.339844 162.046875 C 612.917969 162.046875 610.578125 163.003906 608.925781 164.671875 C 608.128906 165.46875 607.480469 166.402344 606.886719 167.613281 C 606.59375 168.210938 605.988281 168.597656 605.320312 168.609375 C 604.652344 168.605469 604.035156 168.265625 603.71875 167.679688 C 603.609375 167.480469 603.535156 167.332031 603.464844 167.199219 L 603.375 167.023438 C 601.734375 163.890625 598.742188 162.023438 595.367188 162.023438 Z M 595.367188 162.023438 "/><path style=" stroke:none;fill-rule:nonzero;fill:#f08eb7;fill-opacity:1;" d="M 618.882812 176.726562 C 618.503906 176.726562 618.125 176.609375 617.800781 176.359375 C 617.015625 175.761719 616.867188 174.640625 617.464844 173.859375 C 618.140625 172.972656 618.300781 171.621094 617.859375 170.492188 C 617.652344 169.964844 617.132812 169.046875 615.980469 168.839844 C 615.011719 168.667969 614.363281 167.742188 614.535156 166.769531 C 614.707031 165.800781 615.628906 165.152344 616.601562 165.324219 C 618.699219 165.695312 620.371094 167.105469 621.183594 169.195312 C 622.074219 171.476562 621.726562 174.15625 620.300781 176.023438 C 619.953125 176.484375 619.417969 176.726562 618.882812 176.726562 Z M 618.882812 176.726562 "/><path style=" stroke:none;fill-rule:nonzero;fill:#f08eb7;fill-opacity:1;" d="M 616.023438 181.929688 C 615.980469 181.929688 615.933594 181.929688 615.890625 181.925781 C 614.90625 181.875 614.148438 181.035156 614.199219 180.050781 C 614.226562 179.464844 614.539062 178.957031 614.996094 178.65625 C 615.238281 178.40625 615.554688 178.222656 615.925781 178.148438 C 616.882812 177.953125 617.832031 178.578125 618.027344 179.546875 C 618.152344 180.160156 617.996094 180.777344 617.597656 181.238281 C 617.371094 181.503906 616.871094 181.929688 616.023438 181.929688 Z M 616.023438 181.929688 "/><g clip-rule="nonzero" clip-path="url(#e866e8db19)"><path style=" stroke:none;fill-rule:nonzero;fill:#ffffff;fill-opacity:1;" d="M 347.292969 576.785156 C 345.125 575.3125 345.585938 573.566406 346.167969 571.898438 C 347.765625 567.285156 350.128906 563.128906 353.726562 559.730469 C 365.199219 548.910156 378.785156 541.886719 393.933594 537.988281 C 409.464844 533.992188 424.792969 534.871094 439.617188 541.253906 C 446.589844 544.261719 453.40625 547.648438 460.535156 550.980469 C 460.277344 550.207031 460.039062 549.214844 459.636719 548.28125 C 456.925781 541.917969 457.160156 540.421875 462.007812 535.402344 C 463.085938 534.273438 464.371094 533.351562 465.875 532.058594 C 466.6875 533.363281 467.292969 534.285156 467.84375 535.242188 C 473.792969 545.523438 479.5625 555.914062 485.804688 566.023438 C 487.3125 568.476562 487.175781 570.367188 486.1875 572.453125 C 484.1875 576.640625 480.664062 579.632812 477 582.210938 C 475.71875 583.113281 473.320312 582.820312 471.511719 582.5625 C 458.25 580.613281 444.9375 579.90625 431.585938 580.972656 C 427.425781 581.3125 423.320312 582.28125 418.820312 583.011719 C 418.328125 581.683594 419.148438 580.207031 419.933594 578.957031 C 423.636719 573.09375 428.132812 568.207031 435.511719 567.171875 C 438.996094 566.6875 442.472656 566.167969 445.960938 565.71875 C 447.511719 565.515625 449.085938 565.472656 451.007812 565.324219 C 443.890625 557.578125 412.601562 550.160156 396.734375 552.210938 C 377.433594 554.695312 361.058594 563.253906 347.292969 576.785156 Z M 347.292969 576.785156 "/></g></g></svg>