<svg xmlns="http://www.w3.org/2000/svg" xmlns:xlink="http://www.w3.org/1999/xlink" width="1080" zoomAndPan="magnify" viewBox="0 0 810 809.999993" height="1080" preserveAspectRatio="xMidYMid meet" version="1.2"><defs><linearGradient x1="0" gradientTransform="matrix(0.75,0,0,0.75,0.0000035,0.00002)" y1="540" x2="1079.999955" gradientUnits="userSpaceOnUse" y2="540" id="cdb93f5d96"><stop style="stop-color:#5de0e6;stop-opacity:1;" offset="0"/><stop style="stop-color:#5ddfe6;stop-opacity:1;" offset="0.00390625"/><stop style="stop-color:#5cdfe6;stop-opacity:1;" offset="0.0078125"/><stop style="stop-color:#5cdee5;stop-opacity:1;" offset="0.0117187"/><stop style="stop-color:#5cdee5;stop-opacity:1;" offset="0.015625"/><stop style="stop-color:#5bdde5;stop-opacity:1;" offset="0.0195312"/><stop style="stop-color:#5bdce5;stop-opacity:1;" offset="0.0234375"/><stop style="stop-color:#5bdce4;stop-opacity:1;" offset="0.0273438"/><stop style="stop-color:#5adbe4;stop-opacity:1;" offset="0.03125"/><stop style="stop-color:#5adbe4;stop-opacity:1;" offset="0.0351562"/><stop style="stop-color:#59dae4;stop-opacity:1;" offset="0.0390625"/><stop style="stop-color:#59d9e4;stop-opacity:1;" offset="0.0429687"/><stop style="stop-color:#59d9e3;stop-opacity:1;" offset="0.046875"/><stop style="stop-color:#58d8e3;stop-opacity:1;" offset="0.0507812"/><stop style="stop-color:#58d8e3;stop-opacity:1;" offset="0.0546875"/><stop style="stop-color:#58d7e3;stop-opacity:1;" offset="0.0585938"/><stop style="stop-color:#57d7e2;stop-opacity:1;" offset="0.0625"/><stop style="stop-color:#57d6e2;stop-opacity:1;" offset="0.0664062"/><stop style="stop-color:#57d5e2;stop-opacity:1;" offset="0.0703125"/><stop style="stop-color:#56d5e2;stop-opacity:1;" offset="0.0742187"/><stop style="stop-color:#56d4e2;stop-opacity:1;" offset="0.078125"/><stop style="stop-color:#55d4e1;stop-opacity:1;" offset="0.0820312"/><stop style="stop-color:#55d3e1;stop-opacity:1;" offset="0.0859375"/><stop style="stop-color:#55d2e1;stop-opacity:1;" offset="0.0898437"/><stop style="stop-color:#54d2e1;stop-opacity:1;" offset="0.09375"/><stop style="stop-color:#54d1e0;stop-opacity:1;" offset="0.0976562"/><stop style="stop-color:#54d1e0;stop-opacity:1;" offset="0.101562"/><stop style="stop-color:#53d0e0;stop-opacity:1;" offset="0.105469"/><stop style="stop-color:#53cfe0;stop-opacity:1;" offset="0.109375"/><stop style="stop-color:#53cfe0;stop-opacity:1;" offset="0.113281"/><stop style="stop-color:#52cedf;stop-opacity:1;" offset="0.117188"/><stop style="stop-color:#52cedf;stop-opacity:1;" offset="0.121094"/><stop style="stop-color:#51cddf;stop-opacity:1;" offset="0.125"/><stop style="stop-color:#51cddf;stop-opacity:1;" offset="0.128906"/><stop style="stop-color:#51ccde;stop-opacity:1;" offset="0.132812"/><stop style="stop-color:#50cbde;stop-opacity:1;" offset="0.136719"/><stop style="stop-color:#50cbde;stop-opacity:1;" offset="0.140625"/><stop style="stop-color:#50cade;stop-opacity:1;" offset="0.144531"/><stop style="stop-color:#4fcade;stop-opacity:1;" offset="0.148437"/><stop style="stop-color:#4fc9dd;stop-opacity:1;" offset="0.152344"/><stop style="stop-color:#4fc8dd;stop-opacity:1;" offset="0.15625"/><stop style="stop-color:#4ec8dd;stop-opacity:1;" offset="0.160156"/><stop style="stop-color:#4ec7dd;stop-opacity:1;" offset="0.164062"/><stop style="stop-color:#4dc7dc;stop-opacity:1;" offset="0.167969"/><stop style="stop-color:#4dc6dc;stop-opacity:1;" offset="0.171875"/><stop style="stop-color:#4dc6dc;stop-opacity:1;" offset="0.175781"/><stop style="stop-color:#4cc5dc;stop-opacity:1;" offset="0.179687"/><stop style="stop-color:#4cc4dc;stop-opacity:1;" offset="0.183594"/><stop style="stop-color:#4cc4db;stop-opacity:1;" offset="0.1875"/><stop style="stop-color:#4bc3db;stop-opacity:1;" offset="0.191406"/><stop style="stop-color:#4bc3db;stop-opacity:1;" offset="0.195312"/><stop style="stop-color:#4bc2db;stop-opacity:1;" offset="0.199219"/><stop style="stop-color:#4ac1da;stop-opacity:1;" offset="0.203125"/><stop style="stop-color:#4ac1da;stop-opacity:1;" offset="0.207031"/><stop style="stop-color:#49c0da;stop-opacity:1;" offset="0.210938"/><stop style="stop-color:#49c0da;stop-opacity:1;" offset="0.214844"/><stop style="stop-color:#49bfda;stop-opacity:1;" offset="0.21875"/><stop style="stop-color:#48bfd9;stop-opacity:1;" offset="0.222656"/><stop style="stop-color:#48bed9;stop-opacity:1;" offset="0.226562"/><stop style="stop-color:#48bdd9;stop-opacity:1;" offset="0.230469"/><stop style="stop-color:#47bdd9;stop-opacity:1;" offset="0.234375"/><stop style="stop-color:#47bcd8;stop-opacity:1;" offset="0.238281"/><stop style="stop-color:#47bcd8;stop-opacity:1;" offset="0.242188"/><stop style="stop-color:#46bbd8;stop-opacity:1;" offset="0.246094"/><stop style="stop-color:#46bad8;stop-opacity:1;" offset="0.25"/><stop style="stop-color:#45bad8;stop-opacity:1;" offset="0.253906"/><stop style="stop-color:#45b9d7;stop-opacity:1;" offset="0.257812"/><stop style="stop-color:#45b9d7;stop-opacity:1;" offset="0.261719"/><stop style="stop-color:#44b8d7;stop-opacity:1;" offset="0.265625"/><stop style="stop-color:#44b7d7;stop-opacity:1;" offset="0.269531"/><stop style="stop-color:#44b7d6;stop-opacity:1;" offset="0.273437"/><stop style="stop-color:#43b6d6;stop-opacity:1;" offset="0.277344"/><stop style="stop-color:#43b6d6;stop-opacity:1;" offset="0.28125"/><stop style="stop-color:#43b5d6;stop-opacity:1;" offset="0.285156"/><stop style="stop-color:#42b5d5;stop-opacity:1;" offset="0.289062"/><stop style="stop-color:#42b4d5;stop-opacity:1;" offset="0.292969"/><stop style="stop-color:#41b3d5;stop-opacity:1;" offset="0.296875"/><stop style="stop-color:#41b3d5;stop-opacity:1;" offset="0.300781"/><stop style="stop-color:#41b2d5;stop-opacity:1;" offset="0.304687"/><stop style="stop-color:#40b2d4;stop-opacity:1;" offset="0.308594"/><stop style="stop-color:#40b1d4;stop-opacity:1;" offset="0.3125"/><stop style="stop-color:#40b0d4;stop-opacity:1;" offset="0.316406"/><stop style="stop-color:#3fb0d4;stop-opacity:1;" offset="0.320312"/><stop style="stop-color:#3fafd3;stop-opacity:1;" offset="0.324219"/><stop style="stop-color:#3fafd3;stop-opacity:1;" offset="0.328125"/><stop style="stop-color:#3eaed3;stop-opacity:1;" offset="0.332031"/><stop style="stop-color:#3eaed3;stop-opacity:1;" offset="0.335937"/><stop style="stop-color:#3dadd3;stop-opacity:1;" offset="0.339844"/><stop style="stop-color:#3dacd2;stop-opacity:1;" offset="0.34375"/><stop style="stop-color:#3dacd2;stop-opacity:1;" offset="0.347656"/><stop style="stop-color:#3cabd2;stop-opacity:1;" offset="0.351562"/><stop style="stop-color:#3cabd2;stop-opacity:1;" offset="0.355469"/><stop style="stop-color:#3caad1;stop-opacity:1;" offset="0.359375"/><stop style="stop-color:#3ba9d1;stop-opacity:1;" offset="0.363281"/><stop style="stop-color:#3ba9d1;stop-opacity:1;" offset="0.367187"/><stop style="stop-color:#3ba8d1;stop-opacity:1;" offset="0.371094"/><stop style="stop-color:#3aa8d1;stop-opacity:1;" offset="0.375"/><stop style="stop-color:#3aa7d0;stop-opacity:1;" offset="0.378906"/><stop style="stop-color:#39a6d0;stop-opacity:1;" offset="0.382812"/><stop style="stop-color:#39a6d0;stop-opacity:1;" offset="0.386719"/><stop style="stop-color:#39a5d0;stop-opacity:1;" offset="0.390625"/><stop style="stop-color:#38a5cf;stop-opacity:1;" offset="0.394531"/><stop style="stop-color:#38a4cf;stop-opacity:1;" offset="0.398438"/><stop style="stop-color:#38a4cf;stop-opacity:1;" offset="0.402344"/><stop style="stop-color:#37a3cf;stop-opacity:1;" offset="0.40625"/><stop style="stop-color:#37a2cf;stop-opacity:1;" offset="0.410156"/><stop style="stop-color:#37a2ce;stop-opacity:1;" offset="0.414062"/><stop style="stop-color:#36a1ce;stop-opacity:1;" offset="0.417969"/><stop style="stop-color:#36a1ce;stop-opacity:1;" offset="0.421875"/><stop style="stop-color:#35a0ce;stop-opacity:1;" offset="0.425781"/><stop style="stop-color:#359fcd;stop-opacity:1;" offset="0.429688"/><stop style="stop-color:#359fcd;stop-opacity:1;" offset="0.433594"/><stop style="stop-color:#349ecd;stop-opacity:1;" offset="0.4375"/><stop style="stop-color:#349ecd;stop-opacity:1;" offset="0.441406"/><stop style="stop-color:#349dcd;stop-opacity:1;" offset="0.445312"/><stop style="stop-color:#339dcc;stop-opacity:1;" offset="0.449219"/><stop style="stop-color:#339ccc;stop-opacity:1;" offset="0.453125"/><stop style="stop-color:#339bcc;stop-opacity:1;" offset="0.457031"/><stop style="stop-color:#329bcc;stop-opacity:1;" offset="0.460938"/><stop style="stop-color:#329acb;stop-opacity:1;" offset="0.464844"/><stop style="stop-color:#319acb;stop-opacity:1;" offset="0.46875"/><stop style="stop-color:#3199cb;stop-opacity:1;" offset="0.472656"/><stop style="stop-color:#3198cb;stop-opacity:1;" offset="0.476562"/><stop style="stop-color:#3098cb;stop-opacity:1;" offset="0.480469"/><stop style="stop-color:#3097ca;stop-opacity:1;" offset="0.484375"/><stop style="stop-color:#3097ca;stop-opacity:1;" offset="0.488281"/><stop style="stop-color:#2f96ca;stop-opacity:1;" offset="0.492188"/><stop style="stop-color:#2f96ca;stop-opacity:1;" offset="0.496094"/><stop style="stop-color:#2f95c9;stop-opacity:1;" offset="0.5"/><stop style="stop-color:#2e94c9;stop-opacity:1;" offset="0.503906"/><stop style="stop-color:#2e94c9;stop-opacity:1;" offset="0.507812"/><stop style="stop-color:#2d93c9;stop-opacity:1;" offset="0.511719"/><stop style="stop-color:#2d93c9;stop-opacity:1;" offset="0.515625"/><stop style="stop-color:#2d92c8;stop-opacity:1;" offset="0.519531"/><stop style="stop-color:#2c91c8;stop-opacity:1;" offset="0.523437"/><stop style="stop-color:#2c91c8;stop-opacity:1;" offset="0.527344"/><stop style="stop-color:#2c90c8;stop-opacity:1;" offset="0.53125"/><stop style="stop-color:#2b90c7;stop-opacity:1;" offset="0.535156"/><stop style="stop-color:#2b8fc7;stop-opacity:1;" offset="0.539062"/><stop style="stop-color:#2b8ec7;stop-opacity:1;" offset="0.542969"/><stop style="stop-color:#2a8ec7;stop-opacity:1;" offset="0.546875"/><stop style="stop-color:#2a8dc7;stop-opacity:1;" offset="0.550781"/><stop style="stop-color:#298dc6;stop-opacity:1;" offset="0.554687"/><stop style="stop-color:#298cc6;stop-opacity:1;" offset="0.558594"/><stop style="stop-color:#298cc6;stop-opacity:1;" offset="0.5625"/><stop style="stop-color:#288bc6;stop-opacity:1;" offset="0.566406"/><stop style="stop-color:#288ac5;stop-opacity:1;" offset="0.570312"/><stop style="stop-color:#288ac5;stop-opacity:1;" offset="0.574219"/><stop style="stop-color:#2789c5;stop-opacity:1;" offset="0.578125"/><stop style="stop-color:#2789c5;stop-opacity:1;" offset="0.582031"/><stop style="stop-color:#2788c5;stop-opacity:1;" offset="0.585937"/><stop style="stop-color:#2687c4;stop-opacity:1;" offset="0.589844"/><stop style="stop-color:#2687c4;stop-opacity:1;" offset="0.59375"/><stop style="stop-color:#2586c4;stop-opacity:1;" offset="0.597656"/><stop style="stop-color:#2586c4;stop-opacity:1;" offset="0.601562"/><stop style="stop-color:#2585c3;stop-opacity:1;" offset="0.605469"/><stop style="stop-color:#2485c3;stop-opacity:1;" offset="0.609375"/><stop style="stop-color:#2484c3;stop-opacity:1;" offset="0.613281"/><stop style="stop-color:#2483c3;stop-opacity:1;" offset="0.617187"/><stop style="stop-color:#2383c3;stop-opacity:1;" offset="0.621094"/><stop style="stop-color:#2382c2;stop-opacity:1;" offset="0.625"/><stop style="stop-color:#2382c2;stop-opacity:1;" offset="0.628906"/><stop style="stop-color:#2281c2;stop-opacity:1;" offset="0.632812"/><stop style="stop-color:#2280c2;stop-opacity:1;" offset="0.636719"/><stop style="stop-color:#2180c1;stop-opacity:1;" offset="0.640625"/><stop style="stop-color:#217fc1;stop-opacity:1;" offset="0.644531"/><stop style="stop-color:#217fc1;stop-opacity:1;" offset="0.648437"/><stop style="stop-color:#207ec1;stop-opacity:1;" offset="0.652344"/><stop style="stop-color:#207dc1;stop-opacity:1;" offset="0.65625"/><stop style="stop-color:#207dc0;stop-opacity:1;" offset="0.660156"/><stop style="stop-color:#1f7cc0;stop-opacity:1;" offset="0.664062"/><stop style="stop-color:#1f7cc0;stop-opacity:1;" offset="0.667969"/><stop style="stop-color:#1f7bc0;stop-opacity:1;" offset="0.671875"/><stop style="stop-color:#1e7bbf;stop-opacity:1;" offset="0.675781"/><stop style="stop-color:#1e7abf;stop-opacity:1;" offset="0.679687"/><stop style="stop-color:#1d79bf;stop-opacity:1;" offset="0.683594"/><stop style="stop-color:#1d79bf;stop-opacity:1;" offset="0.6875"/><stop style="stop-color:#1d78bf;stop-opacity:1;" offset="0.691406"/><stop style="stop-color:#1c78be;stop-opacity:1;" offset="0.695312"/><stop style="stop-color:#1c77be;stop-opacity:1;" offset="0.699219"/><stop style="stop-color:#1c76be;stop-opacity:1;" offset="0.703125"/><stop style="stop-color:#1b76be;stop-opacity:1;" offset="0.707031"/><stop style="stop-color:#1b75bd;stop-opacity:1;" offset="0.710937"/><stop style="stop-color:#1b75bd;stop-opacity:1;" offset="0.714844"/><stop style="stop-color:#1a74bd;stop-opacity:1;" offset="0.71875"/><stop style="stop-color:#1a74bd;stop-opacity:1;" offset="0.722656"/><stop style="stop-color:#1973bd;stop-opacity:1;" offset="0.726562"/><stop style="stop-color:#1972bc;stop-opacity:1;" offset="0.730469"/><stop style="stop-color:#1972bc;stop-opacity:1;" offset="0.734375"/><stop style="stop-color:#1871bc;stop-opacity:1;" offset="0.738281"/><stop style="stop-color:#1871bc;stop-opacity:1;" offset="0.742187"/><stop style="stop-color:#1870bb;stop-opacity:1;" offset="0.746094"/><stop style="stop-color:#176fbb;stop-opacity:1;" offset="0.75"/><stop style="stop-color:#176fbb;stop-opacity:1;" offset="0.753906"/><stop style="stop-color:#176ebb;stop-opacity:1;" offset="0.757812"/><stop style="stop-color:#166eba;stop-opacity:1;" offset="0.761719"/><stop style="stop-color:#166dba;stop-opacity:1;" offset="0.765625"/><stop style="stop-color:#156dba;stop-opacity:1;" offset="0.769531"/><stop style="stop-color:#156cba;stop-opacity:1;" offset="0.773438"/><stop style="stop-color:#156bba;stop-opacity:1;" offset="0.777344"/><stop style="stop-color:#146bb9;stop-opacity:1;" offset="0.78125"/><stop style="stop-color:#146ab9;stop-opacity:1;" offset="0.785156"/><stop style="stop-color:#146ab9;stop-opacity:1;" offset="0.789062"/><stop style="stop-color:#1369b9;stop-opacity:1;" offset="0.792969"/><stop style="stop-color:#1368b8;stop-opacity:1;" offset="0.796875"/><stop style="stop-color:#1368b8;stop-opacity:1;" offset="0.800781"/><stop style="stop-color:#1267b8;stop-opacity:1;" offset="0.804688"/><stop style="stop-color:#1267b8;stop-opacity:1;" offset="0.808594"/><stop style="stop-color:#1166b8;stop-opacity:1;" offset="0.8125"/><stop style="stop-color:#1165b7;stop-opacity:1;" offset="0.816406"/><stop style="stop-color:#1165b7;stop-opacity:1;" offset="0.820312"/><stop style="stop-color:#1064b7;stop-opacity:1;" offset="0.824219"/><stop style="stop-color:#1064b7;stop-opacity:1;" offset="0.828125"/><stop style="stop-color:#1063b6;stop-opacity:1;" offset="0.832031"/><stop style="stop-color:#0f63b6;stop-opacity:1;" offset="0.835938"/><stop style="stop-color:#0f62b6;stop-opacity:1;" offset="0.839844"/><stop style="stop-color:#0f61b6;stop-opacity:1;" offset="0.84375"/><stop style="stop-color:#0e61b6;stop-opacity:1;" offset="0.847656"/><stop style="stop-color:#0e60b5;stop-opacity:1;" offset="0.851562"/><stop style="stop-color:#0d60b5;stop-opacity:1;" offset="0.855469"/><stop style="stop-color:#0d5fb5;stop-opacity:1;" offset="0.859375"/><stop style="stop-color:#0d5eb5;stop-opacity:1;" offset="0.863281"/><stop style="stop-color:#0c5eb4;stop-opacity:1;" offset="0.867188"/><stop style="stop-color:#0c5db4;stop-opacity:1;" offset="0.871094"/><stop style="stop-color:#0c5db4;stop-opacity:1;" offset="0.875"/><stop style="stop-color:#0b5cb4;stop-opacity:1;" offset="0.878906"/><stop style="stop-color:#0b5cb4;stop-opacity:1;" offset="0.882812"/><stop style="stop-color:#0b5bb3;stop-opacity:1;" offset="0.886719"/><stop style="stop-color:#0a5ab3;stop-opacity:1;" offset="0.890625"/><stop style="stop-color:#0a5ab3;stop-opacity:1;" offset="0.894531"/><stop style="stop-color:#0959b3;stop-opacity:1;" offset="0.898438"/><stop style="stop-color:#0959b2;stop-opacity:1;" offset="0.902344"/><stop style="stop-color:#0958b2;stop-opacity:1;" offset="0.90625"/><stop style="stop-color:#0857b2;stop-opacity:1;" offset="0.910156"/><stop style="stop-color:#0857b2;stop-opacity:1;" offset="0.914062"/><stop style="stop-color:#0856b2;stop-opacity:1;" offset="0.917969"/><stop style="stop-color:#0756b1;stop-opacity:1;" offset="0.921875"/><stop style="stop-color:#0755b1;stop-opacity:1;" offset="0.925781"/><stop style="stop-color:#0754b1;stop-opacity:1;" offset="0.929688"/><stop style="stop-color:#0654b1;stop-opacity:1;" offset="0.933594"/><stop style="stop-color:#0653b0;stop-opacity:1;" offset="0.9375"/><stop style="stop-color:#0553b0;stop-opacity:1;" offset="0.941406"/><stop style="stop-color:#0552b0;stop-opacity:1;" offset="0.945312"/><stop style="stop-color:#0552b0;stop-opacity:1;" offset="0.949219"/><stop style="stop-color:#0451b0;stop-opacity:1;" offset="0.953125"/><stop style="stop-color:#0450af;stop-opacity:1;" offset="0.957031"/><stop style="stop-color:#0450af;stop-opacity:1;" offset="0.960938"/><stop style="stop-color:#034faf;stop-opacity:1;" offset="0.964844"/><stop style="stop-color:#034faf;stop-opacity:1;" offset="0.96875"/><stop style="stop-color:#034eae;stop-opacity:1;" offset="0.972656"/><stop style="stop-color:#024dae;stop-opacity:1;" offset="0.976562"/><stop style="stop-color:#024dae;stop-opacity:1;" offset="0.980469"/><stop style="stop-color:#014cae;stop-opacity:1;" offset="0.984375"/><stop style="stop-color:#014cae;stop-opacity:1;" offset="0.988281"/><stop style="stop-color:#014bad;stop-opacity:1;" offset="0.992188"/><stop style="stop-color:#004bad;stop-opacity:1;" offset="0.996094"/><stop style="stop-color:#004aad;stop-opacity:1;" offset="1"/></linearGradient><clipPath id="34a8d417a2"><path d="M 455.082031 130 L 718.59375 130 L 718.59375 686.601562 L 455.082031 686.601562 Z M 455.082031 130 "/></clipPath><clipPath id="98d61bad9d"><path d="M 492.582031 129.726562 L 681.09375 129.726562 C 701.804688 129.726562 718.59375 146.515625 718.59375 167.226562 L 718.59375 649.234375 C 718.59375 669.945312 701.804688 686.734375 681.09375 686.734375 L 492.582031 686.734375 C 471.871094 686.734375 455.082031 669.945312 455.082031 649.234375 L 455.082031 167.226562 C 455.082031 146.515625 471.871094 129.726562 492.582031 129.726562 Z M 492.582031 129.726562 "/></clipPath><clipPath id="cdcc3a38fb"><path d="M 393.261719 117.3125 L 810 117.3125 L 810 810 L 393.261719 810 Z M 393.261719 117.3125 "/></clipPath><clipPath id="892be140aa"><path d="M 81.117188 470.867188 L 123.867188 470.867188 L 123.867188 513.617188 L 81.117188 513.617188 Z M 81.117188 470.867188 "/></clipPath><filter x="0%" y="0%" width="100%" filterUnits="objectBoundingBox" id="22814fb78d" height="100%"><feColorMatrix values="0 0 0 0 1 0 0 0 0 1 0 0 0 0 1 0 0 0 1 0" type="matrix" in="SourceGraphic"/></filter><clipPath id="af4c083065"><path d="M 0.679688 0 L 366 0 L 366 79.679688 L 0.679688 79.679688 Z M 0.679688 0 "/></clipPath><clipPath id="ecca761d23"><rect x="0" width="367" y="0" height="80"/></clipPath><clipPath id="627b213d68"><path d="M 0.761719 0.640625 L 322.359375 0.640625 L 322.359375 70 L 0.761719 70 Z M 0.761719 0.640625 "/></clipPath><clipPath id="96ae18576b"><rect x="0" width="323" y="0" height="70"/></clipPath><clipPath id="b8f904000e"><path d="M 89 557 L 116 557 L 116 580.539062 L 89 580.539062 Z M 89 557 "/></clipPath><clipPath id="0e8e9458f7"><path d="M 80.882812 545.21875 L 124.03125 545.21875 L 124.03125 588.367188 L 80.882812 588.367188 Z M 80.882812 545.21875 "/></clipPath><clipPath id="d572ada817"><path d="M 102.457031 545.21875 C 90.539062 545.21875 80.882812 554.878906 80.882812 566.792969 C 80.882812 578.707031 90.539062 588.367188 102.457031 588.367188 C 114.371094 588.367188 124.03125 578.707031 124.03125 566.792969 C 124.03125 554.878906 114.371094 545.21875 102.457031 545.21875 Z M 102.457031 545.21875 "/></clipPath></defs><g id="559ca4358f"><rect x="0" width="810" y="0" height="809.999993" style="fill:#ffffff;fill-opacity:1;stroke:none;"/><rect x="0" width="810" y="0" height="809.999993" style="fill:url(#cdb93f5d96);stroke:none;"/><g clip-rule="nonzero" clip-path="url(#34a8d417a2)"><g clip-rule="nonzero" clip-path="url(#98d61bad9d)"><g transform="matrix(0.994982,0,0,0.994417,-128.318925,129.726205)"><image width="1438" xlink:href="PLACE_PRODUCT_IMAGE_1_HERE" height="560" preserveAspectRatio="xMidYMid meet"/></g></g></g><g clip-rule="nonzero" clip-path="url(#cdcc3a38fb)"><g mask="url(#7c3b5b24f3)" transform="matrix(0.19492,0,0,0.195157,393.261284,117.312494)"><image width="2982" xlink:href="file:///Users/erikbelt/Desktop/Mood Tracking App/AdCreator/image-generation-service/assets/Contact_Info_iPhoneMockUp-img2-a26fe2cf.png" height="3624" preserveAspectRatio="xMidYMid meet"/><mask id="7c3b5b24f3"><g transform="matrix(1,0,0,1,-0.000000000000227374,0)"><image width="2982" xlink:href="file:///Users/erikbelt/Desktop/Mood Tracking App/AdCreator/image-generation-service/assets/Contact_Info_iPhoneMockUp-img3-d1fcd8d7.png" height="3624" preserveAspectRatio="xMidYMid meet"/></g></mask></g></g><g clip-rule="nonzero" clip-path="url(#892be140aa)"><path style="fill:none;stroke-width:3.045;stroke-linecap:butt;stroke-linejoin:miter;stroke:#000000;stroke-opacity:1;stroke-miterlimit:4;" d="M 65.468719 18.262203 C 83.355251 35.897054 83.355251 59.572256 65.468719 77.207107 M 40.014587 66.453451 C 53.765538 56.637881 72.229793 56.637881 85.986464 66.453451 M 61.047136 17.976201 C 43.034763 35.736893 43.034763 59.577976 61.047136 77.332947 M 62.848945 18.010521 C 46.455341 18.096322 33.230632 31.452591 33.316433 47.846195 C 33.396513 64.2398 46.758502 77.464508 63.152107 77.378708 C 79.545711 77.292907 92.770419 63.936638 92.684619 47.543034 C 92.598818 31.26955 79.425591 18.096322 63.152107 18.010521 Z M 62.997666 18.010521 L 62.997666 77.378708 M 92.684619 47.691754 L 33.316433 47.691754 M 40.014587 29.833822 C 53.765538 39.643673 72.229793 39.643673 85.986464 29.833822 " transform="matrix(0.682907,0,0,0.682907,59.470621,459.634077)"/></g><g mask="url(#cc008fbfc0)" transform="matrix(1,0,0,1,361,0.000000000000039746)"><g clip-path="url(#ecca761d23)"><g clip-rule="nonzero" clip-path="url(#af4c083065)"><path style=" stroke:none;fill-rule:evenodd;fill:#f6bd3b;fill-opacity:1;" d="M 81.863281 76.65625 C 91.152344 80.976562 103.074219 79.765625 115.640625 76.496094 C 133.875 71.75 153.5 62.703125 168.027344 61.386719 C 186.089844 59.742188 204.375 58.105469 222.476562 56.972656 C 239.820312 55.890625 260.640625 56.53125 280.429688 53.867188 C 300.523438 51.160156 319.550781 45.042969 332.976562 30.492188 C 342.851562 19.796875 344.183594 5.246094 343.898438 -9.902344 C 343.621094 -24.515625 341.839844 -39.679688 345.519531 -52.1875 C 347.574219 -59.175781 351.410156 -65.355469 355.144531 -71.519531 C 359.011719 -77.914062 362.769531 -84.300781 364.523438 -91.464844 C 367.996094 -105.628906 364.863281 -119.554688 359.035156 -132.679688 C 353.304688 -145.585938 344.96875 -157.71875 337.917969 -168.527344 C 335.488281 -172.25 333.792969 -176.875 331.816406 -181.25 C 329.71875 -185.910156 327.296875 -190.285156 323.570312 -193.222656 C 303.585938 -208.960938 290.957031 -207.832031 280.496094 -206.222656 C 274 -205.226562 268.390625 -203.921875 262.238281 -206.996094 C 245.265625 -215.484375 232.53125 -229.503906 216.140625 -238.898438 C 166.335938 -267.433594 128.023438 -231.046875 109.71875 -200.261719 C 104.699219 -191.816406 101.488281 -182.28125 98.019531 -172.910156 C 94.632812 -163.757812 91.003906 -154.761719 85.058594 -147.164062 C 81.003906 -141.984375 75.503906 -137.914062 70.105469 -134.257812 C 60.949219 -128.054688 49.863281 -123.519531 39.480469 -118.066406 C 28.832031 -112.476562 18.921875 -105.921875 12.386719 -95.824219 C 2.703125 -80.859375 -0.246094 -63.617188 1.089844 -46.109375 C 3.074219 -20.085938 14.542969 6.535156 27.179688 26.996094 C 29.875 31.359375 34.925781 54.824219 81.863281 76.65625 Z M 83.0625 74.074219 C 37.167969 52.726562 32.238281 29.765625 29.601562 25.5 C 17.183594 5.390625 5.878906 -20.753906 3.929688 -46.324219 C 2.640625 -63.210938 5.441406 -79.847656 14.777344 -94.277344 C 21.042969 -103.957031 30.59375 -110.183594 40.804688 -115.546875 C 51.285156 -121.046875 62.464844 -125.640625 71.703125 -131.898438 C 77.34375 -135.71875 83.066406 -140 87.300781 -145.410156 C 93.425781 -153.238281 97.199219 -162.492188 100.691406 -171.921875 C 104.097656 -181.132812 107.234375 -190.507812 112.167969 -198.804688 C 129.828125 -228.511719 166.667969 -263.960938 214.726562 -236.425781 C 231.164062 -227.007812 243.941406 -212.960938 260.964844 -204.449219 C 267.695312 -201.085938 273.820312 -202.316406 280.925781 -203.40625 C 290.863281 -204.933594 302.832031 -205.929688 321.808594 -190.984375 C 325.1875 -188.320312 327.316406 -184.304688 329.222656 -180.078125 C 331.257812 -175.566406 333.027344 -170.8125 335.53125 -166.972656 C 342.503906 -156.28125 350.765625 -144.289062 356.433594 -131.523438 C 362.003906 -118.976562 365.074219 -105.679688 361.757812 -92.140625 C 360.070312 -85.257812 356.425781 -79.140625 352.707031 -72.992188 C 348.847656 -66.617188 344.914062 -60.214844 342.785156 -52.992188 C 339.035156 -40.226562 340.765625 -24.757812 341.050781 -9.847656 C 341.324219 4.535156 340.261719 18.402344 330.886719 28.5625 C 317.90625 42.621094 299.472656 48.429688 280.050781 51.042969 C 260.328125 53.699219 239.582031 53.050781 222.300781 54.132812 C 204.171875 55.265625 185.859375 56.90625 167.769531 58.546875 C 153.117188 59.882812 133.3125 68.953125 114.921875 73.738281 C 103.070312 76.824219 91.828125 78.152344 83.0625 74.074219 Z M 83.0625 74.074219 "/></g></g><mask id="cc008fbfc0"><g filter="url(#22814fb78d)"><rect x="0" width="810" y="0" height="809.999993" style="fill:#000000;fill-opacity:0.15;stroke:none;"/></g></mask></g><g mask="url(#2812aec157)" transform="matrix(1,0,0,1,293,740)"><g clip-path="url(#96ae18576b)"><g clip-rule="nonzero" clip-path="url(#627b213d68)"><path style=" stroke:none;fill-rule:evenodd;fill:#f6bd3b;fill-opacity:1;" d="M 72.328125 287.621094 C 80.5 291.425781 90.992188 290.359375 102.046875 287.480469 C 118.089844 283.304688 135.359375 275.347656 148.140625 274.1875 C 164.03125 272.742188 180.121094 271.300781 196.046875 270.304688 C 211.308594 269.351562 229.625 269.917969 247.039062 267.570312 C 264.71875 265.191406 281.460938 259.804688 293.273438 247.003906 C 301.960938 237.59375 303.132812 224.789062 302.882812 211.464844 C 302.636719 198.605469 301.070312 185.265625 304.308594 174.257812 C 306.117188 168.109375 309.492188 162.671875 312.777344 157.25 C 316.179688 151.621094 319.488281 146.003906 321.027344 139.699219 C 324.082031 127.238281 321.328125 114.984375 316.199219 103.4375 C 311.160156 92.078125 303.824219 81.40625 297.621094 71.894531 C 295.484375 68.617188 293.992188 64.550781 292.253906 60.703125 C 290.40625 56.601562 288.277344 52.75 284.996094 50.167969 C 267.414062 36.316406 256.300781 37.3125 247.097656 38.726562 C 241.382812 39.605469 236.445312 40.753906 231.03125 38.046875 C 216.097656 30.578125 204.894531 18.242188 190.472656 9.980469 C 146.648438 -15.128906 112.941406 16.886719 96.835938 43.972656 C 92.417969 51.402344 89.59375 59.792969 86.542969 68.039062 C 83.5625 76.089844 80.367188 84.007812 75.136719 90.691406 C 71.570312 95.246094 66.734375 98.832031 61.984375 102.046875 C 53.925781 107.507812 44.171875 111.496094 35.035156 116.292969 C 25.664062 121.210938 16.945312 126.980469 11.199219 135.863281 C 2.675781 149.03125 0.0820312 164.199219 1.257812 179.609375 C 3.003906 202.503906 13.09375 225.925781 24.214844 243.929688 C 26.585938 247.769531 31.03125 268.414062 72.328125 287.621094 Z M 73.382812 285.351562 C 33 266.566406 28.664062 246.367188 26.34375 242.613281 C 15.417969 224.921875 5.472656 201.917969 3.753906 179.417969 C 2.621094 164.558594 5.085938 149.921875 13.300781 137.222656 C 18.8125 128.707031 27.214844 123.230469 36.203125 118.511719 C 45.421875 113.671875 55.257812 109.632812 63.386719 104.121094 C 68.351562 100.761719 73.386719 96.996094 77.109375 92.234375 C 82.5 85.347656 85.820312 77.203125 88.890625 68.90625 C 91.890625 60.804688 94.648438 52.554688 98.992188 45.253906 C 114.53125 19.117188 146.945312 -12.074219 189.226562 12.152344 C 203.691406 20.441406 214.933594 32.796875 229.910156 40.289062 C 235.835938 43.25 241.226562 42.164062 247.476562 41.203125 C 256.21875 39.863281 266.75 38.984375 283.449219 52.136719 C 286.421875 54.476562 288.292969 58.011719 289.972656 61.730469 C 291.761719 65.699219 293.316406 69.886719 295.523438 73.261719 C 301.65625 82.671875 308.925781 93.21875 313.914062 104.453125 C 318.8125 115.492188 321.511719 127.191406 318.597656 139.105469 C 317.113281 145.160156 313.902344 150.542969 310.632812 155.953125 C 307.238281 161.558594 303.773438 167.195312 301.90625 173.550781 C 298.601562 184.78125 300.128906 198.390625 300.378906 211.511719 C 300.617188 224.164062 299.683594 236.371094 291.433594 245.304688 C 280.015625 257.675781 263.792969 262.789062 246.707031 265.089844 C 229.351562 267.425781 211.097656 266.851562 195.890625 267.804688 C 179.941406 268.800781 163.828125 270.246094 147.914062 271.691406 C 135.023438 272.863281 117.597656 280.847656 101.414062 285.054688 C 90.988281 287.769531 81.09375 288.941406 73.382812 285.351562 Z M 73.382812 285.351562 "/></g></g><mask id="2812aec157"><g filter="url(#22814fb78d)"><rect x="0" width="810" y="0" height="809.999993" style="fill:#000000;fill-opacity:0.15;stroke:none;"/></g></mask></g><g clip-rule="nonzero" clip-path="url(#b8f904000e)"><path style=" stroke:none;fill-rule:nonzero;fill:#1b1c1f;fill-opacity:1;" d="M 114.980469 563.25 C 113.5625 555.945312 104.660156 555.824219 102.464844 562.652344 C 100.269531 555.824219 91.367188 555.945312 89.949219 563.25 C 88.660156 569.878906 102.464844 580.332031 102.464844 580.332031 C 102.464844 580.332031 116.269531 569.878906 114.980469 563.25 Z M 114.980469 563.25 "/></g><g clip-rule="nonzero" clip-path="url(#0e8e9458f7)"><g clip-rule="nonzero" clip-path="url(#d572ada817)"><path style="fill:none;stroke-width:4;stroke-linecap:butt;stroke-linejoin:miter;stroke:#000000;stroke-opacity:1;stroke-miterlimit:4;" d="M 28.767755 -0.000728761 C 12.877129 -0.000728761 0.00212836 12.87948 0.00212836 28.764898 C 0.00212836 44.650315 12.877129 57.530524 28.767755 57.530524 C 44.653172 57.530524 57.533381 44.650315 57.533381 28.764898 C 57.533381 12.87948 44.653172 -0.000728761 28.767755 -0.000728761 Z M 28.767755 -0.000728761 " transform="matrix(0.75,0,0,0.75,80.881216,545.219297)"/></g></g></g></svg>