<svg xmlns="http://www.w3.org/2000/svg" xmlns:xlink="http://www.w3.org/1999/xlink" width="1080" zoomAndPan="magnify" viewBox="0 0 810 809.999993" height="1080" preserveAspectRatio="xMidYMid meet" version="1.2"><defs><clipPath id="dfb5be7c29"><path d="M 377 326 L 751 326 L 751 810 L 377 810 Z M 377 326 "/></clipPath><clipPath id="c9a9e8a4a7"><path d="M 434.304688 316.261719 L 763.203125 351.222656 L 692.886719 1012.746094 L 363.988281 977.785156 Z M 434.304688 316.261719 "/></clipPath><clipPath id="ff7bac1e74"><path d="M 434.304688 316.261719 L 763.203125 351.222656 L 692.886719 1012.746094 L 363.988281 977.785156 Z M 434.304688 316.261719 "/></clipPath><clipPath id="a6c6b6cf0e"><path d="M 371 321 L 756 321 L 756 810 L 371 810 Z M 371 321 "/></clipPath><clipPath id="2fcfc70628"><path d="M 434.304688 316.261719 L 763.203125 351.222656 L 692.886719 1012.746094 L 363.988281 977.785156 Z M 434.304688 316.261719 "/></clipPath><clipPath id="3c85742a3e"><path d="M 434.304688 316.261719 L 763.203125 351.222656 L 692.886719 1012.746094 L 363.988281 977.785156 Z M 434.304688 316.261719 "/></clipPath><clipPath id="2630907dbd"><path d="M 512 92 L 718 92 L 718 297 L 512 297 Z M 512 92 "/></clipPath><clipPath id="e978c1961a"><path d="M 534.65625 73.003906 L 734.53125 109.894531 L 696.417969 316.40625 L 496.542969 279.515625 Z M 534.65625 73.003906 "/></clipPath><clipPath id="e63470f493"><path d="M 534.65625 73.003906 L 734.53125 109.894531 L 696.417969 316.40625 L 496.542969 279.515625 Z M 534.65625 73.003906 "/></clipPath><clipPath id="01815b2503"><path d="M 80 537 L 265 537 L 265 671 L 80 671 Z M 80 537 "/></clipPath><clipPath id="42582d1675"><path d="M 250.59375 527.070312 L 274.8125 642.300781 L 94.253906 680.246094 L 70.039062 565.011719 Z M 250.59375 527.070312 "/></clipPath><clipPath id="1679992e6c"><path d="M 250.59375 527.070312 L 274.8125 642.300781 L 94.253906 680.246094 L 70.039062 565.011719 Z M 250.59375 527.070312 "/></clipPath><clipPath id="0832c3ec05"><path d="M 570 436 L 603 436 L 603 473 L 570 473 Z M 570 436 "/></clipPath><clipPath id="3f953a33cb"><path d="M 562.71875 434.074219 L 605.976562 438.671875 L 601.378906 481.929688 L 558.121094 477.332031 Z M 562.71875 434.074219 "/></clipPath><clipPath id="2d193f26cf"><path d="M 562.71875 434.074219 L 605.976562 438.671875 L 601.378906 481.929688 L 558.121094 477.332031 Z M 562.71875 434.074219 "/></clipPath><clipPath id="1b685f2935"><path d="M 541 656 L 582 656 L 582 698 L 541 698 Z M 541 656 "/></clipPath><clipPath id="33a9c2d6f4"><path d="M 543.769531 654.308594 L 584.042969 658.589844 L 579.683594 699.609375 L 539.410156 695.328125 Z M 543.769531 654.308594 "/></clipPath><clipPath id="66cd0f4425"><path d="M 543.769531 654.308594 L 584.042969 658.589844 L 579.683594 699.609375 L 539.410156 695.328125 Z M 543.769531 654.308594 "/></clipPath><clipPath id="a126852745"><path d="M 210.238281 625.785156 L 372 625.785156 L 372 699 L 210.238281 699 Z M 210.238281 625.785156 "/></clipPath><clipPath id="66d2c935e2"><path d="M 557 554 L 591 554 L 591 569 L 557 569 Z M 557 554 "/></clipPath><clipPath id="1fbbfd66f4"><path d="M 555.96875 554.113281 L 592.488281 558.21875 L 589.808594 582.066406 L 553.289062 577.960938 Z M 555.96875 554.113281 "/></clipPath><clipPath id="b45e60ab73"><path d="M 555.96875 554.113281 L 592.488281 558.21875 L 589.808594 582.066406 L 553.289062 577.960938 Z M 555.96875 554.113281 "/></clipPath><clipPath id="5c13c6edcc"><path d="M 553 556 L 568 556 L 568 577 L 553 577 Z M 553 556 "/></clipPath><clipPath id="8177b56177"><path d="M 555.96875 554.113281 L 592.488281 558.21875 L 589.808594 582.066406 L 553.289062 577.960938 Z M 555.96875 554.113281 "/></clipPath><clipPath id="be30a24ffb"><path d="M 555.96875 554.113281 L 592.488281 558.21875 L 589.808594 582.066406 L 553.289062 577.960938 Z M 555.96875 554.113281 "/></clipPath><clipPath id="19e5e535ea"><path d="M 555 566 L 588 566 L 588 582 L 555 582 Z M 555 566 "/></clipPath><clipPath id="6d7dfdf189"><path d="M 555.96875 554.113281 L 592.488281 558.21875 L 589.808594 582.066406 L 553.289062 577.960938 Z M 555.96875 554.113281 "/></clipPath><clipPath id="c7b8e8b652"><path d="M 555.96875 554.113281 L 592.488281 558.21875 L 589.808594 582.066406 L 553.289062 577.960938 Z M 555.96875 554.113281 "/></clipPath><clipPath id="4aae66333c"><path d="M 578 560 L 592 560 L 592 580 L 578 580 Z M 578 560 "/></clipPath><clipPath id="864080ca7a"><path d="M 555.96875 554.113281 L 592.488281 558.21875 L 589.808594 582.066406 L 553.289062 577.960938 Z M 555.96875 554.113281 "/></clipPath><clipPath id="474733c66b"><path d="M 555.96875 554.113281 L 592.488281 558.21875 L 589.808594 582.066406 L 553.289062 577.960938 Z M 555.96875 554.113281 "/></clipPath></defs><g id="7c63292cdb"><rect x="0" width="810" y="0" height="809.999993" style="fill:#ffffff;fill-opacity:1;stroke:none;"/><rect x="0" width="810" y="0" height="809.999993" style="fill:#f2f0e9;fill-opacity:1;stroke:none;"/><g clip-rule="nonzero" clip-path="url(#dfb5be7c29)"><g clip-rule="nonzero" clip-path="url(#c9a9e8a4a7)"><g clip-rule="nonzero" clip-path="url(#ff7bac1e74)"><path style=" stroke:none;fill-rule:nonzero;fill:#f2f0e9;fill-opacity:1;" d="M 641.355469 1001.617188 L 416.714844 977.742188 C 415.277344 977.585938 413.851562 977.359375 412.4375 977.0625 C 411.023438 976.765625 409.625 976.398438 408.246094 975.96875 C 406.867188 975.535156 405.511719 975.035156 404.183594 974.46875 C 402.851562 973.902344 401.550781 973.273438 400.285156 972.578125 C 399.015625 971.886719 397.785156 971.132812 396.589844 970.320312 C 395.394531 969.507812 394.242188 968.636719 393.132812 967.710938 C 392.023438 966.785156 390.960938 965.804688 389.945312 964.773438 C 388.929688 963.746094 387.96875 962.667969 387.0625 961.542969 C 386.152344 960.417969 385.300781 959.25 384.507812 958.042969 C 383.714844 956.835938 382.980469 955.59375 382.308594 954.3125 C 381.632812 953.03125 381.027344 951.722656 380.480469 950.382812 C 379.9375 949.046875 379.460938 947.683594 379.046875 946.296875 C 378.636719 944.910156 378.292969 943.507812 378.019531 942.089844 C 377.746094 940.667969 377.542969 939.238281 377.410156 937.800781 C 377.277344 936.359375 377.214844 934.917969 377.21875 933.472656 C 377.226562 932.027344 377.304688 930.585938 377.453125 929.148438 L 437.308594 366.027344 C 437.464844 364.589844 437.691406 363.164062 437.988281 361.746094 C 438.285156 360.332031 438.652344 358.9375 439.085938 357.558594 C 439.519531 356.175781 440.015625 354.824219 440.582031 353.492188 C 441.148438 352.164062 441.777344 350.863281 442.472656 349.59375 C 443.164062 348.324219 443.917969 347.09375 444.734375 345.898438 C 445.546875 344.703125 446.417969 343.550781 447.34375 342.441406 C 448.269531 341.332031 449.25 340.269531 450.277344 339.257812 C 451.308594 338.242188 452.386719 337.28125 453.511719 336.375 C 454.636719 335.464844 455.800781 334.613281 457.011719 333.820312 C 458.21875 333.027344 459.460938 332.292969 460.742188 331.621094 C 462.019531 330.945312 463.332031 330.339844 464.671875 329.792969 C 466.007812 329.25 467.371094 328.773438 468.757812 328.363281 C 470.144531 327.949219 471.546875 327.609375 472.964844 327.335938 C 474.386719 327.0625 475.816406 326.859375 477.253906 326.722656 C 478.695312 326.589844 480.136719 326.527344 481.582031 326.535156 C 483.027344 326.542969 484.46875 326.621094 485.910156 326.769531 L 710.546875 350.648438 C 711.984375 350.804688 713.410156 351.03125 714.824219 351.328125 C 716.238281 351.625 717.636719 351.988281 719.015625 352.421875 C 720.394531 352.855469 721.75 353.355469 723.078125 353.921875 C 724.410156 354.484375 725.710938 355.113281 726.980469 355.808594 C 728.246094 356.5 729.480469 357.253906 730.675781 358.066406 C 731.867188 358.882812 733.019531 359.75 734.132812 360.679688 C 735.242188 361.605469 736.304688 362.582031 737.316406 363.613281 C 738.332031 364.644531 739.292969 365.722656 740.199219 366.847656 C 741.109375 367.96875 741.960938 369.136719 742.753906 370.34375 C 743.550781 371.550781 744.28125 372.796875 744.957031 374.074219 C 745.628906 375.355469 746.238281 376.664062 746.78125 378.003906 C 747.324219 379.34375 747.804688 380.707031 748.214844 382.09375 C 748.625 383.476562 748.96875 384.878906 749.242188 386.300781 C 749.515625 387.71875 749.71875 389.148438 749.851562 390.589844 C 749.984375 392.027344 750.050781 393.46875 750.042969 394.917969 C 750.035156 396.363281 749.957031 397.804688 749.808594 399.242188 L 689.953125 962.371094 C 689.796875 963.808594 689.566406 965.234375 689.269531 966.648438 C 688.972656 968.0625 688.609375 969.460938 688.175781 970.839844 C 687.742188 972.21875 687.242188 973.574219 686.675781 974.902344 C 686.109375 976.234375 685.480469 977.53125 684.785156 978.800781 C 684.09375 980.070312 683.339844 981.300781 682.527344 982.496094 C 681.710938 983.691406 680.84375 984.839844 679.914062 985.949219 C 678.988281 987.058594 678.011719 988.121094 676.980469 989.136719 C 675.949219 990.148438 674.871094 991.109375 673.746094 992.019531 C 672.621094 992.925781 671.457031 993.777344 670.25 994.570312 C 669.039062 995.363281 667.796875 996.097656 666.515625 996.769531 C 665.238281 997.441406 663.929688 998.050781 662.589844 998.59375 C 661.25 999.140625 659.886719 999.617188 658.5 1000.027344 C 657.117188 1000.4375 655.714844 1000.78125 654.292969 1001.054688 C 652.875 1001.328125 651.445312 1001.53125 650.007812 1001.664062 C 648.566406 1001.796875 647.125 1001.859375 645.679688 1001.851562 C 644.234375 1001.84375 642.792969 1001.765625 641.355469 1001.617188 Z M 641.355469 1001.617188 "/></g></g></g><g clip-rule="nonzero" clip-path="url(#a6c6b6cf0e)"><g clip-rule="nonzero" clip-path="url(#2fcfc70628)"><g clip-rule="nonzero" clip-path="url(#3c85742a3e)"><path style=" stroke:none;fill-rule:nonzero;fill:#2b2b2b;fill-opacity:1;" d="M 742.5 523.476562 L 755.53125 400.878906 C 758.445312 373.484375 738.414062 348.695312 711.027344 345.785156 L 486.425781 321.914062 C 459.03125 319 434.242188 339.027344 431.332031 366.417969 L 423.53125 439.816406 C 422.773438 440.125 422.148438 440.605469 421.65625 441.261719 C 421.160156 441.914062 420.871094 442.648438 420.785156 443.460938 L 419.5 455.523438 C 419.417969 456.335938 419.546875 457.117188 419.890625 457.859375 C 420.234375 458.601562 420.746094 459.203125 421.421875 459.664062 L 417.800781 493.730469 C 417.042969 494.039062 416.417969 494.519531 415.925781 495.171875 C 415.433594 495.824219 415.144531 496.554688 415.054688 497.367188 L 411.738281 528.554688 C 411.65625 529.367188 411.785156 530.144531 412.128906 530.886719 C 412.472656 531.628906 412.984375 532.230469 413.660156 532.691406 L 412.003906 548.246094 C 411.25 548.554688 410.625 549.035156 410.132812 549.6875 C 409.636719 550.339844 409.347656 551.074219 409.257812 551.886719 L 405.945312 583.070312 C 405.859375 583.886719 405.988281 584.664062 406.332031 585.40625 C 406.675781 586.148438 407.1875 586.75 407.863281 587.210938 L 371.695312 927.507812 C 368.78125 954.898438 388.808594 979.6875 416.195312 982.597656 L 640.800781 1006.472656 C 668.1875 1009.382812 692.984375 989.359375 695.894531 961.964844 L 735.167969 592.480469 C 735.929688 592.175781 736.558594 591.695312 737.054688 591.039062 C 737.554688 590.382812 737.847656 589.648438 737.933594 588.832031 L 744.441406 527.617188 C 744.523438 526.800781 744.390625 526.023438 744.042969 525.28125 C 743.695312 524.539062 743.179688 523.9375 742.5 523.476562 Z M 689.929688 962.570312 C 689.773438 964.007812 689.546875 965.433594 689.25 966.847656 C 688.953125 968.261719 688.589844 969.660156 688.15625 971.039062 C 687.722656 972.417969 687.222656 973.773438 686.65625 975.101562 C 686.089844 976.433594 685.460938 977.730469 684.769531 979 C 684.074219 980.269531 683.320312 981.5 682.507812 982.695312 C 681.695312 983.890625 680.824219 985.042969 679.898438 986.152344 C 678.972656 987.261719 677.992188 988.324219 676.960938 989.339844 C 675.929688 990.351562 674.855469 991.3125 673.730469 992.222656 C 672.605469 993.132812 671.4375 993.984375 670.230469 994.777344 C 669.023438 995.570312 667.777344 996.304688 666.5 996.976562 C 665.21875 997.648438 663.910156 998.257812 662.570312 998.804688 C 661.230469 999.347656 659.867188 999.824219 658.480469 1000.234375 C 657.097656 1000.648438 655.695312 1000.988281 654.273438 1001.261719 C 652.855469 1001.535156 651.425781 1001.742188 649.984375 1001.875 C 648.546875 1002.007812 647.101562 1002.070312 645.65625 1002.0625 C 644.210938 1002.054688 642.769531 1001.976562 641.332031 1001.828125 L 416.695312 977.953125 C 415.257812 977.796875 413.832031 977.570312 412.414062 977.273438 C 411 976.976562 409.601562 976.609375 408.222656 976.175781 C 406.84375 975.742188 405.488281 975.246094 404.160156 974.679688 C 402.828125 974.113281 401.53125 973.484375 400.261719 972.789062 C 398.992188 972.097656 397.761719 971.34375 396.566406 970.527344 C 395.371094 969.714844 394.21875 968.84375 393.109375 967.917969 C 392 966.992188 390.9375 966.015625 389.921875 964.984375 C 388.910156 963.953125 387.949219 962.875 387.039062 961.75 C 386.132812 960.625 385.28125 959.460938 384.484375 958.25 C 383.691406 957.042969 382.957031 955.800781 382.285156 954.519531 C 381.613281 953.242188 381.003906 951.929688 380.460938 950.589844 C 379.914062 949.253906 379.4375 947.890625 379.027344 946.503906 C 378.613281 945.117188 378.273438 943.714844 378 942.296875 C 377.726562 940.875 377.523438 939.445312 377.386719 938.007812 C 377.253906 936.566406 377.191406 935.125 377.199219 933.679688 C 377.207031 932.234375 377.285156 930.792969 377.433594 929.351562 L 437.289062 366.226562 C 437.445312 364.789062 437.671875 363.363281 437.96875 361.949219 C 438.265625 360.535156 438.628906 359.136719 439.0625 357.757812 C 439.496094 356.378906 439.996094 355.023438 440.5625 353.695312 C 441.128906 352.363281 441.757812 351.0625 442.449219 349.792969 C 443.144531 348.527344 443.898438 347.292969 444.710938 346.097656 C 445.523438 344.90625 446.394531 343.753906 447.320312 342.640625 C 448.25 341.53125 449.226562 340.472656 450.257812 339.457031 C 451.289062 338.441406 452.367188 337.480469 453.488281 336.574219 C 454.613281 335.664062 455.78125 334.8125 456.988281 334.019531 C 458.195312 333.222656 459.441406 332.492188 460.71875 331.820312 C 462 331.144531 463.308594 330.539062 464.648438 329.992188 C 465.988281 329.449219 467.351562 328.972656 468.738281 328.558594 C 470.121094 328.148438 471.527344 327.804688 472.945312 327.53125 C 474.363281 327.257812 475.792969 327.054688 477.234375 326.921875 C 478.671875 326.789062 480.117188 326.726562 481.5625 326.730469 C 483.007812 326.738281 484.449219 326.816406 485.886719 326.964844 L 710.527344 350.84375 C 711.960938 351 713.390625 351.226562 714.804688 351.523438 C 716.21875 351.820312 717.617188 352.183594 718.996094 352.617188 C 720.375 353.050781 721.730469 353.550781 723.058594 354.117188 C 724.390625 354.683594 725.6875 355.3125 726.957031 356.007812 C 728.226562 356.699219 729.457031 357.453125 730.652344 358.265625 C 731.847656 359.082031 733 359.949219 734.109375 360.878906 C 735.21875 361.804688 736.28125 362.78125 737.296875 363.8125 C 738.308594 364.84375 739.269531 365.921875 740.179688 367.046875 C 741.089844 368.171875 741.941406 369.335938 742.734375 370.542969 C 743.527344 371.753906 744.261719 372.996094 744.933594 374.277344 C 745.605469 375.554688 746.214844 376.863281 746.761719 378.203125 C 747.304688 379.542969 747.78125 380.90625 748.191406 382.292969 C 748.605469 383.679688 748.945312 385.082031 749.21875 386.5 C 749.492188 387.921875 749.699219 389.351562 749.832031 390.789062 C 749.964844 392.230469 750.027344 393.671875 750.019531 395.117188 C 750.011719 396.5625 749.933594 398.003906 749.785156 399.441406 Z M 524.242188 325.933594 L 522.109375 346.015625 C 522.011719 346.9375 522.007812 347.863281 522.09375 348.785156 C 522.179688 349.707031 522.355469 350.613281 522.617188 351.503906 C 522.878906 352.390625 523.226562 353.246094 523.660156 354.066406 C 524.089844 354.890625 524.597656 355.660156 525.179688 356.382812 C 525.761719 357.101562 526.410156 357.761719 527.121094 358.355469 C 527.832031 358.949219 528.59375 359.46875 529.410156 359.914062 C 530.222656 360.359375 531.070312 360.71875 531.957031 360.996094 C 532.839844 361.273438 533.742188 361.464844 534.664062 361.566406 L 655.542969 374.414062 C 656.464844 374.507812 657.390625 374.511719 658.3125 374.425781 C 659.234375 374.34375 660.140625 374.167969 661.03125 373.902344 C 661.921875 373.640625 662.777344 373.292969 663.597656 372.859375 C 664.417969 372.429688 665.1875 371.921875 665.910156 371.339844 C 666.632812 370.757812 667.289062 370.109375 667.882812 369.398438 C 668.476562 368.6875 668.996094 367.921875 669.441406 367.109375 C 669.886719 366.296875 670.246094 365.445312 670.523438 364.5625 C 670.804688 363.675781 670.992188 362.773438 671.09375 361.851562 L 673.226562 341.769531 Z M 607.46875 355.277344 L 567.765625 351.058594 C 567.433594 351.023438 567.121094 350.925781 566.828125 350.765625 C 566.53125 350.605469 566.28125 350.394531 566.070312 350.136719 C 565.863281 349.875 565.710938 349.585938 565.617188 349.265625 C 565.519531 348.945312 565.492188 348.621094 565.527344 348.289062 C 565.5625 347.957031 565.660156 347.644531 565.820312 347.351562 C 565.980469 347.058594 566.1875 346.804688 566.449219 346.59375 C 566.707031 346.386719 566.996094 346.234375 567.316406 346.140625 C 567.636719 346.042969 567.964844 346.015625 568.296875 346.050781 L 608 350.269531 C 608.332031 350.304688 608.644531 350.402344 608.9375 350.5625 C 609.230469 350.722656 609.480469 350.933594 609.691406 351.191406 C 609.902344 351.453125 610.054688 351.742188 610.148438 352.0625 C 610.242188 352.382812 610.273438 352.707031 610.238281 353.039062 C 610.203125 353.371094 610.105469 353.683594 609.945312 353.976562 C 609.785156 354.269531 609.574219 354.523438 609.316406 354.730469 C 609.054688 354.941406 608.765625 355.09375 608.445312 355.1875 C 608.125 355.28125 607.800781 355.3125 607.46875 355.277344 Z M 623.445312 358.78125 C 623.152344 358.757812 622.867188 358.707031 622.585938 358.628906 C 622.304688 358.550781 622.035156 358.445312 621.773438 358.3125 C 621.515625 358.179688 621.269531 358.023438 621.039062 357.84375 C 620.808594 357.664062 620.601562 357.464844 620.410156 357.242188 C 620.21875 357.019531 620.054688 356.78125 619.910156 356.527344 C 619.769531 356.273438 619.652344 356.007812 619.558594 355.730469 C 619.46875 355.453125 619.40625 355.167969 619.371094 354.878906 C 619.335938 354.589844 619.328125 354.300781 619.351562 354.007812 C 619.449219 353.433594 619.644531 352.894531 619.949219 352.394531 C 620.25 351.894531 620.632812 351.46875 621.097656 351.113281 C 621.5625 350.761719 622.074219 350.503906 622.636719 350.347656 C 623.199219 350.191406 623.773438 350.144531 624.351562 350.203125 C 624.933594 350.265625 625.480469 350.433594 626 350.707031 C 626.515625 350.976562 626.964844 351.335938 627.34375 351.777344 C 627.722656 352.222656 628.007812 352.71875 628.199219 353.273438 C 628.386719 353.824219 628.46875 354.390625 628.441406 354.976562 C 628.402344 355.265625 628.335938 355.546875 628.238281 355.820312 C 628.144531 356.097656 628.023438 356.363281 627.878906 356.613281 C 627.730469 356.863281 627.558594 357.101562 627.367188 357.320312 C 627.175781 357.539062 626.960938 357.734375 626.730469 357.910156 C 626.496094 358.089844 626.25 358.242188 625.988281 358.367188 C 625.726562 358.496094 625.453125 358.597656 625.171875 358.671875 C 624.890625 358.746094 624.605469 358.792969 624.3125 358.8125 C 624.023438 358.832031 623.734375 358.820312 623.445312 358.78125 Z M 623.445312 358.78125 "/></g></g></g><g clip-rule="nonzero" clip-path="url(#2630907dbd)"><g clip-rule="nonzero" clip-path="url(#e978c1961a)"><g clip-rule="nonzero" clip-path="url(#e63470f493)"><path style=" stroke:none;fill-rule:nonzero;fill:#dde494;fill-opacity:1;" d="M 644.265625 100.109375 L 651.476562 112.214844 C 654.265625 116.898438 659.394531 119.679688 664.84375 119.460938 L 678.925781 118.894531 C 687.898438 118.535156 695.140625 126.152344 694.324219 135.097656 L 693.042969 149.132812 C 692.546875 154.558594 695.0625 159.824219 699.597656 162.847656 L 711.320312 170.667969 C 718.792969 175.652344 720.171875 186.070312 714.257812 192.828125 L 704.972656 203.429688 C 701.378906 207.527344 700.320312 213.265625 702.210938 218.378906 L 707.101562 231.59375 C 710.214844 240.019531 705.207031 249.257812 696.449219 251.246094 L 682.707031 254.367188 C 677.390625 255.574219 673.164062 259.59375 671.6875 264.839844 L 667.875 278.40625 C 665.441406 287.050781 655.960938 291.585938 647.707031 288.042969 L 634.753906 282.488281 C 629.746094 280.339844 623.960938 281.105469 619.683594 284.484375 L 608.625 293.21875 C 601.574219 298.785156 591.238281 296.878906 586.640625 289.164062 L 579.429688 277.054688 C 576.636719 272.375 571.507812 269.59375 566.0625 269.8125 L 551.980469 270.378906 C 543.007812 270.738281 535.765625 263.117188 536.582031 254.175781 L 537.863281 240.140625 C 538.359375 234.710938 535.84375 229.449219 531.308594 226.425781 L 519.582031 218.605469 C 512.113281 213.621094 510.734375 203.203125 516.648438 196.445312 L 525.933594 185.84375 C 529.527344 181.742188 530.585938 176.007812 528.695312 170.894531 L 523.804688 157.675781 C 520.6875 149.253906 525.699219 140.011719 534.457031 138.023438 L 548.199219 134.90625 C 553.515625 133.699219 557.742188 129.679688 559.21875 124.433594 L 563.03125 110.867188 C 565.460938 102.21875 574.945312 97.6875 583.199219 101.226562 L 596.152344 106.78125 C 601.160156 108.929688 606.945312 108.164062 611.222656 104.785156 L 622.28125 96.050781 C 629.332031 90.488281 639.667969 92.394531 644.265625 100.109375 Z M 644.265625 100.109375 "/></g></g></g><g clip-rule="nonzero" clip-path="url(#01815b2503)"><g clip-rule="nonzero" clip-path="url(#42582d1675)"><g clip-rule="nonzero" clip-path="url(#1679992e6c)"><path style=" stroke:none;fill-rule:nonzero;fill:#edbccf;fill-opacity:1;" d="M 261.75 580.429688 L 263.542969 588.960938 C 263.910156 590.710938 264.191406 592.46875 264.386719 594.246094 C 264.578125 596.019531 264.6875 597.800781 264.707031 599.585938 C 264.726562 601.371094 264.65625 603.152344 264.5 604.929688 C 264.34375 606.707031 264.101562 608.476562 263.773438 610.230469 C 263.445312 611.984375 263.03125 613.71875 262.53125 615.433594 C 262.03125 617.144531 261.445312 618.832031 260.78125 620.488281 C 260.117188 622.144531 259.371094 623.765625 258.546875 625.347656 C 257.722656 626.933594 256.824219 628.472656 255.847656 629.964844 C 254.871094 631.460938 253.824219 632.90625 252.707031 634.296875 C 251.589844 635.6875 250.40625 637.023438 249.15625 638.300781 C 247.910156 639.574219 246.601562 640.785156 245.230469 641.933594 C 243.863281 643.082031 242.445312 644.160156 240.96875 645.167969 C 239.496094 646.175781 237.976562 647.109375 236.410156 647.964844 C 234.847656 648.824219 233.242188 649.605469 231.601562 650.304688 C 229.960938 651.007812 228.285156 651.625 226.585938 652.160156 C 224.882812 652.699219 223.15625 653.152344 221.410156 653.519531 L 148.164062 668.910156 C 146.417969 669.277344 144.65625 669.558594 142.882812 669.753906 C 141.109375 669.945312 139.328125 670.054688 137.542969 670.070312 C 135.757812 670.089844 133.976562 670.023438 132.195312 669.867188 C 130.417969 669.710938 128.652344 669.46875 126.898438 669.140625 C 125.144531 668.808594 123.410156 668.394531 121.695312 667.894531 C 119.980469 667.394531 118.296875 666.8125 116.640625 666.148438 C 114.980469 665.484375 113.363281 664.738281 111.777344 663.914062 C 110.195312 663.089844 108.65625 662.1875 107.160156 661.210938 C 105.664062 660.238281 104.222656 659.191406 102.832031 658.074219 C 101.4375 656.957031 100.105469 655.773438 98.828125 654.523438 C 97.550781 653.273438 96.339844 651.964844 95.191406 650.597656 C 94.046875 649.230469 92.96875 647.808594 91.960938 646.335938 C 90.953125 644.863281 90.019531 643.34375 89.160156 641.777344 C 88.300781 640.214844 87.523438 638.609375 86.820312 636.96875 C 86.121094 635.324219 85.5 633.652344 84.964844 631.949219 C 84.429688 630.246094 83.976562 628.523438 83.609375 626.777344 L 81.816406 618.246094 C 81.449219 616.496094 81.167969 614.738281 80.976562 612.960938 C 80.78125 611.1875 80.675781 609.40625 80.65625 607.621094 C 80.636719 605.835938 80.703125 604.054688 80.859375 602.277344 C 81.015625 600.5 81.257812 598.730469 81.585938 596.976562 C 81.917969 595.222656 82.332031 593.488281 82.832031 591.773438 C 83.332031 590.058594 83.914062 588.375 84.578125 586.71875 C 85.242188 585.0625 85.988281 583.441406 86.8125 581.859375 C 87.636719 580.273438 88.539062 578.734375 89.515625 577.242188 C 90.488281 575.746094 91.535156 574.300781 92.652344 572.910156 C 93.773438 571.519531 94.953125 570.183594 96.203125 568.90625 C 97.453125 567.632812 98.761719 566.421875 100.128906 565.273438 C 101.496094 564.125 102.917969 563.046875 104.390625 562.039062 C 105.863281 561.03125 107.382812 560.097656 108.949219 559.242188 C 110.515625 558.382812 112.117188 557.601562 113.757812 556.902344 C 115.402344 556.199219 117.074219 555.582031 118.777344 555.046875 C 120.480469 554.507812 122.203125 554.054688 123.949219 553.6875 L 197.195312 538.296875 C 198.941406 537.929688 200.703125 537.648438 202.476562 537.453125 C 204.253906 537.261719 206.03125 537.152344 207.816406 537.132812 C 209.601562 537.117188 211.386719 537.183594 213.164062 537.339844 C 214.941406 537.496094 216.707031 537.738281 218.464844 538.066406 C 220.21875 538.398438 221.953125 538.8125 223.664062 539.3125 C 225.378906 539.8125 227.066406 540.394531 228.722656 541.058594 C 230.378906 541.722656 232 542.46875 233.582031 543.292969 C 235.164062 544.117188 236.703125 545.019531 238.199219 545.992188 C 239.695312 546.96875 241.136719 548.015625 242.53125 549.132812 C 243.921875 550.25 245.257812 551.433594 246.53125 552.683594 C 247.808594 553.933594 249.019531 555.242188 250.167969 556.609375 C 251.316406 557.976562 252.390625 559.398438 253.398438 560.871094 C 254.40625 562.34375 255.339844 563.863281 256.199219 565.429688 C 257.058594 566.992188 257.839844 568.597656 258.539062 570.238281 C 259.238281 571.882812 259.859375 573.554688 260.394531 575.257812 C 260.933594 576.960938 261.382812 578.683594 261.75 580.429688 Z M 261.75 580.429688 "/></g></g></g><g clip-rule="nonzero" clip-path="url(#0832c3ec05)"><g clip-rule="nonzero" clip-path="url(#3f953a33cb)"><g clip-rule="nonzero" clip-path="url(#2d193f26cf)"><path style=" stroke:none;fill-rule:nonzero;fill:#2b2b2b;fill-opacity:1;" d="M 601.300781 464.488281 L 598.21875 460.679688 C 596.519531 458.574219 593.4375 458.246094 591.332031 459.945312 C 590.550781 460.578125 590.015625 461.402344 589.738281 462.296875 C 584.171875 460.628906 579.230469 454.539062 579.410156 449.585938 C 580.359375 449.511719 581.300781 449.164062 582.101562 448.515625 C 584.203125 446.816406 584.53125 443.734375 582.832031 441.628906 L 579.753906 437.820312 C 578.054688 435.714844 574.96875 435.386719 572.867188 437.085938 C 561.4375 446.320312 589.136719 480.609375 600.566406 471.375 C 602.667969 469.675781 602.996094 466.59375 601.300781 464.488281 Z M 601.300781 464.488281 "/></g></g></g><g clip-rule="nonzero" clip-path="url(#1b685f2935)"><g clip-rule="nonzero" clip-path="url(#33a9c2d6f4)"><g clip-rule="nonzero" clip-path="url(#66cd0f4425)"><path style=" stroke:none;fill-rule:nonzero;fill:#2b2b2b;fill-opacity:1;" d="M 570.726562 687.488281 C 571.207031 686.199219 571.613281 684.867188 571.929688 683.492188 C 571.972656 683.316406 572.011719 683.136719 572.050781 682.957031 L 574.335938 683.199219 C 575.144531 683.285156 575.878906 682.679688 575.964844 681.855469 L 576.207031 679.59375 L 579.113281 679.914062 C 578.589844 682.957031 577.328125 685.707031 575.542969 688 Z M 567.4375 693.875 C 568.289062 692.613281 569.046875 691.289062 569.703125 689.90625 L 573.40625 690.300781 C 571.675781 691.867188 569.648438 693.089844 567.4375 693.875 Z M 563.894531 694.734375 C 562.925781 694.863281 561.933594 694.910156 560.929688 694.871094 L 561.550781 689.039062 L 567.09375 689.628906 C 566.175781 691.402344 565.070312 693.070312 563.777344 694.632812 Z M 569.597656 682.695312 C 569.246094 684.265625 568.777344 685.773438 568.195312 687.21875 L 561.816406 686.542969 L 562.308594 681.921875 Z M 561.613281 676.179688 L 559.960938 680.039062 L 559.195312 679.957031 L 559.167969 680.023438 L 559.15625 679.953125 L 558.460938 679.878906 L 557.644531 674.957031 L 555.8125 679.597656 L 555.117188 679.523438 L 555.09375 679.589844 L 555.078125 679.519531 L 554.3125 679.4375 L 553.507812 675.316406 L 551.855469 679.175781 L 551.089844 679.097656 L 551.0625 679.160156 L 551.050781 679.089844 L 550.355469 679.019531 L 549.109375 671.484375 L 551.054688 671.691406 L 551.566406 675.488281 L 553.105469 671.910156 L 553.855469 671.992188 L 553.863281 671.972656 L 553.867188 671.992188 L 554.621094 672.070312 L 555.371094 675.894531 L 556.671875 672.289062 L 559.160156 672.554688 L 559.671875 676.351562 L 561.210938 672.773438 L 561.960938 672.851562 L 561.96875 672.835938 L 561.972656 672.851562 L 562.726562 672.933594 L 563.476562 676.757812 L 564.777344 673.152344 L 567.265625 673.414062 L 567.777344 677.210938 L 569.316406 673.632812 L 570.066406 673.714844 L 570.074219 673.695312 L 570.078125 673.714844 L 570.832031 673.792969 L 571.582031 677.617188 L 572.882812 674.011719 L 574.828125 674.21875 L 572.023438 681.320312 L 571.328125 681.246094 L 571.304688 681.3125 L 571.289062 681.242188 L 570.523438 681.160156 L 569.71875 677.039062 L 568.066406 680.898438 L 567.300781 680.820312 L 567.273438 680.886719 L 567.261719 680.816406 L 566.566406 680.742188 L 565.75 675.816406 L 563.917969 680.460938 L 563.222656 680.386719 L 563.199219 680.453125 L 563.183594 680.382812 L 562.417969 680.300781 Z M 559.359375 686.28125 L 552.644531 685.566406 C 552.386719 684.03125 552.257812 682.457031 552.257812 680.851562 L 559.851562 681.660156 Z M 558.476562 694.601562 C 557.414062 694.40625 556.386719 694.121094 555.40625 693.746094 C 554.460938 691.945312 553.726562 690.078125 553.207031 688.152344 L 559.09375 688.777344 Z M 547.359375 687.53125 L 550.507812 687.867188 C 550.824219 689.210938 551.230469 690.527344 551.730469 691.816406 C 550.035156 690.648438 548.558594 689.195312 547.359375 687.53125 Z M 545.757812 684.835938 C 544.476562 682.183594 543.824219 679.1875 543.972656 676.0625 L 546.515625 676.339844 L 546.265625 678.699219 C 546.179688 679.523438 546.769531 680.269531 547.578125 680.355469 L 549.710938 680.582031 C 549.707031 680.890625 549.707031 681.203125 549.714844 681.511719 C 549.742188 682.789062 549.847656 684.050781 550.023438 685.289062 Z M 548.664062 664.679688 L 553.125 665.15625 C 552.578125 666.4375 552.042969 667.851562 551.5625 669.371094 C 551.507812 669.546875 551.453125 669.722656 551.402344 669.898438 L 548.722656 669.613281 C 547.910156 669.527344 547.175781 670.132812 547.089844 670.957031 L 546.78125 673.84375 L 544.261719 673.566406 C 544.898438 670.148438 546.464844 667.101562 548.664062 664.679688 Z M 555.746094 659.902344 C 555.289062 660.6875 554.769531 661.644531 554.226562 662.746094 L 551.140625 662.417969 C 552.539062 661.359375 554.089844 660.507812 555.746094 659.902344 Z M 561.511719 666.046875 L 560.992188 670.917969 L 553.996094 670.175781 C 554.542969 668.441406 555.167969 666.847656 555.796875 665.4375 Z M 559.320312 659.007812 C 560.285156 658.875 561.273438 658.820312 562.277344 658.851562 L 561.777344 663.546875 L 556.953125 663.035156 C 558.0625 660.886719 559.015625 659.449219 559.320312 659.007812 Z M 563.964844 666.308594 L 569.601562 666.90625 C 569.871094 668.320312 570.101562 669.882812 570.242188 671.542969 C 570.253906 671.664062 570.261719 671.785156 570.273438 671.902344 L 563.449219 671.179688 Z M 564.730469 659.105469 C 565.753906 659.28125 566.738281 659.546875 567.683594 659.890625 C 567.972656 660.667969 568.511719 662.226562 569.03125 664.320312 L 564.230469 663.808594 Z M 574.992188 664.953125 L 571.648438 664.597656 C 571.367188 663.375 571.074219 662.292969 570.800781 661.390625 C 572.378906 662.355469 573.789062 663.5625 574.992188 664.953125 Z M 576.9375 667.6875 C 578.59375 670.546875 579.488281 673.894531 579.367188 677.414062 L 576.472656 677.097656 L 576.789062 674.113281 C 576.875 673.289062 576.285156 672.542969 575.476562 672.457031 L 572.765625 672.167969 C 572.746094 671.859375 572.722656 671.546875 572.695312 671.238281 C 572.570312 669.800781 572.382812 668.441406 572.164062 667.179688 Z M 563.835938 656.441406 C 552.773438 655.265625 542.796875 663.46875 541.601562 674.730469 C 540.402344 685.992188 548.429688 696.109375 559.496094 697.285156 C 570.558594 698.460938 580.535156 690.257812 581.730469 678.996094 C 582.929688 667.734375 574.898438 657.617188 563.835938 656.441406 "/></g></g></g><g clip-rule="nonzero" clip-path="url(#a126852745)"><path style=" stroke:none;fill-rule:nonzero;fill:#2b2b2b;fill-opacity:1;" d="M 360.117188 631.929688 C 358.117188 629.546875 357.6875 627.191406 357.648438 625.824219 L 355.878906 625.882812 C 355.925781 627.234375 356.296875 629.429688 357.863281 631.738281 C 359.421875 634.058594 362.167969 636.476562 366.921875 638.375 C 360.085938 638.445312 353.25 638.664062 346.421875 639.070312 C 336.367188 639.664062 326.324219 640.660156 316.363281 642.25 C 306.414062 643.851562 296.515625 646.039062 286.957031 649.375 C 282.183594 651.050781 277.5 653.03125 273.058594 655.511719 C 271.640625 656.304688 270.246094 657.160156 268.890625 658.066406 C 268.320312 657.527344 267.746094 656.992188 267.140625 656.496094 C 266.1875 655.640625 265.152344 654.894531 264.152344 654.109375 C 263.101562 653.386719 262.082031 652.621094 260.996094 651.957031 C 258.863281 650.566406 256.628906 649.351562 254.363281 648.207031 C 249.804688 645.96875 245.066406 644.121094 240.203125 642.699219 C 230.488281 639.8125 220.367188 638.382812 210.238281 638.347656 L 210.238281 639.886719 C 220.210938 639.925781 230.199219 641.335938 239.765625 644.175781 C 244.550781 645.574219 249.210938 647.394531 253.675781 649.585938 C 255.894531 650.710938 258.085938 651.894531 260.164062 653.257812 C 261.222656 653.902344 262.214844 654.648438 263.238281 655.351562 C 264.210938 656.117188 265.21875 656.839844 266.136719 657.667969 C 266.640625 658.082031 267.121094 658.519531 267.59375 658.964844 C 265.199219 660.679688 262.945312 662.605469 260.964844 664.828125 C 259.25 666.75 257.773438 668.910156 256.667969 671.265625 C 255.589844 673.628906 254.886719 676.191406 254.726562 678.796875 C 254.636719 680.109375 254.703125 681.386719 254.765625 682.667969 C 254.828125 683.3125 254.882812 683.953125 254.953125 684.59375 L 255.273438 686.503906 C 255.796875 689.039062 256.714844 691.535156 258.203125 693.730469 C 258.296875 693.867188 258.378906 694.007812 258.480469 694.140625 L 258.792969 694.53125 C 259.007812 694.785156 259.203125 695.054688 259.433594 695.296875 L 260.144531 696.003906 C 260.257812 696.128906 260.386719 696.234375 260.519531 696.339844 L 260.914062 696.65625 C 261.976562 697.472656 263.179688 698.164062 264.511719 698.503906 C 267.152344 699.230469 270.121094 698.710938 272.335938 697.152344 C 273.453125 696.398438 274.453125 695.476562 275.246094 694.414062 C 275.683594 693.90625 276 693.328125 276.367188 692.777344 C 276.539062 692.496094 276.679688 692.199219 276.835938 691.910156 C 276.976562 691.613281 277.15625 691.332031 277.269531 691.027344 C 278.332031 688.628906 278.910156 686.074219 279.179688 683.515625 C 279.328125 682.234375 279.363281 680.953125 279.371094 679.667969 L 279.285156 677.722656 C 279.230469 677.078125 279.121094 676.441406 279.039062 675.796875 C 278.617188 673.238281 277.8125 670.753906 276.699219 668.425781 C 275.601562 666.082031 274.132812 663.945312 272.519531 661.957031 C 271.75 660.96875 270.878906 660.074219 270.027344 659.164062 C 271.257812 658.347656 272.523438 657.578125 273.808594 656.855469 C 278.148438 654.433594 282.757812 652.480469 287.46875 650.828125 C 296.902344 647.539062 306.722656 645.363281 316.609375 643.769531 C 326.507812 642.191406 336.5 641.203125 346.515625 640.609375 C 353.3125 640.207031 360.125 639.988281 366.9375 639.917969 C 362.234375 641.917969 359.6875 644.511719 358.320312 646.90625 C 356.953125 649.3125 356.761719 651.53125 356.804688 652.878906 L 358.464844 652.824219 C 358.425781 651.453125 358.671875 649.082031 360.484375 646.597656 C 362.296875 644.113281 365.695312 641.519531 371.964844 639.859375 L 371.964844 638.378906 C 365.679688 636.734375 362.121094 634.316406 360.117188 631.929688 Z M 268.863281 660.175781 C 269.703125 661.078125 270.570312 661.957031 271.328125 662.929688 C 272.871094 664.839844 274.273438 666.878906 275.308594 669.09375 C 276.363281 671.300781 277.121094 673.640625 277.515625 676.042969 C 277.589844 676.644531 277.695312 677.246094 277.75 677.851562 L 277.832031 679.679688 C 277.820312 680.902344 277.789062 682.136719 277.648438 683.355469 C 277.390625 685.785156 276.839844 688.191406 275.863281 690.394531 C 275.757812 690.679688 275.597656 690.929688 275.464844 691.203125 C 275.320312 691.464844 275.199219 691.738281 275.042969 691.992188 C 274.707031 692.484375 274.421875 693.015625 274.03125 693.460938 C 273.320312 694.417969 272.441406 695.21875 271.480469 695.867188 C 269.570312 697.210938 267.128906 697.613281 264.917969 697.019531 C 263.804688 696.734375 262.78125 696.144531 261.863281 695.441406 L 261.519531 695.167969 C 261.402344 695.078125 261.292969 694.984375 261.191406 694.875 L 260.570312 694.253906 C 260.363281 694.042969 260.191406 693.796875 260.003906 693.570312 L 259.722656 693.226562 C 259.632812 693.109375 259.558594 692.980469 259.472656 692.855469 C 258.136719 690.886719 257.273438 688.578125 256.785156 686.195312 L 256.484375 684.390625 C 256.414062 683.78125 256.363281 683.171875 256.300781 682.5625 C 256.242188 681.335938 256.183594 680.097656 256.265625 678.898438 C 256.410156 676.484375 257.0625 674.117188 258.066406 671.914062 C 259.097656 669.714844 260.488281 667.683594 262.117188 665.851562 C 264.066406 663.660156 266.316406 661.75 268.730469 660.046875 C 268.773438 660.089844 268.820312 660.132812 268.863281 660.175781 Z M 268.863281 660.175781 "/></g><g clip-rule="nonzero" clip-path="url(#66d2c935e2)"><g clip-rule="nonzero" clip-path="url(#1fbbfd66f4)"><g clip-rule="nonzero" clip-path="url(#b45e60ab73)"><path style=" stroke:none;fill-rule:nonzero;fill:#2b2b2b;fill-opacity:1;" d="M 590.488281 559.28125 C 589.476562 558.28125 588.089844 557.722656 586.742188 557.570312 L 561.796875 554.765625 C 560.125 554.578125 558.800781 554.914062 557.757812 555.601562 L 559.082031 556.714844 L 569.03125 564.832031 C 569.109375 564.839844 569.179688 564.929688 569.332031 565.027344 L 572.9375 568.007812 L 588.960938 559.992188 Z M 590.488281 559.28125 "/></g></g></g><g clip-rule="nonzero" clip-path="url(#5c13c6edcc)"><g clip-rule="nonzero" clip-path="url(#8177b56177)"><g clip-rule="nonzero" clip-path="url(#be30a24ffb)"><path style=" stroke:none;fill-rule:nonzero;fill:#2b2b2b;fill-opacity:1;" d="M 554.039062 572.238281 C 553.894531 573.507812 554.0625 574.894531 554.820312 576.027344 L 556.058594 575.039062 L 567.414062 565.617188 L 557.835938 557.78125 L 556.582031 556.757812 C 555.921875 557.648438 555.46875 558.800781 555.34375 559.914062 L 553.960938 572.230469 Z M 554.039062 572.238281 "/></g></g></g><g clip-rule="nonzero" clip-path="url(#19e5e535ea)"><g clip-rule="nonzero" clip-path="url(#6d7dfdf189)"><g clip-rule="nonzero" clip-path="url(#c7b8e8b652)"><path style=" stroke:none;fill-rule:nonzero;fill:#2b2b2b;fill-opacity:1;" d="M 586.605469 579.519531 L 577.414062 567.542969 L 573.15625 569.640625 C 573.078125 569.632812 573.066406 569.710938 572.988281 569.703125 C 572.988281 569.703125 572.910156 569.691406 572.910156 569.691406 C 572.828125 569.683594 572.75 569.675781 572.75 569.675781 C 572.671875 569.664062 572.589844 569.65625 572.589844 569.65625 C 572.589844 569.65625 572.511719 569.648438 572.511719 569.648438 C 572.433594 569.640625 572.433594 569.640625 572.363281 569.550781 L 568.675781 566.5625 L 557.054688 576.195312 L 555.808594 577.261719 C 556.617188 577.917969 557.6875 578.441406 559.117188 578.601562 L 584.0625 581.402344 C 585.253906 581.539062 586.480469 581.355469 587.585938 580.835938 Z M 586.605469 579.519531 "/></g></g></g><g clip-rule="nonzero" clip-path="url(#4aae66333c)"><g clip-rule="nonzero" clip-path="url(#864080ca7a)"><g clip-rule="nonzero" clip-path="url(#474733c66b)"><path style=" stroke:none;fill-rule:nonzero;fill:#2b2b2b;fill-opacity:1;" d="M 589.941406 561.308594 L 578.863281 566.820312 L 587.914062 578.621094 L 588.890625 579.9375 C 589.707031 579.140625 590.238281 577.996094 590.414062 576.40625 L 591.816406 563.933594 C 591.96875 562.582031 591.765625 561.515625 591.390625 560.585938 Z M 589.941406 561.308594 "/></g></g></g></g></svg>