<svg xmlns="http://www.w3.org/2000/svg" xmlns:xlink="http://www.w3.org/1999/xlink" width="1080" zoomAndPan="magnify" viewBox="0 0 810 809.999993" height="1080" preserveAspectRatio="xMidYMid meet" version="1.2"><defs><filter x="0%" y="0%" width="100%" filterUnits="objectBoundingBox" id="f5d96e0c62" height="100%"><feColorMatrix values="0 0 0 0 1 0 0 0 0 1 0 0 0 0 1 0 0 0 1 0" type="matrix" in="SourceGraphic"/></filter><clipPath id="07d5f42655"><rect x="0" width="810" y="0" height="810"/></clipPath><clipPath id="f327a7d4e8"><path d="M 1.019531 0.167969 L 675 0.167969 L 675 546.75 L 1.019531 546.75 Z M 1.019531 0.167969 "/></clipPath><clipPath id="62bf65cada"><path d="M 16.019531 0.167969 L 659.980469 0.167969 C 663.957031 0.167969 667.773438 1.746094 670.585938 4.558594 C 673.398438 7.375 674.980469 11.1875 674.980469 15.167969 L 674.980469 531.75 C 674.980469 535.726562 673.398438 539.542969 670.585938 542.355469 C 667.773438 545.167969 663.957031 546.75 659.980469 546.75 L 16.019531 546.75 C 12.042969 546.75 8.226562 545.167969 5.414062 542.355469 C 2.601562 539.542969 1.019531 535.726562 1.019531 531.75 L 1.019531 15.167969 C 1.019531 11.1875 2.601562 7.375 5.414062 4.558594 C 8.226562 1.746094 12.042969 0.167969 16.019531 0.167969 Z M 16.019531 0.167969 "/></clipPath><clipPath id="803f5cf50f"><rect x="0" width="676" y="0" height="547"/></clipPath><clipPath id="8fe0c0cc8c"><path d="M 18.175781 18.25 L 636 18.25 L 636 519.25 L 18.175781 519.25 Z M 18.175781 18.25 "/></clipPath><clipPath id="afb62a6097"><path d="M 33.175781 18.25 L 620.8125 18.25 C 624.792969 18.25 628.605469 19.832031 631.417969 22.644531 C 634.234375 25.457031 635.8125 29.273438 635.8125 33.25 L 635.8125 504.15625 C 635.8125 508.136719 634.234375 511.949219 631.417969 514.765625 C 628.605469 517.578125 624.792969 519.15625 620.8125 519.15625 L 33.175781 519.15625 C 29.199219 519.15625 25.382812 517.578125 22.570312 514.765625 C 19.757812 511.949219 18.175781 508.136719 18.175781 504.15625 L 18.175781 33.25 C 18.175781 29.273438 19.757812 25.457031 22.570312 22.644531 C 25.382812 19.832031 29.199219 18.25 33.175781 18.25 Z M 33.175781 18.25 "/></clipPath><clipPath id="45867708be"><rect x="0" width="652" y="0" height="537"/></clipPath><clipPath id="0745d9b719"><path d="M 293.605469 50.023438 L 516.394531 50.023438 L 516.394531 272.8125 L 293.605469 272.8125 Z M 293.605469 50.023438 "/></clipPath><clipPath id="30d52cb327"><path d="M 405 50.023438 C 343.480469 50.023438 293.605469 99.894531 293.605469 161.417969 C 293.605469 222.9375 343.480469 272.8125 405 272.8125 C 466.519531 272.8125 516.394531 222.9375 516.394531 161.417969 C 516.394531 99.894531 466.519531 50.023438 405 50.023438 Z M 405 50.023438 "/></clipPath><clipPath id="c786937608"><path d="M 347.355469 85.390625 L 462.855469 85.390625 L 462.855469 237.640625 L 347.355469 237.640625 Z M 347.355469 85.390625 "/></clipPath></defs><g id="d3243d1569"><rect x="0" width="810" y="0" height="809.999993" style="fill:#ffffff;fill-opacity:1;stroke:none;"/><rect x="0" width="810" y="0" height="809.999993" style="fill:COLOR_BRANDCOLOR;fill-opacity:1;stroke:none;"/><g mask="url(#463f024c75)" transform="matrix(1,0,0,1,0,0.000000000000039746)"><g clip-path="url(#07d5f42655)"><g transform="matrix(0.330882,0,0,0.330882,-134.99999,0.00002)"><image width="3264" xlink:href="file:///Users/erikbelt/Desktop/Mood Tracking App/AdCreator/image-generation-service/assets/Did_You_Know__2-img1-ddb25ddb.jpg" id="a02b50b179" height="2448" preserveAspectRatio="xMidYMid meet"/></g></g><mask id="463f024c75"><g filter="url(#f5d96e0c62)"><rect x="0" width="810" y="0" height="809.999993" style="fill:#000000;fill-opacity:0.64;stroke:none;"/></g></mask></g><g mask="url(#a0c86348f9)" transform="matrix(1,0,0,1,67,162)"><g clip-path="url(#803f5cf50f)"><g clip-rule="nonzero" clip-path="url(#f327a7d4e8)"><g clip-rule="nonzero" clip-path="url(#62bf65cada)"><path style=" stroke:none;fill-rule:nonzero;fill:#ffffff;fill-opacity:1;" d="M 1.019531 0.167969 L 675.710938 0.167969 L 675.710938 546.75 L 1.019531 546.75 Z M 1.019531 0.167969 "/></g></g></g><mask id="a0c86348f9"><g filter="url(#f5d96e0c62)"><rect x="0" width="810" y="0" height="809.999993" style="fill:#000000;fill-opacity:0.9;stroke:none;"/></g></mask></g><g mask="url(#d56f041aef)" transform="matrix(1,0,0,1,78,166)"><g clip-path="url(#45867708be)"><g clip-rule="nonzero" clip-path="url(#8fe0c0cc8c)"><g clip-rule="nonzero" clip-path="url(#afb62a6097)"><path style="fill:none;stroke-width:10;stroke-linecap:butt;stroke-linejoin:miter;stroke:COLOR_BRANDCOLOR;stroke-opacity:1;stroke-miterlimit:4;" d="M 19.99882 -0.00117964 L 803.514434 -0.00117964 C 808.821726 -0.00117964 813.905059 2.108195 817.655059 5.858195 C 821.410267 9.608195 823.514434 14.696737 823.514434 19.99882 L 823.514434 647.873811 C 823.514434 653.181103 821.410267 658.264436 817.655059 662.019645 C 813.905059 665.769645 808.821726 667.873811 803.514434 667.873811 L 19.99882 667.873811 C 14.696736 667.873811 9.608195 665.769645 5.858195 662.019645 C 2.108195 658.264436 -0.00118002 653.181103 -0.00118002 647.873811 L -0.00118002 19.99882 C -0.00118002 14.696737 2.108195 9.608195 5.858195 5.858195 C 9.608195 2.108195 14.696736 -0.00117964 19.99882 -0.00117964 Z M 19.99882 -0.00117964 " transform="matrix(0.75,0,0,0.75,18.176666,18.250885)"/></g></g></g><mask id="d56f041aef"><g filter="url(#f5d96e0c62)"><rect x="0" width="810" y="0" height="809.999993" style="fill:#000000;fill-opacity:0.9;stroke:none;"/></g></mask></g><g clip-rule="nonzero" clip-path="url(#0745d9b719)"><g clip-rule="nonzero" clip-path="url(#30d52cb327)"><path style=" stroke:none;fill-rule:nonzero;fill:COLOR_BRANDCOLOR;fill-opacity:1;" d="M 293.605469 50.023438 L 516.394531 50.023438 L 516.394531 272.8125 L 293.605469 272.8125 Z M 293.605469 50.023438 "/></g></g><g clip-rule="nonzero" clip-path="url(#c786937608)"><path style=" stroke:none;fill-rule:nonzero;fill:#ffffff;fill-opacity:1;" d="M 447.917969 140.820312 C 449.011719 144.574219 449.566406 148.464844 449.597656 152.328125 C 449.632812 154.261719 449.492188 156.183594 449.289062 158.089844 C 449.164062 159.035156 449.050781 159.988281 448.871094 160.921875 C 448.785156 161.394531 448.722656 161.855469 448.609375 162.335938 C 448.503906 162.816406 448.402344 163.296875 448.289062 163.773438 C 447.816406 165.683594 447.167969 167.558594 446.378906 169.367188 C 445.601562 171.183594 444.601562 172.894531 443.527344 174.53125 C 443.046875 175.207031 442.542969 175.96875 441.914062 176.707031 C 441.605469 177.078125 441.300781 177.476562 440.957031 177.859375 C 440.609375 178.234375 440.25 178.621094 439.882812 179.015625 C 439.523438 179.417969 439.113281 179.785156 438.707031 180.171875 C 438.503906 180.367188 438.300781 180.558594 438.09375 180.757812 C 437.886719 180.953125 437.675781 181.148438 437.449219 181.332031 C 437.007812 181.699219 436.554688 182.078125 436.097656 182.460938 C 435.875 182.65625 435.636719 182.835938 435.394531 183.011719 C 435.152344 183.191406 434.910156 183.371094 434.667969 183.550781 C 433.707031 184.296875 432.660156 184.949219 431.621094 185.636719 C 431.101562 185.976562 430.550781 186.273438 430.015625 186.59375 C 429.472656 186.902344 428.941406 187.242188 428.378906 187.515625 L 427.546875 187.949219 L 427.335938 188.058594 L 427.289062 188.082031 C 427.261719 188.09375 427.230469 188.109375 427.199219 188.121094 L 427.089844 188.152344 C 427.074219 188.160156 427.050781 188.164062 427.039062 188.171875 L 427.019531 188.21875 C 426.992188 188.28125 426.96875 188.34375 426.960938 188.421875 C 426.777344 189.523438 426.59375 190.621094 426.414062 191.699219 C 424.859375 201.003906 423.53125 209.183594 423.207031 210.636719 C 423.03125 211.410156 422.839844 212.71875 422.316406 212.414062 C 421.839844 212.132812 421.855469 210.851562 421.90625 209.898438 C 422.09375 206.464844 422.308594 203.019531 422.554688 199.582031 L 423.097656 191.976562 L 423.371094 188.175781 L 423.429688 187.460938 C 423.453125 187.214844 423.46875 186.964844 423.507812 186.726562 L 423.605469 186.003906 L 423.621094 185.910156 C 423.625 185.882812 423.621094 185.847656 423.65625 185.835938 L 423.808594 185.738281 L 424.113281 185.539062 L 426.15625 184.25 C 426.683594 183.929688 427.179688 183.5625 427.683594 183.210938 C 428.183594 182.847656 428.699219 182.511719 429.179688 182.132812 L 430.625 180.996094 C 430.871094 180.8125 431.101562 180.609375 431.328125 180.40625 L 432.015625 179.804688 C 433.832031 178.1875 435.523438 176.445312 436.96875 174.542969 C 438.417969 172.640625 439.644531 170.601562 440.597656 168.449219 C 441.5625 166.304688 442.230469 164.039062 442.644531 161.71875 C 443.460938 156.988281 443.566406 152.113281 442.75 147.464844 C 442.707031 147.132812 442.625 146.804688 442.558594 146.476562 C 442.488281 146.148438 442.433594 145.816406 442.347656 145.492188 C 442.179688 144.839844 442.027344 144.1875 441.820312 143.550781 C 441.449219 142.265625 440.976562 141.011719 440.453125 139.789062 C 439.394531 137.34375 438.046875 135.035156 436.460938 132.921875 C 434.882812 130.800781 433.054688 128.882812 431.066406 127.195312 C 430.070312 126.355469 429.027344 125.582031 427.953125 124.890625 C 427.6875 124.714844 427.414062 124.554688 427.144531 124.386719 L 426.324219 123.914062 L 424.511719 122.972656 C 424.199219 122.816406 423.886719 122.644531 423.566406 122.496094 L 422.601562 122.070312 L 421.636719 121.640625 L 421.15625 121.429688 L 420.664062 121.242188 L 418.703125 120.511719 L 416.714844 119.902344 C 414.050781 119.15625 411.34375 118.6875 408.648438 118.554688 C 405.957031 118.417969 403.277344 118.625 400.683594 119.175781 C 398.09375 119.722656 395.589844 120.617188 393.226562 121.800781 C 390.867188 122.988281 388.632812 124.441406 386.605469 126.164062 C 384.570312 127.878906 382.71875 129.8125 381.078125 131.902344 C 380.285156 132.960938 379.492188 134.027344 378.820312 135.152344 C 378.457031 135.703125 378.164062 136.28125 377.832031 136.84375 L 377.390625 137.703125 C 377.234375 137.988281 377.105469 138.277344 376.976562 138.566406 C 376.851562 138.855469 376.699219 139.144531 376.589844 139.433594 L 376.242188 140.304688 L 375.582031 142.238281 C 375.472656 142.5625 375.347656 142.882812 375.25 143.210938 L 374.976562 144.191406 L 374.699219 145.171875 L 374.558594 145.660156 C 374.515625 145.824219 374.488281 145.988281 374.449219 146.15625 C 373.710938 149.195312 373.382812 152.296875 373.550781 155.355469 C 373.71875 158.414062 374.355469 161.425781 375.425781 164.296875 C 375.664062 165.027344 376.003906 165.71875 376.300781 166.429688 C 376.441406 166.789062 376.636719 167.125 376.804688 167.472656 C 376.984375 167.816406 377.140625 168.167969 377.332031 168.507812 C 377.726562 169.175781 378.078125 169.867188 378.515625 170.515625 C 378.726562 170.84375 378.929688 171.179688 379.144531 171.503906 L 379.824219 172.464844 C 380.742188 173.742188 381.71875 174.988281 382.789062 176.167969 C 383.851562 177.355469 384.96875 178.507812 386.15625 179.597656 C 387.265625 180.628906 388.851562 181.917969 390.800781 183.210938 L 391.125 183.417969 C 391.246094 183.492188 391.371094 183.566406 391.492188 183.640625 C 391.734375 183.792969 391.980469 183.945312 392.230469 184.097656 C 392.476562 184.25 392.722656 184.40625 392.972656 184.558594 L 393.34375 184.789062 L 393.527344 184.90625 L 393.621094 184.960938 C 393.632812 184.972656 393.65625 184.976562 393.660156 184.992188 L 393.671875 185.046875 C 393.789062 185.628906 393.910156 186.214844 394.03125 186.8125 C 394.117188 187.425781 394.203125 188.050781 394.292969 188.683594 C 394.382812 189.417969 394.476562 190.171875 394.570312 190.9375 C 394.660156 191.691406 394.75 192.457031 394.84375 193.234375 C 395.574219 199.464844 396.269531 206.519531 396.613281 213.066406 C 396.652344 213.777344 396.800781 214.539062 396.074219 214.675781 C 395.292969 214.828125 394.886719 214.085938 394.699219 213.246094 C 394.132812 210.679688 393.519531 208.113281 393.054688 205.523438 L 390.867188 193.292969 L 390.320312 190.234375 L 390.078125 188.84375 L 389.96875 188.234375 L 389.910156 187.933594 L 389.882812 187.78125 L 389.871094 187.707031 C 389.867188 187.679688 389.828125 187.679688 389.808594 187.664062 C 389.433594 187.480469 389.070312 187.277344 388.714844 187.078125 C 388.5625 186.988281 388.304688 186.84375 388.082031 186.707031 L 387.40625 186.292969 C 386.511719 185.722656 385.628906 185.140625 384.773438 184.515625 C 381.339844 182.042969 378.210938 179.117188 375.519531 175.785156 C 374.164062 174.125 372.964844 172.332031 371.886719 170.460938 C 370.789062 168.597656 369.898438 166.605469 369.144531 164.5625 L 368.578125 162.929688 L 368.125 161.261719 C 368.054688 160.980469 367.960938 160.707031 367.910156 160.421875 L 367.742188 159.574219 L 367.574219 158.722656 C 367.519531 158.4375 367.457031 158.15625 367.425781 157.867188 C 367.289062 156.71875 367.109375 155.574219 367.082031 154.417969 C 367.058594 153.839844 367.003906 153.257812 367.007812 152.683594 L 367.039062 150.949219 C 367.046875 150.660156 367.046875 150.371094 367.0625 150.082031 L 367.136719 149.21875 L 367.292969 147.496094 C 367.355469 146.921875 367.464844 146.355469 367.550781 145.785156 C 367.644531 145.21875 367.71875 144.644531 367.835938 144.082031 L 368.21875 142.40625 C 368.355469 141.847656 368.453125 141.277344 368.632812 140.734375 L 369.121094 139.089844 C 369.289062 138.539062 369.429688 137.996094 369.652344 137.429688 C 370.453125 135.1875 371.496094 133.074219 372.703125 131.070312 C 373.910156 129.070312 375.285156 127.179688 376.800781 125.40625 C 379.816406 121.851562 383.441406 118.804688 387.488281 116.355469 C 391.945312 113.683594 397.039062 111.953125 402.269531 111.335938 C 404.886719 111.046875 407.527344 111.03125 410.140625 111.234375 C 411.4375 111.398438 412.746094 111.511719 414.019531 111.785156 L 414.980469 111.964844 L 415.460938 112.058594 C 415.621094 112.09375 415.777344 112.136719 415.933594 112.171875 L 417.824219 112.652344 L 418.292969 112.773438 L 418.757812 112.917969 L 419.679688 113.210938 L 420.605469 113.507812 L 421.066406 113.65625 L 421.515625 113.824219 C 422.710938 114.296875 423.933594 114.71875 425.085938 115.273438 L 426.835938 116.066406 L 428.53125 116.941406 L 429.378906 117.382812 L 429.800781 117.605469 L 430.242188 117.855469 C 430.835938 118.191406 431.40625 118.554688 431.96875 118.921875 C 434.207031 120.414062 436.242188 122.132812 438.085938 124.027344 C 439.019531 124.964844 439.875 125.96875 440.710938 126.992188 C 441.113281 127.515625 441.527344 128.027344 441.90625 128.570312 C 442.09375 128.839844 442.292969 129.105469 442.476562 129.375 L 443.023438 130.203125 C 445.15625 133.480469 446.8125 137.074219 447.917969 140.820312 Z M 424.453125 230.769531 C 423.609375 230.277344 422.714844 230.023438 421.933594 229.898438 C 421.148438 229.769531 420.476562 229.765625 420.0625 229.660156 C 418.308594 229.1875 416.617188 229.558594 414.878906 229.289062 C 413.375 229.046875 411.910156 229.355469 410.453125 229.734375 C 408.996094 230.121094 407.546875 230.582031 406.074219 230.789062 C 404.652344 230.917969 403.269531 231.484375 401.863281 231.804688 C 400.628906 232.085938 399.398438 232.375 398.167969 232.699219 C 396.941406 233.027344 395.714844 233.398438 394.492188 233.804688 C 394.078125 233.941406 393.664062 234.097656 393.253906 234.28125 C 393.140625 234.332031 392.992188 234.445312 393 234.882812 C 393.003906 235.359375 393.171875 235.394531 393.273438 235.464844 C 393.464844 235.597656 394.511719 235.914062 395.703125 236.3125 C 396.894531 236.695312 398.234375 237.15625 398.984375 237.238281 C 400.757812 237.445312 402.511719 237.414062 404.253906 237.21875 C 406.601562 236.960938 408.960938 236.800781 411.277344 236.113281 C 413.382812 235.484375 415.527344 235.296875 417.628906 234.578125 C 419.617188 233.902344 421.625 233.429688 423.628906 232.894531 C 423.945312 232.808594 424.253906 232.59375 424.566406 232.417969 C 424.667969 232.363281 424.746094 232.105469 424.6875 231.421875 C 424.636719 230.789062 424.542969 230.824219 424.453125 230.769531 Z M 412.347656 168.445312 C 412.488281 167.195312 412.648438 165.945312 412.84375 164.691406 C 410.996094 164.855469 409.152344 164.964844 407.300781 165.027344 C 406.835938 165.039062 406.367188 165.050781 405.902344 165.058594 C 406 165.640625 406.085938 166.222656 406.171875 166.800781 C 406.855469 171.617188 407.179688 176.386719 407.195312 181.148438 C 407.203125 183.390625 407.339844 187.109375 407.261719 191.375 C 407.195312 195.636719 406.925781 200.445312 406.332031 204.863281 C 406.265625 205.34375 406.28125 205.875 405.683594 205.878906 C 405.039062 205.882812 404.816406 205.34375 404.777344 204.765625 C 404.664062 202.992188 404.496094 201.21875 404.4375 199.449219 C 404.253906 193.871094 403.957031 188.296875 403.472656 182.75 C 403.226562 179.976562 402.9375 177.210938 402.5625 174.460938 C 402.191406 171.710938 401.746094 168.980469 401.164062 166.296875 C 401.066406 165.851562 400.964844 165.40625 400.863281 164.964844 C 399.671875 164.898438 398.46875 164.800781 397.253906 164.65625 L 396.613281 164.582031 L 395.957031 164.476562 L 395.300781 164.367188 C 395.074219 164.328125 394.878906 164.304688 394.609375 164.242188 C 393.601562 164.03125 392.566406 163.71875 391.511719 163.214844 L 391.28125 163.101562 L 391.011719 162.960938 C 390.835938 162.871094 390.671875 162.753906 390.503906 162.652344 C 390.339844 162.546875 390.164062 162.449219 390.003906 162.332031 L 389.535156 161.976562 L 389.304688 161.796875 L 389.089844 161.597656 L 388.664062 161.199219 L 388.28125 160.761719 C 388.152344 160.621094 388.03125 160.46875 387.925781 160.3125 C 387.472656 159.699219 387.125 159.019531 386.902344 158.308594 C 386.65625 157.605469 386.570312 156.859375 386.550781 156.117188 C 386.589844 154.753906 387 153.398438 387.789062 152.265625 C 388.5625 151.121094 389.679688 150.199219 390.972656 149.578125 C 391.300781 149.433594 391.628906 149.285156 391.972656 149.171875 C 392.316406 149.058594 392.664062 148.960938 393.015625 148.875 C 393.199219 148.832031 393.402344 148.800781 393.597656 148.773438 C 393.773438 148.75 393.90625 148.722656 394.066406 148.710938 C 394.378906 148.691406 394.6875 148.671875 394.996094 148.671875 C 395.3125 148.683594 395.625 148.699219 395.941406 148.726562 C 396.261719 148.773438 396.578125 148.828125 396.894531 148.890625 C 397.21875 148.976562 397.539062 149.070312 397.855469 149.171875 C 398.015625 149.234375 398.171875 149.300781 398.332031 149.371094 C 398.496094 149.441406 398.664062 149.519531 398.828125 149.597656 C 399.078125 149.742188 399.332031 149.890625 399.574219 150.050781 C 399.8125 150.210938 400.039062 150.398438 400.253906 150.574219 C 400.472656 150.75 400.628906 150.929688 400.816406 151.109375 C 401.003906 151.296875 401.144531 151.472656 401.296875 151.652344 C 401.605469 152.015625 401.824219 152.359375 402.070312 152.714844 C 402.273438 153.058594 402.496094 153.40625 402.660156 153.742188 C 403.027344 154.417969 403.296875 155.070312 403.558594 155.722656 C 403.992188 156.832031 404.320312 157.90625 404.613281 158.972656 C 406.355469 158.984375 408.105469 158.945312 409.847656 158.859375 C 410.632812 158.820312 411.414062 158.78125 412.195312 158.71875 L 413.367188 158.628906 L 414.117188 158.554688 C 414.167969 158.367188 414.214844 158.175781 414.269531 157.988281 C 414.550781 156.988281 414.890625 155.980469 415.300781 154.972656 C 415.71875 153.960938 416.210938 152.941406 416.910156 151.929688 C 417.25 151.421875 417.675781 150.917969 418.160156 150.433594 C 418.28125 150.316406 418.429688 150.199219 418.5625 150.082031 C 418.703125 149.96875 418.828125 149.847656 418.992188 149.742188 L 419.46875 149.425781 C 419.628906 149.324219 419.78125 149.253906 419.941406 149.167969 C 420.566406 148.832031 421.21875 148.621094 421.882812 148.441406 C 422.542969 148.296875 423.214844 148.1875 423.898438 148.183594 C 424.582031 148.160156 425.277344 148.242188 425.976562 148.382812 C 426.683594 148.5625 427.390625 148.777344 428.085938 149.1875 L 428.34375 149.332031 C 428.429688 149.386719 428.515625 149.449219 428.597656 149.507812 C 428.769531 149.628906 428.933594 149.753906 429.097656 149.878906 C 429.257812 150.023438 429.414062 150.171875 429.566406 150.324219 C 429.644531 150.402344 429.71875 150.472656 429.792969 150.558594 L 430 150.816406 C 430.132812 150.996094 430.269531 151.167969 430.386719 151.359375 C 430.496094 151.550781 430.605469 151.75 430.707031 151.949219 C 430.816406 152.144531 430.886719 152.351562 430.957031 152.5625 C 431.03125 152.769531 431.101562 152.980469 431.15625 153.191406 C 431.367188 154.03125 431.386719 154.90625 431.265625 155.71875 C 431.148438 156.53125 430.894531 157.289062 430.550781 157.972656 C 429.867188 159.339844 428.851562 160.429688 427.59375 161.25 L 427.203125 161.488281 L 426.789062 161.707031 C 426.640625 161.789062 426.539062 161.824219 426.425781 161.871094 L 426.089844 162.011719 C 425.640625 162.191406 425.175781 162.402344 424.753906 162.523438 C 424.324219 162.660156 423.886719 162.804688 423.457031 162.929688 L 422.1875 163.253906 C 421.761719 163.371094 421.347656 163.445312 420.929688 163.535156 C 420.511719 163.617188 420.089844 163.71875 419.675781 163.789062 C 419.144531 163.875 418.613281 163.972656 418.078125 164.058594 C 417.1875 168.125 416.601562 172.371094 416.09375 176.625 C 415.859375 178.617188 415.511719 181.363281 415.171875 184.410156 C 414.832031 187.453125 414.5 190.789062 414.242188 193.949219 C 413.707031 200.261719 413.480469 205.84375 413.378906 206.839844 C 413.316406 207.375 413.304688 208.261719 412.851562 208.109375 C 412.4375 207.972656 412.3125 207.113281 412.257812 206.472656 C 412.054688 204.152344 411.898438 201.824219 411.789062 199.496094 C 411.46875 192.628906 411.351562 185.742188 411.605469 178.832031 C 411.738281 175.375 411.957031 171.914062 412.347656 168.445312 Z M 397.621094 158.601562 L 399.015625 158.742188 C 398.699219 157.9375 398.347656 157.164062 397.941406 156.484375 C 397.429688 155.585938 396.78125 154.863281 396.273438 154.664062 C 395.949219 154.515625 395.484375 154.429688 395.027344 154.453125 L 394.679688 154.484375 C 394.625 154.488281 394.558594 154.507812 394.511719 154.515625 C 394.476562 154.527344 394.445312 154.53125 394.40625 154.539062 C 394.234375 154.585938 394.070312 154.644531 393.914062 154.71875 C 393.601562 154.871094 393.324219 155.089844 393.125 155.363281 C 392.925781 155.636719 392.835938 155.980469 392.859375 156.308594 C 392.886719 156.765625 393.171875 157.160156 393.511719 157.425781 C 393.683594 157.558594 393.871094 157.664062 394.0625 157.75 L 394.128906 157.777344 L 394.25 157.835938 C 394.332031 157.875 394.421875 157.902344 394.507812 157.9375 C 394.675781 158.011719 394.867188 158.0625 395.050781 158.125 C 395.238281 158.179688 395.433594 158.226562 395.625 158.273438 C 395.835938 158.3125 396.007812 158.359375 396.242188 158.394531 Z M 419.933594 157.734375 C 421.128906 157.492188 422.292969 157.199219 423.328125 156.835938 C 423.617188 156.714844 423.914062 156.597656 424.199219 156.484375 C 424.351562 156.402344 424.507812 156.304688 424.660156 156.1875 C 424.960938 155.945312 425.226562 155.621094 425.375 155.3125 C 425.53125 155.003906 425.5625 154.738281 425.542969 154.578125 C 425.53125 154.488281 425.503906 154.425781 425.480469 154.378906 C 425.460938 154.363281 425.472656 154.328125 425.441406 154.316406 C 425.429688 154.304688 425.425781 154.292969 425.421875 154.28125 C 425.410156 154.269531 425.386719 154.261719 425.375 154.246094 C 425.277344 154.144531 425.019531 153.984375 424.636719 153.894531 C 424.261719 153.804688 423.789062 153.785156 423.347656 153.851562 C 423.015625 153.898438 422.707031 154 422.433594 154.113281 C 422.371094 154.144531 422.308594 154.175781 422.246094 154.203125 C 422.191406 154.234375 422.160156 154.265625 422.113281 154.289062 C 422.070312 154.304688 422.019531 154.367188 421.96875 154.402344 L 421.890625 154.460938 C 421.863281 154.488281 421.835938 154.519531 421.808594 154.546875 C 421.355469 154.96875 420.839844 155.765625 420.414062 156.648438 C 420.242188 156.996094 420.085938 157.363281 419.933594 157.734375 Z M 462.375 104.257812 C 462.140625 103.996094 462.039062 104.046875 461.953125 104.046875 C 461.796875 104.054688 461.125 104.3125 460.339844 104.585938 C 459.558594 104.863281 458.675781 105.164062 458.261719 105.429688 C 457.28125 106.050781 456.425781 106.792969 455.65625 107.621094 C 454.613281 108.742188 453.519531 109.804688 452.703125 111.148438 C 451.964844 112.375 450.988281 113.367188 450.296875 114.636719 C 449.632812 115.839844 448.867188 116.933594 448.132812 118.0625 C 448.015625 118.242188 447.96875 118.488281 447.898438 118.714844 C 447.875 118.789062 447.960938 118.964844 448.320312 119.320312 C 448.652344 119.652344 448.683594 119.59375 448.753906 119.585938 C 449.410156 119.511719 449.976562 119.28125 450.425781 119.027344 C 450.875 118.773438 451.214844 118.496094 451.472656 118.382812 C 452.566406 117.917969 453.226562 117.011719 454.222656 116.441406 C 455.085938 115.953125 455.664062 115.175781 456.203125 114.359375 C 456.738281 113.539062 457.234375 112.679688 457.867188 111.957031 C 458.507812 111.296875 458.921875 110.40625 459.464844 109.648438 C 459.941406 108.976562 460.414062 108.308594 460.863281 107.617188 C 461.316406 106.925781 461.742188 106.210938 462.15625 105.480469 C 462.292969 105.230469 462.421875 104.972656 462.539062 104.699219 C 462.570312 104.625 462.585938 104.5 462.375 104.257812 Z M 417.859375 104.242188 C 418.171875 104.347656 418.226562 104.261719 418.296875 104.21875 C 418.417969 104.140625 418.84375 103.617188 419.351562 103.03125 C 419.851562 102.441406 420.429688 101.789062 420.640625 101.378906 C 421.140625 100.421875 421.488281 99.421875 421.722656 98.390625 C 422.042969 97.003906 422.433594 95.632812 422.464844 94.164062 C 422.496094 92.828125 422.820312 91.574219 422.789062 90.222656 C 422.761719 88.941406 422.871094 87.699219 422.941406 86.445312 C 422.949219 86.246094 422.875 86.023438 422.828125 85.808594 C 422.808594 85.738281 422.660156 85.636719 422.203125 85.515625 C 421.777344 85.402344 421.78125 85.460938 421.730469 85.503906 C 421.230469 85.871094 420.882812 86.320312 420.636719 86.734375 C 420.390625 87.148438 420.246094 87.53125 420.089844 87.738281 C 419.421875 88.628906 419.308594 89.667969 418.769531 90.59375 C 418.300781 91.390625 418.195312 92.289062 418.140625 93.199219 C 418.085938 94.113281 418.085938 95.039062 417.914062 95.917969 C 417.703125 96.75 417.785156 97.664062 417.699219 98.53125 C 417.546875 100.054688 417.4375 101.585938 417.46875 103.15625 C 417.46875 103.421875 417.488281 103.691406 417.519531 103.964844 C 417.53125 104.039062 417.574219 104.148438 417.859375 104.242188 Z M 376.074219 89.742188 C 376.183594 91.066406 376.917969 92.082031 377.175781 93.335938 C 377.394531 94.417969 378.015625 95.300781 378.691406 96.15625 C 379.371094 97.007812 380.109375 97.832031 380.660156 98.753906 C 381.132812 99.664062 381.933594 100.410156 382.550781 101.25 C 383.09375 101.984375 383.636719 102.71875 384.214844 103.4375 C 384.789062 104.15625 385.398438 104.859375 386.03125 105.546875 C 386.242188 105.78125 386.472656 106.007812 386.722656 106.222656 C 386.792969 106.285156 386.917969 106.347656 387.246094 106.203125 C 387.605469 106.046875 387.585938 105.925781 387.613281 105.832031 C 387.664062 105.664062 387.625 104.859375 387.609375 103.933594 C 387.582031 103.011719 387.574219 101.972656 387.4375 101.441406 C 387.121094 100.1875 386.628906 99.023438 386.019531 97.917969 C 385.195312 96.425781 384.449219 94.898438 383.308594 93.566406 C 382.269531 92.355469 381.554688 90.980469 380.449219 89.800781 C 379.410156 88.683594 378.515625 87.488281 377.574219 86.320312 C 377.425781 86.132812 377.183594 85.996094 376.964844 85.84375 C 376.894531 85.792969 376.679688 85.824219 376.175781 86.082031 C 375.710938 86.320312 375.761719 86.371094 375.746094 86.449219 C 375.597656 87.171875 375.644531 87.847656 375.757812 88.414062 C 375.871094 88.980469 376.042969 89.433594 376.074219 89.742188 Z M 363.472656 125.492188 C 363.082031 124.808594 362.652344 124.027344 362.335938 123.683594 C 361.59375 122.867188 360.753906 122.1875 359.851562 121.601562 C 358.628906 120.808594 357.449219 119.960938 356.054688 119.414062 C 354.785156 118.921875 353.695312 118.171875 352.390625 117.730469 C 351.152344 117.308594 350 116.769531 348.820312 116.269531 C 348.632812 116.1875 348.394531 116.183594 348.171875 116.15625 C 348.097656 116.148438 347.949219 116.253906 347.671875 116.652344 C 347.417969 117.019531 347.476562 117.035156 347.496094 117.101562 C 347.675781 117.703125 347.980469 118.199219 348.296875 118.578125 C 348.605469 118.960938 348.921875 119.230469 349.070312 119.453125 C 349.6875 120.402344 350.644531 120.875 351.34375 121.710938 C 351.945312 122.441406 352.769531 122.855469 353.625 123.226562 C 354.480469 123.59375 355.367188 123.917969 356.152344 124.390625 C 356.875 124.882812 357.777344 125.125 358.582031 125.507812 C 359.988281 126.183594 361.417969 126.824219 362.933594 127.34375 C 363.1875 127.433594 363.453125 127.511719 363.726562 127.574219 C 363.800781 127.589844 363.921875 127.585938 364.113281 127.347656 C 364.320312 127.085938 364.257812 127 364.242188 126.917969 C 364.207031 126.773438 363.855469 126.183594 363.472656 125.492188 Z M 393.25 221.046875 C 393.140625 221.097656 392.992188 221.207031 393 221.636719 C 393.003906 222.101562 393.167969 222.136719 393.269531 222.207031 C 393.457031 222.335938 394.484375 222.644531 395.652344 223.035156 C 396.820312 223.410156 398.132812 223.859375 398.871094 223.941406 C 400.609375 224.140625 402.328125 224.109375 404.039062 223.917969 C 406.339844 223.660156 408.652344 223.503906 410.925781 222.824219 C 412.988281 222.207031 415.09375 222.019531 417.152344 221.3125 C 419.101562 220.648438 421.070312 220.183594 423.035156 219.65625 C 423.347656 219.570312 423.648438 219.359375 423.953125 219.1875 C 424.050781 219.132812 424.128906 218.882812 424.070312 218.210938 C 424.019531 217.589844 423.929688 217.625 423.839844 217.570312 C 423.011719 217.089844 422.136719 216.84375 421.367188 216.71875 C 420.597656 216.59375 419.9375 216.589844 419.535156 216.484375 C 417.8125 216.027344 416.15625 216.390625 414.449219 216.128906 C 412.972656 215.894531 411.539062 216.195312 410.109375 216.570312 C 408.683594 216.949219 407.257812 217.40625 405.816406 217.609375 C 404.425781 217.738281 403.066406 218.292969 401.6875 218.605469 C 400.480469 218.886719 399.273438 219.167969 398.066406 219.492188 C 396.863281 219.8125 395.660156 220.179688 394.464844 220.578125 C 394.058594 220.710938 393.652344 220.867188 393.25 221.046875 Z M 393.25 221.046875 "/></g></g></svg>