<svg xmlns="http://www.w3.org/2000/svg" xmlns:xlink="http://www.w3.org/1999/xlink" width="1080" zoomAndPan="magnify" viewBox="0 0 810 809.999993" height="1080" preserveAspectRatio="xMidYMid meet" version="1.2"><defs><clipPath id="bb2d294c6a"><path d="M 0 282.273438 L 810 282.273438 L 810 810 L 0 810 Z M 0 282.273438 "/></clipPath><clipPath id="be35b73706"><path d="M 160 313 L 627 313 L 627 366 L 160 366 Z M 160 313 "/></clipPath><clipPath id="ef8789d1b9"><path d="M 159.824219 323.792969 L 626.210938 313.433594 L 627.144531 355.425781 L 160.757812 365.78125 Z M 159.824219 323.792969 "/></clipPath><clipPath id="aedb2df3ed"><path d="M 155 198 L 655 198 L 655 340 L 155 340 Z M 155 198 "/></clipPath><clipPath id="e028e640e1"><path d="M 152.546875 208.960938 L 654.925781 197.929688 L 657.789062 328.398438 L 155.410156 339.429688 Z M 152.546875 208.960938 "/></clipPath><clipPath id="c36191c98a"><path d="M 657.453125 328.570312 L 155.074219 339.601562 L 152.210938 209.132812 L 654.589844 198.101562 Z M 657.453125 328.570312 "/></clipPath><clipPath id="662a1e3df3"><path d="M 657.453125 328.570312 L 155.074219 339.601562 L 152.210938 209.132812 L 654.589844 198.101562 Z M 657.453125 328.570312 "/></clipPath><clipPath id="f6e2e66b70"><path d="M 243 144.1875 L 567 144.1875 L 567 228.1875 L 243 228.1875 Z M 243 144.1875 "/></clipPath></defs><g id="7331d8184b"><rect x="0" width="810" y="0" height="809.999993" style="fill:#ffffff;fill-opacity:1;stroke:none;"/><rect x="0" width="810" y="0" height="809.999993" style="fill:#ffffff;fill-opacity:1;stroke:none;"/><g clip-rule="nonzero" clip-path="url(#bb2d294c6a)"><path style=" stroke:none;fill-rule:nonzero;fill:COLOR_BRANDCOLOR;fill-opacity:1;" d="M 0 282.273438 L 810.144531 282.273438 L 810.144531 810 L 0 810 Z M 0 282.273438 "/></g><g clip-rule="nonzero" clip-path="url(#be35b73706)"><g clip-rule="nonzero" clip-path="url(#ef8789d1b9)"><g mask="url(#b444bc0a1e)" transform="matrix(0.512511,-0.0113808,0.011371,0.512069,159.825401,323.791914)"><image width="910" xlink:href="file:///Users/erikbelt/Desktop/Mood Tracking App/AdCreator/image-generation-service/assets/Did_You_Know_-img1-b47e759a.png" height="82" preserveAspectRatio="xMidYMid meet"/><mask id="b444bc0a1e"><g transform="matrix(1,-0.000000000000000003,0.000000000000000003,1,-0.000000000000056843,-0.000000000000113687)"><image width="910" xlink:href="file:///Users/erikbelt/Desktop/Mood Tracking App/AdCreator/image-generation-service/assets/Did_You_Know_-img2-6c9d2213.png" height="82" preserveAspectRatio="xMidYMid meet"/></g></mask></g></g></g><g clip-rule="nonzero" clip-path="url(#aedb2df3ed)"><g clip-rule="nonzero" clip-path="url(#e028e640e1)"><g clip-rule="nonzero" clip-path="url(#c36191c98a)"><g clip-rule="nonzero" clip-path="url(#662a1e3df3)"><path style=" stroke:none;fill-rule:nonzero;fill:#231f20;fill-opacity:1;" d="M 155.105469 339.582031 L 173.328125 250.238281 L 224.964844 207.492188 L 654.558594 198.058594 L 627.824219 329.203125 Z M 155.105469 339.582031 "/></g></g></g></g><g clip-rule="nonzero" clip-path="url(#f6e2e66b70)"><path style=" stroke:none;fill-rule:nonzero;fill:COLOR_BRANDCOLOR;fill-opacity:1;" d="M 243.023438 144.199219 L 256.035156 201.433594 L 289.925781 228.214844 L 566.976562 228.214844 L 547.886719 144.199219 Z M 243.023438 144.199219 "/></g></g></svg>