<svg xmlns="http://www.w3.org/2000/svg" xmlns:xlink="http://www.w3.org/1999/xlink" width="940" zoomAndPan="magnify" viewBox="0 0 705 591.000005" height="788" preserveAspectRatio="xMidYMid meet" version="1.2"><defs><clipPath id="23ec29f082"><path d="M 0.59375 0 L 704.402344 0 L 704.402344 590 L 0.59375 590 Z M 0.59375 0 "/></clipPath><clipPath id="51cdfcc5d5"><path d="M 270.078125 59 L 645 59 L 645 580.867188 L 270.078125 580.867188 Z M 270.078125 59 "/></clipPath><clipPath id="67158b8738"><path d="M 320 95 L 627 95 L 627 474 L 320 474 Z M 320 95 "/></clipPath><clipPath id="81992139d5"><path d="M 320.457031 172.464844 L 491.335938 95.863281 L 626.289062 396.910156 L 455.410156 473.511719 Z M 320.457031 172.464844 "/></clipPath><clipPath id="7583ca9f9b"><path d="M 59.59375 396.4375 L 253.957031 396.4375 L 253.957031 449.941406 L 59.59375 449.941406 Z M 59.59375 396.4375 "/></clipPath><clipPath id="ee3ff901ae"><path d="M 243.699219 449.941406 L 69.679688 449.941406 C 64.121094 449.941406 59.59375 445.414062 59.59375 439.855469 L 59.59375 406.523438 C 59.59375 400.964844 64.121094 396.4375 69.679688 396.4375 L 243.699219 396.4375 C 249.253906 396.4375 253.78125 400.964844 253.78125 406.523438 L 253.78125 439.855469 C 253.78125 445.414062 249.253906 449.941406 243.699219 449.941406 Z M 243.699219 449.941406 "/></clipPath><clipPath id="e24a158820"><path d="M 0.59375 0 L 187 0 L 187 156 L 0.59375 156 Z M 0.59375 0 "/></clipPath><clipPath id="0820df7bb9"><path d="M 18.417969 -103.046875 L 198.800781 -24.054688 L 100.886719 199.535156 L -79.492188 120.542969 Z M 18.417969 -103.046875 "/></clipPath><clipPath id="f51fcedf15"><path d="M 18.417969 -103.046875 L 198.800781 -24.054688 L 100.886719 199.535156 L -79.492188 120.542969 Z M 18.417969 -103.046875 "/></clipPath><clipPath id="345da7fecd"><path d="M 526 486 L 704.402344 486 L 704.402344 590 L 526 590 Z M 526 486 "/></clipPath><clipPath id="3d2656db54"><path d="M 493.863281 606.320312 L 666.457031 433.722656 L 797.226562 564.496094 L 624.632812 737.089844 Z M 493.863281 606.320312 "/></clipPath><clipPath id="2dde912fec"><path d="M 493.863281 606.320312 L 666.457031 433.722656 L 797.226562 564.496094 L 624.632812 737.089844 Z M 493.863281 606.320312 "/></clipPath></defs><g id="9f27052e06"><g clip-rule="nonzero" clip-path="url(#23ec29f082)"><path style=" stroke:none;fill-rule:nonzero;fill:#ffffff;fill-opacity:1;" d="M 0.59375 0 L 704.40625 0 L 704.40625 590 L 0.59375 590 Z M 0.59375 0 "/><path style=" stroke:none;fill-rule:nonzero;fill:#COLOR_BRANDCOLOR;fill-opacity:1;" d="M 0.59375 0 L 704.40625 0 L 704.40625 590 L 0.59375 590 Z M 0.59375 0 "/></g><g clip-rule="nonzero" clip-path="url(#51cdfcc5d5)"><g mask="url(#a4cbf3c33f)" transform="matrix(0.483396,0,0,0.483658,270.079155,59.000187)"><image width="776" xlink:href="file:///Users/erikbelt/Desktop/Mood Tracking App/AdCreator/image-generation-service/assets/FB_iPhoneMockUP_Statement-img1-7769c844.png" height="1079" preserveAspectRatio="xMidYMid meet"/><mask id="a4cbf3c33f"><g transform="matrix(1,0,0,1,0.000000000000113687,-0.000000000000014211)"><image width="776" xlink:href="file:///Users/erikbelt/Desktop/Mood Tracking App/AdCreator/image-generation-service/assets/FB_iPhoneMockUP_Statement-img2-1d137e05.png" height="1079" preserveAspectRatio="xMidYMid meet"/></g></mask></g></g><g clip-rule="nonzero" clip-path="url(#67158b8738)"><g clip-rule="nonzero" clip-path="url(#81992139d5)"><g transform="matrix(0.537999,-0.241174,0.240988,0.537583,19.178991,307.52133)"><image width="1438" xlink:href="PLACE_SCREENSHOT_HERE" height="560" preserveAspectRatio="xMidYMid meet"/></g></g></g><g clip-rule="nonzero" clip-path="url(#7583ca9f9b)"><g clip-rule="nonzero" clip-path="url(#ee3ff901ae)"><path style=" stroke:none;fill-rule:nonzero;fill:#f2f3f7;fill-opacity:1;" d="M 59.59375 396.4375 L 253.75 396.4375 L 253.75 449.941406 L 59.59375 449.941406 Z M 59.59375 396.4375 "/></g></g><g clip-rule="nonzero" clip-path="url(#e24a158820)"><g clip-rule="nonzero" clip-path="url(#0820df7bb9)"><g clip-rule="nonzero" clip-path="url(#f51fcedf15)"><path style=" stroke:none;fill-rule:nonzero;fill:#f2f3f7;fill-opacity:1;" d="M 85.878906 -48.511719 C 102.503906 -42.285156 105.679688 -40.503906 121.96875 -37.628906 C 149.699219 -32.753906 173.566406 -34.621094 180.882812 -20.496094 C 184.28125 -13.867188 185.515625 -11.433594 186.546875 -5.4375 C 186.769531 -4.355469 186.847656 -3.265625 186.777344 -2.164062 C 186.703125 -1.066406 186.488281 0.0078125 186.125 1.046875 C 185.761719 2.089844 185.265625 3.0625 184.636719 3.96875 C 184.007812 4.878906 183.269531 5.683594 182.421875 6.386719 C 155.765625 30.96875 129.839844 38.472656 127.566406 62.570312 C 125.699219 82.394531 130.882812 99.671875 121.957031 112.835938 C 118.300781 118.242188 113.804688 120.40625 107.367188 123.519531 C 100.929688 126.632812 90.066406 127.230469 82.796875 128.023438 C 60.242188 130.425781 50.921875 142.234375 23.894531 153.964844 C 20.648438 155.332031 17.261719 155.957031 13.742188 155.839844 C 1.472656 155.628906 -6.65625 149.832031 -15.875 143.195312 C -20.046875 140.113281 -23.667969 136.488281 -26.738281 132.308594 C -37.710938 117.632812 -37.9375 120.953125 -45.242188 107.929688 C -46.53125 105.425781 -47.230469 102.769531 -47.339844 99.957031 C -47.808594 94.246094 -50.601562 86.1875 -51.855469 74.910156 C -52.125 69.730469 -51.152344 64.792969 -48.9375 60.101562 C -45.144531 52.367188 -42.527344 37.109375 -36.480469 22.425781 C -34.59375 18.113281 -31.058594 10.824219 -28.863281 6.644531 C -23.5625 -3.441406 -18.207031 -12.339844 -9.148438 -21.039062 C 7.714844 -37.304688 3.351562 -33.476562 15.726562 -42.589844 C 24.109375 -48.769531 40.425781 -56.867188 51.15625 -57.308594 C 64.785156 -57.789062 68.253906 -55.796875 85.980469 -48.746094 Z M 86.535156 -46.375 L 86.675781 -46.699219 C 82.375 -48.410156 78.046875 -50.070312 73.871094 -51.832031 C 67.894531 -54.441406 61.640625 -55.746094 55.117188 -55.746094 C 52.097656 -55.792969 49.113281 -55.515625 46.152344 -54.917969 C 38.402344 -53.058594 31.125 -50.042969 24.328125 -45.878906 C 16.921875 -41.585938 9.992188 -36.628906 3.539062 -31.007812 C -15.179688 -13.894531 -21.035156 -5.582031 -30.019531 12.480469 C -42.164062 37.070312 -42.371094 50.507812 -47.160156 60.257812 C -49.371094 64.804688 -50.363281 69.601562 -50.128906 74.652344 C -49.925781 77.28125 -48.410156 86.585938 -48.046875 88.015625 C -43.679688 103.472656 -47.933594 100.964844 -41.242188 111.464844 C -36.492188 118.832031 -36.4375 117.480469 -27.691406 128.492188 C -24.894531 132.351562 -21.730469 135.886719 -18.210938 139.097656 C -8.734375 146.921875 1.921875 154.0625 14.199219 154.0625 C 17.195312 154.136719 20.082031 153.601562 22.855469 152.457031 C 51.433594 139.984375 59.464844 128.710938 83.289062 126.261719 C 86.105469 125.96875 88.949219 125.902344 91.742188 125.515625 C 97.628906 125.027344 103.273438 123.59375 108.679688 121.210938 C 117.46875 116.804688 123.035156 111.996094 124.886719 100.355469 C 127.644531 83.351562 121.863281 65.082031 129.222656 50.824219 C 137.246094 35.308594 154.296875 27.9375 170.878906 14.234375 C 174.625 11.125 178.269531 7.859375 181.914062 4.597656 C 188.730469 -1.492188 182.855469 -14.34375 177.828125 -21.917969 C 169.382812 -34.886719 131.773438 -30.90625 103.007812 -40.34375 C 97.457031 -42.148438 92.035156 -44.351562 86.535156 -46.375 Z M 86.535156 -46.375 "/></g></g></g><g clip-rule="nonzero" clip-path="url(#345da7fecd)"><g clip-rule="nonzero" clip-path="url(#3d2656db54)"><g clip-rule="nonzero" clip-path="url(#2dde912fec)"><path style=" stroke:none;fill-rule:nonzero;fill:#f2f3f7;fill-opacity:1;" d="M 557.734375 544.449219 C 559.710938 543.132812 572.441406 535.820312 579.628906 531.171875 C 592.4375 522.898438 601.964844 507.894531 615.675781 499.457031 C 624.304688 494.148438 630.421875 493.605469 641.421875 492.4375 C 643.4375 492.222656 645.476562 492.234375 647.476562 492.03125 C 686.957031 488.433594 699.882812 480.019531 725.035156 497.367188 C 740.667969 508.136719 760.320312 535.238281 758.394531 557.4375 C 757.128906 572.238281 748.207031 586.300781 738.855469 597.90625 C 728.164062 611.132812 724.867188 615.519531 719.253906 625.640625 C 698.96875 662.195312 696.144531 652.328125 667.699219 665.160156 C 655.953125 670.46875 654.242188 673.144531 645.550781 679.707031 C 637.734375 685.546875 633.742188 687.992188 632.425781 688.90625 C 628.410156 691.472656 624.054688 693.125 619.347656 693.871094 C 613.457031 695 577.789062 683.230469 557.074219 666.113281 C 539.5625 651.667969 525.5 621.386719 526.09375 599.300781 C 526.5625 581.652344 533.695312 566.355469 543.363281 557.09375 C 547.722656 552.386719 552.511719 548.171875 557.734375 544.449219 Z M 539.945312 563.632812 C 532.339844 573.769531 528.046875 585.1875 527.804688 600.503906 C 527.601562 613.859375 532.554688 625.527344 536.039062 634.082031 C 539.648438 642.25 544.34375 649.734375 550.128906 656.53125 C 552.867188 659.394531 555.476562 662.4375 558.492188 665.023438 C 568.464844 673.574219 595.199219 688.121094 615.609375 691.730469 C 617.691406 692.132812 619.75 692.054688 621.792969 691.503906 C 630.105469 689.246094 631.523438 687.09375 636.339844 684.128906 C 644.726562 678.960938 652.191406 671.167969 660.109375 667 C 693.839844 649.234375 695.777344 663.589844 716.707031 626.542969 C 730.519531 602.136719 732.570312 605.609375 747.09375 583.210938 C 753.617188 573.1875 758.128906 560.617188 756.355469 548.605469 C 753.464844 528.839844 736.207031 506.035156 720.699219 496.554688 C 702.390625 485.394531 690.113281 487.863281 667.34375 491.347656 C 635.136719 496.367188 625.40625 491.550781 607.71875 507.667969 C 602.28125 512.621094 591.246094 524.140625 587.382812 527.472656 C 579.195312 534.492188 568.035156 540.054688 560.558594 544.613281 C 552.824219 550.019531 545.953125 556.359375 539.945312 563.632812 Z M 539.945312 563.632812 "/></g></g></g></g></svg>