<svg xmlns="http://www.w3.org/2000/svg" xmlns:xlink="http://www.w3.org/1999/xlink" width="1080" zoomAndPan="magnify" viewBox="0 0 810 809.999993" height="1080" preserveAspectRatio="xMidYMid meet" version="1.2"><defs><clipPath id="5aadb90b5f"><path d="M 81 0 L 199.5 0 L 199.5 159.25 L 81 159.25 Z M 81 0 "/></clipPath><clipPath id="0193023d36"><path d="M 164.578125 58.421875 L 754.117188 58.421875 L 754.117188 673.117188 L 164.578125 673.117188 Z M 164.578125 58.421875 "/></clipPath><clipPath id="db94dce94c"><path d="M 189.835938 82 L 729.085938 82 L 729.085938 650 L 189.835938 650 Z M 189.835938 82 "/></clipPath><clipPath id="aa0dbbb815"><path d="M 299.324219 693.542969 L 810 693.542969 L 810 790.175781 L 299.324219 790.175781 Z M 299.324219 693.542969 "/></clipPath><filter x="0%" y="0%" width="100%" filterUnits="objectBoundingBox" id="2eb3a7f2b5" height="100%"><feColorMatrix values="0 0 0 0 1 0 0 0 0 1 0 0 0 0 1 0 0 0 1 0" type="matrix" in="SourceGraphic"/></filter><clipPath id="11cb04e368"><path d="M 0 1 L 642.960938 1 L 642.960938 613 L 0 613 Z M 0 1 "/></clipPath><clipPath id="cce2a65402"><path d="M 244.132812 1093.367188 L -436.558594 383.660156 L -37.90625 1.304688 L 642.785156 711.015625 Z M 244.132812 1093.367188 "/></clipPath><clipPath id="71f9b10ad3"><rect x="0" width="643" y="0" height="613"/></clipPath><clipPath id="c7e220da71"><path d="M 0 263 L 577 263 L 577 810 L 0 810 Z M 0 263 "/></clipPath><clipPath id="de53ff332e"><path d="M 173.089844 1299.976562 L -450.585938 649.71875 L -46.949219 262.585938 L 576.722656 912.84375 Z M 173.089844 1299.976562 "/></clipPath><clipPath id="7770596177"><path d="M 535.03125 42.589844 L 778.078125 42.589844 L 778.078125 108.359375 L 535.03125 108.359375 Z M 535.03125 42.589844 "/></clipPath><clipPath id="8482706e1d"><path d="M 567.914062 42.589844 L 745.144531 42.589844 C 753.867188 42.589844 762.230469 46.054688 768.398438 52.222656 C 774.566406 58.386719 778.03125 66.753906 778.03125 75.472656 C 778.03125 84.195312 774.566406 92.5625 768.398438 98.726562 C 762.230469 104.894531 753.867188 108.359375 745.144531 108.359375 L 567.914062 108.359375 C 559.195312 108.359375 550.828125 104.894531 544.660156 98.726562 C 538.496094 92.5625 535.03125 84.195312 535.03125 75.472656 C 535.03125 66.753906 538.496094 58.386719 544.660156 52.222656 C 550.828125 46.054688 559.195312 42.589844 567.914062 42.589844 Z M 567.914062 42.589844 "/></clipPath><clipPath id="00f0451f25"><path d="M 38.285156 712.179688 L 54.785156 712.179688 L 54.785156 735.429688 L 38.285156 735.429688 Z M 38.285156 712.179688 "/></clipPath><clipPath id="86680b2a8b"><path d="M 36.167969 746.019531 L 57.167969 746.019531 L 57.167969 767.019531 L 36.167969 767.019531 Z M 36.167969 746.019531 "/></clipPath></defs><g id="7da9f5738e"><rect x="0" width="810" y="0" height="809.999993" style="fill:#ffffff;fill-opacity:1;stroke:none;"/><rect x="0" width="810" y="0" height="809.999993" style="fill:COLOR_LIGHT_CONTRAST;fill-opacity:1;stroke:none;"/><g clip-rule="nonzero" clip-path="url(#5aadb90b5f)"><path style=" stroke:none;fill-rule:nonzero;fill:COLOR_DARK_CONTRAST;fill-opacity:1;" d="M 83.394531 154.558594 C 83.6875 154.558594 83.972656 154.617188 84.242188 154.730469 C 84.515625 154.84375 84.757812 155.003906 84.964844 155.210938 C 85.171875 155.421875 85.332031 155.660156 85.445312 155.933594 C 85.558594 156.207031 85.617188 156.488281 85.613281 156.785156 C 85.613281 157.078125 85.558594 157.363281 85.445312 157.636719 C 85.332031 157.90625 85.171875 158.148438 84.960938 158.355469 C 84.753906 158.5625 84.511719 158.722656 84.238281 158.835938 C 83.96875 158.949219 83.683594 159.003906 83.390625 159.003906 C 83.09375 159.003906 82.8125 158.949219 82.539062 158.835938 C 82.265625 158.71875 82.027344 158.558594 81.816406 158.351562 C 81.609375 158.140625 81.449219 157.902344 81.335938 157.628906 C 81.226562 157.355469 81.167969 157.070312 81.171875 156.777344 C 81.171875 156.484375 81.226562 156.199219 81.339844 155.929688 C 81.453125 155.65625 81.613281 155.417969 81.824219 155.210938 C 82.03125 155 82.273438 154.839844 82.542969 154.730469 C 82.816406 154.617188 83.097656 154.558594 83.394531 154.558594 Z M 81.171875 133.269531 C 81.167969 133.566406 81.226562 133.847656 81.335938 134.121094 C 81.449219 134.394531 81.609375 134.636719 81.816406 134.84375 C 82.027344 135.054688 82.265625 135.214844 82.539062 135.328125 C 82.8125 135.441406 83.09375 135.496094 83.390625 135.496094 C 83.683594 135.5 83.96875 135.441406 84.238281 135.332031 C 84.511719 135.21875 84.753906 135.058594 84.960938 134.847656 C 85.171875 134.640625 85.332031 134.402344 85.445312 134.128906 C 85.558594 133.855469 85.613281 133.574219 85.613281 133.277344 C 85.617188 132.984375 85.558594 132.699219 85.445312 132.425781 C 85.332031 132.152344 85.171875 131.914062 84.964844 131.707031 C 84.757812 131.496094 84.515625 131.335938 84.242188 131.222656 C 83.972656 131.109375 83.6875 131.054688 83.394531 131.054688 C 83.097656 131.054688 82.816406 131.109375 82.542969 131.222656 C 82.273438 131.335938 82.03125 131.496094 81.824219 131.703125 C 81.613281 131.910156 81.453125 132.148438 81.339844 132.421875 C 81.226562 132.691406 81.171875 132.976562 81.171875 133.269531 Z M 81.171875 109.769531 C 81.171875 110.0625 81.226562 110.347656 81.339844 110.621094 C 81.453125 110.890625 81.613281 111.132812 81.820312 111.339844 C 82.03125 111.546875 82.269531 111.710938 82.542969 111.820312 C 82.816406 111.933594 83.097656 111.992188 83.394531 111.992188 C 83.6875 111.992188 83.972656 111.933594 84.242188 111.820312 C 84.515625 111.710938 84.753906 111.546875 84.964844 111.339844 C 85.171875 111.132812 85.332031 110.890625 85.445312 110.621094 C 85.558594 110.347656 85.613281 110.0625 85.613281 109.769531 C 85.613281 109.472656 85.558594 109.191406 85.445312 108.917969 C 85.332031 108.644531 85.171875 108.40625 84.964844 108.199219 C 84.753906 107.988281 84.515625 107.828125 84.242188 107.714844 C 83.972656 107.601562 83.6875 107.546875 83.394531 107.546875 C 83.097656 107.546875 82.816406 107.601562 82.542969 107.714844 C 82.269531 107.828125 82.03125 107.988281 81.820312 108.199219 C 81.613281 108.40625 81.453125 108.644531 81.339844 108.917969 C 81.226562 109.191406 81.171875 109.472656 81.171875 109.769531 Z M 81.171875 86.25 C 81.171875 86.546875 81.226562 86.828125 81.339844 87.101562 C 81.453125 87.375 81.613281 87.613281 81.820312 87.824219 C 82.03125 88.03125 82.269531 88.191406 82.542969 88.304688 C 82.816406 88.417969 83.097656 88.472656 83.394531 88.472656 C 83.6875 88.472656 83.972656 88.417969 84.242188 88.304688 C 84.515625 88.191406 84.753906 88.03125 84.964844 87.824219 C 85.171875 87.613281 85.332031 87.375 85.445312 87.101562 C 85.558594 86.828125 85.613281 86.546875 85.613281 86.25 C 85.613281 85.957031 85.558594 85.671875 85.445312 85.402344 C 85.332031 85.128906 85.171875 84.886719 84.964844 84.679688 C 84.753906 84.472656 84.515625 84.3125 84.242188 84.199219 C 83.972656 84.085938 83.6875 84.027344 83.394531 84.027344 C 83.097656 84.027344 82.816406 84.085938 82.542969 84.199219 C 82.269531 84.3125 82.03125 84.472656 81.820312 84.679688 C 81.613281 84.886719 81.453125 85.128906 81.339844 85.402344 C 81.226562 85.671875 81.171875 85.957031 81.171875 86.25 Z M 81.171875 62.746094 C 81.171875 63.039062 81.226562 63.324219 81.339844 63.59375 C 81.453125 63.867188 81.613281 64.105469 81.820312 64.316406 C 82.03125 64.523438 82.269531 64.683594 82.542969 64.796875 C 82.816406 64.910156 83.097656 64.964844 83.394531 64.964844 C 83.6875 64.964844 83.972656 64.910156 84.242188 64.796875 C 84.515625 64.683594 84.753906 64.523438 84.964844 64.316406 C 85.171875 64.105469 85.332031 63.867188 85.445312 63.59375 C 85.558594 63.324219 85.613281 63.039062 85.613281 62.746094 C 85.613281 62.449219 85.558594 62.164062 85.445312 61.894531 C 85.332031 61.621094 85.171875 61.382812 84.964844 61.171875 C 84.753906 60.964844 84.515625 60.804688 84.242188 60.691406 C 83.972656 60.578125 83.6875 60.523438 83.394531 60.523438 C 83.097656 60.523438 82.8125 60.578125 82.539062 60.691406 C 82.265625 60.804688 82.027344 60.96875 81.816406 61.175781 C 81.609375 61.386719 81.449219 61.628906 81.335938 61.902344 C 81.222656 62.175781 81.167969 62.460938 81.171875 62.753906 Z M 81.171875 39.25 C 81.167969 39.542969 81.226562 39.828125 81.335938 40.101562 C 81.449219 40.371094 81.609375 40.613281 81.816406 40.824219 C 82.027344 41.03125 82.265625 41.191406 82.539062 41.304688 C 82.8125 41.417969 83.09375 41.476562 83.390625 41.476562 C 83.683594 41.476562 83.96875 41.421875 84.238281 41.308594 C 84.511719 41.195312 84.753906 41.035156 84.960938 40.828125 C 85.171875 40.621094 85.332031 40.378906 85.445312 40.105469 C 85.558594 39.835938 85.613281 39.550781 85.613281 39.257812 C 85.617188 38.960938 85.558594 38.679688 85.445312 38.40625 C 85.332031 38.132812 85.171875 37.890625 84.964844 37.683594 C 84.757812 37.476562 84.515625 37.316406 84.242188 37.203125 C 83.972656 37.089844 83.6875 37.03125 83.394531 37.03125 C 83.097656 37.03125 82.816406 37.089844 82.542969 37.199219 C 82.273438 37.3125 82.03125 37.472656 81.824219 37.679688 C 81.613281 37.890625 81.453125 38.128906 81.339844 38.398438 C 81.226562 38.671875 81.171875 38.953125 81.171875 39.25 Z M 81.171875 15.742188 C 81.171875 16.035156 81.230469 16.320312 81.347656 16.589844 C 81.460938 16.859375 81.621094 17.101562 81.832031 17.304688 C 82.039062 17.511719 82.28125 17.671875 82.554688 17.78125 C 82.828125 17.894531 83.109375 17.949219 83.402344 17.945312 C 83.699219 17.945312 83.980469 17.886719 84.253906 17.773438 C 84.523438 17.660156 84.761719 17.5 84.96875 17.289062 C 85.175781 17.082031 85.335938 16.839844 85.449219 16.570312 C 85.558594 16.296875 85.617188 16.011719 85.613281 15.71875 C 85.613281 15.425781 85.558594 15.140625 85.445312 14.871094 C 85.332031 14.597656 85.171875 14.359375 84.960938 14.152344 C 84.753906 13.945312 84.515625 13.785156 84.242188 13.671875 C 83.96875 13.558594 83.6875 13.503906 83.394531 13.503906 C 83.097656 13.503906 82.8125 13.558594 82.539062 13.671875 C 82.265625 13.789062 82.023438 13.949219 81.816406 14.160156 C 81.605469 14.371094 81.445312 14.613281 81.335938 14.886719 C 81.222656 15.160156 81.167969 15.445312 81.171875 15.742188 Z M 81.171875 -7.757812 C 81.171875 -7.464844 81.226562 -7.179688 81.339844 -6.910156 C 81.453125 -6.636719 81.613281 -6.394531 81.820312 -6.1875 C 82.03125 -5.980469 82.269531 -5.820312 82.542969 -5.707031 C 82.816406 -5.59375 83.097656 -5.535156 83.394531 -5.535156 C 83.6875 -5.535156 83.972656 -5.59375 84.242188 -5.707031 C 84.515625 -5.820312 84.753906 -5.980469 84.964844 -6.1875 C 85.171875 -6.394531 85.332031 -6.636719 85.445312 -6.910156 C 85.558594 -7.179688 85.613281 -7.464844 85.613281 -7.757812 C 85.613281 -8.054688 85.558594 -8.335938 85.445312 -8.609375 C 85.332031 -8.882812 85.171875 -9.121094 84.964844 -9.332031 C 84.753906 -9.539062 84.515625 -9.699219 84.242188 -9.8125 C 83.972656 -9.925781 83.6875 -9.980469 83.394531 -9.980469 C 83.097656 -9.980469 82.816406 -9.925781 82.542969 -9.8125 C 82.269531 -9.699219 82.03125 -9.539062 81.820312 -9.332031 C 81.613281 -9.121094 81.453125 -8.882812 81.339844 -8.609375 C 81.226562 -8.335938 81.171875 -8.054688 81.171875 -7.757812 Z M 81.171875 -31.265625 C 81.171875 -30.972656 81.226562 -30.6875 81.339844 -30.414062 C 81.453125 -30.144531 81.613281 -29.902344 81.820312 -29.695312 C 82.03125 -29.484375 82.269531 -29.324219 82.542969 -29.210938 C 82.816406 -29.101562 83.097656 -29.042969 83.394531 -29.042969 C 83.6875 -29.042969 83.972656 -29.101562 84.242188 -29.210938 C 84.515625 -29.324219 84.753906 -29.484375 84.964844 -29.695312 C 85.171875 -29.902344 85.332031 -30.144531 85.445312 -30.414062 C 85.558594 -30.6875 85.613281 -30.972656 85.613281 -31.265625 C 85.613281 -31.558594 85.558594 -31.84375 85.445312 -32.117188 C 85.332031 -32.386719 85.171875 -32.628906 84.964844 -32.835938 C 84.753906 -33.046875 84.515625 -33.207031 84.242188 -33.320312 C 83.972656 -33.433594 83.6875 -33.488281 83.394531 -33.488281 C 83.097656 -33.488281 82.816406 -33.433594 82.542969 -33.320312 C 82.269531 -33.207031 82.03125 -33.046875 81.820312 -32.835938 C 81.613281 -32.628906 81.453125 -32.386719 81.339844 -32.117188 C 81.226562 -31.84375 81.171875 -31.558594 81.171875 -31.265625 Z M 85.609375 -54.773438 C 85.609375 -55.066406 85.554688 -55.351562 85.441406 -55.625 C 85.328125 -55.894531 85.167969 -56.136719 84.957031 -56.34375 C 84.75 -56.554688 84.507812 -56.714844 84.234375 -56.828125 C 83.964844 -56.9375 83.679688 -56.996094 83.386719 -56.996094 C 83.089844 -56.996094 82.808594 -56.9375 82.535156 -56.824219 C 82.261719 -56.710938 82.023438 -56.550781 81.8125 -56.34375 C 81.605469 -56.132812 81.445312 -55.890625 81.332031 -55.621094 C 81.21875 -55.347656 81.164062 -55.0625 81.164062 -54.769531 C 81.164062 -54.472656 81.222656 -54.191406 81.335938 -53.917969 C 81.449219 -53.644531 81.609375 -53.40625 81.820312 -53.199219 C 82.027344 -52.988281 82.269531 -52.828125 82.542969 -52.71875 C 82.8125 -52.605469 83.097656 -52.550781 83.394531 -52.550781 C 83.6875 -52.550781 83.96875 -52.609375 84.242188 -52.722656 C 84.511719 -52.835938 84.753906 -52.996094 84.960938 -53.203125 C 85.167969 -53.410156 85.328125 -53.652344 85.441406 -53.921875 C 85.554688 -54.195312 85.609375 -54.476562 85.609375 -54.773438 Z M 103.90625 156.777344 C 103.902344 157.070312 103.960938 157.355469 104.070312 157.628906 C 104.183594 157.902344 104.34375 158.140625 104.550781 158.351562 C 104.761719 158.558594 105 158.71875 105.273438 158.835938 C 105.542969 158.949219 105.828125 159.003906 106.121094 159.003906 C 106.417969 159.003906 106.703125 158.949219 106.972656 158.835938 C 107.246094 158.722656 107.488281 158.5625 107.695312 158.355469 C 107.90625 158.148438 108.066406 157.90625 108.179688 157.636719 C 108.292969 157.363281 108.347656 157.078125 108.347656 156.785156 C 108.347656 156.488281 108.292969 156.207031 108.179688 155.933594 C 108.066406 155.660156 107.90625 155.421875 107.699219 155.210938 C 107.492188 155.003906 107.25 154.84375 106.976562 154.730469 C 106.707031 154.617188 106.421875 154.558594 106.125 154.558594 C 105.832031 154.558594 105.550781 154.617188 105.277344 154.730469 C 105.003906 154.839844 104.765625 155 104.558594 155.210938 C 104.347656 155.417969 104.1875 155.65625 104.074219 155.929688 C 103.960938 156.199219 103.90625 156.484375 103.90625 156.777344 Z M 103.90625 133.269531 C 103.902344 133.566406 103.960938 133.847656 104.070312 134.121094 C 104.183594 134.394531 104.34375 134.636719 104.550781 134.84375 C 104.761719 135.054688 105 135.214844 105.273438 135.328125 C 105.542969 135.441406 105.828125 135.496094 106.121094 135.496094 C 106.417969 135.5 106.703125 135.441406 106.972656 135.332031 C 107.246094 135.21875 107.488281 135.058594 107.695312 134.847656 C 107.90625 134.640625 108.066406 134.402344 108.179688 134.128906 C 108.292969 133.855469 108.347656 133.574219 108.347656 133.277344 C 108.347656 132.984375 108.292969 132.699219 108.179688 132.425781 C 108.066406 132.152344 107.90625 131.914062 107.699219 131.707031 C 107.492188 131.496094 107.25 131.335938 106.976562 131.222656 C 106.707031 131.109375 106.421875 131.054688 106.125 131.054688 C 105.832031 131.054688 105.550781 131.109375 105.277344 131.222656 C 105.003906 131.335938 104.765625 131.496094 104.558594 131.703125 C 104.347656 131.910156 104.1875 132.148438 104.074219 132.421875 C 103.960938 132.691406 103.90625 132.976562 103.90625 133.269531 Z M 103.90625 109.769531 C 103.90625 110.0625 103.960938 110.347656 104.074219 110.621094 C 104.1875 110.890625 104.347656 111.132812 104.554688 111.339844 C 104.765625 111.546875 105.003906 111.710938 105.277344 111.820312 C 105.546875 111.933594 105.832031 111.992188 106.125 111.992188 C 106.421875 111.992188 106.703125 111.933594 106.976562 111.820312 C 107.25 111.710938 107.488281 111.546875 107.699219 111.339844 C 107.90625 111.132812 108.066406 110.890625 108.179688 110.621094 C 108.292969 110.347656 108.347656 110.0625 108.347656 109.769531 C 108.347656 109.472656 108.292969 109.191406 108.179688 108.917969 C 108.066406 108.644531 107.90625 108.40625 107.699219 108.199219 C 107.488281 107.988281 107.25 107.828125 106.976562 107.714844 C 106.703125 107.601562 106.421875 107.546875 106.125 107.546875 C 105.832031 107.546875 105.546875 107.601562 105.277344 107.714844 C 105.003906 107.828125 104.765625 107.988281 104.554688 108.199219 C 104.347656 108.40625 104.1875 108.644531 104.074219 108.917969 C 103.960938 109.191406 103.90625 109.472656 103.90625 109.769531 Z M 103.90625 86.25 C 103.90625 86.546875 103.960938 86.828125 104.074219 87.101562 C 104.1875 87.375 104.347656 87.613281 104.554688 87.824219 C 104.765625 88.03125 105.003906 88.191406 105.277344 88.304688 C 105.546875 88.417969 105.832031 88.472656 106.125 88.472656 C 106.421875 88.472656 106.703125 88.417969 106.976562 88.304688 C 107.25 88.191406 107.488281 88.03125 107.699219 87.824219 C 107.90625 87.613281 108.066406 87.375 108.179688 87.101562 C 108.292969 86.828125 108.347656 86.546875 108.347656 86.25 C 108.347656 85.957031 108.292969 85.671875 108.179688 85.402344 C 108.066406 85.128906 107.90625 84.886719 107.699219 84.679688 C 107.488281 84.472656 107.25 84.3125 106.976562 84.199219 C 106.703125 84.085938 106.421875 84.027344 106.125 84.027344 C 105.832031 84.027344 105.546875 84.085938 105.277344 84.199219 C 105.003906 84.3125 104.765625 84.472656 104.554688 84.679688 C 104.347656 84.886719 104.1875 85.128906 104.074219 85.402344 C 103.960938 85.671875 103.90625 85.957031 103.90625 86.25 Z M 103.90625 62.746094 C 103.90625 63.039062 103.960938 63.324219 104.074219 63.59375 C 104.1875 63.867188 104.347656 64.105469 104.554688 64.316406 C 104.765625 64.523438 105.003906 64.683594 105.277344 64.796875 C 105.546875 64.910156 105.832031 64.964844 106.125 64.964844 C 106.421875 64.964844 106.703125 64.910156 106.976562 64.796875 C 107.25 64.683594 107.488281 64.523438 107.699219 64.316406 C 107.90625 64.105469 108.066406 63.867188 108.179688 63.59375 C 108.292969 63.324219 108.347656 63.039062 108.347656 62.746094 C 108.347656 62.449219 108.292969 62.164062 108.179688 61.894531 C 108.066406 61.621094 107.90625 61.382812 107.699219 61.171875 C 107.488281 60.964844 107.25 60.804688 106.976562 60.691406 C 106.703125 60.578125 106.421875 60.523438 106.125 60.523438 C 105.832031 60.523438 105.546875 60.578125 105.273438 60.691406 C 105 60.804688 104.761719 60.96875 104.550781 61.175781 C 104.34375 61.386719 104.183594 61.628906 104.070312 61.902344 C 103.957031 62.175781 103.902344 62.460938 103.90625 62.753906 Z M 103.90625 39.238281 C 103.902344 39.53125 103.960938 39.816406 104.070312 40.089844 C 104.183594 40.363281 104.34375 40.601562 104.550781 40.8125 C 104.761719 41.019531 105 41.179688 105.273438 41.292969 C 105.542969 41.40625 105.828125 41.464844 106.121094 41.464844 C 106.417969 41.464844 106.703125 41.410156 106.972656 41.296875 C 107.246094 41.183594 107.488281 41.023438 107.695312 40.816406 C 107.90625 40.609375 108.066406 40.367188 108.179688 40.09375 C 108.292969 39.824219 108.347656 39.539062 108.347656 39.246094 C 108.347656 38.949219 108.292969 38.667969 108.179688 38.394531 C 108.066406 38.121094 107.90625 37.882812 107.699219 37.671875 C 107.492188 37.464844 107.25 37.304688 106.976562 37.191406 C 106.707031 37.078125 106.421875 37.019531 106.125 37.019531 C 105.832031 37.019531 105.546875 37.078125 105.273438 37.191406 C 105.003906 37.304688 104.761719 37.464844 104.554688 37.671875 C 104.34375 37.882812 104.183594 38.125 104.070312 38.398438 C 103.960938 38.667969 103.902344 38.953125 103.90625 39.25 Z M 103.90625 15.730469 C 103.902344 16.027344 103.960938 16.308594 104.070312 16.582031 C 104.183594 16.855469 104.34375 17.09375 104.550781 17.304688 C 104.761719 17.511719 105 17.675781 105.273438 17.789062 C 105.542969 17.902344 105.828125 17.957031 106.121094 17.957031 C 106.417969 17.960938 106.703125 17.902344 106.972656 17.789062 C 107.246094 17.679688 107.488281 17.519531 107.695312 17.308594 C 107.90625 17.101562 108.066406 16.859375 108.179688 16.589844 C 108.292969 16.316406 108.347656 16.03125 108.347656 15.738281 C 108.347656 15.445312 108.292969 15.160156 108.179688 14.886719 C 108.066406 14.613281 107.90625 14.375 107.699219 14.164062 C 107.492188 13.957031 107.25 13.796875 106.976562 13.683594 C 106.707031 13.570312 106.421875 13.515625 106.125 13.515625 C 105.832031 13.515625 105.546875 13.570312 105.273438 13.683594 C 105.003906 13.796875 104.761719 13.957031 104.554688 14.167969 C 104.34375 14.375 104.183594 14.617188 104.070312 14.890625 C 103.960938 15.164062 103.902344 15.445312 103.90625 15.742188 Z M 103.90625 -7.769531 C 103.90625 -7.476562 103.960938 -7.191406 104.074219 -6.921875 C 104.1875 -6.648438 104.347656 -6.40625 104.554688 -6.199219 C 104.765625 -5.992188 105.003906 -5.832031 105.277344 -5.71875 C 105.546875 -5.605469 105.832031 -5.546875 106.125 -5.546875 C 106.421875 -5.546875 106.703125 -5.605469 106.976562 -5.71875 C 107.25 -5.832031 107.488281 -5.992188 107.699219 -6.199219 C 107.90625 -6.40625 108.066406 -6.648438 108.179688 -6.921875 C 108.292969 -7.191406 108.347656 -7.476562 108.347656 -7.769531 C 108.347656 -8.066406 108.292969 -8.347656 108.179688 -8.621094 C 108.066406 -8.894531 107.90625 -9.132812 107.699219 -9.339844 C 107.488281 -9.550781 107.25 -9.710938 106.976562 -9.824219 C 106.703125 -9.9375 106.421875 -9.992188 106.125 -9.992188 C 105.832031 -9.992188 105.546875 -9.9375 105.273438 -9.824219 C 105 -9.707031 104.761719 -9.546875 104.550781 -9.335938 C 104.34375 -9.128906 104.183594 -8.886719 104.070312 -8.613281 C 103.957031 -8.339844 103.902344 -8.054688 103.90625 -7.757812 Z M 103.90625 -31.277344 C 103.90625 -30.984375 103.960938 -30.699219 104.074219 -30.425781 C 104.1875 -30.15625 104.347656 -29.914062 104.554688 -29.707031 C 104.765625 -29.496094 105.003906 -29.335938 105.277344 -29.222656 C 105.546875 -29.113281 105.832031 -29.054688 106.125 -29.054688 C 106.421875 -29.054688 106.703125 -29.113281 106.976562 -29.222656 C 107.25 -29.335938 107.488281 -29.496094 107.699219 -29.707031 C 107.90625 -29.914062 108.066406 -30.15625 108.179688 -30.425781 C 108.292969 -30.699219 108.347656 -30.984375 108.347656 -31.277344 C 108.347656 -31.570312 108.292969 -31.855469 108.179688 -32.128906 C 108.066406 -32.398438 107.90625 -32.640625 107.699219 -32.847656 C 107.488281 -33.058594 107.25 -33.21875 106.976562 -33.332031 C 106.703125 -33.441406 106.421875 -33.5 106.125 -33.5 C 105.832031 -33.5 105.546875 -33.441406 105.273438 -33.328125 C 105 -33.214844 104.761719 -33.054688 104.550781 -32.84375 C 104.34375 -32.636719 104.183594 -32.394531 104.070312 -32.121094 C 103.957031 -31.847656 103.902344 -31.5625 103.90625 -31.265625 Z M 103.90625 -54.785156 C 103.898438 -54.488281 103.953125 -54.203125 104.0625 -53.929688 C 104.171875 -53.65625 104.328125 -53.410156 104.535156 -53.199219 C 104.738281 -52.988281 104.976562 -52.824219 105.25 -52.707031 C 105.519531 -52.589844 105.804688 -52.53125 106.101562 -52.527344 C 106.394531 -52.523438 106.679688 -52.578125 106.953125 -52.6875 C 107.226562 -52.796875 107.46875 -52.957031 107.679688 -53.164062 C 107.890625 -53.371094 108.054688 -53.609375 108.171875 -53.878906 C 108.285156 -54.152344 108.347656 -54.433594 108.347656 -54.730469 C 108.351562 -55.027344 108.296875 -55.3125 108.1875 -55.585938 C 108.074219 -55.859375 107.914062 -56.101562 107.707031 -56.308594 C 107.5 -56.519531 107.261719 -56.683594 106.988281 -56.796875 C 106.71875 -56.914062 106.433594 -56.96875 106.136719 -56.972656 C 105.84375 -56.972656 105.5625 -56.917969 105.289062 -56.808594 C 105.015625 -56.699219 104.777344 -56.539062 104.566406 -56.332031 C 104.359375 -56.128906 104.195312 -55.890625 104.082031 -55.617188 C 103.964844 -55.347656 103.90625 -55.066406 103.90625 -54.773438 Z M 126.667969 156.777344 C 126.664062 157.070312 126.722656 157.355469 126.832031 157.625 C 126.945312 157.898438 127.105469 158.140625 127.3125 158.347656 C 127.519531 158.558594 127.757812 158.71875 128.03125 158.832031 C 128.300781 158.945312 128.582031 159.003906 128.878906 159.003906 C 129.171875 159.007812 129.457031 158.953125 129.726562 158.839844 C 130 158.730469 130.242188 158.570312 130.449219 158.363281 C 130.660156 158.15625 130.820312 157.917969 130.9375 157.648438 C 131.050781 157.375 131.109375 157.09375 131.109375 156.800781 C 131.113281 156.503906 131.058594 156.222656 130.949219 155.949219 C 130.839844 155.675781 130.679688 155.433594 130.472656 155.226562 C 130.269531 155.015625 130.03125 154.851562 129.757812 154.738281 C 129.488281 154.621094 129.207031 154.5625 128.910156 154.558594 C 128.617188 154.558594 128.332031 154.613281 128.054688 154.722656 C 127.78125 154.832031 127.539062 154.992188 127.328125 155.199219 C 127.117188 155.410156 126.953125 155.648438 126.839844 155.921875 C 126.726562 156.195312 126.667969 156.480469 126.667969 156.777344 Z M 126.667969 133.269531 C 126.664062 133.566406 126.722656 133.847656 126.835938 134.121094 C 126.945312 134.394531 127.105469 134.636719 127.316406 134.84375 C 127.523438 135.054688 127.761719 135.214844 128.035156 135.328125 C 128.308594 135.441406 128.59375 135.496094 128.886719 135.496094 C 129.183594 135.5 129.464844 135.441406 129.738281 135.328125 C 130.011719 135.214844 130.25 135.054688 130.460938 134.847656 C 130.667969 134.636719 130.828125 134.398438 130.941406 134.125 C 131.054688 133.851562 131.113281 133.570312 131.109375 133.273438 C 131.109375 132.980469 131.054688 132.695312 130.941406 132.421875 C 130.828125 132.148438 130.667969 131.910156 130.457031 131.703125 C 130.25 131.492188 130.007812 131.332031 129.734375 131.222656 C 129.460938 131.109375 129.179688 131.054688 128.882812 131.054688 C 128.589844 131.054688 128.308594 131.109375 128.035156 131.222656 C 127.765625 131.335938 127.523438 131.496094 127.316406 131.703125 C 127.109375 131.914062 126.949219 132.152344 126.835938 132.421875 C 126.722656 132.695312 126.667969 132.976562 126.667969 133.269531 Z M 126.667969 109.769531 C 126.667969 110.0625 126.722656 110.347656 126.835938 110.617188 C 126.949219 110.890625 127.105469 111.128906 127.316406 111.335938 C 127.523438 111.546875 127.761719 111.707031 128.035156 111.820312 C 128.304688 111.933594 128.585938 111.988281 128.882812 111.992188 C 129.175781 111.992188 129.457031 111.9375 129.730469 111.824219 C 130.003906 111.714844 130.242188 111.554688 130.453125 111.347656 C 130.660156 111.140625 130.824219 110.902344 130.9375 110.632812 C 131.050781 110.359375 131.109375 110.078125 131.109375 109.785156 C 131.113281 109.488281 131.058594 109.207031 130.949219 108.933594 C 130.839844 108.660156 130.679688 108.421875 130.472656 108.210938 C 130.265625 108 130.027344 107.839844 129.757812 107.722656 C 129.488281 107.609375 129.207031 107.550781 128.910156 107.546875 C 128.613281 107.542969 128.328125 107.597656 128.054688 107.710938 C 127.777344 107.820312 127.535156 107.980469 127.324219 108.191406 C 127.113281 108.398438 126.953125 108.640625 126.839844 108.914062 C 126.722656 109.1875 126.667969 109.472656 126.667969 109.769531 Z M 126.667969 86.261719 C 126.667969 86.558594 126.722656 86.839844 126.835938 87.113281 C 126.949219 87.386719 127.109375 87.625 127.316406 87.835938 C 127.527344 88.042969 127.765625 88.203125 128.039062 88.316406 C 128.3125 88.429688 128.597656 88.484375 128.890625 88.484375 C 129.1875 88.484375 129.46875 88.425781 129.742188 88.3125 C 130.015625 88.203125 130.253906 88.039062 130.460938 87.832031 C 130.671875 87.621094 130.832031 87.382812 130.941406 87.109375 C 131.054688 86.835938 131.113281 86.554688 131.109375 86.257812 C 131.109375 85.964844 131.054688 85.679688 130.941406 85.40625 C 130.828125 85.136719 130.664062 84.894531 130.457031 84.6875 C 130.246094 84.480469 130.007812 84.320312 129.734375 84.207031 C 129.460938 84.09375 129.179688 84.039062 128.882812 84.039062 C 128.589844 84.039062 128.308594 84.097656 128.039062 84.210938 C 127.765625 84.320312 127.527344 84.480469 127.320312 84.6875 C 127.113281 84.894531 126.953125 85.136719 126.839844 85.40625 C 126.726562 85.675781 126.667969 85.957031 126.667969 86.25 Z M 126.667969 62.753906 C 126.667969 63.050781 126.722656 63.335938 126.835938 63.605469 C 126.949219 63.878906 127.109375 64.121094 127.316406 64.328125 C 127.527344 64.535156 127.765625 64.695312 128.039062 64.808594 C 128.3125 64.921875 128.597656 64.976562 128.890625 64.976562 C 129.1875 64.976562 129.46875 64.921875 129.742188 64.808594 C 130.015625 64.695312 130.253906 64.535156 130.460938 64.324219 C 130.671875 64.117188 130.832031 63.875 130.941406 63.601562 C 131.054688 63.332031 131.113281 63.046875 131.109375 62.75 C 131.109375 62.457031 131.054688 62.171875 130.941406 61.902344 C 130.828125 61.628906 130.664062 61.390625 130.457031 61.179688 C 130.246094 60.972656 130.007812 60.8125 129.734375 60.699219 C 129.460938 60.589844 129.179688 60.53125 128.882812 60.535156 C 128.589844 60.535156 128.304688 60.589844 128.035156 60.703125 C 127.761719 60.816406 127.523438 60.976562 127.316406 61.1875 C 127.109375 61.394531 126.949219 61.632812 126.835938 61.90625 C 126.722656 62.179688 126.667969 62.460938 126.667969 62.753906 Z M 126.667969 39.25 C 126.664062 39.542969 126.722656 39.828125 126.835938 40.101562 C 126.945312 40.375 127.105469 40.613281 127.316406 40.824219 C 127.523438 41.03125 127.761719 41.191406 128.035156 41.304688 C 128.308594 41.417969 128.59375 41.476562 128.886719 41.476562 C 129.183594 41.476562 129.464844 41.421875 129.738281 41.308594 C 130.011719 41.195312 130.25 41.035156 130.460938 40.824219 C 130.667969 40.617188 130.828125 40.375 130.941406 40.105469 C 131.054688 39.832031 131.113281 39.546875 131.109375 39.253906 C 131.109375 38.957031 131.054688 38.675781 130.941406 38.402344 C 130.828125 38.128906 130.667969 37.886719 130.457031 37.679688 C 130.25 37.472656 130.007812 37.3125 129.734375 37.199219 C 129.460938 37.085938 129.179688 37.03125 128.882812 37.03125 C 128.589844 37.03125 128.308594 37.089844 128.035156 37.203125 C 127.765625 37.316406 127.523438 37.476562 127.316406 37.683594 C 127.109375 37.890625 126.949219 38.128906 126.835938 38.402344 C 126.722656 38.671875 126.667969 38.953125 126.667969 39.25 Z M 126.667969 15.742188 C 126.667969 16.035156 126.726562 16.316406 126.839844 16.589844 C 126.957031 16.859375 127.117188 17.097656 127.324219 17.304688 C 127.535156 17.511719 127.773438 17.667969 128.046875 17.78125 C 128.316406 17.890625 128.597656 17.949219 128.894531 17.945312 C 129.1875 17.945312 129.46875 17.890625 129.738281 17.777344 C 130.011719 17.664062 130.25 17.503906 130.457031 17.296875 C 130.664062 17.089844 130.828125 16.851562 130.941406 16.582031 C 131.050781 16.308594 131.109375 16.027344 131.109375 15.734375 C 131.113281 15.441406 131.058594 15.15625 130.945312 14.886719 C 130.835938 14.613281 130.675781 14.375 130.472656 14.164062 C 130.265625 13.957031 130.027344 13.792969 129.757812 13.679688 C 129.488281 13.566406 129.207031 13.503906 128.910156 13.503906 C 128.613281 13.5 128.328125 13.554688 128.050781 13.667969 C 127.773438 13.78125 127.53125 13.941406 127.320312 14.152344 C 127.109375 14.363281 126.945312 14.605469 126.832031 14.882812 C 126.71875 15.15625 126.664062 15.445312 126.667969 15.742188 Z M 126.667969 -7.757812 C 126.667969 -7.464844 126.722656 -7.179688 126.835938 -6.910156 C 126.949219 -6.636719 127.109375 -6.394531 127.316406 -6.1875 C 127.527344 -5.980469 127.765625 -5.816406 128.039062 -5.707031 C 128.3125 -5.59375 128.597656 -5.535156 128.890625 -5.535156 C 129.1875 -5.539062 129.46875 -5.59375 129.742188 -5.707031 C 130.015625 -5.820312 130.253906 -5.980469 130.460938 -6.191406 C 130.671875 -6.398438 130.832031 -6.640625 130.941406 -6.910156 C 131.054688 -7.183594 131.113281 -7.46875 131.109375 -7.761719 C 131.109375 -8.058594 131.054688 -8.339844 130.941406 -8.613281 C 130.828125 -8.886719 130.664062 -9.125 130.457031 -9.332031 C 130.246094 -9.542969 130.007812 -9.703125 129.734375 -9.8125 C 129.460938 -9.925781 129.179688 -9.980469 128.882812 -9.980469 C 128.589844 -9.980469 128.304688 -9.921875 128.035156 -9.808594 C 127.761719 -9.699219 127.523438 -9.535156 127.316406 -9.328125 C 127.109375 -9.121094 126.949219 -8.878906 126.835938 -8.609375 C 126.722656 -8.335938 126.667969 -8.054688 126.667969 -7.757812 Z M 126.667969 -31.265625 C 126.667969 -30.972656 126.722656 -30.6875 126.835938 -30.414062 C 126.949219 -30.144531 127.109375 -29.902344 127.316406 -29.695312 C 127.527344 -29.484375 127.765625 -29.324219 128.039062 -29.210938 C 128.3125 -29.097656 128.597656 -29.042969 128.890625 -29.042969 C 129.1875 -29.042969 129.46875 -29.101562 129.742188 -29.214844 C 130.015625 -29.328125 130.253906 -29.488281 130.460938 -29.695312 C 130.671875 -29.90625 130.832031 -30.144531 130.941406 -30.417969 C 131.054688 -30.691406 131.113281 -30.976562 131.109375 -31.269531 C 131.109375 -31.566406 131.054688 -31.847656 130.941406 -32.121094 C 130.828125 -32.390625 130.664062 -32.632812 130.457031 -32.839844 C 130.246094 -33.046875 130.007812 -33.207031 129.734375 -33.320312 C 129.460938 -33.433594 129.179688 -33.488281 128.882812 -33.488281 C 128.589844 -33.488281 128.304688 -33.429688 128.035156 -33.316406 C 127.761719 -33.203125 127.523438 -33.042969 127.316406 -32.835938 C 127.109375 -32.625 126.949219 -32.386719 126.835938 -32.113281 C 126.722656 -31.84375 126.667969 -31.558594 126.667969 -31.265625 Z M 126.667969 -54.773438 C 126.664062 -54.476562 126.71875 -54.195312 126.828125 -53.921875 C 126.9375 -53.648438 127.09375 -53.40625 127.300781 -53.195312 C 127.507812 -52.984375 127.746094 -52.820312 128.015625 -52.707031 C 128.289062 -52.589844 128.570312 -52.53125 128.867188 -52.527344 C 129.160156 -52.523438 129.445312 -52.578125 129.71875 -52.6875 C 129.992188 -52.796875 130.234375 -52.957031 130.445312 -53.164062 C 130.65625 -53.367188 130.816406 -53.609375 130.933594 -53.878906 C 131.046875 -54.148438 131.109375 -54.433594 131.109375 -54.726562 C 131.113281 -55.023438 131.058594 -55.304688 130.949219 -55.578125 C 130.839844 -55.851562 130.683594 -56.09375 130.476562 -56.304688 C 130.269531 -56.515625 130.03125 -56.679688 129.761719 -56.792969 C 129.488281 -56.910156 129.207031 -56.96875 128.910156 -56.972656 C 128.617188 -56.976562 128.332031 -56.921875 128.058594 -56.8125 C 127.785156 -56.703125 127.542969 -56.542969 127.332031 -56.335938 C 127.125 -56.132812 126.960938 -55.890625 126.84375 -55.621094 C 126.730469 -55.351562 126.667969 -55.066406 126.667969 -54.773438 Z M 149.402344 156.777344 C 149.398438 157.070312 149.457031 157.355469 149.566406 157.625 C 149.679688 157.898438 149.839844 158.140625 150.046875 158.347656 C 150.253906 158.558594 150.492188 158.71875 150.761719 158.832031 C 151.035156 158.945312 151.316406 159.003906 151.613281 159.003906 C 151.90625 159.007812 152.1875 158.953125 152.460938 158.839844 C 152.734375 158.730469 152.976562 158.570312 153.183594 158.363281 C 153.394531 158.15625 153.554688 157.917969 153.667969 157.648438 C 153.785156 157.375 153.84375 157.09375 153.84375 156.800781 C 153.847656 156.503906 153.792969 156.222656 153.683594 155.949219 C 153.574219 155.675781 153.414062 155.433594 153.207031 155.226562 C 153 155.015625 152.761719 154.851562 152.492188 154.738281 C 152.222656 154.621094 151.941406 154.5625 151.644531 154.558594 C 151.351562 154.558594 151.066406 154.613281 150.792969 154.726562 C 150.519531 154.835938 150.277344 154.996094 150.070312 155.207031 C 149.859375 155.414062 149.699219 155.652344 149.582031 155.925781 C 149.46875 156.199219 149.414062 156.480469 149.410156 156.777344 Z M 149.402344 133.269531 C 149.398438 133.566406 149.457031 133.847656 149.566406 134.121094 C 149.679688 134.394531 149.839844 134.636719 150.046875 134.84375 C 150.257812 135.054688 150.496094 135.214844 150.769531 135.328125 C 151.039062 135.441406 151.324219 135.496094 151.617188 135.496094 C 151.914062 135.5 152.199219 135.441406 152.46875 135.332031 C 152.742188 135.21875 152.984375 135.058594 153.191406 134.847656 C 153.402344 134.640625 153.5625 134.402344 153.675781 134.128906 C 153.789062 133.855469 153.84375 133.574219 153.84375 133.277344 C 153.84375 132.984375 153.789062 132.699219 153.675781 132.425781 C 153.5625 132.152344 153.402344 131.914062 153.195312 131.707031 C 152.984375 131.496094 152.746094 131.335938 152.472656 131.222656 C 152.203125 131.109375 151.917969 131.054688 151.621094 131.054688 C 151.328125 131.054688 151.046875 131.113281 150.777344 131.226562 C 150.507812 131.339844 150.269531 131.5 150.0625 131.707031 C 149.855469 131.914062 149.695312 132.152344 149.582031 132.425781 C 149.46875 132.695312 149.414062 132.976562 149.410156 133.269531 Z M 149.402344 109.769531 C 149.402344 110.0625 149.457031 110.347656 149.570312 110.617188 C 149.679688 110.890625 149.839844 111.128906 150.046875 111.335938 C 150.257812 111.546875 150.496094 111.707031 150.765625 111.820312 C 151.039062 111.933594 151.320312 111.988281 151.613281 111.992188 C 151.910156 111.992188 152.191406 111.9375 152.464844 111.824219 C 152.738281 111.714844 152.976562 111.554688 153.1875 111.347656 C 153.394531 111.140625 153.554688 110.902344 153.671875 110.632812 C 153.785156 110.359375 153.84375 110.078125 153.84375 109.785156 C 153.847656 109.488281 153.792969 109.207031 153.683594 108.933594 C 153.570312 108.660156 153.414062 108.421875 153.207031 108.210938 C 153 108 152.761719 107.839844 152.492188 107.722656 C 152.222656 107.609375 151.9375 107.550781 151.644531 107.546875 C 151.351562 107.546875 151.066406 107.601562 150.792969 107.710938 C 150.519531 107.824219 150.277344 107.984375 150.066406 108.195312 C 149.855469 108.402344 149.695312 108.644531 149.582031 108.914062 C 149.46875 109.1875 149.410156 109.472656 149.410156 109.769531 Z M 149.402344 86.261719 C 149.402344 86.558594 149.457031 86.839844 149.570312 87.113281 C 149.683594 87.386719 149.84375 87.625 150.050781 87.832031 C 150.257812 88.042969 150.5 88.203125 150.773438 88.316406 C 151.042969 88.429688 151.328125 88.484375 151.621094 88.484375 C 151.917969 88.484375 152.199219 88.429688 152.472656 88.316406 C 152.746094 88.203125 152.984375 88.042969 153.195312 87.832031 C 153.402344 87.625 153.5625 87.386719 153.675781 87.113281 C 153.789062 86.839844 153.84375 86.558594 153.84375 86.261719 C 153.84375 85.96875 153.789062 85.683594 153.675781 85.410156 C 153.5625 85.140625 153.402344 84.898438 153.195312 84.691406 C 152.984375 84.484375 152.746094 84.320312 152.472656 84.210938 C 152.199219 84.097656 151.917969 84.039062 151.621094 84.039062 C 151.328125 84.042969 151.046875 84.097656 150.777344 84.210938 C 150.507812 84.324219 150.269531 84.484375 150.0625 84.691406 C 149.855469 84.898438 149.695312 85.136719 149.582031 85.40625 C 149.46875 85.675781 149.414062 85.957031 149.410156 86.25 Z M 149.402344 62.753906 C 149.402344 63.050781 149.457031 63.332031 149.570312 63.605469 C 149.683594 63.878906 149.84375 64.117188 150.050781 64.328125 C 150.257812 64.535156 150.5 64.695312 150.773438 64.808594 C 151.042969 64.921875 151.328125 64.976562 151.621094 64.976562 C 151.917969 64.976562 152.199219 64.921875 152.472656 64.808594 C 152.746094 64.695312 152.984375 64.535156 153.195312 64.328125 C 153.402344 64.117188 153.5625 63.878906 153.675781 63.605469 C 153.789062 63.332031 153.84375 63.050781 153.84375 62.753906 C 153.84375 62.460938 153.789062 62.175781 153.675781 61.90625 C 153.5625 61.632812 153.402344 61.390625 153.195312 61.183594 C 152.984375 60.976562 152.746094 60.816406 152.472656 60.703125 C 152.199219 60.589844 151.917969 60.535156 151.621094 60.535156 C 151.328125 60.535156 151.046875 60.59375 150.777344 60.707031 C 150.503906 60.820312 150.265625 60.980469 150.058594 61.1875 C 149.851562 61.394531 149.691406 61.636719 149.578125 61.90625 C 149.46875 62.179688 149.410156 62.460938 149.410156 62.753906 Z M 149.402344 39.25 C 149.398438 39.542969 149.457031 39.828125 149.566406 40.101562 C 149.679688 40.371094 149.839844 40.613281 150.046875 40.824219 C 150.257812 41.03125 150.496094 41.191406 150.769531 41.304688 C 151.039062 41.417969 151.324219 41.476562 151.617188 41.476562 C 151.914062 41.476562 152.199219 41.421875 152.46875 41.308594 C 152.742188 41.195312 152.984375 41.035156 153.191406 40.828125 C 153.402344 40.621094 153.5625 40.378906 153.675781 40.105469 C 153.789062 39.835938 153.84375 39.550781 153.84375 39.257812 C 153.84375 38.960938 153.789062 38.679688 153.675781 38.40625 C 153.5625 38.132812 153.402344 37.890625 153.195312 37.683594 C 152.984375 37.476562 152.746094 37.316406 152.472656 37.203125 C 152.199219 37.089844 151.917969 37.03125 151.621094 37.03125 C 151.328125 37.035156 151.046875 37.089844 150.777344 37.203125 C 150.507812 37.316406 150.269531 37.476562 150.0625 37.683594 C 149.855469 37.894531 149.695312 38.132812 149.582031 38.402344 C 149.46875 38.671875 149.414062 38.957031 149.410156 39.25 Z M 149.402344 15.742188 C 149.402344 16.035156 149.460938 16.316406 149.574219 16.589844 C 149.6875 16.859375 149.851562 17.097656 150.058594 17.304688 C 150.265625 17.511719 150.507812 17.667969 150.777344 17.78125 C 151.050781 17.890625 151.332031 17.949219 151.625 17.945312 C 151.921875 17.945312 152.203125 17.890625 152.472656 17.777344 C 152.746094 17.664062 152.984375 17.503906 153.191406 17.296875 C 153.398438 17.089844 153.558594 16.851562 153.671875 16.582031 C 153.785156 16.308594 153.84375 16.027344 153.84375 15.734375 C 153.847656 15.441406 153.792969 15.15625 153.679688 14.886719 C 153.570312 14.613281 153.410156 14.375 153.207031 14.164062 C 153 13.957031 152.761719 13.792969 152.492188 13.679688 C 152.222656 13.566406 151.9375 13.503906 151.644531 13.503906 C 151.347656 13.5 151.0625 13.558594 150.789062 13.671875 C 150.511719 13.785156 150.269531 13.945312 150.0625 14.15625 C 149.851562 14.367188 149.691406 14.609375 149.578125 14.882812 C 149.464844 15.160156 149.410156 15.445312 149.410156 15.742188 Z M 149.402344 -7.757812 C 149.402344 -7.464844 149.457031 -7.179688 149.570312 -6.910156 C 149.683594 -6.636719 149.84375 -6.394531 150.050781 -6.1875 C 150.257812 -5.980469 150.5 -5.820312 150.773438 -5.707031 C 151.042969 -5.59375 151.328125 -5.535156 151.621094 -5.535156 C 151.917969 -5.535156 152.199219 -5.59375 152.472656 -5.707031 C 152.746094 -5.820312 152.984375 -5.980469 153.195312 -6.1875 C 153.402344 -6.394531 153.5625 -6.636719 153.675781 -6.910156 C 153.789062 -7.179688 153.84375 -7.464844 153.84375 -7.757812 C 153.84375 -8.054688 153.789062 -8.335938 153.675781 -8.609375 C 153.5625 -8.882812 153.402344 -9.121094 153.195312 -9.332031 C 152.984375 -9.539062 152.746094 -9.699219 152.472656 -9.8125 C 152.199219 -9.925781 151.917969 -9.980469 151.621094 -9.980469 C 151.328125 -9.980469 151.046875 -9.921875 150.777344 -9.808594 C 150.503906 -9.695312 150.265625 -9.535156 150.058594 -9.328125 C 149.851562 -9.117188 149.691406 -8.878906 149.578125 -8.605469 C 149.46875 -8.335938 149.410156 -8.054688 149.410156 -7.757812 Z M 149.402344 -31.265625 C 149.402344 -30.972656 149.457031 -30.6875 149.570312 -30.414062 C 149.683594 -30.144531 149.84375 -29.902344 150.050781 -29.695312 C 150.257812 -29.484375 150.5 -29.324219 150.773438 -29.210938 C 151.042969 -29.101562 151.328125 -29.042969 151.621094 -29.042969 C 151.917969 -29.042969 152.199219 -29.101562 152.472656 -29.210938 C 152.746094 -29.324219 152.984375 -29.484375 153.195312 -29.695312 C 153.402344 -29.902344 153.5625 -30.144531 153.675781 -30.414062 C 153.789062 -30.6875 153.84375 -30.972656 153.84375 -31.265625 C 153.84375 -31.558594 153.789062 -31.84375 153.675781 -32.117188 C 153.5625 -32.386719 153.402344 -32.628906 153.195312 -32.835938 C 152.984375 -33.046875 152.746094 -33.207031 152.472656 -33.320312 C 152.199219 -33.433594 151.917969 -33.488281 151.621094 -33.488281 C 151.328125 -33.488281 151.046875 -33.429688 150.777344 -33.316406 C 150.503906 -33.203125 150.265625 -33.042969 150.058594 -32.832031 C 149.851562 -32.625 149.691406 -32.386719 149.578125 -32.113281 C 149.46875 -31.84375 149.410156 -31.558594 149.410156 -31.265625 Z M 149.402344 -54.773438 C 149.398438 -54.476562 149.449219 -54.195312 149.5625 -53.921875 C 149.671875 -53.648438 149.828125 -53.40625 150.035156 -53.195312 C 150.242188 -52.984375 150.480469 -52.820312 150.75 -52.707031 C 151.023438 -52.589844 151.304688 -52.53125 151.601562 -52.527344 C 151.894531 -52.523438 152.179688 -52.578125 152.453125 -52.6875 C 152.726562 -52.796875 152.96875 -52.957031 153.179688 -53.164062 C 153.386719 -53.367188 153.550781 -53.609375 153.667969 -53.878906 C 153.78125 -54.148438 153.839844 -54.433594 153.84375 -54.726562 C 153.847656 -55.023438 153.792969 -55.304688 153.683594 -55.578125 C 153.574219 -55.851562 153.417969 -56.09375 153.210938 -56.304688 C 153.003906 -56.515625 152.765625 -56.679688 152.492188 -56.792969 C 152.222656 -56.910156 151.941406 -56.96875 151.644531 -56.972656 C 151.351562 -56.972656 151.070312 -56.917969 150.796875 -56.808594 C 150.523438 -56.699219 150.285156 -56.539062 150.074219 -56.332031 C 149.867188 -56.128906 149.703125 -55.890625 149.589844 -55.617188 C 149.472656 -55.347656 149.414062 -55.066406 149.410156 -54.773438 Z M 172.164062 156.777344 C 172.160156 157.070312 172.21875 157.355469 172.328125 157.628906 C 172.441406 157.902344 172.601562 158.140625 172.8125 158.351562 C 173.019531 158.558594 173.257812 158.722656 173.53125 158.835938 C 173.804688 158.949219 174.089844 159.003906 174.382812 159.003906 C 174.679688 159.003906 174.960938 158.949219 175.234375 158.835938 C 175.507812 158.722656 175.746094 158.5625 175.957031 158.355469 C 176.164062 158.144531 176.324219 157.90625 176.4375 157.632812 C 176.550781 157.359375 176.609375 157.074219 176.605469 156.78125 C 176.605469 156.484375 176.550781 156.203125 176.4375 155.929688 C 176.324219 155.65625 176.164062 155.417969 175.953125 155.207031 C 175.746094 155 175.503906 154.839844 175.230469 154.726562 C 174.957031 154.617188 174.675781 154.558594 174.378906 154.558594 C 174.085938 154.5625 173.804688 154.617188 173.53125 154.730469 C 173.261719 154.84375 173.019531 155.003906 172.8125 155.210938 C 172.605469 155.417969 172.445312 155.660156 172.332031 155.929688 C 172.21875 156.199219 172.164062 156.484375 172.164062 156.777344 Z M 172.164062 133.269531 C 172.160156 133.566406 172.21875 133.847656 172.328125 134.121094 C 172.441406 134.394531 172.601562 134.636719 172.8125 134.84375 C 173.019531 135.054688 173.257812 135.214844 173.53125 135.328125 C 173.804688 135.441406 174.089844 135.496094 174.382812 135.496094 C 174.679688 135.5 174.960938 135.441406 175.234375 135.328125 C 175.507812 135.214844 175.746094 135.054688 175.957031 134.847656 C 176.164062 134.636719 176.324219 134.398438 176.4375 134.125 C 176.550781 133.851562 176.609375 133.570312 176.605469 133.273438 C 176.605469 132.980469 176.550781 132.695312 176.4375 132.421875 C 176.324219 132.148438 176.164062 131.910156 175.953125 131.703125 C 175.746094 131.492188 175.503906 131.332031 175.230469 131.222656 C 174.957031 131.109375 174.675781 131.054688 174.378906 131.054688 C 174.085938 131.054688 173.804688 131.109375 173.53125 131.222656 C 173.261719 131.335938 173.019531 131.496094 172.8125 131.703125 C 172.605469 131.914062 172.445312 132.152344 172.332031 132.421875 C 172.21875 132.695312 172.164062 132.976562 172.164062 133.269531 Z M 172.164062 109.769531 C 172.164062 110.0625 172.21875 110.347656 172.332031 110.621094 C 172.445312 110.890625 172.605469 111.132812 172.8125 111.339844 C 173.023438 111.550781 173.261719 111.710938 173.535156 111.824219 C 173.808594 111.933594 174.09375 111.992188 174.386719 111.992188 C 174.683594 111.992188 174.964844 111.933594 175.238281 111.820312 C 175.511719 111.707031 175.75 111.546875 175.957031 111.339844 C 176.167969 111.128906 176.328125 110.890625 176.4375 110.617188 C 176.550781 110.34375 176.609375 110.058594 176.605469 109.765625 C 176.605469 109.46875 176.550781 109.1875 176.4375 108.914062 C 176.324219 108.640625 176.160156 108.402344 175.953125 108.195312 C 175.742188 107.984375 175.503906 107.824219 175.230469 107.714844 C 174.957031 107.601562 174.675781 107.546875 174.378906 107.546875 C 174.085938 107.546875 173.800781 107.605469 173.53125 107.71875 C 173.257812 107.832031 173.019531 107.992188 172.8125 108.199219 C 172.605469 108.40625 172.445312 108.648438 172.332031 108.921875 C 172.21875 109.191406 172.164062 109.476562 172.164062 109.769531 Z M 172.164062 86.261719 C 172.164062 86.558594 172.21875 86.839844 172.332031 87.113281 C 172.445312 87.386719 172.605469 87.625 172.8125 87.835938 C 173.023438 88.042969 173.261719 88.203125 173.535156 88.316406 C 173.808594 88.429688 174.09375 88.484375 174.386719 88.484375 C 174.683594 88.484375 174.964844 88.425781 175.238281 88.3125 C 175.511719 88.203125 175.75 88.039062 175.957031 87.832031 C 176.167969 87.621094 176.328125 87.382812 176.4375 87.109375 C 176.550781 86.835938 176.609375 86.554688 176.605469 86.257812 C 176.605469 85.964844 176.550781 85.679688 176.4375 85.40625 C 176.324219 85.136719 176.160156 84.894531 175.953125 84.6875 C 175.742188 84.480469 175.503906 84.320312 175.230469 84.207031 C 174.957031 84.09375 174.675781 84.039062 174.378906 84.039062 C 174.085938 84.039062 173.804688 84.097656 173.53125 84.210938 C 173.261719 84.320312 173.023438 84.480469 172.816406 84.6875 C 172.609375 84.894531 172.449219 85.136719 172.335938 85.40625 C 172.222656 85.675781 172.164062 85.957031 172.164062 86.25 Z M 172.164062 62.753906 C 172.164062 63.050781 172.21875 63.335938 172.332031 63.605469 C 172.445312 63.878906 172.605469 64.121094 172.8125 64.328125 C 173.023438 64.535156 173.261719 64.695312 173.535156 64.808594 C 173.808594 64.921875 174.09375 64.976562 174.386719 64.976562 C 174.683594 64.976562 174.964844 64.921875 175.238281 64.808594 C 175.511719 64.695312 175.75 64.535156 175.957031 64.324219 C 176.167969 64.117188 176.328125 63.875 176.4375 63.601562 C 176.550781 63.332031 176.609375 63.046875 176.605469 62.75 C 176.605469 62.457031 176.550781 62.171875 176.4375 61.902344 C 176.324219 61.628906 176.160156 61.390625 175.953125 61.179688 C 175.742188 60.972656 175.503906 60.8125 175.230469 60.699219 C 174.957031 60.589844 174.675781 60.53125 174.378906 60.535156 C 174.085938 60.535156 173.800781 60.589844 173.53125 60.703125 C 173.257812 60.816406 173.019531 60.976562 172.8125 61.1875 C 172.605469 61.394531 172.445312 61.632812 172.332031 61.90625 C 172.21875 62.179688 172.164062 62.460938 172.164062 62.753906 Z M 172.164062 39.25 C 172.160156 39.542969 172.21875 39.828125 172.328125 40.101562 C 172.441406 40.375 172.601562 40.613281 172.8125 40.824219 C 173.019531 41.03125 173.257812 41.191406 173.53125 41.304688 C 173.804688 41.417969 174.089844 41.476562 174.382812 41.476562 C 174.679688 41.476562 174.960938 41.421875 175.234375 41.308594 C 175.507812 41.195312 175.746094 41.035156 175.957031 40.824219 C 176.164062 40.617188 176.324219 40.375 176.4375 40.105469 C 176.550781 39.832031 176.609375 39.546875 176.605469 39.253906 C 176.605469 38.957031 176.550781 38.675781 176.4375 38.402344 C 176.324219 38.128906 176.164062 37.886719 175.953125 37.679688 C 175.746094 37.472656 175.503906 37.3125 175.230469 37.199219 C 174.957031 37.085938 174.675781 37.03125 174.378906 37.03125 C 174.085938 37.03125 173.804688 37.089844 173.53125 37.203125 C 173.261719 37.316406 173.019531 37.476562 172.8125 37.683594 C 172.605469 37.890625 172.445312 38.128906 172.332031 38.402344 C 172.21875 38.671875 172.164062 38.953125 172.164062 39.25 Z M 172.164062 15.742188 C 172.164062 16.035156 172.222656 16.320312 172.339844 16.589844 C 172.453125 16.859375 172.613281 17.101562 172.824219 17.308594 C 173.035156 17.515625 173.273438 17.671875 173.546875 17.785156 C 173.820312 17.894531 174.105469 17.949219 174.398438 17.945312 C 174.691406 17.945312 174.976562 17.886719 175.246094 17.773438 C 175.519531 17.660156 175.757812 17.496094 175.964844 17.289062 C 176.171875 17.078125 176.332031 16.839844 176.441406 16.566406 C 176.554688 16.292969 176.609375 16.011719 176.605469 15.714844 C 176.605469 15.421875 176.546875 15.136719 176.433594 14.867188 C 176.320312 14.59375 176.160156 14.355469 175.949219 14.148438 C 175.742188 13.941406 175.5 13.78125 175.230469 13.667969 C 174.957031 13.558594 174.671875 13.503906 174.378906 13.503906 C 174.082031 13.503906 173.800781 13.5625 173.527344 13.675781 C 173.253906 13.789062 173.011719 13.953125 172.804688 14.160156 C 172.597656 14.371094 172.4375 14.613281 172.328125 14.886719 C 172.214844 15.160156 172.160156 15.445312 172.164062 15.742188 Z M 172.164062 -7.757812 C 172.164062 -7.464844 172.21875 -7.179688 172.332031 -6.910156 C 172.445312 -6.636719 172.605469 -6.394531 172.8125 -6.1875 C 173.023438 -5.980469 173.261719 -5.816406 173.535156 -5.707031 C 173.808594 -5.59375 174.09375 -5.535156 174.386719 -5.535156 C 174.683594 -5.539062 174.964844 -5.59375 175.238281 -5.707031 C 175.511719 -5.820312 175.75 -5.980469 175.957031 -6.191406 C 176.167969 -6.398438 176.328125 -6.640625 176.4375 -6.910156 C 176.550781 -7.183594 176.609375 -7.46875 176.605469 -7.761719 C 176.605469 -8.058594 176.550781 -8.339844 176.4375 -8.613281 C 176.324219 -8.886719 176.160156 -9.125 175.953125 -9.332031 C 175.742188 -9.542969 175.503906 -9.703125 175.230469 -9.8125 C 174.957031 -9.925781 174.675781 -9.980469 174.378906 -9.980469 C 174.085938 -9.980469 173.800781 -9.921875 173.53125 -9.808594 C 173.257812 -9.699219 173.019531 -9.535156 172.8125 -9.328125 C 172.605469 -9.121094 172.445312 -8.878906 172.332031 -8.609375 C 172.21875 -8.335938 172.164062 -8.054688 172.164062 -7.757812 Z M 172.164062 -31.265625 C 172.164062 -30.972656 172.21875 -30.6875 172.332031 -30.414062 C 172.445312 -30.144531 172.605469 -29.902344 172.8125 -29.695312 C 173.023438 -29.484375 173.261719 -29.324219 173.535156 -29.210938 C 173.808594 -29.097656 174.09375 -29.042969 174.386719 -29.042969 C 174.683594 -29.042969 174.964844 -29.101562 175.238281 -29.214844 C 175.511719 -29.328125 175.75 -29.488281 175.957031 -29.695312 C 176.167969 -29.90625 176.328125 -30.144531 176.4375 -30.417969 C 176.550781 -30.691406 176.609375 -30.976562 176.605469 -31.269531 C 176.605469 -31.566406 176.550781 -31.847656 176.4375 -32.121094 C 176.324219 -32.390625 176.160156 -32.632812 175.953125 -32.839844 C 175.742188 -33.046875 175.503906 -33.207031 175.230469 -33.320312 C 174.957031 -33.433594 174.675781 -33.488281 174.378906 -33.488281 C 174.085938 -33.488281 173.800781 -33.429688 173.53125 -33.316406 C 173.257812 -33.203125 173.019531 -33.042969 172.8125 -32.835938 C 172.605469 -32.625 172.445312 -32.386719 172.332031 -32.113281 C 172.21875 -31.84375 172.164062 -31.558594 172.164062 -31.265625 Z M 172.164062 -54.773438 C 172.160156 -54.476562 172.214844 -54.191406 172.324219 -53.917969 C 172.433594 -53.644531 172.59375 -53.402344 172.800781 -53.191406 C 173.007812 -52.980469 173.246094 -52.816406 173.519531 -52.703125 C 173.792969 -52.585938 174.074219 -52.53125 174.371094 -52.527344 C 174.667969 -52.527344 174.953125 -52.582031 175.226562 -52.691406 C 175.5 -52.804688 175.742188 -52.964844 175.949219 -53.171875 C 176.160156 -53.378906 176.320312 -53.621094 176.433594 -53.894531 C 176.550781 -54.167969 176.605469 -54.449219 176.605469 -54.746094 C 176.609375 -55.042969 176.550781 -55.324219 176.4375 -55.597656 C 176.324219 -55.871094 176.164062 -56.113281 175.957031 -56.320312 C 175.746094 -56.53125 175.503906 -56.691406 175.230469 -56.804688 C 174.960938 -56.917969 174.675781 -56.972656 174.378906 -56.972656 C 174.085938 -56.972656 173.804688 -56.914062 173.535156 -56.804688 C 173.265625 -56.691406 173.027344 -56.53125 172.820312 -56.328125 C 172.613281 -56.121094 172.453125 -55.882812 172.335938 -55.613281 C 172.222656 -55.34375 172.164062 -55.066406 172.164062 -54.773438 Z M 194.898438 156.777344 C 194.894531 157.070312 194.953125 157.355469 195.0625 157.628906 C 195.175781 157.902344 195.335938 158.140625 195.542969 158.351562 C 195.753906 158.558594 195.992188 158.722656 196.265625 158.835938 C 196.539062 158.949219 196.820312 159.003906 197.117188 159.003906 C 197.410156 159.003906 197.695312 158.949219 197.96875 158.835938 C 198.242188 158.722656 198.480469 158.5625 198.691406 158.355469 C 198.898438 158.144531 199.058594 157.90625 199.171875 157.632812 C 199.285156 157.359375 199.339844 157.074219 199.339844 156.78125 C 199.339844 156.484375 199.285156 156.203125 199.171875 155.929688 C 199.058594 155.65625 198.894531 155.417969 198.6875 155.207031 C 198.476562 155 198.238281 154.839844 197.964844 154.726562 C 197.691406 154.617188 197.40625 154.558594 197.113281 154.558594 C 196.820312 154.5625 196.539062 154.621094 196.269531 154.734375 C 196 154.847656 195.761719 155.007812 195.554688 155.214844 C 195.347656 155.421875 195.1875 155.660156 195.078125 155.933594 C 194.964844 156.203125 194.910156 156.484375 194.90625 156.777344 Z M 194.898438 133.269531 C 194.894531 133.566406 194.953125 133.847656 195.0625 134.121094 C 195.175781 134.394531 195.335938 134.636719 195.542969 134.84375 C 195.753906 135.054688 195.992188 135.214844 196.265625 135.328125 C 196.535156 135.441406 196.820312 135.496094 197.113281 135.496094 C 197.410156 135.5 197.695312 135.441406 197.964844 135.332031 C 198.238281 135.21875 198.480469 135.058594 198.6875 134.847656 C 198.898438 134.640625 199.058594 134.402344 199.171875 134.128906 C 199.285156 133.855469 199.339844 133.574219 199.339844 133.277344 C 199.339844 132.984375 199.285156 132.699219 199.171875 132.425781 C 199.058594 132.152344 198.898438 131.914062 198.691406 131.707031 C 198.480469 131.496094 198.242188 131.335938 197.96875 131.222656 C 197.695312 131.109375 197.414062 131.054688 197.117188 131.054688 C 196.824219 131.054688 196.542969 131.113281 196.273438 131.226562 C 196.003906 131.339844 195.765625 131.5 195.558594 131.707031 C 195.351562 131.914062 195.191406 132.152344 195.078125 132.425781 C 194.964844 132.695312 194.910156 132.976562 194.90625 133.269531 Z M 194.898438 109.769531 C 194.898438 110.0625 194.953125 110.347656 195.066406 110.621094 C 195.179688 110.890625 195.339844 111.132812 195.546875 111.339844 C 195.757812 111.550781 195.996094 111.710938 196.269531 111.824219 C 196.542969 111.933594 196.824219 111.992188 197.121094 111.992188 C 197.414062 111.992188 197.699219 111.933594 197.972656 111.820312 C 198.242188 111.707031 198.484375 111.546875 198.691406 111.339844 C 198.898438 111.128906 199.0625 110.890625 199.171875 110.617188 C 199.285156 110.34375 199.339844 110.058594 199.339844 109.765625 C 199.339844 109.46875 199.285156 109.1875 199.171875 108.914062 C 199.058594 108.640625 198.894531 108.402344 198.6875 108.195312 C 198.476562 107.984375 198.238281 107.824219 197.964844 107.714844 C 197.691406 107.601562 197.40625 107.546875 197.113281 107.546875 C 196.820312 107.550781 196.539062 107.605469 196.269531 107.722656 C 195.996094 107.835938 195.757812 107.996094 195.550781 108.203125 C 195.347656 108.410156 195.1875 108.652344 195.074219 108.921875 C 194.964844 109.195312 194.90625 109.476562 194.90625 109.769531 Z M 194.898438 86.261719 C 194.898438 86.558594 194.953125 86.839844 195.066406 87.113281 C 195.179688 87.386719 195.339844 87.625 195.546875 87.832031 C 195.753906 88.042969 195.996094 88.203125 196.269531 88.316406 C 196.539062 88.429688 196.824219 88.484375 197.117188 88.484375 C 197.414062 88.484375 197.695312 88.429688 197.96875 88.316406 C 198.242188 88.203125 198.480469 88.042969 198.691406 87.832031 C 198.898438 87.625 199.058594 87.386719 199.171875 87.113281 C 199.285156 86.839844 199.339844 86.558594 199.339844 86.261719 C 199.339844 85.96875 199.285156 85.683594 199.171875 85.410156 C 199.058594 85.140625 198.898438 84.898438 198.691406 84.691406 C 198.480469 84.484375 198.242188 84.320312 197.96875 84.210938 C 197.695312 84.097656 197.414062 84.039062 197.117188 84.039062 C 196.824219 84.042969 196.542969 84.097656 196.273438 84.210938 C 196.003906 84.324219 195.765625 84.484375 195.558594 84.691406 C 195.351562 84.898438 195.191406 85.136719 195.078125 85.40625 C 194.964844 85.675781 194.910156 85.957031 194.90625 86.25 Z M 194.898438 62.753906 C 194.898438 63.050781 194.953125 63.332031 195.066406 63.605469 C 195.179688 63.878906 195.339844 64.117188 195.546875 64.328125 C 195.753906 64.535156 195.996094 64.695312 196.269531 64.808594 C 196.539062 64.921875 196.824219 64.976562 197.117188 64.976562 C 197.414062 64.976562 197.695312 64.921875 197.96875 64.808594 C 198.242188 64.695312 198.480469 64.535156 198.691406 64.328125 C 198.898438 64.117188 199.058594 63.878906 199.171875 63.605469 C 199.285156 63.332031 199.339844 63.050781 199.339844 62.753906 C 199.339844 62.460938 199.285156 62.175781 199.171875 61.90625 C 199.058594 61.632812 198.898438 61.390625 198.691406 61.183594 C 198.480469 60.976562 198.242188 60.816406 197.96875 60.703125 C 197.695312 60.589844 197.414062 60.535156 197.117188 60.535156 C 196.824219 60.535156 196.542969 60.59375 196.273438 60.707031 C 196 60.820312 195.761719 60.980469 195.554688 61.1875 C 195.347656 61.394531 195.1875 61.636719 195.074219 61.90625 C 194.964844 62.179688 194.90625 62.460938 194.90625 62.753906 Z M 194.898438 39.25 C 194.894531 39.542969 194.953125 39.828125 195.0625 40.101562 C 195.175781 40.371094 195.335938 40.613281 195.542969 40.824219 C 195.753906 41.03125 195.992188 41.191406 196.265625 41.304688 C 196.535156 41.417969 196.820312 41.476562 197.113281 41.476562 C 197.410156 41.476562 197.695312 41.421875 197.964844 41.308594 C 198.238281 41.195312 198.480469 41.035156 198.6875 40.828125 C 198.898438 40.621094 199.058594 40.378906 199.171875 40.105469 C 199.285156 39.835938 199.339844 39.550781 199.339844 39.257812 C 199.339844 38.960938 199.285156 38.679688 199.171875 38.40625 C 199.058594 38.132812 198.898438 37.890625 198.691406 37.683594 C 198.480469 37.476562 198.242188 37.316406 197.96875 37.203125 C 197.695312 37.089844 197.414062 37.03125 197.117188 37.03125 C 196.824219 37.035156 196.542969 37.089844 196.273438 37.203125 C 196.003906 37.316406 195.765625 37.476562 195.558594 37.683594 C 195.351562 37.894531 195.191406 38.132812 195.078125 38.402344 C 194.964844 38.671875 194.910156 38.957031 194.90625 39.25 Z M 194.898438 15.742188 C 194.898438 16.035156 194.957031 16.320312 195.070312 16.589844 C 195.1875 16.859375 195.347656 17.101562 195.558594 17.308594 C 195.769531 17.515625 196.007812 17.671875 196.28125 17.785156 C 196.554688 17.894531 196.835938 17.949219 197.132812 17.945312 C 197.425781 17.945312 197.710938 17.886719 197.980469 17.773438 C 198.25 17.660156 198.492188 17.496094 198.699219 17.289062 C 198.90625 17.078125 199.0625 16.839844 199.175781 16.566406 C 199.285156 16.292969 199.34375 16.011719 199.339844 15.714844 C 199.339844 15.421875 199.28125 15.136719 199.167969 14.867188 C 199.054688 14.59375 198.894531 14.355469 198.683594 14.148438 C 198.476562 13.941406 198.234375 13.78125 197.964844 13.667969 C 197.691406 13.558594 197.40625 13.503906 197.113281 13.503906 C 196.820312 13.503906 196.535156 13.5625 196.265625 13.679688 C 195.992188 13.792969 195.753906 13.957031 195.546875 14.164062 C 195.339844 14.375 195.179688 14.617188 195.070312 14.890625 C 194.960938 15.164062 194.90625 15.449219 194.90625 15.742188 Z M 194.898438 -7.757812 C 194.898438 -7.464844 194.953125 -7.179688 195.066406 -6.910156 C 195.179688 -6.636719 195.339844 -6.394531 195.546875 -6.1875 C 195.753906 -5.980469 195.996094 -5.820312 196.269531 -5.707031 C 196.539062 -5.59375 196.824219 -5.535156 197.117188 -5.535156 C 197.414062 -5.535156 197.695312 -5.59375 197.96875 -5.707031 C 198.242188 -5.820312 198.480469 -5.980469 198.691406 -6.1875 C 198.898438 -6.394531 199.058594 -6.636719 199.171875 -6.910156 C 199.285156 -7.179688 199.339844 -7.464844 199.339844 -7.757812 C 199.339844 -8.054688 199.285156 -8.335938 199.171875 -8.609375 C 199.058594 -8.882812 198.898438 -9.121094 198.691406 -9.332031 C 198.480469 -9.539062 198.242188 -9.699219 197.96875 -9.8125 C 197.695312 -9.925781 197.414062 -9.980469 197.117188 -9.980469 C 196.824219 -9.980469 196.542969 -9.921875 196.273438 -9.808594 C 196 -9.695312 195.761719 -9.535156 195.554688 -9.328125 C 195.347656 -9.117188 195.1875 -8.878906 195.074219 -8.605469 C 194.964844 -8.335938 194.90625 -8.054688 194.90625 -7.757812 Z M 194.898438 -31.265625 C 194.898438 -30.972656 194.953125 -30.6875 195.066406 -30.414062 C 195.179688 -30.144531 195.339844 -29.902344 195.546875 -29.695312 C 195.753906 -29.484375 195.996094 -29.324219 196.269531 -29.210938 C 196.539062 -29.101562 196.824219 -29.042969 197.117188 -29.042969 C 197.414062 -29.042969 197.695312 -29.101562 197.96875 -29.210938 C 198.242188 -29.324219 198.480469 -29.484375 198.691406 -29.695312 C 198.898438 -29.902344 199.058594 -30.144531 199.171875 -30.414062 C 199.285156 -30.6875 199.339844 -30.972656 199.339844 -31.265625 C 199.339844 -31.558594 199.285156 -31.84375 199.171875 -32.117188 C 199.058594 -32.386719 198.898438 -32.628906 198.691406 -32.835938 C 198.480469 -33.046875 198.242188 -33.207031 197.96875 -33.320312 C 197.695312 -33.433594 197.414062 -33.488281 197.117188 -33.488281 C 196.824219 -33.488281 196.542969 -33.429688 196.273438 -33.316406 C 196 -33.203125 195.761719 -33.042969 195.554688 -32.832031 C 195.347656 -32.625 195.1875 -32.386719 195.074219 -32.113281 C 194.964844 -31.84375 194.90625 -31.558594 194.90625 -31.265625 Z M 194.898438 -54.773438 C 194.894531 -54.476562 194.949219 -54.191406 195.058594 -53.917969 C 195.167969 -53.644531 195.328125 -53.402344 195.535156 -53.191406 C 195.742188 -52.980469 195.980469 -52.816406 196.253906 -52.703125 C 196.527344 -52.585938 196.808594 -52.53125 197.105469 -52.527344 C 197.402344 -52.527344 197.683594 -52.582031 197.957031 -52.691406 C 198.234375 -52.804688 198.472656 -52.964844 198.683594 -53.171875 C 198.894531 -53.378906 199.054688 -53.621094 199.167969 -53.894531 C 199.28125 -54.167969 199.339844 -54.449219 199.339844 -54.746094 C 199.339844 -55.042969 199.285156 -55.324219 199.171875 -55.597656 C 199.058594 -55.871094 198.898438 -56.113281 198.6875 -56.320312 C 198.480469 -56.53125 198.238281 -56.691406 197.964844 -56.804688 C 197.691406 -56.917969 197.410156 -56.972656 197.113281 -56.972656 C 196.820312 -56.96875 196.542969 -56.914062 196.273438 -56.800781 C 196.003906 -56.6875 195.765625 -56.527344 195.5625 -56.324219 C 195.355469 -56.117188 195.195312 -55.878906 195.082031 -55.613281 C 194.96875 -55.34375 194.910156 -55.0625 194.90625 -54.773438 Z M 194.898438 -54.773438 "/></g><g clip-rule="nonzero" clip-path="url(#0193023d36)"><path style=" stroke:none;fill-rule:nonzero;fill:#ffffff;fill-opacity:1;" d="M 164.578125 58.421875 L 754.117188 58.421875 L 754.117188 673.296875 L 164.578125 673.296875 Z M 164.578125 58.421875 "/></g><g clip-rule="nonzero" clip-path="url(#db94dce94c)"><g transform="matrix(1.015344,0,0,1.015179,189.37886,81.593632)"><image width="532" xlink:href="PLACE_PRODUCT_IMAGE_HERE" height="560" preserveAspectRatio="xMidYMid meet"/></g></g><g clip-rule="nonzero" clip-path="url(#aa0dbbb815)"><path style=" stroke:none;fill-rule:nonzero;fill:COLOR_DARK_CONTRAST;fill-opacity:1;" d="M 299.324219 693.542969 L 827.03125 693.542969 L 827.03125 790.175781 L 299.324219 790.175781 Z M 299.324219 693.542969 "/></g><g mask="url(#e23d60808b)" transform="matrix(1,0,0,1,0,197)"><g clip-path="url(#71f9b10ad3)"><g clip-rule="nonzero" clip-path="url(#11cb04e368)"><g clip-rule="nonzero" clip-path="url(#cce2a65402)"><path style=" stroke:none;fill-rule:nonzero;fill:COLOR_BRANDCOLOR;fill-opacity:1;" d="M 244.132812 1093.367188 L -436.9375 383.269531 L -38.285156 0.914062 L 642.785156 711.015625 Z M 244.132812 1093.367188 "/></g></g></g><mask id="e23d60808b"><g filter="url(#2eb3a7f2b5)"><rect x="0" width="810" y="0" height="809.999993" style="fill:#000000;fill-opacity:0.56;stroke:none;"/></g></mask></g><g clip-rule="nonzero" clip-path="url(#c7e220da71)"><g clip-rule="nonzero" clip-path="url(#de53ff332e)"><path style=" stroke:none;fill-rule:nonzero;fill:COLOR_BRANDCOLOR;fill-opacity:1;" d="M 173.089844 1299.976562 L -449.953125 650.378906 L -46.320312 263.246094 L 576.722656 912.84375 Z M 173.089844 1299.976562 "/></g></g><g clip-rule="nonzero" clip-path="url(#7770596177)"><g clip-rule="nonzero" clip-path="url(#8482706e1d)"><path style=" stroke:none;fill-rule:nonzero;fill:COLOR_DARK_CONTRAST;fill-opacity:1;" d="M 535.03125 42.589844 L 778.078125 42.589844 L 778.078125 108.359375 L 535.03125 108.359375 Z M 535.03125 42.589844 "/></g></g><g clip-rule="nonzero" clip-path="url(#00f0451f25)"><path style=" stroke:none;fill-rule:nonzero;fill:#000000;fill-opacity:1;" d="M 46.535156 712.179688 C 41.980469 712.179688 38.289062 715.824219 38.289062 720.316406 C 38.289062 726.417969 46.535156 735.429688 46.535156 735.429688 C 46.535156 735.429688 54.78125 726.417969 54.78125 720.316406 C 54.78125 715.824219 51.089844 712.179688 46.535156 712.179688 Z M 46.535156 723.222656 C 44.910156 723.222656 43.589844 721.921875 43.589844 720.316406 C 43.589844 718.710938 44.910156 717.410156 46.535156 717.410156 C 48.160156 717.410156 49.480469 718.710938 49.480469 720.316406 C 49.480469 721.921875 48.160156 723.222656 46.535156 723.222656 Z M 46.535156 723.222656 "/></g><g clip-rule="nonzero" clip-path="url(#86680b2a8b)"><path style=" stroke:none;fill-rule:nonzero;fill:#000000;fill-opacity:1;" d="M 46.664062 746.019531 C 40.863281 746.019531 36.167969 750.71875 36.167969 756.519531 C 36.167969 762.320312 40.863281 767.019531 46.664062 767.019531 C 52.464844 767.019531 57.167969 762.320312 57.167969 756.519531 C 57.167969 750.71875 52.464844 746.019531 46.664062 746.019531 Z M 53.933594 752.320312 L 50.835938 752.320312 C 50.496094 751.007812 50.019531 749.746094 49.386719 748.582031 C 51.320312 749.242188 52.925781 750.582031 53.933594 752.320312 Z M 46.667969 748.15625 C 47.542969 749.417969 48.226562 750.820312 48.671875 752.320312 L 44.664062 752.320312 C 45.109375 750.820312 45.792969 749.417969 46.667969 748.15625 Z M 38.542969 758.621094 C 38.367188 757.949219 38.269531 757.246094 38.269531 756.519531 C 38.269531 755.796875 38.367188 755.09375 38.542969 754.421875 L 42.085938 754.421875 C 42 755.109375 41.941406 755.804688 41.941406 756.519531 C 41.941406 757.234375 42 757.933594 42.089844 758.621094 Z M 39.398438 760.71875 L 42.496094 760.71875 C 42.835938 762.03125 43.3125 763.292969 43.945312 764.464844 C 42.011719 763.800781 40.40625 762.457031 39.398438 760.71875 Z M 42.496094 752.320312 L 39.398438 752.320312 C 40.40625 750.582031 42.011719 749.238281 43.945312 748.578125 C 43.3125 749.746094 42.835938 751.007812 42.496094 752.320312 Z M 46.667969 764.882812 C 45.796875 763.625 45.113281 762.222656 44.664062 760.71875 L 48.671875 760.71875 C 48.222656 762.222656 47.539062 763.625 46.667969 764.882812 Z M 49.125 758.621094 L 44.210938 758.621094 C 44.113281 757.933594 44.042969 757.234375 44.042969 756.519531 C 44.042969 755.804688 44.113281 755.109375 44.210938 754.421875 L 49.125 754.421875 C 49.226562 755.109375 49.292969 755.804688 49.292969 756.519531 C 49.292969 757.234375 49.226562 757.933594 49.125 758.621094 Z M 49.394531 764.457031 C 50.023438 763.289062 50.5 762.03125 50.84375 760.71875 L 53.9375 760.71875 C 52.925781 762.457031 51.320312 763.796875 49.394531 764.457031 Z M 51.246094 758.621094 C 51.332031 757.933594 51.394531 757.234375 51.394531 756.519531 C 51.394531 755.804688 51.335938 755.109375 51.246094 754.421875 L 54.789062 754.421875 C 54.964844 755.09375 55.066406 755.796875 55.066406 756.519531 C 55.066406 757.246094 54.96875 757.949219 54.789062 758.621094 Z M 51.246094 758.621094 "/></g></g></svg>