<svg xmlns="http://www.w3.org/2000/svg" xmlns:xlink="http://www.w3.org/1999/xlink" width="1080" zoomAndPan="magnify" viewBox="0 0 810 1439.999935" height="1920" preserveAspectRatio="xMidYMid meet" version="1.2"><defs><filter x="0%" y="0%" width="100%" filterUnits="objectBoundingBox" id="0fcd39228b" height="100%"><feColorMatrix values="0 0 0 0 1 0 0 0 0 1 0 0 0 0 1 0 0 0 1 0" type="matrix" in="SourceGraphic"/></filter><clipPath id="7698fc3eb9"><rect x="0" width="810" y="0" height="1440"/></clipPath><clipPath id="ccf65fa617"><path d="M 108.628906 574.203125 L 701.507812 574.203125 L 701.507812 664.601562 L 108.628906 664.601562 Z M 108.628906 574.203125 "/></clipPath><clipPath id="c453fdfb47"><path d="M 684.332031 664.601562 L 125.667969 664.601562 C 116.28125 664.601562 108.628906 656.953125 108.628906 647.5625 L 108.628906 591.238281 C 108.628906 581.851562 116.28125 574.203125 125.667969 574.203125 L 684.332031 574.203125 C 693.71875 574.203125 701.371094 581.851562 701.371094 591.238281 L 701.371094 647.5625 C 701.371094 656.953125 693.71875 664.601562 684.332031 664.601562 Z M 684.332031 664.601562 "/></clipPath><clipPath id="24fc544afe"><path d="M 108.628906 694.324219 L 701.507812 694.324219 L 701.507812 784.722656 L 108.628906 784.722656 Z M 108.628906 694.324219 "/></clipPath><clipPath id="fab8f48495"><path d="M 684.332031 784.722656 L 125.667969 784.722656 C 116.28125 784.722656 108.628906 777.074219 108.628906 767.6875 L 108.628906 711.363281 C 108.628906 701.972656 116.28125 694.324219 125.667969 694.324219 L 684.332031 694.324219 C 693.71875 694.324219 701.371094 701.972656 701.371094 711.363281 L 701.371094 767.6875 C 701.371094 777.074219 693.71875 784.722656 684.332031 784.722656 Z M 684.332031 784.722656 "/></clipPath><clipPath id="31460eecce"><path d="M 108.628906 814.449219 L 701.507812 814.449219 L 701.507812 904.84375 L 108.628906 904.84375 Z M 108.628906 814.449219 "/></clipPath><clipPath id="e07c45e138"><path d="M 684.332031 904.84375 L 125.667969 904.84375 C 116.28125 904.84375 108.628906 897.195312 108.628906 887.808594 L 108.628906 831.484375 C 108.628906 822.097656 116.28125 814.449219 125.667969 814.449219 L 684.332031 814.449219 C 693.71875 814.449219 701.371094 822.097656 701.371094 831.484375 L 701.371094 887.808594 C 701.371094 897.195312 693.71875 904.84375 684.332031 904.84375 Z M 684.332031 904.84375 "/></clipPath><clipPath id="20e0140987"><path d="M 108.628906 934.570312 L 701.507812 934.570312 L 701.507812 1024.964844 L 108.628906 1024.964844 Z M 108.628906 934.570312 "/></clipPath><clipPath id="a2368121c6"><path d="M 684.332031 1024.964844 L 125.667969 1024.964844 C 116.28125 1024.964844 108.628906 1017.316406 108.628906 1007.929688 L 108.628906 951.605469 C 108.628906 942.21875 116.28125 934.570312 125.667969 934.570312 L 684.332031 934.570312 C 693.71875 934.570312 701.371094 942.21875 701.371094 951.605469 L 701.371094 1007.929688 C 701.371094 1017.316406 693.71875 1024.964844 684.332031 1024.964844 Z M 684.332031 1024.964844 "/></clipPath></defs><g id="5b6e06348c"><rect x="0" width="810" y="0" height="1439.999935" style="fill:#ffffff;fill-opacity:1;stroke:none;"/><rect x="0" width="810" y="0" height="1439.999935" style="fill:#COLOR_BRANDCOLOR;fill-opacity:1;stroke:none;"/><g mask="url(#557db84a26)" transform="matrix(1,0,0,1,0,-0.000000000000101068)"><g clip-path="url(#7698fc3eb9)"><g transform="matrix(2.571426,0,0,2.571428,-1.285382,-0.00002)"><image width="316" xlink:href="PLACE_BACKGROUND_IMAGE" id="b5aee7d5c8" height="560" preserveAspectRatio="xMidYMid meet"/></g></g><mask id="557db84a26"><g filter="url(#0fcd39228b)"><rect x="0" width="810" y="0" height="1439.999935" style="fill:#000000;fill-opacity:0.5;stroke:none;"/></g></mask></g><g clip-rule="nonzero" clip-path="url(#ccf65fa617)"><g clip-rule="nonzero" clip-path="url(#c453fdfb47)"><path style=" stroke:none;fill-rule:nonzero;fill:#ffffff;fill-opacity:1;" d="M 108.628906 574.203125 L 701.507812 574.203125 L 701.507812 664.601562 L 108.628906 664.601562 Z M 108.628906 574.203125 "/></g></g><g clip-rule="nonzero" clip-path="url(#24fc544afe)"><g clip-rule="nonzero" clip-path="url(#fab8f48495)"><path style=" stroke:none;fill-rule:nonzero;fill:#ffffff;fill-opacity:1;" d="M 108.628906 694.324219 L 701.507812 694.324219 L 701.507812 784.722656 L 108.628906 784.722656 Z M 108.628906 694.324219 "/></g></g><g clip-rule="nonzero" clip-path="url(#31460eecce)"><g clip-rule="nonzero" clip-path="url(#e07c45e138)"><path style=" stroke:none;fill-rule:nonzero;fill:#ffffff;fill-opacity:1;" d="M 108.628906 814.449219 L 701.507812 814.449219 L 701.507812 904.84375 L 108.628906 904.84375 Z M 108.628906 814.449219 "/></g></g><g clip-rule="nonzero" clip-path="url(#20e0140987)"><g clip-rule="nonzero" clip-path="url(#a2368121c6)"><path style=" stroke:none;fill-rule:nonzero;fill:#ffffff;fill-opacity:1;" d="M 108.628906 934.570312 L 701.507812 934.570312 L 701.507812 1024.964844 L 108.628906 1024.964844 Z M 108.628906 934.570312 "/></g></g></g></svg>