<svg xmlns="http://www.w3.org/2000/svg" xmlns:xlink="http://www.w3.org/1999/xlink" width="1080" zoomAndPan="magnify" viewBox="0 0 810 809.999993" height="1080" preserveAspectRatio="xMidYMid meet" version="1.2"><defs><filter x="0%" y="0%" width="100%" filterUnits="objectBoundingBox" id="40b4ee4f18" height="100%"><feColorMatrix values="0 0 0 0 1 0 0 0 0 1 0 0 0 0 1 0 0 0 1 0" type="matrix" in="SourceGraphic"/></filter><clipPath id="38b0bb7dd9"><rect x="0" width="810" y="0" height="810"/></clipPath><clipPath id="fde181476a"><path d="M 0.199219 1 L 326 1 L 326 462.847656 L 0.199219 462.847656 Z M 0.199219 1 "/></clipPath><clipPath id="94a2bbbf27"><rect x="0" width="328" y="0" height="464"/></clipPath><clipPath id="d84182e3a2"><path d="M 0 1 L 100 1 L 100 462.847656 L 0 462.847656 Z M 0 1 "/></clipPath><clipPath id="d94453fffd"><rect x="0" width="102" y="0" height="464"/></clipPath><clipPath id="6c51143ddf"><path d="M 1 1 L 144 1 L 144 462.847656 L 1 462.847656 Z M 1 1 "/></clipPath><clipPath id="a7bbdc0c9a"><rect x="0" width="144" y="0" height="464"/></clipPath><clipPath id="2bf8fd5362"><path d="M 237.1875 178.300781 L 572.8125 178.300781 L 572.8125 631.914062 L 237.1875 631.914062 Z M 237.1875 178.300781 "/></clipPath><clipPath id="dd180c093d"><path d="M 275.4375 178.300781 L 534.5625 178.300781 C 544.707031 178.300781 554.433594 182.328125 561.609375 189.503906 C 568.78125 196.675781 572.8125 206.40625 572.8125 216.550781 L 572.8125 593.449219 C 572.8125 603.59375 568.78125 613.324219 561.609375 620.496094 C 554.433594 627.671875 544.707031 631.699219 534.5625 631.699219 L 275.4375 631.699219 C 265.292969 631.699219 255.566406 627.671875 248.390625 620.496094 C 241.21875 613.324219 237.1875 603.59375 237.1875 593.449219 L 237.1875 216.550781 C 237.1875 206.40625 241.21875 196.675781 248.390625 189.503906 C 255.566406 182.328125 265.292969 178.300781 275.4375 178.300781 Z M 275.4375 178.300781 "/></clipPath><clipPath id="28fc29626a"><path d="M 0 178.300781 L 126.878906 178.300781 L 126.878906 631.914062 L 0 631.914062 Z M 0 178.300781 "/></clipPath><clipPath id="5fc10fa49d"><path d="M -170.492188 178.300781 L 88.628906 178.300781 C 98.773438 178.300781 108.503906 182.328125 115.675781 189.503906 C 122.851562 196.675781 126.878906 206.40625 126.878906 216.550781 L 126.878906 593.449219 C 126.878906 603.59375 122.851562 613.324219 115.675781 620.496094 C 108.503906 627.671875 98.773438 631.699219 88.628906 631.699219 L -170.492188 631.699219 C -180.636719 631.699219 -190.367188 627.671875 -197.539062 620.496094 C -204.714844 613.324219 -208.742188 603.59375 -208.742188 593.449219 L -208.742188 216.550781 C -208.742188 206.40625 -204.714844 196.675781 -197.539062 189.503906 C -190.367188 182.328125 -180.636719 178.300781 -170.492188 178.300781 Z M -170.492188 178.300781 "/></clipPath><clipPath id="75d160f6c7"><path d="M 683.976562 178.300781 L 810 178.300781 L 810 631.914062 L 683.976562 631.914062 Z M 683.976562 178.300781 "/></clipPath><clipPath id="6a96d49902"><path d="M 722.226562 178.300781 L 981.347656 178.300781 C 991.492188 178.300781 1001.222656 182.328125 1008.394531 189.503906 C 1015.570312 196.675781 1019.597656 206.40625 1019.597656 216.550781 L 1019.597656 593.449219 C 1019.597656 603.59375 1015.570312 613.324219 1008.394531 620.496094 C 1001.222656 627.671875 991.492188 631.699219 981.347656 631.699219 L 722.226562 631.699219 C 712.082031 631.699219 702.351562 627.671875 695.179688 620.496094 C 688.003906 613.324219 683.976562 603.59375 683.976562 593.449219 L 683.976562 216.550781 C 683.976562 206.40625 688.003906 196.675781 695.179688 189.503906 C 702.351562 182.328125 712.082031 178.300781 722.226562 178.300781 Z M 722.226562 178.300781 "/></clipPath><clipPath id="f147e3e41d"><path d="M 249 192 L 287 192 L 287 230 L 249 230 Z M 249 192 "/></clipPath><clipPath id="0416d1a19d"><path d="M 249.9375 192.324219 L 286.898438 192.546875 L 286.675781 229.433594 L 249.71875 229.210938 Z M 249.9375 192.324219 "/></clipPath><clipPath id="49150e6f5f"><path d="M 286.714844 210.988281 C 286.652344 221.175781 278.347656 229.382812 268.160156 229.320312 C 257.972656 229.261719 249.765625 220.953125 249.828125 210.769531 C 249.886719 200.582031 258.195312 192.375 268.378906 192.433594 C 278.566406 192.496094 286.773438 200.800781 286.714844 210.988281 Z M 286.714844 210.988281 "/></clipPath><clipPath id="bc6f23a4d3"><path d="M 249.9375 192.324219 L 286.824219 192.546875 L 286.601562 229.429688 L 249.71875 229.210938 Z M 249.9375 192.324219 "/></clipPath><clipPath id="0c856942b4"><path d="M 240.40625 242 L 569.59375 242 L 569.59375 571 L 240.40625 571 Z M 240.40625 242 "/></clipPath><clipPath id="53c53606bd"><path d="M 0 242 L 123.660156 242 L 123.660156 571 L 0 571 Z M 0 242 "/></clipPath><clipPath id="2557afda79"><path d="M 687.191406 242 L 810 242 L 810 571 L 687.191406 571 Z M 687.191406 242 "/></clipPath><clipPath id="4939d676f5"><path d="M 534.722656 587.542969 L 552.722656 587.542969 L 552.722656 608.542969 L 534.722656 608.542969 Z M 534.722656 587.542969 "/></clipPath><clipPath id="9e1fb85b6a"><path d="M 0.722656 0.144531 L 136.472656 0.144531 L 136.472656 21.894531 L 0.722656 21.894531 Z M 0.722656 0.144531 "/></clipPath><clipPath id="2967ffaf5f"><path d="M 1 0.144531 L 136 0.144531 L 136 21.894531 L 1 21.894531 Z M 1 0.144531 "/></clipPath><clipPath id="b6dab5a47b"><rect x="0" width="137" y="0" height="22"/></clipPath><clipPath id="db0000bdc4"><rect x="0" width="138" y="0" height="22"/></clipPath><clipPath id="fb9c0430fd"><path d="M 525.375 434.144531 L 629.625 434.144531 L 629.625 483.644531 L 525.375 483.644531 Z M 525.375 434.144531 "/></clipPath><clipPath id="941e91d95e"><path d="M 0.820312 0.9375 L 161.320312 0.9375 L 161.320312 26.4375 L 0.820312 26.4375 Z M 0.820312 0.9375 "/></clipPath><clipPath id="d72971d648"><rect x="0" width="162" y="0" height="27"/></clipPath><clipPath id="857a1bd352"><rect x="0" width="163" y="0" height="27"/></clipPath><clipPath id="75c342e023"><path d="M 208.121094 260.246094 L 346.121094 260.246094 L 346.121094 311 L 208.121094 311 Z M 208.121094 260.246094 "/></clipPath></defs><g id="dcb5eda023"><rect x="0" width="810" y="0" height="809.999993" style="fill:#ffffff;fill-opacity:1;stroke:none;"/><rect x="0" width="810" y="0" height="809.999993" style="fill:#ffffff;fill-opacity:1;stroke:none;"/><g mask="url(#87f4ff85ea)" transform="matrix(1,0,0,1,0,0.000000000000039746)"><g clip-path="url(#38b0bb7dd9)"><g transform="matrix(1.445611,0,0,1.446428,-634.982125,0.00002)"><image width="1438" xlink:href="PLACE_PRODUCT_IMAGE_1_HERE" id="1299817287" height="560" preserveAspectRatio="xMidYMid meet"/></g></g><mask id="87f4ff85ea"><g filter="url(#40b4ee4f18)"><rect x="0" width="810" y="0" height="809.999993" style="fill:#000000;fill-opacity:0.85;stroke:none;"/></g></mask></g><g mask="url(#77d6e6b3de)" transform="matrix(1,0,0,1,220,190)"><g clip-path="url(#94a2bbbf27)"><g clip-rule="nonzero" clip-path="url(#fde181476a)"><g mask="url(#803501db50)" transform="matrix(0.0417734,0,0,0.0417786,0.198674,1.013466)"><image width="7810" xlink:href="file:///Users/erikbelt/Desktop/Mood Tracking App/AdCreator/image-generation-service/assets/Images_1wordBenefits-img2-77622858.png" id="ad76fffb51" height="11050" preserveAspectRatio="xMidYMid meet"/><mask id="803501db50"><g transform="matrix(1,0,0,1,0,0)"><image width="7810" xlink:href="file:///Users/erikbelt/Desktop/Mood Tracking App/AdCreator/image-generation-service/assets/Images_1wordBenefits-img3-00bdc7dd.png" id="9a099f194a" height="11050" preserveAspectRatio="xMidYMid meet"/></g></mask></g></g></g><mask id="77d6e6b3de"><g filter="url(#40b4ee4f18)"><rect x="0" width="810" y="0" height="809.999993" style="fill:#000000;fill-opacity:0.37;stroke:none;"/></g></mask></g><g mask="url(#2501d7a2d0)" transform="matrix(1,0,0,1,0,190)"><g clip-path="url(#d94453fffd)"><g clip-rule="nonzero" clip-path="url(#d84182e3a2)"><g mask="url(#e312cf7249)" transform="matrix(0.0417734,0,0,0.0417786,-225.926997,1.013466)"><image width="7810" xlink:href="file:///Users/erikbelt/Desktop/Mood Tracking App/AdCreator/image-generation-service/assets/Images_1wordBenefits-img4-77622858.png" id="008deb44ac" height="11050" preserveAspectRatio="xMidYMid meet"/><mask id="e312cf7249"><g transform="matrix(1,0,0,1,0,0)"><image width="7810" xlink:href="file:///Users/erikbelt/Desktop/Mood Tracking App/AdCreator/image-generation-service/assets/Images_1wordBenefits-img5-00bdc7dd.png" id="45b17facbc" height="11050" preserveAspectRatio="xMidYMid meet"/></g></mask></g></g></g><mask id="2501d7a2d0"><g filter="url(#40b4ee4f18)"><rect x="0" width="810" y="0" height="809.999993" style="fill:#000000;fill-opacity:0.37;stroke:none;"/></g></mask></g><g mask="url(#b69da5ffb7)" transform="matrix(1,0,0,1,666,190)"><g clip-path="url(#a7bbdc0c9a)"><g clip-rule="nonzero" clip-path="url(#6c51143ddf)"><g mask="url(#1d594581ab)" transform="matrix(0.0417734,0,0,0.0417786,0.985282,1.013466)"><image width="7810" xlink:href="file:///Users/erikbelt/Desktop/Mood Tracking App/AdCreator/image-generation-service/assets/Images_1wordBenefits-img6-77622858.png" id="44f803ba1f" height="11050" preserveAspectRatio="xMidYMid meet"/><mask id="1d594581ab"><g transform="matrix(1,0,0,1,-0.000000000000003553,0)"><image width="7810" xlink:href="file:///Users/erikbelt/Desktop/Mood Tracking App/AdCreator/image-generation-service/assets/Images_1wordBenefits-img7-00bdc7dd.png" id="07dce77d3e" height="11050" preserveAspectRatio="xMidYMid meet"/></g></mask></g></g></g><mask id="b69da5ffb7"><g filter="url(#40b4ee4f18)"><rect x="0" width="810" y="0" height="809.999993" style="fill:#000000;fill-opacity:0.37;stroke:none;"/></g></mask></g><g clip-rule="nonzero" clip-path="url(#2bf8fd5362)"><g clip-rule="nonzero" clip-path="url(#dd180c093d)"><path style=" stroke:none;fill-rule:nonzero;fill:#ffffff;fill-opacity:1;" d="M 237.1875 178.300781 L 572.8125 178.300781 L 572.8125 631.914062 L 237.1875 631.914062 Z M 237.1875 178.300781 "/></g></g><g clip-rule="nonzero" clip-path="url(#28fc29626a)"><g clip-rule="nonzero" clip-path="url(#5fc10fa49d)"><path style=" stroke:none;fill-rule:nonzero;fill:#ffffff;fill-opacity:1;" d="M -208.742188 178.300781 L 126.878906 178.300781 L 126.878906 631.914062 L -208.742188 631.914062 Z M -208.742188 178.300781 "/></g></g><g clip-rule="nonzero" clip-path="url(#75d160f6c7)"><g clip-rule="nonzero" clip-path="url(#6a96d49902)"><path style=" stroke:none;fill-rule:nonzero;fill:#ffffff;fill-opacity:1;" d="M 683.976562 178.300781 L 1019.597656 178.300781 L 1019.597656 631.914062 L 683.976562 631.914062 Z M 683.976562 178.300781 "/></g></g><g clip-rule="nonzero" clip-path="url(#f147e3e41d)"><g clip-rule="nonzero" clip-path="url(#0416d1a19d)"><g clip-rule="nonzero" clip-path="url(#49150e6f5f)"><g clip-rule="nonzero" clip-path="url(#bc6f23a4d3)"><g transform="matrix(0.0658717,0.000392167,-0.000392145,0.0658681,221.020911,192.153423)"><image width="1438" xlink:href="PLACE_PRODUCT_IMAGE_2_HERE" height="560" preserveAspectRatio="xMidYMid meet"/></g></g></g></g></g><g clip-rule="nonzero" clip-path="url(#0c856942b4)"><g transform="matrix(0.587774,0,0,0.587834,-17.652959,241.934415)"><image width="1438" xlink:href="PLACE_PRODUCT_IMAGE_3_HERE" height="560" preserveAspectRatio="xMidYMid meet"/></g><g mask="url(#a3761afe14)" transform="matrix(0.304803,0,0,0.304803,240.406355,241.934415)"><image width="1080" xlink:href="file:///Users/erikbelt/Desktop/Mood Tracking App/AdCreator/image-generation-service/assets/Images_1wordBenefits-img10-8ad58631.png" height="1080" preserveAspectRatio="xMidYMid meet"/><mask id="a3761afe14"><g transform="matrix(1,0,0,1,0.000000000000113687,0)"><image width="1080" xlink:href="file:///Users/erikbelt/Desktop/Mood Tracking App/AdCreator/image-generation-service/assets/Images_1wordBenefits-img11-9965cc23.png" height="1080" preserveAspectRatio="xMidYMid meet"/></g></mask></g></g><g clip-rule="nonzero" clip-path="url(#53c53606bd)"><g transform="matrix(0.587774,0,0,0.587834,-463.584717,241.934415)"><image width="1438" xlink:href="PLACE_PRODUCT_IMAGE_4_HERE" height="560" preserveAspectRatio="xMidYMid meet"/></g><g mask="url(#ff219a3b10)" transform="matrix(0.304803,0,0,0.304803,-205.525417,241.934415)"><image width="1080" xlink:href="file:///Users/erikbelt/Desktop/Mood Tracking App/AdCreator/image-generation-service/assets/Images_1wordBenefits-img13-8ad58631.png" height="1080" preserveAspectRatio="xMidYMid meet"/><mask id="ff219a3b10"><g><image width="1080" xlink:href="file:///Users/erikbelt/Desktop/Mood Tracking App/AdCreator/image-generation-service/assets/Images_1wordBenefits-img14-9965cc23.png" height="1080" preserveAspectRatio="xMidYMid meet"/></g></mask></g></g><g clip-rule="nonzero" clip-path="url(#2557afda79)"><g transform="matrix(0.587774,0,0,0.587834,429.133614,241.934415)"><image width="1438" xlink:href="PLACE_PRODUCT_IMAGE_5_HERE" height="560" preserveAspectRatio="xMidYMid meet"/></g><g mask="url(#a9b2d4255c)" transform="matrix(0.304803,0,0,0.304803,687.192929,241.934415)"><image width="1080" xlink:href="file:///Users/erikbelt/Desktop/Mood Tracking App/AdCreator/image-generation-service/assets/Images_1wordBenefits-img16-8ad58631.png" height="1080" preserveAspectRatio="xMidYMid meet"/><mask id="a9b2d4255c"><g transform="matrix(1,0,0,1,0.000000000000454747,0)"><image width="1080" xlink:href="file:///Users/erikbelt/Desktop/Mood Tracking App/AdCreator/image-generation-service/assets/Images_1wordBenefits-img17-9965cc23.png" height="1080" preserveAspectRatio="xMidYMid meet"/></g></mask></g></g><g clip-rule="nonzero" clip-path="url(#4939d676f5)"><path style=" stroke:none;fill-rule:nonzero;fill:#ffffff;fill-opacity:1;" d="M 551.988281 608.007812 C 551.859375 608.007812 551.730469 607.972656 551.613281 607.90625 L 543.722656 603.238281 L 535.832031 607.90625 C 535.605469 608.039062 535.324219 608.039062 535.09375 607.910156 C 534.863281 607.78125 534.722656 607.535156 534.722656 607.273438 L 534.722656 588.289062 C 534.722656 587.882812 535.050781 587.554688 535.457031 587.554688 L 551.988281 587.554688 C 552.390625 587.554688 552.722656 587.882812 552.722656 588.289062 L 552.722656 607.273438 C 552.722656 607.535156 552.582031 607.78125 552.351562 607.910156 C 552.238281 607.972656 552.113281 608.007812 551.988281 608.007812 Z M 543.722656 601.652344 C 543.851562 601.652344 543.980469 601.6875 544.09375 601.753906 L 551.253906 605.988281 L 551.253906 589.023438 L 536.191406 589.023438 L 536.191406 605.988281 L 543.347656 601.753906 C 543.464844 601.6875 543.59375 601.652344 543.722656 601.652344 Z M 543.722656 601.652344 "/></g><g mask="url(#ba3c60744b)" transform="matrix(1,0,0,1,534,454)"><g clip-path="url(#db0000bdc4)"><g clip-rule="nonzero" clip-path="url(#9e1fb85b6a)"><g mask="url(#dbc9b2cd48)" transform="matrix(1,0,0,1,-0.000000000000113687,0.000000000000113687)"><g id="cdf82233d3" clip-path="url(#b6dab5a47b)"><g clip-rule="nonzero" clip-path="url(#2967ffaf5f)"><g mask="url(#f746c618ad)" transform="matrix(0.0166172,0,0,0.016913,0.982359,0.147731)"><image width="8138" xlink:href="file:///Users/erikbelt/Desktop/Mood Tracking App/AdCreator/image-generation-service/assets/Images_1wordBenefits-img18-9558ba8a.png" id="c7ec0209c9" height="1286" preserveAspectRatio="xMidYMid meet"/><mask id="f746c618ad"><g><image width="8138" xlink:href="file:///Users/erikbelt/Desktop/Mood Tracking App/AdCreator/image-generation-service/assets/Images_1wordBenefits-img19-2ce492fe.png" id="bf7c796b27" height="1286" preserveAspectRatio="xMidYMid meet"/></g></mask></g></g></g><mask id="dbc9b2cd48"><g filter="url(#40b4ee4f18)"><rect x="0" width="138" height="22" y="0" style="fill:#000000;fill-opacity:0.8;stroke:none;"/></g></mask></g></g></g><mask id="ba3c60744b"><g filter="url(#40b4ee4f18)"><rect x="0" width="810" y="0" height="809.999993" style="fill:#000000;fill-opacity:0.5;stroke:none;"/></g></mask></g><g clip-rule="nonzero" clip-path="url(#fb9c0430fd)"><path style=" stroke:none;fill-rule:nonzero;fill:#2f3030;fill-opacity:1;" d="M 629.550781 434.144531 L 525.445312 434.144531 L 525.445312 474.867188 L 537.300781 474.867188 L 537.882812 475.828125 L 542.609375 483.644531 L 547.335938 475.828125 L 547.917969 474.867188 L 629.550781 474.867188 Z M 629.550781 434.144531 "/></g><g mask="url(#7052e53858)" transform="matrix(1,0,0,1,229,277)"><g clip-path="url(#857a1bd352)"><g clip-rule="nonzero" clip-path="url(#941e91d95e)"><g mask="url(#f30c7f68ed)" transform="matrix(1,0,0,1,-0.000000000000028422,0)"><g id="351da23cdd" clip-path="url(#d72971d648)"><g mask="url(#6fe88bfdfa)" transform="matrix(0.019653,0,0,0.0198291,1.100007,0.939313)"><image width="8138" xlink:href="file:///Users/erikbelt/Desktop/Mood Tracking App/AdCreator/image-generation-service/assets/Images_1wordBenefits-img20-9558ba8a.png" id="095a52365e" height="1286" preserveAspectRatio="xMidYMid meet"/><mask id="6fe88bfdfa"><g transform="matrix(1,0,0,1,0,0.000000000000007105)"><image width="8138" xlink:href="file:///Users/erikbelt/Desktop/Mood Tracking App/AdCreator/image-generation-service/assets/Images_1wordBenefits-img21-2ce492fe.png" id="5cf6ed2bc2" height="1286" preserveAspectRatio="xMidYMid meet"/></g></mask></g></g><mask id="f30c7f68ed"><g filter="url(#40b4ee4f18)"><rect x="0" width="163" height="27" y="0" style="fill:#000000;fill-opacity:0.8;stroke:none;"/></g></mask></g></g></g><mask id="7052e53858"><g filter="url(#40b4ee4f18)"><rect x="0" width="810" y="0" height="809.999993" style="fill:#000000;fill-opacity:0.5;stroke:none;"/></g></mask></g><g clip-rule="nonzero" clip-path="url(#75c342e023)"><path style=" stroke:none;fill-rule:nonzero;fill:#2f3030;fill-opacity:1;" d="M 346.121094 260.246094 L 208.121094 260.246094 L 208.121094 301.128906 L 328.679688 301.128906 L 330.882812 303.609375 L 337.40625 310.949219 L 337.402344 301.128906 L 346.121094 301.128906 Z M 346.121094 260.246094 "/></g></g></svg>