<svg xmlns="http://www.w3.org/2000/svg" xmlns:xlink="http://www.w3.org/1999/xlink" width="1080" zoomAndPan="magnify" viewBox="0 0 810 809.999993" height="1080" preserveAspectRatio="xMidYMid meet" version="1.2"><defs><clipPath id="8fb0e2c5a2"><path d="M 87.683594 124.160156 L 370.835938 124.160156 L 370.835938 701.972656 L 87.683594 701.972656 Z M 87.683594 124.160156 "/></clipPath><clipPath id="04b5e63744"><path d="M 330.742188 124.714844 L 127.777344 124.714844 C 105.78125 124.714844 87.929688 142.566406 87.929688 164.5625 L 87.929688 662.046875 C 87.929688 684.042969 105.78125 701.894531 127.777344 701.894531 L 330.742188 701.894531 C 352.738281 701.894531 370.59375 684.042969 370.59375 662.046875 L 370.59375 164.5625 C 370.59375 142.566406 352.738281 124.714844 330.742188 124.714844 Z M 263.183594 142.996094 C 265.183594 142.996094 266.753906 144.566406 266.753906 146.566406 C 266.753906 148.566406 265.183594 150.136719 263.183594 150.136719 C 261.183594 150.136719 259.613281 148.566406 259.613281 146.566406 C 259.613281 144.566406 261.324219 142.996094 263.183594 142.996094 Z M 210.476562 144.140625 L 244.757812 144.140625 C 246.042969 144.140625 247.1875 145.140625 247.1875 146.566406 C 247.1875 147.996094 246.042969 148.996094 244.757812 148.996094 L 210.476562 148.996094 C 209.191406 148.996094 208.050781 147.996094 208.050781 146.566406 C 208.050781 145.140625 209.191406 144.140625 210.476562 144.140625 Z M 356.023438 664.332031 C 356.023438 677.328125 345.453125 687.898438 332.457031 687.898438 L 126.351562 687.898438 C 113.351562 687.898438 102.78125 677.328125 102.78125 664.332031 L 102.78125 162.992188 C 102.78125 149.996094 113.351562 139.425781 126.351562 139.425781 L 157.058594 139.425781 L 157.058594 145.851562 C 157.058594 153.136719 163.058594 159.136719 170.34375 159.136719 L 288.464844 159.136719 C 295.75 159.136719 301.746094 153.136719 301.746094 145.851562 L 301.746094 139.425781 L 332.3125 139.425781 C 345.3125 139.425781 355.878906 149.996094 355.878906 162.992188 L 355.878906 664.332031 Z M 356.023438 664.332031 "/></clipPath><clipPath id="078544b76c"><path d="M 102.648438 139.121094 L 356 139.121094 L 356 688 L 102.648438 688 Z M 102.648438 139.121094 "/></clipPath><clipPath id="a0aa9de29b"><path d="M 332.3125 139.425781 L 301.746094 139.425781 L 301.746094 145.851562 C 301.746094 153.136719 295.75 159.136719 288.464844 159.136719 L 170.484375 159.136719 C 163.199219 159.136719 157.203125 153.136719 157.203125 145.851562 L 157.203125 139.425781 L 126.351562 139.425781 C 113.351562 139.425781 102.78125 149.996094 102.78125 162.992188 L 102.78125 664.332031 C 102.78125 677.328125 113.351562 687.898438 126.351562 687.898438 L 332.3125 687.898438 C 345.3125 687.898438 355.878906 677.328125 355.878906 664.332031 L 355.878906 162.992188 C 356.023438 149.996094 345.453125 139.425781 332.3125 139.425781 Z M 332.3125 139.425781 "/></clipPath><clipPath id="296dd79530"><path d="M 208 144 L 247.675781 144 L 247.675781 149 L 208 149 Z M 208 144 "/></clipPath><clipPath id="4d553d7d3d"><path d="M 244.757812 144.140625 L 210.476562 144.140625 C 209.191406 144.140625 208.050781 145.140625 208.050781 146.566406 C 208.050781 147.996094 209.191406 148.996094 210.476562 148.996094 L 244.757812 148.996094 C 246.042969 148.996094 247.1875 147.996094 247.1875 146.566406 C 247.1875 145.140625 246.042969 144.140625 244.757812 144.140625 Z M 244.757812 144.140625 "/></clipPath><clipPath id="d75d007962"><path d="M 259.1875 142.574219 L 267 142.574219 L 267 150.632812 L 259.1875 150.632812 Z M 259.1875 142.574219 "/></clipPath><clipPath id="47e35117b9"><path d="M 263.183594 142.996094 C 261.210938 142.996094 259.613281 144.59375 259.613281 146.566406 C 259.613281 148.539062 261.210938 150.136719 263.183594 150.136719 C 265.15625 150.136719 266.753906 148.539062 266.753906 146.566406 C 266.753906 144.59375 265.15625 142.996094 263.183594 142.996094 Z M 263.183594 142.996094 "/></clipPath><clipPath id="2e81c5dce1"><path d="M 81.929688 198.976562 L 85.382812 198.976562 L 85.382812 223 L 81.929688 223 Z M 81.929688 198.976562 "/></clipPath><clipPath id="5e71a2da60"><path d="M 81.929688 201.984375 L 81.929688 219.839844 C 81.929688 221.554688 83.359375 222.980469 85.070312 222.980469 L 85.070312 198.988281 C 83.359375 198.988281 81.929688 200.273438 81.929688 201.984375 Z M 81.929688 201.984375 "/></clipPath><clipPath id="25302d7ab9"><path d="M 81.929688 240.414062 L 85.382812 240.414062 L 85.382812 284.152344 L 81.929688 284.152344 Z M 81.929688 240.414062 "/></clipPath><clipPath id="70d344a632"><path d="M 81.929688 243.835938 L 81.929688 280.972656 C 81.929688 282.6875 83.359375 284.113281 85.070312 284.113281 L 85.070312 240.835938 C 83.359375 240.835938 81.929688 242.121094 81.929688 243.835938 Z M 81.929688 243.835938 "/></clipPath><clipPath id="bbd80258cb"><path d="M 81.929688 293.359375 L 85.382812 293.359375 L 85.382812 337 L 81.929688 337 Z M 81.929688 293.359375 "/></clipPath><clipPath id="c444ed8a49"><path d="M 81.929688 296.683594 L 81.929688 333.820312 C 81.929688 335.535156 83.359375 336.960938 85.070312 336.960938 L 85.070312 293.542969 C 83.359375 293.542969 81.929688 294.96875 81.929688 296.683594 Z M 81.929688 296.683594 "/></clipPath><clipPath id="93d223f418"><path d="M 373.136719 255 L 376.589844 255 L 376.589844 325 L 373.136719 325 Z M 373.136719 255 "/></clipPath><clipPath id="2e0fc61e34"><path d="M 373.449219 255.121094 L 373.449219 324.679688 C 375.164062 324.679688 376.589844 323.25 376.589844 321.535156 L 376.589844 258.261719 C 376.589844 256.546875 375.164062 255.121094 373.449219 255.121094 Z M 373.449219 255.121094 "/></clipPath><clipPath id="0df2fc16c9"><path d="M 85 121.859375 L 374 121.859375 L 374 705 L 85 705 Z M 85 121.859375 "/></clipPath><clipPath id="457aceb9da"><path d="M 373.449219 255.121094 L 373.449219 164.5625 C 373.449219 161.566406 373.164062 158.707031 372.589844 155.996094 C 372.304688 154.566406 372.019531 153.28125 371.59375 151.851562 C 371.019531 149.851562 370.164062 147.851562 369.304688 145.996094 C 368.734375 144.710938 368.019531 143.566406 367.308594 142.425781 C 366.59375 141.28125 365.878906 140.140625 365.023438 138.996094 C 363.734375 137.285156 362.449219 135.855469 361.023438 134.285156 C 360.023438 133.285156 359.023438 132.425781 358.023438 131.570312 C 350.59375 125.429688 341.167969 121.859375 330.886719 121.859375 L 127.777344 121.859375 C 117.496094 121.859375 107.925781 125.570312 100.640625 131.570312 C 99.640625 132.425781 98.640625 133.425781 97.640625 134.285156 C 96.210938 135.710938 94.785156 137.285156 93.640625 138.996094 C 92.785156 140.140625 92.070312 141.28125 91.355469 142.425781 C 90.640625 143.566406 89.929688 144.855469 89.355469 145.996094 C 88.355469 147.996094 87.644531 149.851562 86.929688 151.851562 C 86.5 153.28125 86.214844 154.566406 85.929688 155.996094 C 85.359375 158.707031 85.070312 161.707031 85.070312 164.5625 L 85.070312 662.046875 C 85.070312 685.613281 104.210938 704.753906 127.777344 704.753906 L 330.742188 704.753906 C 354.308594 704.753906 373.449219 685.613281 373.449219 662.046875 Z M 370.59375 255.121094 L 370.59375 662.1875 C 370.59375 684.183594 352.738281 702.039062 330.742188 702.039062 L 127.777344 702.039062 C 105.78125 702.039062 87.929688 684.183594 87.929688 662.1875 L 87.929688 164.707031 C 87.929688 142.566406 105.78125 124.714844 127.777344 124.714844 L 330.742188 124.714844 C 352.738281 124.714844 370.59375 142.566406 370.59375 164.5625 Z M 370.59375 255.121094 "/></clipPath><clipPath id="46c572641c"><path d="M 436.914062 513.78125 L 667.542969 513.78125 L 667.542969 570.332031 L 436.914062 570.332031 Z M 436.914062 513.78125 "/></clipPath><clipPath id="22e63b08b1"><path d="M 465.191406 513.78125 L 639.109375 513.78125 C 646.605469 513.78125 653.800781 516.761719 659.101562 522.0625 C 664.40625 527.367188 667.382812 534.558594 667.382812 542.058594 C 667.382812 549.558594 664.40625 556.75 659.101562 562.050781 C 653.800781 567.355469 646.605469 570.332031 639.109375 570.332031 L 465.191406 570.332031 C 457.691406 570.332031 450.5 567.355469 445.195312 562.050781 C 439.894531 556.75 436.914062 549.558594 436.914062 542.058594 C 436.914062 534.558594 439.894531 527.367188 445.195312 522.0625 C 450.5 516.761719 457.691406 513.78125 465.191406 513.78125 Z M 465.191406 513.78125 "/></clipPath></defs><g id="a5e531da3d"><rect x="0" width="810" y="0" height="809.999993" style="fill:#ffffff;fill-opacity:1;stroke:none;"/><rect x="0" width="810" y="0" height="809.999993" style="fill:#e8b590;fill-opacity:1;stroke:none;"/><g transform="matrix(0.200893,0,0,0.200893,0.0000035,-202.49997)"><image width="4032" xlink:href="file:///Users/erikbelt/Desktop/Mood Tracking App/AdCreator/image-generation-service/assets/iPhone_Statement_CTA_EarthTones-img1-b9c67f10.jpg" height="6048" preserveAspectRatio="xMidYMid meet"/></g><g mask="url(#81d30e4c25)" transform="matrix(0,0.198788,0.198704,0,81.004583,121.853107)"><image width="3588" xlink:href="file:///Users/erikbelt/Desktop/Mood Tracking App/AdCreator/image-generation-service/assets/iPhone_Statement_CTA_EarthTones-img2-f09cc10f.png" height="2276" preserveAspectRatio="xMidYMid meet"/><mask id="81d30e4c25"><g transform="matrix(1,0,0,1,0,0.000000000000056843)"><image width="3588" xlink:href="file:///Users/erikbelt/Desktop/Mood Tracking App/AdCreator/image-generation-service/assets/iPhone_Statement_CTA_EarthTones-img3-d47fa9f6.png" height="2276" preserveAspectRatio="xMidYMid meet"/></g></mask></g><g clip-rule="nonzero" clip-path="url(#8fb0e2c5a2)"><g clip-rule="nonzero" clip-path="url(#04b5e63744)"><path style=" stroke:none;fill-rule:nonzero;fill:#000000;fill-opacity:1;" d="M 81.929688 121.859375 L 376.589844 121.859375 L 376.589844 705.425781 L 81.929688 705.425781 Z M 81.929688 121.859375 "/></g></g><g clip-rule="nonzero" clip-path="url(#078544b76c)"><g clip-rule="nonzero" clip-path="url(#a0aa9de29b)"><g transform="matrix(0.979729,0.000000000000000002,-0.000000000000000002,0.980423,-474.867693,139.425949)"><image width="1438" xlink:href="PLACE_SCREENSHOT_HERE" height="560" preserveAspectRatio="xMidYMid meet"/></g></g></g><g clip-rule="nonzero" clip-path="url(#296dd79530)"><g clip-rule="nonzero" clip-path="url(#4d553d7d3d)"><path style=" stroke:none;fill-rule:nonzero;fill:#555555;fill-opacity:1;" d="M 81.929688 121.859375 L 376.589844 121.859375 L 376.589844 705.425781 L 81.929688 705.425781 Z M 81.929688 121.859375 "/></g></g><g clip-rule="nonzero" clip-path="url(#d75d007962)"><g clip-rule="nonzero" clip-path="url(#47e35117b9)"><path style=" stroke:none;fill-rule:nonzero;fill:#555555;fill-opacity:1;" d="M 81.929688 121.859375 L 376.589844 121.859375 L 376.589844 705.425781 L 81.929688 705.425781 Z M 81.929688 121.859375 "/></g></g><g clip-rule="nonzero" clip-path="url(#2e81c5dce1)"><g clip-rule="nonzero" clip-path="url(#5e71a2da60)"><path style=" stroke:none;fill-rule:nonzero;fill:#2e2e2e;fill-opacity:1;" d="M 81.929688 121.859375 L 376.589844 121.859375 L 376.589844 705.425781 L 81.929688 705.425781 Z M 81.929688 121.859375 "/></g></g><g clip-rule="nonzero" clip-path="url(#25302d7ab9)"><g clip-rule="nonzero" clip-path="url(#70d344a632)"><path style=" stroke:none;fill-rule:nonzero;fill:#2e2e2e;fill-opacity:1;" d="M 81.929688 121.859375 L 376.589844 121.859375 L 376.589844 705.425781 L 81.929688 705.425781 Z M 81.929688 121.859375 "/></g></g><g clip-rule="nonzero" clip-path="url(#bbd80258cb)"><g clip-rule="nonzero" clip-path="url(#c444ed8a49)"><path style=" stroke:none;fill-rule:nonzero;fill:#2e2e2e;fill-opacity:1;" d="M 81.929688 121.859375 L 376.589844 121.859375 L 376.589844 705.425781 L 81.929688 705.425781 Z M 81.929688 121.859375 "/></g></g><g clip-rule="nonzero" clip-path="url(#93d223f418)"><g clip-rule="nonzero" clip-path="url(#2e0fc61e34)"><path style=" stroke:none;fill-rule:nonzero;fill:#2e2e2e;fill-opacity:1;" d="M 81.929688 121.859375 L 376.589844 121.859375 L 376.589844 705.425781 L 81.929688 705.425781 Z M 81.929688 121.859375 "/></g></g><g clip-rule="nonzero" clip-path="url(#0df2fc16c9)"><g clip-rule="nonzero" clip-path="url(#457aceb9da)"><path style=" stroke:none;fill-rule:nonzero;fill:#555555;fill-opacity:1;" d="M 81.929688 121.859375 L 376.589844 121.859375 L 376.589844 705.425781 L 81.929688 705.425781 Z M 81.929688 121.859375 "/></g></g><g clip-rule="nonzero" clip-path="url(#46c572641c)"><g clip-rule="nonzero" clip-path="url(#22e63b08b1)"><path style=" stroke:none;fill-rule:nonzero;fill:#7d6049;fill-opacity:1;" d="M 436.914062 513.78125 L 667.320312 513.78125 L 667.320312 570.332031 L 436.914062 570.332031 Z M 436.914062 513.78125 "/></g></g></g></svg>