<svg xmlns="http://www.w3.org/2000/svg" xmlns:xlink="http://www.w3.org/1999/xlink" width="1080" zoomAndPan="magnify" viewBox="0 0 810 809.999993" height="1080" preserveAspectRatio="xMidYMid meet" version="1.2"><defs><filter x="0%" y="0%" width="100%" filterUnits="objectBoundingBox" id="ea1019bb23" height="100%"><feColorMatrix values="0 0 0 0 1 0 0 0 0 1 0 0 0 0 1 0 0 0 1 0" type="matrix" in="SourceGraphic"/></filter><clipPath id="e6d8cb5bb7"><path d="M 1.304688 0.269531 L 716.804688 0.269531 L 716.804688 225 L 1.304688 225 Z M 1.304688 0.269531 "/></clipPath><clipPath id="c45617293c"><rect x="0" width="717" y="0" height="225"/></clipPath><clipPath id="3bde2134e3"><path d="M 0.230469 1 L 272 1 L 272 282 L 0.230469 282 Z M 0.230469 1 "/></clipPath><clipPath id="e981d7afb5"><rect x="0" width="272" y="0" height="282"/></clipPath><clipPath id="9a4ff2e1f3"><path d="M 0 0 L 352.582031 0 L 352.582031 360.527344 L 0 360.527344 Z M 0 0 "/></clipPath><clipPath id="a0995552f4"><rect x="0" width="354" y="0" height="361"/></clipPath><clipPath id="40f8e57430"><path d="M 47.191406 47.503906 L 762 47.503906 L 762 756.496094 L 47.191406 756.496094 Z M 47.191406 47.503906 "/></clipPath><clipPath id="9c1974306b"><path d="M 732.429688 756.496094 L 77.570312 756.496094 C 60.832031 756.496094 47.191406 742.855469 47.191406 726.117188 L 47.191406 77.882812 C 47.191406 61.144531 60.832031 47.503906 77.570312 47.503906 L 732.429688 47.503906 C 749.167969 47.503906 762.808594 61.144531 762.808594 77.882812 L 762.808594 726.117188 C 762.808594 742.855469 749.167969 756.496094 732.429688 756.496094 Z M 732.429688 756.496094 "/></clipPath><clipPath id="8352cc700a"><path d="M 81 389.945312 L 468 389.945312 L 468 686.195312 L 81 686.195312 Z M 81 389.945312 "/></clipPath><clipPath id="e06b6c4bb0"><path d="M 81 81 L 468 81 L 468 366 L 81 366 Z M 81 81 "/></clipPath><clipPath id="a42d428083"><path d="M 81 698.890625 L 102.75 698.890625 L 102.75 725 L 81 725 Z M 81 698.890625 "/></clipPath><clipPath id="dc19ee4818"><path d="M 698.019531 699 L 728.769531 699 L 728.769531 725.140625 L 698.019531 725.140625 Z M 698.019531 699 "/></clipPath></defs><g id="6c530d34e2"><rect x="0" width="810" y="0" height="809.999993" style="fill:#ffffff;fill-opacity:1;stroke:none;"/><rect x="0" width="810" y="0" height="809.999993" style="fill:COLOR_BRANDCOLOR;fill-opacity:1;stroke:none;"/><g mask="url(#5f9e64695f)" transform="matrix(1,0,0,1,46,585)"><g clip-path="url(#c45617293c)"><g clip-rule="nonzero" clip-path="url(#e6d8cb5bb7)"><g mask="url(#26de86c9b6)" transform="matrix(0,0.184683,-0.184788,0,716.805102,0.26835)"><image width="1531" xlink:href="file:///Users/erikbelt/Desktop/Mood Tracking App/AdCreator/image-generation-service/assets/Meme4-img1-617070e0.png" id="053b1fa052" height="3872" preserveAspectRatio="xMidYMid meet"/><mask id="26de86c9b6"><g transform="matrix(1,0,0,1,0,0)"><image width="1531" xlink:href="file:///Users/erikbelt/Desktop/Mood Tracking App/AdCreator/image-generation-service/assets/Meme4-img2-f859ab52.png" id="a2eca07034" height="3872" preserveAspectRatio="xMidYMid meet"/></g></mask></g></g></g><mask id="5f9e64695f"><g filter="url(#ea1019bb23)"><rect x="0" width="810" y="0" height="809.999993" style="fill:#000000;fill-opacity:0.98;stroke:none;"/></g></mask></g><g mask="url(#4224ec1763)" transform="matrix(1,0,0,1,538,528)"><g clip-path="url(#e981d7afb5)"><g clip-rule="nonzero" clip-path="url(#3bde2134e3)"><path style=" stroke:none;fill-rule:nonzero;fill:#ffffff;fill-opacity:1;" d="M 396.984375 129.3125 C 394.113281 128.164062 391.429688 126.820312 388.558594 125.671875 C 360.21875 113.40625 339.917969 95.777344 320.769531 66.839844 C 318.28125 63.199219 315.789062 58.980469 313.109375 54.765625 C 298.171875 30.621094 279.40625 0.339844 248.574219 1.109375 C 212.191406 1.683594 190.359375 38.859375 169.101562 74.695312 C 156.082031 96.734375 143.824219 117.429688 128.890625 129.503906 C 117.207031 138.894531 101.503906 147.328125 85.035156 156.335938 C 45.394531 177.796875 0.585938 202.136719 0.585938 247.363281 C 0.585938 288.371094 45.394531 315.585938 84.84375 339.539062 C 104.378906 351.421875 122.953125 362.535156 135.015625 374.609375 C 146.890625 386.492188 156.65625 403.738281 167.1875 422.136719 C 187.488281 458.164062 208.550781 495.339844 248.191406 495.339844 C 248.191406 495.339844 248.382812 495.339844 248.382812 495.339844 C 377.835938 494.765625 495.988281 376.527344 496.179688 247.363281 C 496.371094 172.238281 454.625 154.226562 396.984375 129.3125 Z M 248.382812 493.617188 C 248.382812 493.617188 248.191406 493.617188 248.191406 493.617188 C 209.699219 493.617188 188.828125 456.820312 168.71875 421.367188 C 158.378906 402.972656 148.421875 385.339844 136.355469 373.460938 C 124.101562 361.386719 105.527344 350.078125 85.800781 338.199219 C 46.738281 314.242188 2.5 287.414062 2.5 247.363281 C 2.5 203.285156 46.738281 179.332031 85.800781 158.058594 C 102.460938 149.050781 118.164062 140.621094 129.847656 131.039062 C 145.167969 118.773438 157.421875 97.882812 170.636719 75.65625 C 191.507812 40.203125 213.339844 3.597656 248.382812 2.832031 C 248.765625 2.832031 248.957031 2.832031 249.339844 2.832031 C 278.449219 2.832031 296.640625 32.152344 311.195312 55.722656 C 313.875 59.941406 316.363281 64.15625 318.855469 67.796875 C 338.386719 97.117188 358.878906 114.941406 387.601562 127.398438 C 390.472656 128.546875 393.347656 129.886719 396.027344 131.039062 C 453.09375 155.566406 494.457031 173.390625 494.265625 247.363281 C 494.074219 375.757812 376.878906 493.042969 248.382812 493.617188 Z M 248.382812 493.617188 "/></g><path style=" stroke:none;fill-rule:nonzero;fill:#ffffff;fill-opacity:1;" d="M 472.433594 246.019531 C 469.945312 189.488281 425.902344 166.683594 379.175781 142.535156 L 373.429688 139.46875 C 356.769531 130.847656 339.917969 115.132812 323.640625 99.800781 C 299.128906 76.804688 273.660156 53.042969 247.042969 51.890625 C 217.167969 50.550781 189.210938 80.0625 164.316406 106.125 C 152.441406 118.582031 141.144531 130.464844 130.421875 138.320312 C 120.273438 145.792969 108.589844 152.5 96.335938 159.398438 C 60.332031 179.90625 22.992188 201.175781 21.652344 245.828125 C 20.308594 285.113281 59.949219 311.367188 94.992188 334.558594 C 110.695312 344.90625 125.441406 354.871094 135.78125 365.21875 C 146.125 375.757812 155.507812 389.75 165.273438 404.503906 C 186.914062 437.273438 209.125 471.003906 247.234375 471.386719 C 247.808594 471.386719 248.382812 471.386719 248.957031 471.386719 C 304.875 471.386719 362.707031 444.75 407.707031 397.988281 C 450.988281 353.335938 474.734375 297.761719 472.433594 246.019531 Z M 406.175781 396.839844 C 361.367188 443.214844 304.109375 469.660156 248.765625 469.660156 C 248.191406 469.660156 247.617188 469.660156 247.042969 469.660156 C 209.890625 469.277344 188.0625 435.933594 166.804688 403.738281 C 157.039062 388.789062 147.65625 374.609375 137.125 364.070312 C 126.78125 353.722656 111.84375 343.753906 96.144531 333.214844 C 61.671875 310.21875 22.417969 284.15625 23.757812 246.019531 C 25.289062 202.328125 62.054688 181.4375 97.484375 161.125 C 109.929688 154.035156 121.613281 147.328125 131.761719 139.851562 C 142.675781 131.804688 153.976562 119.921875 165.847656 107.464844 C 189.785156 82.363281 216.976562 53.808594 245.320312 53.808594 C 245.894531 53.808594 246.46875 53.808594 247.042969 53.808594 C 273.085938 54.957031 298.171875 78.527344 322.492188 101.335938 C 338.769531 116.664062 355.621094 132.378906 372.664062 141.195312 L 378.410156 144.261719 C 424.5625 168.214844 468.222656 190.636719 470.710938 246.019531 C 472.816406 297.378906 449.265625 352.378906 406.175781 396.839844 Z M 406.175781 396.839844 "/><path style=" stroke:none;fill-rule:nonzero;fill:#ffffff;fill-opacity:1;" d="M 362.707031 151.734375 L 358.878906 149.433594 C 348.917969 143.6875 338.769531 136.59375 327.855469 129.3125 C 299.511719 109.957031 270.214844 90.027344 243.789062 89.070312 C 213.722656 88.109375 179.253906 112.257812 148.804688 133.527344 C 142.867188 137.554688 137.316406 141.578125 132.144531 145.027344 C 125.632812 149.433594 118.738281 153.652344 111.460938 158.058594 C 78.332031 178.179688 40.609375 200.984375 40.800781 242.1875 C 40.992188 278.40625 74.695312 304.660156 104.378906 327.851562 C 116.058594 337.046875 127.164062 345.671875 136.164062 354.488281 C 144.398438 362.917969 152.632812 373.269531 161.058594 384.382812 C 182.890625 412.9375 207.785156 445.324219 243.210938 445.324219 C 243.402344 445.324219 243.789062 445.324219 243.980469 445.324219 C 296.640625 444.558594 355.238281 415.621094 396.792969 369.433594 C 432.410156 329.957031 450.605469 283.582031 446.964844 241.996094 C 442.5625 198.300781 400.242188 173.582031 362.707031 151.734375 Z M 395.070312 368.285156 C 353.898438 413.894531 295.875 442.832031 243.597656 443.40625 C 243.402344 443.40625 243.210938 443.40625 242.828125 443.40625 C 208.359375 443.40625 183.847656 411.402344 162.210938 383.234375 C 153.59375 372.117188 145.550781 361.578125 137.125 353.144531 C 128.121094 344.140625 117.015625 335.515625 105.335938 326.316406 C 74.503906 302.363281 42.714844 277.449219 42.523438 242.1875 C 42.332031 201.945312 79.484375 179.523438 112.230469 159.59375 C 119.503906 155.183594 126.589844 150.96875 133.101562 146.558594 C 138.464844 142.917969 144.015625 139.085938 149.761719 135.0625 C 177.914062 115.324219 212.765625 90.984375 241.871094 90.984375 C 242.445312 90.984375 243.019531 90.984375 243.597656 90.984375 C 269.449219 91.945312 298.554688 111.683594 326.707031 130.847656 C 337.621094 138.320312 347.960938 145.21875 357.917969 151.160156 L 361.75 153.460938 C 398.898438 175.113281 440.835938 199.644531 444.667969 242.378906 C 448.304688 283.390625 430.304688 329.191406 395.070312 368.285156 Z M 395.070312 368.285156 "/><path style=" stroke:none;fill-rule:nonzero;fill:#ffffff;fill-opacity:1;" d="M 343.558594 156.140625 C 299.320312 128.738281 263.894531 115.132812 238.425781 115.132812 C 205.871094 115.324219 122.570312 149.242188 81.398438 191.019531 C 65.695312 206.925781 57.652344 222.449219 57.84375 237.011719 C 58.226562 272.851562 88.292969 299.296875 114.910156 322.484375 C 122.570312 329.191406 129.847656 335.515625 136.164062 342.03125 C 142.484375 348.355469 148.421875 355.253906 154.933594 362.535156 C 177.71875 388.214844 203.382812 417.34375 238.425781 417.726562 C 238.808594 417.726562 239.191406 417.726562 239.765625 417.726562 C 285.34375 417.726562 336.855469 392.046875 374.195312 350.65625 C 406.75 314.433594 423.21875 273.042969 419.007812 237.011719 C 414.792969 200.027344 373.621094 174.539062 343.558594 156.140625 Z M 372.664062 349.121094 C 335.707031 390.132812 284.769531 415.621094 239.765625 415.621094 C 239.382812 415.621094 239 415.621094 238.425781 415.621094 C 204.339844 415.238281 180.019531 387.640625 156.464844 361.195312 C 149.953125 353.914062 143.824219 347.011719 137.507812 340.6875 C 130.996094 334.171875 123.71875 327.851562 116.058594 321.140625 C 89.824219 298.144531 60.140625 271.890625 59.757812 237.011719 C 59.566406 223.023438 67.417969 208.078125 82.738281 192.363281 C 122.761719 151.734375 206.828125 117.238281 238.425781 117.046875 C 238.617188 117.046875 238.617188 117.046875 238.808594 117.046875 C 263.894531 117.046875 298.9375 130.847656 342.792969 157.867188 C 372.472656 176.265625 413.070312 201.367188 417.285156 237.207031 C 421.113281 272.464844 405.027344 313.476562 372.664062 349.121094 Z M 372.664062 349.121094 "/><path style=" stroke:none;fill-rule:nonzero;fill:#ffffff;fill-opacity:1;" d="M 324.789062 162.65625 C 291.851562 144.453125 253.746094 131.804688 232.105469 131.804688 C 201.847656 131.804688 129.847656 150.203125 94.035156 186.421875 C 80.632812 200.027344 73.929688 214.785156 73.929688 230.113281 C 74.3125 265.949219 102.460938 293.164062 127.164062 317.308594 C 130.613281 320.566406 133.867188 323.824219 137.125 327.082031 C 140.1875 330.148438 143.058594 333.214844 146.125 336.28125 C 169.871094 360.621094 196.679688 388.023438 231.914062 388.40625 C 232.296875 388.40625 232.488281 388.40625 232.871094 388.40625 C 274.234375 388.40625 318.664062 366.558594 351.601562 329.957031 C 379.75 298.527344 393.730469 262.117188 390.089844 230.113281 C 387.792969 208.652344 363.855469 184.121094 324.789062 162.65625 Z M 350.257812 328.617188 C 318.089844 364.453125 273.277344 386.492188 233.0625 386.492188 C 232.871094 386.492188 232.488281 386.492188 232.296875 386.492188 C 197.828125 386.300781 171.210938 359.085938 147.847656 334.941406 C 144.78125 331.875 141.71875 328.617188 138.847656 325.742188 C 135.589844 322.484375 132.335938 319.226562 128.890625 315.96875 C 104.378906 292.207031 76.609375 264.992188 76.226562 230.113281 C 76.035156 215.359375 82.546875 200.984375 95.761719 187.761719 C 130.804688 152.308594 203.382812 133.722656 232.488281 133.722656 C 275.765625 133.722656 383.195312 184.121094 388.558594 230.304688 C 392.007812 261.734375 378.027344 297.570312 350.257812 328.617188 Z M 350.257812 328.617188 "/><path style=" stroke:none;fill-rule:nonzero;fill:#ffffff;fill-opacity:1;" d="M 225.976562 141.769531 C 225.785156 141.769531 225.402344 141.769531 225.210938 141.769531 C 199.359375 142.152344 136.355469 152.882812 105.910156 184.121094 C 94.800781 195.429688 89.441406 208.460938 89.632812 222.640625 C 90.015625 247.746094 108.207031 281.472656 137.125 310.601562 C 166.613281 340.113281 199.550781 358.128906 225.210938 358.511719 C 225.59375 358.511719 226.167969 358.511719 226.742188 358.511719 C 261.980469 358.511719 299.320312 340.6875 326.707031 310.792969 C 351.410156 283.773438 363.855469 251.578125 360.984375 222.640625 C 355.8125 175.304688 264.277344 141.769531 225.976562 141.769531 Z M 324.980469 309.453125 C 297.980469 338.964844 261.214844 356.59375 226.550781 356.59375 C 226.167969 356.59375 225.59375 356.59375 225.210938 356.59375 C 200.507812 356.210938 167.1875 338.199219 138.464844 309.261719 C 109.929688 280.515625 91.738281 247.363281 91.355469 222.640625 C 91.164062 209.035156 96.527344 196.578125 107.058594 185.464844 C 118.738281 173.390625 135.398438 164.382812 153.015625 157.867188 C 140.761719 162.464844 129.464844 168.789062 120.464844 177.414062 C 109.738281 187.953125 104.378906 200.410156 104.570312 214.785156 C 104.761719 240.078125 120.273438 270.550781 145.167969 294.503906 C 167.378906 315.96875 193.039062 328.042969 215.828125 328.042969 C 216.402344 328.042969 217.167969 328.042969 217.742188 328.042969 C 249.53125 327.082031 281.894531 311.753906 304.109375 287.03125 C 323.257812 265.949219 332.640625 240.269531 330.917969 214.785156 C 327.472656 166.300781 253.171875 148.285156 217.742188 147.136719 C 203.957031 146.945312 179.828125 148.859375 157.230469 156.527344 C 183.273438 147.519531 210.273438 143.878906 225.019531 143.6875 C 245.511719 143.496094 278.257812 152.691406 304.683594 166.109375 C 323.640625 175.6875 356.003906 195.8125 358.6875 222.832031 C 361.75 251.195312 349.300781 282.816406 324.980469 309.453125 Z M 121.804688 178.949219 C 146.125 155.183594 190.742188 149.242188 213.914062 149.242188 C 215.253906 149.242188 216.402344 149.242188 217.742188 149.242188 C 234.019531 149.820312 261.40625 154.226562 285.34375 164.957031 C 304.300781 173.582031 327.28125 189.296875 329.195312 214.976562 C 330.917969 239.886719 321.726562 264.992188 302.960938 285.882812 C 280.9375 310.21875 249.148438 325.359375 217.933594 326.316406 C 195.148438 327.082031 169.292969 315.011719 146.699219 293.355469 C 122.1875 269.785156 106.867188 239.695312 106.675781 214.976562 C 106.484375 201.175781 111.652344 189.105469 121.804688 178.949219 Z M 154.167969 157.675781 C 154.933594 157.484375 155.699219 157.101562 156.273438 156.910156 C 155.507812 157.101562 154.933594 157.484375 154.167969 157.675781 Z M 154.167969 157.675781 "/><path style=" stroke:none;fill-rule:nonzero;fill:#ffffff;fill-opacity:1;" d="M 210.273438 298.335938 C 210.464844 298.335938 210.65625 298.335938 210.851562 298.335938 C 235.746094 298.144531 260.257812 287.222656 277.875 268.441406 C 294.152344 251.195312 302.578125 229.539062 301.429688 207.5 C 300.46875 189.105469 288.597656 173.773438 267.148438 163.425781 C 251.0625 155.757812 230 150.96875 210.660156 150.777344 C 184.804688 150.585938 150.910156 156.527344 132.910156 174.539062 C 124.101562 183.355469 119.695312 194.46875 119.886719 207.5 C 120.65625 252.726562 166.039062 298.335938 210.273438 298.335938 Z M 134.441406 176.074219 C 151.484375 158.824219 183.847656 152.691406 208.933594 152.691406 C 209.507812 152.691406 210.082031 152.691406 210.660156 152.691406 C 243.980469 153.078125 297.597656 168.40625 299.511719 207.5 C 300.660156 228.964844 292.425781 250.042969 276.339844 266.910156 C 258.914062 285.304688 234.976562 296.039062 210.65625 296.230469 C 210.464844 296.230469 210.273438 296.230469 210.082031 296.230469 C 166.996094 296.230469 122.378906 251.578125 121.804688 207.308594 C 121.804688 195.042969 126.015625 184.503906 134.441406 176.074219 Z M 134.441406 176.074219 "/><path style=" stroke:none;fill-rule:nonzero;fill:#ffffff;fill-opacity:1;" d="M 204.53125 269.207031 C 204.722656 269.207031 204.914062 269.207031 205.105469 269.207031 C 222.339844 269.207031 239.957031 261.542969 252.980469 248.128906 C 266 234.90625 273.085938 217.65625 272.703125 200.792969 C 272.320312 185.65625 263.894531 173.007812 248 164.574219 C 235.9375 158.058594 219.660156 154.226562 204.53125 154.226562 C 204.53125 154.226562 204.53125 154.226562 204.339844 154.226562 C 185.378906 154.226562 160.292969 160.550781 146.507812 174.539062 C 139.421875 181.820312 135.78125 190.636719 135.972656 200.601562 C 136.933594 235.097656 170.636719 269.015625 204.53125 269.207031 Z M 148.039062 176.074219 C 161.445312 162.464844 185.953125 156.335938 204.53125 156.335938 C 204.53125 156.335938 204.53125 156.335938 204.722656 156.335938 C 230 156.335938 270.214844 168.40625 270.980469 200.984375 C 271.363281 217.464844 264.277344 234.140625 251.832031 246.980469 C 238.808594 260.203125 221.574219 267.675781 204.722656 267.484375 C 172.550781 267.101562 139.039062 233.5625 138.273438 200.984375 C 137.890625 191.402344 141.335938 183.164062 148.039062 176.074219 Z M 148.039062 176.074219 "/><path style=" stroke:none;fill-rule:nonzero;fill:#ffffff;fill-opacity:1;" d="M 198.976562 241.421875 C 199.167969 241.421875 199.359375 241.421875 199.550781 241.421875 C 225.019531 241.230469 245.511719 220.53125 245.320312 195.621094 C 245.320312 184.503906 239.765625 175.304688 229.808594 168.980469 C 221.574219 163.808594 210.660156 160.742188 199.550781 160.742188 C 188.0625 160.550781 172.359375 163.808594 162.59375 173.773438 C 156.65625 179.714844 153.59375 187.1875 153.785156 195.8125 C 153.976562 208.078125 158.761719 219.574219 167.378906 228.199219 C 175.613281 236.628906 186.914062 241.421875 198.976562 241.421875 Z M 163.742188 174.921875 C 172.933594 165.722656 187.679688 162.464844 198.59375 162.464844 C 198.785156 162.464844 199.167969 162.464844 199.359375 162.464844 C 229.425781 162.851562 243.210938 179.90625 243.210938 195.429688 C 243.402344 219.382812 223.679688 239.121094 199.359375 239.3125 C 187.679688 239.503906 176.761719 234.90625 168.527344 226.472656 C 160.292969 218.042969 155.699219 207.117188 155.507812 195.429688 C 155.316406 187.378906 158.1875 180.480469 163.742188 174.921875 Z M 163.742188 174.921875 "/><path style=" stroke:none;fill-rule:nonzero;fill:#ffffff;fill-opacity:1;" d="M 195.722656 215.359375 C 195.722656 215.359375 195.914062 215.359375 195.914062 215.359375 C 202.230469 215.359375 208.359375 212.675781 212.765625 208.078125 C 216.976562 203.667969 219.277344 197.917969 219.277344 191.785156 C 219.085938 179.523438 209.890625 171.472656 195.914062 171.472656 C 181.933594 171.28125 172.742188 179.332031 172.550781 191.785156 C 172.550781 198.109375 174.847656 204.050781 179.253906 208.460938 C 183.65625 212.867188 189.402344 215.359375 195.722656 215.359375 Z M 195.722656 173.390625 C 195.914062 173.390625 195.914062 173.390625 196.105469 173.390625 C 209.125 173.582031 217.359375 180.671875 217.550781 191.785156 C 217.550781 197.34375 215.445312 202.710938 211.617188 206.734375 C 207.59375 210.949219 201.847656 213.25 196.105469 213.25 C 190.359375 213.25 184.804688 211.140625 180.785156 206.925781 C 176.761719 202.902344 174.65625 197.535156 174.65625 191.785156 C 174.65625 180.671875 182.890625 173.390625 195.722656 173.390625 Z M 195.722656 173.390625 "/></g><mask id="4224ec1763"><g filter="url(#ea1019bb23)"><rect x="0" width="810" y="0" height="809.999993" style="fill:#000000;fill-opacity:0.29;stroke:none;"/></g></mask></g><g mask="url(#1272890443)" transform="matrix(1,0,0,1,0,0.000000000000039746)"><g clip-path="url(#a0995552f4)"><g clip-rule="nonzero" clip-path="url(#9a4ff2e1f3)"><path style=" stroke:none;fill-rule:nonzero;fill:#ffffff;fill-opacity:1;" d="M 252.835938 -5.441406 C 249.964844 -6.589844 247.285156 -7.933594 244.410156 -9.082031 C 216.070312 -21.347656 195.769531 -38.976562 176.621094 -67.914062 C 174.132812 -71.558594 171.640625 -75.773438 168.960938 -79.988281 C 154.023438 -104.136719 135.257812 -134.414062 104.425781 -133.648438 C 68.042969 -133.074219 46.210938 -95.894531 24.957031 -60.058594 C 11.933594 -38.019531 -0.324219 -17.324219 -15.257812 -5.25 C -26.941406 4.140625 -42.644531 12.570312 -59.113281 21.578125 C -98.753906 43.042969 -143.5625 67.378906 -143.5625 112.605469 C -143.5625 153.617188 -98.753906 180.828125 -59.304688 204.785156 C -39.769531 216.667969 -21.195312 227.78125 -9.132812 239.855469 C 2.742188 251.734375 12.507812 268.984375 23.039062 287.378906 C 43.339844 323.410156 64.402344 360.585938 104.042969 360.585938 C 104.042969 360.585938 104.234375 360.585938 104.234375 360.585938 C 233.6875 360.011719 351.839844 241.769531 352.03125 112.605469 C 352.222656 37.484375 310.476562 19.472656 252.835938 -5.441406 Z M 104.234375 358.859375 C 104.234375 358.859375 104.042969 358.859375 104.042969 358.859375 C 65.550781 358.859375 44.679688 322.066406 24.570312 286.613281 C 14.230469 268.214844 4.273438 250.585938 -7.789062 238.703125 C -20.046875 226.632812 -38.621094 215.324219 -58.347656 203.441406 C -97.410156 179.488281 -141.648438 152.660156 -141.648438 112.605469 C -141.648438 68.53125 -97.410156 44.574219 -58.347656 23.304688 C -41.6875 14.296875 -25.984375 5.863281 -14.300781 -3.71875 C 1.019531 -15.980469 13.273438 -36.871094 26.488281 -59.101562 C 47.359375 -94.554688 69.191406 -131.15625 104.234375 -131.921875 C 104.617188 -131.921875 104.808594 -131.921875 105.191406 -131.921875 C 134.300781 -131.921875 152.492188 -102.601562 167.046875 -79.03125 C 169.726562 -74.816406 172.214844 -70.597656 174.707031 -66.957031 C 194.238281 -37.636719 214.730469 -19.816406 243.453125 -7.359375 C 246.324219 -6.207031 249.199219 -4.867188 251.878906 -3.71875 C 308.945312 20.8125 350.308594 38.636719 350.117188 112.605469 C 349.925781 241.003906 232.730469 358.285156 104.234375 358.859375 Z M 104.234375 358.859375 "/></g><path style=" stroke:none;fill-rule:nonzero;fill:#ffffff;fill-opacity:1;" d="M 328.285156 111.265625 C 325.796875 54.734375 281.753906 31.925781 235.027344 7.78125 L 229.28125 4.714844 C 212.621094 -3.910156 195.769531 -19.621094 179.492188 -34.953125 C 154.980469 -57.949219 129.511719 -81.714844 102.894531 -82.863281 C 73.019531 -84.203125 45.0625 -54.691406 20.167969 -28.628906 C 8.296875 -16.171875 -3.003906 -4.292969 -13.726562 3.566406 C -23.875 11.039062 -35.558594 17.746094 -47.8125 24.644531 C -83.816406 45.152344 -121.15625 66.421875 -122.496094 111.074219 C -123.839844 150.359375 -84.199219 176.613281 -49.152344 199.800781 C -33.453125 210.152344 -18.707031 220.117188 -8.367188 230.464844 C 1.976562 241.003906 11.359375 254.992188 21.125 269.75 C 42.765625 302.519531 64.976562 336.25 103.085938 336.632812 C 103.660156 336.632812 104.234375 336.632812 104.808594 336.632812 C 160.726562 336.632812 218.558594 309.992188 263.5625 263.234375 C 306.839844 218.582031 330.585938 163.007812 328.285156 111.265625 Z M 262.027344 262.085938 C 217.21875 308.460938 159.960938 334.90625 104.617188 334.90625 C 104.042969 334.90625 103.46875 334.90625 102.894531 334.90625 C 65.742188 334.523438 43.914062 301.179688 22.65625 268.984375 C 12.890625 254.035156 3.507812 239.855469 -7.023438 229.3125 C -17.367188 218.964844 -32.300781 209 -48.003906 198.460938 C -82.476562 175.464844 -121.730469 149.402344 -120.390625 111.265625 C -118.859375 67.570312 -82.089844 46.683594 -46.664062 26.371094 C -34.21875 19.28125 -22.535156 12.570312 -12.386719 5.097656 C -1.472656 -2.949219 9.828125 -14.832031 21.699219 -27.289062 C 45.636719 -52.394531 72.828125 -80.945312 101.171875 -80.945312 C 101.746094 -80.945312 102.320312 -80.945312 102.894531 -80.945312 C 128.9375 -79.796875 154.023438 -56.226562 178.34375 -33.421875 C 194.621094 -18.089844 211.472656 -2.375 228.515625 6.441406 L 234.261719 9.507812 C 280.414062 33.460938 324.074219 55.882812 326.5625 111.265625 C 328.667969 162.625 305.117188 217.625 262.027344 262.085938 Z M 262.027344 262.085938 "/><path style=" stroke:none;fill-rule:nonzero;fill:#ffffff;fill-opacity:1;" d="M 218.558594 16.980469 L 214.730469 14.679688 C 204.769531 8.929688 194.621094 1.839844 183.707031 -5.441406 C 155.363281 -24.796875 126.066406 -44.726562 99.640625 -45.6875 C 69.574219 -46.644531 35.105469 -22.496094 4.65625 -1.226562 C -1.28125 2.796875 -6.832031 6.824219 -12.003906 10.273438 C -18.515625 14.679688 -25.410156 18.894531 -32.683594 23.304688 C -65.816406 43.425781 -103.539062 66.230469 -103.347656 107.433594 C -103.15625 143.652344 -69.453125 169.90625 -39.769531 193.09375 C -28.089844 202.292969 -16.984375 210.917969 -7.980469 219.734375 C 0.253906 228.164062 8.488281 238.511719 16.914062 249.628906 C 38.742188 278.183594 63.636719 310.570312 99.066406 310.570312 C 99.257812 310.570312 99.640625 310.570312 99.832031 310.570312 C 152.492188 309.800781 211.089844 280.863281 252.644531 234.679688 C 288.265625 195.203125 306.457031 148.828125 302.816406 107.242188 C 298.414062 63.546875 256.09375 38.828125 218.558594 16.980469 Z M 250.921875 233.53125 C 209.75 279.140625 151.726562 308.078125 99.449219 308.652344 C 99.257812 308.652344 99.066406 308.652344 98.679688 308.652344 C 64.210938 308.652344 39.699219 276.648438 18.0625 248.476562 C 9.445312 237.363281 1.402344 226.824219 -7.023438 218.390625 C -16.023438 209.382812 -27.132812 200.761719 -38.8125 191.5625 C -69.644531 167.605469 -101.433594 142.695312 -101.625 107.433594 C -101.816406 67.1875 -64.664062 44.765625 -31.917969 24.835938 C -24.640625 20.429688 -17.558594 16.214844 -11.046875 11.804688 C -5.683594 8.164062 -0.132812 4.332031 5.613281 0.308594 C 33.765625 -19.429688 68.617188 -43.769531 97.722656 -43.769531 C 98.296875 -43.769531 98.875 -43.769531 99.449219 -43.769531 C 125.300781 -42.8125 154.40625 -23.074219 182.558594 -3.910156 C 193.472656 3.566406 203.8125 10.464844 213.769531 16.40625 L 217.601562 18.703125 C 254.75 40.359375 296.691406 64.890625 300.519531 107.625 C 304.15625 148.636719 286.15625 194.4375 250.921875 233.53125 Z M 250.921875 233.53125 "/><path style=" stroke:none;fill-rule:nonzero;fill:#ffffff;fill-opacity:1;" d="M 199.410156 21.386719 C 155.171875 -6.015625 119.746094 -19.621094 94.277344 -19.621094 C 61.722656 -19.429688 -21.578125 14.488281 -62.75 56.265625 C -78.453125 72.171875 -86.496094 87.695312 -86.304688 102.257812 C -85.921875 138.09375 -55.855469 164.539062 -29.238281 187.730469 C -21.578125 194.4375 -14.300781 200.761719 -7.980469 207.277344 C -1.664062 213.601562 4.273438 220.5 10.785156 227.78125 C 33.574219 253.460938 59.234375 282.589844 94.277344 282.972656 C 94.660156 282.972656 95.042969 282.972656 95.617188 282.972656 C 141.195312 282.972656 192.707031 257.292969 230.046875 215.898438 C 262.601562 179.679688 279.070312 138.285156 274.859375 102.257812 C 270.644531 65.273438 229.472656 39.785156 199.410156 21.386719 Z M 228.515625 214.367188 C 191.558594 255.378906 140.621094 280.863281 95.617188 280.863281 C 95.234375 280.863281 94.851562 280.863281 94.277344 280.863281 C 60.191406 280.480469 35.871094 252.886719 12.316406 226.441406 C 5.804688 219.15625 -0.324219 212.257812 -6.640625 205.933594 C -13.152344 199.417969 -20.429688 193.09375 -28.089844 186.386719 C -54.324219 163.390625 -84.007812 137.136719 -84.390625 102.257812 C -84.582031 88.269531 -76.730469 73.320312 -61.410156 57.605469 C -21.386719 16.980469 62.679688 -17.515625 94.277344 -17.707031 C 94.46875 -17.707031 94.46875 -17.707031 94.660156 -17.707031 C 119.746094 -17.707031 154.789062 -3.910156 198.644531 23.113281 C 228.324219 41.507812 268.921875 66.613281 273.136719 102.449219 C 276.964844 137.710938 260.878906 178.722656 228.515625 214.367188 Z M 228.515625 214.367188 "/><path style=" stroke:none;fill-rule:nonzero;fill:#ffffff;fill-opacity:1;" d="M 180.640625 27.902344 C 147.703125 9.699219 109.597656 -2.949219 87.957031 -2.949219 C 57.703125 -2.949219 -14.300781 15.445312 -50.113281 51.667969 C -63.515625 65.273438 -70.21875 80.027344 -70.21875 95.359375 C -69.835938 131.195312 -41.6875 158.410156 -16.984375 182.554688 C -13.535156 185.8125 -10.28125 189.070312 -7.023438 192.328125 C -3.960938 195.394531 -1.089844 198.460938 1.976562 201.527344 C 25.722656 225.863281 52.53125 253.269531 87.765625 253.652344 C 88.148438 253.652344 88.339844 253.652344 88.722656 253.652344 C 130.085938 253.652344 174.515625 231.804688 207.453125 195.203125 C 235.601562 163.773438 249.582031 127.363281 245.941406 95.359375 C 243.644531 73.894531 219.707031 49.367188 180.640625 27.902344 Z M 206.113281 193.863281 C 173.941406 229.699219 129.128906 251.734375 88.914062 251.734375 C 88.722656 251.734375 88.339844 251.734375 88.148438 251.734375 C 53.679688 251.542969 27.0625 224.332031 3.699219 200.183594 C 0.636719 197.121094 -2.429688 193.863281 -5.300781 190.988281 C -8.558594 187.730469 -11.8125 184.472656 -15.257812 181.214844 C -39.769531 157.449219 -67.539062 130.238281 -67.921875 95.359375 C -68.113281 80.601562 -61.601562 66.230469 -48.386719 53.007812 C -13.34375 17.554688 59.234375 -1.035156 88.339844 -1.035156 C 131.621094 -1.035156 239.050781 49.367188 244.410156 95.550781 C 247.859375 126.980469 233.878906 162.816406 206.113281 193.863281 Z M 206.113281 193.863281 "/><path style=" stroke:none;fill-rule:nonzero;fill:#ffffff;fill-opacity:1;" d="M 81.828125 7.015625 C 81.636719 7.015625 81.253906 7.015625 81.0625 7.015625 C 55.210938 7.398438 -7.789062 18.128906 -38.238281 49.367188 C -49.347656 60.671875 -54.707031 73.703125 -54.515625 87.886719 C -54.132812 112.992188 -35.941406 146.71875 -7.023438 175.847656 C 22.464844 205.359375 55.402344 223.375 81.0625 223.757812 C 81.445312 223.757812 82.019531 223.757812 82.597656 223.757812 C 117.832031 223.757812 155.171875 205.933594 182.558594 176.039062 C 207.261719 149.019531 219.707031 116.824219 216.835938 87.886719 C 211.664062 40.550781 120.128906 7.015625 81.828125 7.015625 Z M 180.832031 174.699219 C 153.832031 204.210938 117.066406 221.839844 82.40625 221.839844 C 82.019531 221.839844 81.445312 221.839844 81.0625 221.839844 C 56.359375 221.457031 23.039062 203.441406 -5.683594 174.507812 C -34.21875 145.761719 -52.410156 112.605469 -52.792969 87.886719 C -52.984375 74.28125 -47.621094 61.824219 -37.089844 50.707031 C -25.410156 38.636719 -8.75 29.628906 8.871094 23.113281 C -3.386719 27.710938 -14.683594 34.035156 -23.683594 42.660156 C -34.410156 53.199219 -39.769531 65.65625 -39.578125 80.027344 C -39.386719 105.324219 -23.875 135.796875 1.019531 159.75 C 23.230469 181.214844 48.890625 193.285156 71.679688 193.285156 C 72.253906 193.285156 73.019531 193.285156 73.59375 193.285156 C 105.382812 192.328125 137.746094 176.996094 159.960938 152.277344 C 179.109375 131.195312 188.492188 105.515625 186.769531 80.027344 C 183.324219 31.542969 109.023438 13.53125 73.59375 12.378906 C 59.808594 12.1875 35.679688 14.105469 13.082031 21.769531 C 39.125 12.765625 66.128906 9.121094 80.871094 8.929688 C 101.363281 8.738281 134.109375 17.9375 160.535156 31.351562 C 179.492188 40.933594 211.855469 61.054688 214.539062 88.078125 C 217.601562 116.441406 205.152344 148.058594 180.832031 174.699219 Z M -22.34375 44.191406 C 1.976562 20.429688 46.59375 14.488281 69.765625 14.488281 C 71.105469 14.488281 72.253906 14.488281 73.59375 14.488281 C 89.871094 15.0625 117.257812 19.472656 141.195312 30.203125 C 160.152344 38.828125 183.132812 54.539062 185.046875 80.21875 C 186.769531 105.132812 177.578125 130.238281 158.8125 151.125 C 136.789062 175.464844 105 190.605469 73.785156 191.5625 C 51 192.328125 25.148438 180.253906 2.550781 158.601562 C -21.960938 135.027344 -37.28125 104.941406 -37.472656 80.21875 C -37.664062 66.421875 -32.492188 54.347656 -22.34375 44.191406 Z M 10.019531 22.921875 C 10.785156 22.730469 11.550781 22.34375 12.125 22.152344 C 11.359375 22.34375 10.785156 22.730469 10.019531 22.921875 Z M 10.019531 22.921875 "/><path style=" stroke:none;fill-rule:nonzero;fill:#ffffff;fill-opacity:1;" d="M 66.128906 163.582031 C 66.320312 163.582031 66.511719 163.582031 66.703125 163.582031 C 91.597656 163.390625 116.109375 152.46875 133.726562 133.6875 C 150.003906 116.441406 158.429688 94.785156 157.28125 72.746094 C 156.324219 54.347656 144.449219 39.019531 123 28.667969 C 106.917969 21.003906 85.851562 16.214844 66.511719 16.023438 C 40.65625 15.828125 6.761719 21.769531 -11.238281 39.785156 C -20.046875 48.601562 -24.449219 59.714844 -24.257812 72.746094 C -23.492188 117.972656 21.890625 163.582031 66.128906 163.582031 Z M -9.707031 41.316406 C 7.335938 24.070312 39.699219 17.9375 64.785156 17.9375 C 65.359375 17.9375 65.9375 17.9375 66.511719 17.9375 C 99.832031 18.320312 153.449219 33.652344 155.363281 72.746094 C 156.515625 94.210938 148.28125 115.289062 132.195312 132.152344 C 114.765625 150.550781 90.832031 161.28125 66.511719 161.472656 C 66.320312 161.472656 66.128906 161.472656 65.9375 161.472656 C 22.847656 161.472656 -21.769531 116.824219 -22.34375 72.554688 C -22.34375 60.289062 -18.132812 49.75 -9.707031 41.316406 Z M -9.707031 41.316406 "/><path style=" stroke:none;fill-rule:nonzero;fill:#ffffff;fill-opacity:1;" d="M 60.382812 134.453125 C 60.574219 134.453125 60.765625 134.453125 60.957031 134.453125 C 78.191406 134.453125 95.808594 126.789062 108.832031 113.375 C 121.851562 100.152344 128.9375 82.902344 128.554688 66.039062 C 128.171875 50.898438 119.746094 38.25 103.851562 29.820312 C 91.789062 23.304688 75.511719 19.472656 60.382812 19.472656 C 60.382812 19.472656 60.382812 19.472656 60.191406 19.472656 C 41.234375 19.472656 16.144531 25.796875 2.359375 39.785156 C -4.726562 47.066406 -8.367188 55.882812 -8.171875 65.847656 C -7.214844 100.34375 26.488281 134.261719 60.382812 134.453125 Z M 3.890625 41.316406 C 17.296875 27.710938 41.808594 21.578125 60.382812 21.578125 C 60.382812 21.578125 60.382812 21.578125 60.574219 21.578125 C 85.851562 21.578125 126.066406 33.652344 126.832031 66.230469 C 127.214844 82.710938 120.128906 99.382812 107.683594 112.222656 C 94.660156 125.445312 77.425781 132.921875 60.574219 132.730469 C 28.402344 132.34375 -5.109375 98.808594 -5.875 66.230469 C -6.257812 56.648438 -2.8125 48.410156 3.890625 41.316406 Z M 3.890625 41.316406 "/><path style=" stroke:none;fill-rule:nonzero;fill:#ffffff;fill-opacity:1;" d="M 54.828125 106.667969 C 55.019531 106.667969 55.210938 106.667969 55.402344 106.667969 C 80.871094 106.472656 101.363281 85.777344 101.171875 60.863281 C 101.171875 49.75 95.617188 40.550781 85.660156 34.226562 C 77.425781 29.054688 66.511719 25.988281 55.402344 25.988281 C 43.914062 25.796875 28.210938 29.054688 18.445312 39.019531 C 12.507812 44.957031 9.445312 52.433594 9.636719 61.054688 C 9.828125 73.320312 14.613281 84.820312 23.230469 93.441406 C 31.464844 101.875 42.765625 106.667969 54.828125 106.667969 Z M 19.59375 40.167969 C 28.785156 30.96875 43.53125 27.710938 54.445312 27.710938 C 54.636719 27.710938 55.019531 27.710938 55.210938 27.710938 C 85.277344 28.09375 99.066406 45.152344 99.066406 60.671875 C 99.257812 84.628906 79.53125 104.367188 55.210938 104.558594 C 43.53125 104.75 32.613281 100.152344 24.378906 91.71875 C 16.144531 83.285156 11.550781 72.363281 11.359375 60.671875 C 11.167969 52.625 14.039062 45.726562 19.59375 40.167969 Z M 19.59375 40.167969 "/><path style=" stroke:none;fill-rule:nonzero;fill:#ffffff;fill-opacity:1;" d="M 51.574219 80.601562 C 51.574219 80.601562 51.765625 80.601562 51.765625 80.601562 C 58.085938 80.601562 64.210938 77.921875 68.617188 73.320312 C 72.828125 68.914062 75.128906 63.164062 75.128906 57.03125 C 74.9375 44.765625 65.742188 36.71875 51.765625 36.71875 C 37.785156 36.527344 28.59375 44.574219 28.402344 57.03125 C 28.402344 63.355469 30.699219 69.296875 35.105469 73.703125 C 39.507812 78.113281 45.253906 80.601562 51.574219 80.601562 Z M 51.574219 38.636719 C 51.765625 38.636719 51.765625 38.636719 51.957031 38.636719 C 64.976562 38.828125 73.210938 45.917969 73.402344 57.03125 C 73.402344 62.589844 71.296875 67.957031 67.46875 71.980469 C 63.445312 76.195312 57.703125 78.496094 51.957031 78.496094 C 46.210938 78.496094 40.65625 76.386719 36.636719 72.171875 C 32.613281 68.148438 30.507812 62.78125 30.507812 57.03125 C 30.507812 45.917969 38.742188 38.636719 51.574219 38.636719 Z M 51.574219 38.636719 "/></g><mask id="1272890443"><g filter="url(#ea1019bb23)"><rect x="0" width="810" y="0" height="809.999993" style="fill:#000000;fill-opacity:0.29;stroke:none;"/></g></mask></g><g clip-rule="nonzero" clip-path="url(#40f8e57430)"><g clip-rule="nonzero" clip-path="url(#9c1974306b)"><path style=" stroke:none;fill-rule:nonzero;fill:#ffffff;fill-opacity:1;" d="M 47.191406 47.503906 L 761.722656 47.503906 L 761.722656 756.496094 L 47.191406 756.496094 Z M 47.191406 47.503906 "/></g></g><g clip-rule="nonzero" clip-path="url(#8352cc700a)"><g transform="matrix(0.161111,0,0,0.160764,-33.053813,383.224105)"><image width="3240" xlink:href="file:///Users/erikbelt/Desktop/Mood Tracking App/AdCreator/image-generation-service/assets/Meme4-img3-ddfca05b.jpg" height="2160" preserveAspectRatio="xMidYMid meet"/></g></g><g clip-rule="nonzero" clip-path="url(#e06b6c4bb0)"><g transform="matrix(0.179167,0,0,0.179398,80.999999,-5.02246)"><image width="2160" xlink:href="file:///Users/erikbelt/Desktop/Mood Tracking App/AdCreator/image-generation-service/assets/Meme4-img4-cb823d34.jpg" height="3240" preserveAspectRatio="xMidYMid meet"/></g></g><g clip-rule="nonzero" clip-path="url(#a42d428083)"><path style=" stroke:none;fill-rule:nonzero;fill:#a19199;fill-opacity:1;" d="M 102.054688 724.847656 L 100.472656 723.1875 C 97.601562 720.175781 94.730469 717.160156 91.863281 714.148438 L 81.695312 724.847656 C 81.582031 724.96875 81.40625 725.003906 81.253906 724.945312 C 81.101562 724.882812 81 724.734375 81 724.570312 L 81 699.292969 C 81 699.070312 81.183594 698.890625 81.40625 698.890625 L 102.34375 698.890625 C 102.566406 698.890625 102.75 699.070312 102.75 699.292969 L 102.75 724.570312 C 102.75 724.734375 102.648438 724.882812 102.496094 724.945312 C 102.34375 725.003906 102.167969 724.96875 102.054688 724.847656 Z M 91.863281 713.160156 C 91.863281 713.160156 92.003906 713.160156 92.152344 713.285156 C 92.265625 713.378906 96.378906 717.699219 101.941406 723.5625 L 101.941406 699.695312 L 81.808594 699.695312 L 81.808594 723.558594 L 91.570312 713.285156 C 91.644531 713.207031 91.75 713.160156 91.859375 713.160156 C 91.863281 713.160156 91.863281 713.160156 91.863281 713.160156 Z M 91.863281 713.160156 "/></g><g clip-rule="nonzero" clip-path="url(#dc19ee4818)"><path style=" stroke:none;fill-rule:nonzero;fill:#a19199;fill-opacity:1;" d="M 713.382812 725.050781 C 713.1875 725.046875 713.058594 724.9375 713.03125 724.910156 L 701.65625 713.535156 C 698.949219 711.085938 698.019531 707.351562 699.28125 704.253906 C 700.75 700.640625 704.460938 699.695312 704.710938 699.640625 C 707.902344 698.894531 711.308594 700.28125 713.386719 703.109375 C 715.464844 700.28125 718.875 698.894531 722.0625 699.640625 C 722.222656 699.675781 726.007812 700.597656 727.496094 704.253906 C 728.765625 707.375 727.8125 711.105469 725.117188 713.535156 L 713.746094 724.910156 C 713.714844 724.9375 713.585938 725.050781 713.382812 725.050781 Z M 704.914062 700.503906 C 704.703125 700.554688 701.40625 701.382812 700.101562 704.585938 C 698.972656 707.371094 699.835938 710.703125 702.257812 712.882812 L 702.277344 712.898438 L 713.386719 724.011719 L 724.515625 712.882812 C 726.9375 710.703125 727.804688 707.371094 726.671875 704.585938 C 725.355469 701.351562 722.003906 700.539062 721.859375 700.503906 C 718.839844 699.796875 715.585938 701.257812 713.761719 704.136719 L 713.386719 704.726562 L 713.011719 704.136719 C 711.191406 701.242188 707.910156 699.804688 704.914062 700.503906 Z M 704.914062 700.503906 "/></g><g style="fill:#a19199;fill-opacity:1;"><g transform="translate(115.206298, 715.344584)"><path style="stroke:none" d="M 3.859375 -8.453125 C 4.953125 -8.453125 5.929688 -8.164062 6.796875 -7.59375 L 6.21875 -6.34375 C 5.363281 -6.863281 4.539062 -7.125 3.75 -7.125 C 3.332031 -7.125 3 -7.046875 2.75 -6.890625 C 2.507812 -6.742188 2.390625 -6.53125 2.390625 -6.25 C 2.390625 -5.96875 2.5 -5.726562 2.71875 -5.53125 C 2.945312 -5.34375 3.226562 -5.203125 3.5625 -5.109375 C 3.894531 -5.015625 4.257812 -4.894531 4.65625 -4.75 C 5.050781 -4.613281 5.414062 -4.46875 5.75 -4.3125 C 6.082031 -4.15625 6.359375 -3.910156 6.578125 -3.578125 C 6.796875 -3.242188 6.90625 -2.84375 6.90625 -2.375 C 6.90625 -1.632812 6.609375 -1.046875 6.015625 -0.609375 C 5.429688 -0.171875 4.675781 0.046875 3.75 0.046875 C 3.101562 0.046875 2.476562 -0.0703125 1.875 -0.3125 C 1.28125 -0.550781 0.757812 -0.875 0.3125 -1.28125 L 0.921875 -2.515625 C 1.347656 -2.117188 1.8125 -1.8125 2.3125 -1.59375 C 2.820312 -1.382812 3.304688 -1.28125 3.765625 -1.28125 C 4.265625 -1.28125 4.648438 -1.367188 4.921875 -1.546875 C 5.203125 -1.734375 5.34375 -1.984375 5.34375 -2.296875 C 5.34375 -2.585938 5.226562 -2.832031 5 -3.03125 C 4.78125 -3.226562 4.5 -3.367188 4.15625 -3.453125 C 3.820312 -3.546875 3.457031 -3.660156 3.0625 -3.796875 C 2.675781 -3.929688 2.3125 -4.070312 1.96875 -4.21875 C 1.632812 -4.363281 1.351562 -4.597656 1.125 -4.921875 C 0.90625 -5.253906 0.796875 -5.65625 0.796875 -6.125 C 0.796875 -6.832031 1.078125 -7.394531 1.640625 -7.8125 C 2.203125 -8.238281 2.941406 -8.453125 3.859375 -8.453125 Z M 3.859375 -8.453125 "/></g></g><g style="fill:#a19199;fill-opacity:1;"><g transform="translate(123.870333, 715.344584)"><path style="stroke:none" d="M 6.53125 -1.890625 L 2.296875 -1.890625 L 1.484375 0 L 0.015625 0 L 3.71875 -8.40625 L 5.171875 -8.40625 L 8.84375 0 L 7.328125 0 Z M 5.984375 -3.15625 L 4.40625 -6.890625 L 2.8125 -3.15625 Z M 5.984375 -3.15625 "/></g></g><g style="fill:#a19199;fill-opacity:1;"><g transform="translate(133.92637, 715.344584)"><path style="stroke:none" d="M 4.84375 0 L 3.390625 0 L 0.03125 -8.40625 L 1.5625 -8.40625 L 4.15625 -1.578125 L 6.765625 -8.40625 L 8.25 -8.40625 Z M 4.84375 0 "/></g></g><g style="fill:#a19199;fill-opacity:1;"><g transform="translate(143.406404, 715.344584)"><path style="stroke:none" d="M 7.109375 -7.125 L 2.515625 -7.125 L 2.515625 -4.859375 L 6.625 -4.859375 L 6.625 -3.59375 L 2.515625 -3.59375 L 2.515625 -1.265625 L 7.25 -1.265625 L 7.25 0 L 1.109375 0 L 1.109375 -8.40625 L 7.109375 -8.40625 Z M 7.109375 -7.125 "/></g></g><g style="fill:#a19199;fill-opacity:1;"><g transform="translate(658.372519, 715.344584)"><path style="stroke:none" d="M 2.515625 -1.28125 L 6.15625 -1.28125 L 6.15625 0 L 1.109375 0 L 1.109375 -8.40625 L 2.515625 -8.40625 Z M 2.515625 -1.28125 "/></g></g><g style="fill:#a19199;fill-opacity:1;"><g transform="translate(665.980551, 715.344584)"><path style="stroke:none" d="M 2.515625 0 L 1.109375 0 L 1.109375 -8.40625 L 2.515625 -8.40625 Z M 2.515625 0 "/></g></g><g style="fill:#a19199;fill-opacity:1;"><g transform="translate(670.804579, 715.344584)"><path style="stroke:none" d="M 6.703125 0 L 3.953125 -3.703125 L 2.515625 -2.140625 L 2.515625 0 L 1.109375 0 L 1.109375 -8.40625 L 2.515625 -8.40625 L 2.515625 -4.0625 L 6.53125 -8.40625 L 8.203125 -8.40625 L 4.9375 -4.8125 L 8.40625 0 Z M 6.703125 0 "/></g></g><g style="fill:#a19199;fill-opacity:1;"><g transform="translate(680.620611, 715.344584)"><path style="stroke:none" d="M 7.109375 -7.125 L 2.515625 -7.125 L 2.515625 -4.859375 L 6.625 -4.859375 L 6.625 -3.59375 L 2.515625 -3.59375 L 2.515625 -1.265625 L 7.25 -1.265625 L 7.25 0 L 1.109375 0 L 1.109375 -8.40625 L 7.109375 -8.40625 Z M 7.109375 -7.125 "/></g></g></g></svg>