<svg xmlns="http://www.w3.org/2000/svg" xmlns:xlink="http://www.w3.org/1999/xlink" width="1080" zoomAndPan="magnify" viewBox="0 0 810 809.999993" height="1080" preserveAspectRatio="xMidYMid meet" version="1.2"><defs><clipPath id="afe8baee64"><path d="M 34.070312 268.160156 L 396.320312 268.160156 L 396.320312 667 L 34.070312 667 Z M 34.070312 268.160156 "/></clipPath><clipPath id="756736ade9"><path d="M 413.355469 143 L 775.605469 143 L 775.605469 541.730469 L 413.355469 541.730469 Z M 413.355469 143 "/></clipPath><clipPath id="ea248fc1da"><path d="M 34.070312 142.730469 L 396.320312 142.730469 L 396.320312 269.480469 L 34.070312 269.480469 Z M 34.070312 142.730469 "/></clipPath><clipPath id="2e2f3e23c5"><path d="M 413.355469 540.339844 L 775.605469 540.339844 L 775.605469 667.089844 L 413.355469 667.089844 Z M 413.355469 540.339844 "/></clipPath><clipPath id="d352a28d93"><path d="M 189.503906 278.445312 L 241.253906 278.445312 L 241.253906 324 L 189.503906 324 Z M 189.503906 278.445312 "/></clipPath><clipPath id="b922132224"><path d="M 189.503906 308 L 241.253906 308 L 241.253906 354.195312 L 189.503906 354.195312 Z M 189.503906 308 "/></clipPath><clipPath id="ef147699d6"><path d="M 568.742188 485 L 620.492188 485 L 620.492188 531.175781 L 568.742188 531.175781 Z M 568.742188 485 "/></clipPath><clipPath id="3f0a1245bf"><path d="M 568.742188 455.425781 L 620.492188 455.425781 L 620.492188 501 L 568.742188 501 Z M 568.742188 455.425781 "/></clipPath><clipPath id="a03fdf5d8e"><path d="M 395.4375 62.554688 L 414.5625 62.554688 L 414.5625 81.679688 L 395.4375 81.679688 Z M 395.4375 62.554688 "/></clipPath><clipPath id="850e5c53e3"><path d="M 414.5625 72.117188 C 414.5625 66.835938 410.28125 62.554688 405 62.554688 C 399.71875 62.554688 395.4375 66.835938 395.4375 72.117188 C 395.4375 77.398438 399.71875 81.679688 405 81.679688 C 410.28125 81.679688 414.5625 77.398438 414.5625 72.117188 Z M 414.5625 72.117188 "/></clipPath><clipPath id="71b2680595"><path d="M 395.4375 719.4375 L 414.5625 719.4375 L 414.5625 738.5625 L 395.4375 738.5625 Z M 395.4375 719.4375 "/></clipPath><clipPath id="315b2ebf8f"><path d="M 414.5625 729 C 414.5625 723.71875 410.28125 719.4375 405 719.4375 C 399.71875 719.4375 395.4375 723.71875 395.4375 729 C 395.4375 734.28125 399.71875 738.5625 405 738.5625 C 410.28125 738.5625 414.5625 734.28125 414.5625 729 Z M 414.5625 729 "/></clipPath></defs><g id="fc24f14f1d"><rect x="0" width="810" y="0" height="809.999993" style="fill:#ffffff;fill-opacity:1;stroke:none;"/><rect x="0" width="810" y="0" height="809.999993" style="fill:#efe5e5;fill-opacity:1;stroke:none;"/><g clip-rule="nonzero" clip-path="url(#afe8baee64)"><g transform="matrix(0.191026,0,0,0.190818,-84.160408,268.161463)"><image width="3137" xlink:href="file:///Users/erikbelt/Desktop/Mood Tracking App/AdCreator/image-generation-service/assets/Meme3-img1-72f06b97.jpg" height="2091" preserveAspectRatio="xMidYMid meet"/></g></g><g clip-rule="nonzero" clip-path="url(#756736ade9)"><g transform="matrix(0.179892,0,0,0.179892,395.08932,142.731469)"><image width="2218" xlink:href="file:///Users/erikbelt/Desktop/Mood Tracking App/AdCreator/image-generation-service/assets/Meme3-img2-333f7eb2.jpg" height="2218" preserveAspectRatio="xMidYMid meet"/></g></g><g clip-rule="nonzero" clip-path="url(#ea248fc1da)"><path style=" stroke:none;fill-rule:nonzero;fill:COLOR_BRANDCOLOR;fill-opacity:1;" d="M 34.070312 142.730469 L 396.320312 142.730469 L 396.320312 269.480469 L 34.070312 269.480469 Z M 34.070312 142.730469 "/></g><g clip-rule="nonzero" clip-path="url(#2e2f3e23c5)"><path style=" stroke:none;fill-rule:nonzero;fill:COLOR_BRANDCOLOR;fill-opacity:1;" d="M 413.355469 540.339844 L 775.605469 540.339844 L 775.605469 667.089844 L 413.355469 667.089844 Z M 413.355469 540.339844 "/></g><g clip-rule="nonzero" clip-path="url(#d352a28d93)"><path style=" stroke:none;fill-rule:nonzero;fill:#ffffff;fill-opacity:1;" d="M 221.03125 318.074219 L 241.234375 297.871094 L 241.234375 278.441406 L 215.371094 304.636719 L 189.507812 278.441406 L 189.507812 297.871094 L 215.371094 323.734375 L 221.03125 318.074219 "/></g><g clip-rule="nonzero" clip-path="url(#b922132224)"><path style=" stroke:none;fill-rule:nonzero;fill:#ffffff;fill-opacity:1;" d="M 221.03125 348.480469 L 241.234375 328.277344 L 241.234375 308.847656 L 215.371094 335.042969 L 189.507812 308.847656 L 189.507812 328.277344 L 215.371094 354.140625 L 221.03125 348.480469 "/></g><g clip-rule="nonzero" clip-path="url(#ef147699d6)"><path style=" stroke:none;fill-rule:nonzero;fill:#ffffff;fill-opacity:1;" d="M 588.960938 491.546875 L 568.757812 511.75 L 568.757812 531.179688 L 594.621094 504.984375 L 620.484375 531.179688 L 620.484375 511.75 L 594.621094 485.886719 L 588.960938 491.546875 "/></g><g clip-rule="nonzero" clip-path="url(#3f0a1245bf)"><path style=" stroke:none;fill-rule:nonzero;fill:#ffffff;fill-opacity:1;" d="M 588.960938 461.140625 L 568.757812 481.34375 L 568.757812 500.773438 L 594.621094 474.578125 L 620.484375 500.773438 L 620.484375 481.34375 L 594.621094 455.480469 L 588.960938 461.140625 "/></g><path style="fill:none;stroke-width:2;stroke-linecap:butt;stroke-linejoin:miter;stroke:#000000;stroke-opacity:1;stroke-miterlimit:4;" d="M -0.0000503104 1.00194 L 1113.010422 1.00194 " transform="matrix(0.75,0,0,0.75,-12.378869,70.615732)"/><path style="fill:none;stroke-width:2;stroke-linecap:butt;stroke-linejoin:miter;stroke:#000000;stroke-opacity:1;stroke-miterlimit:4;" d="M -0.00149225 1.000022 L 1146.878774 1.000022 " transform="matrix(0.75,0,0,0.75,-24.428568,728.249983)"/><path style="fill:none;stroke-width:2;stroke-linecap:butt;stroke-linejoin:miter;stroke:#000000;stroke-opacity:1;stroke-miterlimit:4;" d="M -0.0000278741 0.999977 L 1104.000028 0.999977 " transform="matrix(0,0.75,-0.75,0,405.749983,-17.999979)"/><g clip-rule="nonzero" clip-path="url(#a03fdf5d8e)"><g clip-rule="nonzero" clip-path="url(#850e5c53e3)"><path style=" stroke:none;fill-rule:nonzero;fill:#000000;fill-opacity:1;" d="M 414.5625 62.554688 L 414.5625 81.679688 L 395.4375 81.679688 L 395.4375 62.554688 Z M 414.5625 62.554688 "/></g></g><g clip-rule="nonzero" clip-path="url(#71b2680595)"><g clip-rule="nonzero" clip-path="url(#315b2ebf8f)"><path style=" stroke:none;fill-rule:nonzero;fill:#000000;fill-opacity:1;" d="M 414.5625 719.4375 L 414.5625 738.5625 L 395.4375 738.5625 L 395.4375 719.4375 Z M 414.5625 719.4375 "/></g></g></g></svg>