<svg xmlns="http://www.w3.org/2000/svg" xmlns:xlink="http://www.w3.org/1999/xlink" width="1080" zoomAndPan="magnify" viewBox="0 0 810 809.999993" height="1080" preserveAspectRatio="xMidYMid meet" version="1.2"><defs><clipPath id="28c7e06427"><path d="M 0 291.496094 L 174 291.496094 L 174 506.746094 L 0 506.746094 Z M 0 291.496094 "/></clipPath><clipPath id="150161bf9b"><path d="M 190 291.117188 L 405.242188 291.117188 L 405.242188 506 L 190 506 Z M 190 291.117188 "/></clipPath><clipPath id="1021565c0a"><path d="M 673.410156 285.078125 L 810 285.078125 L 810 500 L 673.410156 500 Z M 673.410156 285.078125 "/></clipPath><clipPath id="496e2be987"><path d="M 367.566406 90.226562 L 677.242188 90.226562 L 677.242188 709.582031 L 367.566406 709.582031 Z M 367.566406 90.226562 "/></clipPath><clipPath id="9292a4f942"><path d="M 627.695312 709.582031 L 417.113281 709.582031 C 389.738281 709.582031 367.566406 687.410156 367.566406 660.035156 L 367.566406 139.777344 C 367.566406 112.398438 389.738281 90.226562 417.113281 90.226562 L 627.695312 90.226562 C 655.070312 90.226562 677.242188 112.398438 677.242188 139.777344 L 677.242188 660.035156 C 677.242188 687.410156 655.070312 709.582031 627.695312 709.582031 Z M 627.695312 709.582031 "/></clipPath><clipPath id="48a0a67d0c"><path d="M 665.585938 216.121094 L 683.65625 216.121094 L 683.65625 265.179688 L 665.585938 265.179688 Z M 665.585938 216.121094 "/></clipPath><clipPath id="9e87f5be0d"><path d="M 674.621094 216.121094 C 679.609375 216.121094 683.65625 220.167969 683.65625 225.15625 L 683.65625 256.140625 C 683.65625 261.128906 679.609375 265.175781 674.621094 265.175781 C 669.628906 265.175781 665.585938 261.128906 665.585938 256.140625 L 665.585938 225.15625 C 665.585938 220.167969 669.628906 216.121094 674.621094 216.121094 Z M 674.621094 216.121094 "/></clipPath><clipPath id="345b23f30c"><path d="M 206 0 L 619 0 L 619 810 L 206 810 Z M 206 0 "/></clipPath><clipPath id="863359373c"><path d="M 221.433594 829.0625 L 206.132812 -35.550781 L 602.820312 -42.570312 L 618.121094 822.042969 Z M 221.433594 829.0625 "/></clipPath><clipPath id="2553805d04"><path d="M 381.695312 141.414062 L 662.945312 141.414062 L 662.945312 678 L 381.695312 678 Z M 381.695312 141.414062 "/></clipPath><clipPath id="c69ab22c07"><path d="M 381.695312 151.914062 L 381.695312 667.753906 C 381.695312 673.554688 386.394531 678.253906 392.195312 678.253906 L 652.613281 678.253906 C 658.410156 678.253906 663.113281 673.554688 663.113281 667.753906 L 663.113281 151.914062 C 663.113281 146.113281 658.410156 141.414062 652.613281 141.414062 L 392.195312 141.414062 C 386.394531 141.414062 381.695312 146.113281 381.695312 151.914062 Z M 381.695312 151.914062 "/></clipPath><clipPath id="a2189ad2a3"><path d="M 516.648438 112.546875 L 528.160156 112.546875 L 528.160156 124.0625 L 516.648438 124.0625 Z M 516.648438 112.546875 "/></clipPath><clipPath id="d0df90357d"><path d="M 522.402344 112.546875 C 519.226562 112.546875 516.648438 115.125 516.648438 118.304688 C 516.648438 121.484375 519.226562 124.0625 522.402344 124.0625 C 525.582031 124.0625 528.160156 121.484375 528.160156 118.304688 C 528.160156 115.125 525.582031 112.546875 522.402344 112.546875 Z M 522.402344 112.546875 "/></clipPath></defs><g id="2a9ca8b8c4"><rect x="0" width="810" y="0" height="809.999993" style="fill:#ffffff;fill-opacity:1;stroke:none;"/><rect x="0" width="810" y="0" height="809.999993" style="fill:COLOR_BRANDCOLOR;fill-opacity:1;stroke:none;"/><g clip-rule="nonzero" clip-path="url(#28c7e06427)"><g transform="matrix(0.38433,0,0,0.384375,-41.515775,291.495821)"><image width="562" xlink:href="PLACE_PRODUCT_IMAGE_1_HERE" height="560" preserveAspectRatio="xMidYMid meet"/></g></g><g clip-rule="nonzero" clip-path="url(#150161bf9b)"><g transform="matrix(0.38433,0,0,0.384375,189.620048,291.118949)"><image width="562" xlink:href="PLACE_PRODUCT_IMAGE_2_HERE" height="560" preserveAspectRatio="xMidYMid meet"/></g></g><g clip-rule="nonzero" clip-path="url(#1021565c0a)"><g transform="matrix(0.38433,0,0,0.384375,673.036554,285.077814)"><image width="562" xlink:href="PLACE_PRODUCT_IMAGE_3_HERE" height="560" preserveAspectRatio="xMidYMid meet"/></g></g><g clip-rule="nonzero" clip-path="url(#496e2be987)"><g clip-rule="nonzero" clip-path="url(#9292a4f942)"><path style=" stroke:none;fill-rule:nonzero;fill:#0f0e0c;fill-opacity:1;" d="M 367.566406 90.226562 L 677.242188 90.226562 L 677.242188 709.582031 L 367.566406 709.582031 Z M 367.566406 90.226562 "/></g></g><g clip-rule="nonzero" clip-path="url(#48a0a67d0c)"><g clip-rule="nonzero" clip-path="url(#9e87f5be0d)"><path style=" stroke:none;fill-rule:nonzero;fill:#0f0e0c;fill-opacity:1;" d="M 665.585938 216.121094 L 683.65625 216.121094 L 683.65625 265.179688 L 665.585938 265.179688 Z M 665.585938 216.121094 "/></g></g><g clip-rule="nonzero" clip-path="url(#345b23f30c)"><g clip-rule="nonzero" clip-path="url(#863359373c)"><g mask="url(#ef8cb3dbfe)" transform="matrix(-0.0110682,-0.625522,0.625691,-0.0110711,230.435678,1337.874134)"><image width="2418" xlink:href="file:///Users/erikbelt/Desktop/Mood Tracking App/AdCreator/image-generation-service/assets/MockUp_+_3Images-img4-838d652c.png" height="634" preserveAspectRatio="xMidYMid meet"/><mask id="ef8cb3dbfe"><g transform="matrix(1,-0.000000000000000003,0,1,0.000000000000454747,-0.000000000000056843)"><image width="2418" xlink:href="file:///Users/erikbelt/Desktop/Mood Tracking App/AdCreator/image-generation-service/assets/MockUp_+_3Images-img5-3706571d.png" height="634" preserveAspectRatio="xMidYMid meet"/></g></mask></g></g></g><g clip-rule="nonzero" clip-path="url(#2553805d04)"><g clip-rule="nonzero" clip-path="url(#c69ab22c07)"><g transform="matrix(0.958072,0,0,0.958929,381.489241,141.414037)"><image width="294" xlink:href="PLACE_SCREENSHOT_1_HERE" height="560" preserveAspectRatio="xMidYMid meet"/></g></g></g><path style="fill:none;stroke-width:5;stroke-linecap:round;stroke-linejoin:miter;stroke:#ffffff;stroke-opacity:1;stroke-miterlimit:4;" d="M 2.500765 2.500017 L 48.22814 2.500017 " transform="matrix(0.702789,-0.000000000000001569,0.000000000000001569,0.702789,504.578426,104.332858)"/><g clip-rule="nonzero" clip-path="url(#a2189ad2a3)"><g clip-rule="nonzero" clip-path="url(#d0df90357d)"><path style=" stroke:none;fill-rule:nonzero;fill:#ffffff;fill-opacity:1;" d="M 516.648438 112.546875 L 528.160156 112.546875 L 528.160156 124.0625 L 516.648438 124.0625 Z M 516.648438 112.546875 "/></g></g></g></svg>