<svg xmlns="http://www.w3.org/2000/svg" xmlns:xlink="http://www.w3.org/1999/xlink" width="1080" zoomAndPan="magnify" viewBox="0 0 810 809.999993" height="1080" preserveAspectRatio="xMidYMid meet" version="1.2"><defs><clipPath id="72ac5aaa58"><path d="M 527.386719 612.234375 L 747.886719 612.234375 L 747.886719 655.734375 L 527.386719 655.734375 Z M 527.386719 612.234375 "/></clipPath><clipPath id="4701c2bb0f"><path d="M 302.449219 706.550781 L 507.636719 706.550781 L 507.636719 751.449219 L 302.449219 751.449219 Z M 302.449219 706.550781 "/></clipPath><clipPath id="60e0893751"><path d="M 324.898438 706.550781 L 485.101562 706.550781 C 491.054688 706.550781 496.765625 708.917969 500.976562 713.125 C 505.183594 717.335938 507.550781 723.046875 507.550781 729 C 507.550781 734.953125 505.183594 740.664062 500.976562 744.871094 C 496.765625 749.082031 491.054688 751.449219 485.101562 751.449219 L 324.898438 751.449219 C 318.945312 751.449219 313.234375 749.082031 309.023438 744.871094 C 304.816406 740.664062 302.449219 734.953125 302.449219 729 C 302.449219 723.046875 304.816406 717.335938 309.023438 713.125 C 313.234375 708.917969 318.945312 706.550781 324.898438 706.550781 Z M 324.898438 706.550781 "/></clipPath><clipPath id="11f7fb8e48"><path d="M 302.449219 706.550781 L 507.199219 706.550781 L 507.199219 751.550781 L 302.449219 751.550781 Z M 302.449219 706.550781 "/></clipPath><clipPath id="a50769cb67"><path d="M 324.859375 706.550781 L 484.789062 706.550781 C 490.734375 706.550781 496.433594 708.914062 500.636719 713.117188 C 504.839844 717.320312 507.199219 723.019531 507.199219 728.960938 C 507.199219 734.90625 504.839844 740.605469 500.636719 744.808594 C 496.433594 749.011719 490.734375 751.371094 484.789062 751.371094 L 324.859375 751.371094 C 318.917969 751.371094 313.214844 749.011719 309.015625 744.808594 C 304.8125 740.605469 302.449219 734.90625 302.449219 728.960938 C 302.449219 723.019531 304.8125 717.320312 309.015625 713.117188 C 313.214844 708.914062 318.917969 706.550781 324.859375 706.550781 Z M 324.859375 706.550781 "/></clipPath><clipPath id="fcddbe8dbb"><path d="M 83.25 451.425781 L 142.742188 451.425781 L 142.742188 510.914062 L 83.25 510.914062 Z M 83.25 451.425781 "/></clipPath><clipPath id="e0551111ca"><path d="M 112.996094 451.425781 C 96.570312 451.425781 83.25 464.742188 83.25 481.171875 C 83.25 497.597656 96.570312 510.914062 112.996094 510.914062 C 129.425781 510.914062 142.742188 497.597656 142.742188 481.171875 C 142.742188 464.742188 129.425781 451.425781 112.996094 451.425781 Z M 112.996094 451.425781 "/></clipPath><clipPath id="de26d639cc"><path d="M 83.25 451.425781 L 142.5 451.425781 L 142.5 510.675781 L 83.25 510.675781 Z M 83.25 451.425781 "/></clipPath><clipPath id="47c523f29b"><path d="M 112.875 451.425781 C 96.515625 451.425781 83.25 464.6875 83.25 481.050781 C 83.25 497.410156 96.515625 510.675781 112.875 510.675781 C 129.238281 510.675781 142.5 497.410156 142.5 481.050781 C 142.5 464.6875 129.238281 451.425781 112.875 451.425781 Z M 112.875 451.425781 "/></clipPath><clipPath id="8654308ccc"><path d="M 83.25 522.09375 L 142.742188 522.09375 L 142.742188 581.585938 L 83.25 581.585938 Z M 83.25 522.09375 "/></clipPath><clipPath id="16d74018b2"><path d="M 112.996094 522.09375 C 96.570312 522.09375 83.25 535.410156 83.25 551.839844 C 83.25 568.265625 96.570312 581.585938 112.996094 581.585938 C 129.425781 581.585938 142.742188 568.265625 142.742188 551.839844 C 142.742188 535.410156 129.425781 522.09375 112.996094 522.09375 Z M 112.996094 522.09375 "/></clipPath><clipPath id="1ce2e9269c"><path d="M 83.25 522.09375 L 142.5 522.09375 L 142.5 581.34375 L 83.25 581.34375 Z M 83.25 522.09375 "/></clipPath><clipPath id="aa7d1458a9"><path d="M 112.875 522.09375 C 96.515625 522.09375 83.25 535.359375 83.25 551.71875 C 83.25 568.082031 96.515625 581.34375 112.875 581.34375 C 129.238281 581.34375 142.5 568.082031 142.5 551.71875 C 142.5 535.359375 129.238281 522.09375 112.875 522.09375 Z M 112.875 522.09375 "/></clipPath><clipPath id="39e1453ed4"><path d="M 83.25 593.019531 L 142.742188 593.019531 L 142.742188 652.511719 L 83.25 652.511719 Z M 83.25 593.019531 "/></clipPath><clipPath id="ed98cf0742"><path d="M 112.996094 593.019531 C 96.570312 593.019531 83.25 606.339844 83.25 622.765625 C 83.25 639.195312 96.570312 652.511719 112.996094 652.511719 C 129.425781 652.511719 142.742188 639.195312 142.742188 622.765625 C 142.742188 606.339844 129.425781 593.019531 112.996094 593.019531 Z M 112.996094 593.019531 "/></clipPath><clipPath id="42a0605119"><path d="M 83.25 593.019531 L 142.5 593.019531 L 142.5 652.269531 L 83.25 652.269531 Z M 83.25 593.019531 "/></clipPath><clipPath id="dd48d5b316"><path d="M 112.875 593.019531 C 96.515625 593.019531 83.25 606.285156 83.25 622.644531 C 83.25 639.007812 96.515625 652.269531 112.875 652.269531 C 129.238281 652.269531 142.5 639.007812 142.5 622.644531 C 142.5 606.285156 129.238281 593.019531 112.875 593.019531 Z M 112.875 593.019531 "/></clipPath><clipPath id="6ab8d22e0e"><path d="M 95.675781 609 L 128 609 L 128 640.378906 L 95.675781 640.378906 Z M 95.675781 609 "/></clipPath><clipPath id="756bb6854d"><path d="M 116 605.128906 L 130.175781 605.128906 L 130.175781 619 L 116 619 Z M 116 605.128906 "/></clipPath><clipPath id="9f6b295907"><path d="M 639.757812 34.238281 L 711 34.238281 L 711 105 L 639.757812 105 Z M 639.757812 34.238281 "/></clipPath><clipPath id="9d6859ad9a"><path d="M 675 91 L 711 91 L 711 127.753906 L 675 127.753906 Z M 675 91 "/></clipPath><clipPath id="873880e6ab"><path d="M 95.675781 467 L 128 467 L 128 498.78125 L 95.675781 498.78125 Z M 95.675781 467 "/></clipPath><clipPath id="5ae40939af"><path d="M 116 463.53125 L 130.175781 463.53125 L 130.175781 477 L 116 477 Z M 116 463.53125 "/></clipPath><clipPath id="bf5e06a8bb"><path d="M 95.675781 538 L 128 538 L 128 569.578125 L 95.675781 569.578125 Z M 95.675781 538 "/></clipPath><clipPath id="747d45b172"><path d="M 116 534.328125 L 130.175781 534.328125 L 130.175781 548 L 116 548 Z M 116 534.328125 "/></clipPath><clipPath id="b09ce6177f"><path d="M 496.917969 147.179688 L 778.121094 147.179688 L 778.121094 633.792969 L 496.917969 633.792969 Z M 496.917969 147.179688 "/></clipPath></defs><g id="122849ea1f"><rect x="0" width="810" y="0" height="809.999993" style="fill:#ffffff;fill-opacity:1;stroke:none;"/><rect x="0" width="810" y="0" height="809.999993" style="fill:#ffffff;fill-opacity:1;stroke:none;"/><g transform="matrix(-0.193457,0,0,0.193576,1154.021777,-13.773555)"><image width="7680" xlink:href="file:///Users/erikbelt/Desktop/Mood Tracking App/AdCreator/image-generation-service/assets/Product_Remover_2-img1-3d894ee0.jpg" height="4320" preserveAspectRatio="xMidYMid meet"/></g><g clip-rule="nonzero" clip-path="url(#72ac5aaa58)"><g mask="url(#04c681e885)" transform="matrix(0.136027,0,0,0.135514,527.387257,612.234498)"><image width="1621" xlink:href="file:///Users/erikbelt/Desktop/Mood Tracking App/AdCreator/image-generation-service/assets/Product_Remover_2-img2-d797531f.png" height="321" preserveAspectRatio="xMidYMid meet"/><mask id="04c681e885"><g><image width="1621" xlink:href="file:///Users/erikbelt/Desktop/Mood Tracking App/AdCreator/image-generation-service/assets/Product_Remover_2-img3-563a2eec.png" height="321" preserveAspectRatio="xMidYMid meet"/></g></mask></g></g><g clip-rule="nonzero" clip-path="url(#4701c2bb0f)"><g clip-rule="nonzero" clip-path="url(#60e0893751)"><path style=" stroke:none;fill-rule:nonzero;fill:#ffffff;fill-opacity:1;" d="M 302.449219 706.550781 L 507.464844 706.550781 L 507.464844 751.449219 L 302.449219 751.449219 Z M 302.449219 706.550781 "/></g></g><g clip-rule="nonzero" clip-path="url(#11f7fb8e48)"><g clip-rule="nonzero" clip-path="url(#a50769cb67)"><path style="fill:none;stroke-width:6;stroke-linecap:butt;stroke-linejoin:miter;stroke:#000000;stroke-opacity:1;stroke-miterlimit:4;" d="M 29.928335 -0.00213047 L 243.521879 -0.00213047 C 251.462121 -0.00213047 259.073693 3.154142 264.687162 8.767611 C 270.300631 14.38108 273.451686 21.992652 273.451686 29.927677 C 273.451686 37.867918 270.300631 45.47949 264.687162 51.092959 C 259.073693 56.706429 251.462121 59.857484 243.521879 59.857484 L 29.928335 59.857484 C 21.99331 59.857484 14.376521 56.706429 8.768269 51.092959 C 3.1548 45.47949 -0.00147222 37.867918 -0.00147222 29.927677 C -0.00147222 21.992652 3.1548 14.38108 8.768269 8.767611 C 14.376521 3.154142 21.99331 -0.00213047 29.928335 -0.00213047 Z M 29.928335 -0.00213047 " transform="matrix(0.748757,0,0,0.748757,302.450321,706.552376)"/></g></g><g clip-rule="nonzero" clip-path="url(#fcddbe8dbb)"><g clip-rule="nonzero" clip-path="url(#e0551111ca)"><path style=" stroke:none;fill-rule:nonzero;fill:#ffffff;fill-opacity:1;" d="M 83.25 451.425781 L 142.742188 451.425781 L 142.742188 510.914062 L 83.25 510.914062 Z M 83.25 451.425781 "/></g></g><g clip-rule="nonzero" clip-path="url(#de26d639cc)"><g clip-rule="nonzero" clip-path="url(#47c523f29b)"><path style="fill:none;stroke-width:6;stroke-linecap:butt;stroke-linejoin:miter;stroke:#000000;stroke-opacity:1;stroke-miterlimit:4;" d="M 39.654763 0.000856656 C 17.755978 0.000856656 -0.00148975 17.753095 -0.00148975 39.657109 C -0.00148975 61.555894 17.755978 79.313362 39.654763 79.313362 C 61.558777 79.313362 79.311016 61.555894 79.311016 39.657109 C 79.311016 17.753095 61.558777 0.000856656 39.654763 0.000856656 Z M 39.654763 0.000856656 " transform="matrix(0.747045,0,0,0.747045,83.251113,451.425141)"/></g></g><g clip-rule="nonzero" clip-path="url(#8654308ccc)"><g clip-rule="nonzero" clip-path="url(#16d74018b2)"><path style=" stroke:none;fill-rule:nonzero;fill:#ffffff;fill-opacity:1;" d="M 83.25 522.09375 L 142.742188 522.09375 L 142.742188 581.585938 L 83.25 581.585938 Z M 83.25 522.09375 "/></g></g><g clip-rule="nonzero" clip-path="url(#1ce2e9269c)"><g clip-rule="nonzero" clip-path="url(#aa7d1458a9)"><path style="fill:none;stroke-width:6;stroke-linecap:butt;stroke-linejoin:miter;stroke:#000000;stroke-opacity:1;stroke-miterlimit:4;" d="M 39.654763 -0.000144214 C 17.755978 -0.000144214 -0.00148975 17.752094 -0.00148975 39.656108 C -0.00148975 61.560123 17.755978 79.312361 39.654763 79.312361 C 61.558777 79.312361 79.311016 61.560123 79.311016 39.656108 C 79.311016 17.752094 61.558777 -0.000144214 39.654763 -0.000144214 Z M 39.654763 -0.000144214 " transform="matrix(0.747045,0,0,0.747045,83.251113,522.093858)"/></g></g><g clip-rule="nonzero" clip-path="url(#39e1453ed4)"><g clip-rule="nonzero" clip-path="url(#ed98cf0742)"><path style=" stroke:none;fill-rule:nonzero;fill:#ffffff;fill-opacity:1;" d="M 83.25 593.019531 L 142.742188 593.019531 L 142.742188 652.511719 L 83.25 652.511719 Z M 83.25 593.019531 "/></g></g><g clip-rule="nonzero" clip-path="url(#42a0605119)"><g clip-rule="nonzero" clip-path="url(#dd48d5b316)"><path style="fill:none;stroke-width:6;stroke-linecap:butt;stroke-linejoin:miter;stroke:#000000;stroke-opacity:1;stroke-miterlimit:4;" d="M 39.654763 -0.00219922 C 17.755978 -0.00219922 -0.00148975 17.755268 -0.00148975 39.654053 C -0.00148975 61.558068 17.755978 79.310306 39.654763 79.310306 C 61.558777 79.310306 79.311016 61.558068 79.311016 39.654053 C 79.311016 17.755268 61.558777 -0.00219922 39.654763 -0.00219922 Z M 39.654763 -0.00219922 " transform="matrix(0.747045,0,0,0.747045,83.251113,593.021174)"/></g></g><g clip-rule="nonzero" clip-path="url(#6ab8d22e0e)"><path style=" stroke:none;fill-rule:nonzero;fill:#000000;fill-opacity:1;" d="M 127.417969 624.855469 C 114.570312 626.488281 113.21875 627.8125 111.550781 640.378906 C 109.878906 627.8125 108.527344 626.488281 95.679688 624.855469 C 108.527344 623.222656 109.878906 621.898438 111.550781 609.335938 C 113.21875 621.898438 114.570312 623.222656 127.417969 624.855469 Z M 127.417969 624.855469 "/></g><g clip-rule="nonzero" clip-path="url(#756bb6854d)"><path style=" stroke:none;fill-rule:nonzero;fill:#000000;fill-opacity:1;" d="M 130.175781 611.855469 C 123.925781 612.292969 123.554688 612.648438 123.097656 618.585938 C 122.640625 612.648438 122.265625 612.292969 116.019531 611.855469 C 122.265625 611.421875 122.640625 611.066406 123.097656 605.128906 C 123.554688 611.066406 123.925781 611.421875 130.175781 611.855469 Z M 130.175781 611.855469 "/></g><g clip-rule="nonzero" clip-path="url(#9f6b295907)"><path style=" stroke:none;fill-rule:nonzero;fill:#ffffff;fill-opacity:1;" d="M 658.738281 70.441406 C 659.726562 70.550781 660.695312 70.742188 661.652344 71.011719 C 662.609375 71.285156 663.535156 71.636719 664.429688 72.066406 C 665.324219 72.496094 666.179688 72.996094 666.988281 73.570312 C 667.800781 74.144531 668.558594 74.785156 669.261719 75.488281 C 669.960938 76.191406 670.601562 76.945312 671.175781 77.757812 C 671.75 78.570312 672.25 79.421875 672.679688 80.316406 C 673.109375 81.214844 673.460938 82.140625 673.734375 83.09375 C 674.007812 84.050781 674.195312 85.023438 674.304688 86.011719 C 674.929688 92.296875 675.21875 98.601562 675.167969 104.921875 C 675.117188 98.601562 675.402344 92.296875 676.027344 86.011719 C 676.136719 85.023438 676.328125 84.050781 676.601562 83.09375 C 676.871094 82.140625 677.222656 81.214844 677.652344 80.316406 C 678.082031 79.421875 678.585938 78.570312 679.160156 77.757812 C 679.734375 76.945312 680.371094 76.191406 681.074219 75.488281 C 681.777344 74.785156 682.535156 74.144531 683.34375 73.570312 C 684.15625 72.996094 685.007812 72.496094 685.90625 72.066406 C 686.800781 71.636719 687.726562 71.285156 688.683594 71.011719 C 689.636719 70.742188 690.609375 70.550781 691.597656 70.441406 C 697.886719 69.816406 704.1875 69.527344 710.507812 69.582031 C 704.1875 69.632812 697.886719 69.34375 691.597656 68.71875 C 690.609375 68.609375 689.636719 68.421875 688.683594 68.148438 C 687.726562 67.875 686.800781 67.523438 685.90625 67.09375 C 685.007812 66.664062 684.15625 66.164062 683.34375 65.589844 C 682.535156 65.015625 681.777344 64.375 681.074219 63.671875 C 680.371094 62.972656 679.734375 62.214844 679.160156 61.402344 C 678.585938 60.59375 678.082031 59.738281 677.652344 58.84375 C 677.222656 57.945312 676.871094 57.019531 676.597656 56.066406 C 676.328125 55.109375 676.136719 54.136719 676.027344 53.152344 C 675.402344 46.863281 675.113281 40.558594 675.167969 34.238281 C 675.21875 40.558594 674.929688 46.863281 674.304688 53.152344 C 674.195312 54.136719 674.007812 55.109375 673.734375 56.066406 C 673.460938 57.019531 673.109375 57.945312 672.679688 58.84375 C 672.25 59.738281 671.75 60.59375 671.175781 61.402344 C 670.601562 62.214844 669.960938 62.96875 669.257812 63.671875 C 668.558594 64.375 667.800781 65.015625 666.988281 65.589844 C 666.179688 66.164062 665.324219 66.664062 664.429688 67.09375 C 663.535156 67.523438 662.609375 67.875 661.652344 68.148438 C 660.695312 68.421875 659.726562 68.609375 658.738281 68.71875 C 652.449219 69.34375 646.144531 69.632812 639.828125 69.582031 C 646.144531 69.527344 652.449219 69.816406 658.738281 70.441406 Z M 658.738281 70.441406 "/></g><g clip-rule="nonzero" clip-path="url(#9d6859ad9a)"><path style=" stroke:none;fill-rule:nonzero;fill:#ffffff;fill-opacity:1;" d="M 684.738281 109.898438 C 685.238281 109.953125 685.726562 110.050781 686.210938 110.1875 C 686.695312 110.324219 687.164062 110.503906 687.617188 110.71875 C 688.070312 110.9375 688.503906 111.191406 688.914062 111.480469 C 689.324219 111.773438 689.707031 112.097656 690.0625 112.453125 C 690.417969 112.808594 690.738281 113.191406 691.03125 113.601562 C 691.320312 114.011719 691.574219 114.441406 691.792969 114.894531 C 692.011719 115.347656 692.1875 115.816406 692.324219 116.300781 C 692.464844 116.785156 692.558594 117.277344 692.613281 117.777344 C 692.929688 120.957031 693.078125 124.148438 693.050781 127.347656 C 693.023438 124.148438 693.167969 120.957031 693.488281 117.777344 C 693.542969 117.277344 693.636719 116.785156 693.777344 116.300781 C 693.914062 115.816406 694.089844 115.347656 694.308594 114.894531 C 694.527344 114.441406 694.78125 114.011719 695.070312 113.601562 C 695.359375 113.191406 695.683594 112.808594 696.039062 112.453125 C 696.394531 112.097656 696.777344 111.773438 697.1875 111.480469 C 697.597656 111.191406 698.03125 110.9375 698.484375 110.71875 C 698.9375 110.503906 699.40625 110.324219 699.890625 110.1875 C 700.375 110.050781 700.863281 109.953125 701.363281 109.898438 C 704.546875 109.582031 707.738281 109.4375 710.933594 109.460938 C 707.738281 109.488281 704.546875 109.34375 701.363281 109.027344 C 700.863281 108.972656 700.375 108.875 699.890625 108.738281 C 699.40625 108.597656 698.9375 108.421875 698.484375 108.203125 C 698.03125 107.988281 697.597656 107.734375 697.1875 107.441406 C 696.777344 107.152344 696.394531 106.828125 696.039062 106.472656 C 695.683594 106.117188 695.359375 105.734375 695.070312 105.324219 C 694.78125 104.914062 694.527344 104.480469 694.308594 104.027344 C 694.089844 103.574219 693.914062 103.105469 693.777344 102.621094 C 693.636719 102.140625 693.542969 101.648438 693.488281 101.148438 C 693.171875 97.964844 693.023438 94.777344 693.050781 91.578125 C 693.078125 94.777344 692.929688 97.964844 692.613281 101.148438 C 692.558594 101.648438 692.464844 102.140625 692.324219 102.621094 C 692.1875 103.105469 692.011719 103.574219 691.792969 104.027344 C 691.574219 104.480469 691.320312 104.914062 691.03125 105.324219 C 690.738281 105.734375 690.417969 106.117188 690.0625 106.472656 C 689.707031 106.828125 689.324219 107.152344 688.914062 107.441406 C 688.503906 107.734375 688.070312 107.988281 687.617188 108.203125 C 687.164062 108.421875 686.695312 108.597656 686.210938 108.738281 C 685.726562 108.875 685.238281 108.972656 684.738281 109.027344 C 681.554688 109.34375 678.363281 109.488281 675.167969 109.464844 C 678.363281 109.4375 681.554688 109.582031 684.738281 109.898438 Z M 684.738281 109.898438 "/></g><path style=" stroke:none;fill-rule:nonzero;fill:#ffffff;fill-opacity:1;" d="M 649.445312 96.457031 C 650.058594 96.523438 650.644531 96.691406 651.203125 96.957031 C 651.761719 97.222656 652.257812 97.578125 652.695312 98.015625 C 653.132812 98.449219 653.484375 98.949219 653.753906 99.507812 C 654.019531 100.0625 654.1875 100.648438 654.253906 101.265625 C 654.449219 103.207031 654.539062 105.15625 654.519531 107.109375 C 654.503906 105.15625 654.59375 103.207031 654.789062 101.265625 C 654.855469 100.648438 655.023438 100.0625 655.289062 99.507812 C 655.554688 98.949219 655.910156 98.449219 656.347656 98.015625 C 656.785156 97.578125 657.28125 97.222656 657.839844 96.957031 C 658.398438 96.6875 658.984375 96.523438 659.597656 96.457031 C 661.539062 96.261719 663.488281 96.171875 665.441406 96.1875 C 663.488281 96.203125 661.539062 96.117188 659.597656 95.921875 C 658.984375 95.855469 658.398438 95.6875 657.839844 95.421875 C 657.28125 95.152344 656.785156 94.800781 656.347656 94.363281 C 655.910156 93.925781 655.554688 93.429688 655.289062 92.871094 C 655.023438 92.3125 654.855469 91.726562 654.789062 91.113281 C 654.59375 89.167969 654.503906 87.222656 654.519531 85.269531 C 654.539062 87.222656 654.449219 89.167969 654.253906 91.113281 C 654.1875 91.726562 654.019531 92.3125 653.753906 92.871094 C 653.484375 93.429688 653.132812 93.925781 652.695312 94.363281 C 652.257812 94.800781 651.761719 95.152344 651.203125 95.417969 C 650.644531 95.6875 650.058594 95.851562 649.445312 95.921875 C 647.5 96.113281 645.554688 96.203125 643.601562 96.1875 C 645.554688 96.171875 647.5 96.261719 649.445312 96.457031 Z M 649.445312 96.457031 "/><g clip-rule="nonzero" clip-path="url(#873880e6ab)"><path style=" stroke:none;fill-rule:nonzero;fill:#000000;fill-opacity:1;" d="M 127.417969 483.261719 C 114.570312 484.894531 113.21875 486.21875 111.550781 498.78125 C 109.878906 486.21875 108.527344 484.894531 95.679688 483.261719 C 108.527344 481.628906 109.878906 480.304688 111.550781 467.738281 C 113.21875 480.304688 114.570312 481.628906 127.417969 483.261719 Z M 127.417969 483.261719 "/></g><g clip-rule="nonzero" clip-path="url(#5ae40939af)"><path style=" stroke:none;fill-rule:nonzero;fill:#000000;fill-opacity:1;" d="M 130.175781 470.261719 C 123.925781 470.695312 123.554688 471.050781 123.097656 476.992188 C 122.640625 471.050781 122.265625 470.695312 116.019531 470.261719 C 122.265625 469.824219 122.640625 469.472656 123.097656 463.53125 C 123.554688 469.472656 123.925781 469.824219 130.175781 470.261719 Z M 130.175781 470.261719 "/></g><g clip-rule="nonzero" clip-path="url(#bf5e06a8bb)"><path style=" stroke:none;fill-rule:nonzero;fill:#000000;fill-opacity:1;" d="M 127.417969 554.058594 C 114.570312 555.691406 113.21875 557.015625 111.550781 569.582031 C 109.878906 557.015625 108.527344 555.691406 95.679688 554.058594 C 108.527344 552.425781 109.878906 551.101562 111.550781 538.535156 C 113.21875 551.101562 114.570312 552.425781 127.417969 554.058594 Z M 127.417969 554.058594 "/></g><g clip-rule="nonzero" clip-path="url(#747d45b172)"><path style=" stroke:none;fill-rule:nonzero;fill:#000000;fill-opacity:1;" d="M 130.175781 541.058594 C 123.925781 541.496094 123.554688 541.847656 123.097656 547.789062 C 122.640625 541.847656 122.265625 541.496094 116.019531 541.058594 C 122.265625 540.625 122.640625 540.269531 123.097656 534.328125 C 123.554688 540.269531 123.925781 540.625 130.175781 541.058594 Z M 130.175781 541.058594 "/></g><g clip-rule="nonzero" clip-path="url(#b09ce6177f)"><g transform="matrix(0.869289,0,0,0.868953,12.495648,147.178957)"><image width="1438" xlink:href="PLACE_PRODUCT_IMAGE_HERE" height="560" preserveAspectRatio="xMidYMid meet"/></g></g></g></svg>