<svg xmlns="http://www.w3.org/2000/svg" xmlns:xlink="http://www.w3.org/1999/xlink" width="1080" zoomAndPan="magnify" viewBox="0 0 810 809.999993" height="1080" preserveAspectRatio="xMidYMid meet" version="1.2"><defs><clipPath id="5009a650eb"><path d="M 315.15625 367.75 L 362.742188 367.75 L 362.742188 415.335938 L 315.15625 415.335938 Z M 315.15625 367.75 "/></clipPath><clipPath id="f5611a0c5d"><path d="M 338.949219 367.75 C 325.808594 367.75 315.15625 378.402344 315.15625 391.542969 C 315.15625 404.683594 325.808594 415.335938 338.949219 415.335938 C 352.089844 415.335938 362.742188 404.683594 362.742188 391.542969 C 362.742188 378.402344 352.089844 367.75 338.949219 367.75 Z M 338.949219 367.75 "/></clipPath><clipPath id="c3f01e1a92"><path d="M 315.15625 462.230469 L 362.742188 462.230469 L 362.742188 509.816406 L 315.15625 509.816406 Z M 315.15625 462.230469 "/></clipPath><clipPath id="204ca2977a"><path d="M 338.949219 462.230469 C 325.808594 462.230469 315.15625 472.882812 315.15625 486.023438 C 315.15625 499.164062 325.808594 509.816406 338.949219 509.816406 C 352.089844 509.816406 362.742188 499.164062 362.742188 486.023438 C 362.742188 472.882812 352.089844 462.230469 338.949219 462.230469 Z M 338.949219 462.230469 "/></clipPath><clipPath id="28e77ba85b"><path d="M 315.15625 556.714844 L 362.742188 556.714844 L 362.742188 604.300781 L 315.15625 604.300781 Z M 315.15625 556.714844 "/></clipPath><clipPath id="0afe0e5e7f"><path d="M 338.949219 556.714844 C 325.808594 556.714844 315.15625 567.367188 315.15625 580.507812 C 315.15625 593.648438 325.808594 604.300781 338.949219 604.300781 C 352.089844 604.300781 362.742188 593.648438 362.742188 580.507812 C 362.742188 567.367188 352.089844 556.714844 338.949219 556.714844 Z M 338.949219 556.714844 "/></clipPath><clipPath id="69d3bad67e"><path d="M 0 681 L 349.664062 681 L 349.664062 752.988281 L 0 752.988281 Z M 0 681 "/></clipPath><clipPath id="c6e48ffd71"><path d="M 481 488 L 810 488 L 810 810 L 481 810 Z M 481 488 "/></clipPath><clipPath id="ebce548c82"><path d="M 728.179688 1103.351562 L 480.53125 818.769531 L 860.167969 488.40625 L 1107.816406 772.992188 Z M 728.179688 1103.351562 "/></clipPath><clipPath id="a3d88e837c"><path d="M 436 0 L 810 0 L 810 230 L 436 230 Z M 436 0 "/></clipPath><clipPath id="b492e6fbdb"><path d="M 485.515625 -357.785156 L 969.511719 -313.707031 L 919.996094 230.042969 L 435.996094 185.964844 Z M 485.515625 -357.785156 "/></clipPath><clipPath id="fc6ea21b40"><path d="M 45.300781 151.175781 L 290.039062 151.175781 L 290.039062 708.53125 L 45.300781 708.53125 Z M 45.300781 151.175781 "/></clipPath></defs><g id="f68cf4ae6e"><rect x="0" width="810" y="0" height="809.999993" style="fill:#ffffff;fill-opacity:1;stroke:none;"/><rect x="0" width="810" y="0" height="809.999993" style="fill:#f8f8f6;fill-opacity:1;stroke:none;"/><g clip-rule="nonzero" clip-path="url(#5009a650eb)"><g clip-rule="nonzero" clip-path="url(#f5611a0c5d)"><path style=" stroke:none;fill-rule:nonzero;fill:COLOR_BRANDCOLOR;fill-opacity:1;" d="M 315.15625 367.75 L 362.742188 367.75 L 362.742188 415.335938 L 315.15625 415.335938 Z M 315.15625 367.75 "/></g></g><g clip-rule="nonzero" clip-path="url(#c3f01e1a92)"><g clip-rule="nonzero" clip-path="url(#204ca2977a)"><path style=" stroke:none;fill-rule:nonzero;fill:COLOR_BRANDCOLOR;fill-opacity:1;" d="M 315.15625 462.230469 L 362.742188 462.230469 L 362.742188 509.816406 L 315.15625 509.816406 Z M 315.15625 462.230469 "/></g></g><g clip-rule="nonzero" clip-path="url(#28e77ba85b)"><g clip-rule="nonzero" clip-path="url(#0afe0e5e7f)"><path style=" stroke:none;fill-rule:nonzero;fill:COLOR_BRANDCOLOR;fill-opacity:1;" d="M 315.15625 556.714844 L 362.742188 556.714844 L 362.742188 604.300781 L 315.15625 604.300781 Z M 315.15625 556.714844 "/></g></g><g clip-rule="nonzero" clip-path="url(#69d3bad67e)"><g mask="url(#d8a1c4a6a4)" transform="matrix(0.179541,0,0,0.179551,-14.086487,680.986858)"><image width="2026" xlink:href="file:///Users/erikbelt/Desktop/Mood Tracking App/AdCreator/image-generation-service/assets/Product_Remover_1-img1-4c36feb7.png" height="401" preserveAspectRatio="xMidYMid meet"/><mask id="d8a1c4a6a4"><g transform="matrix(1,0,0,1,0,-0.000000000000454747)"><image width="2026" xlink:href="file:///Users/erikbelt/Desktop/Mood Tracking App/AdCreator/image-generation-service/assets/Product_Remover_1-img2-57bbbdb4.png" height="401" preserveAspectRatio="xMidYMid meet"/></g></mask></g></g><g clip-rule="nonzero" clip-path="url(#c6e48ffd71)"><g clip-rule="nonzero" clip-path="url(#ebce548c82)"><g mask="url(#6e727a3d8f)" transform="matrix(-0.145675,-0.167402,0.167461,-0.145726,728.180588,1103.352761)"><image width="1700" xlink:href="file:///Users/erikbelt/Desktop/Mood Tracking App/AdCreator/image-generation-service/assets/Product_Remover_1-img3-49e1fe3f.png" height="2267" preserveAspectRatio="xMidYMid meet"/><mask id="6e727a3d8f"><g transform="matrix(1,0,0.000000000000000056,1,0,-0.000000000000227374)"><image width="1700" xlink:href="file:///Users/erikbelt/Desktop/Mood Tracking App/AdCreator/image-generation-service/assets/Product_Remover_1-img4-2fa5fc24.png" height="2267" preserveAspectRatio="xMidYMid meet"/></g></mask></g></g></g><g clip-rule="nonzero" clip-path="url(#a3d88e837c)"><g clip-rule="nonzero" clip-path="url(#b492e6fbdb)"><g mask="url(#6e71861c9e)" transform="matrix(0.241999,0.0220384,-0.0220474,0.242097,485.515563,-357.785585)"><image width="2000" xlink:href="file:///Users/erikbelt/Desktop/Mood Tracking App/AdCreator/image-generation-service/assets/Product_Remover_1-img5-06d4886b.png" height="2246" preserveAspectRatio="xMidYMid meet"/><mask id="6e71861c9e"><g transform="matrix(1,0,0,1,0.000000000000227374,0)"><image width="2000" xlink:href="file:///Users/erikbelt/Desktop/Mood Tracking App/AdCreator/image-generation-service/assets/Product_Remover_1-img6-456ae460.png" height="2246" preserveAspectRatio="xMidYMid meet"/></g></mask></g></g></g><g clip-rule="nonzero" clip-path="url(#fc6ea21b40)"><g transform="matrix(0.995232,0,0,0.995272,-548.004977,151.177644)"><image width="1438" xlink:href="PLACE_PRODUCT_IMAGE_HERE" height="560" preserveAspectRatio="xMidYMid meet"/></g></g><g style="fill:#f7f8f6;fill-opacity:1;"><g transform="translate(331.996231, 401.588419)"><path style="stroke:none" d="M 2.09375 -15.828125 L 6.234375 -18.21875 L 8.8125 -18.21875 L 6 -2.25 C 5.894531 -1.644531 5.859375 -1.28125 5.890625 -1.15625 C 5.929688 -1.039062 6.082031 -0.96875 6.34375 -0.9375 L 7.796875 -0.75 L 7.65625 0 L -0.21875 0 L -0.078125 -0.75 L 1.953125 -0.9375 C 2.242188 -0.96875 2.425781 -1.039062 2.5 -1.15625 C 2.582031 -1.28125 2.675781 -1.644531 2.78125 -2.25 L 5.296875 -16.578125 L 2.484375 -14.96875 Z M 2.09375 -15.828125 "/></g></g><g style="fill:#f7f8f6;fill-opacity:1;"><g transform="translate(341.771321, 401.588419)"><path style="stroke:none" d="M 0.609375 -1.421875 C 0.609375 -1.992188 0.789062 -2.484375 1.15625 -2.890625 C 1.53125 -3.304688 2.03125 -3.515625 2.65625 -3.515625 C 3.207031 -3.515625 3.632812 -3.359375 3.9375 -3.046875 C 4.238281 -2.742188 4.390625 -2.335938 4.390625 -1.828125 C 4.390625 -1.253906 4.207031 -0.757812 3.84375 -0.34375 C 3.476562 0.0625 2.984375 0.265625 2.359375 0.265625 C 1.804688 0.265625 1.375 0.113281 1.0625 -0.1875 C 0.757812 -0.488281 0.609375 -0.898438 0.609375 -1.421875 Z M 0.609375 -1.421875 "/></g></g><g style="fill:#f7f8f6;fill-opacity:1;"><g transform="translate(329.750999, 496.070984)"><path style="stroke:none" d="M 12.484375 -6.453125 L 11.359375 0 L 0.140625 0 L 0.453125 -1.875 C 0.679688 -3.144531 1.101562 -4.191406 1.71875 -5.015625 C 2.34375 -5.847656 3.070312 -6.554688 3.90625 -7.140625 C 4.75 -7.734375 5.597656 -8.300781 6.453125 -8.84375 C 7.203125 -9.300781 7.898438 -9.785156 8.546875 -10.296875 C 9.203125 -10.804688 9.726562 -11.421875 10.125 -12.140625 C 10.53125 -12.867188 10.734375 -13.769531 10.734375 -14.84375 C 10.734375 -15.78125 10.566406 -16.460938 10.234375 -16.890625 C 9.910156 -17.328125 9.425781 -17.546875 8.78125 -17.546875 C 7.800781 -17.546875 7.039062 -17.109375 6.5 -16.234375 C 5.96875 -15.359375 5.640625 -14.113281 5.515625 -12.5 L 2.390625 -12.9375 C 2.390625 -13.914062 2.628906 -14.820312 3.109375 -15.65625 C 3.585938 -16.5 4.300781 -17.179688 5.25 -17.703125 C 6.195312 -18.222656 7.375 -18.484375 8.78125 -18.484375 C 10.03125 -18.484375 11.046875 -18.285156 11.828125 -17.890625 C 12.617188 -17.492188 13.195312 -16.960938 13.5625 -16.296875 C 13.925781 -15.640625 14.109375 -14.90625 14.109375 -14.09375 C 14.109375 -13.070312 13.878906 -12.21875 13.421875 -11.53125 C 12.972656 -10.84375 12.378906 -10.265625 11.640625 -9.796875 C 10.898438 -9.335938 10.085938 -8.921875 9.203125 -8.546875 C 8.316406 -8.179688 7.4375 -7.796875 6.5625 -7.390625 C 5.46875 -6.890625 4.492188 -6.285156 3.640625 -5.578125 C 2.785156 -4.878906 2.171875 -3.945312 1.796875 -2.78125 L 8.78125 -2.78125 C 9.207031 -2.78125 9.507812 -2.789062 9.6875 -2.8125 C 9.875 -2.84375 10.007812 -2.90625 10.09375 -3 C 10.1875 -3.101562 10.273438 -3.265625 10.359375 -3.484375 L 11.734375 -6.453125 Z M 12.484375 -6.453125 "/></g></g><g style="fill:#f7f8f6;fill-opacity:1;"><g transform="translate(344.025314, 496.070984)"><path style="stroke:none" d="M 0.609375 -1.421875 C 0.609375 -1.992188 0.789062 -2.484375 1.15625 -2.890625 C 1.53125 -3.304688 2.03125 -3.515625 2.65625 -3.515625 C 3.207031 -3.515625 3.632812 -3.359375 3.9375 -3.046875 C 4.238281 -2.742188 4.390625 -2.335938 4.390625 -1.828125 C 4.390625 -1.253906 4.207031 -0.757812 3.84375 -0.34375 C 3.476562 0.0625 2.984375 0.265625 2.359375 0.265625 C 1.804688 0.265625 1.375 0.113281 1.0625 -0.1875 C 0.757812 -0.488281 0.609375 -0.898438 0.609375 -1.421875 Z M 0.609375 -1.421875 "/></g></g><g style="fill:#f7f8f6;fill-opacity:1;"><g transform="translate(329.88419, 590.553507)"><path style="stroke:none" d="M 12.421875 -5.359375 C 12.421875 -4.265625 12.148438 -3.289062 11.609375 -2.4375 C 11.066406 -1.59375 10.28125 -0.929688 9.25 -0.453125 C 8.226562 0.0234375 7.003906 0.265625 5.578125 0.265625 C 3.984375 0.265625 2.726562 -0.0859375 1.8125 -0.796875 C 0.90625 -1.515625 0.378906 -2.585938 0.234375 -4.015625 L 1.90625 -4.53125 C 1.957031 -3.601562 2.140625 -2.859375 2.453125 -2.296875 C 2.765625 -1.734375 3.160156 -1.320312 3.640625 -1.0625 C 4.117188 -0.800781 4.617188 -0.671875 5.140625 -0.671875 C 5.890625 -0.671875 6.550781 -0.890625 7.125 -1.328125 C 7.695312 -1.765625 8.144531 -2.363281 8.46875 -3.125 C 8.800781 -3.894531 8.96875 -4.753906 8.96875 -5.703125 C 8.96875 -6.734375 8.726562 -7.515625 8.25 -8.046875 C 7.78125 -8.585938 7.003906 -8.859375 5.921875 -8.859375 L 5.203125 -8.859375 L 5.390625 -9.796875 L 6.109375 -9.796875 C 7.140625 -9.796875 7.96875 -10.015625 8.59375 -10.453125 C 9.21875 -10.890625 9.675781 -11.484375 9.96875 -12.234375 C 10.269531 -12.984375 10.421875 -13.832031 10.421875 -14.78125 C 10.421875 -15.757812 10.253906 -16.460938 9.921875 -16.890625 C 9.585938 -17.328125 9.09375 -17.546875 8.4375 -17.546875 C 7.457031 -17.546875 6.695312 -17.109375 6.15625 -16.234375 C 5.625 -15.359375 5.296875 -14.113281 5.171875 -12.5 L 2.03125 -12.9375 C 2.03125 -13.894531 2.265625 -14.796875 2.734375 -15.640625 C 3.210938 -16.484375 3.929688 -17.164062 4.890625 -17.6875 C 5.859375 -18.21875 7.066406 -18.484375 8.515625 -18.484375 C 10.367188 -18.484375 11.71875 -18.066406 12.5625 -17.234375 C 13.414062 -16.398438 13.84375 -15.378906 13.84375 -14.171875 C 13.84375 -12.953125 13.445312 -11.921875 12.65625 -11.078125 C 11.875 -10.242188 10.707031 -9.65625 9.15625 -9.3125 C 11.332031 -8.6875 12.421875 -7.367188 12.421875 -5.359375 Z M 12.421875 -5.359375 "/></g></g><g style="fill:#f7f8f6;fill-opacity:1;"><g transform="translate(343.890691, 590.553507)"><path style="stroke:none" d="M 0.609375 -1.421875 C 0.609375 -1.992188 0.789062 -2.484375 1.15625 -2.890625 C 1.53125 -3.304688 2.03125 -3.515625 2.65625 -3.515625 C 3.207031 -3.515625 3.632812 -3.359375 3.9375 -3.046875 C 4.238281 -2.742188 4.390625 -2.335938 4.390625 -1.828125 C 4.390625 -1.253906 4.207031 -0.757812 3.84375 -0.34375 C 3.476562 0.0625 2.984375 0.265625 2.359375 0.265625 C 1.804688 0.265625 1.375 0.113281 1.0625 -0.1875 C 0.757812 -0.488281 0.609375 -0.898438 0.609375 -1.421875 Z M 0.609375 -1.421875 "/></g></g></g></svg>