<svg xmlns="http://www.w3.org/2000/svg" xmlns:xlink="http://www.w3.org/1999/xlink" width="1080" zoomAndPan="magnify" viewBox="0 0 810 809.999993" height="1080" preserveAspectRatio="xMidYMid meet" version="1.2"><defs><clipPath id="0d69b22e06"><path d="M 69.167969 402.894531 L 394 402.894531 L 394 457.921875 L 69.167969 457.921875 Z M 69.167969 402.894531 "/></clipPath><clipPath id="4176e2ac77"><path d="M 370.523438 402.894531 C 383.519531 402.894531 394.054688 415.214844 394.054688 430.410156 C 394.054688 445.605469 383.519531 457.921875 370.523438 457.921875 L 92.699219 457.921875 C 79.703125 457.921875 69.167969 445.605469 69.167969 430.410156 C 69.167969 415.214844 79.703125 402.894531 92.699219 402.894531 Z M 370.523438 402.894531 "/></clipPath><clipPath id="e07f2e14be"><path d="M 69.1875 402.894531 L 393.917969 402.894531 L 393.917969 457.644531 L 69.1875 457.644531 Z M 69.1875 402.894531 "/></clipPath><clipPath id="88ed0561e6"><path d="M 370.375 402.894531 C 383.363281 402.894531 393.894531 415.152344 393.894531 430.269531 C 393.894531 445.386719 383.363281 457.644531 370.375 457.644531 L 92.707031 457.644531 C 79.71875 457.644531 69.1875 445.386719 69.1875 430.269531 C 69.1875 415.152344 79.71875 402.894531 92.707031 402.894531 Z M 370.375 402.894531 "/></clipPath><clipPath id="8c514cd923"><path d="M 69.167969 327.957031 L 394 327.957031 L 394 383.09375 L 69.167969 383.09375 Z M 69.167969 327.957031 "/></clipPath><clipPath id="929a2d28f3"><path d="M 370.523438 327.957031 C 383.519531 327.957031 394.054688 340.296875 394.054688 355.523438 C 394.054688 370.75 383.519531 383.09375 370.523438 383.09375 L 92.699219 383.09375 C 79.703125 383.09375 69.167969 370.75 69.167969 355.523438 C 69.167969 340.296875 79.703125 327.957031 92.699219 327.957031 Z M 370.523438 327.957031 "/></clipPath><clipPath id="84acc78aa4"><path d="M 69.167969 327.957031 L 393.917969 327.957031 L 393.917969 383.457031 L 69.167969 383.457031 Z M 69.167969 327.957031 "/></clipPath><clipPath id="9edc7365f9"><path d="M 370.394531 327.957031 C 383.382812 327.957031 393.917969 340.292969 393.917969 355.511719 C 393.917969 370.730469 383.382812 383.070312 370.394531 383.070312 L 92.6875 383.070312 C 79.699219 383.070312 69.167969 370.730469 69.167969 355.511719 C 69.167969 340.292969 79.699219 327.957031 92.6875 327.957031 Z M 370.394531 327.957031 "/></clipPath><clipPath id="3c45318463"><path d="M 69.167969 477.726562 L 394 477.726562 L 394 532.753906 L 69.167969 532.753906 Z M 69.167969 477.726562 "/></clipPath><clipPath id="5d2a9ea9cd"><path d="M 370.523438 477.726562 C 383.519531 477.726562 394.054688 490.042969 394.054688 505.238281 C 394.054688 520.4375 383.519531 532.753906 370.523438 532.753906 L 92.699219 532.753906 C 79.703125 532.753906 69.167969 520.4375 69.167969 505.238281 C 69.167969 490.042969 79.703125 477.726562 92.699219 477.726562 Z M 370.523438 477.726562 "/></clipPath><clipPath id="05c9a89543"><path d="M 69.1875 477.726562 L 393.917969 477.726562 L 393.917969 532.476562 L 69.1875 532.476562 Z M 69.1875 477.726562 "/></clipPath><clipPath id="3b0ee37ca6"><path d="M 370.375 477.726562 C 383.363281 477.726562 393.894531 489.980469 393.894531 505.101562 C 393.894531 520.21875 383.363281 532.476562 370.375 532.476562 L 92.707031 532.476562 C 79.71875 532.476562 69.1875 520.21875 69.1875 505.101562 C 69.1875 489.980469 79.71875 477.726562 92.707031 477.726562 Z M 370.375 477.726562 "/></clipPath><clipPath id="50885250f7"><path d="M 69.167969 552.558594 L 394 552.558594 L 394 607.585938 L 69.167969 607.585938 Z M 69.167969 552.558594 "/></clipPath><clipPath id="7147674211"><path d="M 370.523438 552.558594 C 383.519531 552.558594 394.054688 564.875 394.054688 580.070312 C 394.054688 595.265625 383.519531 607.585938 370.523438 607.585938 L 92.699219 607.585938 C 79.703125 607.585938 69.167969 595.265625 69.167969 580.070312 C 69.167969 564.875 79.703125 552.558594 92.699219 552.558594 Z M 370.523438 552.558594 "/></clipPath><clipPath id="9a053cfba1"><path d="M 69.1875 552.558594 L 393.917969 552.558594 L 393.917969 607.308594 L 69.1875 607.308594 Z M 69.1875 552.558594 "/></clipPath><clipPath id="4ebca14596"><path d="M 370.375 552.558594 C 383.363281 552.558594 393.894531 564.8125 393.894531 579.933594 C 393.894531 595.050781 383.363281 607.308594 370.375 607.308594 L 92.707031 607.308594 C 79.71875 607.308594 69.1875 595.050781 69.1875 579.933594 C 69.1875 564.8125 79.71875 552.558594 92.707031 552.558594 Z M 370.375 552.558594 "/></clipPath><clipPath id="3b6c14d7dd"><path d="M 69.167969 627.386719 L 394 627.386719 L 394 682.417969 L 69.167969 682.417969 Z M 69.167969 627.386719 "/></clipPath><clipPath id="3ae5b96bf8"><path d="M 370.523438 627.386719 C 383.519531 627.386719 394.054688 639.707031 394.054688 654.902344 C 394.054688 670.097656 383.519531 682.417969 370.523438 682.417969 L 92.699219 682.417969 C 79.703125 682.417969 69.167969 670.097656 69.167969 654.902344 C 69.167969 639.707031 79.703125 627.386719 92.699219 627.386719 Z M 370.523438 627.386719 "/></clipPath><clipPath id="05c3866540"><path d="M 69.1875 627.386719 L 393.917969 627.386719 L 393.917969 682.136719 L 69.1875 682.136719 Z M 69.1875 627.386719 "/></clipPath><clipPath id="02f7958d76"><path d="M 370.375 627.386719 C 383.363281 627.386719 393.894531 639.644531 393.894531 654.761719 C 393.894531 669.882812 383.363281 682.136719 370.375 682.136719 L 92.707031 682.136719 C 79.71875 682.136719 69.1875 669.882812 69.1875 654.761719 C 69.1875 639.644531 79.71875 627.386719 92.707031 627.386719 Z M 370.375 627.386719 "/></clipPath><clipPath id="9fedac8cbf"><path d="M 88.304688 344 L 110.054688 344 L 110.054688 367 L 88.304688 367 Z M 88.304688 344 "/></clipPath><clipPath id="7e159cc561"><path d="M 88.304688 493.671875 L 110.054688 493.671875 L 110.054688 516.921875 L 88.304688 516.921875 Z M 88.304688 493.671875 "/></clipPath><clipPath id="9d72df7580"><path d="M 88.304688 643.347656 L 110.054688 643.347656 L 110.054688 666 L 88.304688 666 Z M 88.304688 643.347656 "/></clipPath><clipPath id="fcf687475f"><path d="M 88.304688 418.832031 L 110.054688 418.832031 L 110.054688 442 L 88.304688 442 Z M 88.304688 418.832031 "/></clipPath><clipPath id="51b68bebef"><path d="M 88.304688 568.507812 L 110.054688 568.507812 L 110.054688 591.757812 L 88.304688 591.757812 Z M 88.304688 568.507812 "/></clipPath><clipPath id="ad5062f853"><path d="M 317 611 L 810 611 L 810 810 L 317 810 Z M 317 611 "/></clipPath><clipPath id="923fda8cfb"><path d="M 316.730469 869.179688 L 963.082031 611.019531 L 1012.878906 735.695312 L 366.527344 993.855469 Z M 316.730469 869.179688 "/></clipPath><clipPath id="f622e64c29"><path d="M 423.140625 106.804688 L 757.046875 106.804688 L 757.046875 703 L 423.140625 703 Z M 423.140625 106.804688 "/></clipPath><clipPath id="3fefa1ab89"><path d="M 436 125.035156 L 745.4375 125.035156 L 745.4375 493.976562 L 436 493.976562 Z M 436 125.035156 "/></clipPath><clipPath id="c2d9862398"><path d="M 745.027344 264.972656 C 744.890625 234.269531 743.804688 197.117188 743.804688 163.746094 C 743.804688 154.625 743.667969 136.382812 742.988281 127.261719 C 726.65625 127.261719 709.101562 125.035156 692.636719 125.035156 C 607.035156 125.480469 522.253906 124.855469 436.792969 125.035156 C 436.792969 154.847656 436.246094 187.996094 436.382812 217.808594 C 436.65625 273.425781 437.0625 329.265625 437.0625 384.882812 C 437.0625 411.800781 436.929688 438.5 437.746094 465.417969 C 438.015625 474.09375 438.289062 482.546875 438.832031 491.222656 C 456.796875 491.667969 474.625 492.335938 492.585938 493.226562 C 540.355469 495.117188 586.757812 491.890625 636.023438 493.449219 C 673.175781 494.394531 709.644531 491.222656 747.246094 491.222656 C 747.246094 488.332031 747.425781 471.421875 747.609375 468.53125 C 747.96875 451.179688 745.980469 418.699219 746.160156 401.34375 C 747.066406 329.933594 745.300781 326.59375 745.027344 264.972656 Z M 745.027344 264.972656 "/></clipPath><clipPath id="2f2a8c4256"><path d="M 455.003906 350.109375 L 467.753906 350.109375 L 467.753906 362.859375 L 455.003906 362.859375 Z M 455.003906 350.109375 "/></clipPath><clipPath id="c62f4cb2f5"><path d="M 455.003906 424.863281 L 467.753906 424.863281 L 467.753906 437.613281 L 455.003906 437.613281 Z M 455.003906 424.863281 "/></clipPath><clipPath id="2ff4df8652"><path d="M 455.003906 499.617188 L 467.753906 499.617188 L 467.753906 512.367188 L 455.003906 512.367188 Z M 455.003906 499.617188 "/></clipPath><clipPath id="dc802369bc"><path d="M 455.003906 574.371094 L 467.753906 574.371094 L 467.753906 587.121094 L 455.003906 587.121094 Z M 455.003906 574.371094 "/></clipPath><clipPath id="eb27470a63"><path d="M 455.003906 649.128906 L 467.753906 649.128906 L 467.753906 661.878906 L 455.003906 661.878906 Z M 455.003906 649.128906 "/></clipPath><clipPath id="83b1070b21"><path d="M 0 0 L 343 0 L 343 213 L 0 213 Z M 0 0 "/></clipPath><clipPath id="015c16625f"><path d="M -305.054688 96.253906 L 296.71875 -144.101562 L 343.175781 -27.789062 L -258.597656 212.570312 Z M -305.054688 96.253906 "/></clipPath></defs><g id="8afe836d74"><rect x="0" width="810" y="0" height="809.999993" style="fill:#ffffff;fill-opacity:1;stroke:none;"/><rect x="0" width="810" y="0" height="809.999993" style="fill:COLOR_LIGHT_CONTRAST;fill-opacity:1;stroke:none;"/><g clip-rule="nonzero" clip-path="url(#0d69b22e06)"><g clip-rule="nonzero" clip-path="url(#4176e2ac77)"><path style=" stroke:none;fill-rule:nonzero;fill:COLOR_LIGHT_CONTRAST;fill-opacity:1;" d="M 69.167969 402.894531 L 393.964844 402.894531 L 393.964844 457.921875 L 69.167969 457.921875 Z M 69.167969 402.894531 "/></g></g><g clip-rule="nonzero" clip-path="url(#e07f2e14be)"><g clip-rule="nonzero" clip-path="url(#88ed0561e6)"><path style="fill:none;stroke-width:4;stroke-linecap:butt;stroke-linejoin:miter;stroke:#000000;stroke-opacity:1;stroke-miterlimit:4;" d="M 401.741196 -0.0000274423 C 419.065779 -0.0000274423 433.113019 16.424182 433.113019 36.679659 C 433.113019 56.935137 419.065779 73.359346 401.741196 73.359346 L 31.37028 73.359346 C 14.045697 73.359346 -0.00154304 56.935137 -0.00154304 36.679659 C -0.00154304 16.424182 14.045697 -0.0000274423 31.37028 -0.0000274423 Z M 401.741196 -0.0000274423 " transform="matrix(0.749702,0,0,0.746326,69.188657,402.894552)"/></g></g><g clip-rule="nonzero" clip-path="url(#8c514cd923)"><g clip-rule="nonzero" clip-path="url(#929a2d28f3)"><path style=" stroke:none;fill-rule:nonzero;fill:COLOR_LIGHT_CONTRAST;fill-opacity:1;" d="M 69.167969 327.957031 L 393.957031 327.957031 L 393.957031 383.09375 L 69.167969 383.09375 Z M 69.167969 327.957031 "/></g></g><g clip-rule="nonzero" clip-path="url(#84acc78aa4)"><g clip-rule="nonzero" clip-path="url(#9edc7365f9)"><path style="fill:none;stroke-width:4;stroke-linecap:butt;stroke-linejoin:miter;stroke:#000000;stroke-opacity:1;stroke-miterlimit:4;" d="M 401.797411 0.00154481 C 419.127205 0.00154481 433.174446 16.455991 433.174446 36.755714 C 433.174446 57.055437 419.127205 73.515094 401.797411 73.515094 L 31.374367 73.515094 C 14.049783 73.515094 0.00254171 57.055437 0.00254171 36.755714 C 0.00254171 16.455991 14.049783 0.00154481 31.374367 0.00154481 Z M 401.797411 0.00154481 " transform="matrix(0.749702,0,0,0.749702,69.166063,327.955873)"/></g></g><g clip-rule="nonzero" clip-path="url(#3c45318463)"><g clip-rule="nonzero" clip-path="url(#5d2a9ea9cd)"><path style=" stroke:none;fill-rule:nonzero;fill:COLOR_LIGHT_CONTRAST;fill-opacity:1;" d="M 69.167969 477.726562 L 393.964844 477.726562 L 393.964844 532.753906 L 69.167969 532.753906 Z M 69.167969 477.726562 "/></g></g><g clip-rule="nonzero" clip-path="url(#05c9a89543)"><g clip-rule="nonzero" clip-path="url(#3b0ee37ca6)"><path style="fill:none;stroke-width:4;stroke-linecap:butt;stroke-linejoin:miter;stroke:#000000;stroke-opacity:1;stroke-miterlimit:4;" d="M 401.741196 0.00117714 C 419.065779 0.00117714 433.113019 16.420152 433.113019 36.680864 C 433.113019 56.936341 419.065779 73.36055 401.741196 73.36055 L 31.37028 73.36055 C 14.045697 73.36055 -0.00154304 56.936341 -0.00154304 36.680864 C -0.00154304 16.420152 14.045697 0.00117714 31.37028 0.00117714 Z M 401.741196 0.00117714 " transform="matrix(0.749702,0,0,0.746326,69.188657,477.725684)"/></g></g><g clip-rule="nonzero" clip-path="url(#50885250f7)"><g clip-rule="nonzero" clip-path="url(#7147674211)"><path style=" stroke:none;fill-rule:nonzero;fill:COLOR_LIGHT_CONTRAST;fill-opacity:1;" d="M 69.167969 552.558594 L 393.964844 552.558594 L 393.964844 607.585938 L 69.167969 607.585938 Z M 69.167969 552.558594 "/></g></g><g clip-rule="nonzero" clip-path="url(#9a053cfba1)"><g clip-rule="nonzero" clip-path="url(#4ebca14596)"><path style="fill:none;stroke-width:4;stroke-linecap:butt;stroke-linejoin:miter;stroke:#000000;stroke-opacity:1;stroke-miterlimit:4;" d="M 401.741196 0.0024782 C 419.065779 0.0024782 433.113019 16.421453 433.113019 36.682165 C 433.113019 56.937642 419.065779 73.361851 401.741196 73.361851 L 31.37028 73.361851 C 14.045697 73.361851 -0.00154304 56.937642 -0.00154304 36.682165 C -0.00154304 16.421453 14.045697 0.0024782 31.37028 0.0024782 Z M 401.741196 0.0024782 " transform="matrix(0.749702,0,0,0.746326,69.188657,552.556744)"/></g></g><g clip-rule="nonzero" clip-path="url(#3b6c14d7dd)"><g clip-rule="nonzero" clip-path="url(#3ae5b96bf8)"><path style=" stroke:none;fill-rule:nonzero;fill:COLOR_LIGHT_CONTRAST;fill-opacity:1;" d="M 69.167969 627.386719 L 393.964844 627.386719 L 393.964844 682.417969 L 69.167969 682.417969 Z M 69.167969 627.386719 "/></g></g><g clip-rule="nonzero" clip-path="url(#05c3866540)"><g clip-rule="nonzero" clip-path="url(#02f7958d76)"><path style="fill:none;stroke-width:4;stroke-linecap:butt;stroke-linejoin:miter;stroke:#000000;stroke-opacity:1;stroke-miterlimit:4;" d="M 401.741196 -0.00155118 C 419.065779 -0.00155118 433.113019 16.422658 433.113019 36.678135 C 433.113019 56.938847 419.065779 73.357822 401.741196 73.357822 L 31.37028 73.357822 C 14.045697 73.357822 -0.00154304 56.938847 -0.00154304 36.678135 C -0.00154304 16.422658 14.045697 -0.00155118 31.37028 -0.00155118 Z M 401.741196 -0.00155118 " transform="matrix(0.749702,0,0,0.746326,69.188657,627.387876)"/></g></g><g clip-rule="nonzero" clip-path="url(#9fedac8cbf)"><path style=" stroke:none;fill-rule:nonzero;fill:#000000;fill-opacity:1;" d="M 109.222656 344.066406 L 108.246094 344.734375 C 103.136719 348.226562 97.90625 355.457031 95.296875 361.335938 C 94.894531 360.769531 94.773438 360.585938 94.382812 359.957031 C 92.785156 357.804688 90.761719 355.953125 89.804688 355.273438 L 88.304688 355.898438 L 88.351562 355.988281 C 89.386719 357.121094 91.203125 359.632812 93.941406 365.175781 C 94.109375 365.414062 94.289062 365.648438 94.492188 365.867188 C 95.027344 366.441406 95.578125 366.5625 95.945312 366.5625 C 96.992188 366.5625 97.605469 365.738281 98.03125 364.769531 C 100.773438 354.597656 107.253906 347.589844 110.058594 345.191406 Z M 109.222656 344.066406 "/></g><g clip-rule="nonzero" clip-path="url(#7e159cc561)"><path style=" stroke:none;fill-rule:nonzero;fill:#000000;fill-opacity:1;" d="M 109.222656 493.742188 L 108.246094 494.410156 C 103.136719 497.902344 97.90625 505.132812 95.296875 511.011719 C 94.894531 510.445312 94.773438 510.261719 94.382812 509.632812 C 92.785156 507.480469 90.761719 505.628906 89.804688 504.949219 L 88.304688 505.574219 L 88.351562 505.664062 C 89.386719 506.796875 91.203125 509.308594 93.941406 514.851562 C 94.109375 515.089844 94.289062 515.324219 94.492188 515.542969 C 95.027344 516.117188 95.578125 516.238281 95.945312 516.238281 C 96.992188 516.238281 97.605469 515.414062 98.03125 514.445312 C 100.773438 504.273438 107.253906 497.265625 110.058594 494.867188 Z M 109.222656 493.742188 "/></g><g clip-rule="nonzero" clip-path="url(#9d72df7580)"><path style=" stroke:none;fill-rule:nonzero;fill:#000000;fill-opacity:1;" d="M 109.222656 643.417969 L 108.246094 644.085938 C 103.136719 647.578125 97.90625 654.808594 95.296875 660.6875 C 94.894531 660.121094 94.773438 659.9375 94.382812 659.308594 C 92.785156 657.15625 90.761719 655.304688 89.804688 654.625 L 88.304688 655.25 L 88.351562 655.339844 C 89.386719 656.472656 91.203125 658.984375 93.941406 664.527344 C 94.109375 664.765625 94.289062 665 94.492188 665.21875 C 95.027344 665.792969 95.578125 665.914062 95.945312 665.914062 C 96.992188 665.914062 97.605469 665.089844 98.03125 664.121094 C 100.773438 653.949219 107.253906 646.941406 110.058594 644.542969 Z M 109.222656 643.417969 "/></g><g clip-rule="nonzero" clip-path="url(#fcf687475f)"><path style=" stroke:none;fill-rule:nonzero;fill:#000000;fill-opacity:1;" d="M 109.222656 418.902344 L 108.246094 419.570312 C 103.136719 423.0625 97.90625 430.292969 95.296875 436.171875 C 94.894531 435.609375 94.773438 435.421875 94.382812 434.796875 C 92.785156 432.640625 90.761719 430.792969 89.804688 430.109375 L 88.304688 430.738281 L 88.351562 430.824219 C 89.386719 431.957031 91.203125 434.472656 93.941406 440.011719 C 94.109375 440.25 94.289062 440.488281 94.492188 440.707031 C 95.027344 441.28125 95.578125 441.398438 95.945312 441.398438 C 96.992188 441.398438 97.605469 440.574219 98.03125 439.609375 C 100.773438 429.433594 107.253906 422.429688 110.058594 420.03125 Z M 109.222656 418.902344 "/></g><g clip-rule="nonzero" clip-path="url(#51b68bebef)"><path style=" stroke:none;fill-rule:nonzero;fill:#000000;fill-opacity:1;" d="M 109.222656 568.578125 L 108.246094 569.246094 C 103.136719 572.738281 97.90625 579.96875 95.296875 585.847656 C 94.894531 585.285156 94.773438 585.097656 94.382812 584.472656 C 92.785156 582.316406 90.761719 580.46875 89.804688 579.785156 L 88.304688 580.414062 L 88.351562 580.5 C 89.386719 581.632812 91.203125 584.148438 93.941406 589.6875 C 94.109375 589.925781 94.289062 590.164062 94.492188 590.382812 C 95.027344 590.957031 95.578125 591.074219 95.945312 591.074219 C 96.992188 591.074219 97.605469 590.25 98.03125 589.285156 C 100.773438 579.109375 107.253906 572.105469 110.058594 569.707031 Z M 109.222656 568.578125 "/></g><g clip-rule="nonzero" clip-path="url(#ad5062f853)"><g clip-rule="nonzero" clip-path="url(#923fda8cfb)"><g mask="url(#5ab07e5bff)" transform="matrix(0.923358,-0.3688,0.368859,0.923506,316.730256,869.180405)"><image width="700" xlink:href="file:///Users/erikbelt/Desktop/Mood Tracking App/AdCreator/image-generation-service/assets/Product_Remover_3-img1-46a94d91.png" height="135" preserveAspectRatio="xMidYMid meet"/><mask id="5ab07e5bff"><g transform="matrix(1,0.000000000000000056,0,1,0.00000000000003908,-0.000000000000113687)"><image width="700" xlink:href="file:///Users/erikbelt/Desktop/Mood Tracking App/AdCreator/image-generation-service/assets/Product_Remover_3-img2-0db44d73.png" height="135" preserveAspectRatio="xMidYMid meet"/></g></mask></g></g></g><g clip-rule="nonzero" clip-path="url(#f622e64c29)"><path style=" stroke:none;fill-rule:nonzero;fill:#ffffff;fill-opacity:1;" d="M 423.140625 106.804688 L 757.046875 106.804688 L 757.046875 702.878906 L 423.140625 702.878906 Z M 423.140625 106.804688 "/></g><g clip-rule="nonzero" clip-path="url(#3fefa1ab89)"><g clip-rule="nonzero" clip-path="url(#c2d9862398)"><g transform="matrix(0.658291,0,0,0.658821,118.445066,125.002663)"><image width="1438" xlink:href="PLACE_PRODUCT_IMAGE_1_HERE" height="560" preserveAspectRatio="xMidYMid meet"/></g></g></g><path style="fill:none;stroke-width:2;stroke-linecap:butt;stroke-linejoin:miter;stroke:#000000;stroke-opacity:1;stroke-miterlimit:4;" d="M 0.000924387 1.001305 L 81.266551 1.001305 " transform="matrix(0.747549,0,0,0.747549,394.053996,355.849132)"/><path style="fill:none;stroke-width:2;stroke-linecap:butt;stroke-linejoin:miter;stroke:#000000;stroke-opacity:1;stroke-miterlimit:4;" d="M 0.000924387 1.000674 L 81.266551 1.000674 " transform="matrix(0.747549,0,0,0.747549,394.053996,430.60351)"/><path style="fill:none;stroke-width:2;stroke-linecap:butt;stroke-linejoin:miter;stroke:#000000;stroke-opacity:1;stroke-miterlimit:4;" d="M 0.000924387 1.000168 L 81.266551 1.000168 " transform="matrix(0.747549,0,0,0.747549,394.053996,505.357795)"/><path style="fill:none;stroke-width:2;stroke-linecap:butt;stroke-linejoin:miter;stroke:#000000;stroke-opacity:1;stroke-miterlimit:4;" d="M 0.000924387 0.999566 L 81.266551 0.999566 " transform="matrix(0.747549,0,0,0.747549,394.053996,580.112151)"/><path style="fill:none;stroke-width:2;stroke-linecap:butt;stroke-linejoin:miter;stroke:#000000;stroke-opacity:1;stroke-miterlimit:4;" d="M 0.000924387 0.998996 L 81.266551 0.998996 " transform="matrix(0.747549,0,0,0.747549,394.053996,654.866483)"/><g clip-rule="nonzero" clip-path="url(#2f2a8c4256)"><path style=" stroke:none;fill-rule:nonzero;fill:#000000;fill-opacity:1;" d="M 461.378906 350.109375 C 457.855469 350.109375 455.003906 352.960938 455.003906 356.484375 C 455.003906 360.007812 457.855469 362.859375 461.378906 362.859375 C 464.902344 362.859375 467.753906 360.007812 467.753906 356.484375 C 467.753906 352.960938 464.902344 350.109375 461.378906 350.109375 Z M 461.378906 361.585938 C 458.5625 361.585938 456.277344 359.300781 456.277344 356.484375 C 456.277344 353.667969 458.5625 351.386719 461.378906 351.386719 C 464.195312 351.386719 466.480469 353.667969 466.480469 356.484375 C 466.480469 359.300781 464.195312 361.585938 461.378906 361.585938 Z M 461.378906 361.585938 "/></g><g clip-rule="nonzero" clip-path="url(#c62f4cb2f5)"><path style=" stroke:none;fill-rule:nonzero;fill:#000000;fill-opacity:1;" d="M 461.378906 424.863281 C 457.855469 424.863281 455.003906 427.71875 455.003906 431.238281 C 455.003906 434.761719 457.855469 437.613281 461.378906 437.613281 C 464.902344 437.613281 467.753906 434.761719 467.753906 431.238281 C 467.753906 427.71875 464.902344 424.863281 461.378906 424.863281 Z M 461.378906 436.339844 C 458.5625 436.339844 456.277344 434.058594 456.277344 431.238281 C 456.277344 428.421875 458.5625 426.140625 461.378906 426.140625 C 464.195312 426.140625 466.480469 428.421875 466.480469 431.238281 C 466.480469 434.058594 464.195312 436.339844 461.378906 436.339844 Z M 461.378906 436.339844 "/></g><g clip-rule="nonzero" clip-path="url(#2ff4df8652)"><path style=" stroke:none;fill-rule:nonzero;fill:#000000;fill-opacity:1;" d="M 461.378906 499.617188 C 457.855469 499.617188 455.003906 502.472656 455.003906 505.992188 C 455.003906 509.515625 457.855469 512.367188 461.378906 512.367188 C 464.902344 512.367188 467.753906 509.515625 467.753906 505.992188 C 467.753906 502.472656 464.902344 499.617188 461.378906 499.617188 Z M 461.378906 511.09375 C 458.5625 511.09375 456.277344 508.8125 456.277344 505.992188 C 456.277344 503.175781 458.5625 500.894531 461.378906 500.894531 C 464.195312 500.894531 466.480469 503.175781 466.480469 505.992188 C 466.480469 508.8125 464.195312 511.09375 461.378906 511.09375 Z M 461.378906 511.09375 "/></g><g clip-rule="nonzero" clip-path="url(#dc802369bc)"><path style=" stroke:none;fill-rule:nonzero;fill:#000000;fill-opacity:1;" d="M 461.378906 574.371094 C 457.855469 574.371094 455.003906 577.226562 455.003906 580.746094 C 455.003906 584.269531 457.855469 587.121094 461.378906 587.121094 C 464.902344 587.121094 467.753906 584.269531 467.753906 580.746094 C 467.753906 577.226562 464.902344 574.371094 461.378906 574.371094 Z M 461.378906 585.847656 C 458.5625 585.847656 456.277344 583.566406 456.277344 580.746094 C 456.277344 577.929688 458.5625 575.648438 461.378906 575.648438 C 464.195312 575.648438 466.480469 577.929688 466.480469 580.746094 C 466.480469 583.566406 464.195312 585.847656 461.378906 585.847656 Z M 461.378906 585.847656 "/></g><g clip-rule="nonzero" clip-path="url(#eb27470a63)"><path style=" stroke:none;fill-rule:nonzero;fill:#000000;fill-opacity:1;" d="M 461.378906 649.128906 C 457.855469 649.128906 455.003906 651.980469 455.003906 655.503906 C 455.003906 659.023438 457.855469 661.878906 461.378906 661.878906 C 464.902344 661.878906 467.753906 659.023438 467.753906 655.503906 C 467.753906 651.980469 464.902344 649.128906 461.378906 649.128906 Z M 461.378906 660.601562 C 458.5625 660.601562 456.277344 658.320312 456.277344 655.503906 C 456.277344 652.683594 458.5625 650.402344 461.378906 650.402344 C 464.195312 650.402344 466.480469 652.683594 466.480469 655.503906 C 466.480469 658.320312 464.195312 660.601562 461.378906 660.601562 Z M 461.378906 660.601562 "/></g><g clip-rule="nonzero" clip-path="url(#83b1070b21)"><g clip-rule="nonzero" clip-path="url(#015c16625f)"><g mask="url(#2669de2814)" transform="matrix(0.859678,-0.343366,0.344131,0.861595,-305.055356,96.253412)"><image width="700" xlink:href="file:///Users/erikbelt/Desktop/Mood Tracking App/AdCreator/image-generation-service/assets/Product_Remover_3-img4-46a94d91.png" height="135" preserveAspectRatio="xMidYMid meet"/><mask id="2669de2814"><g transform="matrix(1,0,0,1,0,0.000000000000014211)"><image width="700" xlink:href="file:///Users/erikbelt/Desktop/Mood Tracking App/AdCreator/image-generation-service/assets/Product_Remover_3-img5-0db44d73.png" height="135" preserveAspectRatio="xMidYMid meet"/></g></mask></g></g></g></g></svg>