<svg xmlns="http://www.w3.org/2000/svg" xmlns:xlink="http://www.w3.org/1999/xlink" width="1080" zoomAndPan="magnify" viewBox="0 0 810 809.999993" height="1080" preserveAspectRatio="xMidYMid meet" version="1.2"><defs><clipPath id="fd2d641f6e"><path d="M 158.472656 66 L 651.527344 66 L 651.527344 810 L 158.472656 810 Z M 158.472656 66 "/></clipPath><clipPath id="00d9e719d3"><path d="M 581.710938 66.789062 L 228.289062 66.789062 C 189.984375 66.789062 158.894531 97.878906 158.894531 136.179688 L 158.894531 1002.453125 C 158.894531 1040.757812 189.984375 1071.847656 228.289062 1071.847656 L 581.710938 1071.847656 C 620.015625 1071.847656 651.105469 1040.757812 651.105469 1002.453125 L 651.105469 136.179688 C 651.105469 97.878906 620.015625 66.789062 581.710938 66.789062 Z M 464.070312 98.625 C 467.550781 98.625 470.289062 101.359375 470.289062 104.84375 C 470.289062 108.324219 467.550781 111.058594 464.070312 111.058594 C 460.585938 111.058594 457.851562 108.324219 457.851562 104.84375 C 457.851562 101.359375 460.835938 98.625 464.070312 98.625 Z M 372.292969 100.613281 L 431.984375 100.613281 C 434.222656 100.613281 436.214844 102.355469 436.214844 104.84375 C 436.214844 107.328125 434.222656 109.070312 431.984375 109.070312 L 372.292969 109.070312 C 370.054688 109.070312 368.066406 107.328125 368.066406 104.84375 C 368.066406 102.355469 370.054688 100.613281 372.292969 100.613281 Z M 625.734375 1006.433594 C 625.734375 1029.066406 607.328125 1047.472656 584.695312 1047.472656 L 225.800781 1047.472656 C 203.167969 1047.472656 184.761719 1029.066406 184.761719 1006.433594 L 184.761719 133.445312 C 184.761719 110.8125 203.167969 92.40625 225.800781 92.40625 L 279.273438 92.40625 L 279.273438 103.597656 C 279.273438 116.28125 289.71875 126.730469 302.40625 126.730469 L 508.09375 126.730469 C 520.777344 126.730469 531.222656 116.28125 531.222656 103.597656 L 531.222656 92.40625 L 584.449219 92.40625 C 607.082031 92.40625 625.484375 110.8125 625.484375 133.445312 L 625.484375 1006.433594 Z M 625.734375 1006.433594 "/></clipPath><clipPath id="ae85ce5f94"><path d="M 184.527344 92 L 626 92 L 626 810 L 184.527344 810 Z M 184.527344 92 "/></clipPath><clipPath id="147c679b1c"><path d="M 584.449219 92.40625 L 531.222656 92.40625 L 531.222656 103.597656 C 531.222656 116.28125 520.777344 126.730469 508.09375 126.730469 L 302.652344 126.730469 C 289.96875 126.730469 279.523438 116.28125 279.523438 103.597656 L 279.523438 92.40625 L 225.800781 92.40625 C 203.167969 92.40625 184.761719 110.8125 184.761719 133.445312 L 184.761719 1006.433594 C 184.761719 1029.066406 203.167969 1047.472656 225.800781 1047.472656 L 584.449219 1047.472656 C 607.082031 1047.472656 625.484375 1029.066406 625.484375 1006.433594 L 625.484375 133.445312 C 625.734375 110.8125 607.328125 92.40625 584.449219 92.40625 Z M 584.449219 92.40625 "/></clipPath><clipPath id="915a475325"><path d="M 368 100 L 437 100 L 437 109.917969 L 368 109.917969 Z M 368 100 "/></clipPath><clipPath id="7bd9ee4534"><path d="M 431.984375 100.613281 L 372.292969 100.613281 C 370.054688 100.613281 368.066406 102.355469 368.066406 104.84375 C 368.066406 107.328125 370.054688 109.070312 372.292969 109.070312 L 431.984375 109.070312 C 434.222656 109.070312 436.214844 107.328125 436.214844 104.84375 C 436.214844 102.355469 434.222656 100.613281 431.984375 100.613281 Z M 431.984375 100.613281 "/></clipPath><clipPath id="a3a4165c07"><path d="M 457.113281 98 L 471 98 L 471 111.921875 L 457.113281 111.921875 Z M 457.113281 98 "/></clipPath><clipPath id="c0ccf6c7e1"><path d="M 464.070312 98.625 C 460.636719 98.625 457.851562 101.40625 457.851562 104.84375 C 457.851562 108.277344 460.636719 111.058594 464.070312 111.058594 C 467.503906 111.058594 470.289062 108.277344 470.289062 104.84375 C 470.289062 101.40625 467.503906 98.625 464.070312 98.625 Z M 464.070312 98.625 "/></clipPath><clipPath id="b1bde43395"><path d="M 148.449219 196.101562 L 154 196.101562 L 154 238 L 148.449219 238 Z M 148.449219 196.101562 "/></clipPath><clipPath id="57a3b1710b"><path d="M 148.449219 201.34375 L 148.449219 232.433594 C 148.449219 235.417969 150.9375 237.90625 153.921875 237.90625 L 153.921875 196.121094 C 150.9375 196.121094 148.449219 198.359375 148.449219 201.34375 Z M 148.449219 201.34375 "/></clipPath><clipPath id="47c68ac214"><path d="M 148.449219 268.257812 L 154 268.257812 L 154 344.417969 L 148.449219 344.417969 Z M 148.449219 268.257812 "/></clipPath><clipPath id="7ec6de67e7"><path d="M 148.449219 274.21875 L 148.449219 338.882812 C 148.449219 341.867188 150.9375 344.355469 153.921875 344.355469 L 153.921875 268.992188 C 150.9375 268.992188 148.449219 271.234375 148.449219 274.21875 Z M 148.449219 274.21875 "/></clipPath><clipPath id="b30b9181c0"><path d="M 148.449219 360.453125 L 154 360.453125 L 154 436.617188 L 148.449219 436.617188 Z M 148.449219 360.453125 "/></clipPath><clipPath id="8d5019b968"><path d="M 148.449219 366.242188 L 148.449219 430.90625 C 148.449219 433.890625 150.9375 436.378906 153.921875 436.378906 L 153.921875 360.769531 C 150.9375 360.769531 148.449219 363.257812 148.449219 366.242188 Z M 148.449219 366.242188 "/></clipPath><clipPath id="e02032fe2c"><path d="M 656 293 L 661.550781 293 L 661.550781 415 L 656 415 Z M 656 293 "/></clipPath><clipPath id="cf607b1306"><path d="M 656.078125 293.867188 L 656.078125 414.988281 C 659.0625 414.988281 661.550781 412.503906 661.550781 409.519531 L 661.550781 299.335938 C 661.550781 296.351562 659.0625 293.867188 656.078125 293.867188 Z M 656.078125 293.867188 "/></clipPath><clipPath id="c253086fbc"><path d="M 153 61.8125 L 657 61.8125 L 657 810 L 153 810 Z M 153 61.8125 "/></clipPath><clipPath id="065d41a766"><path d="M 656.078125 293.867188 L 656.078125 136.179688 C 656.078125 130.957031 655.582031 125.984375 654.585938 121.257812 C 654.089844 118.769531 653.589844 116.53125 652.84375 114.042969 C 651.851562 110.5625 650.359375 107.082031 648.863281 103.847656 C 647.871094 101.609375 646.625 99.617188 645.382812 97.628906 C 644.140625 95.640625 642.894531 93.648438 641.402344 91.660156 C 639.164062 88.675781 636.925781 86.1875 634.441406 83.453125 C 632.699219 81.710938 630.957031 80.21875 629.214844 78.726562 C 616.285156 68.03125 599.867188 61.8125 581.960938 61.8125 L 228.289062 61.8125 C 210.378906 61.8125 193.714844 68.28125 181.03125 78.726562 C 179.289062 80.21875 177.550781 81.960938 175.808594 83.453125 C 173.320312 85.941406 170.835938 88.675781 168.84375 91.660156 C 167.351562 93.648438 166.109375 95.640625 164.867188 97.628906 C 163.621094 99.617188 162.378906 101.859375 161.382812 103.847656 C 159.640625 107.328125 158.398438 110.5625 157.15625 114.042969 C 156.410156 116.53125 155.910156 118.769531 155.414062 121.257812 C 154.417969 125.984375 153.921875 131.207031 153.921875 136.179688 L 153.921875 1002.453125 C 153.921875 1043.492188 187.25 1076.820312 228.289062 1076.820312 L 581.710938 1076.820312 C 622.75 1076.820312 656.078125 1043.492188 656.078125 1002.453125 Z M 651.105469 293.867188 L 651.105469 1002.703125 C 651.105469 1041.003906 620.015625 1072.09375 581.710938 1072.09375 L 228.289062 1072.09375 C 189.984375 1072.09375 158.894531 1041.003906 158.894531 1002.703125 L 158.894531 136.429688 C 158.894531 97.878906 189.984375 66.789062 228.289062 66.789062 L 581.710938 66.789062 C 620.015625 66.789062 651.105469 97.878906 651.105469 136.179688 Z M 651.105469 293.867188 "/></clipPath><clipPath id="beddf30d02"><path d="M 91.074219 440.296875 L 718.824219 440.296875 L 718.824219 793.546875 L 91.074219 793.546875 Z M 91.074219 440.296875 "/></clipPath><clipPath id="af19c8efac"><path d="M 91.074219 389.347656 L 719 389.347656 L 719 655.414062 L 91.074219 655.414062 Z M 91.074219 389.347656 "/></clipPath><clipPath id="aff248fe83"><path d="M 690.253906 655.414062 L 119.746094 655.414062 C 103.949219 655.414062 91.074219 642.542969 91.074219 626.742188 L 91.074219 418.019531 C 91.074219 402.21875 103.949219 389.347656 119.746094 389.347656 L 690.253906 389.347656 C 706.050781 389.347656 718.925781 402.21875 718.925781 418.019531 L 718.925781 626.742188 C 718.925781 642.542969 706.050781 655.414062 690.253906 655.414062 Z M 690.253906 655.414062 "/></clipPath><clipPath id="e7eabc53dd"><path d="M 138.375 430.859375 L 164.625 430.859375 L 164.625 460.859375 L 138.375 460.859375 Z M 138.375 430.859375 "/></clipPath></defs><g id="3c140966cc"><rect x="0" width="810" y="0" height="809.999993" style="fill:#ffffff;fill-opacity:1;stroke:none;"/><rect x="0" width="810" y="0" height="809.999993" style="fill:COLOR_BRANDCOLOR;fill-opacity:1;stroke:none;"/><g clip-rule="nonzero" clip-path="url(#fd2d641f6e)"><g clip-rule="nonzero" clip-path="url(#00d9e719d3)"><path style=" stroke:none;fill-rule:nonzero;fill:#2b3825;fill-opacity:1;" d="M 148.449219 61.8125 L 661.550781 61.8125 L 661.550781 1077.992188 L 148.449219 1077.992188 Z M 148.449219 61.8125 "/></g></g><g clip-rule="nonzero" clip-path="url(#ae85ce5f94)"><g clip-rule="nonzero" clip-path="url(#147c679b1c)"><g transform="matrix(1.70602,0,0,1.707229,-821.111091,92.406327)"><image width="1438" xlink:href="PLACE_SCREENSHOT_HERE" height="560" preserveAspectRatio="xMidYMid meet"/></g></g></g><g clip-rule="nonzero" clip-path="url(#915a475325)"><g clip-rule="nonzero" clip-path="url(#7bd9ee4534)"><path style=" stroke:none;fill-rule:nonzero;fill:#555555;fill-opacity:1;" d="M 148.449219 61.8125 L 661.550781 61.8125 L 661.550781 1077.992188 L 148.449219 1077.992188 Z M 148.449219 61.8125 "/></g></g><g clip-rule="nonzero" clip-path="url(#a3a4165c07)"><g clip-rule="nonzero" clip-path="url(#c0ccf6c7e1)"><path style=" stroke:none;fill-rule:nonzero;fill:#688d5c;fill-opacity:1;" d="M 148.449219 61.8125 L 661.550781 61.8125 L 661.550781 1077.992188 L 148.449219 1077.992188 Z M 148.449219 61.8125 "/></g></g><g clip-rule="nonzero" clip-path="url(#b1bde43395)"><g clip-rule="nonzero" clip-path="url(#57a3b1710b)"><path style=" stroke:none;fill-rule:nonzero;fill:#f9ffed;fill-opacity:1;" d="M 148.449219 61.8125 L 661.550781 61.8125 L 661.550781 1077.992188 L 148.449219 1077.992188 Z M 148.449219 61.8125 "/></g></g><g clip-rule="nonzero" clip-path="url(#47c68ac214)"><g clip-rule="nonzero" clip-path="url(#7ec6de67e7)"><path style=" stroke:none;fill-rule:nonzero;fill:#f9ffed;fill-opacity:1;" d="M 148.449219 61.8125 L 661.550781 61.8125 L 661.550781 1077.992188 L 148.449219 1077.992188 Z M 148.449219 61.8125 "/></g></g><g clip-rule="nonzero" clip-path="url(#b30b9181c0)"><g clip-rule="nonzero" clip-path="url(#8d5019b968)"><path style=" stroke:none;fill-rule:nonzero;fill:#f9ffed;fill-opacity:1;" d="M 148.449219 61.8125 L 661.550781 61.8125 L 661.550781 1077.992188 L 148.449219 1077.992188 Z M 148.449219 61.8125 "/></g></g><g clip-rule="nonzero" clip-path="url(#e02032fe2c)"><g clip-rule="nonzero" clip-path="url(#cf607b1306)"><path style=" stroke:none;fill-rule:nonzero;fill:#f9ffed;fill-opacity:1;" d="M 148.449219 61.8125 L 661.550781 61.8125 L 661.550781 1077.992188 L 148.449219 1077.992188 Z M 148.449219 61.8125 "/></g></g><g clip-rule="nonzero" clip-path="url(#c253086fbc)"><g clip-rule="nonzero" clip-path="url(#065d41a766)"><path style=" stroke:none;fill-rule:nonzero;fill:#f9ffed;fill-opacity:1;" d="M 148.449219 61.8125 L 661.550781 61.8125 L 661.550781 1077.992188 L 148.449219 1077.992188 Z M 148.449219 61.8125 "/></g></g><g clip-rule="nonzero" clip-path="url(#beddf30d02)"><g mask="url(#69a25930af)" transform="matrix(0.523575,0,0,0.52333,-0.293698,396.138456)"><image width="1474" xlink:href="file:///Users/erikbelt/Desktop/Mood Tracking App/AdCreator/image-generation-service/assets/Reminder_1-img2-eddfb0f7.png" height="943" preserveAspectRatio="xMidYMid meet"/><mask id="69a25930af"><g transform="matrix(1,0,0,1,-0.000000000000000111,0.000000000000113687)"><image width="1474" xlink:href="file:///Users/erikbelt/Desktop/Mood Tracking App/AdCreator/image-generation-service/assets/Reminder_1-img3-8ec426e7.png" height="943" preserveAspectRatio="xMidYMid meet"/></g></mask></g></g><g clip-rule="nonzero" clip-path="url(#af19c8efac)"><g clip-rule="nonzero" clip-path="url(#aff248fe83)"><path style=" stroke:none;fill-rule:nonzero;fill:#fbfdf9;fill-opacity:1;" d="M 91.074219 389.347656 L 718.828125 389.347656 L 718.828125 655.414062 L 91.074219 655.414062 Z M 91.074219 389.347656 "/></g></g><g clip-rule="nonzero" clip-path="url(#e7eabc53dd)"><path style=" stroke:none;fill-rule:nonzero;fill:#555555;fill-opacity:1;" d="M 163.199219 451.765625 C 162.472656 451.347656 162.03125 450.566406 162.03125 449.726562 L 162.03125 444.316406 C 162.03125 439.503906 158.804688 435.449219 154.398438 434.191406 C 154.414062 434.058594 154.425781 433.921875 154.425781 433.785156 C 154.425781 432.171875 153.117188 430.859375 151.5 430.859375 C 149.886719 430.859375 148.574219 432.171875 148.574219 433.785156 C 148.574219 433.921875 148.585938 434.058594 148.605469 434.191406 C 144.195312 435.449219 140.96875 439.503906 140.96875 444.316406 L 140.96875 449.726562 C 140.96875 450.566406 140.527344 451.347656 139.800781 451.765625 C 139.113281 452.164062 138.648438 452.902344 138.628906 453.75 C 138.605469 455.066406 139.699219 456.132812 141.015625 456.132812 L 146.820312 456.132812 C 146.820312 458.71875 148.914062 460.8125 151.5 460.8125 C 154.085938 460.8125 156.179688 458.71875 156.179688 456.132812 L 161.984375 456.132812 C 163.300781 456.132812 164.394531 455.066406 164.371094 453.75 C 164.355469 452.902344 163.886719 452.164062 163.199219 451.765625 Z M 163.199219 451.765625 "/></g><g style="fill:#2b3825;fill-opacity:1;"><g transform="translate(607.794528, 450.462429)"><path style="stroke:none" d="M 9.140625 -8.65625 C 9.140625 -8.125 8.984375 -7.613281 8.671875 -7.125 C 8.367188 -6.632812 7.976562 -6.175781 7.5 -5.75 C 7.019531 -5.320312 6.5 -4.921875 5.9375 -4.546875 C 5.382812 -4.171875 4.863281 -3.800781 4.375 -3.4375 C 3.882812 -3.070312 3.472656 -2.710938 3.140625 -2.359375 C 2.804688 -2.015625 2.617188 -1.664062 2.578125 -1.3125 L 9.109375 -1.3125 L 9.109375 0 L 0.953125 0 L 0.953125 -0.75 C 0.953125 -1.351562 1.117188 -1.898438 1.453125 -2.390625 C 1.796875 -2.890625 2.21875 -3.351562 2.71875 -3.78125 C 3.226562 -4.21875 3.773438 -4.628906 4.359375 -5.015625 C 4.941406 -5.398438 5.488281 -5.785156 6 -6.171875 C 6.507812 -6.566406 6.929688 -6.960938 7.265625 -7.359375 C 7.597656 -7.765625 7.765625 -8.203125 7.765625 -8.671875 C 7.765625 -9.378906 7.53125 -9.929688 7.0625 -10.328125 C 6.59375 -10.734375 5.9375 -10.9375 5.09375 -10.9375 C 4.25 -10.9375 3.570312 -10.753906 3.0625 -10.390625 C 2.5625 -10.035156 2.257812 -9.515625 2.15625 -8.828125 L 0.78125 -8.828125 C 0.882812 -9.859375 1.332031 -10.691406 2.125 -11.328125 C 2.914062 -11.960938 3.875 -12.28125 5 -12.28125 C 6.28125 -12.28125 7.300781 -11.9375 8.0625 -11.25 C 8.78125 -10.59375 9.140625 -9.726562 9.140625 -8.65625 Z M 9.140625 -8.65625 "/></g></g><g style="fill:#2b3825;fill-opacity:1;"><g transform="translate(617.874964, 450.462429)"><path style="stroke:none" d="M 2.5625 -7.765625 C 3.175781 -8.796875 4.109375 -9.3125 5.359375 -9.3125 C 5.960938 -9.3125 6.523438 -9.148438 7.046875 -8.828125 C 7.566406 -8.503906 7.972656 -8.046875 8.265625 -7.453125 C 8.679688 -8.222656 9.328125 -8.773438 10.203125 -9.109375 C 10.554688 -9.242188 10.957031 -9.3125 11.40625 -9.3125 C 11.851562 -9.3125 12.28125 -9.222656 12.6875 -9.046875 C 13.101562 -8.867188 13.46875 -8.613281 13.78125 -8.28125 C 14.46875 -7.550781 14.8125 -6.632812 14.8125 -5.53125 L 14.8125 0 L 13.4375 0 L 13.4375 -5.5 C 13.4375 -6.257812 13.222656 -6.882812 12.796875 -7.375 C 12.367188 -7.832031 11.820312 -8.0625 11.15625 -8.0625 C 10.457031 -8.0625 9.878906 -7.835938 9.421875 -7.390625 C 8.929688 -6.921875 8.6875 -6.285156 8.6875 -5.484375 L 8.6875 0 L 7.3125 0 L 7.3125 -5.5 C 7.3125 -6.257812 7.097656 -6.882812 6.671875 -7.375 C 6.242188 -7.832031 5.703125 -8.0625 5.046875 -8.0625 C 4.347656 -8.0625 3.765625 -7.835938 3.296875 -7.390625 C 2.804688 -6.921875 2.5625 -6.285156 2.5625 -5.484375 L 2.5625 0 L 1.1875 0 L 1.1875 -9.171875 L 2.5625 -9.171875 Z M 2.5625 -7.765625 "/></g></g><g style="fill:#2b3825;fill-opacity:1;"><g transform="translate(633.783727, 450.462429)"><path style="stroke:none" d=""/></g></g><g style="fill:#2b3825;fill-opacity:1;"><g transform="translate(637.687604, 450.462429)"><path style="stroke:none" d="M 8.34375 -1.46875 C 7.601562 -0.394531 6.507812 0.140625 5.0625 0.140625 C 3.738281 0.140625 2.660156 -0.316406 1.828125 -1.234375 C 1.023438 -2.128906 0.625 -3.242188 0.625 -4.578125 C 0.625 -5.910156 1.023438 -7.03125 1.828125 -7.9375 C 2.660156 -8.851562 3.765625 -9.3125 5.140625 -9.3125 C 6.523438 -9.3125 7.59375 -8.765625 8.34375 -7.671875 L 8.34375 -9.171875 L 9.71875 -9.171875 L 9.71875 0 L 8.34375 0 Z M 5.234375 -1.09375 C 6.222656 -1.09375 7.007812 -1.4375 7.59375 -2.125 C 8.132812 -2.769531 8.40625 -3.585938 8.40625 -4.578125 C 8.40625 -5.566406 8.132812 -6.382812 7.59375 -7.03125 C 7.007812 -7.71875 6.222656 -8.0625 5.234375 -8.0625 C 4.265625 -8.0625 3.472656 -7.71875 2.859375 -7.03125 C 2.285156 -6.382812 2 -5.566406 2 -4.578125 C 2 -3.585938 2.285156 -2.769531 2.859375 -2.125 C 3.472656 -1.4375 4.265625 -1.09375 5.234375 -1.09375 Z M 5.234375 -1.09375 "/></g></g><g style="fill:#2b3825;fill-opacity:1;"><g transform="translate(648.592805, 450.462429)"><path style="stroke:none" d="M 8.34375 -7.703125 L 8.34375 -9.171875 L 9.71875 -9.171875 L 9.71875 -0.28125 C 9.71875 1.039062 9.335938 2.046875 8.578125 2.734375 C 7.828125 3.429688 6.816406 3.78125 5.546875 3.78125 C 4.273438 3.78125 3.28125 3.535156 2.5625 3.046875 C 1.851562 2.554688 1.375 1.90625 1.125 1.09375 L 2.640625 1.09375 C 3.023438 2.050781 3.914062 2.53125 5.3125 2.53125 C 6.375 2.53125 7.144531 2.285156 7.625 1.796875 C 8.101562 1.304688 8.34375 0.585938 8.34375 -0.359375 L 8.34375 -1.625 C 7.59375 -0.539062 6.5 0 5.0625 0 C 3.738281 0 2.660156 -0.453125 1.828125 -1.359375 C 1.023438 -2.234375 0.625 -3.332031 0.625 -4.65625 C 0.625 -5.976562 1.023438 -7.078125 1.828125 -7.953125 C 2.660156 -8.859375 3.769531 -9.3125 5.15625 -9.3125 C 6.539062 -9.3125 7.601562 -8.773438 8.34375 -7.703125 Z M 5.234375 -1.25 C 5.742188 -1.25 6.191406 -1.335938 6.578125 -1.515625 C 6.972656 -1.691406 7.3125 -1.929688 7.59375 -2.234375 C 8.132812 -2.867188 8.40625 -3.675781 8.40625 -4.65625 C 8.40625 -5.632812 8.132812 -6.441406 7.59375 -7.078125 C 6.988281 -7.734375 6.203125 -8.0625 5.234375 -8.0625 C 4.242188 -8.0625 3.453125 -7.734375 2.859375 -7.078125 C 2.285156 -6.429688 2 -5.625 2 -4.65625 C 2 -3.6875 2.285156 -2.878906 2.859375 -2.234375 C 3.453125 -1.578125 4.242188 -1.25 5.234375 -1.25 Z M 5.234375 -1.25 "/></g></g><g style="fill:#2b3825;fill-opacity:1;"><g transform="translate(659.498005, 450.462429)"><path style="stroke:none" d="M 5.171875 -9.3125 C 6.535156 -9.3125 7.644531 -8.851562 8.5 -7.9375 C 9.3125 -7.050781 9.71875 -5.929688 9.71875 -4.578125 C 9.71875 -3.222656 9.3125 -2.109375 8.5 -1.234375 C 7.644531 -0.316406 6.535156 0.140625 5.171875 0.140625 C 3.796875 0.140625 2.679688 -0.316406 1.828125 -1.234375 C 1.023438 -2.109375 0.625 -3.222656 0.625 -4.578125 C 0.625 -5.929688 1.023438 -7.050781 1.828125 -7.9375 C 2.679688 -8.851562 3.796875 -9.3125 5.171875 -9.3125 Z M 5.171875 -1.09375 C 6.160156 -1.09375 6.941406 -1.4375 7.515625 -2.125 C 8.066406 -2.769531 8.34375 -3.585938 8.34375 -4.578125 C 8.34375 -5.566406 8.066406 -6.382812 7.515625 -7.03125 C 6.941406 -7.71875 6.160156 -8.0625 5.171875 -8.0625 C 4.179688 -8.0625 3.398438 -7.71875 2.828125 -7.03125 C 2.273438 -6.382812 2 -5.566406 2 -4.578125 C 2 -3.585938 2.273438 -2.769531 2.828125 -2.125 C 3.398438 -1.4375 4.179688 -1.09375 5.171875 -1.09375 Z M 5.171875 -1.09375 "/></g></g><path style="fill:none;stroke-width:1;stroke-linecap:round;stroke-linejoin:miter;stroke:COLOR_BRANDCOLOR;stroke-opacity:1;stroke-miterlimit:4;" d="M 0.499185 0.499425 L 708.129429 0.499425 " transform="matrix(0.75,0,0,0.75,138.375611,487.633243)"/></g></svg>