<svg xmlns="http://www.w3.org/2000/svg" xmlns:xlink="http://www.w3.org/1999/xlink" width="1080" zoomAndPan="magnify" viewBox="0 0 810 809.999993" height="1080" preserveAspectRatio="xMidYMid meet" version="1.2"><defs><filter x="0%" y="0%" width="100%" filterUnits="objectBoundingBox" id="b667a06575" height="100%"><feColorMatrix values="0 0 0 0 1 0 0 0 0 1 0 0 0 0 1 0 0 0 1 0" type="matrix" in="SourceGraphic"/></filter><clipPath id="83d991d123"><rect x="0" width="810" y="0" height="810"/></clipPath><clipPath id="68916334e1"><path d="M 220.253906 120 L 589.746094 120 L 589.746094 810 L 220.253906 810 Z M 220.253906 120 "/></clipPath><clipPath id="5cc68ea197"><path d="M 537.425781 120.210938 L 272.574219 120.210938 C 243.871094 120.210938 220.574219 143.507812 220.574219 172.210938 L 220.574219 821.386719 C 220.574219 850.089844 243.871094 873.390625 272.574219 873.390625 L 537.425781 873.390625 C 566.128906 873.390625 589.425781 850.089844 589.425781 821.386719 L 589.425781 172.210938 C 589.425781 143.507812 566.128906 120.210938 537.425781 120.210938 Z M 449.265625 144.066406 C 451.875 144.066406 453.925781 146.117188 453.925781 148.726562 C 453.925781 151.335938 451.875 153.386719 449.265625 153.386719 C 446.65625 153.386719 444.605469 151.335938 444.605469 148.726562 C 444.605469 146.117188 446.84375 144.066406 449.265625 144.066406 Z M 380.492188 145.558594 L 425.222656 145.558594 C 426.898438 145.558594 428.390625 146.863281 428.390625 148.726562 C 428.390625 150.589844 426.898438 151.894531 425.222656 151.894531 L 380.492188 151.894531 C 378.8125 151.894531 377.320312 150.589844 377.320312 148.726562 C 377.320312 146.863281 378.8125 145.558594 380.492188 145.558594 Z M 570.414062 824.371094 C 570.414062 841.332031 556.625 855.125 539.664062 855.125 L 270.710938 855.125 C 253.75 855.125 239.957031 841.332031 239.957031 824.371094 L 239.957031 170.160156 C 239.957031 153.199219 253.75 139.410156 270.710938 139.410156 L 310.78125 139.410156 L 310.78125 147.796875 C 310.78125 157.300781 318.609375 165.128906 328.117188 165.128906 L 482.257812 165.128906 C 491.761719 165.128906 499.589844 157.300781 499.589844 147.796875 L 499.589844 139.410156 L 539.476562 139.410156 C 556.4375 139.410156 570.230469 153.199219 570.230469 170.160156 L 570.230469 824.371094 Z M 570.414062 824.371094 "/></clipPath><clipPath id="42435d1f6d"><path d="M 239.78125 139.011719 L 571 139.011719 L 571 810 L 239.78125 810 Z M 239.78125 139.011719 "/></clipPath><clipPath id="354810d9d9"><path d="M 539.476562 139.410156 L 499.589844 139.410156 L 499.589844 147.796875 C 499.589844 157.300781 491.761719 165.128906 482.257812 165.128906 L 328.304688 165.128906 C 318.796875 165.128906 310.96875 157.300781 310.96875 147.796875 L 310.96875 139.410156 L 270.710938 139.410156 C 253.75 139.410156 239.957031 153.199219 239.957031 170.160156 L 239.957031 824.371094 C 239.957031 841.332031 253.75 855.125 270.710938 855.125 L 539.476562 855.125 C 556.4375 855.125 570.230469 841.332031 570.230469 824.371094 L 570.230469 170.160156 C 570.414062 153.199219 556.625 139.410156 539.476562 139.410156 Z M 539.476562 139.410156 "/></clipPath><clipPath id="30251b6db6"><path d="M 377 145.019531 L 429 145.019531 L 429 152 L 377 152 Z M 377 145.019531 "/></clipPath><clipPath id="d7c1ad55eb"><path d="M 425.222656 145.558594 L 380.492188 145.558594 C 378.8125 145.558594 377.320312 146.863281 377.320312 148.726562 C 377.320312 150.589844 378.8125 151.894531 380.492188 151.894531 L 425.222656 151.894531 C 426.898438 151.894531 428.390625 150.589844 428.390625 148.726562 C 428.390625 146.863281 426.898438 145.558594 425.222656 145.558594 Z M 425.222656 145.558594 "/></clipPath><clipPath id="031ae797e2"><path d="M 444.050781 144 L 454 144 L 454 154 L 444.050781 154 Z M 444.050781 144 "/></clipPath><clipPath id="a8a472176f"><path d="M 449.265625 144.066406 C 446.691406 144.066406 444.605469 146.152344 444.605469 148.726562 C 444.605469 151.300781 446.691406 153.386719 449.265625 153.386719 C 451.839844 153.386719 453.925781 151.300781 453.925781 148.726562 C 453.925781 146.152344 451.839844 144.066406 449.265625 144.066406 Z M 449.265625 144.066406 "/></clipPath><clipPath id="19a6e5399b"><path d="M 212.746094 217.117188 L 217 217.117188 L 217 248.660156 L 212.746094 248.660156 Z M 212.746094 217.117188 "/></clipPath><clipPath id="845ca9a8ca"><path d="M 212.746094 221.042969 L 212.746094 244.34375 C 212.746094 246.578125 214.609375 248.441406 216.84375 248.441406 L 216.84375 217.128906 C 214.609375 217.128906 212.746094 218.808594 212.746094 221.042969 Z M 212.746094 221.042969 "/></clipPath><clipPath id="70a97c9486"><path d="M 212.746094 271.1875 L 217 271.1875 L 217 328.265625 L 212.746094 328.265625 Z M 212.746094 271.1875 "/></clipPath><clipPath id="c326bc0937"><path d="M 212.746094 275.65625 L 212.746094 324.113281 C 212.746094 326.351562 214.609375 328.214844 216.84375 328.214844 L 216.84375 271.742188 C 214.609375 271.742188 212.746094 273.417969 212.746094 275.65625 Z M 212.746094 275.65625 "/></clipPath><clipPath id="444874d343"><path d="M 212.746094 340.28125 L 217 340.28125 L 217 397.355469 L 212.746094 397.355469 Z M 212.746094 340.28125 "/></clipPath><clipPath id="743a4094f2"><path d="M 212.746094 344.617188 L 212.746094 393.078125 C 212.746094 395.3125 214.609375 397.175781 216.84375 397.175781 L 216.84375 340.515625 C 214.609375 340.515625 212.746094 342.378906 212.746094 344.617188 Z M 212.746094 344.617188 "/></clipPath><clipPath id="af2b975495"><path d="M 593 290 L 597.253906 290 L 597.253906 382 L 593 382 Z M 593 290 "/></clipPath><clipPath id="578c1ff28f"><path d="M 593.15625 290.378906 L 593.15625 381.148438 C 595.390625 381.148438 597.253906 379.285156 597.253906 377.046875 L 597.253906 294.480469 C 597.253906 292.242188 595.390625 290.378906 593.15625 290.378906 Z M 593.15625 290.378906 "/></clipPath><clipPath id="e256c12544"><path d="M 216 116.484375 L 594 116.484375 L 594 810 L 216 810 Z M 216 116.484375 "/></clipPath><clipPath id="5271582bba"><path d="M 593.15625 290.378906 L 593.15625 172.210938 C 593.15625 168.296875 592.78125 164.570312 592.035156 161.027344 C 591.664062 159.164062 591.289062 157.488281 590.730469 155.625 C 589.984375 153.015625 588.867188 150.40625 587.75 147.980469 C 587.003906 146.304688 586.070312 144.8125 585.140625 143.324219 C 584.207031 141.832031 583.277344 140.339844 582.15625 138.847656 C 580.480469 136.613281 578.804688 134.75 576.9375 132.699219 C 575.632812 131.394531 574.328125 130.277344 573.023438 129.15625 C 563.332031 121.140625 551.03125 116.484375 537.613281 116.484375 L 272.574219 116.484375 C 259.15625 116.484375 246.667969 121.328125 237.160156 129.15625 C 235.855469 130.277344 234.550781 131.578125 233.246094 132.699219 C 231.382812 134.5625 229.519531 136.613281 228.027344 138.847656 C 226.910156 140.339844 225.976562 141.832031 225.046875 143.324219 C 224.113281 144.8125 223.183594 146.492188 222.4375 147.980469 C 221.132812 150.589844 220.199219 153.015625 219.269531 155.625 C 218.710938 157.488281 218.335938 159.164062 217.964844 161.027344 C 217.21875 164.570312 216.84375 168.484375 216.84375 172.210938 L 216.84375 821.386719 C 216.84375 852.140625 241.820312 877.117188 272.574219 877.117188 L 537.425781 877.117188 C 568.179688 877.117188 593.15625 852.140625 593.15625 821.386719 Z M 589.425781 290.378906 L 589.425781 821.574219 C 589.425781 850.277344 566.128906 873.574219 537.425781 873.574219 L 272.574219 873.574219 C 243.871094 873.574219 220.574219 850.277344 220.574219 821.574219 L 220.574219 172.398438 C 220.574219 143.507812 243.871094 120.210938 272.574219 120.210938 L 537.425781 120.210938 C 566.128906 120.210938 589.425781 143.507812 589.425781 172.210938 Z M 589.425781 290.378906 "/></clipPath><clipPath id="1418423117"><path d="M 0.0390625 0.261719 L 522 0.261719 L 522 127.523438 L 0.0390625 127.523438 Z M 0.0390625 0.261719 "/></clipPath><clipPath id="6fcc226425"><path d="M 21.789062 0.261719 L 500.210938 0.261719 C 512.222656 0.261719 521.960938 10 521.960938 22.011719 L 521.960938 105.773438 C 521.960938 117.785156 512.222656 127.523438 500.210938 127.523438 L 21.789062 127.523438 C 9.777344 127.523438 0.0390625 117.785156 0.0390625 105.773438 L 0.0390625 22.011719 C 0.0390625 10 9.777344 0.261719 21.789062 0.261719 Z M 21.789062 0.261719 "/></clipPath><clipPath id="2693915b4f"><rect x="0" width="523" y="0" height="128"/></clipPath><clipPath id="7c85c3d7db"><path d="M 279.28125 729 L 530.71875 729 L 530.71875 776.164062 L 279.28125 776.164062 Z M 279.28125 729 "/></clipPath></defs><g id="3ba79baf82"><rect x="0" width="810" y="0" height="809.999993" style="fill:#ffffff;fill-opacity:1;stroke:none;"/><rect x="0" width="810" y="0" height="809.999993" style="fill:COLOR_BRANDCOLOR;fill-opacity:1;stroke:none;"/><g mask="url(#2c18811f25)" transform="matrix(1,0,0,1,0,0.000000000000039746)"><g clip-path="url(#83d991d123)"><g transform="matrix(1.445611,0,0,1.446428,-634.982125,0.00002)"><image width="1438" xlink:href="PLACE_PRODUCT_IMAGE_1_HERE" id="310ec8833e" height="560" preserveAspectRatio="xMidYMid meet"/></g></g><mask id="2c18811f25"><g filter="url(#b667a06575)"><rect x="0" width="810" y="0" height="809.999993" style="fill:#000000;fill-opacity:0.15;stroke:none;"/></g></mask></g><g clip-rule="nonzero" clip-path="url(#68916334e1)"><g clip-rule="nonzero" clip-path="url(#5cc68ea197)"><path style=" stroke:none;fill-rule:nonzero;fill:#000000;fill-opacity:1;" d="M 212.746094 116.484375 L 597.253906 116.484375 L 597.253906 877.992188 L 212.746094 877.992188 Z M 212.746094 116.484375 "/></g></g><g clip-rule="nonzero" clip-path="url(#42435d1f6d)"><g clip-rule="nonzero" clip-path="url(#354810d9d9)"><g transform="matrix(1.278471,0,0,1.279377,-513.832939,139.408261)"><image width="1438" xlink:href="PLACE_SCREENSHOT_HERE" height="560" preserveAspectRatio="xMidYMid meet"/></g></g></g><g clip-rule="nonzero" clip-path="url(#30251b6db6)"><g clip-rule="nonzero" clip-path="url(#d7c1ad55eb)"><path style=" stroke:none;fill-rule:nonzero;fill:#5b5b5b;fill-opacity:1;" d="M 212.746094 116.484375 L 597.253906 116.484375 L 597.253906 877.992188 L 212.746094 877.992188 Z M 212.746094 116.484375 "/></g></g><g clip-rule="nonzero" clip-path="url(#031ae797e2)"><g clip-rule="nonzero" clip-path="url(#a8a472176f)"><path style=" stroke:none;fill-rule:nonzero;fill:#5b5b5b;fill-opacity:1;" d="M 212.746094 116.484375 L 597.253906 116.484375 L 597.253906 877.992188 L 212.746094 877.992188 Z M 212.746094 116.484375 "/></g></g><g clip-rule="nonzero" clip-path="url(#19a6e5399b)"><g clip-rule="nonzero" clip-path="url(#845ca9a8ca)"><path style=" stroke:none;fill-rule:nonzero;fill:#ebceb5;fill-opacity:1;" d="M 212.746094 116.484375 L 597.253906 116.484375 L 597.253906 877.992188 L 212.746094 877.992188 Z M 212.746094 116.484375 "/></g></g><g clip-rule="nonzero" clip-path="url(#70a97c9486)"><g clip-rule="nonzero" clip-path="url(#c326bc0937)"><path style=" stroke:none;fill-rule:nonzero;fill:#ebceb5;fill-opacity:1;" d="M 212.746094 116.484375 L 597.253906 116.484375 L 597.253906 877.992188 L 212.746094 877.992188 Z M 212.746094 116.484375 "/></g></g><g clip-rule="nonzero" clip-path="url(#444874d343)"><g clip-rule="nonzero" clip-path="url(#743a4094f2)"><path style=" stroke:none;fill-rule:nonzero;fill:#ebceb5;fill-opacity:1;" d="M 212.746094 116.484375 L 597.253906 116.484375 L 597.253906 877.992188 L 212.746094 877.992188 Z M 212.746094 116.484375 "/></g></g><g clip-rule="nonzero" clip-path="url(#af2b975495)"><g clip-rule="nonzero" clip-path="url(#578c1ff28f)"><path style=" stroke:none;fill-rule:nonzero;fill:#ebceb5;fill-opacity:1;" d="M 212.746094 116.484375 L 597.253906 116.484375 L 597.253906 877.992188 L 212.746094 877.992188 Z M 212.746094 116.484375 "/></g></g><g clip-rule="nonzero" clip-path="url(#e256c12544)"><g clip-rule="nonzero" clip-path="url(#5271582bba)"><path style=" stroke:none;fill-rule:nonzero;fill:#fce9d8;fill-opacity:1;" d="M 212.746094 116.484375 L 597.253906 116.484375 L 597.253906 877.992188 L 212.746094 877.992188 Z M 212.746094 116.484375 "/></g></g><g mask="url(#b856181106)" transform="matrix(1,0,0,1,144,433)"><g clip-path="url(#2693915b4f)"><g clip-rule="nonzero" clip-path="url(#1418423117)"><g clip-rule="nonzero" clip-path="url(#6fcc226425)"><path style=" stroke:none;fill-rule:nonzero;fill:#ffffff;fill-opacity:1;" d="M 0.0390625 0.261719 L 522 0.261719 L 522 127.523438 L 0.0390625 127.523438 Z M 0.0390625 0.261719 "/></g></g></g><mask id="b856181106"><g filter="url(#b667a06575)"><rect x="0" width="810" y="0" height="809.999993" style="fill:#000000;fill-opacity:0.77;stroke:none;"/></g></mask></g><path style="fill:none;stroke-width:5;stroke-linecap:butt;stroke-linejoin:miter;stroke:#000000;stroke-opacity:1;stroke-miterlimit:4;" d="M 0.000524739 2.498036 L 142.995324 2.498036 " transform="matrix(0,-0.75,0.75,0,270.356942,550.512112)"/><g clip-rule="nonzero" clip-path="url(#7c85c3d7db)"><path style=" stroke:none;fill-rule:nonzero;fill:#c2e6db;fill-opacity:1;" d="M 279.28125 729 L 530.769531 729 L 530.769531 776.164062 L 279.28125 776.164062 Z M 279.28125 729 "/></g><path style="fill:none;stroke-width:4;stroke-linecap:butt;stroke-linejoin:miter;stroke:#c2e6db;stroke-opacity:1;stroke-miterlimit:4;" d="M -0.00203006 1.997897 L 104.003184 1.997898 " transform="matrix(0.000000001309,0.75,-0.75,0.000000001309,406.498423,620.380429)"/><path style="fill:none;stroke-width:4;stroke-linecap:round;stroke-linejoin:round;stroke:#c2e6db;stroke-opacity:1;stroke-miterlimit:4;" d="M 96.003183 -4.002103 L 104.003184 1.997898 L 96.003183 7.997898 " transform="matrix(0.000000001309,0.75,-0.75,0.000000001309,406.498423,620.380429)"/></g></svg>