<svg xmlns="http://www.w3.org/2000/svg" xmlns:xlink="http://www.w3.org/1999/xlink" width="1080" zoomAndPan="magnify" viewBox="0 0 810 1012.49997" height="1350" preserveAspectRatio="xMidYMid meet" version="1.2"><defs><clipPath id="46a29b0210"><path d="M 0.199219 0 L 809.800781 0 L 809.800781 1012 L 0.199219 1012 Z M 0.199219 0 "/></clipPath><filter x="0%" y="0%" width="100%" filterUnits="objectBoundingBox" id="cd229cc1ea" height="100%"><feColorMatrix values="0 0 0 0 1 0 0 0 0 1 0 0 0 0 1 0 0 0 1 0" type="matrix" in="SourceGraphic"/></filter><clipPath id="c92dd36f91"><path d="M 0.199219 0 L 809.800781 0 L 809.800781 1012 L 0.199219 1012 Z M 0.199219 0 "/></clipPath><clipPath id="42247cc9a5"><rect x="0" width="810" y="0" height="1012"/></clipPath><clipPath id="d77f8641e0"><path d="M 95.613281 215.484375 L 715 215.484375 L 715 796.515625 L 95.613281 796.515625 Z M 95.613281 215.484375 "/></clipPath><clipPath id="6e1bf9243a"><path d="M 133.84375 215.484375 L 676.15625 215.484375 C 697.269531 215.484375 714.386719 232.601562 714.386719 253.714844 L 714.386719 758.285156 C 714.386719 779.398438 697.269531 796.515625 676.15625 796.515625 L 133.84375 796.515625 C 112.730469 796.515625 95.613281 779.398438 95.613281 758.285156 L 95.613281 253.714844 C 95.613281 232.601562 112.730469 215.484375 133.84375 215.484375 Z M 133.84375 215.484375 "/></clipPath><clipPath id="61442b0410"><path d="M 95.613281 215.484375 L 714.058594 215.484375 L 714.058594 796.402344 L 95.613281 796.402344 Z M 95.613281 215.484375 "/></clipPath><clipPath id="20880c1ec9"><path d="M 133.824219 215.484375 L 675.847656 215.484375 C 696.949219 215.484375 714.058594 232.59375 714.058594 253.695312 L 714.058594 757.996094 C 714.058594 779.101562 696.949219 796.207031 675.847656 796.207031 L 133.824219 796.207031 C 112.722656 796.207031 95.613281 779.101562 95.613281 757.996094 L 95.613281 253.695312 C 95.613281 232.59375 112.722656 215.484375 133.824219 215.484375 Z M 133.824219 215.484375 "/></clipPath><clipPath id="40ad312d0e"><path d="M 279.878906 646.976562 L 315 646.976562 L 315 680 L 279.878906 680 Z M 279.878906 646.976562 "/></clipPath><clipPath id="2d578b4e83"><path d="M 334 646.976562 L 369 646.976562 L 369 680 L 334 680 Z M 334 646.976562 "/></clipPath><clipPath id="148d7d81ff"><path d="M 387.644531 646.976562 L 423 646.976562 L 423 680 L 387.644531 680 Z M 387.644531 646.976562 "/></clipPath><clipPath id="28bbf98fb6"><path d="M 441.34375 646.976562 L 476.730469 646.976562 L 476.730469 680 L 441.34375 680 Z M 441.34375 646.976562 "/></clipPath><clipPath id="d14de5e9b9"><path d="M 495.042969 646.976562 L 530 646.976562 L 530 680 L 495.042969 680 Z M 495.042969 646.976562 "/></clipPath><clipPath id="42ccf49494"><path d="M 406 263.035156 L 445 263.035156 L 445 325.253906 L 406 325.253906 Z M 406 263.035156 "/></clipPath><clipPath id="ba700de8b7"><path d="M 364.9375 263.035156 L 404 263.035156 L 404 325.253906 L 364.9375 325.253906 Z M 364.9375 263.035156 "/></clipPath><clipPath id="9af4201de5"><path d="M 0.199219 930 L 809.800781 930 L 809.800781 932 L 0.199219 932 Z M 0.199219 930 "/></clipPath></defs><g id="609753d151"><g clip-rule="nonzero" clip-path="url(#46a29b0210)"><path style=" stroke:none;fill-rule:nonzero;fill:#ffffff;fill-opacity:1;" d="M 0.199219 0 L 809.800781 0 L 809.800781 1012 L 0.199219 1012 Z M 0.199219 0 "/><path style=" stroke:none;fill-rule:nonzero;fill:#ffffff;fill-opacity:1;" d="M 0.199219 0 L 809.800781 0 L 809.800781 1012 L 0.199219 1012 Z M 0.199219 0 "/><g mask="url(#971ec49ce3)" transform="matrix(1,0,0,1,0.000000000000000028,0)"><g clip-path="url(#42247cc9a5)"><g clip-rule="nonzero" clip-path="url(#c92dd36f91)"><g transform="matrix(1.807772,0,0,1.807143,-894.335965,0)"><image width="1438" xlink:href="PLACE_BACKGROUND_IMAGE" id="8dee6f5810" height="560" preserveAspectRatio="xMidYMid meet"/></g></g></g><mask id="971ec49ce3"><g filter="url(#cd229cc1ea)"><rect x="0" width="810" y="0" height="1012.49997" style="fill:#000000;fill-opacity:0.8;stroke:none;"/></g></mask></g></g><g clip-rule="nonzero" clip-path="url(#d77f8641e0)"><g clip-rule="nonzero" clip-path="url(#6e1bf9243a)"><path style=" stroke:none;fill-rule:nonzero;fill:#ffffff;fill-opacity:1;" d="M 95.613281 215.484375 L 715.226562 215.484375 L 715.226562 796.515625 L 95.613281 796.515625 Z M 95.613281 215.484375 "/></g></g><g clip-rule="nonzero" clip-path="url(#61442b0410)"><g clip-rule="nonzero" clip-path="url(#20880c1ec9)"><path style="fill:none;stroke-width:4;stroke-linecap:butt;stroke-linejoin:miter;stroke:#000000;stroke-opacity:1;stroke-miterlimit:4;" d="M 50.998192 -0.00255169 L 774.42284 -0.00255169 C 802.586549 -0.00255169 825.421989 22.832888 825.421989 50.996597 L 825.421989 724.073792 C 825.421989 752.242715 802.586549 775.072941 774.42284 775.072941 L 50.998192 775.072941 C 22.834483 775.072941 -0.000956634 752.242715 -0.000956634 724.073792 L -0.000956634 50.996597 C -0.000956634 22.832888 22.834483 -0.00255169 50.998192 -0.00255169 Z M 50.998192 -0.00255169 " transform="matrix(0.749247,0,0,0.749247,95.613998,215.486287)"/></g></g><g clip-rule="nonzero" clip-path="url(#40ad312d0e)"><path style=" stroke:none;fill-rule:nonzero;fill:#545454;fill-opacity:1;" d="M 297.839844 647.308594 L 302.746094 657.234375 C 302.835938 657.410156 302.992188 657.519531 303.191406 657.542969 L 314.15625 659.132812 C 314.640625 659.199219 314.816406 659.796875 314.488281 660.128906 L 306.550781 667.867188 C 306.417969 668 306.351562 668.199219 306.375 668.375 L 308.253906 679.296875 C 308.339844 679.78125 307.832031 680.136719 307.414062 679.914062 L 297.597656 674.761719 C 297.421875 674.675781 297.222656 674.675781 297.042969 674.761719 L 287.230469 679.914062 C 286.808594 680.136719 286.300781 679.78125 286.390625 679.296875 L 288.269531 668.375 C 288.289062 668.175781 288.246094 668 288.089844 667.867188 L 280.15625 660.128906 C 279.800781 659.796875 280 659.199219 280.488281 659.132812 L 291.453125 657.542969 C 291.652344 657.519531 291.804688 657.386719 291.894531 657.234375 L 296.777344 647.308594 C 297 646.863281 297.621094 646.863281 297.839844 647.308594 Z M 297.839844 647.308594 "/></g><g clip-rule="nonzero" clip-path="url(#2d578b4e83)"><path style=" stroke:none;fill-rule:nonzero;fill:#545454;fill-opacity:1;" d="M 351.902344 647.308594 L 356.808594 657.234375 C 356.898438 657.410156 357.054688 657.519531 357.253906 657.542969 L 368.21875 659.132812 C 368.703125 659.199219 368.878906 659.796875 368.550781 660.128906 L 360.613281 667.867188 C 360.480469 668 360.414062 668.199219 360.4375 668.375 L 362.316406 679.296875 C 362.402344 679.78125 361.894531 680.136719 361.476562 679.914062 L 351.660156 674.761719 C 351.484375 674.675781 351.285156 674.675781 351.105469 674.761719 L 341.292969 679.914062 C 340.871094 680.136719 340.363281 679.78125 340.453125 679.296875 L 342.332031 668.375 C 342.351562 668.175781 342.308594 668 342.152344 667.867188 L 334.21875 660.128906 C 333.863281 659.796875 334.0625 659.199219 334.550781 659.132812 L 345.515625 657.542969 C 345.710938 657.519531 345.867188 657.386719 345.957031 657.234375 L 350.839844 647.308594 C 351.0625 646.863281 351.683594 646.863281 351.902344 647.308594 Z M 351.902344 647.308594 "/></g><g clip-rule="nonzero" clip-path="url(#148d7d81ff)"><path style=" stroke:none;fill-rule:nonzero;fill:#545454;fill-opacity:1;" d="M 405.601562 647.308594 L 410.511719 657.234375 C 410.597656 657.410156 410.753906 657.519531 410.953125 657.542969 L 421.917969 659.132812 C 422.40625 659.199219 422.582031 659.796875 422.25 660.128906 L 414.3125 667.867188 C 414.179688 668 414.113281 668.199219 414.136719 668.375 L 416.015625 679.296875 C 416.105469 679.78125 415.59375 680.136719 415.175781 679.914062 L 405.359375 674.761719 C 405.183594 674.675781 404.984375 674.675781 404.808594 674.761719 L 394.992188 679.914062 C 394.570312 680.136719 394.0625 679.78125 394.152344 679.296875 L 396.03125 668.375 C 396.054688 668.175781 396.007812 668 395.855469 667.867188 L 387.917969 660.128906 C 387.5625 659.796875 387.761719 659.199219 388.25 659.132812 L 399.214844 657.542969 C 399.414062 657.519531 399.566406 657.386719 399.65625 657.234375 L 404.542969 647.308594 C 404.761719 646.863281 405.382812 646.863281 405.601562 647.308594 Z M 405.601562 647.308594 "/></g><g clip-rule="nonzero" clip-path="url(#28bbf98fb6)"><path style=" stroke:none;fill-rule:nonzero;fill:#545454;fill-opacity:1;" d="M 459.304688 647.308594 L 464.210938 657.234375 C 464.300781 657.410156 464.453125 657.519531 464.652344 657.542969 L 475.617188 659.132812 C 476.105469 659.199219 476.28125 659.796875 475.949219 660.128906 L 468.015625 667.867188 C 467.882812 668 467.816406 668.199219 467.835938 668.375 L 469.714844 679.296875 C 469.804688 679.78125 469.296875 680.136719 468.875 679.914062 L 459.058594 674.761719 C 458.882812 674.675781 458.683594 674.675781 458.507812 674.761719 L 448.691406 679.914062 C 448.273438 680.136719 447.765625 679.78125 447.851562 679.296875 L 449.730469 668.375 C 449.753906 668.175781 449.710938 668 449.554688 667.867188 L 441.617188 660.128906 C 441.265625 659.796875 441.464844 659.199219 441.949219 659.132812 L 452.914062 657.542969 C 453.113281 657.519531 453.269531 657.386719 453.355469 657.234375 L 458.242188 647.308594 C 458.464844 646.863281 459.082031 646.863281 459.304688 647.308594 Z M 459.304688 647.308594 "/></g><g clip-rule="nonzero" clip-path="url(#d14de5e9b9)"><path style=" stroke:none;fill-rule:nonzero;fill:#545454;fill-opacity:1;" d="M 513.003906 647.308594 L 517.910156 657.234375 C 518 657.410156 518.15625 657.519531 518.355469 657.542969 L 529.320312 659.132812 C 529.804688 659.199219 529.980469 659.796875 529.652344 660.128906 L 521.714844 667.867188 C 521.582031 668 521.515625 668.199219 521.539062 668.375 L 523.417969 679.296875 C 523.503906 679.78125 522.996094 680.136719 522.578125 679.914062 L 512.761719 674.761719 C 512.585938 674.675781 512.386719 674.675781 512.207031 674.761719 L 502.394531 679.914062 C 501.972656 680.136719 501.464844 679.78125 501.554688 679.296875 L 503.433594 668.375 C 503.453125 668.175781 503.410156 668 503.253906 667.867188 L 495.320312 660.128906 C 494.964844 659.796875 495.164062 659.199219 495.648438 659.132812 L 506.617188 657.542969 C 506.8125 657.519531 506.96875 657.386719 507.058594 657.234375 L 511.941406 647.308594 C 512.164062 646.863281 512.78125 646.863281 513.003906 647.308594 Z M 513.003906 647.308594 "/></g><g clip-rule="nonzero" clip-path="url(#42ccf49494)"><path style=" stroke:none;fill-rule:nonzero;fill:#545454;fill-opacity:1;" d="M 439.230469 269.109375 C 435.839844 265.582031 431.601562 263.710938 426.542969 263.460938 C 425.605469 263.304688 424.652344 263.203125 423.675781 263.203125 C 418.207031 263.203125 413.351562 265.765625 410.210938 269.75 C 408.492188 271.761719 407.40625 274.003906 406.976562 276.492188 C 406.691406 277.734375 406.527344 279.019531 406.527344 280.347656 C 406.527344 289.820312 414.207031 297.496094 423.675781 297.496094 C 427.535156 297.496094 431.078125 296.203125 433.945312 294.058594 C 433.953125 294.273438 433.984375 294.472656 433.984375 294.695312 C 433.984375 303.785156 427.054688 312.871094 413.199219 321.957031 L 415.207031 325.085938 C 434.875 312.871094 444.707031 299.464844 444.707031 284.859375 C 444.707031 278.160156 442.878906 272.910156 439.230469 269.109375 Z M 439.230469 269.109375 "/></g><g clip-rule="nonzero" clip-path="url(#ba700de8b7)"><path style=" stroke:none;fill-rule:nonzero;fill:#545454;fill-opacity:1;" d="M 384.855469 263.445312 C 383.953125 263.300781 383.03125 263.203125 382.082031 263.203125 C 372.613281 263.203125 364.9375 270.878906 364.9375 280.347656 C 364.9375 289.816406 372.613281 297.496094 382.082031 297.496094 C 386.042969 297.496094 389.683594 296.136719 392.589844 293.878906 C 392.605469 294.148438 392.636719 294.40625 392.636719 294.695312 C 392.636719 303.785156 385.710938 312.871094 371.855469 321.957031 L 373.867188 325.085938 C 393.53125 312.871094 403.363281 299.464844 403.363281 284.859375 C 403.363281 278.15625 401.539062 272.902344 397.890625 269.105469 C 394.421875 265.5 390.070312 263.628906 384.855469 263.445312 Z M 384.855469 263.445312 "/></g><g clip-rule="nonzero" clip-path="url(#9af4201de5)"><path style="fill:none;stroke-width:1;stroke-linecap:butt;stroke-linejoin:miter;stroke:#000000;stroke-opacity:1;stroke-miterlimit:4;" d="M 0.00238202 0.498372 L 1116.19916 0.498372 " transform="matrix(0.749504,0,0,0.749504,-13.368973,930.290531)"/></g></g></svg>