<svg xmlns="http://www.w3.org/2000/svg" xmlns:xlink="http://www.w3.org/1999/xlink" width="1080" zoomAndPan="magnify" viewBox="0 0 810 809.999993" height="1080" preserveAspectRatio="xMidYMid meet" version="1.2"><defs><filter x="0%" y="0%" width="100%" filterUnits="objectBoundingBox" id="e54b0bfea2" height="100%"><feColorMatrix values="0 0 0 0 1 0 0 0 0 1 0 0 0 0 1 0 0 0 1 0" type="matrix" in="SourceGraphic"/></filter><clipPath id="5cb0d59841"><path d="M 0.742188 0.742188 L 721.492188 0.742188 L 721.492188 721.492188 L 0.742188 721.492188 Z M 0.742188 0.742188 "/></clipPath><clipPath id="0f30d6c25e"><path d="M 721.246094 360.996094 C 721.246094 559.953125 559.953125 721.246094 360.996094 721.246094 C 162.035156 721.246094 0.742188 559.953125 0.742188 360.996094 C 0.742188 162.035156 162.035156 0.742188 360.996094 0.742188 C 559.953125 0.742188 721.246094 162.035156 721.246094 360.996094 Z M 721.246094 360.996094 "/></clipPath><mask id="aa0c0e9d0f"><g filter="url(#e54b0bfea2)"><g transform="matrix(1,0,0,1,-0.102255,-0.102255)"><image width="721" xlink:href="file:///Users/erikbelt/Desktop/Mood Tracking App/AdCreator/image-generation-service/assets/Simple_Benefit_NoImage-img1-09a41706.png" height="721" preserveAspectRatio="xMidYMid meet"/></g></g></mask><radialGradient gradientTransform="matrix(1,0,0,1,0.102255,0.102255)" id="a4654492e6" gradientUnits="userSpaceOnUse" r="360.273615" cx="360.273615" fx="360.273615" cy="360.273615" fy="360.273615"><stop style="stop-color:COLOR_BRANDCOLOR;stop-opacity:1;" offset="0"/><stop style="stop-color:COLOR_BRANDCOLOR;stop-opacity:1;" offset="1"/></radialGradient><clipPath id="24aee8c140"><rect x="0" width="721" y="0" height="721"/></clipPath><pattern width="721" patternUnits="userSpaceOnUse" patternTransform="matrix(0.999944,0,0,0.999944,0.640001,0.640018)" id="9ea5eaa8da" height="721" preserveAspectRatio="xMidYMid meet"><g><g clip-path="url(#24aee8c140)"><rect x="0" width="721" y="0" height="721" style="fill:url(#a4654492e6);stroke:none;" mask="url(#aa0c0e9d0f)"/></g></g></pattern><clipPath id="1e128a0d6d"><rect x="0" width="723" y="0" height="723"/></clipPath><clipPath id="7d9d58c450"><path d="M 265.300781 310.484375 L 541 310.484375 L 541 373.429688 L 265.300781 373.429688 Z M 265.300781 310.484375 "/></clipPath><clipPath id="c80106fc93"><path d="M 296.773438 310.484375 L 509.539062 310.484375 C 526.921875 310.484375 541.011719 324.574219 541.011719 341.957031 C 541.011719 359.339844 526.921875 373.429688 509.539062 373.429688 L 296.773438 373.429688 C 279.390625 373.429688 265.300781 359.339844 265.300781 341.957031 C 265.300781 324.574219 279.390625 310.484375 296.773438 310.484375 Z M 296.773438 310.484375 "/></clipPath><clipPath id="37a8d43800"><path d="M 265.308594 310.484375 L 541 310.484375 L 541 373.484375 L 265.308594 373.484375 Z M 265.308594 310.484375 "/></clipPath><clipPath id="bc8abb8649"><path d="M 296.78125 310.484375 L 509.527344 310.484375 C 526.90625 310.484375 540.996094 324.574219 540.996094 341.953125 C 540.996094 359.335938 526.90625 373.425781 509.527344 373.425781 L 296.78125 373.425781 C 279.398438 373.425781 265.308594 359.335938 265.308594 341.953125 C 265.308594 324.574219 279.398438 310.484375 296.78125 310.484375 Z M 296.78125 310.484375 "/></clipPath><clipPath id="5371e87983"><path d="M 265.300781 387.398438 L 541 387.398438 L 541 450.347656 L 265.300781 450.347656 Z M 265.300781 387.398438 "/></clipPath><clipPath id="c69e5fd53d"><path d="M 296.773438 387.398438 L 509.539062 387.398438 C 526.921875 387.398438 541.011719 401.488281 541.011719 418.871094 C 541.011719 436.253906 526.921875 450.347656 509.539062 450.347656 L 296.773438 450.347656 C 279.390625 450.347656 265.300781 436.253906 265.300781 418.871094 C 265.300781 401.488281 279.390625 387.398438 296.773438 387.398438 Z M 296.773438 387.398438 "/></clipPath><clipPath id="66e26e2445"><path d="M 265.308594 387.398438 L 541 387.398438 L 541 450.398438 L 265.308594 450.398438 Z M 265.308594 387.398438 "/></clipPath><clipPath id="6fe8458a63"><path d="M 296.78125 387.398438 L 509.527344 387.398438 C 526.90625 387.398438 540.996094 401.488281 540.996094 418.871094 C 540.996094 436.25 526.90625 450.339844 509.527344 450.339844 L 296.78125 450.339844 C 279.398438 450.339844 265.308594 436.25 265.308594 418.871094 C 265.308594 401.488281 279.398438 387.398438 296.78125 387.398438 Z M 296.78125 387.398438 "/></clipPath><clipPath id="61076afdd0"><path d="M 265.300781 464.3125 L 541 464.3125 L 541 527.261719 L 265.300781 527.261719 Z M 265.300781 464.3125 "/></clipPath><clipPath id="69db643f87"><path d="M 296.773438 464.3125 L 509.539062 464.3125 C 526.921875 464.3125 541.011719 478.402344 541.011719 495.785156 C 541.011719 513.167969 526.921875 527.261719 509.539062 527.261719 L 296.773438 527.261719 C 279.390625 527.261719 265.300781 513.167969 265.300781 495.785156 C 265.300781 478.402344 279.390625 464.3125 296.773438 464.3125 Z M 296.773438 464.3125 "/></clipPath><clipPath id="330e2dc015"><path d="M 265.308594 464.3125 L 541 464.3125 L 541 527.3125 L 265.308594 527.3125 Z M 265.308594 464.3125 "/></clipPath><clipPath id="021de1346f"><path d="M 296.78125 464.3125 L 509.527344 464.3125 C 526.90625 464.3125 540.996094 478.402344 540.996094 495.785156 C 540.996094 513.164062 526.90625 527.253906 509.527344 527.253906 L 296.78125 527.253906 C 279.398438 527.253906 265.308594 513.164062 265.308594 495.785156 C 265.308594 478.402344 279.398438 464.3125 296.78125 464.3125 Z M 296.78125 464.3125 "/></clipPath><clipPath id="a6911f4252"><path d="M 265.300781 541.226562 L 541 541.226562 L 541 604.175781 L 265.300781 604.175781 Z M 265.300781 541.226562 "/></clipPath><clipPath id="6bff06ba9f"><path d="M 296.773438 541.226562 L 509.539062 541.226562 C 526.921875 541.226562 541.011719 555.320312 541.011719 572.699219 C 541.011719 590.082031 526.921875 604.175781 509.539062 604.175781 L 296.773438 604.175781 C 279.390625 604.175781 265.300781 590.082031 265.300781 572.699219 C 265.300781 555.320312 279.390625 541.226562 296.773438 541.226562 Z M 296.773438 541.226562 "/></clipPath><clipPath id="72c03d1ede"><path d="M 265.308594 541.226562 L 541 541.226562 L 541 604.226562 L 265.308594 604.226562 Z M 265.308594 541.226562 "/></clipPath><clipPath id="976092a89d"><path d="M 296.78125 541.226562 L 509.527344 541.226562 C 526.90625 541.226562 540.996094 555.316406 540.996094 572.699219 C 540.996094 590.078125 526.90625 604.167969 509.527344 604.167969 L 296.78125 604.167969 C 279.398438 604.167969 265.308594 590.078125 265.308594 572.699219 C 265.308594 555.316406 279.398438 541.226562 296.78125 541.226562 Z M 296.78125 541.226562 "/></clipPath><clipPath id="5058178295"><path d="M 265.300781 618.140625 L 541 618.140625 L 541 681.089844 L 265.300781 681.089844 Z M 265.300781 618.140625 "/></clipPath><clipPath id="c9cfa6841e"><path d="M 296.773438 618.140625 L 509.539062 618.140625 C 526.921875 618.140625 541.011719 632.234375 541.011719 649.613281 C 541.011719 666.996094 526.921875 681.089844 509.539062 681.089844 L 296.773438 681.089844 C 279.390625 681.089844 265.300781 666.996094 265.300781 649.613281 C 265.300781 632.234375 279.390625 618.140625 296.773438 618.140625 Z M 296.773438 618.140625 "/></clipPath><clipPath id="8f2b30809b"><path d="M 265.308594 618.140625 L 541 618.140625 L 541 681.140625 L 265.308594 681.140625 Z M 265.308594 618.140625 "/></clipPath><clipPath id="d67e45a513"><path d="M 296.78125 618.140625 L 509.527344 618.140625 C 526.90625 618.140625 540.996094 632.230469 540.996094 649.613281 C 540.996094 666.992188 526.90625 681.082031 509.527344 681.082031 L 296.78125 681.082031 C 279.398438 681.082031 265.308594 666.992188 265.308594 649.613281 C 265.308594 632.230469 279.398438 618.140625 296.78125 618.140625 Z M 296.78125 618.140625 "/></clipPath><clipPath id="6ca202bcba"><path d="M 4.984375 4.964844 L 208 4.964844 L 208 285 L 4.984375 285 Z M 4.984375 4.964844 "/></clipPath><clipPath id="c6bf8f226c"><rect x="0" width="208" y="0" height="285"/></clipPath><clipPath id="550b2f6200"><path d="M 247.472656 734.929688 L 564.898438 734.929688 L 564.898438 774.015625 L 247.472656 774.015625 Z M 247.472656 734.929688 "/></clipPath><clipPath id="fca6a6bec6"><path d="M 267.015625 734.929688 L 545.308594 734.929688 C 550.492188 734.929688 555.460938 736.988281 559.125 740.652344 C 562.792969 744.316406 564.851562 749.289062 564.851562 754.472656 C 564.851562 759.65625 562.792969 764.625 559.125 768.292969 C 555.460938 771.957031 550.492188 774.015625 545.308594 774.015625 L 267.015625 774.015625 C 261.832031 774.015625 256.863281 771.957031 253.199219 768.292969 C 249.53125 764.625 247.472656 759.65625 247.472656 754.472656 C 247.472656 749.289062 249.53125 744.316406 253.199219 740.652344 C 256.863281 736.988281 261.832031 734.929688 267.015625 734.929688 Z M 267.015625 734.929688 "/></clipPath></defs><g id="0575e14fbc"><rect x="0" width="810" y="0" height="809.999993" style="fill:#ffffff;fill-opacity:1;stroke:none;"/><rect x="0" width="810" y="0" height="809.999993" style="fill:COLOR_BRANDCOLOR;fill-opacity:1;stroke:none;"/><g mask="url(#b542446c23)" transform="matrix(1,0,0,1,44,44)"><g clip-path="url(#1e128a0d6d)"><g clip-rule="nonzero" clip-path="url(#5cb0d59841)"><g clip-rule="nonzero" clip-path="url(#0f30d6c25e)"><path style=" stroke:none;fill-rule:nonzero;fill:url(#9ea5eaa8da);" d="M 0.742188 0.742188 L 721.246094 0.742188 L 721.246094 721.246094 L 0.742188 721.246094 Z M 0.742188 0.742188 "/></g></g></g><mask id="b542446c23"><g filter="url(#e54b0bfea2)"><rect x="0" width="810" y="0" height="809.999993" style="fill:#000000;fill-opacity:0.82;stroke:none;"/></g></mask></g><g clip-rule="nonzero" clip-path="url(#7d9d58c450)"><g clip-rule="nonzero" clip-path="url(#c80106fc93)"><path style=" stroke:none;fill-rule:nonzero;fill:#f9f7f3;fill-opacity:1;" d="M 265.300781 310.484375 L 540.941406 310.484375 L 540.941406 373.429688 L 265.300781 373.429688 Z M 265.300781 310.484375 "/></g></g><g clip-rule="nonzero" clip-path="url(#37a8d43800)"><g clip-rule="nonzero" clip-path="url(#bc8abb8649)"><path style="fill:none;stroke-width:4;stroke-linecap:butt;stroke-linejoin:miter;stroke:#000000;stroke-opacity:1;stroke-miterlimit:4;" d="M 41.962566 0.000332027 L 325.624039 0.000332027 C 348.795915 0.000332027 367.582374 18.786791 367.582374 41.958667 C 367.582374 65.135752 348.795915 83.922211 325.624039 83.922211 L 41.962566 83.922211 C 18.785482 83.922211 -0.000977604 65.135752 -0.000977604 41.958667 C -0.000977604 18.786791 18.785482 0.000332027 41.962566 0.000332027 Z M 41.962566 0.000332027 " transform="matrix(0.75,0,0,0.75,265.309327,310.484126)"/></g></g><g clip-rule="nonzero" clip-path="url(#5371e87983)"><g clip-rule="nonzero" clip-path="url(#c69e5fd53d)"><path style=" stroke:none;fill-rule:nonzero;fill:#f9f7f3;fill-opacity:1;" d="M 265.300781 387.398438 L 540.941406 387.398438 L 540.941406 450.347656 L 265.300781 450.347656 Z M 265.300781 387.398438 "/></g></g><g clip-rule="nonzero" clip-path="url(#66e26e2445)"><g clip-rule="nonzero" clip-path="url(#6fe8458a63)"><path style="fill:none;stroke-width:4;stroke-linecap:butt;stroke-linejoin:miter;stroke:#000000;stroke-opacity:1;stroke-miterlimit:4;" d="M 41.962566 -0.00000188068 L 325.624039 -0.00000188068 C 348.795915 -0.00000188068 367.582374 18.786457 367.582374 41.963542 C 367.582374 65.135418 348.795915 83.921877 325.624039 83.921877 L 41.962566 83.921877 C 18.785482 83.921877 -0.000977604 65.135418 -0.000977604 41.963542 C -0.000977604 18.786457 18.785482 -0.00000188068 41.962566 -0.00000188068 Z M 41.962566 -0.00000188068 " transform="matrix(0.75,0,0,0.75,265.309327,387.398439)"/></g></g><g clip-rule="nonzero" clip-path="url(#61076afdd0)"><g clip-rule="nonzero" clip-path="url(#69db643f87)"><path style=" stroke:none;fill-rule:nonzero;fill:#f9f7f3;fill-opacity:1;" d="M 265.300781 464.3125 L 540.941406 464.3125 L 540.941406 527.261719 L 265.300781 527.261719 Z M 265.300781 464.3125 "/></g></g><g clip-rule="nonzero" clip-path="url(#330e2dc015)"><g clip-rule="nonzero" clip-path="url(#021de1346f)"><path style="fill:none;stroke-width:4;stroke-linecap:butt;stroke-linejoin:miter;stroke:#000000;stroke-opacity:1;stroke-miterlimit:4;" d="M 41.962566 -0.000406188 L 325.624039 -0.000406188 C 348.795915 -0.000406188 367.582374 18.786053 367.582374 41.963138 C 367.582374 65.135014 348.795915 83.921473 325.624039 83.921473 L 41.962566 83.921473 C 18.785482 83.921473 -0.000977604 65.135014 -0.000977604 41.963138 C -0.000977604 18.786053 18.785482 -0.000406188 41.962566 -0.000406188 Z M 41.962566 -0.000406188 " transform="matrix(0.75,0,0,0.75,265.309327,464.312805)"/></g></g><g clip-rule="nonzero" clip-path="url(#a6911f4252)"><g clip-rule="nonzero" clip-path="url(#6bff06ba9f)"><path style=" stroke:none;fill-rule:nonzero;fill:#f9f7f3;fill-opacity:1;" d="M 265.300781 541.226562 L 540.941406 541.226562 L 540.941406 604.175781 L 265.300781 604.175781 Z M 265.300781 541.226562 "/></g></g><g clip-rule="nonzero" clip-path="url(#72c03d1ede)"><g clip-rule="nonzero" clip-path="url(#976092a89d)"><path style="fill:none;stroke-width:4;stroke-linecap:butt;stroke-linejoin:miter;stroke:#000000;stroke-opacity:1;stroke-miterlimit:4;" d="M 41.962566 -0.000733696 L 325.624039 -0.000733696 C 348.795915 -0.000733696 367.582374 18.785726 367.582374 41.96281 C 367.582374 65.134686 348.795915 83.921146 325.624039 83.921146 L 41.962566 83.921146 C 18.785482 83.921146 -0.000977604 65.134686 -0.000977604 41.96281 C -0.000977604 18.785726 18.785482 -0.000733696 41.962566 -0.000733696 Z M 41.962566 -0.000733696 " transform="matrix(0.75,0,0,0.75,265.309327,541.227113)"/></g></g><g clip-rule="nonzero" clip-path="url(#5058178295)"><g clip-rule="nonzero" clip-path="url(#c9cfa6841e)"><path style=" stroke:none;fill-rule:nonzero;fill:#f9f7f3;fill-opacity:1;" d="M 265.300781 618.140625 L 540.941406 618.140625 L 540.941406 681.089844 L 265.300781 681.089844 Z M 265.300781 618.140625 "/></g></g><g clip-rule="nonzero" clip-path="url(#8f2b30809b)"><g clip-rule="nonzero" clip-path="url(#d67e45a513)"><path style="fill:none;stroke-width:4;stroke-linecap:butt;stroke-linejoin:miter;stroke:#000000;stroke-opacity:1;stroke-miterlimit:4;" d="M 41.962566 -0.0010932 L 325.624039 -0.0010932 C 348.795915 -0.0010932 367.582374 18.785366 367.582374 41.962451 C 367.582374 65.134327 348.795915 83.920786 325.624039 83.920786 L 41.962566 83.920786 C 18.785482 83.920786 -0.000977604 65.134327 -0.000977604 41.962451 C -0.000977604 18.785366 18.785482 -0.0010932 41.962566 -0.0010932 Z M 41.962566 -0.0010932 " transform="matrix(0.75,0,0,0.75,265.309327,618.141445)"/></g></g><g mask="url(#f95e4541bd)" transform="matrix(1,0,0,1,602,525)"><g clip-path="url(#c6bf8f226c)"><g clip-rule="nonzero" clip-path="url(#6ca202bcba)"><path style=" stroke:none;fill-rule:nonzero;fill:COLOR_BRANDCOLOR;fill-opacity:1;" d="M 40.546875 87.941406 L 8.9375 56.332031 L 48.449219 48.429688 L 56.351562 8.917969 L 87.960938 40.527344 L 87.960938 82.355469 L 144.210938 138.601562 L 151.179688 103.746094 L 166.984375 166.964844 L 103.765625 151.160156 L 138.621094 144.191406 L 82.371094 87.941406 L 40.542969 87.941406 Z M 166.984375 198.574219 C 152.578125 198.574219 140.558594 188.878906 136.75 175.699219 L 103.789062 167.460938 C 104.058594 202.144531 132.234375 230.183594 166.984375 230.183594 C 201.898438 230.183594 230.203125 201.882812 230.203125 166.964844 C 230.203125 132.21875 202.164062 104.039062 167.476562 103.773438 L 175.71875 136.730469 C 188.898438 140.539062 198.59375 152.558594 198.59375 166.964844 C 198.59375 184.421875 184.441406 198.574219 166.984375 198.574219 Z M 81.417969 103.746094 L 57.597656 103.746094 C 46.816406 122.359375 40.546875 143.90625 40.546875 166.964844 C 40.546875 236.796875 97.15625 293.40625 166.984375 293.40625 C 236.816406 293.40625 293.421875 236.796875 293.421875 166.964844 C 293.421875 97.136719 236.816406 40.527344 166.984375 40.527344 C 143.925781 40.527344 122.378906 46.796875 103.765625 57.582031 L 103.765625 81.398438 L 112.097656 89.730469 C 127.597656 78.691406 146.507812 72.136719 166.984375 72.136719 C 219.355469 72.136719 261.8125 114.59375 261.8125 166.964844 C 261.8125 219.339844 219.355469 261.796875 166.984375 261.796875 C 114.613281 261.796875 72.15625 219.339844 72.15625 166.964844 C 72.15625 146.488281 78.710938 127.578125 89.746094 112.078125 L 81.414062 103.746094 Z M 166.984375 4.964844 C 141.089844 4.964844 115.621094 11.222656 92.785156 23.003906 L 98.617188 28.835938 C 119.761719 18.371094 143.195312 12.867188 166.984375 12.867188 C 251.949219 12.867188 321.082031 81.996094 321.082031 166.964844 C 321.082031 251.9375 251.949219 321.0625 166.984375 321.0625 C 82.015625 321.0625 12.886719 251.9375 12.886719 166.964844 C 12.886719 143.175781 18.390625 119.738281 28.855469 98.597656 L 23.019531 92.765625 C 11.238281 115.601562 4.984375 141.074219 4.984375 166.964844 C 4.984375 256.292969 77.660156 328.964844 166.984375 328.964844 C 256.3125 328.964844 328.984375 256.292969 328.984375 166.964844 C 328.984375 77.640625 256.3125 4.964844 166.984375 4.964844 Z M 166.984375 4.964844 "/></g></g><mask id="f95e4541bd"><g filter="url(#e54b0bfea2)"><rect x="0" width="810" y="0" height="809.999993" style="fill:#000000;fill-opacity:0.31;stroke:none;"/></g></mask></g><g clip-rule="nonzero" clip-path="url(#550b2f6200)"><g clip-rule="nonzero" clip-path="url(#fca6a6bec6)"><path style=" stroke:none;fill-rule:nonzero;fill:COLOR_BRANDCOLOR;fill-opacity:1;" d="M 247.472656 734.929688 L 564.898438 734.929688 L 564.898438 774.015625 L 247.472656 774.015625 Z M 247.472656 734.929688 "/></g></g></g></svg>