<svg xmlns="http://www.w3.org/2000/svg" xmlns:xlink="http://www.w3.org/1999/xlink" width="1080" zoomAndPan="magnify" viewBox="0 0 810 1012.49997" height="1350" preserveAspectRatio="xMidYMid meet" version="1.2"><defs><clipPath id="eb45e659d9"><path d="M 0.199219 0 L 809.800781 0 L 809.800781 1012 L 0.199219 1012 Z M 0.199219 0 "/></clipPath><clipPath id="d68c129d38"><path d="M 0.199219 0 L 809.46875 0 L 809.46875 598.765625 L 0.199219 598.765625 Z M 0.199219 0 "/></clipPath><clipPath id="945b271189"><path d="M 553.464844 813.816406 L 765.59375 813.816406 L 765.59375 866.652344 L 553.464844 866.652344 Z M 553.464844 813.816406 "/></clipPath><clipPath id="f160befd23"><path d="M 739.160156 813.816406 C 753.75 813.816406 765.578125 825.644531 765.578125 840.234375 C 765.578125 854.824219 753.75 866.652344 739.160156 866.652344 L 579.882812 866.652344 C 565.292969 866.652344 553.464844 854.824219 553.464844 840.234375 C 553.464844 825.644531 565.292969 813.816406 579.882812 813.816406 Z M 739.160156 813.816406 "/></clipPath></defs><g id="7cc063eb80"><g clip-rule="nonzero" clip-path="url(#eb45e659d9)"><path style=" stroke:none;fill-rule:nonzero;fill:#ffffff;fill-opacity:1;" d="M 0.199219 0 L 809.800781 0 L 809.800781 1012 L 0.199219 1012 Z M 0.199219 0 "/><path style=" stroke:none;fill-rule:nonzero;fill:COLOR_PRIMARY;fill-opacity:1;" d="M 0.199219 0 L 809.800781 0 L 809.800781 1012 L 0.199219 1012 Z M 0.199219 0 "/></g><g clip-rule="nonzero" clip-path="url(#d68c129d38)"><g transform="matrix(1.068621,0,0,1.069225,-363.773007,0)"><image width="1438" xlink:href="PLACE_PRODUCT_IMAGE_HERE" height="560" preserveAspectRatio="xMidYMid meet"/></g></g><g clip-rule="nonzero" clip-path="url(#945b271189)"><g clip-rule="nonzero" clip-path="url(#f160befd23)"><path style="fill:none;stroke-width:4;stroke-linecap:butt;stroke-linejoin:miter;stroke:#312721;stroke-opacity:1;stroke-miterlimit:4;" d="M 247.772765 0.00203371 C 267.239796 0.00203371 283.021903 15.784141 283.021903 35.251172 C 283.021903 54.718203 267.239796 70.500311 247.772765 70.500311 L 35.251159 70.500311 C 15.784128 70.500311 0.0020207 54.718203 0.0020207 35.251172 C 0.0020207 15.784141 15.784128 0.00203371 35.251159 0.00203371 Z M 247.772765 0.00203371 " transform="matrix(0.749464,0,0,0.749464,553.463329,813.814882)"/></g></g></g></svg>