<svg xmlns="http://www.w3.org/2000/svg" xmlns:xlink="http://www.w3.org/1999/xlink" width="1080" zoomAndPan="magnify" viewBox="0 0 810 809.999993" height="1080" preserveAspectRatio="xMidYMid meet" version="1.2"><defs><clipPath id="8f65dc5b08"><path d="M 20.25 22.054688 L 790 22.054688 L 790 419.378906 L 20.25 419.378906 Z M 20.25 22.054688 "/></clipPath><clipPath id="dfbdd57112"><path d="M 58.5 22.054688 L 751.5 22.054688 C 761.644531 22.054688 771.375 26.085938 778.546875 33.257812 C 785.71875 40.429688 789.75 50.160156 789.75 60.304688 L 789.75 381.128906 C 789.75 391.273438 785.71875 401 778.546875 408.175781 C 771.375 415.347656 761.644531 419.378906 751.5 419.378906 L 58.5 419.378906 C 48.355469 419.378906 38.625 415.347656 31.453125 408.175781 C 24.28125 401 20.25 391.273438 20.25 381.128906 L 20.25 60.304688 C 20.25 50.160156 24.28125 40.429688 31.453125 33.257812 C 38.625 26.085938 48.355469 22.054688 58.5 22.054688 Z M 58.5 22.054688 "/></clipPath><clipPath id="d5b4673072"><path d="M 20.25 435 L 433.640625 435 L 433.640625 789.65625 L 20.25 789.65625 Z M 20.25 435 "/></clipPath><clipPath id="6b74ff8da0"><path d="M 37.5 434.53125 L 416.660156 434.53125 C 426.1875 434.53125 433.910156 442.253906 433.910156 451.78125 L 433.910156 772.40625 C 433.910156 781.933594 426.1875 789.65625 416.660156 789.65625 L 37.5 789.65625 C 27.972656 789.65625 20.25 781.933594 20.25 772.40625 L 20.25 451.78125 C 20.25 442.253906 27.972656 434.53125 37.5 434.53125 Z M 37.5 434.53125 "/></clipPath><clipPath id="135ef8419c"><path d="M 448.675781 435 L 789.75 435 L 789.75 790 L 448.675781 790 Z M 448.675781 435 "/></clipPath><clipPath id="47cf942dd2"><path d="M 465.925781 434.53125 L 772.5 434.53125 C 782.027344 434.53125 789.75 442.253906 789.75 451.78125 L 789.75 772.40625 C 789.75 781.933594 782.027344 789.65625 772.5 789.65625 L 465.925781 789.65625 C 456.398438 789.65625 448.675781 781.933594 448.675781 772.40625 L 448.675781 451.78125 C 448.675781 442.253906 456.398438 434.53125 465.925781 434.53125 Z M 465.925781 434.53125 "/></clipPath><clipPath id="c11738c86e"><path d="M 284.90625 319.070312 L 524.890625 319.070312 L 524.890625 379.4375 L 284.90625 379.4375 Z M 284.90625 319.070312 "/></clipPath><clipPath id="1d9d19e953"><path d="M 494.691406 319.070312 C 511.359375 319.070312 524.875 332.582031 524.875 349.253906 C 524.875 365.925781 511.359375 379.4375 494.691406 379.4375 L 315.089844 379.4375 C 298.421875 379.4375 284.90625 365.925781 284.90625 349.253906 C 284.90625 332.582031 298.421875 319.070312 315.089844 319.070312 Z M 494.691406 319.070312 "/></clipPath></defs><g id="47cd04faea"><rect x="0" width="810" y="0" height="809.999993" style="fill:#ffffff;fill-opacity:1;stroke:none;"/><rect x="0" width="810" y="0" height="809.999993" style="fill:#ffffff;fill-opacity:1;stroke:none;"/><g clip-rule="nonzero" clip-path="url(#8f65dc5b08)"><g clip-rule="nonzero" clip-path="url(#dfbdd57112)"><path style=" stroke:none;fill-rule:nonzero;fill:COLOR_BRANDCOLOR;fill-opacity:1;" d="M 20.25 22.054688 L 790.0625 22.054688 L 790.0625 419.378906 L 20.25 419.378906 Z M 20.25 22.054688 "/></g></g><g clip-rule="nonzero" clip-path="url(#d5b4673072)"><g clip-rule="nonzero" clip-path="url(#6b74ff8da0)"><g transform="matrix(0.633798,0,0,0.634156,-228.877778,434.529469)"><image width="1438" xlink:href="PLACE_PRODUCT_IMAGE_1_HERE" height="560" preserveAspectRatio="xMidYMid meet"/></g></g></g><g clip-rule="nonzero" clip-path="url(#135ef8419c)"><g clip-rule="nonzero" clip-path="url(#47cf942dd2)"><g transform="matrix(0.633732,0,0,0.635231,163.254869,434.529449)"><image width="1438" xlink:href="PLACE_PRODUCT_IMAGE_2_HERE" height="560" preserveAspectRatio="xMidYMid meet"/></g></g></g><g clip-rule="nonzero" clip-path="url(#c11738c86e)"><g clip-rule="nonzero" clip-path="url(#1d9d19e953)"><path style="fill:none;stroke-width:4;stroke-linecap:butt;stroke-linejoin:miter;stroke:#323030;stroke-opacity:1;stroke-miterlimit:4;" d="M 279.95836 0.00110144 C 302.201852 0.00110144 320.238525 18.032562 320.238525 40.281267 C 320.238525 62.529972 302.201852 80.561432 279.95836 80.561432 L 40.279125 80.561432 C 18.035632 80.561432 -0.00104087 62.529972 -0.00104087 40.281267 C -0.00104087 18.032562 18.035632 0.00110144 40.279125 0.00110144 Z M 279.95836 0.00110144 " transform="matrix(0.749341,0,0,0.749341,284.90703,319.069487)"/></g></g></g></svg>