<svg xmlns="http://www.w3.org/2000/svg" xmlns:xlink="http://www.w3.org/1999/xlink" width="1080" zoomAndPan="magnify" viewBox="0 0 810 809.999993" height="1080" preserveAspectRatio="xMidYMid meet" version="1.2"><defs><clipPath id="e19b8f82b7"><path d="M 0 342 L 120 342 L 120 416 L 0 416 Z M 0 342 "/></clipPath><clipPath id="91605e3e6a"><path d="M 42.074219 -48.375 L 276.054688 104.964844 L 37.207031 469.421875 L -196.773438 316.082031 Z M 42.074219 -48.375 "/></clipPath><clipPath id="ccab27e825"><path d="M 42.074219 -48.375 L 276.054688 104.964844 L 37.207031 469.421875 L -196.773438 316.082031 Z M 42.074219 -48.375 "/></clipPath><clipPath id="2dc6369752"><path d="M 6.417969 268.621094 L 119.585938 342.789062 L 36.976562 468.84375 L -76.191406 394.679688 Z M 6.417969 268.621094 "/></clipPath><clipPath id="ef521b00fa"><path d="M 118 28 L 222 28 L 222 342 L 118 342 Z M 118 28 "/></clipPath><clipPath id="4f820ab89e"><path d="M 42.074219 -48.375 L 276.054688 104.964844 L 37.207031 469.421875 L -196.773438 316.082031 Z M 42.074219 -48.375 "/></clipPath><clipPath id="36a4e19d36"><path d="M 42.074219 -48.375 L 276.054688 104.964844 L 37.207031 469.421875 L -196.773438 316.082031 Z M 42.074219 -48.375 "/></clipPath><clipPath id="194e98eaf6"><path d="M 158.035156 27.621094 L 275.628906 104.683594 L 119.585938 342.789062 L 1.996094 265.722656 Z M 158.035156 27.621094 "/></clipPath><clipPath id="4b9224ccdd"><path d="M 0 5 L 155 5 L 155 78 L 0 78 Z M 0 5 "/></clipPath><clipPath id="ca26a16fc6"><path d="M 42.074219 -48.375 L 276.054688 104.964844 L 37.207031 469.421875 L -196.773438 316.082031 Z M 42.074219 -48.375 "/></clipPath><clipPath id="f72997e1c3"><path d="M 42.074219 -48.375 L 276.054688 104.964844 L 37.207031 469.421875 L -196.773438 316.082031 Z M 42.074219 -48.375 "/></clipPath><clipPath id="5227b702aa"><path d="M 0 18 L 209 18 L 209 403 L 0 403 Z M 0 18 "/></clipPath><clipPath id="92db0da2b2"><path d="M 42.074219 -48.375 L 276.054688 104.964844 L 37.207031 469.421875 L -196.773438 316.082031 Z M 42.074219 -48.375 "/></clipPath><clipPath id="a1d9ec5706"><path d="M 42.074219 -48.375 L 276.054688 104.964844 L 37.207031 469.421875 L -196.773438 316.082031 Z M 42.074219 -48.375 "/></clipPath><clipPath id="91c6d4f427"><path d="M 707 783 L 810 783 L 810 810 L 707 810 Z M 707 783 "/></clipPath><clipPath id="360ea62b0f"><path d="M 824.625 392.335938 L 1058.605469 545.675781 L 819.757812 910.132812 L 585.777344 756.792969 Z M 824.625 392.335938 "/></clipPath><clipPath id="0f916a7781"><path d="M 824.625 392.335938 L 1058.605469 545.675781 L 819.757812 910.132812 L 585.777344 756.792969 Z M 824.625 392.335938 "/></clipPath><clipPath id="f4c3b4d858"><path d="M 788.96875 709.335938 L 902.136719 783.5 L 819.527344 909.554688 L 706.359375 835.390625 Z M 788.96875 709.335938 "/></clipPath><clipPath id="fb5be5c528"><path d="M 742 446 L 810 446 L 810 519 L 742 519 Z M 742 446 "/></clipPath><clipPath id="a2028a1309"><path d="M 824.625 392.335938 L 1058.605469 545.675781 L 819.757812 910.132812 L 585.777344 756.792969 Z M 824.625 392.335938 "/></clipPath><clipPath id="83705fb01c"><path d="M 824.625 392.335938 L 1058.605469 545.675781 L 819.757812 910.132812 L 585.777344 756.792969 Z M 824.625 392.335938 "/></clipPath><clipPath id="65cb2ca7f5"><path d="M 639 519 L 743 519 L 743 810 L 639 810 Z M 639 519 "/></clipPath><clipPath id="9ed31bdeb0"><path d="M 824.625 392.335938 L 1058.605469 545.675781 L 819.757812 910.132812 L 585.777344 756.792969 Z M 824.625 392.335938 "/></clipPath><clipPath id="bcbf222d4b"><path d="M 824.625 392.335938 L 1058.605469 545.675781 L 819.757812 910.132812 L 585.777344 756.792969 Z M 824.625 392.335938 "/></clipPath><clipPath id="5614b69282"><path d="M 742.242188 518.539062 L 860.1875 595.835938 L 704.109375 833.996094 L 586.164062 756.703125 Z M 742.242188 518.539062 "/></clipPath><clipPath id="0770111146"><path d="M 653 459 L 810 459 L 810 810 L 653 810 Z M 653 459 "/></clipPath><clipPath id="17b01ed61d"><path d="M 824.625 392.335938 L 1058.605469 545.675781 L 819.757812 910.132812 L 585.777344 756.792969 Z M 824.625 392.335938 "/></clipPath><clipPath id="9228ff20ae"><path d="M 824.625 392.335938 L 1058.605469 545.675781 L 819.757812 910.132812 L 585.777344 756.792969 Z M 824.625 392.335938 "/></clipPath><clipPath id="b44fd205ba"><path d="M 81 74.203125 L 729 74.203125 L 729 729 L 81 729 Z M 81 74.203125 "/></clipPath><clipPath id="084f5e0527"><path d="M 700.027344 729 L 109.972656 729 C 94.007812 729 81 715.992188 81 700.027344 L 81 103.175781 C 81 87.210938 94.007812 74.203125 109.972656 74.203125 L 700.027344 74.203125 C 715.992188 74.203125 729 87.210938 729 103.175781 L 729 700.027344 C 729 715.992188 715.992188 729 700.027344 729 Z M 700.027344 729 "/></clipPath><clipPath id="50417fbdd5"><path d="M 88.105469 81 L 722 81 L 722 703.667969 L 88.105469 703.667969 Z M 88.105469 81 "/></clipPath><clipPath id="71b078f256"><path d="M 696.320312 703.667969 L 113.679688 703.667969 C 99.589844 703.667969 88.105469 692.1875 88.105469 678.097656 L 88.105469 106.570312 C 88.105469 92.480469 99.589844 81 113.679688 81 L 696.320312 81 C 710.410156 81 721.894531 92.480469 721.894531 106.570312 L 721.894531 678.097656 C 721.894531 692.1875 710.410156 703.667969 696.320312 703.667969 Z M 696.320312 703.667969 "/></clipPath><clipPath id="dc47803505"><path d="M 208.359375 560.285156 L 601.804688 560.285156 L 601.804688 633.96875 L 208.359375 633.96875 Z M 208.359375 560.285156 "/></clipPath><clipPath id="3b48efae44"><path d="M 589.8125 633.96875 L 220.1875 633.96875 C 213.671875 633.96875 208.359375 628.65625 208.359375 622.140625 L 208.359375 572.117188 C 208.359375 565.597656 213.671875 560.285156 220.1875 560.285156 L 589.8125 560.285156 C 596.328125 560.285156 601.640625 565.597656 601.640625 572.117188 L 601.640625 622.140625 C 601.640625 628.65625 596.328125 633.96875 589.8125 633.96875 Z M 589.8125 633.96875 "/></clipPath><clipPath id="97e785923b"><path d="M 214.285156 565.355469 L 595.914062 565.355469 L 595.914062 619.875 L 214.285156 619.875 Z M 214.285156 565.355469 "/></clipPath><clipPath id="637d5e83a1"><path d="M 586.296875 619.875 L 223.835938 619.875 C 218.574219 619.875 214.285156 615.585938 214.285156 610.324219 L 214.285156 574.910156 C 214.285156 569.644531 218.574219 565.355469 223.835938 565.355469 L 586.296875 565.355469 C 591.5625 565.355469 595.847656 569.644531 595.847656 574.910156 L 595.847656 610.324219 C 595.847656 615.585938 591.5625 619.875 586.296875 619.875 Z M 586.296875 619.875 "/></clipPath><clipPath id="270cef4b1a"><path d="M 527 594 L 602 594 L 602 675 L 527 675 Z M 527 594 "/></clipPath><clipPath id="c91cff45a5"><path d="M 508.835938 605.992188 L 579.464844 578.605469 L 611.726562 661.820312 L 541.101562 689.207031 Z M 508.835938 605.992188 "/></clipPath><clipPath id="7e68e22e77"><path d="M 508.835938 605.992188 L 579.464844 578.605469 L 611.726562 661.820312 L 541.101562 689.207031 Z M 508.835938 605.992188 "/></clipPath><clipPath id="1bf42596e4"><path d="M 526 623 L 603 623 L 603 676 L 526 676 Z M 526 623 "/></clipPath><clipPath id="c50cffe61e"><path d="M 508.835938 605.992188 L 579.464844 578.605469 L 611.726562 661.820312 L 541.101562 689.207031 Z M 508.835938 605.992188 "/></clipPath><clipPath id="0b61dbd19a"><path d="M 508.835938 605.992188 L 579.464844 578.605469 L 611.726562 661.820312 L 541.101562 689.207031 Z M 508.835938 605.992188 "/></clipPath><clipPath id="72aad0d779"><path d="M 581 609 L 599 609 L 599 630 L 581 630 Z M 581 609 "/></clipPath><clipPath id="caab78afdd"><path d="M 508.835938 605.992188 L 579.464844 578.605469 L 611.726562 661.820312 L 541.101562 689.207031 Z M 508.835938 605.992188 "/></clipPath><clipPath id="50cc00aee3"><path d="M 508.835938 605.992188 L 579.464844 578.605469 L 611.726562 661.820312 L 541.101562 689.207031 Z M 508.835938 605.992188 "/></clipPath><clipPath id="8296337514"><path d="M 566 605 L 588 605 L 588 632 L 566 632 Z M 566 605 "/></clipPath><clipPath id="78e22aef54"><path d="M 508.835938 605.992188 L 579.464844 578.605469 L 611.726562 661.820312 L 541.101562 689.207031 Z M 508.835938 605.992188 "/></clipPath><clipPath id="f046e7def2"><path d="M 508.835938 605.992188 L 579.464844 578.605469 L 611.726562 661.820312 L 541.101562 689.207031 Z M 508.835938 605.992188 "/></clipPath><clipPath id="002fefa0d3"><path d="M 552 606 L 575 606 L 575 636 L 552 636 Z M 552 606 "/></clipPath><clipPath id="6b8e441d80"><path d="M 508.835938 605.992188 L 579.464844 578.605469 L 611.726562 661.820312 L 541.101562 689.207031 Z M 508.835938 605.992188 "/></clipPath><clipPath id="f144c7553d"><path d="M 508.835938 605.992188 L 579.464844 578.605469 L 611.726562 661.820312 L 541.101562 689.207031 Z M 508.835938 605.992188 "/></clipPath><clipPath id="f454f73b20"><path d="M 533 594 L 562 594 L 562 640 L 533 640 Z M 533 594 "/></clipPath><clipPath id="23172eadad"><path d="M 508.835938 605.992188 L 579.464844 578.605469 L 611.726562 661.820312 L 541.101562 689.207031 Z M 508.835938 605.992188 "/></clipPath><clipPath id="e4a45f0bb5"><path d="M 508.835938 605.992188 L 579.464844 578.605469 L 611.726562 661.820312 L 541.101562 689.207031 Z M 508.835938 605.992188 "/></clipPath></defs><g id="5e2f5c3eca"><rect x="0" width="810" y="0" height="809.999993" style="fill:#ffffff;fill-opacity:1;stroke:none;"/><rect x="0" width="810" y="0" height="809.999993" style="fill:COLOR_BRANDCOLOR;fill-opacity:1;stroke:none;"/><path style=" stroke:none;fill-rule:nonzero;fill:COLOR_DARK_CONTRAST;fill-opacity:1;" d="M 181.542969 -201.058594 L 180.265625 -201.570312 C 155.460938 -216.359375 107.875 -203.386719 37.511719 -162.640625 C -13.691406 -129.175781 -43.875 -89.507812 -53.039062 -43.640625 C -59.484375 -19.757812 -59.191406 26.738281 -52.152344 95.847656 C -48.914062 136.289062 -41.84375 176.050781 -30.933594 215.132812 C -9.191406 289.128906 24.378906 335.066406 69.773438 352.945312 C 108.144531 365.769531 155.09375 369.207031 210.621094 363.253906 C 295.644531 353.878906 367.496094 339.265625 426.183594 319.417969 C 485.320312 300.675781 526.234375 282.105469 548.933594 263.710938 C 572.332031 247.238281 588.847656 218.503906 598.472656 177.507812 C 609.105469 132.8125 604.914062 72.492188 585.902344 -3.460938 C 577.078125 -30.042969 568.648438 -46.730469 560.613281 -53.527344 C 549.652344 -64.269531 539.160156 -69.859375 529.128906 -70.289062 C 514.871094 -72.644531 488.789062 -63.085938 450.886719 -41.613281 C 429.589844 -30.320312 369.71875 9.632812 271.265625 78.253906 C 245.347656 95.519531 224.265625 108.511719 208.007812 117.230469 C 172.691406 136.558594 150.453125 141.449219 141.296875 131.898438 C 131.175781 122.238281 127.898438 103.148438 131.464844 74.625 C 133.625 57.585938 137.953125 35.160156 144.449219 7.347656 C 166.417969 -74.289062 179.289062 -125.320312 183.0625 -145.738281 C 188.796875 -176.65625 188.289062 -195.097656 181.542969 -201.058594 "/><g clip-rule="nonzero" clip-path="url(#e19b8f82b7)"><g clip-rule="nonzero" clip-path="url(#91605e3e6a)"><g clip-rule="nonzero" clip-path="url(#ccab27e825)"><g clip-rule="nonzero" clip-path="url(#2dc6369752)"><path style=" stroke:none;fill-rule:nonzero;fill:#ffffff;fill-opacity:1;" d="M 117.507812 342.742188 C 117.773438 342.335938 118.324219 342.222656 118.730469 342.488281 C 119.136719 342.753906 119.25 343.304688 118.984375 343.710938 C 118.71875 344.117188 118.167969 344.230469 117.761719 343.964844 C 117.355469 343.699219 117.242188 343.148438 117.507812 342.742188 Z M 114.128906 347.902344 C 114.394531 347.496094 114.941406 347.382812 115.347656 347.648438 C 115.753906 347.914062 115.867188 348.464844 115.601562 348.871094 C 115.335938 349.277344 114.789062 349.390625 114.382812 349.125 C 113.976562 348.859375 113.859375 348.308594 114.128906 347.902344 Z M 110.976562 354.269531 C 110.570312 353.992188 110.464844 353.441406 110.742188 353.039062 C 111.015625 352.640625 111.558594 352.53125 111.960938 352.804688 C 112.367188 353.085938 112.476562 353.628906 112.195312 354.035156 C 111.925781 354.425781 111.382812 354.535156 110.984375 354.273438 Z M 107.375 359.273438 C 106.980469 358.984375 106.90625 358.429688 107.191406 358.035156 C 107.480469 357.644531 108.035156 357.570312 108.429688 357.855469 C 108.820312 358.144531 108.894531 358.699219 108.605469 359.09375 C 108.332031 359.46875 107.800781 359.554688 107.417969 359.300781 C 107.402344 359.289062 107.386719 359.28125 107.375 359.273438 Z M 103.546875 364.113281 C 103.175781 363.800781 103.113281 363.246094 103.425781 362.871094 C 103.734375 362.492188 104.285156 362.4375 104.664062 362.746094 C 105.039062 363.058594 105.097656 363.609375 104.789062 363.988281 C 104.507812 364.335938 104 364.40625 103.621094 364.160156 C 103.597656 364.144531 103.570312 364.125 103.546875 364.113281 Z M 99.515625 368.769531 C 99.148438 368.445312 99.121094 367.890625 99.441406 367.53125 C 99.765625 367.167969 100.324219 367.128906 100.6875 367.464844 C 101.046875 367.78125 101.082031 368.34375 100.761719 368.703125 C 100.460938 369.035156 99.980469 369.085938 99.621094 368.851562 C 99.585938 368.824219 99.546875 368.800781 99.515625 368.769531 Z M 95.273438 373.253906 C 94.925781 372.910156 94.921875 372.355469 95.257812 372.007812 C 95.597656 371.664062 96.152344 371.648438 96.5 371.988281 C 96.855469 372.332031 96.859375 372.890625 96.515625 373.230469 C 96.21875 373.542969 95.75 373.585938 95.402344 373.355469 C 95.359375 373.328125 95.3125 373.285156 95.273438 373.253906 Z M 90.835938 377.53125 C 90.507812 377.175781 90.523438 376.621094 90.875 376.289062 L 90.878906 376.285156 C 91.230469 375.957031 91.789062 375.976562 92.125 376.332031 C 92.457031 376.683594 92.4375 377.238281 92.078125 377.578125 C 91.777344 377.859375 91.332031 377.882812 90.996094 377.664062 C 90.9375 377.628906 90.886719 377.585938 90.835938 377.53125 Z M 86.207031 381.613281 C 85.894531 381.246094 85.933594 380.683594 86.308594 380.367188 C 86.675781 380.050781 87.230469 380.101562 87.550781 380.46875 C 87.863281 380.839844 87.816406 381.390625 87.453125 381.710938 C 87.144531 381.972656 86.714844 381.984375 86.398438 381.777344 C 86.332031 381.734375 86.261719 381.675781 86.207031 381.613281 Z M 81.390625 385.492188 C 81.085938 385.105469 81.15625 384.546875 81.539062 384.253906 C 81.925781 383.949219 82.476562 384.023438 82.78125 384.398438 C 83.078125 384.78125 83.007812 385.339844 82.625 385.636719 C 82.625 385.636719 82.625 385.636719 82.632812 385.640625 C 82.316406 385.878906 81.914062 385.886719 81.601562 385.679688 C 81.523438 385.628906 81.449219 385.5625 81.390625 385.492188 Z M 76.410156 389.140625 C 76.121094 388.742188 76.21875 388.191406 76.613281 387.914062 C 77.007812 387.628906 77.554688 387.722656 77.847656 388.121094 C 78.125 388.515625 78.027344 389.0625 77.628906 389.351562 C 77.332031 389.566406 76.933594 389.558594 76.640625 389.367188 C 76.550781 389.308594 76.472656 389.234375 76.410156 389.140625 Z M 71.265625 392.566406 C 70.996094 392.15625 71.109375 391.609375 71.527344 391.34375 C 71.929688 391.082031 72.484375 391.203125 72.742188 391.613281 C 73.003906 392.015625 72.886719 392.566406 72.480469 392.835938 C 72.175781 393.027344 71.796875 393.007812 71.515625 392.824219 C 71.421875 392.761719 71.332031 392.675781 71.265625 392.566406 Z M 65.96875 395.753906 C 65.730469 395.335938 65.871094 394.796875 66.285156 394.550781 C 66.707031 394.3125 67.25 394.445312 67.5 394.871094 C 67.738281 395.292969 67.597656 395.832031 67.175781 396.074219 C 66.878906 396.253906 66.515625 396.226562 66.25 396.054688 C 66.136719 395.980469 66.039062 395.875 65.96875 395.753906 Z M 60.546875 398.710938 C 60.316406 398.277344 60.484375 397.746094 60.914062 397.519531 C 61.351562 397.289062 61.882812 397.460938 62.105469 397.890625 C 62.328125 398.320312 62.167969 398.855469 61.734375 399.082031 C 61.441406 399.238281 61.101562 399.203125 60.839844 399.03125 C 60.722656 398.957031 60.617188 398.847656 60.546875 398.710938 Z M 55 401.421875 C 54.785156 400.976562 54.980469 400.449219 55.421875 400.242188 C 55.859375 400.039062 56.390625 400.226562 56.597656 400.667969 C 56.804688 401.109375 56.609375 401.636719 56.167969 401.839844 C 55.878906 401.976562 55.554688 401.933594 55.316406 401.773438 C 55.183594 401.6875 55.070312 401.574219 55 401.421875 Z M 49.332031 403.875 C 49.144531 403.421875 49.355469 402.910156 49.808594 402.71875 C 50.265625 402.53125 50.78125 402.742188 50.957031 403.199219 C 51.148438 403.648438 50.933594 404.160156 50.484375 404.351562 C 50.203125 404.464844 49.898438 404.421875 49.664062 404.265625 C 49.527344 404.175781 49.402344 404.046875 49.332031 403.875 Z M 43.566406 406.078125 C 43.402344 405.625 43.640625 405.117188 44.097656 404.949219 C 44.550781 404.773438 45.058594 405.011719 45.222656 405.46875 C 45.394531 405.925781 45.15625 406.433594 44.703125 406.601562 C 44.425781 406.703125 44.140625 406.65625 43.917969 406.511719 C 43.761719 406.410156 43.640625 406.261719 43.566406 406.078125 Z M 37.710938 408.023438 C 37.566406 407.5625 37.820312 407.066406 38.289062 406.917969 C 38.753906 406.769531 39.246094 407.03125 39.394531 407.496094 C 39.542969 407.960938 39.277344 408.457031 38.816406 408.601562 C 38.554688 408.683594 38.289062 408.636719 38.074219 408.496094 C 37.90625 408.386719 37.773438 408.226562 37.710938 408.023438 Z M 31.773438 409.710938 C 31.652344 409.242188 31.925781 408.757812 32.398438 408.636719 C 32.875 408.503906 33.351562 408.789062 33.484375 409.257812 C 33.613281 409.722656 33.324219 410.210938 32.855469 410.332031 C 32.609375 410.40625 32.347656 410.351562 32.148438 410.222656 C 31.972656 410.105469 31.835938 409.929688 31.773438 409.710938 Z M 25.769531 411.140625 C 25.671875 410.664062 25.976562 410.1875 26.449219 410.085938 C 26.925781 409.980469 27.386719 410.28125 27.5 410.753906 C 27.605469 411.238281 27.304688 411.699219 26.832031 411.8125 C 26.582031 411.863281 26.347656 411.808594 26.152344 411.683594 C 25.96875 411.5625 25.832031 411.371094 25.769531 411.140625 Z M 19.722656 412.296875 C 19.640625 411.820312 19.957031 411.363281 20.433594 411.277344 C 20.914062 411.191406 21.375 411.515625 21.464844 411.992188 C 21.535156 412.472656 21.21875 412.925781 20.738281 413.015625 C 20.511719 413.058594 20.28125 413.003906 20.105469 412.886719 C 19.910156 412.757812 19.761719 412.546875 19.722656 412.296875 Z M 13.613281 413.191406 C 13.550781 412.710938 13.894531 412.269531 14.378906 412.207031 C 14.859375 412.144531 15.304688 412.476562 15.367188 412.964844 C 15.433594 413.445312 15.089844 413.886719 14.605469 413.949219 C 14.382812 413.980469 14.179688 413.921875 14.011719 413.8125 C 13.804688 413.675781 13.652344 413.460938 13.613281 413.191406 Z M 7.484375 413.816406 C 7.441406 413.332031 7.808594 412.90625 8.289062 412.863281 C 8.769531 412.820312 9.199219 413.175781 9.238281 413.667969 C 9.277344 414.148438 8.921875 414.578125 8.4375 414.617188 C 8.234375 414.640625 8.039062 414.578125 7.886719 414.476562 C 7.664062 414.332031 7.511719 414.097656 7.484375 413.816406 Z M 1.328125 414.171875 C 1.3125 413.6875 1.6875 413.269531 2.175781 413.253906 C 2.660156 413.234375 3.070312 413.605469 3.09375 414.101562 C 3.113281 414.585938 2.742188 414.992188 2.25 415.019531 C 2.058594 415.023438 1.882812 414.96875 1.726562 414.867188 C 1.5 414.71875 1.347656 414.46875 1.328125 414.171875 Z M -4.835938 414.253906 C -4.832031 413.761719 -4.433594 413.367188 -3.941406 413.375 C -3.460938 413.375 -3.066406 413.769531 -3.066406 414.257812 C -3.070312 414.746094 -3.46875 415.136719 -3.949219 415.140625 C -4.132812 415.140625 -4.292969 415.082031 -4.433594 414.992188 C -4.667969 414.835938 -4.828125 414.5625 -4.835938 414.253906 Z M -10.992188 414.066406 C -10.96875 413.578125 -10.554688 413.203125 -10.070312 413.226562 C -9.582031 413.25 -9.207031 413.65625 -9.222656 414.148438 C -9.253906 414.625 -9.660156 415.011719 -10.152344 414.984375 C -10.3125 414.972656 -10.464844 414.929688 -10.597656 414.839844 C -10.847656 414.675781 -11 414.386719 -10.992188 414.066406 Z M -17.128906 413.605469 C -17.085938 413.117188 -16.65625 412.753906 -16.171875 412.800781 L -16.175781 412.808594 C -15.691406 412.855469 -15.332031 413.277344 -15.378906 413.761719 C -15.417969 414.242188 -15.84375 414.605469 -16.332031 414.5625 C -16.480469 414.546875 -16.621094 414.5 -16.738281 414.421875 C -17.003906 414.25 -17.15625 413.933594 -17.128906 413.605469 Z M -23.242188 412.863281 C -23.175781 412.378906 -22.734375 412.046875 -22.253906 412.113281 C -21.769531 412.179688 -21.433594 412.617188 -21.5 413.101562 C -21.5625 413.585938 -22.007812 413.929688 -22.488281 413.855469 C -22.625 413.839844 -22.742188 413.792969 -22.851562 413.71875 C -23.125 413.542969 -23.289062 413.210938 -23.242188 412.863281 Z M -29.3125 411.859375 C -29.234375 411.382812 -28.773438 411.0625 -28.292969 411.148438 C -27.8125 411.238281 -27.496094 411.703125 -27.585938 412.179688 C -27.664062 412.652344 -28.128906 412.972656 -28.609375 412.886719 C -28.726562 412.863281 -28.839844 412.820312 -28.9375 412.757812 C -29.222656 412.570312 -29.386719 412.222656 -29.3125 411.859375 Z M -35.332031 410.589844 C -35.230469 410.109375 -34.75 409.8125 -34.28125 409.917969 C -33.808594 410.03125 -33.503906 410.503906 -33.617188 410.976562 C -33.726562 411.453125 -34.199219 411.753906 -34.675781 411.644531 C -34.777344 411.621094 -34.875 411.574219 -34.960938 411.519531 C -35.257812 411.324219 -35.414062 410.957031 -35.332031 410.589844 Z M -41.304688 409.039062 C -41.175781 408.574219 -40.6875 408.292969 -40.226562 408.425781 C -39.753906 408.558594 -39.476562 409.03125 -39.605469 409.507812 C -39.738281 409.980469 -40.222656 410.253906 -40.6875 410.125 C -40.78125 410.097656 -40.867188 410.0625 -40.941406 410.011719 C -41.25 409.808594 -41.414062 409.417969 -41.304688 409.039062 Z M -47.199219 407.230469 C -47.046875 406.761719 -46.546875 406.507812 -46.089844 406.660156 C -45.628906 406.816406 -45.375 407.308594 -45.53125 407.765625 C -45.675781 408.238281 -46.179688 408.484375 -46.636719 408.332031 C -46.714844 408.308594 -46.777344 408.273438 -46.84375 408.230469 C -47.167969 408.019531 -47.320312 407.613281 -47.199219 407.230469 Z M -53.007812 405.148438 C -52.839844 404.691406 -52.324219 404.457031 -51.871094 404.632812 C -51.414062 404.800781 -51.1875 405.308594 -51.359375 405.765625 C -51.527344 406.226562 -52.03125 406.453125 -52.488281 406.28125 C -52.558594 406.257812 -52.617188 406.230469 -52.667969 406.195312 C -53.003906 405.976562 -53.152344 405.542969 -53.007812 405.148438 Z M -58.71875 402.8125 C -58.523438 402.367188 -58.007812 402.160156 -57.558594 402.34375 C -57.113281 402.546875 -56.902344 403.0625 -57.097656 403.503906 C -57.28125 403.949219 -57.796875 404.160156 -58.253906 403.96875 C -58.304688 403.945312 -58.34375 403.929688 -58.390625 403.898438 C -58.742188 403.667969 -58.886719 403.214844 -58.71875 402.8125 Z M -64.3125 400.21875 C -64.097656 399.78125 -63.570312 399.597656 -63.136719 399.808594 C -62.699219 400.023438 -62.511719 400.542969 -62.726562 400.984375 C -62.933594 401.429688 -63.460938 401.609375 -63.902344 401.394531 C -63.933594 401.382812 -63.964844 401.363281 -64 401.339844 C -64.363281 401.101562 -64.507812 400.628906 -64.3125 400.21875 Z M -69.785156 397.378906 C -69.558594 396.953125 -69.023438 396.796875 -68.589844 397.023438 C -68.164062 397.25 -68 397.792969 -68.238281 398.214844 C -68.464844 398.648438 -69.003906 398.808594 -69.429688 398.570312 C -69.457031 398.566406 -69.476562 398.550781 -69.492188 398.542969 C -69.878906 398.289062 -70 397.789062 -69.785156 397.378906 Z M -75.125 394.304688 C -74.878906 393.882812 -74.339844 393.75 -73.921875 393.992188 C -73.503906 394.246094 -73.367188 394.792969 -73.617188 395.203125 C -73.859375 395.625 -74.40625 395.761719 -74.820312 395.511719 C -74.835938 395.5 -74.84375 395.496094 -74.855469 395.488281 C -75.25 395.230469 -75.371094 394.710938 -75.125 394.304688 "/></g></g></g></g><g clip-rule="nonzero" clip-path="url(#ef521b00fa)"><g clip-rule="nonzero" clip-path="url(#4f820ab89e)"><g clip-rule="nonzero" clip-path="url(#36a4e19d36)"><g clip-rule="nonzero" clip-path="url(#194e98eaf6)"><path style=" stroke:none;fill-rule:nonzero;fill:#ffffff;fill-opacity:1;" d="M 119.230469 341.722656 C 118.824219 341.457031 118.710938 340.910156 118.976562 340.503906 L 197.699219 220.382812 C 217.769531 189.757812 224.691406 153.011719 217.1875 116.90625 C 209.683594 80.804688 188.695312 49.859375 158.085938 29.761719 L 158 29.703125 C 157.59375 29.4375 157.480469 28.890625 157.746094 28.484375 C 158.011719 28.078125 158.558594 27.960938 158.96875 28.230469 L 159.054688 28.285156 C 190.058594 48.640625 211.316406 79.988281 218.914062 116.550781 C 226.511719 153.113281 219.5 190.332031 199.171875 221.347656 L 120.453125 341.46875 C 120.183594 341.875 119.640625 341.992188 119.230469 341.722656 "/></g></g></g></g><g clip-rule="nonzero" clip-path="url(#4b9224ccdd)"><g clip-rule="nonzero" clip-path="url(#ca26a16fc6)"><g clip-rule="nonzero" clip-path="url(#f72997e1c3)"><path style=" stroke:none;fill-rule:nonzero;fill:#ffffff;fill-opacity:1;" d="M 153.234375 25.683594 C 153.484375 25.269531 154.023438 25.140625 154.441406 25.386719 C 154.441406 25.386719 154.441406 25.386719 154.445312 25.382812 C 154.859375 25.632812 155 26.175781 154.746094 26.59375 C 154.496094 27.015625 153.953125 27.144531 153.539062 26.894531 C 153.523438 26.886719 153.515625 26.878906 153.507812 26.875 C 153.109375 26.613281 152.988281 26.09375 153.234375 25.683594 Z M 147.867188 22.660156 C 148.09375 22.230469 148.632812 22.066406 149.058594 22.304688 C 149.484375 22.53125 149.640625 23.066406 149.414062 23.496094 C 149.175781 23.921875 148.644531 24.085938 148.21875 23.851562 C 148.195312 23.839844 148.171875 23.832031 148.148438 23.816406 C 147.769531 23.570312 147.640625 23.0625 147.867188 22.660156 Z M 142.355469 19.871094 C 142.570312 19.433594 143.097656 19.253906 143.539062 19.46875 C 143.976562 19.679688 144.160156 20.203125 143.945312 20.640625 C 143.734375 21.082031 143.203125 21.261719 142.765625 21.050781 C 142.730469 21.035156 142.703125 21.015625 142.664062 20.992188 C 142.304688 20.753906 142.167969 20.273438 142.355469 19.871094 Z M 136.738281 17.332031 C 136.933594 16.890625 137.449219 16.679688 137.902344 16.878906 C 138.347656 17.066406 138.550781 17.589844 138.355469 18.03125 C 138.164062 18.488281 137.644531 18.683594 137.199219 18.496094 C 137.148438 18.472656 137.105469 18.445312 137.070312 18.417969 C 136.714844 18.1875 136.570312 17.734375 136.738281 17.332031 Z M 131.015625 15.050781 C 131.171875 14.601562 131.695312 14.371094 132.148438 14.542969 C 132.605469 14.714844 132.832031 15.222656 132.65625 15.675781 C 132.488281 16.132812 131.980469 16.359375 131.523438 16.1875 L 131.519531 16.195312 C 131.460938 16.167969 131.398438 16.136719 131.347656 16.105469 C 131.007812 15.882812 130.859375 15.449219 131.015625 15.050781 Z M 125.183594 13.035156 C 125.335938 12.574219 125.828125 12.320312 126.292969 12.464844 C 126.757812 12.621094 127.007812 13.125 126.855469 13.582031 C 126.699219 14.046875 126.210938 14.296875 125.738281 14.144531 C 125.671875 14.121094 125.601562 14.085938 125.535156 14.042969 C 125.207031 13.828125 125.054688 13.421875 125.183594 13.035156 Z M 119.273438 11.28125 C 119.402344 10.804688 119.886719 10.535156 120.355469 10.671875 C 120.820312 10.796875 121.09375 11.28125 120.96875 11.746094 C 120.839844 12.21875 120.351562 12.488281 119.878906 12.363281 C 119.789062 12.335938 119.710938 12.304688 119.632812 12.253906 C 119.316406 12.046875 119.160156 11.660156 119.273438 11.28125 Z M 113.285156 9.789062 C 113.394531 9.3125 113.867188 9.011719 114.34375 9.121094 C 114.34375 9.121094 114.34375 9.121094 114.339844 9.128906 C 114.816406 9.234375 115.113281 9.710938 115.003906 10.1875 C 114.894531 10.664062 114.417969 10.949219 113.941406 10.839844 C 113.84375 10.816406 113.742188 10.773438 113.664062 10.71875 C 113.359375 10.523438 113.203125 10.152344 113.285156 9.789062 Z M 107.257812 8.566406 C 107.347656 8.089844 107.796875 7.773438 108.273438 7.863281 C 108.757812 7.949219 109.074219 8.410156 108.984375 8.890625 C 108.898438 9.367188 108.441406 9.6875 107.960938 9.597656 C 107.839844 9.570312 107.734375 9.53125 107.636719 9.464844 C 107.347656 9.277344 107.1875 8.933594 107.257812 8.566406 Z M 101.171875 7.625 C 101.234375 7.140625 101.691406 6.804688 102.167969 6.875 C 102.652344 6.941406 102.984375 7.378906 102.921875 7.867188 C 102.847656 8.347656 102.40625 8.683594 101.921875 8.617188 L 101.925781 8.613281 C 101.785156 8.597656 101.667969 8.550781 101.558594 8.480469 C 101.285156 8.300781 101.121094 7.972656 101.171875 7.625 Z M 95.050781 6.945312 C 95.097656 6.457031 95.527344 6.109375 96.011719 6.152344 C 96.5 6.199219 96.851562 6.625 96.808594 7.113281 C 96.761719 7.597656 96.332031 7.953125 95.84375 7.90625 C 95.695312 7.894531 95.558594 7.84375 95.449219 7.773438 C 95.179688 7.597656 95.019531 7.28125 95.050781 6.945312 Z M 88.910156 6.542969 C 88.933594 6.054688 89.34375 5.679688 89.828125 5.699219 C 90.316406 5.726562 90.691406 6.140625 90.664062 6.628906 C 90.636719 7.117188 90.226562 7.492188 89.742188 7.472656 C 89.582031 7.460938 89.425781 7.40625 89.300781 7.324219 C 89.050781 7.160156 88.886719 6.863281 88.910156 6.542969 Z M 82.746094 6.414062 C 82.746094 5.925781 83.148438 5.527344 83.636719 5.53125 C 84.117188 5.542969 84.511719 5.933594 84.507812 6.421875 C 84.503906 6.910156 84.113281 7.300781 83.621094 7.292969 C 83.441406 7.292969 83.289062 7.242188 83.148438 7.148438 C 82.90625 6.992188 82.746094 6.71875 82.746094 6.414062 Z M 76.585938 6.550781 C 76.566406 6.066406 76.949219 5.660156 77.433594 5.640625 C 77.917969 5.621094 78.328125 5.996094 78.347656 6.480469 C 78.367188 6.96875 77.988281 7.382812 77.503906 7.402344 C 77.3125 7.402344 77.136719 7.351562 76.988281 7.253906 C 76.757812 7.105469 76.597656 6.855469 76.585938 6.550781 Z M 70.433594 6.964844 C 70.394531 6.476562 70.753906 6.058594 71.234375 6.015625 C 71.722656 5.976562 72.15625 6.335938 72.195312 6.820312 C 72.230469 7.308594 71.871094 7.730469 71.390625 7.773438 C 71.175781 7.789062 70.996094 7.734375 70.832031 7.628906 C 70.613281 7.484375 70.460938 7.246094 70.433594 6.964844 Z M 64.304688 7.648438 C 64.242188 7.167969 64.585938 6.722656 65.066406 6.660156 C 65.550781 6.601562 65.992188 6.9375 66.054688 7.421875 C 66.117188 7.910156 65.777344 8.347656 65.292969 8.410156 C 65.074219 8.4375 64.867188 8.386719 64.695312 8.273438 C 64.488281 8.140625 64.34375 7.914062 64.304688 7.648438 Z M 58.214844 8.601562 C 58.125 8.117188 58.457031 7.660156 58.933594 7.582031 C 59.410156 7.496094 59.871094 7.820312 59.945312 8.300781 C 60.035156 8.78125 59.714844 9.234375 59.238281 9.320312 C 59 9.359375 58.78125 9.308594 58.59375 9.1875 C 58.40625 9.0625 58.261719 8.847656 58.214844 8.601562 Z M 52.167969 9.820312 C 52.066406 9.34375 52.363281 8.875 52.84375 8.769531 C 53.3125 8.664062 53.789062 8.964844 53.886719 9.441406 C 53.996094 9.921875 53.691406 10.386719 53.222656 10.488281 C 52.980469 10.539062 52.738281 10.488281 52.546875 10.363281 C 52.363281 10.242188 52.222656 10.058594 52.167969 9.820312 Z M 46.179688 11.300781 C 46.054688 10.832031 46.34375 10.34375 46.8125 10.21875 C 46.8125 10.21875 46.8125 10.21875 46.804688 10.230469 C 47.285156 10.097656 47.761719 10.378906 47.886719 10.851562 C 48.007812 11.320312 47.726562 11.800781 47.257812 11.921875 C 47.007812 11.992188 46.753906 11.9375 46.554688 11.808594 C 46.375 11.691406 46.238281 11.519531 46.179688 11.300781 Z M 40.261719 13.042969 C 40.117188 12.574219 40.375 12.082031 40.84375 11.9375 C 41.304688 11.792969 41.796875 12.054688 41.945312 12.519531 C 42.09375 12.984375 41.832031 13.480469 41.367188 13.628906 C 41.101562 13.707031 40.832031 13.65625 40.625 13.519531 C 40.457031 13.410156 40.328125 13.25 40.261719 13.042969 Z M 34.429688 15.046875 C 34.257812 14.585938 34.5 14.089844 34.960938 13.917969 C 35.414062 13.753906 35.921875 13.992188 36.089844 14.449219 C 36.246094 14.910156 36.015625 15.410156 35.554688 15.582031 C 35.28125 15.679688 34.996094 15.628906 34.777344 15.484375 C 34.621094 15.382812 34.496094 15.234375 34.429688 15.046875 Z M 28.683594 17.308594 C 28.496094 16.859375 28.710938 16.347656 29.160156 16.15625 C 29.613281 15.964844 30.132812 16.191406 30.3125 16.636719 C 30.5 17.085938 30.28125 17.597656 29.832031 17.785156 C 29.558594 17.902344 29.25 17.855469 29.019531 17.703125 C 28.871094 17.609375 28.757812 17.484375 28.683594 17.308594 Z M 23.042969 19.816406 C 22.835938 19.378906 23.03125 18.851562 23.472656 18.644531 C 23.914062 18.4375 24.4375 18.632812 24.644531 19.078125 C 24.851562 19.519531 24.65625 20.042969 24.210938 20.246094 C 23.929688 20.378906 23.601562 20.34375 23.359375 20.183594 C 23.230469 20.097656 23.121094 19.972656 23.042969 19.816406 Z M 17.523438 22.578125 C 17.296875 22.140625 17.464844 21.609375 17.902344 21.390625 C 18.324219 21.164062 18.859375 21.332031 19.089844 21.765625 C 19.3125 22.199219 19.140625 22.726562 18.710938 22.953125 C 18.417969 23.109375 18.082031 23.078125 17.824219 22.910156 C 17.699219 22.828125 17.589844 22.714844 17.523438 22.578125 Z M 12.125 25.578125 C 11.882812 25.15625 12.023438 24.621094 12.445312 24.378906 C 12.871094 24.128906 13.40625 24.273438 13.648438 24.695312 C 13.898438 25.121094 13.757812 25.65625 13.328125 25.90625 C 13.027344 26.078125 12.671875 26.058594 12.398438 25.878906 C 12.289062 25.804688 12.199219 25.703125 12.125 25.578125 Z M 6.863281 28.824219 C 6.601562 28.410156 6.722656 27.867188 7.136719 27.601562 C 7.542969 27.339844 8.089844 27.457031 8.351562 27.871094 C 8.609375 28.28125 8.496094 28.828125 8.085938 29.085938 C 7.78125 29.277344 7.410156 29.265625 7.128906 29.082031 C 7.023438 29.011719 6.929688 28.929688 6.863281 28.824219 Z M 1.757812 32.296875 C 1.476562 31.902344 1.570312 31.355469 1.972656 31.066406 C 2.363281 30.785156 2.914062 30.882812 3.199219 31.28125 C 3.480469 31.675781 3.378906 32.230469 2.984375 32.511719 C 2.675781 32.722656 2.289062 32.71875 1.992188 32.523438 C 1.90625 32.46875 1.820312 32.390625 1.757812 32.296875 Z M -3.1875 36 C -3.492188 35.609375 -3.417969 35.058594 -3.03125 34.761719 C -2.648438 34.464844 -2.09375 34.535156 -1.796875 34.917969 C -1.503906 35.304688 -1.570312 35.859375 -1.953125 36.15625 C -2.265625 36.394531 -2.675781 36.402344 -2.984375 36.199219 C -3.066406 36.144531 -3.136719 36.078125 -3.1875 36 Z M -7.976562 39.925781 C -8.289062 39.550781 -8.238281 38.992188 -7.875 38.675781 C -7.5 38.359375 -6.941406 38.410156 -6.628906 38.78125 C -6.308594 39.148438 -6.355469 39.710938 -6.730469 40.019531 C -7.042969 40.28125 -7.472656 40.296875 -7.789062 40.089844 C -7.855469 40.046875 -7.917969 39.980469 -7.976562 39.925781 Z M -12.558594 44.042969 C -12.894531 43.6875 -12.871094 43.132812 -12.511719 42.796875 C -12.164062 42.46875 -11.601562 42.488281 -11.265625 42.84375 C -10.933594 43.199219 -10.957031 43.753906 -11.3125 44.089844 C -11.621094 44.375 -12.066406 44.398438 -12.398438 44.179688 C -12.457031 44.140625 -12.511719 44.09375 -12.558594 44.042969 Z M -16.957031 48.367188 C -17.300781 48.027344 -17.308594 47.460938 -16.96875 47.117188 C -16.625 46.773438 -16.0625 46.769531 -15.71875 47.113281 C -15.378906 47.457031 -15.371094 48.015625 -15.714844 48.359375 C -16.011719 48.660156 -16.476562 48.703125 -16.824219 48.476562 C -16.871094 48.445312 -16.917969 48.40625 -16.957031 48.367188 Z M -21.160156 52.886719 C -21.511719 52.558594 -21.546875 51.996094 -21.21875 51.644531 C -20.894531 51.277344 -20.339844 51.25 -19.976562 51.574219 C -19.613281 51.894531 -19.585938 52.460938 -19.910156 52.816406 C -20.203125 53.152344 -20.691406 53.203125 -21.046875 52.96875 C -21.082031 52.945312 -21.125 52.917969 -21.160156 52.886719 Z M -25.144531 57.585938 C -25.523438 57.277344 -25.578125 56.722656 -25.269531 56.347656 C -24.960938 55.96875 -24.398438 55.914062 -24.023438 56.226562 C -23.652344 56.53125 -23.597656 57.09375 -23.910156 57.46875 C -24.191406 57.820312 -24.699219 57.890625 -25.070312 57.648438 C -25.097656 57.628906 -25.121094 57.613281 -25.144531 57.585938 Z M -28.921875 62.464844 C -29.308594 62.171875 -29.390625 61.621094 -29.105469 61.230469 C -28.808594 60.84375 -28.257812 60.761719 -27.867188 61.050781 C -27.472656 61.347656 -27.398438 61.894531 -27.6875 62.28125 C -27.964844 62.660156 -28.492188 62.746094 -28.878906 62.492188 C -28.894531 62.484375 -28.90625 62.476562 -28.921875 62.464844 Z M -32.472656 67.5 C -32.875 67.230469 -32.980469 66.675781 -32.703125 66.277344 C -32.433594 65.878906 -31.890625 65.769531 -31.480469 66.046875 C -31.078125 66.320312 -30.980469 66.871094 -31.25 67.273438 C -31.523438 67.671875 -32.0625 67.773438 -32.460938 67.511719 C -32.46875 67.503906 -32.472656 67.5 -32.472656 67.5 Z M -36.117188 71.4375 C -35.855469 71.03125 -35.304688 70.914062 -34.898438 71.183594 C -34.492188 71.449219 -34.378906 72 -34.644531 72.402344 C -34.910156 72.808594 -35.457031 72.921875 -35.863281 72.65625 C -36.269531 72.390625 -36.386719 71.84375 -36.117188 71.4375 Z M -39.5 76.597656 C -39.234375 76.191406 -38.6875 76.074219 -38.28125 76.34375 C -37.875 76.609375 -37.761719 77.160156 -38.027344 77.5625 C -38.292969 77.96875 -38.839844 78.082031 -39.246094 77.816406 C -39.652344 77.550781 -39.765625 77.003906 -39.5 76.597656 "/></g></g></g><g clip-rule="nonzero" clip-path="url(#5227b702aa)"><g clip-rule="nonzero" clip-path="url(#92db0da2b2)"><g clip-rule="nonzero" clip-path="url(#a1d9ec5706)"><path style=" stroke:none;fill-rule:nonzero;fill:#ffffff;fill-opacity:1;" d="M 150.972656 40.429688 C 123.382812 22.351562 90.28125 16.121094 57.757812 22.894531 C 25.238281 29.664062 -2.628906 48.582031 -20.703125 76.167969 L -107.480469 208.578125 C -125.554688 236.160156 -131.785156 269.261719 -125.011719 301.78125 C -118.238281 334.304688 -99.316406 362.167969 -71.730469 380.25 C -44.144531 398.328125 -11.042969 404.554688 21.480469 397.785156 C 54.003906 391.015625 81.867188 372.09375 99.945312 344.511719 L 186.71875 212.101562 C 204.796875 184.519531 211.023438 151.417969 204.253906 118.898438 C 197.480469 86.375 178.558594 58.507812 150.972656 40.429688 Z M -72.695312 381.722656 C -100.675781 363.386719 -119.867188 335.121094 -126.734375 302.140625 C -133.601562 269.160156 -127.289062 235.589844 -108.953125 207.609375 L -22.179688 75.199219 C -3.84375 47.222656 24.421875 28.03125 57.398438 21.167969 C 90.382812 14.300781 123.957031 20.621094 151.9375 38.957031 C 179.917969 57.292969 199.109375 85.554688 205.976562 118.539062 C 212.84375 151.519531 206.527344 185.089844 188.191406 213.066406 L 101.417969 345.476562 C 83.082031 373.453125 54.824219 392.644531 21.839844 399.507812 C -11.140625 406.375 -44.714844 400.058594 -72.695312 381.722656 "/></g></g></g><g clip-rule="nonzero" clip-path="url(#91c6d4f427)"><g clip-rule="nonzero" clip-path="url(#360ea62b0f)"><g clip-rule="nonzero" clip-path="url(#0f916a7781)"><g clip-rule="nonzero" clip-path="url(#f4c3b4d858)"><path style=" stroke:none;fill-rule:nonzero;fill:#ffffff;fill-opacity:1;" d="M 900.058594 783.453125 C 900.324219 783.050781 900.875 782.933594 901.28125 783.199219 C 901.6875 783.46875 901.800781 784.015625 901.535156 784.421875 C 901.269531 784.828125 900.71875 784.941406 900.3125 784.675781 C 899.90625 784.410156 899.792969 783.859375 900.058594 783.453125 Z M 896.679688 788.613281 C 896.945312 788.210938 897.492188 788.09375 897.898438 788.359375 C 898.304688 788.628906 898.417969 789.175781 898.152344 789.582031 C 897.886719 789.988281 897.339844 790.101562 896.933594 789.835938 C 896.527344 789.570312 896.410156 789.019531 896.679688 788.613281 Z M 893.527344 794.980469 C 893.121094 794.703125 893.015625 794.152344 893.292969 793.75 C 893.566406 793.351562 894.109375 793.242188 894.511719 793.515625 C 894.917969 793.796875 895.023438 794.339844 894.746094 794.746094 C 894.476562 795.136719 893.933594 795.246094 893.535156 794.984375 Z M 889.921875 799.984375 C 889.53125 799.695312 889.453125 799.140625 889.742188 798.746094 C 890.03125 798.355469 890.585938 798.28125 890.980469 798.566406 C 891.371094 798.855469 891.445312 799.414062 891.15625 799.804688 C 890.882812 800.179688 890.351562 800.265625 889.96875 800.011719 C 889.953125 800 889.9375 799.992188 889.921875 799.984375 Z M 886.097656 804.824219 C 885.722656 804.511719 885.664062 803.957031 885.976562 803.582031 C 886.285156 803.203125 886.835938 803.148438 887.214844 803.457031 C 887.589844 803.769531 887.648438 804.320312 887.339844 804.699219 C 887.058594 805.046875 886.550781 805.121094 886.171875 804.871094 C 886.148438 804.855469 886.121094 804.839844 886.097656 804.824219 Z M 882.0625 809.480469 C 881.699219 809.15625 881.671875 808.605469 881.992188 808.246094 C 882.316406 807.878906 882.875 807.839844 883.238281 808.175781 C 883.597656 808.492188 883.632812 809.054688 883.3125 809.414062 C 883.011719 809.746094 882.53125 809.796875 882.171875 809.5625 C 882.136719 809.535156 882.097656 809.511719 882.0625 809.480469 Z M 877.824219 813.964844 C 877.476562 813.621094 877.472656 813.066406 877.808594 812.71875 C 878.148438 812.375 878.703125 812.359375 879.050781 812.699219 C 879.40625 813.042969 879.410156 813.601562 879.066406 813.941406 C 878.769531 814.253906 878.300781 814.296875 877.953125 814.066406 C 877.90625 814.039062 877.863281 813.996094 877.824219 813.964844 Z M 873.382812 818.242188 C 873.058594 817.886719 873.074219 817.332031 873.425781 817.003906 L 873.429688 816.996094 C 873.78125 816.667969 874.339844 816.6875 874.675781 817.042969 C 875.007812 817.394531 874.988281 817.949219 874.628906 818.289062 C 874.328125 818.574219 873.882812 818.597656 873.546875 818.378906 C 873.488281 818.339844 873.433594 818.296875 873.382812 818.242188 Z M 868.757812 822.324219 C 868.445312 821.957031 868.484375 821.394531 868.859375 821.078125 C 869.226562 820.761719 869.78125 820.8125 870.101562 821.179688 C 870.414062 821.550781 870.367188 822.101562 870.003906 822.421875 C 869.695312 822.683594 869.265625 822.695312 868.945312 822.488281 C 868.882812 822.445312 868.8125 822.386719 868.757812 822.324219 Z M 863.9375 826.203125 C 863.636719 825.816406 863.707031 825.261719 864.089844 824.964844 C 864.476562 824.660156 865.027344 824.734375 865.332031 825.109375 C 865.625 825.496094 865.558594 826.050781 865.175781 826.347656 C 865.175781 826.347656 865.175781 826.347656 865.183594 826.351562 C 864.867188 826.589844 864.464844 826.597656 864.152344 826.394531 C 864.070312 826.339844 864 826.273438 863.9375 826.203125 Z M 858.960938 829.851562 C 858.671875 829.453125 858.769531 828.902344 859.160156 828.625 C 859.558594 828.339844 860.105469 828.433594 860.394531 828.832031 C 860.675781 829.226562 860.578125 829.777344 860.179688 830.0625 C 859.882812 830.277344 859.484375 830.269531 859.191406 830.078125 C 859.101562 830.019531 859.019531 829.945312 858.960938 829.851562 Z M 853.816406 833.277344 C 853.546875 832.867188 853.660156 832.324219 854.078125 832.054688 C 854.480469 831.792969 855.035156 831.914062 855.292969 832.324219 C 855.554688 832.730469 855.4375 833.277344 855.03125 833.546875 C 854.726562 833.738281 854.347656 833.71875 854.066406 833.535156 C 853.972656 833.472656 853.882812 833.386719 853.816406 833.277344 Z M 848.519531 836.464844 C 848.28125 836.046875 848.421875 835.507812 848.835938 835.261719 C 849.257812 835.023438 849.800781 835.15625 850.050781 835.582031 C 850.289062 836.003906 850.148438 836.542969 849.726562 836.785156 C 849.425781 836.964844 849.066406 836.9375 848.800781 836.765625 C 848.6875 836.691406 848.589844 836.585938 848.519531 836.464844 Z M 843.097656 839.421875 C 842.867188 838.988281 843.035156 838.457031 843.464844 838.230469 C 843.902344 838 844.433594 838.171875 844.65625 838.601562 C 844.878906 839.03125 844.71875 839.566406 844.285156 839.792969 C 843.992188 839.949219 843.652344 839.914062 843.390625 839.746094 C 843.273438 839.667969 843.167969 839.558594 843.097656 839.421875 Z M 837.550781 842.132812 C 837.335938 841.6875 837.53125 841.160156 837.972656 840.953125 C 838.410156 840.75 838.941406 840.9375 839.148438 841.378906 C 839.355469 841.820312 839.160156 842.347656 838.714844 842.550781 C 838.429688 842.6875 838.105469 842.644531 837.863281 842.488281 C 837.734375 842.398438 837.621094 842.285156 837.550781 842.132812 Z M 831.882812 844.585938 C 831.691406 844.132812 831.90625 843.621094 832.355469 843.429688 C 832.816406 843.246094 833.332031 843.457031 833.507812 843.910156 C 833.699219 844.363281 833.484375 844.871094 833.035156 845.0625 C 832.753906 845.175781 832.449219 845.132812 832.214844 844.976562 C 832.078125 844.886719 831.953125 844.757812 831.882812 844.585938 Z M 826.117188 846.789062 C 825.953125 846.335938 826.191406 845.828125 826.648438 845.660156 C 827.101562 845.484375 827.605469 845.722656 827.773438 846.179688 C 827.945312 846.636719 827.707031 847.144531 827.253906 847.3125 C 826.976562 847.414062 826.6875 847.367188 826.46875 847.222656 C 826.3125 847.121094 826.191406 846.972656 826.117188 846.789062 Z M 820.261719 848.734375 C 820.117188 848.277344 820.371094 847.777344 820.835938 847.628906 C 821.304688 847.480469 821.796875 847.742188 821.945312 848.207031 C 822.09375 848.671875 821.828125 849.167969 821.367188 849.3125 C 821.105469 849.394531 820.839844 849.347656 820.625 849.210938 C 820.457031 849.097656 820.324219 848.9375 820.261719 848.734375 Z M 814.324219 850.421875 C 814.203125 849.953125 814.476562 849.46875 814.949219 849.347656 C 815.425781 849.214844 815.902344 849.5 816.035156 849.972656 C 816.164062 850.433594 815.875 850.921875 815.40625 851.042969 C 815.160156 851.117188 814.898438 851.0625 814.699219 850.933594 C 814.523438 850.816406 814.386719 850.640625 814.324219 850.421875 Z M 808.320312 851.851562 C 808.222656 851.375 808.527344 850.898438 809 850.800781 C 809.476562 850.691406 809.9375 850.992188 810.050781 851.464844 C 810.15625 851.949219 809.851562 852.410156 809.382812 852.523438 C 809.132812 852.574219 808.894531 852.523438 808.703125 852.394531 C 808.519531 852.273438 808.382812 852.082031 808.320312 851.851562 Z M 802.273438 853.011719 C 802.1875 852.53125 802.507812 852.078125 802.984375 851.988281 C 803.464844 851.90625 803.921875 852.226562 804.011719 852.707031 C 804.085938 853.183594 803.769531 853.640625 803.289062 853.730469 C 803.0625 853.769531 802.832031 853.714844 802.65625 853.597656 C 802.460938 853.46875 802.3125 853.257812 802.273438 853.011719 Z M 796.164062 853.902344 C 796.101562 853.421875 796.445312 852.980469 796.929688 852.917969 C 797.410156 852.855469 797.855469 853.1875 797.917969 853.675781 C 797.980469 854.15625 797.640625 854.597656 797.15625 854.660156 C 796.933594 854.695312 796.730469 854.632812 796.5625 854.523438 C 796.355469 854.386719 796.203125 854.171875 796.164062 853.902344 Z M 790.035156 854.527344 C 789.992188 854.042969 790.359375 853.617188 790.839844 853.574219 C 791.320312 853.53125 791.75 853.886719 791.785156 854.378906 C 791.828125 854.859375 791.472656 855.289062 790.988281 855.328125 C 790.785156 855.351562 790.589844 855.289062 790.4375 855.1875 C 790.214844 855.042969 790.0625 854.808594 790.035156 854.527344 Z M 783.878906 854.886719 C 783.863281 854.398438 784.238281 853.984375 784.726562 853.964844 C 785.210938 853.945312 785.621094 854.316406 785.644531 854.8125 C 785.664062 855.296875 785.292969 855.703125 784.800781 855.730469 C 784.609375 855.734375 784.433594 855.679688 784.277344 855.578125 C 784.050781 855.429688 783.898438 855.179688 783.878906 854.886719 Z M 777.714844 854.964844 C 777.71875 854.472656 778.113281 854.078125 778.609375 854.085938 C 779.089844 854.085938 779.484375 854.484375 779.484375 854.96875 C 779.480469 855.457031 779.082031 855.847656 778.601562 855.851562 C 778.417969 855.851562 778.257812 855.792969 778.117188 855.703125 C 777.882812 855.546875 777.722656 855.273438 777.714844 854.964844 Z M 771.558594 854.777344 C 771.582031 854.289062 771.992188 853.914062 772.476562 853.9375 C 772.96875 853.960938 773.34375 854.367188 773.328125 854.859375 C 773.296875 855.339844 772.890625 855.722656 772.398438 855.695312 C 772.238281 855.683594 772.085938 855.640625 771.953125 855.554688 C 771.703125 855.390625 771.546875 855.097656 771.558594 854.777344 Z M 765.421875 854.316406 C 765.464844 853.828125 765.890625 853.464844 766.378906 853.511719 L 766.375 853.519531 C 766.859375 853.566406 767.21875 853.988281 767.171875 854.472656 C 767.132812 854.953125 766.707031 855.316406 766.21875 855.273438 C 766.070312 855.257812 765.929688 855.210938 765.8125 855.132812 C 765.546875 854.960938 765.394531 854.644531 765.421875 854.316406 Z M 759.308594 853.574219 C 759.375 853.09375 759.816406 852.757812 760.296875 852.824219 C 760.78125 852.890625 761.117188 853.328125 761.050781 853.8125 C 760.988281 854.296875 760.542969 854.640625 760.0625 854.566406 C 759.925781 854.550781 759.808594 854.503906 759.699219 854.433594 C 759.425781 854.253906 759.261719 853.921875 759.308594 853.574219 Z M 753.238281 852.570312 C 753.316406 852.09375 753.777344 851.773438 754.257812 851.859375 C 754.738281 851.949219 755.054688 852.414062 754.964844 852.890625 C 754.886719 853.363281 754.421875 853.683594 753.941406 853.597656 C 753.824219 853.574219 753.710938 853.53125 753.613281 853.46875 C 753.328125 853.28125 753.164062 852.933594 753.238281 852.570312 Z M 747.21875 851.300781 C 747.320312 850.820312 747.796875 850.523438 748.269531 850.628906 C 748.742188 850.742188 749.046875 851.214844 748.933594 851.6875 C 748.820312 852.164062 748.351562 852.464844 747.875 852.355469 C 747.773438 852.332031 747.675781 852.289062 747.589844 852.230469 C 747.292969 852.035156 747.132812 851.667969 747.21875 851.300781 Z M 741.246094 849.75 C 741.375 849.285156 741.863281 849.003906 742.324219 849.136719 C 742.796875 849.269531 743.074219 849.746094 742.945312 850.21875 C 742.8125 850.691406 742.328125 850.964844 741.863281 850.835938 C 741.769531 850.808594 741.683594 850.773438 741.609375 850.722656 C 741.300781 850.519531 741.136719 850.128906 741.246094 849.75 Z M 735.351562 847.941406 C 735.503906 847.472656 736.003906 847.21875 736.460938 847.371094 C 736.921875 847.527344 737.175781 848.019531 737.019531 848.476562 C 736.871094 848.949219 736.371094 849.199219 735.914062 849.042969 C 735.835938 849.019531 735.773438 848.988281 735.707031 848.941406 C 735.382812 848.730469 735.226562 848.324219 735.351562 847.941406 Z M 729.539062 845.859375 C 729.710938 845.40625 730.226562 845.167969 730.679688 845.34375 C 731.132812 845.515625 731.363281 846.019531 731.191406 846.476562 C 731.023438 846.9375 730.519531 847.164062 730.0625 846.992188 C 729.992188 846.96875 729.933594 846.941406 729.882812 846.910156 C 729.546875 846.6875 729.398438 846.253906 729.539062 845.859375 Z M 723.832031 843.523438 C 724.027344 843.078125 724.542969 842.871094 724.992188 843.054688 C 725.4375 843.257812 725.648438 843.773438 725.453125 844.214844 C 725.269531 844.660156 724.75 844.871094 724.296875 844.679688 C 724.246094 844.65625 724.207031 844.640625 724.160156 844.609375 C 723.804688 844.378906 723.664062 843.925781 723.832031 843.523438 Z M 718.238281 840.929688 C 718.453125 840.492188 718.980469 840.3125 719.414062 840.519531 C 719.851562 840.734375 720.039062 841.253906 719.824219 841.695312 C 719.617188 842.140625 719.089844 842.320312 718.648438 842.105469 C 718.617188 842.09375 718.585938 842.074219 718.550781 842.050781 C 718.1875 841.8125 718.042969 841.339844 718.238281 840.929688 Z M 712.765625 838.089844 C 712.992188 837.664062 713.527344 837.507812 713.957031 837.734375 C 714.386719 837.960938 714.550781 838.503906 714.3125 838.925781 C 714.085938 839.359375 713.546875 839.519531 713.121094 839.28125 C 713.09375 839.277344 713.074219 839.261719 713.058594 839.253906 C 712.671875 839 712.546875 838.5 712.765625 838.089844 Z M 707.425781 835.015625 C 707.671875 834.59375 708.210938 834.460938 708.628906 834.703125 C 709.046875 834.957031 709.183594 835.503906 708.933594 835.914062 C 708.6875 836.335938 708.144531 836.472656 707.730469 836.222656 C 707.714844 836.214844 707.707031 836.207031 707.691406 836.199219 C 707.300781 835.941406 707.179688 835.421875 707.425781 835.015625 "/></g></g></g></g><g clip-rule="nonzero" clip-path="url(#fb5be5c528)"><g clip-rule="nonzero" clip-path="url(#a2028a1309)"><g clip-rule="nonzero" clip-path="url(#83705fb01c)"><path style=" stroke:none;fill-rule:nonzero;fill:#ffffff;fill-opacity:1;" d="M 935.785156 466.394531 C 936.035156 465.980469 936.574219 465.851562 936.992188 466.097656 C 936.992188 466.097656 936.992188 466.097656 936.996094 466.09375 C 937.410156 466.34375 937.550781 466.886719 937.296875 467.304688 C 937.042969 467.726562 936.503906 467.855469 936.089844 467.605469 C 936.074219 467.597656 936.066406 467.59375 936.058594 467.585938 C 935.660156 467.324219 935.539062 466.804688 935.785156 466.394531 Z M 930.414062 463.371094 C 930.644531 462.941406 931.183594 462.777344 931.609375 463.015625 C 932.035156 463.242188 932.191406 463.777344 931.960938 464.207031 C 931.726562 464.632812 931.195312 464.800781 930.769531 464.566406 C 930.746094 464.550781 930.722656 464.542969 930.699219 464.527344 C 930.320312 464.28125 930.191406 463.773438 930.414062 463.371094 Z M 924.90625 460.582031 C 925.121094 460.144531 925.648438 459.964844 926.089844 460.179688 C 926.527344 460.394531 926.710938 460.914062 926.496094 461.355469 C 926.28125 461.792969 925.753906 461.972656 925.316406 461.761719 C 925.28125 461.746094 925.253906 461.726562 925.214844 461.703125 C 924.855469 461.46875 924.71875 460.984375 924.90625 460.582031 Z M 919.289062 458.042969 C 919.484375 457.601562 920 457.390625 920.453125 457.589844 C 920.894531 457.777344 921.101562 458.300781 920.90625 458.742188 C 920.714844 459.199219 920.195312 459.394531 919.75 459.207031 C 919.699219 459.183594 919.65625 459.15625 919.617188 459.128906 C 919.265625 458.898438 919.121094 458.445312 919.289062 458.042969 Z M 913.5625 455.761719 C 913.722656 455.3125 914.246094 455.082031 914.699219 455.257812 C 915.15625 455.425781 915.382812 455.933594 915.207031 456.386719 C 915.039062 456.84375 914.53125 457.070312 914.074219 456.902344 L 914.070312 456.90625 C 914.011719 456.882812 913.945312 456.851562 913.898438 456.816406 C 913.558594 456.59375 913.410156 456.160156 913.5625 455.761719 Z M 907.734375 453.746094 C 907.886719 453.285156 908.378906 453.03125 908.84375 453.175781 C 909.308594 453.332031 909.558594 453.835938 909.40625 454.292969 C 909.25 454.757812 908.761719 455.007812 908.289062 454.859375 C 908.222656 454.835938 908.152344 454.796875 908.085938 454.753906 C 907.757812 454.539062 907.605469 454.132812 907.734375 453.746094 Z M 901.824219 451.992188 C 901.953125 451.515625 902.4375 451.246094 902.90625 451.382812 C 903.371094 451.507812 903.644531 451.992188 903.519531 452.457031 C 903.386719 452.929688 902.902344 453.203125 902.429688 453.074219 C 902.339844 453.046875 902.257812 453.015625 902.183594 452.964844 C 901.867188 452.757812 901.710938 452.371094 901.824219 451.992188 Z M 895.835938 450.5 C 895.945312 450.023438 896.417969 449.722656 896.894531 449.832031 C 896.894531 449.832031 896.894531 449.832031 896.890625 449.839844 C 897.367188 449.945312 897.664062 450.421875 897.554688 450.898438 C 897.445312 451.375 896.96875 451.660156 896.492188 451.550781 C 896.390625 451.527344 896.292969 451.484375 896.214844 451.429688 C 895.910156 451.234375 895.753906 450.867188 895.835938 450.5 Z M 889.808594 449.277344 C 889.898438 448.800781 890.347656 448.484375 890.824219 448.574219 C 891.308594 448.660156 891.625 449.121094 891.535156 449.601562 C 891.449219 450.082031 890.992188 450.398438 890.511719 450.308594 C 890.390625 450.285156 890.285156 450.242188 890.183594 450.175781 C 889.898438 449.988281 889.734375 449.644531 889.808594 449.277344 Z M 883.722656 448.335938 C 883.785156 447.851562 884.242188 447.515625 884.71875 447.585938 C 885.203125 447.652344 885.535156 448.09375 885.472656 448.578125 C 885.398438 449.058594 884.953125 449.394531 884.472656 449.332031 L 884.476562 449.324219 C 884.335938 449.308594 884.21875 449.261719 884.109375 449.191406 C 883.835938 449.011719 883.671875 448.683594 883.722656 448.335938 Z M 877.601562 447.65625 C 877.648438 447.167969 878.078125 446.820312 878.5625 446.863281 C 879.050781 446.910156 879.402344 447.335938 879.359375 447.824219 C 879.3125 448.3125 878.882812 448.664062 878.394531 448.617188 C 878.246094 448.605469 878.109375 448.554688 878 448.484375 C 877.730469 448.308594 877.570312 447.996094 877.601562 447.65625 Z M 871.457031 447.253906 C 871.484375 446.765625 871.894531 446.390625 872.378906 446.410156 C 872.867188 446.4375 873.242188 446.851562 873.214844 447.34375 C 873.1875 447.832031 872.777344 448.203125 872.292969 448.183594 C 872.132812 448.171875 871.976562 448.121094 871.851562 448.035156 C 871.601562 447.871094 871.4375 447.574219 871.457031 447.253906 Z M 865.296875 447.125 C 865.296875 446.636719 865.699219 446.238281 866.1875 446.242188 C 866.667969 446.253906 867.0625 446.648438 867.058594 447.132812 C 867.054688 447.621094 866.664062 448.011719 866.171875 448.003906 C 865.992188 448.003906 865.839844 447.953125 865.695312 447.859375 C 865.457031 447.703125 865.296875 447.429688 865.296875 447.125 Z M 859.136719 447.261719 C 859.117188 446.777344 859.5 446.371094 859.984375 446.351562 C 860.46875 446.332031 860.878906 446.707031 860.898438 447.195312 C 860.917969 447.679688 860.539062 448.09375 860.050781 448.113281 C 859.863281 448.117188 859.6875 448.0625 859.535156 447.964844 C 859.308594 447.816406 859.148438 447.566406 859.136719 447.261719 Z M 852.984375 447.675781 C 852.945312 447.1875 853.304688 446.769531 853.785156 446.726562 C 854.273438 446.6875 854.707031 447.046875 854.746094 447.53125 C 854.78125 448.023438 854.421875 448.441406 853.941406 448.484375 C 853.726562 448.5 853.542969 448.445312 853.378906 448.339844 C 853.160156 448.195312 853.011719 447.957031 852.984375 447.675781 Z M 846.855469 448.359375 C 846.792969 447.878906 847.136719 447.4375 847.617188 447.371094 C 848.101562 447.3125 848.542969 447.648438 848.605469 448.132812 C 848.667969 448.621094 848.328125 449.058594 847.84375 449.121094 C 847.625 449.148438 847.417969 449.097656 847.246094 448.988281 C 847.039062 448.851562 846.894531 448.628906 846.855469 448.359375 Z M 840.765625 449.3125 C 840.675781 448.828125 841.007812 448.371094 841.480469 448.292969 C 841.960938 448.207031 842.421875 448.535156 842.496094 449.011719 C 842.585938 449.492188 842.265625 449.945312 841.789062 450.03125 C 841.550781 450.070312 841.328125 450.019531 841.144531 449.898438 C 840.957031 449.773438 840.8125 449.558594 840.765625 449.3125 Z M 834.71875 450.53125 C 834.617188 450.054688 834.914062 449.585938 835.394531 449.480469 C 835.863281 449.375 836.339844 449.675781 836.4375 450.152344 C 836.546875 450.636719 836.242188 451.097656 835.773438 451.203125 C 835.527344 451.253906 835.285156 451.199219 835.097656 451.074219 C 834.914062 450.957031 834.773438 450.769531 834.71875 450.53125 Z M 828.730469 452.011719 C 828.605469 451.542969 828.894531 451.058594 829.363281 450.933594 C 829.363281 450.933594 829.363281 450.933594 829.355469 450.941406 C 829.835938 450.808594 830.3125 451.089844 830.4375 451.5625 C 830.558594 452.03125 830.277344 452.511719 829.808594 452.636719 C 829.558594 452.703125 829.300781 452.648438 829.105469 452.519531 C 828.925781 452.402344 828.789062 452.230469 828.730469 452.011719 Z M 822.8125 453.753906 C 822.667969 453.285156 822.925781 452.792969 823.394531 452.648438 C 823.855469 452.503906 824.347656 452.765625 824.496094 453.230469 C 824.644531 453.699219 824.382812 454.191406 823.917969 454.339844 C 823.652344 454.417969 823.382812 454.367188 823.175781 454.230469 C 823.007812 454.121094 822.878906 453.964844 822.8125 453.753906 Z M 816.980469 455.757812 C 816.808594 455.296875 817.050781 454.800781 817.511719 454.628906 C 817.964844 454.464844 818.472656 454.703125 818.640625 455.160156 C 818.796875 455.621094 818.566406 456.121094 818.105469 456.292969 C 817.832031 456.390625 817.546875 456.339844 817.328125 456.195312 C 817.171875 456.09375 817.046875 455.945312 816.980469 455.757812 Z M 811.234375 458.019531 C 811.046875 457.574219 811.261719 457.058594 811.710938 456.867188 C 812.164062 456.675781 812.683594 456.902344 812.863281 457.347656 C 813.050781 457.796875 812.832031 458.308594 812.382812 458.496094 C 812.109375 458.613281 811.800781 458.566406 811.570312 458.417969 C 811.421875 458.320312 811.308594 458.195312 811.234375 458.019531 Z M 805.589844 460.527344 C 805.386719 460.089844 805.582031 459.5625 806.023438 459.359375 C 806.464844 459.152344 806.988281 459.34375 807.195312 459.789062 C 807.402344 460.230469 807.207031 460.753906 806.761719 460.957031 C 806.480469 461.089844 806.152344 461.054688 805.910156 460.894531 C 805.777344 460.808594 805.671875 460.683594 805.589844 460.527344 Z M 800.074219 463.289062 C 799.847656 462.851562 800.015625 462.320312 800.453125 462.101562 C 800.875 461.875 801.410156 462.042969 801.636719 462.476562 C 801.863281 462.910156 801.691406 463.4375 801.261719 463.664062 C 800.96875 463.820312 800.628906 463.789062 800.375 463.621094 C 800.246094 463.539062 800.140625 463.425781 800.074219 463.289062 Z M 794.675781 466.289062 C 794.433594 465.867188 794.574219 465.332031 794.996094 465.089844 C 795.421875 464.84375 795.957031 464.984375 796.199219 465.40625 C 796.449219 465.832031 796.304688 466.367188 795.878906 466.617188 C 795.578125 466.789062 795.222656 466.769531 794.949219 466.589844 C 794.839844 466.515625 794.75 466.414062 794.675781 466.289062 Z M 789.414062 469.535156 C 789.152344 469.121094 789.273438 468.578125 789.6875 468.3125 C 790.09375 468.050781 790.640625 468.171875 790.902344 468.582031 C 791.160156 468.992188 791.046875 469.539062 790.632812 469.796875 C 790.332031 469.988281 789.960938 469.976562 789.679688 469.792969 C 789.574219 469.722656 789.480469 469.640625 789.414062 469.535156 Z M 784.308594 473.007812 C 784.027344 472.613281 784.121094 472.066406 784.523438 471.777344 C 784.914062 471.5 785.464844 471.59375 785.75 471.992188 C 786.03125 472.386719 785.929688 472.941406 785.535156 473.222656 C 785.226562 473.433594 784.839844 473.429688 784.542969 473.234375 C 784.457031 473.179688 784.371094 473.101562 784.308594 473.007812 Z M 779.363281 476.710938 C 779.058594 476.320312 779.132812 475.769531 779.515625 475.472656 C 779.902344 475.175781 780.457031 475.246094 780.753906 475.628906 C 781.046875 476.015625 780.980469 476.570312 780.597656 476.867188 C 780.285156 477.105469 779.875 477.113281 779.566406 476.910156 C 779.484375 476.855469 779.414062 476.789062 779.363281 476.710938 Z M 774.574219 480.636719 C 774.261719 480.261719 774.3125 479.703125 774.675781 479.386719 C 775.050781 479.070312 775.609375 479.121094 775.921875 479.496094 C 776.242188 479.859375 776.191406 480.421875 775.820312 480.730469 C 775.507812 480.992188 775.078125 481.007812 774.761719 480.800781 C 774.695312 480.757812 774.632812 480.695312 774.574219 480.636719 Z M 769.992188 484.753906 C 769.65625 484.398438 769.679688 483.84375 770.039062 483.507812 C 770.386719 483.179688 770.949219 483.199219 771.28125 483.554688 C 771.617188 483.914062 771.59375 484.464844 771.238281 484.800781 C 770.929688 485.085938 770.484375 485.109375 770.152344 484.890625 C 770.09375 484.851562 770.039062 484.804688 769.992188 484.753906 Z M 765.59375 489.078125 C 765.25 488.738281 765.242188 488.171875 765.582031 487.828125 C 765.925781 487.484375 766.484375 487.480469 766.832031 487.824219 C 767.171875 488.167969 767.175781 488.726562 766.835938 489.070312 C 766.539062 489.375 766.074219 489.414062 765.726562 489.1875 C 765.679688 489.15625 765.632812 489.117188 765.59375 489.078125 Z M 761.390625 493.597656 C 761.039062 493.269531 761.003906 492.710938 761.332031 492.355469 C 761.65625 491.988281 762.210938 491.960938 762.574219 492.289062 C 762.9375 492.605469 762.964844 493.171875 762.640625 493.527344 C 762.347656 493.863281 761.859375 493.914062 761.503906 493.679688 C 761.46875 493.65625 761.425781 493.628906 761.390625 493.597656 Z M 757.40625 498.296875 C 757.027344 497.988281 756.972656 497.433594 757.28125 497.058594 C 757.589844 496.679688 758.152344 496.625 758.527344 496.9375 C 758.898438 497.242188 758.953125 497.804688 758.640625 498.179688 C 758.359375 498.53125 757.851562 498.601562 757.480469 498.359375 C 757.453125 498.339844 757.429688 498.324219 757.40625 498.296875 Z M 753.628906 503.175781 C 753.242188 502.882812 753.160156 502.332031 753.445312 501.941406 C 753.742188 501.554688 754.292969 501.472656 754.683594 501.761719 C 755.078125 502.058594 755.148438 502.605469 754.863281 502.996094 C 754.585938 503.371094 754.058594 503.457031 753.671875 503.207031 C 753.65625 503.195312 753.640625 503.1875 753.628906 503.175781 Z M 750.078125 508.214844 C 749.675781 507.941406 749.570312 507.386719 749.847656 506.988281 C 750.117188 506.589844 750.660156 506.480469 751.070312 506.757812 C 751.472656 507.03125 751.570312 507.582031 751.300781 507.984375 C 751.027344 508.382812 750.488281 508.484375 750.089844 508.222656 C 750.082031 508.21875 750.078125 508.214844 750.078125 508.214844 Z M 746.433594 512.148438 C 746.695312 511.746094 747.246094 511.628906 747.652344 511.894531 C 748.058594 512.160156 748.171875 512.710938 747.90625 513.113281 C 747.640625 513.519531 747.09375 513.632812 746.6875 513.367188 C 746.28125 513.101562 746.164062 512.554688 746.433594 512.148438 Z M 743.050781 517.308594 C 743.3125 516.90625 743.863281 516.789062 744.269531 517.054688 C 744.675781 517.320312 744.789062 517.871094 744.523438 518.273438 C 744.257812 518.679688 743.710938 518.792969 743.304688 518.527344 C 742.898438 518.261719 742.785156 517.714844 743.050781 517.308594 "/></g></g></g><g clip-rule="nonzero" clip-path="url(#65cb2ca7f5)"><g clip-rule="nonzero" clip-path="url(#9ed31bdeb0)"><g clip-rule="nonzero" clip-path="url(#bcbf222d4b)"><g clip-rule="nonzero" clip-path="url(#5614b69282)"><path style=" stroke:none;fill-rule:nonzero;fill:#ffffff;fill-opacity:1;" d="M 702.960938 833.246094 L 702.828125 833.15625 C 671.792969 812.820312 650.507812 781.46875 642.890625 744.886719 C 635.273438 708.308594 642.28125 671.074219 662.617188 640.039062 L 741.328125 519.933594 C 741.59375 519.527344 742.144531 519.414062 742.550781 519.679688 C 742.957031 519.945312 743.070312 520.492188 742.804688 520.898438 L 664.09375 641.003906 C 644.011719 671.648438 637.097656 708.410156 644.617188 744.527344 C 652.132812 780.652344 673.152344 811.601562 703.792969 831.683594 L 703.925781 831.769531 C 704.332031 832.035156 704.445312 832.585938 704.179688 832.992188 C 703.914062 833.398438 703.367188 833.511719 702.960938 833.246094 "/></g></g></g></g><g clip-rule="nonzero" clip-path="url(#0770111146)"><g clip-rule="nonzero" clip-path="url(#17b01ed61d)"><g clip-rule="nonzero" clip-path="url(#9228ff20ae)"><path style=" stroke:none;fill-rule:nonzero;fill:#ffffff;fill-opacity:1;" d="M 933.523438 481.140625 C 905.933594 463.0625 872.832031 456.832031 840.308594 463.605469 C 807.789062 470.375 779.921875 489.292969 761.847656 516.878906 L 675.070312 649.289062 C 656.996094 676.871094 650.765625 709.972656 657.539062 742.492188 C 664.3125 775.015625 683.234375 802.878906 710.820312 820.960938 C 738.40625 839.039062 771.507812 845.265625 804.03125 838.496094 C 836.550781 831.726562 864.417969 812.804688 882.492188 785.222656 L 969.269531 652.8125 C 987.34375 625.230469 993.574219 592.128906 986.804688 559.609375 C 980.03125 527.085938 961.109375 499.21875 933.523438 481.140625 Z M 709.855469 822.433594 C 681.875 804.097656 662.683594 775.832031 655.816406 742.851562 C 648.949219 709.871094 655.261719 676.300781 673.597656 648.320312 L 760.371094 515.910156 C 778.707031 487.933594 806.972656 468.742188 839.949219 461.878906 C 872.933594 455.011719 906.507812 461.332031 934.488281 479.667969 C 962.46875 498.003906 981.660156 526.265625 988.527344 559.25 C 995.394531 592.230469 989.078125 625.800781 970.742188 653.777344 L 883.96875 786.1875 C 865.632812 814.167969 837.375 833.355469 804.390625 840.21875 C 771.410156 847.085938 737.835938 840.773438 709.855469 822.433594 "/></g></g></g><g clip-rule="nonzero" clip-path="url(#b44fd205ba)"><g clip-rule="nonzero" clip-path="url(#084f5e0527)"><path style=" stroke:none;fill-rule:nonzero;fill:#000000;fill-opacity:1;" d="M 81 74.203125 L 729 74.203125 L 729 729.796875 L 81 729.796875 Z M 81 74.203125 "/></g></g><g clip-rule="nonzero" clip-path="url(#50417fbdd5)"><g clip-rule="nonzero" clip-path="url(#71b078f256)"><path style=" stroke:none;fill-rule:nonzero;fill:#fbfcf7;fill-opacity:1;" d="M 88.105469 81 L 722.9375 81 L 722.9375 703.667969 L 88.105469 703.667969 Z M 88.105469 81 "/></g></g><g clip-rule="nonzero" clip-path="url(#dc47803505)"><g clip-rule="nonzero" clip-path="url(#3b48efae44)"><path style=" stroke:none;fill-rule:nonzero;fill:#000000;fill-opacity:1;" d="M 208.359375 560.285156 L 601.519531 560.285156 L 601.519531 633.96875 L 208.359375 633.96875 Z M 208.359375 560.285156 "/></g></g><g clip-rule="nonzero" clip-path="url(#97e785923b)"><g clip-rule="nonzero" clip-path="url(#637d5e83a1)"><path style=" stroke:none;fill-rule:nonzero;fill:#fff8fb;fill-opacity:1;" d="M 214.285156 565.355469 L 595.914062 565.355469 L 595.914062 619.875 L 214.285156 619.875 Z M 214.285156 565.355469 "/></g></g><path style="fill:none;stroke-width:5;stroke-linecap:round;stroke-linejoin:miter;stroke:#ffffff;stroke-opacity:1;stroke-miterlimit:4;" d="M 2.500806 2.500973 L 338.185034 2.500973 " transform="matrix(0.53033,-0.53033,0.53033,0.53033,-121.344,642.910068)"/><path style="fill:none;stroke-width:5;stroke-linecap:round;stroke-linejoin:miter;stroke:#ffffff;stroke-opacity:1;stroke-miterlimit:4;" d="M 2.502678 2.499101 L 338.183224 2.502784 " transform="matrix(0.53033,-0.53033,0.53033,0.53033,-121.344,692.001897)"/><path style="fill:none;stroke-width:5;stroke-linecap:round;stroke-linejoin:miter;stroke:#ffffff;stroke-opacity:1;stroke-miterlimit:4;" d="M 2.502382 2.499357 L 338.18661 2.499357 " transform="matrix(0.53033,-0.53033,0.53033,0.53033,760.156021,145.462541)"/><path style="fill:none;stroke-width:5;stroke-linecap:round;stroke-linejoin:miter;stroke:#ffffff;stroke-opacity:1;stroke-miterlimit:4;" d="M 2.500576 2.501163 L 338.184804 2.501163 " transform="matrix(0.53033,-0.53033,0.53033,0.53033,760.156021,194.554376)"/><g clip-rule="nonzero" clip-path="url(#270cef4b1a)"><g clip-rule="nonzero" clip-path="url(#c91cff45a5)"><g clip-rule="nonzero" clip-path="url(#7e68e22e77)"><path style=" stroke:none;fill-rule:nonzero;fill:#ffffff;fill-opacity:1;" d="M 592.074219 613.71875 C 591.0625 611.109375 588.128906 609.816406 585.523438 610.824219 C 582.914062 611.835938 581.621094 614.769531 582.632812 617.378906 L 580.007812 610.613281 C 578.691406 607.214844 574.867188 605.527344 571.46875 606.84375 C 568.070312 608.160156 566.382812 611.984375 567.699219 615.386719 L 566.234375 611.605469 C 564.917969 608.207031 561.09375 606.519531 557.695312 607.835938 C 554.296875 609.15625 552.609375 612.976562 553.925781 616.378906 L 547.246094 599.148438 C 545.929688 595.75 542.105469 594.0625 538.703125 595.378906 C 535.304688 596.699219 533.617188 600.519531 534.9375 603.921875 L 548.3125 638.417969 C 553.023438 650.570312 546.339844 646.703125 546.339844 646.703125 C 537.800781 640.796875 530.292969 636.1875 527.472656 642.652344 C 525.140625 647.996094 535.476562 654.476562 547.4375 663.429688 C 560.820312 673.449219 567.28125 678.082031 583.515625 671.789062 C 598.351562 666.035156 605.285156 647.746094 599.53125 632.90625 L 597.839844 628.585938 L 592.074219 613.71875 "/></g></g></g><g clip-rule="nonzero" clip-path="url(#1bf42596e4)"><g clip-rule="nonzero" clip-path="url(#c50cffe61e)"><g clip-rule="nonzero" clip-path="url(#0b61dbd19a)"><path style=" stroke:none;fill-rule:nonzero;fill:#000000;fill-opacity:1;" d="M 595.308594 624.589844 L 598.691406 633.238281 L 598.691406 633.234375 C 601.480469 640.421875 601.199219 648.476562 598.410156 655.421875 C 597.015625 658.894531 595 662.082031 592.4375 664.75 C 589.875 667.417969 586.769531 669.5625 583.1875 670.949219 C 579.183594 672.503906 575.816406 673.367188 572.828125 673.652344 C 570.585938 673.863281 568.554688 673.753906 566.601562 673.355469 C 563.675781 672.761719 560.914062 671.523438 557.925781 669.710938 C 554.9375 667.902344 551.738281 665.527344 547.976562 662.707031 C 543.171875 659.113281 538.644531 655.921875 535.121094 653.074219 C 533.359375 651.648438 531.851562 650.308594 530.691406 649.0625 C 529.527344 647.820312 528.722656 646.664062 528.335938 645.65625 C 528.144531 645.160156 528.046875 644.699219 528.042969 644.269531 C 528.039062 643.835938 528.117188 643.429688 528.296875 643.011719 C 528.589844 642.34375 528.925781 641.835938 529.285156 641.460938 C 529.648438 641.082031 530.03125 640.832031 530.464844 640.660156 C 530.824219 640.519531 531.222656 640.441406 531.667969 640.421875 C 532.445312 640.382812 533.367188 640.535156 534.402344 640.867188 C 535.953125 641.367188 537.746094 642.265625 539.675781 643.414062 C 541.605469 644.5625 543.679688 645.960938 545.828125 647.445312 L 545.886719 647.480469 C 545.921875 647.5 546.347656 647.75 546.964844 647.953125 C 547.273438 648.054688 547.628906 648.144531 548.019531 648.175781 C 548.414062 648.207031 548.847656 648.183594 549.289062 648.015625 C 549.523438 647.925781 549.757812 647.789062 549.96875 647.601562 C 550.335938 647.28125 550.601562 646.820312 550.742188 646.285156 C 550.851562 645.882812 550.902344 645.433594 550.894531 644.921875 C 550.886719 644.152344 550.753906 643.238281 550.472656 642.117188 C 550.195312 640.996094 549.765625 639.671875 549.152344 638.089844 C 548.972656 637.625 548.449219 637.394531 547.984375 637.574219 C 547.523438 637.753906 547.292969 638.277344 547.472656 638.742188 C 548.074219 640.292969 548.480469 641.570312 548.738281 642.601562 C 548.929688 643.375 549.03125 644.015625 549.074219 644.527344 C 549.136719 645.296875 549.042969 645.773438 548.9375 646.007812 C 548.886719 646.128906 548.832031 646.195312 548.789062 646.238281 C 548.742188 646.285156 548.699219 646.3125 548.636719 646.335938 C 548.535156 646.375 548.375 646.398438 548.171875 646.378906 C 547.867188 646.355469 547.5 646.242188 547.226562 646.128906 C 547.089844 646.074219 546.972656 646.015625 546.894531 645.976562 C 546.855469 645.957031 546.828125 645.941406 546.808594 645.933594 L 546.789062 645.921875 L 546.339844 646.703125 L 546.851562 645.960938 C 543.5625 643.6875 540.410156 641.589844 537.550781 640.210938 C 536.121094 639.523438 534.761719 639.015625 533.472656 638.769531 C 532.824219 638.648438 532.195312 638.59375 531.582031 638.621094 C 530.972656 638.648438 530.375 638.761719 529.8125 638.980469 C 529.136719 639.242188 528.515625 639.65625 527.984375 640.214844 C 527.449219 640.769531 527.007812 641.464844 526.644531 642.292969 C 526.363281 642.9375 526.230469 643.613281 526.238281 644.292969 C 526.25 644.972656 526.398438 645.644531 526.65625 646.308594 C 527.175781 647.644531 528.121094 648.949219 529.371094 650.292969 C 531.25 652.304688 533.832031 654.417969 536.851562 656.710938 C 539.867188 659 543.3125 661.46875 546.894531 664.152344 C 550.242188 666.65625 553.171875 668.835938 555.953125 670.609375 C 558.039062 671.9375 560.046875 673.035156 562.089844 673.859375 C 565.148438 675.097656 568.289062 675.703125 571.808594 675.53125 C 575.328125 675.359375 579.214844 674.425781 583.839844 672.632812 C 587.679688 671.144531 591.003906 668.84375 593.738281 666 C 597.832031 661.734375 600.597656 656.246094 601.785156 650.394531 C 602.976562 644.542969 602.597656 638.320312 600.371094 632.582031 L 596.988281 623.933594 C 596.808594 623.46875 596.285156 623.238281 595.820312 623.421875 C 595.359375 623.601562 595.128906 624.125 595.308594 624.589844 "/></g></g></g><g clip-rule="nonzero" clip-path="url(#72aad0d779)"><g clip-rule="nonzero" clip-path="url(#caab78afdd)"><g clip-rule="nonzero" clip-path="url(#50cc00aee3)"><path style=" stroke:none;fill-rule:nonzero;fill:#000000;fill-opacity:1;" d="M 595.308594 624.589844 L 597 628.914062 C 597.183594 629.375 597.703125 629.605469 598.167969 629.425781 C 598.632812 629.242188 598.859375 628.722656 598.679688 628.257812 L 592.914062 613.390625 C 592.320312 611.855469 591.15625 610.703125 589.761719 610.089844 C 588.367188 609.472656 586.730469 609.390625 585.195312 609.984375 C 583.664062 610.578125 582.507812 611.746094 581.894531 613.140625 C 581.277344 614.53125 581.195312 616.171875 581.792969 617.703125 L 585.578125 627.464844 C 585.757812 627.929688 586.277344 628.160156 586.742188 627.980469 C 587.207031 627.800781 587.4375 627.277344 587.257812 626.816406 L 583.472656 617.050781 C 583.054688 615.976562 583.113281 614.84375 583.542969 613.867188 C 583.976562 612.890625 584.773438 612.082031 585.847656 611.664062 C 586.921875 611.25 588.054688 611.308594 589.035156 611.738281 C 590.011719 612.171875 590.816406 612.96875 591.234375 614.042969 L 597 628.910156 C 597.085938 629.132812 597.257812 629.3125 597.476562 629.410156 C 597.699219 629.507812 597.941406 629.511719 598.167969 629.425781 C 598.390625 629.335938 598.570312 629.167969 598.664062 628.945312 C 598.761719 628.726562 598.769531 628.480469 598.679688 628.257812 L 596.988281 623.933594 C 596.808594 623.46875 596.285156 623.238281 595.820312 623.421875 C 595.359375 623.601562 595.128906 624.125 595.308594 624.589844 "/></g></g></g><g clip-rule="nonzero" clip-path="url(#8296337514)"><g clip-rule="nonzero" clip-path="url(#78e22aef54)"><g clip-rule="nonzero" clip-path="url(#f046e7def2)"><path style=" stroke:none;fill-rule:nonzero;fill:#000000;fill-opacity:1;" d="M 587.257812 626.816406 L 580.847656 610.285156 C 580.101562 608.359375 578.636719 606.90625 576.882812 606.136719 C 575.128906 605.359375 573.070312 605.253906 571.144531 606.003906 C 569.210938 606.75 567.761719 608.214844 566.992188 609.972656 C 566.214844 611.722656 566.109375 613.78125 566.859375 615.710938 L 572.875 631.226562 C 573.054688 631.6875 573.578125 631.921875 574.042969 631.738281 C 574.503906 631.558594 574.734375 631.039062 574.554688 630.574219 L 568.539062 615.058594 C 567.972656 613.589844 568.050781 612.035156 568.640625 610.699219 C 569.230469 609.363281 570.324219 608.253906 571.792969 607.683594 C 573.265625 607.113281 574.816406 607.195312 576.15625 607.785156 C 577.492188 608.375 578.597656 609.46875 579.167969 610.9375 L 585.578125 627.464844 C 585.757812 627.929688 586.277344 628.160156 586.742188 627.980469 C 587.207031 627.800781 587.4375 627.277344 587.257812 626.816406 "/></g></g></g><g clip-rule="nonzero" clip-path="url(#002fefa0d3)"><g clip-rule="nonzero" clip-path="url(#6b8e441d80)"><g clip-rule="nonzero" clip-path="url(#f144c7553d)"><path style=" stroke:none;fill-rule:nonzero;fill:#000000;fill-opacity:1;" d="M 574.554688 630.574219 L 567.074219 611.28125 C 566.328125 609.351562 564.863281 607.902344 563.109375 607.128906 C 561.355469 606.351562 559.296875 606.25 557.367188 606.996094 C 555.4375 607.746094 553.988281 609.207031 553.214844 610.964844 C 552.441406 612.714844 552.335938 614.773438 553.085938 616.703125 L 560.171875 634.984375 C 560.355469 635.449219 560.875 635.679688 561.339844 635.5 C 561.804688 635.320312 562.035156 634.796875 561.855469 634.332031 L 554.765625 616.050781 C 554.195312 614.582031 554.277344 613.027344 554.867188 611.691406 C 555.457031 610.355469 556.550781 609.246094 558.019531 608.675781 C 559.488281 608.109375 561.042969 608.1875 562.378906 608.777344 C 563.71875 609.367188 564.824219 610.460938 565.394531 611.933594 L 572.875 631.226562 C 573.054688 631.6875 573.578125 631.921875 574.042969 631.738281 C 574.503906 631.558594 574.734375 631.039062 574.554688 630.574219 "/></g></g></g><g clip-rule="nonzero" clip-path="url(#f454f73b20)"><g clip-rule="nonzero" clip-path="url(#23172eadad)"><g clip-rule="nonzero" clip-path="url(#e4a45f0bb5)"><path style=" stroke:none;fill-rule:nonzero;fill:#000000;fill-opacity:1;" d="M 561.855469 634.332031 L 548.085938 598.820312 C 547.339844 596.890625 545.875 595.441406 544.117188 594.667969 C 542.367188 593.894531 540.308594 593.792969 538.378906 594.539062 C 536.449219 595.285156 535 596.75 534.226562 598.503906 C 533.453125 600.257812 533.347656 602.316406 534.097656 604.246094 L 547.472656 638.742188 C 547.652344 639.207031 548.175781 639.4375 548.636719 639.257812 C 549.101562 639.078125 549.332031 638.554688 549.152344 638.089844 L 535.777344 603.59375 C 535.207031 602.125 535.289062 600.570312 535.875 599.234375 C 536.46875 597.894531 537.5625 596.789062 539.03125 596.21875 C 540.5 595.648438 542.054688 595.730469 543.390625 596.320312 C 544.726562 596.910156 545.835938 598.003906 546.40625 599.472656 L 560.171875 634.984375 C 560.355469 635.449219 560.875 635.679688 561.339844 635.5 C 561.804688 635.320312 562.035156 634.796875 561.855469 634.332031 "/></g></g></g></g></svg>