<svg xmlns="http://www.w3.org/2000/svg" xmlns:xlink="http://www.w3.org/1999/xlink" width="1080" zoomAndPan="magnify" viewBox="0 0 810 809.999993" height="1080" preserveAspectRatio="xMidYMid meet" version="1.2"><defs><clipPath id="c682f95dd2"><path d="M 31.195312 104.480469 L 810 104.480469 L 810 705.519531 L 31.195312 705.519531 Z M 31.195312 104.480469 "/></clipPath><clipPath id="04e8f312e4"><path d="M 66.445312 104.480469 L 851.070312 104.480469 C 870.539062 104.480469 886.320312 120.261719 886.320312 139.730469 L 886.320312 670.269531 C 886.320312 689.738281 870.539062 705.519531 851.070312 705.519531 L 66.445312 705.519531 C 46.976562 705.519531 31.195312 689.738281 31.195312 670.269531 L 31.195312 139.730469 C 31.195312 120.261719 46.976562 104.480469 66.445312 104.480469 Z M 66.445312 104.480469 "/></clipPath><clipPath id="896c1514af"><path d="M 81.011719 538.085938 L 279 538.085938 L 279 601.835938 L 81.011719 601.835938 Z M 81.011719 538.085938 "/></clipPath><clipPath id="46459269a7"><path d="M 112.765625 538.085938 L 246.882812 538.085938 C 255.304688 538.085938 263.382812 541.429688 269.335938 547.386719 C 275.289062 553.339844 278.636719 561.417969 278.636719 569.835938 C 278.636719 578.257812 275.289062 586.335938 269.335938 592.289062 C 263.382812 598.246094 255.304688 601.589844 246.882812 601.589844 L 112.765625 601.589844 C 104.34375 601.589844 96.265625 598.246094 90.3125 592.289062 C 84.359375 586.335938 81.011719 578.257812 81.011719 569.835938 C 81.011719 561.417969 84.359375 553.339844 90.3125 547.386719 C 96.265625 541.429688 104.34375 538.085938 112.765625 538.085938 Z M 112.765625 538.085938 "/></clipPath><clipPath id="c5ef31c448"><path d="M 358 48 L 810 48 L 810 810 L 358 810 Z M 358 48 "/></clipPath><clipPath id="bfb5050156"><path d="M 514.765625 37.632812 L 878.269531 119.359375 L 711.496094 861.140625 L 347.996094 779.417969 Z M 514.765625 37.632812 "/></clipPath><clipPath id="87861a01d7"><path d="M 826.636719 108.5 L 566.078125 49.917969 C 537.839844 43.570312 509.765625 61.335938 503.417969 89.574219 L 359.832031 728.230469 C 353.480469 756.46875 371.25 784.542969 399.488281 790.890625 L 660.046875 849.472656 C 688.285156 855.820312 716.359375 838.050781 722.707031 809.816406 L 866.292969 171.160156 C 872.640625 142.921875 854.875 114.847656 826.636719 108.5 Z M 734.628906 112.46875 C 737.195312 113.046875 738.757812 115.515625 738.183594 118.085938 C 737.605469 120.652344 735.132812 122.214844 732.566406 121.636719 C 730 121.058594 728.4375 118.589844 729.015625 116.023438 C 729.589844 113.457031 732.246094 111.933594 734.628906 112.46875 Z M 666.636719 98.722656 L 710.644531 108.617188 C 712.296875 108.988281 713.472656 110.601562 713.0625 112.4375 C 712.648438 114.269531 710.894531 115.222656 709.242188 114.851562 L 665.234375 104.957031 C 663.585938 104.585938 662.40625 102.972656 662.820312 101.140625 C 663.230469 99.308594 664.988281 98.351562 666.636719 98.722656 Z M 703.34375 808.542969 C 699.59375 825.230469 682.972656 835.746094 666.289062 831.996094 L 401.695312 772.507812 C 385.007812 768.757812 374.488281 752.136719 378.242188 735.453125 L 522.941406 91.84375 C 526.691406 75.160156 543.3125 64.640625 559.996094 68.390625 L 599.421875 77.253906 L 597.566406 85.507812 C 595.460938 94.859375 601.433594 104.292969 610.785156 106.394531 L 762.425781 140.484375 C 771.777344 142.589844 781.210938 136.617188 783.3125 127.265625 L 785.167969 119.015625 L 824.40625 127.839844 C 841.09375 131.589844 851.613281 148.210938 847.859375 164.894531 L 703.160156 808.503906 Z M 703.34375 808.542969 "/></clipPath><clipPath id="7dfc179d48"><path d="M 377 67 L 810 67 L 810 810 L 377 810 Z M 377 67 "/></clipPath><clipPath id="23a6b9cb2b"><path d="M 529.65625 61.160156 L 856.21875 134.582031 L 697.753906 839.421875 L 371.191406 766.003906 Z M 529.65625 61.160156 "/></clipPath><clipPath id="68ada5fa14"><path d="M 824.40625 127.839844 L 785.167969 119.015625 L 783.3125 127.265625 C 781.210938 136.617188 771.777344 142.589844 762.425781 140.484375 L 610.96875 106.433594 C 601.617188 104.332031 595.644531 94.898438 597.75 85.546875 L 599.601562 77.296875 L 559.996094 68.390625 C 543.3125 64.640625 526.691406 75.160156 522.941406 91.84375 L 378.242188 735.453125 C 374.488281 752.136719 385.007812 768.757812 401.695312 772.507812 L 666.105469 831.957031 C 682.789062 835.707031 699.410156 825.1875 703.160156 808.503906 L 847.859375 164.894531 C 851.796875 148.25 841.277344 131.628906 824.40625 127.839844 Z M 824.40625 127.839844 "/></clipPath><clipPath id="0a3a5892b3"><path d="M 508.042969 33.015625 L 886.320312 118.0625 L 717.890625 867.234375 L 339.609375 782.1875 Z M 508.042969 33.015625 "/></clipPath><clipPath id="b1f1d88db0"><path d="M 662 98 L 714 98 L 714 115 L 662 115 Z M 662 98 "/></clipPath><clipPath id="fd47247e0f"><path d="M 662.792969 97.304688 L 714.511719 108.929688 L 712.851562 116.320312 L 661.132812 104.691406 Z M 662.792969 97.304688 "/></clipPath><clipPath id="bc92dcb46e"><path d="M 710.644531 108.617188 L 666.636719 98.722656 C 664.988281 98.351562 663.230469 99.308594 662.820312 101.140625 C 662.40625 102.972656 663.585938 104.585938 665.234375 104.957031 L 709.242188 114.851562 C 710.894531 115.222656 712.648438 114.269531 713.0625 112.4375 C 713.472656 110.601562 712.296875 108.988281 710.644531 108.617188 Z M 710.644531 108.617188 "/></clipPath><clipPath id="d3cf71c1f3"><path d="M 728 112 L 739 112 L 739 122 L 728 122 Z M 728 112 "/></clipPath><clipPath id="fc301ddfd5"><path d="M 729.621094 110.777344 L 739.964844 113.101562 L 737.636719 123.445312 L 727.292969 121.121094 Z M 729.621094 110.777344 "/></clipPath><clipPath id="adc4a5743e"><path d="M 734.628906 112.46875 C 732.097656 111.898438 729.582031 113.492188 729.015625 116.023438 C 728.445312 118.554688 730.035156 121.070312 732.566406 121.636719 C 735.097656 122.207031 737.613281 120.617188 738.183594 118.085938 C 738.75 115.550781 737.160156 113.039062 734.628906 112.46875 Z M 734.628906 112.46875 "/></clipPath><clipPath id="e33fd5ac43"><path d="M 479 132 L 490 132 L 490 164 L 479 164 Z M 479 132 "/></clipPath><clipPath id="ca17bfe395"><path d="M 485.78125 132.019531 L 490.214844 133.015625 L 483.238281 164.046875 L 478.804688 163.050781 Z M 485.78125 132.019531 "/></clipPath><clipPath id="5961ae164d"><path d="M 484.914062 135.882812 L 479.761719 158.804688 C 479.265625 161.003906 480.6875 163.25 482.886719 163.746094 L 489.8125 132.941406 C 487.613281 132.445312 485.410156 133.683594 484.914062 135.882812 Z M 484.914062 135.882812 "/></clipPath><clipPath id="92c8e0aaca"><path d="M 462 186 L 478 186 L 478 243 L 462 243 Z M 462 186 "/></clipPath><clipPath id="32b06e1a08"><path d="M 473.824219 185.214844 L 478.257812 186.210938 L 465.632812 242.363281 L 461.199219 241.367188 Z M 473.824219 185.214844 "/></clipPath><clipPath id="1636246f6b"><path d="M 472.835938 189.609375 L 462.117188 237.285156 C 461.621094 239.484375 463.042969 241.730469 465.242188 242.226562 L 477.734375 186.667969 C 475.535156 186.171875 473.332031 187.410156 472.835938 189.609375 Z M 472.835938 189.609375 "/></clipPath><clipPath id="06bdc1aef0"><path d="M 446 254 L 463 254 L 463 311 L 446 311 Z M 446 254 "/></clipPath><clipPath id="9df6c5fe81"><path d="M 458.542969 253.1875 L 462.972656 254.183594 L 450.351562 310.335938 L 445.917969 309.339844 Z M 458.542969 253.1875 "/></clipPath><clipPath id="82ffdfffe1"><path d="M 457.582031 257.453125 L 446.863281 305.128906 C 446.371094 307.328125 447.789062 309.574219 449.992188 310.070312 L 462.523438 254.328125 C 460.324219 253.832031 458.078125 255.253906 457.582031 257.453125 Z M 457.582031 257.453125 "/></clipPath><clipPath id="0c264afce5"><path d="M 354 44 L 810 44 L 810 810 L 354 810 Z M 354 44 "/></clipPath><clipPath id="c7ab8b4e30"><path d="M 510.996094 33.683594 L 883.367188 117.398438 L 714.933594 866.570312 L 342.566406 782.851562 Z M 510.996094 33.683594 "/></clipPath><clipPath id="c617441c55"><path d="M 843.824219 288.234375 L 869.960938 171.984375 C 870.828125 168.132812 871.285156 164.382812 871.335938 160.734375 C 871.378906 158.816406 871.382812 157.085938 871.246094 155.128906 C 871.089844 152.394531 870.566406 149.582031 870.003906 146.949219 C 869.640625 145.136719 869.054688 143.460938 868.464844 141.789062 C 867.878906 140.117188 867.292969 138.441406 866.519531 136.726562 C 865.367188 134.15625 864.128906 131.953125 862.746094 129.523438 C 861.753906 127.949219 860.714844 126.5625 859.679688 125.171875 C 851.917969 115.144531 840.847656 107.839844 827.644531 104.871094 L 566.902344 46.25 C 553.699219 43.28125 540.339844 45.289062 529.257812 50.886719 C 527.726562 51.699219 526.15625 52.691406 524.625 53.503906 C 522.378906 54.925781 520.09375 56.53125 518.128906 58.402344 C 516.699219 59.621094 515.453125 60.882812 514.207031 62.144531 C 512.960938 63.402344 511.671875 64.847656 510.609375 66.148438 C 508.75 68.429688 507.296875 70.605469 505.800781 72.964844 C 504.839844 74.675781 504.101562 76.246094 503.324219 77.996094 C 501.804688 81.316406 500.574219 85.082031 499.75 88.75 L 356.164062 727.40625 C 349.363281 757.660156 368.40625 787.757812 398.664062 794.558594 L 659.222656 853.136719 C 689.476562 859.941406 719.574219 840.894531 726.375 810.640625 Z M 840.15625 287.410156 L 722.667969 809.996094 C 716.316406 838.234375 688.246094 856.003906 660.007812 849.65625 L 399.445312 791.074219 C 371.207031 784.726562 353.441406 756.652344 359.789062 728.414062 L 503.375 89.757812 C 509.765625 61.335938 537.839844 43.570312 566.078125 49.917969 L 826.636719 108.5 C 854.875 114.847656 872.640625 142.921875 866.292969 171.160156 Z M 840.15625 287.410156 "/></clipPath><clipPath id="fff354b805"><path d="M 81 613.40625 L 110 613.40625 L 110 642.65625 L 81 642.65625 Z M 81 613.40625 "/></clipPath></defs><g id="64563c95db"><rect x="0" width="810" y="0" height="809.999993" style="fill:#ffffff;fill-opacity:1;stroke:none;"/><rect x="0" width="810" y="0" height="809.999993" style="fill:#ffffff;fill-opacity:1;stroke:none;"/><g transform="matrix(1.445611,0,0,1.446428,-634.982125,0.00002)"><image width="1438" xlink:href="PLACE_SCREENSHOT_HERE" height="560" preserveAspectRatio="xMidYMid meet"/></g><g clip-rule="nonzero" clip-path="url(#c682f95dd2)"><g clip-rule="nonzero" clip-path="url(#04e8f312e4)"><path style=" stroke:none;fill-rule:nonzero;fill:COLOR_BRANDCOLOR;fill-opacity:1;" d="M 31.195312 104.480469 L 885.792969 104.480469 L 885.792969 705.519531 L 31.195312 705.519531 Z M 31.195312 104.480469 "/></g></g><g clip-rule="nonzero" clip-path="url(#896c1514af)"><g clip-rule="nonzero" clip-path="url(#46459269a7)"><path style="fill:none;stroke-width:4;stroke-linecap:butt;stroke-linejoin:miter;stroke:COLOR_CONTRAST;stroke-opacity:1;stroke-miterlimit:4;" d="M 42.337392 0.000502094 L 221.160318 0.000502094 C 232.389485 0.000502094 243.160319 4.458836 251.097819 12.401544 C 259.03532 20.339045 263.498861 31.109879 263.498861 42.333838 C 263.498861 53.563005 259.03532 64.333839 251.097819 72.271339 C 243.160319 80.214048 232.389485 84.672381 221.160318 84.672381 L 42.337392 84.672381 C 31.108225 84.672381 20.337391 80.214048 12.39989 72.271339 C 4.46239 64.333839 -0.00115183 53.563005 -0.00115183 42.333838 C -0.00115183 31.109879 4.46239 20.339045 12.39989 12.401544 C 20.337391 4.458836 31.108225 0.000502094 42.337392 0.000502094 Z M 42.337392 0.000502094 " transform="matrix(0.75,0,0,0.75,81.012583,538.085561)"/></g></g><path style="fill:none;stroke-width:2;stroke-linecap:butt;stroke-linejoin:miter;stroke:COLOR_CONTRAST;stroke-opacity:1;stroke-miterlimit:4;" d="M -0.000167817 0.997816 L 299.327971 0.997816 " transform="matrix(0.749217,-0.000000000000000279,0.000000000000000279,0.749217,278.652469,569.092263)"/><g clip-rule="nonzero" clip-path="url(#c5ef31c448)"><g clip-rule="nonzero" clip-path="url(#bfb5050156)"><g clip-rule="nonzero" clip-path="url(#87861a01d7)"><path style=" stroke:none;fill-rule:nonzero;fill:#000000;fill-opacity:1;" d="M 508.042969 33.015625 L 886.320312 118.0625 L 717.890625 867.234375 L 339.609375 782.1875 Z M 508.042969 33.015625 "/></g></g></g><g clip-rule="nonzero" clip-path="url(#7dfc179d48)"><g clip-rule="nonzero" clip-path="url(#23a6b9cb2b)"><g clip-rule="nonzero" clip-path="url(#68ada5fa14)"><g clip-rule="nonzero" clip-path="url(#0a3a5892b3)"><g transform="matrix(1.257753,0.282774,-0.282974,1.258645,-211.833031,-105.134231)"><image width="1438" xlink:href="PLACE_SCREENSHOT_HERE" height="560" preserveAspectRatio="xMidYMid meet"/></g></g></g></g></g><g clip-rule="nonzero" clip-path="url(#b1f1d88db0)"><g clip-rule="nonzero" clip-path="url(#fd47247e0f)"><g clip-rule="nonzero" clip-path="url(#bc92dcb46e)"><path style=" stroke:none;fill-rule:nonzero;fill:#555555;fill-opacity:1;" d="M 508.042969 33.015625 L 886.320312 118.0625 L 717.890625 867.234375 L 339.609375 782.1875 Z M 508.042969 33.015625 "/></g></g></g><g clip-rule="nonzero" clip-path="url(#d3cf71c1f3)"><g clip-rule="nonzero" clip-path="url(#fc301ddfd5)"><g clip-rule="nonzero" clip-path="url(#adc4a5743e)"><path style=" stroke:none;fill-rule:nonzero;fill:#555555;fill-opacity:1;" d="M 508.042969 33.015625 L 886.320312 118.0625 L 717.890625 867.234375 L 339.609375 782.1875 Z M 508.042969 33.015625 "/></g></g></g><g clip-rule="nonzero" clip-path="url(#e33fd5ac43)"><g clip-rule="nonzero" clip-path="url(#ca17bfe395)"><g clip-rule="nonzero" clip-path="url(#5961ae164d)"><path style=" stroke:none;fill-rule:nonzero;fill:#2e2e2e;fill-opacity:1;" d="M 508.042969 33.015625 L 886.320312 118.0625 L 717.890625 867.234375 L 339.609375 782.1875 Z M 508.042969 33.015625 "/></g></g></g><g clip-rule="nonzero" clip-path="url(#92c8e0aaca)"><g clip-rule="nonzero" clip-path="url(#32b06e1a08)"><g clip-rule="nonzero" clip-path="url(#1636246f6b)"><path style=" stroke:none;fill-rule:nonzero;fill:#2e2e2e;fill-opacity:1;" d="M 508.042969 33.015625 L 886.320312 118.0625 L 717.890625 867.234375 L 339.609375 782.1875 Z M 508.042969 33.015625 "/></g></g></g><g clip-rule="nonzero" clip-path="url(#06bdc1aef0)"><g clip-rule="nonzero" clip-path="url(#9df6c5fe81)"><g clip-rule="nonzero" clip-path="url(#82ffdfffe1)"><path style=" stroke:none;fill-rule:nonzero;fill:#2e2e2e;fill-opacity:1;" d="M 508.042969 33.015625 L 886.320312 118.0625 L 717.890625 867.234375 L 339.609375 782.1875 Z M 508.042969 33.015625 "/></g></g></g><g clip-rule="nonzero" clip-path="url(#0c264afce5)"><g clip-rule="nonzero" clip-path="url(#c7ab8b4e30)"><g clip-rule="nonzero" clip-path="url(#c617441c55)"><path style=" stroke:none;fill-rule:nonzero;fill:#555555;fill-opacity:1;" d="M 508.042969 33.015625 L 886.320312 118.0625 L 717.890625 867.234375 L 339.609375 782.1875 Z M 508.042969 33.015625 "/></g></g></g><g clip-rule="nonzero" clip-path="url(#fff354b805)"><path style=" stroke:none;fill-rule:nonzero;fill:COLOR_CONTRAST;fill-opacity:1;" d="M 95.457031 613.40625 C 87.484375 613.40625 81 619.886719 81 627.859375 C 81 635.832031 87.484375 642.316406 95.457031 642.316406 C 103.425781 642.316406 109.910156 635.832031 109.910156 627.859375 C 109.910156 619.886719 103.425781 613.40625 95.457031 613.40625 Z M 95.457031 641.300781 C 88.035156 641.300781 82.015625 635.28125 82.015625 627.859375 C 82.015625 620.4375 88.035156 614.417969 95.457031 614.417969 C 102.875 614.417969 108.894531 620.4375 108.894531 627.859375 C 108.894531 635.28125 102.875 641.300781 95.457031 641.300781 Z M 95.457031 641.300781 "/></g><path style=" stroke:none;fill-rule:nonzero;fill:COLOR_CONTRAST;fill-opacity:1;" d="M 95.941406 636.609375 L 94.984375 636.609375 L 94.835938 636.582031 C 94.5 636.539062 94.15625 636.511719 93.824219 636.445312 C 91.585938 636.003906 89.761719 634.871094 88.425781 633.035156 C 86.734375 630.707031 86.273438 628.125 87.085938 625.367188 C 88.234375 621.429688 91.953125 618.867188 96.042969 619.128906 C 97.945312 619.253906 99.632812 619.933594 101.085938 621.164062 C 102.710938 622.539062 103.710938 624.277344 104.085938 626.382812 C 104.140625 626.699219 104.171875 627.023438 104.214844 627.34375 L 104.214844 628.367188 L 104.183594 628.550781 C 104.140625 628.863281 104.117188 629.183594 104.054688 629.496094 C 103.660156 631.515625 102.667969 633.195312 101.105469 634.535156 C 99.902344 635.566406 98.515625 636.214844 96.949219 636.472656 C 96.617188 636.53125 96.277344 636.5625 95.941406 636.609375 Z M 91.753906 623.648438 L 89.359375 622.46875 C 88.109375 623.90625 87.421875 625.597656 87.324219 627.539062 L 90.945312 627.539062 C 90.984375 626.195312 91.253906 624.898438 91.753906 623.648438 Z M 101.566406 622.46875 L 99.167969 623.648438 C 99.667969 624.875 99.933594 626.179688 99.980469 627.539062 L 103.597656 627.539062 C 103.503906 625.597656 102.820312 623.90625 101.566406 622.46875 Z M 90.945312 628.171875 L 87.324219 628.171875 C 87.417969 630.027344 88.046875 631.660156 89.230469 633.09375 C 89.996094 632.578125 90.808594 632.164062 91.675781 631.847656 C 91.226562 630.664062 90.984375 629.4375 90.945312 628.171875 Z M 101.734375 633.050781 C 102.878906 631.652344 103.511719 630.023438 103.597656 628.171875 L 100.019531 628.171875 C 99.933594 628.808594 99.882812 629.433594 99.761719 630.046875 C 99.644531 630.65625 99.449219 631.246094 99.300781 631.808594 Z M 92.355469 623.785156 C 91.855469 624.988281 91.585938 626.238281 91.554688 627.539062 L 95.148438 627.539062 L 95.148438 624.21875 C 94.199219 624.191406 93.269531 624.050781 92.355469 623.785156 Z M 98.570312 623.785156 C 97.640625 624.054688 96.71875 624.1875 95.773438 624.226562 L 95.773438 627.539062 L 99.371094 627.539062 C 99.339844 626.238281 99.070312 624.988281 98.570312 623.785156 Z M 95.773438 628.167969 L 95.773438 631.191406 C 96.761719 631.21875 97.726562 631.371094 98.667969 631.652344 C 99.066406 630.769531 99.445312 628.8125 99.347656 628.167969 Z M 95.144531 631.167969 L 95.144531 628.167969 L 91.554688 628.167969 C 91.585938 629.363281 91.8125 630.519531 92.242188 631.632812 C 92.738281 631.527344 93.207031 631.40625 93.683594 631.332031 C 94.15625 631.253906 94.652344 631.222656 95.144531 631.167969 Z M 89.644531 633.546875 C 90.957031 634.863281 92.515625 635.65625 94.398438 635.929688 C 93.339844 634.914062 92.507812 633.742188 91.90625 632.40625 C 91.105469 632.691406 90.351562 633.074219 89.644531 633.546875 Z M 96.53125 635.929688 C 98.40625 635.65625 99.972656 634.863281 101.285156 633.546875 C 100.578125 633.070312 99.820312 632.691406 99.019531 632.410156 C 98.417969 633.742188 97.589844 634.917969 96.53125 635.929688 Z M 98.441406 632.21875 C 97.574219 631.960938 96.6875 631.820312 95.78125 631.792969 L 95.78125 635.792969 C 96.925781 634.792969 97.8125 633.601562 98.441406 632.21875 Z M 92.484375 632.21875 C 93.117188 633.601562 94.003906 634.792969 95.148438 635.792969 L 95.148438 631.792969 C 94.242188 631.820312 93.355469 631.960938 92.484375 632.21875 Z M 91.976562 623.03125 C 92.34375 622.445312 92.667969 621.863281 93.058594 621.328125 C 93.445312 620.792969 93.90625 620.296875 94.328125 619.792969 C 92.609375 620.039062 91.109375 620.773438 89.824219 621.984375 C 90.5 622.417969 91.21875 622.765625 91.976562 623.03125 Z M 96.53125 619.78125 C 97.53125 620.75 98.3125 621.824219 98.898438 623.035156 C 99.378906 622.921875 100.601562 622.335938 101.097656 621.980469 C 99.820312 620.777344 98.320312 620.042969 96.53125 619.78125 Z M 95.148438 619.914062 C 94.070312 620.867188 93.234375 621.957031 92.613281 623.222656 C 93.222656 623.433594 94.785156 623.660156 95.148438 623.59375 Z M 98.316406 623.226562 C 97.695312 621.949219 96.847656 620.847656 95.773438 619.917969 L 95.773438 623.617188 C 96.636719 623.589844 97.484375 623.460938 98.316406 623.226562 Z M 98.316406 623.226562 "/></g></svg>