<svg xmlns="http://www.w3.org/2000/svg" xmlns:xlink="http://www.w3.org/1999/xlink" width="1080" zoomAndPan="magnify" viewBox="0 0 810 1012.49997" height="1350" preserveAspectRatio="xMidYMid meet" version="1.2"><defs><clipPath id="626bc91d66"><path d="M 0.199219 0 L 809.800781 0 L 809.800781 1012 L 0.199219 1012 Z M 0.199219 0 "/></clipPath><filter x="0%" y="0%" width="100%" filterUnits="objectBoundingBox" id="786ac6278e" height="100%"><feColorMatrix values="0 0 0 0 1 0 0 0 0 1 0 0 0 0 1 0 0 0 1 0" type="matrix" in="SourceGraphic"/></filter><clipPath id="a5045da2a7"><path d="M 0.199219 0 L 809.800781 0 L 809.800781 1012 L 0.199219 1012 Z M 0.199219 0 "/></clipPath><clipPath id="d2ca868b0a"><rect x="0" width="810" y="0" height="1012"/></clipPath><clipPath id="1c10529a55"><path d="M 0.199219 506 L 809.800781 506 L 809.800781 1012 L 0.199219 1012 Z M 0.199219 506 "/></clipPath><clipPath id="05d8ac4a7f"><path d="M 0.183594 0.234375 L 621 0.234375 L 621 599.753906 L 0.183594 599.753906 Z M 0.183594 0.234375 "/></clipPath><clipPath id="ede69597a7"><rect x="0" width="624" y="0" height="600"/></clipPath><clipPath id="b6356658c6"><path d="M 94.191406 206.242188 L 715 206.242188 L 715 805.761719 L 94.191406 805.761719 Z M 94.191406 206.242188 "/></clipPath><clipPath id="f036b8811d"><path d="M 94.191406 206.242188 L 715.632812 206.242188 L 715.632812 805.585938 L 94.191406 805.585938 Z M 94.191406 206.242188 "/></clipPath><clipPath id="101ac37456"><path d="M 94.191406 206.242188 L 715.808594 206.242188 L 715.808594 506 L 94.191406 506 Z M 94.191406 206.242188 "/></clipPath><clipPath id="8d91a88158"><path d="M 94.191406 206.242188 L 715.632812 206.242188 L 715.632812 505.914062 L 94.191406 505.914062 Z M 94.191406 206.242188 "/></clipPath></defs><g id="1f9aa1f58f"><g clip-rule="nonzero" clip-path="url(#626bc91d66)"><path style=" stroke:none;fill-rule:nonzero;fill:#ffffff;fill-opacity:1;" d="M 0.199219 0 L 809.800781 0 L 809.800781 1012 L 0.199219 1012 Z M 0.199219 0 "/><path style=" stroke:none;fill-rule:nonzero;fill:COLOR_LIGHT_CONTRAST_TO_BRANDCOLOR_HERE;fill-opacity:1;" d="M 0.199219 0 L 809.800781 0 L 809.800781 1012 L 0.199219 1012 Z M 0.199219 0 "/><g mask="url(#a780e207f1)" transform="matrix(1,0,0,1,0.000000000000000028,0)"><g clip-path="url(#d2ca868b0a)"><g clip-rule="nonzero" clip-path="url(#a5045da2a7)"><g transform="matrix(0.33666,0,0,0.336436,-494.555728,0)"><image width="5344" xlink:href="file:///Users/erikbelt/Desktop/Mood Tracking App/AdCreator/image-generation-service/assets/Untitled design-img1-43d68ee9.jpg" id="afeaeee187" height="3008" preserveAspectRatio="xMidYMid meet"/></g></g></g><mask id="a780e207f1"><g filter="url(#786ac6278e)"><rect x="0" width="810" y="0" height="1012.49997" style="fill:#000000;fill-opacity:0.06;stroke:none;"/></g></mask></g></g><g clip-rule="nonzero" clip-path="url(#1c10529a55)"><path style=" stroke:none;fill-rule:nonzero;fill:COLOR_BRANDCOLOR;fill-opacity:1;" d="M 0.199219 506 L 810.589844 506 L 810.589844 1012 L 0.199219 1012 Z M 0.199219 506 "/></g><g mask="url(#ffe9bb3cb7)" transform="matrix(1,0,0,1,109,221)"><g clip-path="url(#ede69597a7)"><g clip-rule="nonzero" clip-path="url(#05d8ac4a7f)"><path style=" stroke:none;fill-rule:nonzero;fill:#291b25;fill-opacity:1;" d="M 0.183594 0.234375 L 620.78125 0.234375 L 620.78125 599.753906 L 0.183594 599.753906 Z M 0.183594 0.234375 "/></g></g><mask id="ffe9bb3cb7"><g filter="url(#786ac6278e)"><rect x="0" width="810" y="0" height="1012.49997" style="fill:#000000;fill-opacity:0.2;stroke:none;"/></g></mask></g><g clip-rule="nonzero" clip-path="url(#b6356658c6)"><path style=" stroke:none;fill-rule:nonzero;fill:COLOR_LIGHT_CONTRAST_TO_BRANDCOLOR_HERE;fill-opacity:1;" d="M 94.191406 206.242188 L 714.785156 206.242188 L 714.785156 805.761719 L 94.191406 805.761719 Z M 94.191406 206.242188 "/></g><g clip-rule="nonzero" clip-path="url(#f036b8811d)"><path style="fill:none;stroke-width:4;stroke-linecap:butt;stroke-linejoin:miter;stroke:COLOR_BRANDCOLOR;stroke-opacity:1;stroke-miterlimit:4;" d="M -0.000234694 0.00253059 L 829.23188 0.00253059 L 829.23188 799.748219 L -0.000234694 799.748219 Z M -0.000234694 0.00253059 " transform="matrix(0.749418,0,0,0.749418,94.191582,206.240291)"/></g><g clip-rule="nonzero" clip-path="url(#101ac37456)"><path style=" stroke:none;fill-rule:nonzero;fill:#ffffff;fill-opacity:1;" d="M 94.191406 206.242188 L 715.957031 206.242188 L 715.957031 506 L 94.191406 506 Z M 94.191406 206.242188 "/></g><g clip-rule="nonzero" clip-path="url(#8d91a88158)"><path style="fill:none;stroke-width:4;stroke-linecap:butt;stroke-linejoin:miter;stroke:COLOR_BRANDCOLOR;stroke-opacity:1;stroke-miterlimit:4;" d="M -0.000234694 0.00253059 L 829.23188 0.00253059 L 829.23188 399.875375 L -0.000234694 399.875375 Z M -0.000234694 0.00253059 " transform="matrix(0.749418,0,0,0.749418,94.191582,206.240291)"/></g><path style="fill:none;stroke-width:2;stroke-linecap:butt;stroke-linejoin:miter;stroke:#ffffff;stroke-opacity:1;stroke-miterlimit:4;" d="M 0.000410673 0.999825 L 829.235001 0.998313 " transform="matrix(0.74943,-0.00180753,0.00180753,0.74943,94.189291,905.60617)"/><path style="fill:none;stroke-width:2;stroke-linecap:butt;stroke-linejoin:miter;stroke:#ffffff;stroke-opacity:1;stroke-miterlimit:4;" d="M -0.00180687 1.000884 L 829.232783 0.999371 " transform="matrix(0.74943,-0.00180753,0.00180753,0.74943,94.190951,956.882717)"/></g></svg>