<svg xmlns="http://www.w3.org/2000/svg" xmlns:xlink="http://www.w3.org/1999/xlink" width="1080" zoomAndPan="magnify" viewBox="0 0 810 1012.49997" height="1350" preserveAspectRatio="xMidYMid meet" version="1.2"><defs><clipPath id="5e96e168ac"><path d="M 0.199219 0 L 809.800781 0 L 809.800781 1012 L 0.199219 1012 Z M 0.199219 0 "/></clipPath><filter x="0%" y="0%" width="100%" filterUnits="objectBoundingBox" id="bd88342dd2" height="100%"><feColorMatrix values="0 0 0 0 1 0 0 0 0 1 0 0 0 0 1 0 0 0 1 0" type="matrix" in="SourceGraphic"/></filter><clipPath id="166cbd9c34"><path d="M 0.199219 0 L 809.800781 0 L 809.800781 1012 L 0.199219 1012 Z M 0.199219 0 "/></clipPath><clipPath id="9e8cbf208d"><rect x="0" width="810" y="0" height="1012"/></clipPath><clipPath id="534e426fa3"><path d="M 68.167969 200.015625 L 741.832031 200.015625 L 741.832031 811.984375 L 68.167969 811.984375 Z M 68.167969 200.015625 "/></clipPath><clipPath id="b450bfbb35"><path d="M 68.167969 200.015625 L 741.53125 200.015625 L 741.53125 811.710938 L 68.167969 811.710938 Z M 68.167969 200.015625 "/></clipPath><clipPath id="d787679a0e"><path d="M 164.785156 652.1875 L 501.59375 652.1875 L 501.59375 728.359375 L 164.785156 728.359375 Z M 164.785156 652.1875 "/></clipPath><clipPath id="e0546d65f3"><path d="M 202.871094 652.1875 L 463.417969 652.1875 C 484.453125 652.1875 501.503906 669.238281 501.503906 690.273438 C 501.503906 711.308594 484.453125 728.359375 463.417969 728.359375 L 202.871094 728.359375 C 181.835938 728.359375 164.785156 711.308594 164.785156 690.273438 C 164.785156 669.238281 181.835938 652.1875 202.871094 652.1875 Z M 202.871094 652.1875 "/></clipPath><clipPath id="04b375cfa5"><path d="M 164.808594 652.1875 L 501.367188 652.1875 L 501.367188 728.386719 L 164.808594 728.386719 Z M 164.808594 652.1875 "/></clipPath><clipPath id="896abe4d54"><path d="M 202.871094 652.1875 L 463.28125 652.1875 C 484.304688 652.1875 501.347656 669.230469 501.347656 690.253906 C 501.347656 711.273438 484.304688 728.316406 463.28125 728.316406 L 202.871094 728.316406 C 181.847656 728.316406 164.808594 711.273438 164.808594 690.253906 C 164.808594 669.230469 181.847656 652.1875 202.871094 652.1875 Z M 202.871094 652.1875 "/></clipPath><clipPath id="cfe675b1de"><path d="M 36.660156 948.210938 L 64.394531 948.210938 L 64.394531 973.695312 L 36.660156 973.695312 Z M 36.660156 948.210938 "/></clipPath><clipPath id="891bdd6c26"><path d="M 754.574219 948.210938 L 773.3125 948.210938 L 773.3125 973.695312 L 754.574219 973.695312 Z M 754.574219 948.210938 "/></clipPath></defs><g id="18eea0e57c"><g clip-rule="nonzero" clip-path="url(#5e96e168ac)"><path style=" stroke:none;fill-rule:nonzero;fill:#ffffff;fill-opacity:1;" d="M 0.199219 0 L 809.800781 0 L 809.800781 1012 L 0.199219 1012 Z M 0.199219 0 "/><path style=" stroke:none;fill-rule:nonzero;fill:#000000;fill-opacity:1;" d="M 0.199219 0 L 809.800781 0 L 809.800781 1012 L 0.199219 1012 Z M 0.199219 0 "/><g mask="url(#0be79880bc)" transform="matrix(1,0,0,1,0.000000000000000028,0)"><g clip-path="url(#9e8cbf208d)"><g clip-rule="nonzero" clip-path="url(#166cbd9c34)"><g transform="matrix(1.807772,0,0,1.807143,-894.335965,0)"><image width="1438" xlink:href="PLACE_BACKGROUND_HERE" id="79eb47aadb" height="560" preserveAspectRatio="xMidYMid meet"/></g></g></g><mask id="0be79880bc"><g filter="url(#bd88342dd2)"><rect x="0" width="810" y="0" height="1012.49997" style="fill:#000000;fill-opacity:0.6;stroke:none;"/></g></mask></g></g><g clip-rule="nonzero" clip-path="url(#534e426fa3)"><path style=" stroke:none;fill-rule:nonzero;fill:#ffffff;fill-opacity:1;" d="M 68.167969 200.015625 L 742.292969 200.015625 L 742.292969 811.984375 L 68.167969 811.984375 Z M 68.167969 200.015625 "/></g><g clip-rule="nonzero" clip-path="url(#b450bfbb35)"><path style="fill:none;stroke-width:5;stroke-linecap:butt;stroke-linejoin:miter;stroke:#000000;stroke-opacity:1;stroke-miterlimit:4;" d="M -0.000872927 0.000407133 L 898.655934 0.000407133 L 898.655934 816.356409 L -0.000872927 816.356409 Z M -0.000872927 0.000407133 " transform="matrix(0.7493,0,0,0.7493,68.168623,200.01532)"/></g><g clip-rule="nonzero" clip-path="url(#d787679a0e)"><g clip-rule="nonzero" clip-path="url(#e0546d65f3)"><path style=" stroke:none;fill-rule:nonzero;fill:#COLOR_PRIMARY;fill-opacity:1;" d="M 164.785156 652.1875 L 501.59375 652.1875 L 501.59375 728.359375 L 164.785156 728.359375 Z M 164.785156 652.1875 "/></g></g><g clip-rule="nonzero" clip-path="url(#04b375cfa5)"><g clip-rule="nonzero" clip-path="url(#896abe4d54)"><path style="fill:none;stroke-width:4;stroke-linecap:butt;stroke-linejoin:miter;stroke:#000000;stroke-opacity:1;stroke-miterlimit:4;" d="M 50.796729 -0.00154936 L 398.314728 -0.00154936 C 426.370557 -0.00154936 449.114441 22.742335 449.114441 50.798164 C 449.114441 78.848781 426.370557 101.592665 398.314728 101.592665 L 50.796729 101.592665 C 22.7409 101.592665 0.00222865 78.848781 0.00222865 50.798164 C 0.00222865 22.742335 22.7409 -0.00154936 50.796729 -0.00154936 Z M 50.796729 -0.00154936 " transform="matrix(0.749343,0,0,0.749343,164.806924,652.188661)"/></g></g><g clip-rule="nonzero" clip-path="url(#cfe675b1de)"><path style=" stroke:none;fill-rule:nonzero;fill:#ffffff;fill-opacity:1;" d="M 50.78125 968.800781 L 50.429688 958.84375 L 60.273438 952.613281 Z M 40.804688 950.328125 L 59.691406 950.527344 L 49.382812 957.050781 Z M 64.195312 949.03125 C 64.007812 948.710938 63.664062 948.511719 63.292969 948.507812 L 62.902344 948.503906 L 62.894531 948.496094 L 62.886719 948.503906 L 37.785156 948.238281 C 37.339844 948.234375 36.941406 948.507812 36.796875 948.921875 C 36.652344 949.332031 36.789062 949.792969 37.136719 950.066406 L 48.339844 958.84375 L 48.816406 972.457031 C 48.832031 972.917969 49.15625 973.3125 49.613281 973.425781 C 49.613281 973.425781 49.613281 973.425781 49.613281 973.429688 C 50.066406 973.542969 50.535156 973.347656 50.769531 972.953125 L 64.199219 950.054688 C 64.382812 949.738281 64.382812 949.347656 64.195312 949.03125 "/></g><g clip-rule="nonzero" clip-path="url(#891bdd6c26)"><path style=" stroke:none;fill-rule:nonzero;fill:#ffffff;fill-opacity:1;" d="M 763.941406 962.308594 C 764.175781 962.308594 764.40625 962.410156 764.570312 962.59375 L 771.523438 970.230469 L 771.523438 950.128906 L 756.363281 950.128906 L 756.363281 970.234375 L 763.320312 962.59375 C 763.480469 962.410156 763.707031 962.308594 763.941406 962.308594 M 755.480469 973.523438 C 755.367188 973.523438 755.253906 973.5 755.148438 973.449219 C 754.816406 973.300781 754.601562 972.953125 754.601562 972.5625 L 754.601562 949.167969 C 754.601562 948.640625 754.996094 948.210938 755.480469 948.210938 L 772.40625 948.210938 C 772.894531 948.210938 773.285156 948.640625 773.285156 949.167969 L 773.285156 972.5625 C 773.285156 972.953125 773.070312 973.300781 772.738281 973.449219 C 772.410156 973.597656 772.03125 973.515625 771.777344 973.238281 L 763.941406 964.628906 L 756.109375 973.238281 C 755.9375 973.425781 755.714844 973.523438 755.480469 973.523438 "/></g></g></svg>