<svg xmlns="http://www.w3.org/2000/svg" xmlns:xlink="http://www.w3.org/1999/xlink" width="1080" zoomAndPan="magnify" viewBox="0 0 810 809.999993" height="1080" preserveAspectRatio="xMidYMid meet" version="1.2"><defs><clipPath id="f7c9ec4e54"><path d="M 0 605.355469 L 809.65625 605.355469 L 809.65625 810 L 0 810 Z M 0 605.355469 "/></clipPath><clipPath id="25519c1fd8"><path d="M 59 253 L 750.9375 253 L 750.9375 696.734375 L 59 696.734375 Z M 59 253 "/></clipPath><clipPath id="e2a79aca1e"><path d="M 145.738281 284 L 663.238281 284 L 663.238281 605.71875 L 145.738281 605.71875 Z M 145.738281 284 "/></clipPath><clipPath id="5009ab79d6"><path d="M 487.019531 114.003906 L 729.269531 114.003906 L 729.269531 544.503906 L 487.019531 544.503906 Z M 487.019531 114.003906 "/></clipPath><filter x="0%" y="0%" width="100%" filterUnits="objectBoundingBox" id="fb4d4f8068" height="100%"><feColorMatrix values="0 0 0 0 1 0 0 0 0 1 0 0 0 0 1 0 0 0 1 0" type="matrix" in="SourceGraphic"/></filter><clipPath id="fecd0db639"><path d="M 0.0195312 0.00390625 L 242 0.00390625 L 242 430.503906 L 0.0195312 430.503906 Z M 0.0195312 0.00390625 "/></clipPath><clipPath id="35aa4e43d5"><rect x="0" width="243" y="0" height="431"/></clipPath><clipPath id="f087cc150b"><path d="M 535.140625 102.132812 L 725 102.132812 L 725 489.851562 L 535.140625 489.851562 Z M 535.140625 102.132812 "/></clipPath><clipPath id="a7ca00c749"><path d="M 698.234375 102.507812 L 562.042969 102.507812 C 547.285156 102.507812 535.304688 114.484375 535.304688 129.246094 L 535.304688 463.0625 C 535.304688 477.820312 547.285156 489.800781 562.042969 489.800781 L 698.234375 489.800781 C 712.996094 489.800781 724.976562 477.820312 724.976562 463.0625 L 724.976562 129.246094 C 724.976562 114.484375 712.996094 102.507812 698.234375 102.507812 Z M 652.902344 114.773438 C 654.242188 114.773438 655.296875 115.828125 655.296875 117.167969 C 655.296875 118.511719 654.242188 119.566406 652.902344 119.566406 C 651.558594 119.566406 650.503906 118.511719 650.503906 117.167969 C 650.503906 115.828125 651.65625 114.773438 652.902344 114.773438 Z M 617.535156 115.539062 L 640.539062 115.539062 C 641.402344 115.539062 642.167969 116.210938 642.167969 117.167969 C 642.167969 118.128906 641.402344 118.800781 640.539062 118.800781 L 617.535156 118.800781 C 616.671875 118.800781 615.90625 118.128906 615.90625 117.167969 C 615.90625 116.210938 616.671875 115.539062 617.535156 115.539062 Z M 715.199219 464.59375 C 715.199219 473.316406 708.105469 480.410156 699.386719 480.410156 L 561.085938 480.410156 C 552.363281 480.410156 545.273438 473.316406 545.273438 464.59375 L 545.273438 128.191406 C 545.273438 119.46875 552.363281 112.378906 561.085938 112.378906 L 581.691406 112.378906 L 581.691406 116.691406 C 581.691406 121.578125 585.71875 125.605469 590.605469 125.605469 L 669.867188 125.605469 C 674.753906 125.605469 678.777344 121.578125 678.777344 116.691406 L 678.777344 112.378906 L 699.289062 112.378906 C 708.011719 112.378906 715.101562 119.46875 715.101562 128.191406 L 715.101562 464.59375 Z M 715.199219 464.59375 "/></clipPath><clipPath id="cc1735d853"><path d="M 545.179688 112.175781 L 715.871094 112.175781 L 715.871094 480.585938 L 545.179688 480.585938 Z M 545.179688 112.175781 "/></clipPath><clipPath id="4fb4f45987"><path d="M 699.289062 112.378906 L 678.777344 112.378906 L 678.777344 116.691406 C 678.777344 121.578125 674.753906 125.605469 669.867188 125.605469 L 590.699219 125.605469 C 585.8125 125.605469 581.789062 121.578125 581.789062 116.691406 L 581.789062 112.378906 L 561.085938 112.378906 C 552.363281 112.378906 545.273438 119.46875 545.273438 128.191406 L 545.273438 464.59375 C 545.273438 473.316406 552.363281 480.410156 561.085938 480.410156 L 699.289062 480.410156 C 708.011719 480.410156 715.101562 473.316406 715.101562 464.59375 L 715.101562 128.191406 C 715.199219 119.46875 708.105469 112.378906 699.289062 112.378906 Z M 699.289062 112.378906 "/></clipPath><clipPath id="510b7937e7"><path d="M 615.464844 115.265625 L 642.496094 115.265625 L 642.496094 119 L 615.464844 119 Z M 615.464844 115.265625 "/></clipPath><clipPath id="d969ae7dd8"><path d="M 640.539062 115.539062 L 617.535156 115.539062 C 616.671875 115.539062 615.90625 116.210938 615.90625 117.167969 C 615.90625 118.128906 616.671875 118.800781 617.535156 118.800781 L 640.539062 118.800781 C 641.402344 118.800781 642.167969 118.128906 642.167969 117.167969 C 642.167969 116.210938 641.402344 115.539062 640.539062 115.539062 Z M 640.539062 115.539062 "/></clipPath><clipPath id="9d67fc801a"><path d="M 650.21875 114.492188 L 655.625 114.492188 L 655.625 119.898438 L 650.21875 119.898438 Z M 650.21875 114.492188 "/></clipPath><clipPath id="01189571de"><path d="M 652.902344 114.773438 C 651.578125 114.773438 650.503906 115.847656 650.503906 117.167969 C 650.503906 118.492188 651.578125 119.566406 652.902344 119.566406 C 654.226562 119.566406 655.296875 118.492188 655.296875 117.167969 C 655.296875 115.847656 654.226562 114.773438 652.902344 114.773438 Z M 652.902344 114.773438 "/></clipPath><clipPath id="a83b911a55"><path d="M 531.277344 152.335938 L 533.597656 152.335938 L 533.597656 168.554688 L 531.277344 168.554688 Z M 531.277344 152.335938 "/></clipPath><clipPath id="c608ae5c02"><path d="M 531.277344 154.355469 L 531.277344 166.335938 C 531.277344 167.488281 532.238281 168.445312 533.386719 168.445312 L 533.386719 152.34375 C 532.238281 152.34375 531.277344 153.207031 531.277344 154.355469 Z M 531.277344 154.355469 "/></clipPath><clipPath id="fc55f07171"><path d="M 531.277344 180.140625 L 533.597656 180.140625 L 533.597656 209.492188 L 531.277344 209.492188 Z M 531.277344 180.140625 "/></clipPath><clipPath id="e7dce5d7c9"><path d="M 531.277344 182.4375 L 531.277344 207.355469 C 531.277344 208.507812 532.238281 209.464844 533.386719 209.464844 L 533.386719 180.425781 C 532.238281 180.425781 531.277344 181.289062 531.277344 182.4375 Z M 531.277344 182.4375 "/></clipPath><clipPath id="ac48db6ce5"><path d="M 531.277344 215.667969 L 533.597656 215.667969 L 533.597656 245 L 531.277344 245 Z M 531.277344 215.667969 "/></clipPath><clipPath id="5081576747"><path d="M 531.277344 217.898438 L 531.277344 242.816406 C 531.277344 243.96875 532.238281 244.925781 533.386719 244.925781 L 533.386719 215.789062 C 532.238281 215.789062 531.277344 216.75 531.277344 217.898438 Z M 531.277344 217.898438 "/></clipPath><clipPath id="b1777e8e37"><path d="M 726.683594 190 L 729 190 L 729 237 L 726.683594 237 Z M 726.683594 190 "/></clipPath><clipPath id="870b0a9455"><path d="M 726.890625 190.007812 L 726.890625 236.683594 C 728.042969 236.683594 729 235.726562 729 234.574219 L 729 192.117188 C 729 190.96875 728.042969 190.007812 726.890625 190.007812 Z M 726.890625 190.007812 "/></clipPath><clipPath id="7326b31114"><path d="M 533 100.589844 L 727 100.589844 L 727 492 L 533 492 Z M 533 100.589844 "/></clipPath><clipPath id="9406516511"><path d="M 726.890625 190.007812 L 726.890625 129.246094 C 726.890625 127.234375 726.699219 125.316406 726.316406 123.496094 C 726.125 122.535156 725.933594 121.675781 725.644531 120.714844 C 725.261719 119.375 724.6875 118.03125 724.113281 116.785156 C 723.730469 115.925781 723.25 115.15625 722.769531 114.390625 C 722.292969 113.625 721.8125 112.855469 721.238281 112.089844 C 720.375 110.941406 719.511719 109.980469 718.554688 108.925781 C 717.882812 108.257812 717.210938 107.679688 716.539062 107.105469 C 711.558594 102.984375 705.230469 100.589844 698.332031 100.589844 L 562.042969 100.589844 C 555.144531 100.589844 548.722656 103.082031 543.835938 107.105469 C 543.164062 107.679688 542.492188 108.351562 541.820312 108.925781 C 540.863281 109.886719 539.90625 110.941406 539.136719 112.089844 C 538.5625 112.855469 538.082031 113.625 537.605469 114.390625 C 537.125 115.15625 536.644531 116.019531 536.261719 116.785156 C 535.589844 118.128906 535.113281 119.375 534.632812 120.714844 C 534.347656 121.675781 534.152344 122.535156 533.960938 123.496094 C 533.578125 125.316406 533.386719 127.328125 533.386719 129.246094 L 533.386719 463.0625 C 533.386719 478.875 546.230469 491.71875 562.042969 491.71875 L 698.234375 491.71875 C 714.046875 491.71875 726.890625 478.875 726.890625 463.0625 Z M 724.976562 190.007812 L 724.976562 463.15625 C 724.976562 477.917969 712.996094 489.898438 698.234375 489.898438 L 562.042969 489.898438 C 547.285156 489.898438 535.304688 477.917969 535.304688 463.15625 L 535.304688 129.339844 C 535.304688 114.484375 547.285156 102.507812 562.042969 102.507812 L 698.234375 102.507812 C 712.996094 102.507812 724.976562 114.484375 724.976562 129.246094 Z M 724.976562 190.007812 "/></clipPath></defs><g id="c5fe152ac9"><rect x="0" width="810" y="0" height="809.999993" style="fill:#ffffff;fill-opacity:1;stroke:none;"/><rect x="0" width="810" y="0" height="809.999993" style="fill:#fafbf5;fill-opacity:1;stroke:none;"/><g clip-rule="nonzero" clip-path="url(#f7c9ec4e54)"><path style=" stroke:none;fill-rule:nonzero;fill:COLOR_BRANDCOLOR;fill-opacity:1;" d="M -0.34375 605.355469 L 809.441406 605.355469 L 809.441406 810 L -0.34375 810 Z M -0.34375 605.355469 "/></g><g clip-rule="nonzero" clip-path="url(#25519c1fd8)"><g mask="url(#46f7e11935)" transform="matrix(0.197616,0,0,0.197685,58.688456,252.735487)"><image width="3503" xlink:href="file:///Users/erikbelt/Desktop/Mood Tracking App/AdCreator/image-generation-service/assets/Website_iPhone-img1-bf785732.png" height="2246" preserveAspectRatio="xMidYMid meet"/><mask id="46f7e11935"><g><image width="3503" xlink:href="file:///Users/erikbelt/Desktop/Mood Tracking App/AdCreator/image-generation-service/assets/Website_iPhone-img2-35519296.png" height="2246" preserveAspectRatio="xMidYMid meet"/></g></mask></g></g><g clip-rule="nonzero" clip-path="url(#e2a79aca1e)"><g transform="matrix(0.573537,0,0,0.574554,145.253828,283.968385)"><image width="904" xlink:href="PLACE_PRODUCT_IMAGE_1_HERE" height="560" preserveAspectRatio="xMidYMid meet"/></g></g><g clip-rule="nonzero" clip-path="url(#5009ab79d6)"><g mask="url(#c7b4fe2646)" transform="matrix(1,0,0,1,487,114)"><g clip-path="url(#35aa4e43d5)"><g clip-rule="nonzero" clip-path="url(#fecd0db639)"><g mask="url(#d58f3a2c96)" transform="matrix(0.186597,0,0,0.186527,0.041771,0.00284626)"><image width="1298" xlink:href="file:///Users/erikbelt/Desktop/Mood Tracking App/AdCreator/image-generation-service/assets/Website_iPhone-img4-302f3eed.png" id="657f009669" height="2308" preserveAspectRatio="xMidYMid meet"/><mask id="d58f3a2c96"><g transform="matrix(1,0,0,1,-0.000000000000000028,0.000000000000000002)"><image width="1298" xlink:href="file:///Users/erikbelt/Desktop/Mood Tracking App/AdCreator/image-generation-service/assets/Website_iPhone-img5-70329417.png" id="28158e7cca" height="2308" preserveAspectRatio="xMidYMid meet"/></g></mask></g></g></g><mask id="c7b4fe2646"><g filter="url(#fb4d4f8068)"><rect x="0" width="810" y="0" height="809.999993" style="fill:#000000;fill-opacity:0.4;stroke:none;"/></g></mask></g></g><g clip-rule="nonzero" clip-path="url(#f087cc150b)"><g clip-rule="nonzero" clip-path="url(#a7ca00c749)"><path style=" stroke:none;fill-rule:nonzero;fill:#000000;fill-opacity:1;" d="M 531.277344 100.589844 L 729 100.589844 L 729 492.167969 L 531.277344 492.167969 Z M 531.277344 100.589844 "/></g></g><g clip-rule="nonzero" clip-path="url(#cc1735d853)"><g clip-rule="nonzero" clip-path="url(#4fb4f45987)"><g transform="matrix(0.657409,0,0,0.657875,157.661655,112.377746)"><image width="1438" xlink:href="PLACE_SCREENSHOT_HERE" height="560" preserveAspectRatio="xMidYMid meet"/></g></g></g><g clip-rule="nonzero" clip-path="url(#510b7937e7)"><g clip-rule="nonzero" clip-path="url(#d969ae7dd8)"><path style=" stroke:none;fill-rule:nonzero;fill:#555555;fill-opacity:1;" d="M 531.277344 100.589844 L 729 100.589844 L 729 492.167969 L 531.277344 492.167969 Z M 531.277344 100.589844 "/></g></g><g clip-rule="nonzero" clip-path="url(#9d67fc801a)"><g clip-rule="nonzero" clip-path="url(#01189571de)"><path style=" stroke:none;fill-rule:nonzero;fill:#2e2e2e;fill-opacity:1;" d="M 531.277344 100.589844 L 729 100.589844 L 729 492.167969 L 531.277344 492.167969 Z M 531.277344 100.589844 "/></g></g><g clip-rule="nonzero" clip-path="url(#a83b911a55)"><g clip-rule="nonzero" clip-path="url(#c608ae5c02)"><path style=" stroke:none;fill-rule:nonzero;fill:#2e2e2e;fill-opacity:1;" d="M 531.277344 100.589844 L 729 100.589844 L 729 492.167969 L 531.277344 492.167969 Z M 531.277344 100.589844 "/></g></g><g clip-rule="nonzero" clip-path="url(#fc55f07171)"><g clip-rule="nonzero" clip-path="url(#e7dce5d7c9)"><path style=" stroke:none;fill-rule:nonzero;fill:#2e2e2e;fill-opacity:1;" d="M 531.277344 100.589844 L 729 100.589844 L 729 492.167969 L 531.277344 492.167969 Z M 531.277344 100.589844 "/></g></g><g clip-rule="nonzero" clip-path="url(#ac48db6ce5)"><g clip-rule="nonzero" clip-path="url(#5081576747)"><path style=" stroke:none;fill-rule:nonzero;fill:#2e2e2e;fill-opacity:1;" d="M 531.277344 100.589844 L 729 100.589844 L 729 492.167969 L 531.277344 492.167969 Z M 531.277344 100.589844 "/></g></g><g clip-rule="nonzero" clip-path="url(#b1777e8e37)"><g clip-rule="nonzero" clip-path="url(#870b0a9455)"><path style=" stroke:none;fill-rule:nonzero;fill:#555555;fill-opacity:1;" d="M 531.277344 100.589844 L 729 100.589844 L 729 492.167969 L 531.277344 492.167969 Z M 531.277344 100.589844 "/></g></g><g clip-rule="nonzero" clip-path="url(#7326b31114)"><g clip-rule="nonzero" clip-path="url(#9406516511)"><path style=" stroke:none;fill-rule:nonzero;fill:#555555;fill-opacity:1;" d="M 531.277344 100.589844 L 729 100.589844 L 729 492.167969 L 531.277344 492.167969 Z M 531.277344 100.589844 "/></g></g><path style="fill:none;stroke-width:2;stroke-linecap:butt;stroke-linejoin:miter;stroke:#000000;stroke-opacity:1;stroke-miterlimit:4;" d="M -0.00188124 0.999525 L 92.779373 0.999525 " transform="matrix(0.75,0,0,0.75,383.009223,125.723013)"/></g></svg>